<?xml version="1.0" encoding="UTF-8"?>
<svg version="1.1" xmlns="http://www.w3.org/2000/svg" width="512" height="512">
<path d="M0 0 C0.90662608 -0.00538554 1.81325217 -0.01077108 2.74735177 -0.01631981 C5.7563619 -0.03051811 8.76492704 -0.02351584 11.7739563 -0.01637268 C13.94312898 -0.02208051 16.11229865 -0.02904637 18.28146362 -0.03717041 C24.15343427 -0.05507164 30.02525522 -0.05393904 35.89724493 -0.04822803 C40.8076351 -0.04513164 45.7179967 -0.05123368 50.6283828 -0.05726677 C62.21697066 -0.07130058 73.80548478 -0.06976034 85.39407349 -0.05836487 C97.33086255 -0.04688604 109.26742687 -0.06095814 121.20418632 -0.08776134 C131.47032399 -0.10994623 141.73639127 -0.11654938 152.0025512 -0.11068493 C158.12629653 -0.1073207 164.24989783 -0.109695 170.37362289 -0.12693596 C176.13411254 -0.14244725 181.89427028 -0.13840291 187.65474701 -0.11963081 C189.76216444 -0.11595647 191.8696067 -0.11901948 193.97700119 -0.1295166 C214.46983432 -0.22375675 214.46983432 -0.22375675 224.45022583 4.38768005 C225.27076887 4.76561486 226.09131191 5.14354967 226.93671989 5.53293705 C241.39532767 12.57962444 250.21560119 25.63555607 255.45022583 40.38768005 C256.26304549 43.193394 256.57422153 45.67103132 256.57048035 48.5891571 C256.57254234 49.83428574 256.57254234 49.83428574 256.574646 51.10456848 C256.57105072 52.00655975 256.56745544 52.90855103 256.56375122 53.83787537 C256.56389725 54.79430939 256.56404327 55.75074341 256.56419373 56.73616028 C256.56349731 59.89606498 256.55571757 63.05591066 256.54788208 66.21580505 C256.54601694 68.40727201 256.54459349 70.59873939 256.54359436 72.79020691 C256.53977677 78.55728812 256.52995292 84.32434414 256.51889038 90.09141541 C256.50865999 95.97662515 256.50409325 101.86183898 256.49905396 107.74705505 C256.48833 119.29394112 256.47126264 130.84080849 256.45022583 142.38768005 C257.66826401 142.19004562 258.88630219 141.99241119 260.14125061 141.78878784 C308.91246278 134.13970542 363.65729749 130.64686681 406.20011711 159.9661808 C434.05046996 180.39393605 454.66135464 206.24919153 460.17915636 240.93687862 C469.6909312 308.0682257 464.6986177 379.29503978 460.31668091 446.68186951 C460.25366291 447.71663937 460.19064492 448.75140923 460.12571728 449.81753576 C458.9503698 468.69702579 455.53630735 485.73542778 441.09866333 499.28611755 C430.38681267 507.78608165 418.6654748 512.87545781 404.90045166 512.77536011 C403.99382558 512.78074565 403.08719949 512.78613118 402.15309989 512.79167992 C399.14408976 512.80587821 396.13552462 512.79887594 393.12649536 512.79173279 C390.95732268 512.79744062 388.78815301 512.80440648 386.61898804 512.81253052 C380.74701739 512.83043175 374.87519644 512.82929915 369.00320673 512.82358813 C364.09281656 512.82049175 359.18245496 512.82659378 354.27206886 512.83262688 C342.683481 512.84666069 331.09496688 512.84512045 319.50637817 512.83372498 C307.56958911 512.82224615 295.63302479 512.83631825 283.69626534 512.86312145 C273.43012767 512.88530634 263.16406039 512.89190949 252.89790046 512.88604504 C246.77415513 512.88268081 240.65055383 512.88505511 234.52682877 512.90229607 C228.76633912 512.91780736 223.00618138 512.91376302 217.24570465 512.89499092 C215.13828722 512.89131658 213.03084496 512.89437959 210.92345047 512.90487671 C192.74196183 512.98848771 177.59853417 510.15072017 163.70022583 497.32518005 C153.51470096 486.47296629 147.92772804 473.10613066 148.10964966 458.2563324 C148.10921158 457.29902222 148.1087735 456.34171204 148.10832214 455.35539246 C148.11039267 452.22791812 148.13364114 449.10099688 148.15725708 445.97361755 C148.16285921 443.79072869 148.16712639 441.60783602 148.17012024 439.42494202 C148.18152036 433.7071727 148.21094569 427.9896356 148.24423218 422.2719574 C148.27503761 416.42644898 148.28864789 410.58090267 148.30374146 404.7353363 C148.33582023 393.28601609 148.3869577 381.83686746 148.45022583 370.38768005 C147.64699764 370.39136723 146.84376945 370.3950544 146.01620102 370.3988533 C126.43418858 370.48735141 106.85221628 370.55346107 87.27004623 370.59492874 C77.80008493 370.61551737 68.33025746 370.64356692 58.86038208 370.68943787 C50.60241866 370.72941925 42.34455221 370.75513973 34.08649468 370.76403403 C29.71752171 370.76922972 25.34882605 370.78136354 20.97994232 370.81060028 C16.85950796 370.83794843 12.73946258 370.84608632 8.61894608 370.84011078 C7.11461135 370.84120241 5.61026228 370.84904017 4.10600662 370.86450195 C-12.11609149 371.02292716 -26.18794231 366.50213638 -38.29977417 355.32518005 C-49.11727746 343.79962201 -54.02615372 330.20314634 -53.93745422 314.56007385 C-53.94283976 313.40843463 -53.9482253 312.2567954 -53.95377403 311.07025802 C-53.96801975 307.23210729 -53.960958 303.3943031 -53.9538269 299.55613708 C-53.95789078 296.79583345 -53.96639711 294.03554723 -53.97462463 291.2752533 C-53.99177621 284.56822173 -53.99266021 277.861284 -53.98741173 271.15423621 C-53.98336188 265.69976249 -53.98482325 260.24531638 -53.99015999 254.79084396 C-53.99090841 254.01301167 -53.99165683 253.23517937 -53.99242793 252.4337764 C-53.99395949 250.85334651 -53.99549784 249.27291663 -53.9970429 247.69248675 C-54.01075485 232.88834828 -54.00533952 218.08426273 -53.99385769 203.28012548 C-53.98392738 189.7543755 -53.99686478 176.22876235 -54.02079188 162.70303346 C-54.04520973 148.79445208 -54.05478412 134.88593437 -54.04813915 120.977332 C-54.0446528 113.1768603 -54.04684026 105.37649379 -54.06439018 97.57603836 C-54.07914584 90.93552585 -54.07970391 84.2951926 -54.06231927 77.65468349 C-54.05383408 74.27074648 -54.05378462 70.88739065 -54.06697083 67.50342941 C-54.08020665 63.82507176 -54.06860865 60.14757477 -54.05097961 56.46925354 C-54.06058462 55.41378142 -54.07018963 54.35830929 -54.08008569 53.27085316 C-53.94153843 39.15335386 -48.03497071 25.98397575 -38.48727417 15.63768005 C-27.86364389 5.666696 -14.57200656 -0.10596599 0 0 Z " fill="#C8DBDB" transform="translate(53.549774169921875,-0.3876800537109375)"/>
<path d="M0 0 C0.90662608 -0.00538554 1.81325217 -0.01077108 2.74735177 -0.01631981 C5.7563619 -0.03051811 8.76492704 -0.02351584 11.7739563 -0.01637268 C13.94312898 -0.02208051 16.11229865 -0.02904637 18.28146362 -0.03717041 C24.15343427 -0.05507164 30.02525522 -0.05393904 35.89724493 -0.04822803 C40.8076351 -0.04513164 45.7179967 -0.05123368 50.6283828 -0.05726677 C62.21697066 -0.07130058 73.80548478 -0.06976034 85.39407349 -0.05836487 C97.33086255 -0.04688604 109.26742687 -0.06095814 121.20418632 -0.08776134 C131.47032399 -0.10994623 141.73639127 -0.11654938 152.0025512 -0.11068493 C158.12629653 -0.1073207 164.24989783 -0.109695 170.37362289 -0.12693596 C176.13411254 -0.14244725 181.89427028 -0.13840291 187.65474701 -0.11963081 C189.76216444 -0.11595647 191.8696067 -0.11901948 193.97700119 -0.1295166 C214.46983432 -0.22375675 214.46983432 -0.22375675 224.45022583 4.38768005 C225.27076887 4.76561486 226.09131191 5.14354967 226.93671989 5.53293705 C241.39532767 12.57962444 250.21560119 25.63555607 255.45022583 40.38768005 C256.26304549 43.193394 256.57422153 45.67103132 256.57048035 48.5891571 C256.57254234 49.83428574 256.57254234 49.83428574 256.574646 51.10456848 C256.57105072 52.00655975 256.56745544 52.90855103 256.56375122 53.83787537 C256.56389725 54.79430939 256.56404327 55.75074341 256.56419373 56.73616028 C256.56349731 59.89606498 256.55571757 63.05591066 256.54788208 66.21580505 C256.54601694 68.40727201 256.54459349 70.59873939 256.54359436 72.79020691 C256.53977677 78.55728812 256.52995292 84.32434414 256.51889038 90.09141541 C256.50865999 95.97662515 256.50409325 101.86183898 256.49905396 107.74705505 C256.48833 119.29394112 256.47126264 130.84080849 256.45022583 142.38768005 C255.32841667 142.3931485 255.32841667 142.3931485 254.1839447 142.39872742 C247.07983099 142.4368497 239.97617011 142.49397197 232.87239552 142.57158279 C229.22164624 142.61082111 225.57112963 142.64312361 221.92019653 142.65867615 C218.3861262 142.6740011 214.85269657 142.70871839 211.31891441 142.75598907 C209.33802994 142.77769394 207.35696379 142.78014008 205.3759613 142.7820282 C189.93780892 143.02746722 176.15572828 147.89699457 164.70022583 158.45018005 C151.57623309 172.45705958 148.99896434 187.86302818 149.01785278 206.3434906 C149.00882224 208.13820057 148.99849188 209.9329044 148.98696899 211.7276001 C148.95952456 216.56978605 148.95013162 221.41185458 148.94411492 226.25410819 C148.93469842 231.32568193 148.90849247 236.39716908 148.8841095 241.46868896 C148.8405307 251.0589493 148.81193086 260.64919275 148.78878611 270.2395218 C148.76168813 281.16344019 148.71777951 292.08727109 148.67249739 303.01112688 C148.57977463 325.46993043 148.50803737 347.92876141 148.45022583 370.38768005 C128.05687489 370.48129454 107.6635678 370.55174293 87.27004623 370.59492874 C77.80008493 370.61551737 68.33025746 370.64356692 58.86038208 370.68943787 C50.60241866 370.72941925 42.34455221 370.75513973 34.08649468 370.76403403 C29.71752171 370.76922972 25.34882605 370.78136354 20.97994232 370.81060028 C16.85950796 370.83794843 12.73946258 370.84608632 8.61894608 370.84011078 C7.11461135 370.84120241 5.61026228 370.84904017 4.10600662 370.86450195 C-12.11609149 371.02292716 -26.18794231 366.50213638 -38.29977417 355.32518005 C-49.11727746 343.79962201 -54.02615372 330.20314634 -53.93745422 314.56007385 C-53.94283976 313.40843463 -53.9482253 312.2567954 -53.95377403 311.07025802 C-53.96801975 307.23210729 -53.960958 303.3943031 -53.9538269 299.55613708 C-53.95789078 296.79583345 -53.96639711 294.03554723 -53.97462463 291.2752533 C-53.99177621 284.56822173 -53.99266021 277.861284 -53.98741173 271.15423621 C-53.98336188 265.69976249 -53.98482325 260.24531638 -53.99015999 254.79084396 C-53.99090841 254.01301167 -53.99165683 253.23517937 -53.99242793 252.4337764 C-53.99395949 250.85334651 -53.99549784 249.27291663 -53.9970429 247.69248675 C-54.01075485 232.88834828 -54.00533952 218.08426273 -53.99385769 203.28012548 C-53.98392738 189.7543755 -53.99686478 176.22876235 -54.02079188 162.70303346 C-54.04520973 148.79445208 -54.05478412 134.88593437 -54.04813915 120.977332 C-54.0446528 113.1768603 -54.04684026 105.37649379 -54.06439018 97.57603836 C-54.07914584 90.93552585 -54.07970391 84.2951926 -54.06231927 77.65468349 C-54.05383408 74.27074648 -54.05378462 70.88739065 -54.06697083 67.50342941 C-54.08020665 63.82507176 -54.06860865 60.14757477 -54.05097961 56.46925354 C-54.06058462 55.41378142 -54.07018963 54.35830929 -54.08008569 53.27085316 C-53.94153843 39.15335386 -48.03497071 25.98397575 -38.48727417 15.63768005 C-27.86364389 5.666696 -14.57200656 -0.10596599 0 0 Z " fill="#FEE037" transform="translate(53.549774169921875,-0.3876800537109375)"/>
<path d="M0 0 C2.15115952 0.00589206 4.30232479 0.00996603 6.45349121 0.01220703 C14.36882202 0.03305205 22.28402952 0.08889697 30.19921875 0.140625 C56.77453125 0.264375 56.77453125 0.264375 83.88671875 0.390625 C83.88671875 49.890625 83.88671875 99.390625 83.88671875 150.390625 C42.32421875 150.640625 42.32421875 150.640625 29.22827148 150.68847656 C25.33512664 150.72171985 25.33512664 150.72171985 21.44203186 150.76019287 C19.71571867 150.77475246 17.9893292 150.78157629 16.26295471 150.78216553 C13.63890806 150.78459288 11.01615525 150.8120044 8.39233398 150.84472656 C7.24970046 150.83719046 7.24970046 150.83719046 6.08398342 150.82950211 C0.62287944 150.93572608 -2.60972084 152.26871875 -7.11328125 155.390625 C-10.10740156 159.73692868 -10.66237777 163.17420804 -10.11328125 168.390625 C-8.81825927 172.88511305 -7.87587144 174.85427747 -4.02378845 177.5635376 C0.11731359 179.7841082 3.76334048 179.9671504 8.39233398 179.93652344 C9.62281715 179.95202995 9.62281715 179.95202995 10.87815857 179.96784973 C13.56741319 179.99715394 16.25591114 179.99877425 18.9453125 180 C20.81862309 180.01499004 22.69192051 180.03171892 24.56520081 180.05010986 C29.47900009 180.0937031 34.39262111 180.11376468 39.30657959 180.12884521 C44.32754014 180.14844525 49.34830898 180.19041202 54.36914062 180.23046875 C64.20830654 180.30568416 74.04733358 180.35395923 83.88671875 180.390625 C83.88671875 190.290625 83.88671875 200.190625 83.88671875 210.390625 C81.37876709 210.3999707 78.87081543 210.40931641 76.28686523 210.41894531 C67.98865614 210.45275443 59.6906947 210.50832532 51.39268398 210.57452774 C46.36293189 210.61399021 41.33335456 210.64618478 36.3034668 210.66162109 C31.44679567 210.6767957 26.59060501 210.71125571 21.73414803 210.75893402 C19.88390345 210.77373949 18.03359028 210.78166554 16.18328667 210.78250885 C13.58578502 210.78488279 10.98960659 210.8119958 8.39233398 210.84472656 C7.63203888 210.8396962 6.87174377 210.83466583 6.08840942 210.82948303 C0.62524786 210.93557838 -2.60791239 212.26746511 -7.11328125 215.390625 C-10.10740156 219.73692868 -10.66237777 223.17420804 -10.11328125 228.390625 C-8.81825927 232.88511305 -7.87587144 234.85427747 -4.02378845 237.5635376 C0.11731359 239.7841082 3.76334048 239.9671504 8.39233398 239.93652344 C9.62281715 239.95202995 9.62281715 239.95202995 10.87815857 239.96784973 C13.56741319 239.99715394 16.25591114 239.99877425 18.9453125 240 C20.81862309 240.01499004 22.69192051 240.03171892 24.56520081 240.05010986 C29.47900009 240.0937031 34.39262111 240.11376468 39.30657959 240.12884521 C44.32754014 240.14844525 49.34830898 240.19041202 54.36914062 240.23046875 C64.20830654 240.30568416 74.04733358 240.35395923 83.88671875 240.390625 C83.88671875 250.290625 83.88671875 260.190625 83.88671875 270.390625 C81.37876709 270.3999707 78.87081543 270.40931641 76.28686523 270.41894531 C67.98865614 270.45275443 59.6906947 270.50832532 51.39268398 270.57452774 C46.36293189 270.61399021 41.33335456 270.64618478 36.3034668 270.66162109 C31.44679567 270.6767957 26.59060501 270.71125571 21.73414803 270.75893402 C19.88390345 270.77373949 18.03359028 270.78166554 16.18328667 270.78250885 C13.58578502 270.78488279 10.98960659 270.8119958 8.39233398 270.84472656 C7.63203888 270.8396962 6.87174377 270.83466583 6.08840942 270.82948303 C0.62524786 270.93557838 -2.60791239 272.26746511 -7.11328125 275.390625 C-10.10740156 279.73692868 -10.66237777 283.17420804 -10.11328125 288.390625 C-8.81825927 292.88511305 -7.87587144 294.85427747 -4.02378845 297.5635376 C0.11731359 299.7841082 3.76334048 299.9671504 8.39233398 299.93652344 C9.2126561 299.94686111 10.03297821 299.95719879 10.87815857 299.96784973 C13.56741319 299.99715394 16.25591114 299.99877425 18.9453125 300 C20.81862309 300.01499004 22.69192051 300.03171892 24.56520081 300.05010986 C29.47900009 300.0937031 34.39262111 300.11376468 39.30657959 300.12884521 C45.21139792 300.15189552 51.11602048 300.20431596 57.02068329 300.25178528 C65.97607943 300.32050614 74.93091393 300.35203071 83.88671875 300.390625 C83.88671875 323.490625 83.88671875 346.590625 83.88671875 370.390625 C56.66620681 370.55106024 56.66620681 370.55106024 45.015625 370.5859375 C37.08242319 370.60979938 29.14937426 370.63795355 21.21630859 370.69238281 C14.81666791 370.73601372 8.41722643 370.7597987 2.01744843 370.77013397 C-0.4176573 370.77749439 -2.85275278 370.79186721 -5.28777313 370.81354523 C-8.71259166 370.84280772 -12.13659896 370.84657138 -15.56152344 370.84472656 C-16.5563121 370.85910767 -17.55110077 370.87348877 -18.57603455 370.88830566 C-32.52394705 370.80761398 -45.66742357 364.73699538 -55.86328125 355.328125 C-66.65077492 343.83454084 -71.59015612 330.25048907 -71.5009613 314.64567566 C-71.50903961 312.93152583 -71.50903961 312.93152583 -71.51728112 311.18274671 C-71.53152557 307.37456814 -71.52446538 303.56673889 -71.51733398 299.75854492 C-71.521398 297.01956792 -71.52990436 294.28060846 -71.53813171 291.54164124 C-71.55528302 284.88641141 -71.55616727 278.23127616 -71.55091881 271.57602998 C-71.54686856 266.16304075 -71.5483308 260.75007936 -71.55366707 255.33709145 C-71.55441549 254.5650986 -71.55516391 253.79310575 -71.55593501 252.99771917 C-71.55746658 251.42912901 -71.55900493 249.86053886 -71.56054998 248.29194871 C-71.57426207 233.59841899 -71.56884671 218.90494257 -71.55736477 204.21141408 C-71.54743656 190.78980365 -71.5603682 177.36833117 -71.58429896 163.94674202 C-71.60872393 150.14324686 -71.61828932 136.33981585 -71.61164623 122.53629953 C-71.60816119 114.79559939 -71.61033854 107.05500524 -71.62789726 99.31432152 C-71.64266195 92.72397614 -71.64319942 86.13381139 -71.62582635 79.54346939 C-71.61734812 76.18573563 -71.61727916 72.82858696 -71.63047791 69.47082901 C-71.72434443 43.60907278 -71.72434443 43.60907278 -67.11328125 33.390625 C-66.59507812 32.22144531 -66.076875 31.05226562 -65.54296875 29.84765625 C-57.10434976 15.49352294 -45.40632167 6.07090557 -29.43296814 1.25253296 C-19.9236031 -0.95953909 -9.69084524 -0.08898824 0 0 Z " fill="#ECF1F1" transform="translate(273.11328125,141.609375)"/>
<path d="M0 0 C26.13024459 -0.09354118 52.260464 -0.1640272 78.39084244 -0.20724869 C90.52429052 -0.22785274 102.65763442 -0.25593217 114.79101562 -0.30175781 C125.36943819 -0.34169152 135.94778527 -0.36744849 146.52628112 -0.37635398 C152.12483679 -0.38155763 157.72317658 -0.39374329 163.3216629 -0.42292023 C168.59772727 -0.45019249 173.87348807 -0.45842116 179.14961624 -0.45243073 C181.07966134 -0.45352569 183.00971722 -0.4614088 184.93970108 -0.4768219 C203.01095732 -0.61398856 217.1435325 2.87002821 230.64453125 15.5546875 C238.81856663 24.040502 246.13580567 36.07157847 246.12025452 48.20147705 C246.12231651 49.44660568 246.12231651 49.44660568 246.12442017 50.71688843 C246.12082489 51.6188797 246.11722961 52.52087097 246.11352539 53.45019531 C246.11367142 54.40662933 246.11381744 55.36306335 246.1139679 56.34848022 C246.11327148 59.50838492 246.10549174 62.6682306 246.09765625 65.828125 C246.09579111 68.01959196 246.09436766 70.21105933 246.09336853 72.40252686 C246.08955094 78.16960807 246.07972709 83.93666409 246.06866455 89.70373535 C246.05843416 95.5889451 246.05386742 101.47415892 246.04882812 107.359375 C246.03810417 118.90626107 246.02103681 130.45312844 246 142 C244.87819084 142.00546844 244.87819084 142.00546844 243.73371887 142.01104736 C236.62960516 142.04916964 229.52594428 142.10629192 222.42216969 142.18390274 C218.77142041 142.22314105 215.1209038 142.25544355 211.4699707 142.27099609 C207.93590037 142.28632105 204.40247074 142.32103834 200.86868858 142.36830902 C198.88780411 142.39001389 196.90673796 142.39246002 194.92573547 142.39434814 C185.40972443 142.54563571 176.51556987 143.93697927 168.09538269 148.61305237 C164.34956528 150.29144018 161.622822 150.36155028 157.52587891 150.34057617 C156.42454148 150.34111858 156.42454148 150.34111858 155.30095482 150.34167194 C152.9425391 150.33944659 150.58484966 150.31666577 148.2265625 150.29296875 C146.76326845 150.28855359 145.29996966 150.28549571 143.83666992 150.28381348 C138.43270733 150.26813467 133.0288464 150.22625077 127.625 150.1875 C109.495625 150.0946875 109.495625 150.0946875 91 150 C91 125.25 91 100.5 91 75 C73.1694335 75.15811829 73.1694335 75.15811829 55.33935547 75.36035156 C53.09864056 75.37203758 50.85791715 75.38222961 48.6171875 75.390625 C47.46033447 75.41108887 46.30348145 75.43155273 45.11157227 75.45263672 C38.91959384 75.45531897 34.75293702 75.41822315 30 71 C26.80028362 67.38045023 24.93902753 63.96283801 23.15917969 59.48144531 C22.90500275 58.84833939 22.65082581 58.21523346 22.38894653 57.5629425 C21.55827827 55.4878754 20.73996133 53.40818091 19.921875 51.328125 C19.34537055 49.88006986 18.7681502 48.43229956 18.19024658 46.98480225 C16.98491137 43.96081578 15.78512278 40.93471347 14.58984375 37.90673828 C13.05461975 34.0175927 11.51040936 30.13210046 9.96268845 26.24791336 C8.48804646 22.54655738 7.01702459 18.84376726 5.546875 15.140625 C5.26504112 14.43112953 4.98320724 13.72163406 4.69283295 12.99063873 C3.90100074 10.99485649 3.11166135 8.99810916 2.32324219 7.00097656 C1.8734198 5.86356018 1.42359741 4.7261438 0.96014404 3.55426025 C0 1 0 1 0 0 Z " fill="#FAC814" transform="translate(64,0)"/>
<path d="M0 0 C60.06 0 120.12 0 182 0 C167.77110152 36.99513604 167.77110152 36.99513604 164.36694336 45.57617188 C163.65103163 47.3915609 162.94295603 49.21005584 162.24194336 51.03125 C161.19702145 53.74219292 160.12676774 56.44188649 159.05078125 59.140625 C158.74642654 59.9467926 158.44207184 60.75296021 158.12849426 61.58355713 C155.62901013 67.73173891 152.00568721 71.9971564 146 75 C144.5439104 75.10036629 143.08336414 75.13938945 141.62384033 75.14717102 C140.70420502 75.15432632 139.7845697 75.16148163 138.83706665 75.16885376 C137.82510223 75.17154266 136.81313782 75.17423157 135.77050781 75.17700195 C134.70696075 75.18357315 133.6434137 75.19014435 132.54763794 75.19691467 C129.01613297 75.21667979 125.48467059 75.22831756 121.953125 75.23828125 C120.7488662 75.24235678 119.54460739 75.2464323 118.3038559 75.25063133 C111.92978587 75.27150596 105.55573746 75.28580156 99.18164062 75.29516602 C92.5928818 75.30623222 86.00446053 75.34063105 79.41582108 75.38033772 C74.35434332 75.40646605 69.29294643 75.41485452 64.23140717 75.41844749 C61.80251537 75.42332336 59.37362742 75.43496559 56.94480133 75.45348549 C53.54528465 75.47779513 50.14664704 75.47692637 46.74707031 75.4699707 C45.74320282 75.48278076 44.73933533 75.49559082 43.70504761 75.50878906 C37.95583599 75.46590492 34.47837519 74.96566203 30 71 C26.69048673 67.47189321 24.93719791 63.95823132 23.15917969 59.48144531 C22.90500275 58.84833939 22.65082581 58.21523346 22.38894653 57.5629425 C21.55827827 55.4878754 20.73996133 53.40818091 19.921875 51.328125 C19.34537055 49.88006986 18.7681502 48.43229956 18.19024658 46.98480225 C16.98491137 43.96081578 15.78512278 40.93471347 14.58984375 37.90673828 C13.05461975 34.0175927 11.51040936 30.13210046 9.96268845 26.24791336 C8.48804646 22.54655738 7.01702459 18.84376726 5.546875 15.140625 C5.26504112 14.43112953 4.98320724 13.72163406 4.69283295 12.99063873 C3.90100074 10.99485649 3.11166135 8.99810916 2.32324219 7.00097656 C1.8734198 5.86356018 1.42359741 4.7261438 0.96014404 3.55426025 C0 1 0 1 0 0 Z " fill="#F0AA00" transform="translate(64,0)"/>
<path d="M0 0 C30.03 0 60.06 0 91 0 C91 24.75 91 49.5 91 75 C82.04875 75.0825 73.0975 75.165 63.875 75.25 C61.0582373 75.28641602 58.24147461 75.32283203 55.33935547 75.36035156 C53.09864056 75.37203758 50.85791715 75.38222961 48.6171875 75.390625 C47.46033447 75.41108887 46.30348145 75.43155273 45.11157227 75.45263672 C38.91959384 75.45531897 34.75293702 75.41822315 30 71 C26.80028362 67.38045023 24.93902753 63.96283801 23.15917969 59.48144531 C22.90500275 58.84833939 22.65082581 58.21523346 22.38894653 57.5629425 C21.55827827 55.4878754 20.73996133 53.40818091 19.921875 51.328125 C19.34537055 49.88006986 18.7681502 48.43229956 18.19024658 46.98480225 C16.98491137 43.96081578 15.78512278 40.93471347 14.58984375 37.90673828 C13.05461975 34.0175927 11.51040936 30.13210046 9.96268845 26.24791336 C8.48804646 22.54655738 7.01702459 18.84376726 5.546875 15.140625 C5.26504112 14.43112953 4.98320724 13.72163406 4.69283295 12.99063873 C3.90100074 10.99485649 3.11166135 8.99810916 2.32324219 7.00097656 C1.8734198 5.86356018 1.42359741 4.7261438 0.96014404 3.55426025 C0 1 0 1 0 0 Z " fill="#FAC814" transform="translate(64,0)"/>
<path d="M0 0 C1.64483255 -0.00542457 3.28966023 -0.01254911 4.93447876 -0.02124023 C9.3890594 -0.03943682 13.84326844 -0.03242128 18.29785538 -0.01972389 C22.96575145 -0.0095772 27.63361631 -0.01899421 32.30151367 -0.02526855 C40.13954362 -0.0325401 47.97742267 -0.02297021 55.81542969 -0.00390625 C64.86950492 0.01786156 73.92321983 0.01080984 82.97728634 -0.01121187 C90.75924476 -0.02937993 98.54109488 -0.03191733 106.32306767 -0.0214572 C110.96725938 -0.01522999 115.61128189 -0.01436534 120.25546265 -0.02760315 C124.62227572 -0.03918152 128.98862547 -0.03109985 133.35538864 -0.00802612 C134.95532844 -0.00274961 136.55530741 -0.0042347 138.15523148 -0.01307678 C153.18823163 -0.08848037 153.18823163 -0.08848037 158.89453125 4.51757812 C161.94509377 7.88101885 163.15907788 10.48905945 163.39453125 14.95507812 C163.14824447 19.67425056 161.8794645 22.8858516 158.89453125 26.51757812 C152.13115949 32.05677773 144.09270994 31.08104688 135.7890625 31.03515625 C134.14422995 31.04058082 132.49940227 31.04770536 130.85458374 31.05639648 C126.4000031 31.07459307 121.94579406 31.06757753 117.49120712 31.05488014 C112.82331105 31.04473345 108.15544619 31.05415046 103.48754883 31.0604248 C95.64951888 31.06769635 87.81163983 31.05812646 79.97363281 31.0390625 C70.91955758 31.01729469 61.86584267 31.02434641 52.81177616 31.04636812 C45.02981774 31.06453618 37.24796762 31.06707358 29.46599483 31.05661345 C24.82180312 31.05038624 20.17778061 31.04952159 15.53359985 31.0627594 C11.16678678 31.07433777 6.80043703 31.0662561 2.43367386 31.04318237 C0.83373406 31.03790586 -0.76624491 31.03939095 -2.36616898 31.04823303 C-17.38497752 31.12356544 -17.38497752 31.12356544 -23.10546875 26.51757812 C-25.94442589 23.06671544 -26.99084399 19.33427951 -27.60546875 14.95507812 C-26.78002361 9.28014279 -24.99645047 6.03016749 -20.51464844 2.44519043 C-14.34929572 -0.96683473 -6.84713889 -0.03784115 0 0 Z " fill="#3C4646" transform="translate(289.10546875,411.482421875)"/>
<path d="M0 0 C1.64483255 -0.00542457 3.28966023 -0.01254911 4.93447876 -0.02124023 C9.3890594 -0.03943682 13.84326844 -0.03242128 18.29785538 -0.01972389 C22.96575145 -0.0095772 27.63361631 -0.01899421 32.30151367 -0.02526855 C40.13954362 -0.0325401 47.97742267 -0.02297021 55.81542969 -0.00390625 C64.86950492 0.01786156 73.92321983 0.01080984 82.97728634 -0.01121187 C90.75924476 -0.02937993 98.54109488 -0.03191733 106.32306767 -0.0214572 C110.96725938 -0.01522999 115.61128189 -0.01436534 120.25546265 -0.02760315 C124.62227572 -0.03918152 128.98862547 -0.03109985 133.35538864 -0.00802612 C134.95532844 -0.00274961 136.55530741 -0.0042347 138.15523148 -0.01307678 C153.18823163 -0.08848037 153.18823163 -0.08848037 158.89453125 4.51757812 C161.94509377 7.88101885 163.15907788 10.48905945 163.39453125 14.95507812 C163.14824447 19.67425056 161.8794645 22.8858516 158.89453125 26.51757812 C152.13115949 32.05677773 144.09270994 31.08104688 135.7890625 31.03515625 C134.14422995 31.04058082 132.49940227 31.04770536 130.85458374 31.05639648 C126.4000031 31.07459307 121.94579406 31.06757753 117.49120712 31.05488014 C112.82331105 31.04473345 108.15544619 31.05415046 103.48754883 31.0604248 C95.64951888 31.06769635 87.81163983 31.05812646 79.97363281 31.0390625 C70.91955758 31.01729469 61.86584267 31.02434641 52.81177616 31.04636812 C45.02981774 31.06453618 37.24796762 31.06707358 29.46599483 31.05661345 C24.82180312 31.05038624 20.17778061 31.04952159 15.53359985 31.0627594 C11.16678678 31.07433777 6.80043703 31.0662561 2.43367386 31.04318237 C0.83373406 31.03790586 -0.76624491 31.03939095 -2.36616898 31.04823303 C-17.38497752 31.12356544 -17.38497752 31.12356544 -23.10546875 26.51757812 C-25.94442589 23.06671544 -26.99084399 19.33427951 -27.60546875 14.95507812 C-26.78002361 9.28014279 -24.99645047 6.03016749 -20.51464844 2.44519043 C-14.34929572 -0.96683473 -6.84713889 -0.03784115 0 0 Z " fill="#3C4646" transform="translate(289.10546875,351.482421875)"/>
<path d="M0 0 C1.64483255 -0.00542457 3.28966023 -0.01254911 4.93447876 -0.02124023 C9.3890594 -0.03943682 13.84326844 -0.03242128 18.29785538 -0.01972389 C22.96575145 -0.0095772 27.63361631 -0.01899421 32.30151367 -0.02526855 C40.13954362 -0.0325401 47.97742267 -0.02297021 55.81542969 -0.00390625 C64.86950492 0.01786156 73.92321983 0.01080984 82.97728634 -0.01121187 C90.75924476 -0.02937993 98.54109488 -0.03191733 106.32306767 -0.0214572 C110.96725938 -0.01522999 115.61128189 -0.01436534 120.25546265 -0.02760315 C124.62227572 -0.03918152 128.98862547 -0.03109985 133.35538864 -0.00802612 C134.95532844 -0.00274961 136.55530741 -0.0042347 138.15523148 -0.01307678 C153.18823163 -0.08848037 153.18823163 -0.08848037 158.89453125 4.51757812 C161.94509377 7.88101885 163.15907788 10.48905945 163.39453125 14.95507812 C163.14824447 19.67425056 161.8794645 22.8858516 158.89453125 26.51757812 C152.13115949 32.05677773 144.09270994 31.08104688 135.7890625 31.03515625 C134.14422995 31.04058082 132.49940227 31.04770536 130.85458374 31.05639648 C126.4000031 31.07459307 121.94579406 31.06757753 117.49120712 31.05488014 C112.82331105 31.04473345 108.15544619 31.05415046 103.48754883 31.0604248 C95.64951888 31.06769635 87.81163983 31.05812646 79.97363281 31.0390625 C70.91955758 31.01729469 61.86584267 31.02434641 52.81177616 31.04636812 C45.02981774 31.06453618 37.24796762 31.06707358 29.46599483 31.05661345 C24.82180312 31.05038624 20.17778061 31.04952159 15.53359985 31.0627594 C11.16678678 31.07433777 6.80043703 31.0662561 2.43367386 31.04318237 C0.83373406 31.03790586 -0.76624491 31.03939095 -2.36616898 31.04823303 C-17.38497752 31.12356544 -17.38497752 31.12356544 -23.10546875 26.51757812 C-25.94442589 23.06671544 -26.99084399 19.33427951 -27.60546875 14.95507812 C-26.78002361 9.28014279 -24.99645047 6.03016749 -20.51464844 2.44519043 C-14.34929572 -0.96683473 -6.84713889 -0.03784115 0 0 Z " fill="#3C4646" transform="translate(289.10546875,291.482421875)"/>
<path d="M0 0 C1.54781057 0.00112932 3.09562329 0.00049296 4.64343262 -0.00177002 C8.83109033 -0.0029148 13.0182871 0.02055595 17.20583797 0.04852581 C21.58736107 0.07357901 25.96889545 0.07588455 30.35047913 0.08062744 C38.64122555 0.09304573 46.93176028 0.12585175 55.2224136 0.1660254 C64.66372066 0.21077887 74.10503797 0.23273913 83.54642475 0.25280714 C102.96214068 0.29458544 122.37765975 0.36491512 141.79321289 0.45410156 C140.62302612 1.38633545 140.62302612 1.38633545 139.42919922 2.33740234 C130.10206456 9.82709925 122.62051885 18.97218368 118.79321289 30.45410156 C101.44271604 30.54761101 84.09229802 30.61811306 66.74160671 30.66135025 C58.68507391 30.68196112 50.62869783 30.71005333 42.57226562 30.75585938 C35.54892545 30.79577253 28.52569879 30.82154511 21.50224835 30.83045554 C17.78454823 30.83566277 14.06717283 30.84787039 10.34957695 30.87702179 C6.19579641 30.90932825 2.04257769 30.91005811 -2.11132812 30.90820312 C-3.33916016 30.92258423 -4.56699219 30.93696533 -5.83203125 30.95178223 C-12.51346585 30.91947346 -16.80482439 30.51688201 -22.20678711 26.45410156 C-25.04574425 23.00323887 -26.09216235 19.27080295 -26.70678711 14.89160156 C-25.87813148 9.19459412 -24.09680813 5.93667522 -19.55979919 2.37774658 C-13.62121383 -0.91104553 -6.58919815 -0.06730273 0 0 Z " fill="#646E6D" transform="translate(86.206787109375,149.5458984375)"/>
<path d="M0 0 C1.91810989 -0.00087616 1.91810989 -0.00087616 3.87496948 -0.00177002 C7.36434094 -0.00291312 10.85315734 0.02052965 14.34240031 0.04852581 C17.99521076 0.07360751 21.6480353 0.07588677 25.30091858 0.08062744 C32.2104628 0.09303744 39.1197525 0.12583199 46.02918488 0.1660254 C53.89856895 0.21080491 61.76796547 0.23274563 69.63744533 0.25280714 C85.81844639 0.29456669 101.99909706 0.36789396 118.17993164 0.45410156 C118.17993164 10.35410156 118.17993164 20.25410156 118.17993164 30.45410156 C101.22053702 30.54445714 84.26134837 30.61811556 67.30177975 30.66135025 C59.42684743 30.68196001 51.55207547 30.71005008 43.67724609 30.75585938 C36.81211903 30.79577595 29.94710812 30.82154591 23.08186823 30.83045554 C19.44800181 30.8356622 15.81446767 30.84786609 12.18070793 30.87702179 C8.12032314 30.90933514 4.06051301 30.9100579 0 30.90820312 C-1.79966972 30.92977478 -1.79966972 30.92977478 -3.63569641 30.95178223 C-10.25744517 30.91903514 -14.45874946 30.46149354 -19.82006836 26.45410156 C-22.6590255 23.00323887 -23.7054436 19.27080295 -24.32006836 14.89160156 C-23.71820441 10.75378689 -22.69489304 7.54507847 -19.82006836 4.45410156 C-13.43820137 -0.28490893 -7.76661816 -0.0930942 0 0 Z " fill="#646E6D" transform="translate(83.820068359375,209.5458984375)"/>
<path d="M0 0 C1.91810989 -0.00087616 1.91810989 -0.00087616 3.87496948 -0.00177002 C7.36434094 -0.00291312 10.85315734 0.02052965 14.34240031 0.04852581 C17.99521076 0.07360751 21.6480353 0.07588677 25.30091858 0.08062744 C32.2104628 0.09303744 39.1197525 0.12583199 46.02918488 0.1660254 C53.89856895 0.21080491 61.76796547 0.23274563 69.63744533 0.25280714 C85.81844639 0.29456669 101.99909706 0.36789396 118.17993164 0.45410156 C118.17993164 10.35410156 118.17993164 20.25410156 118.17993164 30.45410156 C101.23780162 30.56708154 84.29599436 30.65913933 67.35359192 30.71316242 C59.48648568 30.73891587 51.61963057 30.77401123 43.75268555 30.83129883 C36.89377418 30.88122194 30.03504474 30.91341337 23.17595673 30.92454404 C19.54588798 30.93104789 15.91633954 30.94627274 12.28643799 30.98275185 C8.22856826 31.02319899 4.17159619 31.02404532 0.11352539 31.02172852 C-1.68075142 31.04869308 -1.68075142 31.04869308 -3.51127625 31.07620239 C-10.41484449 31.0335791 -15.64202741 30.32912079 -20.82006836 25.45410156 C-23.60544059 20.75378593 -24.49797522 16.87735643 -23.82006836 11.45410156 C-22.09768246 6.58426048 -19.69766 3.86123401 -15.11067009 1.31621552 C-10.27851561 -0.50246284 -5.09445927 -0.06106449 0 0 Z " fill="#646E6D" transform="translate(83.820068359375,269.5458984375)"/>
<path d="M0 0 C3.14604118 1.3951019 5.27862055 3.02759299 7.70794678 5.45397949 C8.42864853 6.1690416 9.14935028 6.8841037 9.89189148 7.62083435 C10.67232315 8.40531448 11.45275482 9.18979462 12.25683594 9.99804688 C13.08647354 10.82417984 13.91611115 11.65031281 14.77088928 12.5014801 C17.51377392 15.23555654 20.249272 17.97689059 22.984375 20.71875 C24.88363574 22.61756568 26.78409223 24.51518331 28.68438721 26.41296387 C32.66575563 30.39069581 36.6428927 34.37262196 40.61767578 38.35693359 C45.21736197 42.96751867 49.82422918 47.57083429 54.43486381 52.17046881 C58.39188473 56.11842561 62.34500965 60.07025175 66.29488015 64.02536249 C68.65472217 66.38832711 71.01590991 68.74991304 73.3806076 71.10801697 C76.01217597 73.73453403 78.63729427 76.36732855 81.26074219 79.00195312 C82.04927078 79.78643326 82.83779938 80.57091339 83.65022278 81.37916565 C84.35964523 82.09422775 85.06906769 82.80928986 85.79998779 83.54602051 C86.42161175 84.16839851 87.0432357 84.79077652 87.68369675 85.43201447 C89 87 89 87 89 89 C78.96835369 89.11609239 68.93686843 89.20481581 58.90468597 89.25906086 C54.24578543 89.28510219 49.58734609 89.32039962 44.92871094 89.37719727 C40.42883298 89.43171307 35.9293973 89.4614616 31.42921448 89.47438622 C29.71644635 89.48359113 28.00370115 89.50156637 26.29112244 89.52865028 C10.21195806 89.77271509 10.21195806 89.77271509 4.41564941 85.76017761 C0.32452748 80.67339471 -0.43915118 75.48731923 -0.34057617 69.13696289 C-0.34101425 68.38491577 -0.34145233 67.63286865 -0.34190369 66.85803223 C-0.33982964 64.39596722 -0.31656524 61.93460087 -0.29296875 59.47265625 C-0.28736785 57.75630566 -0.28310008 56.03995025 -0.28010559 54.32359314 C-0.2686957 49.82394989 -0.23926206 45.32460089 -0.20599365 40.82507324 C-0.1752093 36.2265216 -0.16158243 31.62792204 -0.14648438 27.02929688 C-0.11438837 18.01940255 -0.06323906 9.00972582 0 0 Z " fill="#A5BFBF" transform="translate(422,143)"/>
<path d="M0 0 C15.51 0 31.02 0 47 0 C47 23.1 47 46.2 47 70 C31.49 70 15.98 70 0 70 C0 46.9 0 23.8 0 0 Z " fill="#FAC814" transform="translate(155,300)"/>
<path d="M0 0 C0.82032211 -0.00058411 1.64064423 -0.00116821 2.48582458 -0.00177002 C5.17531865 0.00099863 7.86368003 0.03203171 10.55297852 0.06347656 C12.42626846 0.07094331 14.29956625 0.0766342 16.17286682 0.08062744 C21.08688177 0.09584959 26.00041864 0.13510177 30.91424561 0.17944336 C35.93503351 0.22047 40.95589918 0.23865422 45.97680664 0.25878906 C55.81624245 0.30159962 65.65519893 0.37192133 75.49438477 0.45410156 C75.49438477 10.35410156 75.49438477 20.25410156 75.49438477 30.45410156 C64.6630534 30.54456853 53.83197409 30.61791327 43.00035 30.66135025 C37.97046783 30.68220069 32.94085817 30.71047194 27.91113281 30.75585938 C23.05466608 30.79940774 18.19846101 30.8232578 13.34181404 30.83361053 C11.49148504 30.84098577 9.64116991 30.85538796 7.79095268 30.87702179 C5.19365676 30.9061756 2.59743394 30.91005262 0 30.90820312 C-1.14044266 30.92977478 -1.14044266 30.92977478 -2.30392456 30.95178223 C-7.7876351 30.90969323 -10.96633928 29.54861984 -15.50561523 26.45410156 C-18.34457237 23.00323887 -19.39099048 19.27080295 -20.00561523 14.89160156 C-19.40375128 10.75378689 -18.38043991 7.54507847 -15.50561523 4.45410156 C-10.12691227 0.81131467 -6.42630551 -0.1215546 0 0 Z " fill="#646E6E" transform="translate(281.505615234375,411.5458984375)"/>
<path d="M0 0 C0.82032211 -0.00058411 1.64064423 -0.00116821 2.48582458 -0.00177002 C5.17531865 0.00099863 7.86368003 0.03203171 10.55297852 0.06347656 C12.42626846 0.07094331 14.29956625 0.0766342 16.17286682 0.08062744 C21.08688177 0.09584959 26.00041864 0.13510177 30.91424561 0.17944336 C35.93503351 0.22047 40.95589918 0.23865422 45.97680664 0.25878906 C55.81624245 0.30159962 65.65519893 0.37192133 75.49438477 0.45410156 C75.49438477 10.35410156 75.49438477 20.25410156 75.49438477 30.45410156 C64.6630534 30.54456853 53.83197409 30.61791327 43.00035 30.66135025 C37.97046783 30.68220069 32.94085817 30.71047194 27.91113281 30.75585938 C23.05466608 30.79940774 18.19846101 30.8232578 13.34181404 30.83361053 C11.49148504 30.84098577 9.64116991 30.85538796 7.79095268 30.87702179 C5.19365676 30.9061756 2.59743394 30.91005262 0 30.90820312 C-1.14044266 30.92977478 -1.14044266 30.92977478 -2.30392456 30.95178223 C-7.7876351 30.90969323 -10.96633928 29.54861984 -15.50561523 26.45410156 C-18.34457237 23.00323887 -19.39099048 19.27080295 -20.00561523 14.89160156 C-19.40375128 10.75378689 -18.38043991 7.54507847 -15.50561523 4.45410156 C-10.12691227 0.81131467 -6.42630551 -0.1215546 0 0 Z " fill="#646E6E" transform="translate(281.505615234375,351.5458984375)"/>
<path d="M0 0 C0.82032211 -0.00058411 1.64064423 -0.00116821 2.48582458 -0.00177002 C5.17531865 0.00099863 7.86368003 0.03203171 10.55297852 0.06347656 C12.42626846 0.07094331 14.29956625 0.0766342 16.17286682 0.08062744 C21.08688177 0.09584959 26.00041864 0.13510177 30.91424561 0.17944336 C35.93503351 0.22047 40.95589918 0.23865422 45.97680664 0.25878906 C55.81624245 0.30159962 65.65519893 0.37192133 75.49438477 0.45410156 C75.49438477 10.35410156 75.49438477 20.25410156 75.49438477 30.45410156 C64.6630534 30.54456853 53.83197409 30.61791327 43.00035 30.66135025 C37.97046783 30.68220069 32.94085817 30.71047194 27.91113281 30.75585938 C23.05466608 30.79940774 18.19846101 30.8232578 13.34181404 30.83361053 C11.49148504 30.84098577 9.64116991 30.85538796 7.79095268 30.87702179 C5.19365676 30.9061756 2.59743394 30.91005262 0 30.90820312 C-1.14044266 30.92977478 -1.14044266 30.92977478 -2.30392456 30.95178223 C-7.7876351 30.90969323 -10.96633928 29.54861984 -15.50561523 26.45410156 C-18.34457237 23.00323887 -19.39099048 19.27080295 -20.00561523 14.89160156 C-19.40375128 10.75378689 -18.38043991 7.54507847 -15.50561523 4.45410156 C-10.12691227 0.81131467 -6.42630551 -0.1215546 0 0 Z " fill="#646E6E" transform="translate(281.505615234375,291.5458984375)"/>
<path d="M0 0 C24.09 0 48.18 0 73 0 C71.35 1.32 69.7 2.64 68 4 C59.87917598 10.96903749 53.41096933 19.767092 50 30 C33.5 30 17 30 0 30 C0 20.1 0 10.2 0 0 Z " fill="#3C4646" transform="translate(155,150)"/>
<path d="M0 0 C16.17 0 32.34 0 49 0 C48.67 2.64 48.34 5.28 48 8 C47.67 15.26 47.34 22.52 47 30 C31.49 30 15.98 30 0 30 C0 20.1 0 10.2 0 0 Z " fill="#F9C814" transform="translate(155,180)"/>
<path d="M0 0 C15.51 0 31.02 0 47 0 C47 9.9 47 19.8 47 30 C31.49 30 15.98 30 0 30 C0 20.1 0 10.2 0 0 Z " fill="#3C4646" transform="translate(155,270)"/>
<path d="M0 0 C15.51 0 31.02 0 47 0 C47 9.9 47 19.8 47 30 C31.49 30 15.98 30 0 30 C0 20.1 0 10.2 0 0 Z " fill="#FAC814" transform="translate(155,240)"/>
<path d="M0 0 C15.51 0 31.02 0 47 0 C47 9.9 47 19.8 47 30 C31.49 30 15.98 30 0 30 C0 20.1 0 10.2 0 0 Z " fill="#3C4646" transform="translate(155,210)"/>
</svg>
