<?xml version="1.0" encoding="UTF-8"?>
<svg version="1.1" xmlns="http://www.w3.org/2000/svg" width="512" height="512">
<path d="M0 0 C1.01602757 -0.00382555 2.03205514 -0.00765109 3.07887143 -0.01159257 C6.46402667 -0.02186426 9.84901044 -0.01794149 13.23417664 -0.01396179 C15.6692063 -0.01831151 18.10423459 -0.02349553 20.53926086 -0.02944946 C26.45566287 -0.04143568 32.37202275 -0.04399414 38.28843228 -0.0416492 C43.10076283 -0.03986212 47.91307964 -0.04162403 52.72540855 -0.04587364 C53.75497985 -0.04676643 53.75497985 -0.04676643 54.80535057 -0.04767724 C56.20000099 -0.04888907 57.59465141 -0.0501032 58.98930182 -0.05131962 C72.05324339 -0.06218301 85.11715911 -0.06003849 98.18110212 -0.05393478 C110.11289688 -0.04876789 122.04460995 -0.06001715 133.97638855 -0.07903299 C146.24867381 -0.09844048 158.52092048 -0.10666222 170.79322118 -0.10290974 C177.67484075 -0.10100195 184.55639082 -0.10344383 191.43799782 -0.11762428 C197.91165381 -0.13082984 204.38518751 -0.1282386 210.85884476 -0.11521339 C213.22910938 -0.11285256 215.59938556 -0.11556455 217.96963692 -0.12383652 C233.97768696 -0.17565662 246.9419721 -0.13578409 260.54545593 9.26069641 C261.43233093 9.83819641 262.31920593 10.41569641 263.23295593 11.01069641 C272.20318515 19.738487 276.63674954 30.36480986 277.03752136 42.83802795 C277.06876799 45.71227376 277.05066407 48.58468928 277.02787781 51.4589386 C277.03006852 53.05362278 277.03407262 54.64830532 277.03973389 56.24298096 C277.0482424 59.65272151 277.04459628 63.06214589 277.03131104 66.47187042 C277.01084025 71.8687251 277.02100803 77.26526647 277.03556824 82.66212463 C277.06222614 94.11167738 277.05560554 105.561126 277.04545593 117.01069641 C277.03449318 129.38841486 277.02931009 141.7659701 277.06275034 154.14366078 C277.07609115 159.50389621 277.07021249 164.86365542 277.04938507 170.22386217 C277.04038048 173.55994748 277.04788909 176.89585032 277.05979729 180.23192024 C277.06192216 181.77340632 277.05724154 183.31491982 277.04509163 184.85635948 C276.98492938 192.94746989 277.13936001 199.25254951 281.54545593 206.26069641 C282.49340599 208.80131942 283.12274311 211.30806554 283.79545593 213.94819641 C284.13061218 215.2101886 284.46576843 216.47218079 284.81108093 217.77241516 C286.00493393 223.53124293 285.68650938 229.41089669 285.54545593 235.26069641 C286.71528015 235.23974915 287.88510437 235.21880188 289.09037781 235.19721985 C293.45874133 235.12444785 297.82705198 235.07876219 302.19584656 235.04096985 C304.08135509 235.02093874 305.96680217 234.99370568 307.85209656 234.9589386 C310.57295456 234.91004369 313.2929865 234.88764259 316.01420593 234.87007141 C316.84786682 234.84942627 317.68152771 234.82878113 318.54045105 234.80751038 C325.43689811 234.80490663 330.65082818 236.67390214 335.82279968 241.29585266 C336.37065125 241.9648761 336.91850281 242.63389954 337.48295593 243.32319641 C338.04885437 243.99479797 338.61475281 244.66639954 339.19779968 245.35835266 C345.14823976 253.75795938 341.08621481 270.74696139 339.75712585 280.14717102 C339.56411492 281.56484301 339.3719673 282.98263275 339.18060303 284.40052795 C338.6649936 288.20097425 338.13684231 291.99957305 337.60566878 295.79787135 C337.04829969 299.79573514 336.50110162 303.7949938 335.95227051 307.79403687 C335.03051754 314.49821282 334.10040109 321.20118835 333.16532898 327.90351868 C332.08682692 335.63477013 331.02237454 343.36786011 329.9651863 351.10205263 C328.94322919 358.5756786 327.91075395 366.04781664 326.8737278 373.51936531 C326.43446715 376.68574337 325.99896296 379.85260382 325.56656456 383.01992607 C325.05710499 386.74850554 324.53843765 390.4756932 324.01280785 394.20202637 C323.73169165 396.21052222 323.45965344 398.22028221 323.1879425 400.23007202 C320.8364657 416.72481752 320.8364657 416.72481752 315.35795593 422.07319641 C314.82815125 422.61589172 314.29834656 423.15858704 313.75248718 423.71772766 C306.53611786 428.76280002 299.2388241 428.68941132 290.74351501 428.64164734 C288.82260894 428.6486673 288.82260894 428.6486673 286.86289668 428.65582907 C283.32396367 428.66831217 279.78527445 428.66218102 276.24634075 428.65287042 C272.42343206 428.64606889 268.60056462 428.6565668 264.77766418 428.66481018 C257.29364013 428.67813948 249.80970642 428.67527291 242.32567886 428.66657226 C236.23996175 428.65979094 230.15426992 428.65888094 224.06855011 428.66214371 C223.20163527 428.66260341 222.33472044 428.66306311 221.44153546 428.66353673 C219.6802385 428.66449594 217.91894155 428.66546858 216.1576446 428.66645451 C199.64623666 428.67500658 183.13487871 428.6651782 166.62347898 428.64905341 C152.47114415 428.63565988 138.31888317 428.63797071 124.16654968 428.65180969 C107.7195218 428.66788511 91.27253776 428.67417265 74.82550311 428.6649729 C73.06954369 428.6640173 71.31358425 428.66307418 69.55762482 428.66214371 C68.26180155 428.66144947 68.26180155 428.66144947 66.93980004 428.6607412 C60.86692738 428.65815649 54.79408263 428.66251131 48.72121429 428.66958237 C41.31212497 428.6780198 33.90313093 428.67567065 26.49405244 428.65974014 C22.71735999 428.65188602 18.94082606 428.64871649 15.16413498 428.65868759 C11.06106403 428.66935598 6.95838911 428.65656927 2.85533142 428.64164734 C1.08331136 428.65168559 1.08331136 428.65168559 -0.72450709 428.66192663 C-15.17329862 428.56034327 -26.44607919 424.77884254 -37.26704407 415.07319641 C-47.39198772 404.26676617 -48.75615309 390.98635062 -48.7219696 376.94692993 C-48.72570959 375.48910878 -48.7303125 374.03128963 -48.73570025 372.57347363 C-48.74790272 368.58046612 -48.74767304 364.58754257 -48.7453115 360.59452069 C-48.74490263 356.2828392 -48.75594919 351.97118438 -48.76542664 347.65951538 C-48.78202281 339.21665223 -48.78753557 330.77381701 -48.78865139 322.33093891 C-48.78960258 315.46577152 -48.79371642 308.60061332 -48.80005264 301.73544884 C-48.81766177 282.25907792 -48.8268921 262.78272902 -48.82539169 243.30635009 C-48.82531178 242.25689229 -48.82523187 241.20743448 -48.82514954 240.12617493 C-48.82506777 239.07543135 -48.82498601 238.02468776 -48.82490177 236.94210347 C-48.82408911 219.91852569 -48.84322276 202.89503644 -48.87142627 185.87148426 C-48.90017615 168.37969996 -48.91396539 150.88795881 -48.91223872 133.39615029 C-48.91157551 123.58073607 -48.91703723 113.76541464 -48.93859482 103.95002174 C-48.95683436 95.5919742 -48.96113125 87.23406151 -48.94757597 78.87600265 C-48.94106013 74.61510646 -48.94087879 70.35446878 -48.95828247 66.09359741 C-48.97408001 62.18560233 -48.97108214 58.27806929 -48.95371421 54.37008502 C-48.95065891 52.96363976 -48.95422072 51.55715944 -48.96543436 50.15075556 C-49.07042888 36.03673025 -46.30667247 23.56496273 -36.41938782 13.10835266 C-25.78308475 3.03481695 -14.32467452 -0.05793554 0 0 Z " fill="#CE3B3B" transform="translate(120.45454406738281,41.73930358886719)"/>
<path d="M0 0 C0.80060349 0.00007553 1.60120697 0.00015106 2.42607117 0.00022888 C3.71527214 0.00797081 3.71527214 0.00797081 5.03051758 0.01586914 C5.91411453 0.01728409 6.79771149 0.01869904 7.70808411 0.02015686 C10.53044011 0.0257547 13.3527168 0.03830678 16.17504883 0.05102539 C18.08845914 0.05604067 20.0018707 0.06060353 21.9152832 0.06469727 C26.60606897 0.07572342 31.29679545 0.09298656 35.98754883 0.11352539 C35.99301727 1.23652794 35.99301727 1.23652794 35.99859619 2.38221741 C36.03655871 9.45877307 36.09350433 16.53486693 36.17145157 23.61107731 C36.21085883 27.2485483 36.24307991 30.88577968 36.25854492 34.5234375 C36.27375675 38.03803691 36.30828037 41.55197727 36.35585785 45.06628227 C36.37778254 47.05076432 36.38001867 49.03543253 36.38189697 51.02003479 C36.49278183 57.88467422 36.70532311 62.61368082 40.98754883 68.11352539 C45.20286573 71.60176267 49.2373361 72.83921887 54.71411133 72.55883789 C60.19263253 71.48572549 63.74857179 68.75364364 67.06347656 64.36547852 C70.16757188 58.77801738 69.59093303 52.5281177 69.59692383 46.30493164 C69.61192381 44.96970125 69.62865476 43.6344893 69.64703369 42.29930115 C69.69051672 38.80590917 69.71066336 35.31276738 69.72576904 31.81915283 C69.74540954 28.24590533 69.78715779 24.67291869 69.82739258 21.09985352 C69.90455749 14.10424495 69.94510873 7.10977511 69.98754883 0.11352539 C88.13754883 0.11352539 106.28754883 0.11352539 124.98754883 0.11352539 C125.00172852 4.35196289 125.0159082 8.59040039 125.03051758 12.95727539 C125.05579273 16.35394837 125.08602486 19.75049745 125.11959076 23.14709473 C125.15357959 26.72322989 125.17899619 30.29893921 125.18310547 33.87524414 C125.18740934 37.32510932 125.21604107 40.77402041 125.26098061 44.22358704 C125.28013766 46.16870005 125.27461853 48.11400606 125.26860046 50.0592041 C125.38649272 57.2651078 125.96979868 62.66514269 130.98754883 68.11352539 C135.19425924 71.62447724 139.22499123 72.84013091 144.71020508 72.55883789 C148.75151113 71.76859966 152.11588365 70.06965131 154.98754883 67.11352539 C158.80369451 60.45906594 158.46160469 53.82756584 158.49926758 46.30493164 C158.51613546 44.9697049 158.53428851 43.63449384 158.55366516 42.29930115 C158.60094315 38.80596822 158.63089514 35.31269887 158.65710449 31.81915283 C158.68702301 28.24592539 158.73351415 24.67291655 158.77856445 21.09985352 C158.86434421 14.10453584 158.93180131 7.10914517 158.98754883 0.11352539 C164.68004342 0.0141666 170.37202601 -0.05817384 176.06518555 -0.10620117 C177.99919435 -0.12623602 179.93314318 -0.1534719 181.86694336 -0.18823242 C184.65729626 -0.23711032 187.44684384 -0.2595248 190.23754883 -0.27709961 C191.52085083 -0.30806732 191.52085083 -0.30806732 192.83007812 -0.33966064 C199.8003274 -0.34222802 205.03342904 1.47356585 210.26489258 6.14868164 C210.81274414 6.81770508 211.3605957 7.48672852 211.92504883 8.17602539 C212.49094727 8.84762695 213.0568457 9.51922852 213.63989258 10.21118164 C219.59033266 18.61078836 215.52830771 35.59979037 214.19921875 45 C214.00620782 46.41767199 213.8140602 47.83546173 213.62269592 49.25335693 C213.10708649 53.05380323 212.5789352 56.85240203 212.04776168 60.65070033 C211.49039258 64.64856411 210.94319451 68.64782278 210.3943634 72.64686584 C209.47261044 79.3510418 208.54249399 86.05401733 207.60742188 92.75634766 C206.52891981 100.48759911 205.46446743 108.22068909 204.40727919 115.95488161 C203.38532209 123.42850758 202.35284685 130.90064562 201.31582069 138.37219429 C200.87656005 141.53857235 200.44105586 144.7054328 200.00865746 147.87275505 C199.49919788 151.60133452 198.98053055 155.32852218 198.45490074 159.05485535 C198.17378455 161.0633512 197.90174633 163.07311119 197.6300354 165.082901 C195.27855859 181.5776465 195.27855859 181.5776465 189.80004883 186.92602539 C189.27024414 187.4687207 188.74043945 188.01141602 188.19458008 188.57055664 C180.31214094 194.08128843 171.73617494 193.54795839 162.53466797 193.51757812 C160.97175103 193.52328723 159.40883826 193.53025358 157.84593201 193.53837585 C153.61860299 193.55626248 149.39148207 193.55514742 145.16412663 193.54943347 C141.62793636 193.54633517 138.09178569 193.55244117 134.55560106 193.55847222 C126.21004795 193.57250099 117.86459724 193.57096982 109.51904297 193.55957031 C100.92453407 193.54808979 92.33033725 193.56216735 83.73586947 193.58896679 C76.34197584 193.61115483 68.94817996 193.61775421 61.55425543 193.61189038 C57.14474252 193.60852712 52.73542964 193.61089376 48.3259449 193.6281414 C44.17827099 193.64365817 40.03105789 193.63960297 35.88340187 193.62083626 C34.36653478 193.61716346 32.84963319 193.6202205 31.332798 193.63072205 C21.59050716 193.6929908 13.71216651 193.22188859 6.11254883 186.61352539 C5.41129883 185.78852539 4.71004883 184.96352539 3.98754883 184.11352539 C3.15223633 183.18540039 3.15223633 183.18540039 2.30004883 182.23852539 C-1.10268073 176.7293442 -1.58519091 169.91234476 -2.38745117 163.61352539 C-2.51337646 162.66195557 -2.63930176 161.71038574 -2.76904297 160.72998047 C-3.49322114 155.22876734 -4.18879938 149.72398893 -4.88354492 144.21899414 C-6.79139658 129.15796319 -8.85361441 114.13156369 -11.07495117 99.11352539 C-13.04312824 85.8019282 -14.95252585 72.49144453 -16.62524414 59.13891602 C-17.00425471 56.17756736 -17.39800222 53.21840408 -17.79644775 50.25961304 C-18.17469539 47.44801585 -18.54827412 44.63580577 -18.92156982 41.82354736 C-19.10421548 40.45556705 -19.28876254 39.08783898 -19.47540283 37.72039795 C-22.3388022 16.70757221 -22.3388022 16.70757221 -16.86791992 8.35180664 C-12.57567638 3.17400549 -6.77298123 -0.02136587 0 0 Z " fill="#099618" transform="translate(246.012451171875,276.886474609375)"/>
<path d="M0 0 C0.78010638 -0.00367669 1.56021275 -0.00735338 2.36395872 -0.01114148 C4.99243208 -0.02220301 7.62086595 -0.02602636 10.24935913 -0.02983093 C12.12827684 -0.03609383 14.0071933 -0.04274047 15.8861084 -0.04974365 C21.00206212 -0.06717202 26.11800649 -0.07771088 31.23398256 -0.08594918 C34.42980773 -0.09109651 37.62562998 -0.09717243 40.82145309 -0.10346031 C50.81887754 -0.12251937 60.81629457 -0.13674777 70.8137337 -0.14507228 C82.35644373 -0.15484177 93.89896184 -0.18115084 105.44160426 -0.22157317 C114.36059343 -0.25173588 123.27952761 -0.26654139 132.19856679 -0.26985329 C137.5264425 -0.27220402 142.85411334 -0.2811672 148.18193436 -0.30631447 C153.19702597 -0.32960215 158.21177796 -0.33382553 163.22690964 -0.32355309 C165.06510294 -0.32305775 166.903313 -0.32937749 168.74145508 -0.34310913 C171.25691533 -0.36084506 173.77115908 -0.35371406 176.28662109 -0.34057617 C177.37021375 -0.35703004 177.37021375 -0.35703004 178.47569716 -0.37381631 C185.33628169 -0.28768706 190.49820428 2.12111383 195.33676147 6.95967102 C199.15503792 12.52344527 200.89710013 17.30736652 200.92831421 24.05708313 C200.93517746 24.70849777 200.94204071 25.35991241 200.94911194 26.03106689 C200.96725961 28.16244443 200.96356014 30.29307734 200.95785522 32.42451477 C200.96242287 33.91992427 200.96773018 35.41533168 200.97373962 36.91073608 C200.9826471 40.03675391 200.98027484 43.16251594 200.9703064 46.28852844 C200.95882011 50.2775223 200.97903406 54.26563043 201.00822353 58.25450802 C201.02664545 61.34051033 201.02628125 64.42630272 201.02058601 67.51234627 C201.02043353 68.9822317 201.02641742 70.45213202 201.03887749 71.92196465 C201.10897953 81.54606939 200.56611658 88.2071259 194.27426147 95.89717102 C188.44471965 100.66679615 183.03138387 102.75095375 175.44088745 102.65510559 C174.66790518 102.66134555 173.89492291 102.66758552 173.09851694 102.67401457 C170.52982732 102.68986375 167.96209735 102.67737266 165.3934021 102.66474915 C163.54315135 102.67017387 161.69290492 102.6772985 159.84266663 102.68598938 C154.83232414 102.70418392 149.8223121 102.69717116 144.81196404 102.68447304 C139.56130985 102.67432534 134.31068341 102.68374363 129.06002808 102.6900177 C120.24352962 102.69728894 111.42716533 102.6877201 102.61068726 102.6686554 C92.42679864 102.64688771 82.24323039 102.65393944 72.05934954 102.67596102 C63.30581695 102.6941299 54.55238064 102.69666605 45.79883528 102.68620634 C40.57503987 102.67997961 35.35139491 102.67911324 30.12760925 102.69235229 C25.21580366 102.70393179 20.30440994 102.69584664 15.3926487 102.67277527 C13.59317012 102.6674994 11.79365671 102.6689827 9.99419212 102.67782593 C7.53154327 102.68880982 5.07020178 102.67498486 2.6076355 102.65510559 C1.54769119 102.66848992 1.54769119 102.66848992 0.46633387 102.68214464 C-5.74358258 102.58537175 -10.86872907 100.4421446 -15.49917603 96.36592102 C-16.16819946 95.51513977 -16.16819946 95.51513977 -16.85073853 94.64717102 C-17.54296509 93.79638977 -17.54296509 93.79638977 -18.24917603 92.92842102 C-21.23268831 88.59567706 -21.73375036 85.52523734 -21.76626587 80.21064758 C-21.77298309 79.52065674 -21.77970032 78.83066589 -21.78662109 78.11976624 C-21.80559202 75.84236918 -21.80952523 73.56526715 -21.81167603 71.28779602 C-21.8181062 69.69841899 -21.82483472 68.10904314 -21.83184814 66.51966858 C-21.84381978 63.18746703 -21.84752925 59.85536912 -21.84634399 56.52314758 C-21.84614118 52.26844734 -21.87340463 48.01441784 -21.90788841 43.75987625 C-21.93021155 40.47573338 -21.93417984 37.19175031 -21.93312454 33.90753937 C-21.93547385 32.3399551 -21.94425941 30.77236597 -21.95978928 29.20485687 C-22.09650316 13.97574172 -22.09650316 13.97574172 -17.47573853 7.14717102 C-15.40542603 5.08857727 -15.40542603 5.08857727 -13.35073853 3.70967102 C-12.32593384 3.00004211 -12.32593384 3.00004211 -11.28042603 2.27607727 C-7.49574519 -0.09139624 -4.36071632 -0.00109265 0 0 Z " fill="#FEB933" transform="translate(145.47573852539063,89.85282897949219)"/>
<path d="M0 0 C3.46920606 2.59771468 6.58947182 5.27482013 9.5 8.5 C10.04140625 9.08394531 10.5828125 9.66789062 11.140625 10.26953125 C22.10592769 22.35520182 27.6891738 35.22441057 27.58520508 51.75537109 C27.58202271 52.45540756 27.57884033 53.15544403 27.57556152 53.87669373 C27.56304357 56.1756986 27.54215215 58.47451099 27.51953125 60.7734375 C27.51257421 61.56332691 27.50561718 62.35321632 27.49844933 63.16704178 C27.46115217 67.34549562 27.41719989 71.52381945 27.36791992 75.70214844 C27.31855875 80.00134377 27.29237068 84.30035327 27.27148914 88.59976768 C27.251054 91.92181234 27.21315558 95.24349821 27.1706295 98.56532669 C27.15337038 100.14957582 27.14261306 101.73391048 27.13868141 103.31824875 C27.0826063 120.7898265 27.0826063 120.7898265 20.67578125 127.375 C15.62549452 130.42422972 11.37954359 131.64206962 5.5 130.5 C-0.11206169 128.42309528 -3.52202972 124.73287706 -6.59127808 119.71636963 C-7.75659119 116.87417498 -7.7399529 114.60879038 -7.72705078 111.53808594 C-7.72689972 110.33714294 -7.72674866 109.13619995 -7.72659302 107.89886475 C-7.71627045 106.60708313 -7.70594788 105.31530151 -7.6953125 103.984375 C-7.69158034 102.64487927 -7.68873432 101.30538079 -7.68673706 99.96588135 C-7.67911657 96.44771735 -7.65948187 92.9297196 -7.6373291 89.41162109 C-7.61683643 85.81870818 -7.60761833 82.2257675 -7.59765625 78.6328125 C-7.57729666 71.58839504 -7.53814675 64.54443358 -7.5 57.5 C-25.65 57.5 -43.8 57.5 -62.5 57.5 C-62.44199219 61.7384375 -62.38398438 65.976875 -62.32421875 70.34375 C-62.29202487 73.74034899 -62.26492495 77.1369044 -62.24124908 80.53356934 C-62.21493223 84.10993468 -62.17981441 87.68569981 -62.12280273 91.26171875 C-62.06815716 94.71122617 -62.03851222 98.16015453 -62.02561378 101.61006165 C-62.01198695 103.55546183 -61.97300552 105.5006316 -61.93351746 107.44567871 C-61.93120626 114.79341791 -62.56485764 119.86242406 -67.5 125.5 C-71.03174226 128.9456022 -75.00956143 130.80048912 -79.9375 131.1875 C-85.34349483 130.85958004 -89.67368912 128.23411062 -93.5 124.5 C-96.35151186 119.82557813 -96.92233867 115.91587204 -96.85302734 110.55444336 C-96.85518753 109.78131302 -96.85734772 109.00818268 -96.85957336 108.21162415 C-96.86264864 106.54200631 -96.85908916 104.87236562 -96.84955978 103.20277214 C-96.83577399 100.55848124 -96.84228575 97.91493674 -96.85440063 95.27064514 C-96.88530286 87.75614416 -96.88045893 80.24181997 -96.86035156 72.72729492 C-96.84943389 68.12308787 -96.86262024 63.51944438 -96.89024734 58.91531563 C-96.89568512 57.16385816 -96.89163102 55.41234422 -96.87784958 53.66093254 C-96.85879686 51.21204983 -96.87019979 48.7650131 -96.88818359 46.31616211 C-96.87484482 45.59550568 -96.86150604 44.87484924 -96.84776306 44.13235474 C-96.91146915 40.2273035 -97.35906786 38.66573862 -99.92495728 35.64820862 C-100.77472137 34.93929977 -101.62448547 34.23039093 -102.5 33.5 C-105.79079295 29.52835334 -106.0181198 25.92501052 -105.84765625 20.9296875 C-105.12687224 15.89229812 -102.10531538 12.90712846 -98.4375 9.6875 C-94.43849165 6.70951506 -91.79064642 6.43847666 -86.90380859 6.36279297 C-79.27883917 6.43280086 -79.27883917 6.43280086 -72.875 2.875 C-72.38257813 2.34003906 -71.89015625 1.80507812 -71.3828125 1.25390625 C-52.60475543 -16.23851621 -19.89387442 -13.58822672 0 0 Z " fill="#FDB932" transform="translate(378.5,219.5)"/>
<path d="M0 0 C5.57832188 4.41052365 8.35999469 8.86274939 10.83984375 15.52734375 C10.83984375 19.81734375 10.83984375 24.10734375 10.83984375 28.52734375 C-7.31015625 28.52734375 -25.46015625 28.52734375 -44.16015625 28.52734375 C-44.16015625 11.09768596 -44.16015625 11.09768596 -37.10546875 3.23828125 C-26.04569019 -7.28572949 -12.76127723 -8.69982191 0 0 Z " fill="#CE3C3A" transform="translate(360.16015625,248.47265625)"/>
<path d="M0 0 C4.94147609 2.59450414 7.65211334 6.26897564 9.875 11.3125 C10.75450268 16.23771502 10.27276619 20.2851932 7.75 24.625 C4.47745644 29.27887215 0.50549287 32.25125527 -5.125 33.3125 C-13.06472573 33.90895723 -20.5817744 34.40167547 -27.125 29.3125 C-31.2542311 25.07460492 -32.89202431 21.34271673 -33.5625 15.5 C-33.42206643 10.54737622 -31.28627809 7.02535526 -28.125 3.3125 C-20.16131303 -2.89917584 -9.40344578 -3.88675759 0 0 Z " fill="#FDFAFA" transform="translate(165.125,376.6875)"/>
<path d="M0 0 C0.80308594 -0.01933594 1.60617188 -0.03867187 2.43359375 -0.05859375 C8.5472298 -0.00905051 12.80256129 1.69434908 17.5 5.625 C21.0305422 9.80464171 22.23012185 13.88849914 21.94140625 19.35546875 C20.86473914 24.89125272 17.5976847 29.13901858 13.25 32.625 C6.90396777 36.18556007 -1.4919934 35.69789287 -8.5 34.625 C-14.34510375 32.6571762 -17.56797913 29.0199184 -20.5 23.625 C-22.16666583 18.6250025 -22.07623861 14.33845913 -20 9.5 C-15.55052259 1.70162618 -8.50664233 -0.20481482 0 0 Z " fill="#FEFBFB" transform="translate(153.5,298.375)"/>
<path d="M0 0 C4.47334167 2.71292014 7.89166162 6.35754199 10.2421875 11.05859375 C11.26626867 17.91604867 10.06321219 22.43695525 6.23828125 28.1484375 C0.99467692 33.16628979 -4.92122866 33.5593881 -11.8203125 33.49609375 C-12.98530273 33.52606445 -12.98530273 33.52606445 -14.17382812 33.55664062 C-20.66480761 33.55114445 -24.0435649 31.32046675 -29.0078125 27.18359375 C-31.93374127 23.63068024 -32.61204757 20.18306606 -33.1953125 15.68359375 C-32.47149942 9.68628535 -29.49975043 5.67610754 -25.1328125 1.62109375 C-18.71090756 -2.60384371 -7.24152377 -2.47196491 0 0 Z " fill="#FEFCFC" transform="translate(164.7578125,226.94140625)"/>
<path d="M0 0 C4.20711497 2.44488945 7.21250218 5.61680179 9.1953125 10.078125 C9.99977832 16.2734365 9.92672346 21.85414966 6.1953125 27.078125 C-0.18573432 33.47660638 -6.05656293 33.47505378 -14.59960938 33.53344727 C-20.25227144 33.42511536 -24.3107602 32.98646038 -28.4921875 28.84375 C-32.138586 23.93847583 -33.40055871 19.30301576 -33.14453125 13.28125 C-32.34264344 8.0828049 -29.71796665 4.4320991 -25.6796875 1.140625 C-18.59845762 -2.88097914 -7.57888484 -2.49110978 0 0 Z " fill="#FEFCFC" transform="translate(237.8046875,226.921875)"/>
<path d="M0 0 C0.89589844 0.00322266 1.79179687 0.00644531 2.71484375 0.00976562 C4.12056641 0.02233398 4.12056641 0.02233398 5.5546875 0.03515625 C6.49957031 0.03966797 7.44445312 0.04417969 8.41796875 0.04882812 C10.75527137 0.06063268 13.09244811 0.07709866 15.4296875 0.09765625 C16.02760413 4.01059952 16.61527337 7.9249329 17.19360352 11.84082031 C17.48891759 13.82567858 17.79226624 15.80933602 18.09570312 17.79296875 C18.27939453 19.04335938 18.46308594 20.29375 18.65234375 21.58203125 C18.82515869 22.73413086 18.99797363 23.88623047 19.17602539 25.07324219 C19.4058361 27.8132759 19.5015692 29.58188036 18.4296875 32.09765625 C11.88026139 35.17568984 4.48895689 34.83914435 -2.5703125 34.09765625 C-8.48764301 31.95715702 -12.75822044 27.72184037 -15.5703125 22.09765625 C-16.0941701 16.8419046 -16.23536622 12.4523953 -13.8828125 7.66015625 C-9.64800772 2.96753474 -6.383657 -0.04040289 0 0 Z " fill="#FDFCFB" transform="translate(220.5703125,375.90234375)"/>
<path d="M0 0 C1.22589844 0.01353516 1.22589844 0.01353516 2.4765625 0.02734375 C3.41628906 0.04474609 3.41628906 0.04474609 4.375 0.0625 C5.70909338 6.63361954 6.70484876 13.22011808 7.5 19.875 C7.58749512 20.59163818 7.67499023 21.30827637 7.76513672 22.04663086 C8.23103365 26.07424891 8.46408734 30.00902623 8.375 34.0625 C-3.66159258 34.64077046 -3.66159258 34.64077046 -8.625 31.0625 C-13.24582712 26.45257105 -15.74228458 22.93869689 -15.9375 16.25 C-15.88098008 11.3963519 -14.90064572 8.78080054 -11.625 5.0625 C-7.6022229 1.51862493 -5.33529635 -0.07621852 0 0 Z " fill="#FCFBFA" transform="translate(220.625,298.9375)"/>
<path d="M0 0 C1.27230469 0.00902344 2.54460937 0.01804688 3.85546875 0.02734375 C5.31919922 0.04474609 5.31919922 0.04474609 6.8125 0.0625 C5.4192752 3.12896047 3.74159956 5.44299353 1.5625 8 C-4.08100731 15.11623886 -7.44164485 23.46397706 -10.1875 32.0625 C-13.96950321 31.19804212 -15.82310066 29.64747736 -18 26.5625 C-20.73413009 21.80372928 -21.15320604 17.43254761 -20.1875 12.0625 C-17.79510989 7.18570478 -14.47181045 4.25294396 -10.1875 1.0625 C-6.62704823 -0.12431726 -3.74941663 -0.03439832 0 0 Z " fill="#FDF9F7" transform="translate(293.1875,225.9375)"/>
</svg>
