<?xml version="1.0" encoding="UTF-8"?>
<svg version="1.1" xmlns="http://www.w3.org/2000/svg" width="512" height="512">
<path d="M0 0 C3.50101805 2.81789258 3.92672102 4.48704714 4.5625 8.9375 C4.33000847 13.64992439 2.39383308 15.84294597 -1 19 C-1.99 19 -2.98 19 -4 19 C-4 49.69 -4 80.38 -4 112 C1.28 112 6.56 112 12 112 C11.98952637 110.1240918 11.97905273 108.24818359 11.96826172 106.31542969 C11.93583173 100.07298512 11.91294941 93.83056069 11.89637566 87.58805466 C11.88599934 83.80832912 11.87195464 80.02869588 11.84912109 76.24902344 C11.8271706 72.59206503 11.8153853 68.93519463 11.81024551 65.27817535 C11.80658915 63.89253609 11.79945104 62.50690088 11.78853989 61.12129974 C11.67242339 45.74492258 12.89162581 31.26859684 23.40234375 19.25390625 C32.40241308 10.80854073 40.63221178 7.67112029 53 7 C63.80449288 7.54938099 72.99183169 12.29557722 80.9375 19.46875 C83.01381192 22.01695099 84.17233717 24.47828989 85.40283203 27.51049805 C86.70200745 30.70103682 87.93110528 33.19979267 90 36 C93.66712715 37.12524317 96.67540242 37.12848553 100.5 37.03125 C109.38930452 36.95188121 116.72155243 42.09512609 123 48 C131.40388472 57.17127731 133.68596307 66.84515842 135 79 C136.06734375 78.76216797 136.06734375 78.76216797 137.15625 78.51953125 C148.92726224 76.36905786 160.38740592 78.6370021 170.375 85.25 C180.78246057 93.21558066 187.68029516 104.00539932 190 117 C190.27455158 119.77855452 190.33306109 122.52165334 190.3125 125.3125 C190.31056641 126.41356079 190.31056641 126.41356079 190.30859375 127.53686523 C190.20111942 133.66894721 189.09692297 139.22098015 187 145 C187.86882812 145.51949219 188.73765625 146.03898438 189.6328125 146.57421875 C204.81161635 155.71757299 214.91649936 166.2828887 220.109375 183.7265625 C223.62113529 198.49436556 221.32701612 214.82997313 213.53515625 227.81640625 C206.54940407 237.75288327 197.67624675 245.32114534 187 251 C187.2165625 251.48984375 187.433125 251.9796875 187.65625 252.484375 C192.28514287 264.91380955 191.62604592 279.87425162 186.54296875 292.01953125 C184.19139791 296.56193264 181.53033898 300.30562507 178 304 C177.33097656 304.70898438 176.66195313 305.41796875 175.97265625 306.1484375 C167.53204936 314.36009484 157.17612111 318.15228066 145.5 318.125 C144.3965625 318.12757813 143.293125 318.13015625 142.15625 318.1328125 C139.31507756 318.01325821 136.76192358 317.64925815 134 317 C134.04640625 317.88300781 134.0928125 318.76601563 134.140625 319.67578125 C134.54740773 333.20130716 131.1328332 342.87685959 122 353 C111.40447263 362.34999839 101.6602055 363.48593616 88 363 C87.72542969 363.9075 87.45085937 364.815 87.16796875 365.75 C84.09523635 374.3002119 77.05449688 380.94452082 69.1875 385.25 C60.49400746 389.23035387 51.33870563 389.979975 42 388 C29.76703113 383.40940386 21.61580652 376.93358886 16 365 C11.46399208 354.9829825 11.86105898 344.82216825 11.90234375 334 C11.9042119 332.55411834 11.90563393 331.10823604 11.90663147 329.66235352 C11.91042537 325.88126843 11.92022849 322.10022256 11.93133545 318.31915283 C11.94161726 314.4510552 11.94614351 310.58295115 11.95117188 306.71484375 C11.96185396 299.14320933 11.97942496 291.57161519 12 284 C6.72 284 1.44 284 -4 284 C-4 314.69 -4 345.38 -4 377 C-2.68 377.33 -1.36 377.66 0 378 C3.02753754 380.77524274 4.28580741 382.95329005 4.5 387 C4.32048812 389.87762985 3.87067298 391.26427695 2.5625 393.9375 C-1.07416016 396.86456793 -4.39025359 397.29634084 -9 397 C-12.670261 395.43818681 -13.7727373 394.34089404 -16 391 C-16.54112221 382.47732513 -16.54112221 382.47732513 -14 379 C-11 377 -11 377 -8 377 C-8 346.31 -8 315.62 -8 284 C-13.28 284 -18.56 284 -24 284 C-23.97643433 286.95018066 -23.97643433 286.95018066 -23.95239258 289.95996094 C-23.90376541 296.50174428 -23.86943222 303.04348446 -23.84456348 309.58539963 C-23.82899286 313.54678308 -23.80791471 317.50796866 -23.77368164 321.46923828 C-23.74077753 325.30127115 -23.72308253 329.13311524 -23.71536827 332.96527863 C-23.70987986 334.41792009 -23.69916463 335.87055273 -23.68280983 337.32311249 C-23.50778054 353.53205154 -26.14511934 366.66937614 -37.45703125 378.6640625 C-45.08970563 385.67533635 -53.71465246 388.61860553 -64 389 C-74.28532654 388.47549952 -83.66845338 384.84946621 -91.328125 377.8828125 C-100 368.11682243 -100 368.11682243 -100 363 C-100.88300781 363.04640625 -101.76601562 363.0928125 -102.67578125 363.140625 C-114.68164428 363.50170359 -124.03541845 361.24285677 -133 353 C-140.31661607 345.77334232 -145.74600945 337.21333149 -146.1171875 326.671875 C-146.12417197 323.44505115 -146.08730765 320.22553248 -146 317 C-146.52722656 317.15855469 -147.05445313 317.31710937 -147.59765625 317.48046875 C-158.57944135 319.85539138 -170.03524915 317.85304844 -179.7890625 312.45703125 C-190.58363961 305.33130587 -197.98074451 295.26760776 -201.375 282.6875 C-203.27683774 271.88427735 -202.978754 259.95750799 -198 250 C-198.73605469 249.88914062 -199.47210938 249.77828125 -200.23046875 249.6640625 C-204.84459168 248.55771427 -208.22243326 245.78079703 -212 243 C-212.67417969 242.51789063 -213.34835938 242.03578125 -214.04296875 241.5390625 C-223.83309503 233.83984143 -231.08863293 221.24783899 -233 209 C-234.51303054 192.7733886 -233.26712155 177.65664261 -223 164.3359375 C-215.86444836 156.00183616 -208.7737817 150.07161868 -199 145 C-199.2165625 144.49855469 -199.433125 143.99710938 -199.65625 143.48046875 C-203.84540302 132.09605753 -203.74393405 117.90120801 -199.26171875 106.640625 C-193.27818912 94.11781995 -185.52379688 85.15947989 -172.37109375 79.9609375 C-164.35546704 77.46407562 -155.14699432 76.56571736 -147 79 C-146.98582031 78.34515625 -146.97164063 77.6903125 -146.95703125 77.015625 C-146.29079126 64.2670327 -141.04519305 53.6043113 -131.875 44.8125 C-123.0095074 37.71234619 -113.07016176 36.18013577 -102 36 C-101.67128906 35.1646875 -101.67128906 35.1646875 -101.3359375 34.3125 C-96.75849803 23.29687331 -90.1867866 15.11675776 -79.1875 10.1875 C-68.790486 6.18368095 -58.46417033 5.90798221 -48.0390625 10.2265625 C-37.53270293 15.60927275 -30.16069658 23.41935018 -26.25 34.625 C-24.4272918 40.32626168 -23.87520818 45.86033666 -23.88647461 51.83154297 C-23.88632858 52.48590836 -23.88618256 53.14027374 -23.8860321 53.81446838 C-23.88672353 55.95707626 -23.89447948 58.09959499 -23.90234375 60.2421875 C-23.90421067 61.73576815 -23.90563328 63.22934942 -23.90663147 64.72293091 C-23.91043506 68.63885207 -23.92024676 72.55473568 -23.93133545 76.47064209 C-23.94159612 80.47261039 -23.94613904 84.47458481 -23.95117188 88.4765625 C-23.96187111 96.31772742 -23.97945027 104.1588547 -24 112 C-18.72 112 -13.44 112 -8 112 C-8 81.31 -8 50.62 -8 19 C-9.32 18.67 -10.64 18.34 -12 18 C-15.02753754 15.22475726 -16.28580741 13.04670995 -16.5 9 C-16.2938319 4.96063247 -14.97436818 2.80440428 -12 0 C-7.81630255 -1.39456582 -4.25325707 -1.09786238 0 0 Z " fill="#4D91F1" transform="translate(262,58)"/>
<path d="M0 0 C3.36699513 3.03964838 5.01349238 5.87929337 6.71533203 10.07299805 C8.01450745 13.26353682 9.24360528 15.76229267 11.3125 18.5625 C14.97962715 19.68774317 17.98790242 19.69098553 21.8125 19.59375 C30.70180452 19.51438121 38.03405243 24.65762609 44.3125 30.5625 C52.71638472 39.73377731 54.99846307 49.40765842 56.3125 61.5625 C57.0240625 61.40394531 57.735625 61.24539062 58.46875 61.08203125 C70.23976224 58.93155786 81.69990592 61.1995021 91.6875 67.8125 C102.09496057 75.77808066 108.99279516 86.56789932 111.3125 99.5625 C111.58705158 102.34105452 111.64556109 105.08415334 111.625 107.875 C111.62306641 108.97606079 111.62306641 108.97606079 111.62109375 110.09936523 C111.51361942 116.23144721 110.40942297 121.78348015 108.3125 127.5625 C109.18132812 128.08199219 110.05015625 128.60148438 110.9453125 129.13671875 C126.12411635 138.28007299 136.22899936 148.8453887 141.421875 166.2890625 C144.93363529 181.05686556 142.63951612 197.39247313 134.84765625 210.37890625 C127.86190407 220.31538327 118.98874675 227.88364534 108.3125 233.5625 C108.5290625 234.05234375 108.745625 234.5421875 108.96875 235.046875 C113.59764287 247.47630955 112.93854592 262.43675162 107.85546875 274.58203125 C105.50389791 279.12443264 102.84283898 282.86812507 99.3125 286.5625 C98.64347656 287.27148438 97.97445312 287.98046875 97.28515625 288.7109375 C88.84454936 296.92259484 78.48862111 300.71478066 66.8125 300.6875 C65.7090625 300.69007813 64.605625 300.69265625 63.46875 300.6953125 C60.62757756 300.57575821 58.07442358 300.21175815 55.3125 299.5625 C55.35890625 300.44550781 55.4053125 301.32851563 55.453125 302.23828125 C55.85990773 315.76380716 52.4453332 325.43935959 43.3125 335.5625 C32.71697263 344.91249839 22.9727055 346.04843616 9.3125 345.5625 C9.03792969 346.47 8.76335937 347.3775 8.48046875 348.3125 C5.40773635 356.8627119 -1.63300312 363.50702082 -9.5 367.8125 C-18.19349254 371.79285387 -27.34879437 372.542475 -36.6875 370.5625 C-48.92046887 365.97190386 -57.07169348 359.49608886 -62.6875 347.5625 C-67.22350792 337.5454825 -66.82644102 327.38466825 -66.78515625 316.5625 C-66.7832881 315.11661834 -66.78186607 313.67073604 -66.78086853 312.22485352 C-66.77707463 308.44376843 -66.76727151 304.66272256 -66.75616455 300.88165283 C-66.74588274 297.0135552 -66.74135649 293.14545115 -66.73632812 289.27734375 C-66.72564604 281.70571141 -66.70860777 274.13411123 -66.6875 266.5625 C-66.10613785 266.55885437 -65.5247757 266.55520874 -64.92579651 266.55145264 C-58.84149063 266.50944405 -52.75792625 266.4399713 -46.67407227 266.35498047 C-44.40754637 266.326861 -42.14092406 266.30560186 -39.87426758 266.29150391 C-36.60448158 266.26994961 -33.33584391 266.22323389 -30.06640625 266.171875 C-28.56117149 266.17003204 -28.56117149 266.17003204 -27.02552795 266.16815186 C-18.56935269 265.99451722 -10.74210008 263.79008866 -4.6875 257.5625 C-1.22553838 251.88253585 0.43193191 246.86916565 0.45294189 240.20674133 C0.45865204 239.12040909 0.46436218 238.03407684 0.47024536 236.91482544 C0.47136322 235.72774994 0.47248108 234.54067444 0.47363281 233.31762695 C0.47859772 232.06353531 0.48356262 230.80944366 0.48867798 229.51734924 C0.50077779 226.07905937 0.50824278 222.64083025 0.51268864 219.20252633 C0.51562387 217.05160719 0.51972959 214.90069332 0.52419281 212.74977684 C0.53786351 206.01203414 0.5475315 199.27430357 0.5513947 192.53654796 C0.55587051 184.77410176 0.57339788 177.01183208 0.6023953 169.24943954 C0.62406053 163.2399225 0.6341016 157.23045494 0.63543582 151.22089928 C0.63648066 147.63629022 0.64231921 144.05184718 0.66025543 140.46727943 C0.67990272 136.46286053 0.67542794 132.45880761 0.66894531 128.4543457 C0.6781601 127.27739136 0.68737488 126.10043701 0.6968689 124.88781738 C0.6547477 116.56491994 -0.11250274 108.28225844 -6.06936646 101.89860535 C-13.14029562 96.0600846 -20.47241255 94.82112119 -29.3828125 94.85546875 C-30.99299759 94.83278679 -30.99299759 94.83278679 -32.63571167 94.80964661 C-36.02819246 94.76702766 -39.41977904 94.75795621 -42.8125 94.75 C-45.12762751 94.72683577 -47.44273408 94.70146646 -49.7578125 94.67382812 C-55.40105039 94.61123094 -61.0439425 94.57609234 -66.6875 94.5625 C-66.7341227 86.42519957 -66.76951967 78.28795623 -66.79112434 70.15055466 C-66.80150066 66.37082912 -66.81554536 62.59119588 -66.83837891 58.81152344 C-66.8603294 55.15456503 -66.8721147 51.49769463 -66.87725449 47.84067535 C-66.88091085 46.45503609 -66.88804896 45.06940088 -66.89896011 43.68379974 C-67.01507661 28.30742258 -65.79587419 13.83109684 -55.28515625 1.81640625 C-38.99462502 -13.47008608 -17.55725546 -13.82670877 0 0 Z " fill="#4D91F1" transform="translate(340.6875,75.4375)"/>
<path d="M0 0 C3.50101805 2.81789258 3.92672102 4.48704714 4.5625 8.9375 C4.33000847 13.64992439 2.39383308 15.84294597 -1 19 C-1.99 19 -2.98 19 -4 19 C-4 49.69 -4 80.38 -4 112 C16.94148971 111.80255747 16.94148971 111.80255747 37.88232422 111.54956055 C40.52310167 111.53494661 43.16389045 111.52220809 45.8046875 111.51171875 C46.47766876 111.49865189 47.15065002 111.48558502 47.84402466 111.47212219 C57.53903734 111.29354309 65.24861474 112.09155566 72.82516479 118.55766296 C80.16851006 126.26537482 80.44081769 135.67952036 80.38818359 145.8125 C80.39606903 147.69473267 80.39606903 147.69473267 80.40411377 149.61499023 C80.41500172 153.03250181 80.41252521 156.44946343 80.40297651 159.86694336 C80.39533459 163.4581776 80.40243803 167.04938975 80.40713501 170.640625 C80.41257945 176.6693133 80.40543555 182.69789102 80.39111328 188.7265625 C80.37478923 195.67773297 80.38007867 202.62863938 80.3965925 209.57980347 C80.41024492 215.56820929 80.41210875 221.55653602 80.40427649 227.54495239 C80.39962053 231.11269452 80.39891744 234.68031289 80.40888596 238.24804688 C80.41923116 242.22796746 80.40485702 246.20759675 80.38818359 250.1875 C80.39425629 251.35659912 80.40032898 252.52569824 80.40658569 253.73022461 C80.33579269 262.87870349 79.14593903 270.60446945 72.75 277.49609375 C67.23112958 282.23887302 60.94587967 284.12759505 53.78442383 284.11352539 C52.48541138 284.11340454 51.18639893 284.11328369 49.84802246 284.11315918 C48.46769157 284.10812366 47.08736115 284.10295708 45.70703125 284.09765625 C44.45192749 284.09664917 43.19682373 284.09564209 41.90368652 284.09460449 C37.20661508 284.08936491 32.50955664 284.07540369 27.8125 284.0625 C17.314375 284.041875 6.81625 284.02125 -4 284 C-4 314.69 -4 345.38 -4 377 C-2.68 377.33 -1.36 377.66 0 378 C3.02753754 380.77524274 4.28580741 382.95329005 4.5 387 C4.32048812 389.87762985 3.87067298 391.26427695 2.5625 393.9375 C-1.07416016 396.86456793 -4.39025359 397.29634084 -9 397 C-12.670261 395.43818681 -13.7727373 394.34089404 -16 391 C-16.54112221 382.47732513 -16.54112221 382.47732513 -14 379 C-11 377 -11 377 -8 377 C-8 346.31 -8 315.62 -8 284 C-28.32812419 284.11849444 -28.32812419 284.11849444 -48.65600586 284.27026367 C-51.21728133 284.27903111 -53.77856101 284.28667443 -56.33984375 284.29296875 C-58.311203 284.3159906 -58.311203 284.3159906 -60.3223877 284.33947754 C-70.0420796 284.3422349 -78.15143669 283.57952178 -85.49609375 276.74609375 C-90.30418413 271.16371349 -92.11172448 264.81640967 -92.15390015 257.57504272 C-92.16250061 256.47332733 -92.17110107 255.37161194 -92.17996216 254.23651123 C-92.18422211 253.0323053 -92.18848206 251.82809937 -92.19287109 250.58740234 C-92.20104858 249.31540985 -92.20922607 248.04341736 -92.21765137 246.73287964 C-92.24381427 242.51725366 -92.25917567 238.30161805 -92.2734375 234.0859375 C-92.27879999 232.63124206 -92.28417751 231.17654668 -92.28956985 229.72185135 C-92.31119232 223.66711219 -92.32992591 217.61237563 -92.34119225 211.55760765 C-92.35741193 202.89956746 -92.39054821 194.24197737 -92.44759309 185.5841068 C-92.48639105 179.48625585 -92.50583667 173.38852477 -92.51111281 167.29055369 C-92.51475354 163.65379788 -92.52663655 160.01752276 -92.55921555 156.38090134 C-92.59510403 152.31665385 -92.59090048 148.25336423 -92.58349609 144.18896484 C-92.59990143 142.9969043 -92.61630676 141.80484375 -92.63320923 140.57666016 C-92.57134998 132.25808881 -91.00661228 125.36227772 -85.24446678 119.08862877 C-77.11059406 111.42355203 -68.77950278 111.58402257 -58.09765625 111.70703125 C-56.82692261 111.71005249 -55.55618896 111.71307373 -54.24694824 111.71618652 C-49.51871573 111.73183405 -44.79059936 111.77371789 -40.0625 111.8125 C-29.481875 111.874375 -18.90125 111.93625 -8 112 C-8 81.31 -8 50.62 -8 19 C-9.32 18.67 -10.64 18.34 -12 18 C-15.02753754 15.22475726 -16.28580741 13.04670995 -16.5 9 C-16.2938319 4.96063247 -14.97436818 2.80440428 -12 0 C-7.81630255 -1.39456582 -4.25325707 -1.09786238 0 0 Z " fill="#3D47A3" transform="translate(262,58)"/>
<path d="M0 0 C1.93110657 0.3818512 1.93110657 0.3818512 4 1 C5.10229492 2.89038086 5.10229492 2.89038086 5.98046875 5.46484375 C6.33189941 6.46894287 6.68333008 7.47304199 7.04541016 8.50756836 C7.4222998 9.6394458 7.79918945 10.77132324 8.1875 11.9375 C8.59532715 13.12287354 9.0031543 14.30824707 9.42333984 15.52954102 C10.38426628 18.3238627 11.33367674 21.1218441 12.27783203 23.921875 C13.91614845 28.76976294 15.58957581 33.60518062 17.26551819 38.44017029 C18.83310994 42.96593592 20.39251223 47.49449626 21.95010376 52.02371216 C22.73305614 54.2986648 23.51786557 56.57297917 24.30453491 58.84664917 C25.42172447 62.0813633 26.52857917 65.31943742 27.6328125 68.55859375 C27.97295883 69.53775757 28.31310516 70.51692139 28.66355896 71.52575684 C29.12617882 72.89250549 29.12617882 72.89250549 29.59814453 74.28686523 C30.00590622 75.47589699 30.00590622 75.47589699 30.42190552 76.68894958 C31.05115008 79.20448285 31.10261242 81.41708711 31 84 C29.14746094 83.87084961 29.14746094 83.87084961 27 83 C25.71972656 80.43969727 25.71972656 80.43969727 24.640625 77.06640625 C24.05087891 75.2575293 24.05087891 75.2575293 23.44921875 73.41210938 C23.04938345 72.12893607 22.649645 70.84573259 22.25 69.5625 C21.83608623 68.28273298 21.42073821 67.00342889 21.00390625 65.72460938 C18 56.37856883 18 56.37856883 18 54 C2.16 54.495 2.16 54.495 -14 55 C-17.3 64.24 -20.6 73.48 -24 83 C-25.32 83 -26.64 83 -28 83 C-26.54337889 75.6819738 -24.35397592 68.79636354 -21.89453125 61.7578125 C-21.49223801 60.59482635 -21.08994476 59.43184021 -20.67546082 58.23361206 C-19.8246281 55.77700279 -18.97141601 53.32121645 -18.1159668 50.86621094 C-16.82923045 47.17301973 -15.54968759 43.47740202 -14.27148438 39.78125 C-9.65726545 26.46651822 -4.94236278 13.19658668 0 0 Z " fill="#F4F4F9" transform="translate(242,214)"/>
<path d="M0 0 C1.32 0 2.64 0 4 0 C4 30.69 4 61.38 4 93 C5.32 93.33 6.64 93.66 8 94 C11.02753754 96.77524274 12.28580741 98.95329005 12.5 103 C12.32048812 105.87762985 11.87067298 107.26427695 10.5625 109.9375 C6.92583984 112.86456793 3.60974641 113.29634084 -1 113 C-4.670261 111.43818681 -5.7727373 110.34089404 -8 107 C-8.54112221 98.47732513 -8.54112221 98.47732513 -6 95 C-3 93 -3 93 0 93 C0 62.31 0 31.62 0 0 Z " fill="#4BD8BD" transform="translate(254,342)"/>
<path d="M0 0 C3.50101805 2.81789258 3.92672102 4.48704714 4.5625 8.9375 C4.33000847 13.64992439 2.39383308 15.84294597 -1 19 C-1.99 19 -2.98 19 -4 19 C-4 49.69 -4 80.38 -4 112 C-5.32 112 -6.64 112 -8 112 C-8 81.31 -8 50.62 -8 19 C-9.32 18.67 -10.64 18.34 -12 18 C-15.02753754 15.22475726 -16.28580741 13.04670995 -16.5 9 C-16.2938319 4.96063247 -14.97436818 2.80440428 -12 0 C-7.81630255 -1.39456582 -4.25325707 -1.09786238 0 0 Z " fill="#4BD8BD" transform="translate(262,58)"/>
<path d="M0 0 C2.69990662 1.79993774 4.5418865 3.083773 6 6 C6.50698467 11.15434412 6.50698467 11.15434412 6 14 C3.5625 16.9375 3.5625 16.9375 1 19 C0.505 19.495 0.505 19.495 0 20 C-4.62949609 20.42086328 -7.31272343 19.86788177 -11 17 C-11.99 15.02 -11.99 15.02 -13 13 C-43.69 12.67 -74.38 12.34 -106 12 C-106 10.68 -106 9.36 -106 8 C-75.31 8 -44.62 8 -13 8 C-12.34 6.35 -11.68 4.7 -11 3 C-7.39142023 0.09308852 -4.58593387 -0.66878202 0 0 Z " fill="#4BD8BD" transform="translate(448,246)"/>
<path d="M0 0 C4.72363455 2.03975128 4.9623876 2.90596899 7 8 C37.69 8 68.38 8 100 8 C100 9.32 100 10.64 100 12 C98.84155075 12.00142502 97.6831015 12.00285004 96.48954773 12.00431824 C85.58562562 12.02096954 74.68207761 12.06368585 63.77835369 12.13209057 C58.17224946 12.16641827 52.56641941 12.19147954 46.96020508 12.19555664 C41.55238548 12.19982718 36.145185 12.22818642 30.73755836 12.27343178 C28.67187922 12.28644668 26.60612613 12.29070042 24.540411 12.28615379 C21.6521512 12.28127614 18.76572082 12.30721349 15.87768555 12.34057617 C15.01885269 12.33195053 14.16001984 12.32332489 13.27516174 12.31443787 C10.62638066 12.3091223 10.62638066 12.3091223 7 13 C4.9749679 15.33717792 4.9749679 15.33717792 4 18 C0.79062591 20.32402951 -2.11506021 20.47570691 -6 20 C-8.69990662 18.20006226 -10.5418865 16.916227 -12 14 C-12.5811138 6.91041162 -12.5811138 6.91041162 -10.125 3.0625 C-6.7586549 -0.20483495 -4.63724366 -0.36370538 0 0 Z " fill="#4BD8BD" transform="translate(70,246)"/>
<path d="M0 0 C0.66 0 1.32 0 2 0 C3.85726717 5.3548417 5.70851917 10.71171008 7.55419922 16.07055664 C8.18307764 17.89371965 8.81360328 19.71631533 9.44580078 21.53833008 C10.35361247 24.15559251 11.25550331 26.77483028 12.15625 29.39453125 C12.44060913 30.21025101 12.72496826 31.02597076 13.01794434 31.8664093 C13.27821411 32.62697128 13.53848389 33.38753326 13.80664062 34.17114258 C14.03758423 34.83954666 14.26852783 35.50795074 14.50646973 36.1966095 C15 38 15 38 15 41 C5.76 41 -3.48 41 -13 41 C-11.6986313 35.14384083 -10.37203585 29.72173037 -8.3984375 24.12109375 C-8.0364476 23.07478539 -8.0364476 23.07478539 -7.66714478 22.00733948 C-6.90774274 19.81574587 -6.14151619 17.62661418 -5.375 15.4375 C-4.85370978 13.93700761 -4.33287262 12.43635774 -3.8125 10.93554688 C-2.54688478 7.28852729 -1.27515038 3.64369607 0 0 Z " fill="#424CA5" transform="translate(243,223)"/>
<path d="M0 0 C1.32 0.33 2.64 0.66 4 1 C4 28.06 4 55.12 4 83 C2.02 83.495 2.02 83.495 0 84 C0 56.28 0 28.56 0 0 Z " fill="#EDEEF6" transform="translate(294,214)"/>
<path d="M0 0 C2.8367179 1.70705148 3.34742379 2.91519108 5 6 C5.87691794 10.0527829 5.40146254 13.17962003 3.5625 16.9375 C-0.07416016 19.86456793 -3.39025359 20.29634084 -8 20 C-11.670261 18.43818681 -12.7727373 17.34089404 -15 14 C-15.54112221 5.47732513 -15.54112221 5.47732513 -13 2 C-8.75758844 -0.82827437 -4.97696843 -0.8876122 0 0 Z " fill="#83D5FE" transform="translate(261,435)"/>
<path d="M0 0 C3.50101805 2.81789258 3.92672102 4.48704714 4.5625 8.9375 C4.33646615 12.54719202 3.33504359 15.24155467 0.7578125 17.921875 C-2.2836419 19.78730037 -5.12053632 19.80775582 -8.6171875 19.578125 C-11.17339121 18.95793131 -12.31597313 18.38138794 -14.125 16.5 C-16.54253769 11.98726299 -16.72214458 10.05501205 -16 5 C-11.95158725 -1.56122066 -7.01523358 -1.81079134 0 0 Z " fill="#83D5FE" transform="translate(262,58)"/>
<path d="M0 0 C2.69990662 1.79993774 4.5418865 3.083773 6 6 C6.50698467 11.15434412 6.50698467 11.15434412 6 14 C3.5625 16.9375 3.5625 16.9375 1 19 C0.67 19.33 0.34 19.66 0 20 C-4.62949609 20.42086328 -7.31272343 19.86788177 -11 17 C-13.56619697 13.57840405 -13.50984054 10.15155867 -13 6 C-8.98136166 1.13533254 -6.3151598 -0.61913331 0 0 Z " fill="#81D2FE" transform="translate(448,246)"/>
<path d="M0 0 C3.49406769 1.66762322 4.82670681 2.74006022 7 6 C7.45971784 10.96495273 7.15065843 14.06167696 4 18 C0.79062591 20.32402951 -2.11506021 20.47570691 -6 20 C-8.69990662 18.20006226 -10.5418865 16.916227 -12 14 C-12.5811138 6.91041162 -12.5811138 6.91041162 -10.125 3.0625 C-6.7586549 -0.20483495 -4.63724366 -0.36370538 0 0 Z " fill="#81D2FE" transform="translate(70,246)"/>
<path d="M0 0 C3.70718433 0.81785983 5.13329673 2.33819937 7.16015625 5.4765625 C7.79480821 8.28716402 7.79055099 10.66534271 7.16015625 13.4765625 C5.36651714 16.2865971 4.1413469 17.98596718 1.16015625 19.4765625 C-3.02128386 19.87103798 -5.14930423 19.92691436 -8.71484375 17.6015625 C-11.62695033 14.68945592 -11.8005268 13.8762848 -12.21484375 9.6640625 C-12.14775486 6.31571686 -11.81923122 5.44464632 -9.90234375 2.4765625 C-6.33149918 0.14458237 -4.19478356 -0.26611315 0 0 Z " fill="#81D2FE" transform="translate(304.83984375,383.5234375)"/>
<path d="M0 0 C3.70718433 0.81785983 5.13329673 2.33819937 7.16015625 5.4765625 C7.85163784 8.31106553 7.89721403 10.64831752 7.16015625 13.4765625 C4.72265625 16.4140625 4.72265625 16.4140625 2.16015625 18.4765625 C1.83015625 18.8065625 1.50015625 19.1365625 1.16015625 19.4765625 C-3.00385337 19.87694804 -5.16235071 19.91840578 -8.71484375 17.6015625 C-11.62695033 14.68945592 -11.8005268 13.8762848 -12.21484375 9.6640625 C-12.14775486 6.31571686 -11.81923122 5.44464632 -9.90234375 2.4765625 C-6.33149918 0.14458237 -4.19478356 -0.26611315 0 0 Z " fill="#81D2FE" transform="translate(211.83984375,383.5234375)"/>
<path d="M0 0 C3.03978021 0.68164768 4.80055419 2.23591662 6.93359375 4.43359375 C8.48383839 7.53408303 8.2235139 10.01253593 7.93359375 13.43359375 C6.1379697 16.18688396 4.88104453 17.95986836 1.93359375 19.43359375 C-5.00904049 20.11647581 -5.00904049 20.11647581 -9.06640625 17.49609375 C-11.39838638 13.92524918 -11.8090819 11.78853356 -11.54296875 7.59375 C-10.17888267 1.4106385 -5.7420565 -0.35820012 0 0 Z " fill="#81D2FE" transform="translate(395.06640625,199.56640625)"/>
<path d="M0 0 C3.24812693 0.84648156 4.88992576 2.9648036 6.93359375 5.50390625 C7.26359375 5.83390625 7.59359375 6.16390625 7.93359375 6.50390625 C8.06192119 11.02286524 7.74184202 14.49971901 4.87109375 18.06640625 C1.05583759 19.9334465 -1.90240326 20.44416499 -6.06640625 19.50390625 C-9.20476938 17.47704673 -10.72510892 16.05093433 -11.54296875 12.34375 C-11.8090819 8.14896644 -11.39838638 6.01225082 -9.06640625 2.44140625 C-5.7392534 0.29262003 -3.88640546 -0.22774777 0 0 Z " fill="#81D3FE" transform="translate(395.06640625,292.49609375)"/>
<path d="M0 0 C3.38031589 1.18767855 3.93216817 1.89825225 6 5 C6.83571542 9.69760034 6.62775298 13.03875324 4 17.0625 C0.65534086 19.22259236 -1.16897764 19.67672257 -5.06640625 19.43359375 C-8.10618646 18.75194607 -9.86696044 17.19767713 -12 15 C-13.55024464 11.89951072 -13.28992015 9.42105782 -13 6 C-9.24675489 0.24502417 -6.74280473 -0.34876576 0 0 Z " fill="#81D3FE" transform="translate(122,293)"/>
<path d="M0 0 C3 1.9375 3 1.9375 5 5 C5.62867003 8.12665982 5.64824105 10.87559496 5 14 C3.12379387 16.50160818 1.76108697 17.61945652 -1 19 C-5.18144011 19.39447548 -7.30946048 19.45035186 -10.875 17.125 C-13.60044891 14.39955109 -13.94669869 13.56499391 -14.3125 9.6875 C-13.95124058 5.42463889 -12.98007946 3.98007946 -10 1 C-6.76584084 -0.61707958 -3.49624735 -0.56822376 0 0 Z " fill="#81D3FE" transform="translate(123,200)"/>
<path d="M0 0 C2.66346536 2.1437648 3.7026198 3.58458461 4.40625 6.93359375 C4.70088521 10.83014441 4.22028211 12.65891802 2.0625 16 C-2.01080308 18.6601163 -5.25519889 18.98443537 -10 18 C-12.50160818 16.12379387 -13.61945652 14.76108697 -15 12 C-15.39447548 7.81855989 -15.45035186 5.69053952 -13.125 2.125 C-9.08803323 -1.91196677 -5.30628408 -1.34777731 0 0 Z " fill="#81D3FE" transform="translate(308,110)"/>
<path d="M0 0 C5.57894737 3.15789474 5.57894737 3.15789474 7 6 C7.4200542 13.56097561 7.4200542 13.56097561 5 17 C0.96966428 19.68689048 -2.26655998 19.78752505 -7 19 C-10.0432531 17.0125694 -11.62073803 15.67958873 -12.4375 12.0625 C-12.67021319 8.22273235 -12.23162678 6.36288196 -10.125 3.0625 C-6.76664891 -0.19707606 -4.63575359 -0.44574554 0 0 Z " fill="#81D3FE" transform="translate(212,109)"/>
<path d="M0 0 C0.99 0 1.98 0 3 0 C4.4296875 1.79296875 4.4296875 1.79296875 5.875 4.1875 C11.66509727 13.2477989 20.38271151 20.38951072 31 23 C34.32805832 23.48703292 37.64307262 23.80051046 41 24 C41.495 25.98 41.495 25.98 42 28 C30.44865754 28.92164966 20.9426418 26.06117406 11.87890625 18.73828125 C6.91145866 14.14261768 2.05117285 9.09247135 -1 3 C-0.67 2.01 -0.34 1.02 0 0 Z " fill="#346EC0" transform="translate(62,204)"/>
<path d="M0 0 C1.32 0 2.64 0 4 0 C1.77818181 8.88727274 -4.67596577 15.78421523 -12 21 C-19.40149924 25.27342739 -25.6933028 28.17742263 -34.3125 28.0625 C-35.19550781 28.05347656 -36.07851563 28.04445312 -36.98828125 28.03515625 C-37.65214844 28.02355469 -38.31601562 28.01195312 -39 28 C-38.67 26.68 -38.34 25.36 -38 24 C-37.24976563 23.90203125 -36.49953125 23.8040625 -35.7265625 23.703125 C-25.58717832 22.22180439 -17.66848448 19.90163603 -10 13 C-9.34 13 -8.68 13 -8 13 C-7.59394531 12.15695313 -7.59394531 12.15695313 -7.1796875 11.296875 C-5.93174057 8.86709753 -4.58224295 6.56044737 -3.125 4.25 C-2.63257813 3.45078125 -2.14015625 2.6515625 -1.6328125 1.828125 C-1.09398437 1.22484375 -0.55515625 0.6215625 0 0 Z " fill="#346EC0" transform="translate(447,204)"/>
<path d="M0 0 C0.99 0.33 1.98 0.66 3 1 C3.10822792 4.06345144 3.18741479 7.1230601 3.25 10.1875 C3.30027344 11.48397461 3.30027344 11.48397461 3.3515625 12.80664062 C3.41612328 17.01923169 3.37995841 19.36592411 1.171875 23.05078125 C-1.80371256 25.72131757 -4.1553388 26.12665159 -8.01171875 26.09765625 C-9.14770508 26.09282227 -9.14770508 26.09282227 -10.30664062 26.08789062 C-11.09232422 26.07951172 -11.87800781 26.07113281 -12.6875 26.0625 C-13.48478516 26.05798828 -14.28207031 26.05347656 -15.10351562 26.04882812 C-17.06904257 26.0370585 -19.03453085 26.01912348 -21 26 C-21.33 24.68 -21.66 23.36 -22 22 C-20.72382813 21.95101562 -19.44765625 21.90203125 -18.1328125 21.8515625 C-16.46351928 21.77653809 -14.79424954 21.70099012 -13.125 21.625 C-12.28324219 21.5940625 -11.44148438 21.563125 -10.57421875 21.53125 C-9.76855469 21.49257812 -8.96289062 21.45390625 -8.1328125 21.4140625 C-7.38918457 21.3826416 -6.64555664 21.3512207 -5.87939453 21.31884766 C-3.75989026 21.14580449 -3.75989026 21.14580449 -2 19 C-1.64792064 17.08321729 -1.64792064 17.08321729 -1.62109375 14.90234375 C-1.58693359 14.10119141 -1.55277344 13.30003906 -1.51757812 12.47460938 C-1.49115234 11.63736328 -1.46472656 10.80011719 -1.4375 9.9375 C-1.11993243 1.11993243 -1.11993243 1.11993243 0 0 Z " fill="#336DBE" transform="translate(371,148)"/>
<path d="M0 0 C0.99 0.33 1.98 0.66 3 1 C3.04898438 2.27617187 3.09796875 3.55234375 3.1484375 4.8671875 C3.22346191 6.53648072 3.29900988 8.20575046 3.375 9.875 C3.4059375 10.71675781 3.436875 11.55851562 3.46875 12.42578125 C3.50742188 13.23144531 3.54609375 14.03710938 3.5859375 14.8671875 C3.6173584 15.61081543 3.6487793 16.35444336 3.68115234 17.12060547 C3.85419551 19.24010974 3.85419551 19.24010974 6 21 C7.93257855 21.36831081 7.93257855 21.36831081 10.1328125 21.4140625 C10.93847656 21.45273437 11.74414062 21.49140625 12.57421875 21.53125 C13.83685547 21.57765625 13.83685547 21.57765625 15.125 21.625 C15.97449219 21.66367187 16.82398438 21.70234375 17.69921875 21.7421875 C19.79911684 21.83656494 21.89952891 21.91937586 24 22 C23.67 23.32 23.34 24.64 23 26 C20.27022936 26.08126109 17.5428983 26.14061663 14.8125 26.1875 C14.04357422 26.21263672 13.27464844 26.23777344 12.48242188 26.26367188 C7.83770161 26.32347514 4.71374375 26.11227113 1 23 C-0.73125224 20.1431306 -1.24925063 18.02921434 -1.23046875 14.70703125 C-1.22853516 13.91232422 -1.22660156 13.11761719 -1.22460938 12.29882812 C-1.21236328 11.47833984 -1.20011719 10.65785156 -1.1875 9.8125 C-1.18685547 8.98041016 -1.18621094 8.14832031 -1.18554688 7.29101562 C-1.14043257 1.14043257 -1.14043257 1.14043257 0 0 Z " fill="#346EC0" transform="translate(144,334)"/>
<path d="M0 0 C5.36900015 0.21914286 8.43345362 1.35973593 12.35546875 5.078125 C17.69483623 11.31795587 19.57272071 17.41844646 19.37109375 25.5546875 C18.9890104 28.07241568 18.26928275 29.80806593 17 32 C16.01 31.67 15.02 31.34 14 31 C14.04640625 30.154375 14.0928125 29.30875 14.140625 28.4375 C14.36447315 21.40227237 14.42343818 15.72604575 10 10 C7.10222448 6.97825547 3.8705797 4.63755295 0 3 C0 2.01 0 1.02 0 0 Z " fill="#356FC1" transform="translate(416,159)"/>
<path d="M0 0 C0.99 0.33 1.98 0.66 3 1 C3 1.99 3 2.98 3 4 C1.42578125 5.0703125 1.42578125 5.0703125 -0.6875 6.125 C-5.62835027 9.06493755 -8.16162947 12.56220307 -10 18 C-10.6467889 23.06149915 -10.31713234 28.06075374 -9 33 C-10.32 33 -11.64 33 -13 33 C-15.57497825 28.17191579 -15.73507882 23.32351819 -15 18 C-12.6079316 10.52339552 -8.30075075 5.54822405 -2 1 C-1.34 0.67 -0.68 0.34 0 0 Z " fill="#356EC0" transform="translate(94,160)"/>
<path d="M0 0 C10.89 0 21.78 0 33 0 C32.67 1.32 32.34 2.64 32 4 C21.44 4 10.88 4 0 4 C0 2.68 0 1.36 0 0 Z " fill="#346EC0" transform="translate(130,163)"/>
<path d="M0 0 C4 2 4 2 5.8046875 3.05078125 C9.98651299 4.85893711 14.53579202 4.44058947 19 4 C22.36878771 2.69280737 22.36878771 2.69280737 25 1 C27.375 0.3125 27.375 0.3125 29 0 C28.9375 2.25 28.9375 2.25 28 5 C22.6584222 9.59624136 17.28921463 9.64170431 10.40234375 9.47265625 C5.70473443 8.8200607 2.54545125 7.08300108 -1 4 C-0.67 2.68 -0.34 1.36 0 0 Z " fill="#356EC0" transform="translate(90,349)"/>
<path d="M0 0 C0.99 0 1.98 0 3 0 C3 13.53 3 27.06 3 41 C2.01 41 1.02 41 0 41 C0 27.47 0 13.94 0 0 Z " fill="#4BD8BD" transform="translate(301,342)"/>
<path d="M0 0 C0.99 0 1.98 0 3 0 C3 13.53 3 27.06 3 41 C2.01 41 1.02 41 0 41 C0 27.47 0 13.94 0 0 Z " fill="#4BD8BD" transform="translate(208,342)"/>
<path d="M0 0 C13.53 0 27.06 0 41 0 C41 0.99 41 1.98 41 3 C27.47 3 13.94 3 0 3 C0 2.01 0 1.02 0 0 Z " fill="#4BD8BD" transform="translate(342,301)"/>
<path d="M0 0 C13.53 0 27.06 0 41 0 C41 0.99 41 1.98 41 3 C27.47 3 13.94 3 0 3 C0 2.01 0 1.02 0 0 Z " fill="#4BD8BD" transform="translate(129,301)"/>
<path d="M0 0 C13.53 0 27.06 0 41 0 C41 0.99 41 1.98 41 3 C27.47 3 13.94 3 0 3 C0 2.01 0 1.02 0 0 Z " fill="#4BD8BD" transform="translate(342,208)"/>
<path d="M0 0 C13.53 0 27.06 0 41 0 C41 0.99 41 1.98 41 3 C27.47 3 13.94 3 0 3 C0 2.01 0 1.02 0 0 Z " fill="#4BD8BD" transform="translate(129,208)"/>
<path d="M0 0 C0.99 0 1.98 0 3 0 C3 13.53 3 27.06 3 41 C2.01 41 1.02 41 0 41 C0 27.47 0 13.94 0 0 Z " fill="#4BD8BD" transform="translate(301,129)"/>
<path d="M0 0 C0.99 0 1.98 0 3 0 C3 13.53 3 27.06 3 41 C2.01 41 1.02 41 0 41 C0 27.47 0 13.94 0 0 Z " fill="#4BD8BD" transform="translate(208,129)"/>
<path d="M0 0 C6.10529532 -0.42105485 9.14274942 -0.10167827 14 4 C17.88630616 8.02625624 20.90545981 11.541955 21.125 17.25 C21.08375 18.1575 21.0425 19.065 21 20 C19.68 20.33 18.36 20.66 17 21 C16.731875 19.783125 16.46375 18.56625 16.1875 17.3125 C14.91710951 12.35359645 13.7414507 9.04487042 9.1875 6.3125 C6.1564914 5.06443764 3.1308216 3.96906383 0 3 C0 2.01 0 1.02 0 0 Z " fill="#356FC1" transform="translate(153,117)"/>
<path d="M0 0 C0.99 0.33 1.98 0.66 3 1 C2.4777304 8.57290919 0.35247889 12.92853536 -5.1875 18.25 C-9.07281347 21.47649944 -13.07278159 22.35197581 -18 23 C-18.33 21.68 -18.66 20.36 -19 19 C-18.33613281 18.76925781 -17.67226563 18.53851563 -16.98828125 18.30078125 C-10.59214502 15.93841269 -5.84133934 13.95614493 -2.81640625 7.45703125 C-1.81075757 4.98988621 -0.87456977 2.5162203 0 0 Z " fill="#346EBF" transform="translate(432,337)"/>
<path d="M0 0 C-0.33 1.32 -0.66 2.64 -1 4 C-2.216875 4.226875 -3.43375 4.45375 -4.6875 4.6875 C-9.7363375 5.94747538 -12.4397465 8.58160707 -15.25 12.9375 C-16.213772 15.58787299 -16.61979101 18.21180075 -17 21 C-18.32 20.67 -19.64 20.34 -21 20 C-21.63967221 14.88262231 -20.27570701 12.02060273 -17.50390625 7.8984375 C-12.33023698 1.36751993 -8.03477528 -0.12959315 0 0 Z " fill="#356EC0" transform="translate(359,117)"/>
<path d="M0 0 C4.27310422 0.50622141 6.12749446 1.71830238 9.125 4.75 C13.89715403 9.22439737 18.94675395 11.64658845 25 14 C24.67 15.32 24.34 16.64 24 18 C14.64294992 15.62683512 6.21241658 10.45489989 0 3 C0 2.01 0 1.02 0 0 Z " fill="#346DC1" transform="translate(372,360)"/>
<path d="M0 0 C8.91 0 17.82 0 27 0 C27 1.32 27 2.64 27 4 C18.09 4 9.18 4 0 4 C0 2.68 0 1.36 0 0 Z " fill="#336CBD" transform="translate(361,336)"/>
<path d="M0 0 C0 1.32 0 2.64 0 4 C-0.96099609 4.23783203 -0.96099609 4.23783203 -1.94140625 4.48046875 C-6.4539824 5.69772104 -10.16268109 6.84646517 -13.875 9.75 C-14.90625 10.4925 -15.9375 11.235 -17 12 C-19.1953125 11.640625 -19.1953125 11.640625 -21 11 C-18.65474171 5.34732617 -13.6266752 3.3133376 -8.375 0.6875 C-5.50702697 -0.14270272 -2.96988633 -0.13813425 0 0 Z " fill="#356EC0" transform="translate(351,92)"/>
<path d="M0 0 C5.52414861 0.46034572 10.44047009 1.69827145 15 5 C16.23046875 7.13671875 16.23046875 7.13671875 17 9 C14 10 14 10 12.203125 9.29296875 C11.55859375 8.92816406 10.9140625 8.56335938 10.25 8.1875 C6.54429198 6.20425997 3.07108134 5.01777034 -1 4 C-0.67 2.68 -0.34 1.36 0 0 Z " fill="#346EC0" transform="translate(162,92)"/>
<path d="M0 0 C2.475 0.495 2.475 0.495 5 1 C5.66 5.95 6.32 10.9 7 16 C5.68 16.33 4.36 16.66 3 17 C1.25314692 13.17254549 0.65113667 9.87557277 0.375 5.6875 C0.26285156 4.08455078 0.26285156 4.08455078 0.1484375 2.44921875 C0.09945312 1.64097656 0.05046875 0.83273437 0 0 Z " fill="#3671C4" transform="translate(155,404)"/>
<path d="M0 0 C0 0.99 0 1.98 0 3 C-6.20514474 5.13619737 -11.42684522 6.36517527 -18 6 C-18 4.68 -18 3.36 -18 2 C-15.93827387 1.66191314 -13.8755797 1.32972639 -11.8125 1 C-10.66394531 0.814375 -9.51539063 0.62875 -8.33203125 0.4375 C-5.49584607 0.06510523 -2.85280436 -0.08596021 0 0 Z " fill="#356FC1" transform="translate(449,309)"/>
<path d="M0 0 C5.61 0.66 11.22 1.32 17 2 C17 3.32 17 4.64 17 6 C11.08739655 6.25706972 5.76081841 5.2982126 0 4 C0 2.68 0 1.36 0 0 Z " fill="#356FC2" transform="translate(64,309)"/>
<path d="M0 0 C0.99 0.33 1.98 0.66 3 1 C2.88506243 2.89646998 2.75760358 4.79218332 2.625 6.6875 C2.55539062 7.74324219 2.48578125 8.79898437 2.4140625 9.88671875 C2.01239911 12.90677269 1.25930981 15.24078054 0 18 C-1.32 18 -2.64 18 -4 18 C-2.9611908 11.8887076 -1.84269722 5.92295536 0 0 Z " fill="#3670C2" transform="translate(354,403)"/>
<path d="M0 0 C0 1.32 0 2.64 0 4 C-1.95585325 5.00484204 -3.91476237 6.00373805 -5.875 7 C-6.96554688 7.556875 -8.05609375 8.11375 -9.1796875 8.6875 C-12 10 -12 10 -14 10 C-13.8046875 7.67578125 -13.8046875 7.67578125 -13 5 C-10.8203125 3.41796875 -10.8203125 3.41796875 -8.125 2.1875 C-7.24070312 1.76855469 -6.35640625 1.34960938 -5.4453125 0.91796875 C-3 0 -3 0 0 0 Z " fill="#356FC1" transform="translate(130,368)"/>
</svg>
