<?xml version="1.0" encoding="UTF-8"?>
<svg version="1.1" xmlns="http://www.w3.org/2000/svg" width="512" height="512">
<path d="M0 0 C3.08266848 2.69733492 4.70885721 4.12657162 6 8 C6.09736598 9.5471389 6.13919062 11.09809056 6.14717102 12.64826965 C6.15790398 14.08026955 6.15790398 14.08026955 6.16885376 15.54119873 C6.17154266 16.58697083 6.17423157 17.63274292 6.17700195 18.71020508 C6.18357315 19.81291245 6.19014435 20.91561981 6.19691467 22.05174255 C6.2166557 25.70767278 6.22831133 29.36356194 6.23828125 33.01953125 C6.24235678 34.26700323 6.2464323 35.51447521 6.25063133 36.79974937 C6.26934274 42.72003048 6.28390864 48.64029851 6.2922433 54.56060201 C6.3020147 61.38814935 6.32833429 68.2153724 6.36874419 75.04280549 C6.40256988 80.96146479 6.41439045 86.88004482 6.41844749 92.79880333 C6.4233236 95.31421802 6.43496653 97.82962899 6.45348549 100.34498024 C6.4777868 103.86412114 6.47692801 107.38241252 6.4699707 110.90161133 C6.48918579 112.46116043 6.48918579 112.46116043 6.50878906 114.05221558 C6.4656533 120.03526157 5.95272095 123.42381528 2 128 C-9.49671309 138.81034216 -29.90160947 141.76157231 -45.1328125 142.23828125 C-56.20263473 142.13801581 -56.20263473 142.13801581 -65.9921875 146.2890625 C-67.92270317 149.10342871 -69.43141636 151.97341171 -71 155 C-81.54456854 166.56946119 -96.11850742 173.5216269 -111.6875 174.44921875 C-122.39274855 174.78457865 -132.08999181 174.35526297 -142 170 C-142.87398437 169.63777344 -143.74796875 169.27554688 -144.6484375 168.90234375 C-160.95522002 161.50157322 -171.42312828 148.23501789 -178 132 C-183.45499644 116.31004369 -182.50819447 98.22174274 -175.26953125 83.234375 C-166.95698871 67.33849762 -154.03317795 55.86536938 -137 50 C-133.01640547 49.21172465 -129.01929983 48.57635398 -125 48 C-125.02094727 46.81970215 -125.04189453 45.6394043 -125.06347656 44.42333984 C-125.13607769 40.02893283 -125.18187271 35.63457846 -125.21972656 31.23974609 C-125.23979629 29.34056675 -125.26705851 27.44144885 -125.30175781 25.54248047 C-125.35048109 22.80681161 -125.37301507 20.07196229 -125.390625 17.3359375 C-125.41127014 16.49195404 -125.43191528 15.64797058 -125.45318604 14.77841187 C-125.45523501 9.3503442 -124.59246692 6.31964301 -121 2 C-94.34134672 -21.33928789 -28.10629197 -19.97842388 0 0 Z " fill="#FECC05" transform="translate(337,168)"/>
<path d="M0 0 C4.29816086 3.05000498 7.47270301 7.12376235 8.7890625 12.26953125 C9.60311128 18.78192151 8.62713773 23.88686476 4.7890625 29.26953125 C2.88231418 31.27356265 1.08461147 32.67262762 -1.2109375 34.26953125 C-1.8709375 34.26953125 -2.5309375 34.26953125 -3.2109375 34.26953125 C-3.2454835 40.83552084 -3.22548279 47.39975018 -3.16821289 53.96557617 C-3.15510314 56.1973086 -3.15431133 58.42914973 -3.16625977 60.66088867 C-3.18130975 63.87656958 -3.15152947 67.08925188 -3.11328125 70.3046875 C-3.12753647 71.29662613 -3.14179169 72.28856476 -3.15647888 73.31056213 C-3.04776819 78.55560746 -2.5696634 81.51823772 1.20214844 85.32080078 C2.37847954 86.32673706 3.57236653 87.31281103 4.7890625 88.26953125 C5.54574219 88.97722656 6.30242187 89.68492187 7.08203125 90.4140625 C7.70722656 90.96449219 8.33242187 91.51492187 8.9765625 92.08203125 C9.60949219 92.64535156 10.24242187 93.20867187 10.89453125 93.7890625 C12.78368686 95.26533049 14.63703459 96.23163223 16.7890625 97.26953125 C17.33880737 96.41742065 17.33880737 96.41742065 17.8996582 95.5480957 C25.26512911 84.18222398 32.70991875 73.32599313 41.7890625 63.26953125 C42.88927734 61.98949219 42.88927734 61.98949219 44.01171875 60.68359375 C59.88229838 42.42234604 79.28212932 28.19453145 100.7890625 17.26953125 C101.48177246 16.91165527 102.17448242 16.5537793 102.88818359 16.18505859 C117.09963911 8.90323893 132.1494649 3.51727027 147.7890625 0.26953125 C150.97388042 10.20463155 153.71762876 20.23134973 156.36328125 30.32080078 C157.04734596 32.92607904 157.73831772 35.52946445 158.4296875 38.1328125 C158.86760084 39.79546411 159.30511595 41.45822066 159.7421875 43.12109375 C160.05147186 44.28350082 160.05147186 44.28350082 160.36700439 45.46939087 C161.15275732 48.48409139 161.7890625 51.13989292 161.7890625 54.26953125 C161.15105713 54.46998047 160.51305176 54.67042969 159.85571289 54.87695312 C141.55190739 60.67526738 124.35347751 66.77075499 108.7890625 78.26953125 C108.2312207 78.68074219 107.67337891 79.09195313 107.09863281 79.515625 C74.34566862 103.86807714 54.87569891 137.90380487 48.171875 177.95703125 C47.46406983 184.32091546 47.54467607 190.74905956 47.5390625 197.14453125 C47.53838776 197.83516663 47.53771301 198.525802 47.53701782 199.23736572 C47.55395612 210.16620655 48.15274532 220.63001486 50.7890625 231.26953125 C50.95003418 231.95015625 51.11100586 232.63078125 51.27685547 233.33203125 C55.53870335 250.88707803 63.17812429 267.65211576 73.7890625 282.26953125 C74.20913574 282.84896484 74.62920898 283.42839844 75.06201172 284.02539062 C82.02597956 293.49659345 89.92613137 303.69424383 99.7890625 310.26953125 C99.38279408 315.50147573 96.59687812 318.41867569 93.3515625 322.26953125 C92.25157252 323.60852816 91.15263091 324.94838693 90.0546875 326.2890625 C89.50361328 326.95760254 88.95253906 327.62614258 88.38476562 328.31494141 C86.06763934 331.1532084 83.82720542 334.04678004 81.6015625 336.95703125 C80.80621094 337.99601562 80.01085937 339.035 79.19140625 340.10546875 C75.36696233 345.14254124 71.57055813 350.20013493 67.7890625 355.26953125 C64.60656743 354.68319113 62.88971692 353.77299751 60.5390625 351.56640625 C59.63595337 350.72493042 59.63595337 350.72493042 58.71459961 349.86645508 C58.07917236 349.25697021 57.44374512 348.64748535 56.7890625 348.01953125 C56.12334229 347.38619873 55.45762207 346.75286621 54.77172852 346.1003418 C37.62655604 329.64007395 23.57973551 311.51202818 12.7890625 290.26953125 C12.43118652 289.57682129 12.07331055 288.88411133 11.70458984 288.17041016 C-11.67800039 242.5361242 -16.03458895 186.34727384 -0.33251953 137.5390625 C1.12556531 133.19772011 2.65582997 128.88724975 4.23828125 124.58984375 C5.60949993 120.85556647 6.74987415 117.10889708 7.7890625 113.26953125 C-2.24816345 103.84833528 -2.24816345 103.84833528 -12.5625 94.734375 C-13.10648438 94.25097656 -13.65046875 93.76757812 -14.2109375 93.26953125 C-14.89557068 92.69281677 -15.58020386 92.11610229 -16.2855835 91.52191162 C-18.6809968 88.71963115 -18.69845771 87.40923392 -18.66503906 83.76660156 C-18.66473694 82.66576233 -18.66443481 81.5649231 -18.66412354 80.4307251 C-18.64347839 79.24831238 -18.62283325 78.06589966 -18.6015625 76.84765625 C-18.59307281 75.02497223 -18.59307281 75.02497223 -18.58441162 73.16546631 C-18.56201484 69.28308782 -18.51180937 65.40163097 -18.4609375 61.51953125 C-18.4408769 58.88803416 -18.42262537 56.25652261 -18.40625 53.625 C-18.36213903 47.17286244 -18.29519269 40.72126269 -18.2109375 34.26953125 C-18.98050781 33.99625 -19.75007813 33.72296875 -20.54296875 33.44140625 C-25.12011809 31.43094534 -27.48658872 27.85620002 -29.5234375 23.39453125 C-30.98338381 16.75841165 -30.77049159 12.0111409 -27.48046875 6.09375 C-20.92673228 -3.32346517 -9.82768975 -5.54031115 0 0 Z " fill="#6C50A1" transform="translate(67.2109375,52.73046875)"/>
<path d="M0 0 C9.28026223 0.77388754 18.35260796 2.64384609 27.47363281 4.45800781 C30.32239394 5.02416616 33.17285666 5.58105568 36.02368164 6.13671875 C37.83563615 6.49295313 39.64748903 6.84970489 41.45922852 7.20703125 C42.3112233 7.37372314 43.16321808 7.54041504 44.04103088 7.7121582 C50.00456127 8.90352575 50.00456127 8.90352575 52.23657227 10.01953125 C51.63576802 15.03269354 50.59159647 19.7053678 49.04907227 24.51953125 C48.82840088 25.21240234 48.60772949 25.90527344 48.38037109 26.61914062 C39.38673438 54.3073448 25.07452082 79.33075545 5.32250977 100.74609375 C3.38434676 102.85847365 1.52633955 105.01951197 -0.32592773 107.20703125 C-3.8402865 111.2154722 -7.65044322 114.63575395 -11.76342773 118.01953125 C-12.33754395 118.49535645 -12.91166016 118.97118164 -13.50317383 119.46142578 C-15.47870416 121.09377713 -17.46329863 122.71443948 -19.45092773 124.33203125 C-20.09288086 124.86022461 -20.73483398 125.38841797 -21.39624023 125.93261719 C-24.71917866 128.60789349 -27.6322054 130.71618195 -31.76342773 132.01953125 C-31.39193604 132.50494385 -31.02044434 132.99035645 -30.63769531 133.49047852 C-28.02448895 136.93517844 -25.53598632 140.36014906 -23.27514648 144.046875 C-19.18185166 150.03522753 -15.24947466 154.18353142 -8.00073242 155.921875 C-3.62111651 156.59487413 0.74923825 156.82519452 5.17407227 156.95703125 C5.90921051 156.98924774 6.64434875 157.02146423 7.40176392 157.05465698 C15.99556304 157.48249051 15.99556304 157.48249051 23.67700195 154.23876953 C25.55010364 152.15661576 25.55010364 152.15661576 26.94042969 149.93188477 C29.0920398 146.75735811 31.63587818 146.01282617 35.23657227 145.01953125 C41.7187857 144.09350076 46.90045746 145.1743897 52.23657227 149.01953125 C57.19371482 153.6641583 59.31606862 157.45110886 59.54907227 164.26953125 C59.46502772 169.94720737 57.6564255 174.34137908 53.84594727 178.55859375 C49.59364412 182.38566658 45.50882643 183.76229493 39.92407227 184.39453125 C33.71058812 183.76265151 28.32679375 181.69427733 24.17407227 176.89453125 C22.23657227 174.01953125 22.23657227 174.01953125 22.23657227 172.01953125 C20.41283081 172.05880737 20.41283081 172.05880737 18.55224609 172.09887695 C14.03306546 172.18950885 9.51396483 172.24682773 4.99414062 172.29418945 C3.03957604 172.31930406 1.0851051 172.35340256 -0.86914062 172.39672852 C-3.68179441 172.45751559 -6.49320476 172.48577108 -9.30639648 172.5078125 C-10.17741501 172.53361893 -11.04843353 172.55942535 -11.94584656 172.58601379 C-16.39986651 172.58806393 -18.15903321 172.51016968 -21.72998047 169.61132812 C-22.40101807 168.75603516 -23.07205566 167.90074219 -23.76342773 167.01953125 C-24.42084961 166.37371094 -25.07827148 165.72789062 -25.75561523 165.0625 C-30.32293133 160.56151422 -34.59024807 155.88512189 -38.76342773 151.01953125 C-40.07447116 149.51825799 -41.38693399 148.01822291 -42.70092773 146.51953125 C-43.72176107 145.35286458 -44.7425944 144.18619792 -45.76342773 143.01953125 C-49.74759704 144.23317052 -53.39521904 145.76405913 -57.11450195 147.63378906 C-74.31103408 156.22168328 -92.83383966 161.84658819 -111.76342773 165.01953125 C-113.64094727 165.35597656 -113.64094727 165.35597656 -115.55639648 165.69921875 C-155.62705411 171.66284364 -200.02176091 165.43687909 -235.76342773 146.01953125 C-230.60608934 134.92216896 -225.2827544 123.90801493 -219.8430481 112.94659424 C-219.16426848 111.57714124 -218.48757444 110.20665256 -217.81295776 108.83514404 C-216.85578808 106.89098028 -215.89079091 104.95090453 -214.92358398 103.01171875 C-214.36292236 101.8810498 -213.80226074 100.75038086 -213.22460938 99.58544922 C-211.76342773 97.01953125 -211.76342773 97.01953125 -209.76342773 96.01953125 C-207.49063476 96.9821621 -205.29481568 98.00670938 -203.07592773 99.08203125 C-167.84679523 115.25405165 -127.73162037 114.3241085 -91.76342773 101.26953125 C-55.60520595 87.50182793 -27.44513978 59.73024746 -11.22851562 24.88623047 C-8.28993256 18.27809937 -6.10343229 11.41618366 -3.92749023 4.52734375 C-2.43404401 0.02695881 -2.43404401 0.02695881 0 0 Z " fill="#1BBDCB" transform="translate(405.763427734375,285.98046875)"/>
<path d="M0 0 C5.30235788 3.56889473 7.62804471 6.88856279 9 13 C9.96415356 19.13011212 8.53026643 23.92727869 5 29 C0.64054979 33.71776119 -3.94370975 36.03693065 -10.3125 36.375 C-15.26470323 36.23515373 -18.99340592 34.90483179 -23 32 C-23.7439128 30.80227038 -24.46980744 29.59320886 -25.1796875 28.375 C-27.56400942 25.5213498 -28.82255446 25.03011249 -32.55493164 24.39672852 C-36.24297524 24.18991644 -39.90668501 24.28491946 -43.59448242 24.4597168 C-45.92910635 24.56213179 -48.25516462 24.58458834 -50.59179688 24.59960938 C-58.40491329 24.67218248 -58.40491329 24.67218248 -65.43432617 27.66748047 C-67.20060341 29.68518936 -68.59355982 31.72116077 -70 34 C-70.93191815 35.08459376 -71.88766273 36.14938705 -72.87109375 37.1875 C-74.60068675 39.08294439 -76.32984441 40.97878612 -78.05859375 42.875 C-78.69925781 43.57625 -79.33992188 44.2775 -80 45 C-77.16182586 47.92686708 -74.25221191 50.68412942 -71.16796875 53.3515625 C-32.27697578 87.11357232 -8.04105735 134.74925023 -3 186 C-3 192.6 -3 199.2 -3 206 C-21.15 206 -39.3 206 -58 206 C-58.99 195.605 -58.99 195.605 -60 185 C-67.43105938 144.51353857 -87.11859225 109.07705797 -121.30151367 85.22216797 C-147.75140551 67.20542611 -174.127821 61.67755912 -206 58 C-206 39.85 -206 21.7 -206 3 C-165.12015209 3 -127.50193897 14.06068273 -93 36 C-92.70053467 35.37383789 -92.40106934 34.74767578 -92.0925293 34.10253906 C-90.91506265 31.83654068 -89.66405265 30.49562859 -87.8125 28.75 C-83.34136851 24.4087354 -79.30327993 19.74174836 -75.296875 14.97265625 C-74.76578125 14.34230469 -74.2346875 13.71195313 -73.6875 13.0625 C-73.21699219 12.49660156 -72.74648438 11.93070313 -72.26171875 11.34765625 C-71 10 -71 10 -69 9 C-65.93757679 8.91288225 -62.89813535 8.8845154 -59.8359375 8.90234375 C-58.92872955 8.9037587 -58.02152161 8.90517365 -57.08682251 8.90663147 C-54.18284845 8.91223904 -51.27895085 8.92479282 -48.375 8.9375 C-46.40885528 8.94251402 -44.44270935 8.9470771 -42.4765625 8.95117188 C-37.6510121 8.96221094 -32.82551903 8.97948065 -28 9 C-27.72671875 8.23042969 -27.4534375 7.46085937 -27.171875 6.66796875 C-25.15140499 2.06803203 -21.56173136 -0.30220514 -17.0625 -2.3125 C-10.51115838 -3.78320934 -5.94450663 -3.13437622 0 0 Z " fill="#BEAED5" transform="translate(466,45)"/>
<path d="M0 0 C3.08266848 2.69733492 4.70885721 4.12657162 6 8 C6.13337611 10.95175119 6.21233272 13.87904598 6.23828125 16.83203125 C6.246353 17.70139816 6.25442474 18.57076508 6.26274109 19.46647644 C6.27656801 21.30648817 6.28729639 23.14652541 6.29516602 24.98657227 C6.31237227 27.79167619 6.3562692 30.59559916 6.40039062 33.40039062 C6.41051871 35.19009552 6.41903445 36.97981041 6.42578125 38.76953125 C6.44328934 39.60410355 6.46079742 40.43867584 6.47883606 41.29853821 C6.45367474 48.09889253 4.27597313 51.66712754 -0.5 56.5625 C-15.61331149 68.3214855 -37.82491984 69.17561497 -56.0625 69.5625 C-57.37283203 69.62501953 -58.68316406 69.68753906 -60.03320312 69.75195312 C-66.68357394 69.86251345 -71.01550818 69.76643873 -76.08984375 65.1953125 C-77.40641319 63.80928007 -78.71159282 62.41224924 -80 61 C-86.22935582 56.42008383 -92.90659765 53.40674818 -100.25 51.125 C-100.87970703 50.92173096 -101.50941406 50.71846191 -102.15820312 50.5090332 C-109.58272609 48.39779878 -117.33361917 48.34591348 -125 48 C-125.09914961 42.41330092 -125.17160105 36.82711814 -125.21972656 31.23974609 C-125.23979629 29.34056675 -125.26705851 27.44144885 -125.30175781 25.54248047 C-125.35048109 22.80681161 -125.37301507 20.07196229 -125.390625 17.3359375 C-125.41127014 16.49195404 -125.43191528 15.64797058 -125.45318604 14.77841187 C-125.45523501 9.3503442 -124.59246692 6.31964301 -121 2 C-94.34134672 -21.33928789 -28.10629197 -19.97842388 0 0 Z " fill="#FECC05" transform="translate(337,168)"/>
<path d="M0 0 C4.29816086 3.05000498 7.47270301 7.12376235 8.7890625 12.26953125 C9.60311128 18.78192151 8.62713773 23.88686476 4.7890625 29.26953125 C2.88231418 31.27356265 1.08461147 32.67262762 -1.2109375 34.26953125 C-1.8709375 34.26953125 -2.5309375 34.26953125 -3.2109375 34.26953125 C-3.2454835 40.83552084 -3.22548279 47.39975018 -3.16821289 53.96557617 C-3.15510314 56.1973086 -3.15431133 58.42914973 -3.16625977 60.66088867 C-3.18130975 63.87656958 -3.15152947 67.08925188 -3.11328125 70.3046875 C-3.12753647 71.29662613 -3.14179169 72.28856476 -3.15647888 73.31056213 C-3.04771759 78.55804841 -2.56720512 81.52124374 1.2043457 85.32739258 C2.3783619 86.33301832 3.57129782 87.31735147 4.7890625 88.26953125 C5.53414062 88.94242187 6.27921875 89.6153125 7.046875 90.30859375 C7.66304687 90.83195312 8.27921875 91.3553125 8.9140625 91.89453125 C12.0310636 94.54592223 14.89757473 97.37388904 17.7890625 100.26953125 C20.22976307 102.6009888 22.69580352 104.90480978 25.1640625 107.20703125 C25.79828125 107.80193359 26.4325 108.39683594 27.0859375 109.00976562 C30.77895466 112.45783777 34.53141993 115.79318974 38.42822266 119.01000977 C40.77941091 121.18614543 40.80151661 122.44077528 41.0390625 125.70703125 C40.7890625 129.26953125 40.7890625 129.26953125 39.7890625 131.20703125 C36.52092709 132.94322818 33.33773543 132.99400219 29.7890625 132.26953125 C26.91516049 130.46151762 24.69180102 128.15055628 22.3515625 125.70703125 C21.03647238 124.40490248 19.71878277 123.10539355 18.3984375 121.80859375 C17.46161133 120.87708496 17.46161133 120.87708496 16.50585938 119.92675781 C14.48414215 117.97519118 12.35859145 116.25420963 10.1015625 114.58203125 C5.32309428 111.02072003 1.01975557 106.97202908 -3.33984375 102.921875 C-6.33842422 100.1517578 -9.3935153 97.46166301 -12.4921875 94.8046875 C-13.059375 94.29808594 -13.6265625 93.79148437 -14.2109375 93.26953125 C-14.89702087 92.69136658 -15.58310425 92.1132019 -16.28997803 91.51751709 C-18.68184651 88.71845415 -18.69841759 87.40486137 -18.66503906 83.76660156 C-18.66473694 82.66576233 -18.66443481 81.5649231 -18.66412354 80.4307251 C-18.64347839 79.24831238 -18.62283325 78.06589966 -18.6015625 76.84765625 C-18.59307281 75.02497223 -18.59307281 75.02497223 -18.58441162 73.16546631 C-18.56201484 69.28308782 -18.51180937 65.40163097 -18.4609375 61.51953125 C-18.4408769 58.88803416 -18.42262537 56.25652261 -18.40625 53.625 C-18.36213903 47.17286244 -18.29519269 40.72126269 -18.2109375 34.26953125 C-18.98050781 33.99625 -19.75007813 33.72296875 -20.54296875 33.44140625 C-25.12011809 31.43094534 -27.48658872 27.85620002 -29.5234375 23.39453125 C-30.98338381 16.75841165 -30.77049159 12.0111409 -27.48046875 6.09375 C-20.92673228 -3.32346517 -9.82768975 -5.54031115 0 0 Z " fill="#BEAED4" transform="translate(67.2109375,52.73046875)"/>
<path d="M0 0 C5.17288957 3.52196737 8.97738503 8.24998407 13 13 C16.86721086 17.48828327 20.75629671 21.85980167 25 26 C29.72085098 30.6206206 34.25606528 35.31754598 38.5546875 40.3359375 C41.37601196 43.58427323 42.75323382 44.27447623 47.07841492 44.58425903 C47.76796768 44.62090668 48.45752045 44.65755432 49.16796875 44.6953125 C50.23752556 44.75282181 50.23752556 44.75282181 51.32868958 44.81149292 C52.84067039 44.88614106 54.35296374 44.95467035 55.86547852 45.01757812 C57.40549511 45.08882272 58.94478762 45.1781656 60.48266602 45.28613281 C69.39720128 46.19396021 69.39720128 46.19396021 77.49316406 43.27636719 C79.36466038 41.18913068 79.36466038 41.18913068 80.73022461 38.94091797 C82.83796939 35.71912005 85.39125419 34.99551608 89 34 C95.48221344 33.07396951 100.6638852 34.15485845 106 38 C110.95714255 42.64462705 113.07949636 46.43157761 113.3125 53.25 C113.22845545 58.92767612 111.41985323 63.32184783 107.609375 67.5390625 C103.35707185 71.36613533 99.27225417 72.74276368 93.6875 73.375 C87.47401585 72.74312026 82.09022149 70.67474608 77.9375 65.875 C76 63 76 63 76 61 C74.78417236 61.02618408 73.56834473 61.05236816 72.31567383 61.0793457 C67.79649319 61.1699776 63.27739256 61.22729648 58.75756836 61.2746582 C56.80300377 61.29977281 54.84853283 61.33387131 52.89428711 61.37719727 C50.08163332 61.43798434 47.27022298 61.46623983 44.45703125 61.48828125 C43.58601273 61.51408768 42.7149942 61.5398941 41.81758118 61.56648254 C37.36356122 61.56853268 35.60439452 61.49063843 32.03344727 58.59179688 C31.36240967 57.73650391 30.69137207 56.88121094 30 56 C29.34257812 55.35417969 28.68515625 54.70835937 28.0078125 54.04296875 C20.88329397 47.02191834 14.49685231 39.42811077 8.05639648 31.78735352 C5.48811047 28.74340977 2.89465382 25.72821376 0.25 22.75 C-0.83663509 21.50286917 -1.91990889 20.25280258 -3 19 C-3.65355469 18.24976563 -4.30710937 17.49953125 -4.98046875 16.7265625 C-9.80779941 10.9260574 -9.80779941 10.9260574 -10.6875 6.6875 C-9.19848326 0.86679821 -5.82964331 -1.0493358 0 0 Z " fill="#BEAFD4" transform="translate(352,397)"/>
<path d="M0 0 C5.30235788 3.56889473 7.62804471 6.88856279 9 13 C9.96415356 19.13011212 8.53026643 23.92727869 5 29 C0.64054979 33.71776119 -3.94370975 36.03693065 -10.3125 36.375 C-15.26470323 36.23515373 -18.99340592 34.90483179 -23 32 C-23.7439128 30.80227038 -24.46980744 29.59320886 -25.1796875 28.375 C-27.56400942 25.5213498 -28.82255446 25.03011249 -32.55493164 24.39672852 C-36.24297524 24.18991644 -39.90668501 24.28491946 -43.59448242 24.4597168 C-45.92910635 24.56213179 -48.25516462 24.58458834 -50.59179688 24.59960938 C-58.40638162 24.67228927 -58.40638162 24.67228927 -65.43652344 27.66967773 C-67.20248654 29.68678828 -68.59641146 31.72019502 -70 34 C-70.89928357 35.05201878 -71.82251211 36.08426166 -72.7734375 37.08984375 C-73.63195312 38.02957031 -74.49046875 38.96929687 -75.375 39.9375 C-79.4453861 44.38430552 -83.64355083 48.66992855 -87.93359375 52.90625 C-91.9669829 56.99301103 -95.71137422 61.30637754 -99.1875 65.875 C-101.74495723 68.87339814 -103.63738932 69.7956084 -107.5 70.375 C-110 70 -110 70 -112.3125 68.4375 C-114.65751786 65.05025198 -114.46109333 63.06445231 -114 59 C-112.35735295 56.69791778 -110.92974865 54.99566884 -108.9375 53.0625 C-107.92129849 52.01748739 -106.90567328 50.97191406 -105.890625 49.92578125 C-105.39369141 49.4251416 -104.89675781 48.92450195 -104.38476562 48.40869141 C-100.35180737 44.30605228 -96.64208025 39.94013899 -93.27734375 35.27734375 C-89.95096423 30.81365678 -86.22767289 26.82250316 -82.375 22.8125 C-77.35797033 17.58636154 -77.35797033 17.58636154 -72.6640625 12.07421875 C-71 10 -71 10 -69 9 C-65.93757679 8.91288225 -62.89813535 8.8845154 -59.8359375 8.90234375 C-58.92872955 8.9037587 -58.02152161 8.90517365 -57.08682251 8.90663147 C-54.18284845 8.91223904 -51.27895085 8.92479282 -48.375 8.9375 C-46.40885528 8.94251402 -44.44270935 8.9470771 -42.4765625 8.95117188 C-37.6510121 8.96221094 -32.82551903 8.97948065 -28 9 C-27.72671875 8.23042969 -27.4534375 7.46085937 -27.171875 6.66796875 C-25.15140499 2.06803203 -21.56173136 -0.30220514 -17.0625 -2.3125 C-10.51115838 -3.78320934 -5.94450663 -3.13437622 0 0 Z " fill="#6D51A1" transform="translate(466,45)"/>
<path d="M0 0 C1.9375 2.90625 1.9375 2.90625 3.875 5.8125 C9.98653238 12.90749737 19.71027394 15.44019409 28.4375 17.8125 C29.18725098 18.0194751 29.93700195 18.2264502 30.70947266 18.43969727 C41.950753 21.29022479 53.57713526 21.16564826 65.10327148 21.13037109 C67.1958735 21.12497842 69.28826352 21.13037237 71.38085938 21.13671875 C78.64122809 21.13993315 85.79472069 20.94661608 93 20 C93.30752701 25.84301324 92.92906831 29.74787751 90 35 C87.31731243 37.54855319 85.50709471 38.83096843 82 40 C83.0725 40.350625 84.145 40.70125 85.25 41.0625 C88.94277541 42.65795875 90.57004253 44.51877637 92.35546875 48.08203125 C93.36470174 51.08526396 93.25495818 53.87676224 93 57 C85.00813562 58.04279809 77.05490523 58.39271523 69 58.5625 C67.68515625 58.62501953 66.3703125 58.68753906 65.015625 58.75195312 C58.35190763 58.86234603 53.9916393 58.77734988 48.90625 54.1953125 C47.59085738 52.80938656 46.28695913 51.41236845 45 50 C38.77064418 45.42008383 32.09340235 42.40674818 24.75 40.125 C24.12029297 39.92173096 23.49058594 39.71846191 22.84179688 39.5090332 C15.15195183 37.3223519 8.35540976 37.52221311 0 37 C0 24.79 0 12.58 0 0 Z " fill="#FAA21B" transform="translate(212,179)"/>
<path d="M0 0 C1.9375 1.6875 1.9375 1.6875 3 4 C3.1875 7.25 3.1875 7.25 3 10 C3.825 10.185625 4.65 10.37125 5.5 10.5625 C11.102227 12.86341466 15.07111115 16.76972227 19 21.3125 C20.56880829 25.52867227 20.66556808 29.5653722 20 34 C18.375 36.625 18.375 36.625 16 38 C13 38.5 13 38.5 10 38 C7.05981232 35.87653112 6.12872106 34.39420826 5 30.9375 C3.83979909 27.52940983 3.03548631 26.81285988 0 25 C-4.60955073 24.18003184 -8.68540918 24.17455925 -12.6875 26.6875 C-14.26729131 28.95890213 -14.26729131 28.95890213 -13.75 31.75 C-13.5025 32.4925 -13.255 33.235 -13 34 C-6.5059663 36.23932196 0.01754791 38.11566057 6.66796875 39.83984375 C12.13554502 41.74356022 16.59465547 44.4665762 19.3046875 49.75 C21.23726376 56.00372992 21.10058806 63.40042058 18.5 69.4375 C15.45321337 74.55523412 10.68954358 78.21554979 5 79.875 C4.34 79.91625 3.68 79.9575 3 80 C3.1546875 81.3303125 3.1546875 81.3303125 3.3125 82.6875 C3 86 3 86 0.875 88.875 C-2 91 -2 91 -5.0625 91.625 C-8 91 -8 91 -10.375 88.875 C-12.221621 85.60790131 -12.3434538 83.69212837 -12 80 C-12.66 79.95875 -13.32 79.9175 -14 79.875 C-19.57366286 78.24934833 -24.31137275 74.55554658 -27.5 69.6875 C-29.30119096 65.25957222 -29.88068033 61.71209371 -29 57 C-27.4375 54.375 -27.4375 54.375 -25 53 C-21.60056199 53.05963926 -19.1447719 53.26407521 -16.25 55.125 C-14.40614834 57.89077749 -13.2997244 60.94847314 -12 64 C-9.53990037 65.23004981 -7.86827194 65.13314027 -5.125 65.125 C-4.26132813 65.12757813 -3.39765625 65.13015625 -2.5078125 65.1328125 C-0.19334029 65.01023921 1.78289116 64.64966445 4 64 C4 61.36 4 58.72 4 56 C-1.20542322 54.14722224 -6.275785 52.69200932 -11.6875 51.5625 C-19.23093344 49.86566707 -23.4917914 47.51185687 -28 41 C-30.00254857 34.99235428 -30.14520273 27.55850799 -28.19921875 21.51171875 C-25.20400542 16.21091165 -20.40680505 12.67302722 -15 10 C-14.01 10 -13.02 10 -12 10 C-12.103125 8.9275 -12.20625 7.855 -12.3125 6.75 C-12 3 -12 3 -9.9375 0.5 C-6.08739354 -1.46601181 -4.10799908 -1.21718491 0 0 Z " fill="#FEFDFA" transform="translate(224,234)"/>
<path d="M0 0 C0.33 0 0.66 0 1 0 C1.09918586 5.30186559 1.17161755 10.60318618 1.21972656 15.90576172 C1.23979033 17.70794081 1.26704813 19.51005521 1.30175781 21.31201172 C1.35050829 23.90869136 1.37302082 26.50450729 1.390625 29.1015625 C1.41127014 29.9017984 1.43191528 30.7020343 1.45318604 31.52651978 C1.45529594 36.83636582 0.47408167 39.75895018 -3 44 C-18.99200776 59.03726103 -47.71578248 58.53637538 -68 59 C-66.94116077 55.80378299 -65.86511043 52.61718255 -64.74609375 49.44140625 C-61.57768883 40.18266267 -60.15492509 31.80253325 -60 22 C-57.35992249 21.11997416 -55.51136328 20.81229301 -52.78125 20.640625 C-36.28191829 19.44369217 -17.08529552 17.61452326 -4 6.4375 C-2.26925847 4.32815876 -1.02504739 2.51602542 0 0 Z " fill="#FAA21A" transform="translate(342,252)"/>
<path d="M0 0 C0 2.31 0 4.62 0 7 C-1.01320313 7.45439453 -1.01320313 7.45439453 -2.046875 7.91796875 C-9.04224689 11.1956453 -9.04224689 11.1956453 -14 17 C-14.35449219 17.56847656 -14.70898438 18.13695312 -15.07421875 18.72265625 C-16.33990993 21.83614974 -16.30168542 24.52247988 -16.3125 27.875 C-16.32925781 29.06867188 -16.34601563 30.26234375 -16.36328125 31.4921875 C-15.85776529 36.37340614 -14.28466232 39.67755349 -10.875 43.1875 C-4.21087277 47.3887976 3.55692293 48.65907253 11.1796875 50.25390625 C14 51 14 51 17 53 C17.41327822 56.23734607 17.64023105 58.15605906 15.625 60.8125 C11.47520294 63.84504401 6.96643121 63.69608248 2 63 C-1.92792925 60.13588492 -3.31899482 57.44265654 -5 53 C-8.26281174 50.82479218 -9.2340908 50.71755681 -13 51 C-14.485 51.495 -14.485 51.495 -16 52 C-16.54616203 58.60249214 -16.59451869 63.76491257 -12.6328125 69.27734375 C-9.0799308 73.02571894 -4.86375361 75.3787488 0 77 C0.495 80.96 0.495 80.96 1 85 C-11.52219214 82.94718162 -21.28727099 76.91991977 -28.71875 66.6171875 C-35.63577974 55.80085178 -37.9419213 44.50154348 -35.34375 31.7890625 C-31.77352238 19.81648883 -24.10330344 9.57480455 -13.15625 3.39453125 C-8.59005596 1.20349459 -5.12819841 -0.29514811 0 0 Z " fill="#FAA31D" transform="translate(212,237)"/>
<path d="M0 0 C11.06238553 0.61457697 19.52547941 5.99682962 27 14 C28.94065046 16.52684235 30.79059009 19.03903091 32 22 C31 24 31 24 28.0625 25.4375 C24.78256825 26.79632842 24.78256825 26.79632842 23 30 C22.32039667 34.66239494 22.39148371 38.73005297 24.4375 43 C28.00992368 45.78823312 31.57799547 46.36693525 36 47 C35.59720365 57.47270521 30.33491964 66.54886027 23.19140625 74.03125 C16.33704893 80.1891753 8.91512818 83.06782393 0 85 C0 79.7606383 0 79.7606383 1 77 C2.89137628 75.590306 4.75425285 74.81075778 6.93359375 73.91796875 C10.97152744 72.12417968 13.27909382 68.99435336 15.8125 65.5 C17.97572653 59.12417445 18.52581425 51.15050526 15.5 44.9375 C10.43317929 38.98398567 3.11682659 37.26078958 -4.25 35.4375 C-13.64458077 33.11188074 -13.64458077 33.11188074 -17 30 C-16.51007516 24.4883455 -16.51007516 24.4883455 -14.2578125 22.33203125 C-10.32948747 20.01445541 -6.41200226 20.26930562 -2 21 C0.88300977 22.32383102 1.84625129 23.46934526 4 26 C5.25 29.75 5.25 29.75 6 33 C8.79870027 34.39935013 10.90498792 34.25265405 14 34 C16.22402435 32.37635781 16.91304585 31.45513837 17.43359375 28.73046875 C17.44247636 22.94788975 16.97836695 19.50183629 13 15 C9.96862089 12.16631952 7.52712312 10.21880582 3.6875 8.625 C2.800625 8.08875 1.91375 7.5525 1 7 C0.125 3.3125 0.125 3.3125 0 0 Z " fill="#FAA41F" transform="translate(226,237)"/>
<path d="M0 0 C0.33 0 0.66 0 1 0 C1.09922625 5.01703179 1.17163587 10.03348652 1.21972656 15.05126953 C1.23978369 16.75644894 1.26703657 18.46156006 1.30175781 20.16650391 C1.35053861 22.62419524 1.37302719 25.08097366 1.390625 27.5390625 C1.41127014 28.29555084 1.43191528 29.05203918 1.45318604 29.83145142 C1.45592305 36.35676165 -0.94049535 39.88900773 -5.5 44.5625 C-13.38574344 50.7244754 -26.01373571 55 -36 55 C-35.78520698 48.87839891 -34.63563563 45.82604211 -30.5703125 41.25 C-29 40 -29 40 -26 40 C-26 39.34 -26 38.68 -26 38 C-26.763125 37.7525 -27.52625 37.505 -28.3125 37.25 C-31.38335532 35.8216952 -32.34071918 34.92349478 -34 32 C-35.58822153 27.48610723 -36.08701729 23.75248252 -36 19 C-35.44650879 18.84442627 -34.89301758 18.68885254 -34.32275391 18.52856445 C-15.38511003 14.0176488 -15.38511003 14.0176488 -1 2 C-0.67 1.34 -0.34 0.68 0 0 Z " fill="#FAA21B" transform="translate(342,180)"/>
<path d="M0 0 C4.29816086 3.05000498 7.47270301 7.12376235 8.7890625 12.26953125 C9.60515337 18.79825824 8.61084069 23.86511485 4.7890625 29.26953125 C2.86639356 31.43381901 1.27257259 32.66559765 -1.2109375 34.26953125 C-4.35702155 34.17964313 -5.52062733 33.06307136 -8.2109375 31.26953125 C-13.25095158 31.50166091 -13.25095158 31.50166091 -17.2109375 34.26953125 C-20.0740932 34.34906335 -21.66500067 33.75778925 -23.80078125 31.84765625 C-28.57516133 26.57132423 -30.74606352 21.62865042 -30.5234375 14.3515625 C-29.73944585 9.12821811 -27.21112224 4.86417077 -23.2734375 1.39453125 C-15.76588438 -3.81479132 -8.0822946 -4.55635333 0 0 Z " fill="#6C50A1" transform="translate(67.2109375,52.73046875)"/>
<path d="M0 0 C5.30235788 3.56889473 7.62804471 6.88856279 9 13 C9.96415356 19.13011212 8.53026643 23.92727869 5 29 C0.64054979 33.71776119 -3.94370975 36.03693065 -10.3125 36.375 C-16.01032142 36.22331091 -20.43116416 34.33696942 -24.64453125 30.50390625 C-26.0625 28.9375 -26.0625 28.9375 -28 26 C-27 23 -27 23 -24.875 21.25 C-22.61322193 19.02400691 -22.61322193 19.02400691 -23 15.375 C-23.63772948 11.93371463 -23.63772948 11.93371463 -26.0625 10.5625 C-26.701875 10.376875 -27.34125 10.19125 -28 10 C-27.91863476 7.23358182 -27.4328274 5.48902323 -25.5859375 3.40234375 C-17.71509299 -3.65367765 -9.54294154 -5.03173281 0 0 Z " fill="#BEAED5" transform="translate(466,45)"/>
<path d="M0 0 C4.39327806 3.16574449 7.90600479 6.90977865 8.859375 12.33984375 C9.60840504 18.87236803 8.68705391 23.92911245 4.859375 29.33984375 C0.55199174 34.10700388 -4.1544768 36.00178924 -10.453125 36.71484375 C-16.63460336 36.08621883 -22.03114372 34.01661993 -26.203125 29.27734375 C-28.140625 26.33984375 -28.140625 26.33984375 -28.140625 23.33984375 C-27.50125 23.05109375 -26.861875 22.76234375 -26.203125 22.46484375 C-23.98856421 21.51160924 -23.98856421 21.51160924 -23.140625 19.33984375 C-22.64020354 16.42446346 -22.64020354 16.42446346 -23.140625 13.33984375 C-25.51905077 10.93577991 -25.51905077 10.93577991 -28.140625 9.33984375 C-26.52314068 3.67864864 -22.83057572 0.86657254 -17.828125 -1.97265625 C-11.40716505 -3.6152274 -5.81978443 -3.27071885 0 0 Z " fill="#1BBDCB" transform="translate(456.140625,433.66015625)"/>
<path d="M0 0 C2.72622806 2.20541563 4.43159226 4.86318452 6 8 C6.1346515 12.8955438 5.69296109 16.14712481 2.5625 20 C-1.33361451 23.04086986 -3.8245237 23.39064823 -8.671875 23.359375 C-12.59004236 22.75455722 -14.30358816 20.83123243 -17 18 C-18.85243916 14.29512168 -18.4585162 10.04385812 -18 6 C-16.243167 2.87674133 -14.81120145 1.50989805 -11.8125 -0.375 C-7.69683558 -1.28959209 -4.0413302 -1.28121881 0 0 Z " fill="#FDEA8D" transform="translate(266,261)"/>
<path d="M0 0 C2.5721881 1.06483056 3.9233595 2.10135726 6 4 C5.8125 6.375 5.8125 6.375 5 9 C1.05190228 11.13095108 -2.56525665 11.32721182 -7 11.375 C-8.19625 11.40335938 -9.3925 11.43171875 -10.625 11.4609375 C-14.55181894 10.92463584 -16.17627444 9.70607033 -19 7 C-18.8125 5.1875 -18.8125 5.1875 -18 3 C-12.46793612 -1.14401876 -6.63764555 -0.7901959 0 0 Z " fill="#FEEA8B" transform="translate(308,170)"/>
<path d="M0 0 C0.33 0 0.66 0 1 0 C1.15855469 0.88042969 1.31710937 1.76085937 1.48046875 2.66796875 C3.11286228 11.60759535 3.11286228 11.60759535 9 18 C9.66 18.33 10.32 18.66 11 19 C11 19.66 11 20.32 11 21 C10.236875 21.45375 9.47375 21.9075 8.6875 22.375 C5.12810052 24.52719503 3.49845302 26.19933846 2.375 30.2578125 C1.86915118 32.49900378 1.41054577 34.73958331 1 37 C0.67 37 0.34 37 0 37 C-0.08636719 36.33613281 -0.17273438 35.67226562 -0.26171875 34.98828125 C-1.1852828 29.18423194 -2.02179638 25.62051172 -7 22 C-10.16701423 20.66436389 -10.16701423 20.66436389 -13 20 C-13 19.67 -13 19.34 -13 19 C-11.906875 18.731875 -10.81375 18.46375 -9.6875 18.1875 C-5.61570658 16.96921034 -5.61570658 16.96921034 -3 14 C-1.07020368 9.38993101 -0.50974987 4.92758205 0 0 Z " fill="#FDE688" transform="translate(305,199)"/>
</svg>
