<?xml version="1.0" encoding="UTF-8"?>
<svg version="1.1" xmlns="http://www.w3.org/2000/svg" width="512" height="512">
<path d="M0 0 C5.29952403 3.90993161 9.40590625 10.19756091 11.140625 16.4765625 C13.40657774 20.31498927 13.86924242 20.4775458 17.94921875 21.5859375 C19.96760999 22.01778797 21.99164445 22.42379102 24.01953125 22.80859375 C46.03110741 27.67420638 67.90278289 36.1712055 86.03027344 49.84521484 C88.81412373 51.19599301 90.23013642 50.74933185 93.14453125 49.87109375 C94.07910156 49.52820313 95.01367188 49.1853125 95.9765625 48.83203125 C105.79119852 45.85496533 117.13327387 47.15231134 126.14453125 51.87109375 C134.34782381 56.58118669 139.30567942 63.3459586 142.01953125 72.37109375 C143.95919681 80.61180304 144.30299127 90.2621044 140.01171875 97.8828125 C138.99856156 99.79024884 138.99856156 99.79024884 139.265625 101.69921875 C140.55656265 104.88926912 142.38272206 107.71758388 144.20703125 110.62109375 C154.5223216 127.5036618 161.96836648 145.12213498 167.08203125 164.24609375 C167.2936792 165.03669189 167.50532715 165.82729004 167.72338867 166.6418457 C168.69685833 170.46568758 169.40621315 173.8903569 169.14453125 177.87109375 C169.92828125 177.91234375 170.71203125 177.95359375 171.51953125 177.99609375 C180.26231122 180.10641995 187.02752689 185.60385884 192.14453125 192.87109375 C197.93063806 202.573407 198.857187 213.88557838 196.49609375 224.89453125 C192.6784576 235.23804115 185.94437239 242.06570541 176.14453125 246.87109375 C175.30672119 247.11593506 174.46891113 247.36077637 173.60571289 247.61303711 C170.95399926 248.65255559 170.95399926 248.65255559 170.02954102 251.23095703 C169.68620728 252.69637939 169.68620728 252.69637939 169.3359375 254.19140625 C168.93290405 255.81876709 168.93290405 255.81876709 168.52172852 257.47900391 C168.25287842 258.63964355 167.98402832 259.8002832 167.70703125 260.99609375 C167.10845482 263.38291932 166.50429498 265.76835167 165.89453125 268.15234375 C165.59933594 269.31121094 165.30414063 270.47007812 165 271.6640625 C160.09514644 290.0516642 150.67876456 308.06974379 140.14453125 323.87109375 C140.45965312 326.70719056 141.23628028 329.12475284 142.20703125 331.80859375 C144.9935178 341.57193211 143.70442648 351.92176667 139.14453125 360.87109375 C134.53194577 368.80642317 127.14134146 375.55527901 118.296875 378.375 C109.99093061 380.28943727 99.83663544 381.09994818 92.140625 376.734375 C89.36669384 375.53469049 88.00246872 375.94407965 85.14453125 376.87109375 C83.16652615 377.98982442 81.2321592 379.18716835 79.33203125 380.43359375 C64.07329225 390.14610517 47.55540602 397.15424555 30.20703125 402.18359375 C28.89279175 402.56572021 28.89279175 402.56572021 27.55200195 402.95556641 C22.41142242 404.39404617 17.45781334 405.34776933 12.14453125 405.87109375 C11.94150391 406.68900391 11.94150391 406.68900391 11.734375 407.5234375 C8.6200677 418.43283732 1.79109827 425.20897832 -7.85546875 430.87109375 C-16.45356978 434.89573679 -26.91172387 434.56084221 -35.85546875 431.87109375 C-44.12557791 428.28955041 -51.4542363 422.86934674 -55.85546875 414.87109375 C-55.98171631 414.24879883 -56.10796387 413.62650391 -56.23803711 412.98535156 C-56.81333891 410.54937383 -57.39423174 408.91714455 -58.85546875 406.87109375 C-62.73942211 404.93519494 -66.81513583 404.14031796 -71.04296875 403.24609375 C-73.42061887 402.67485282 -75.79693662 402.09803718 -78.171875 401.515625 C-79.32445801 401.23928223 -80.47704102 400.96293945 -81.66455078 400.67822266 C-100.02042586 396.03518341 -118.15019358 386.3412772 -133.85546875 375.87109375 C-136.33078857 376.08950432 -138.4773689 376.72625712 -140.79296875 377.61328125 C-150.0182952 381.07277867 -158.14226853 380.84466863 -167.28515625 377.1328125 C-176.97563881 372.37593428 -183.29888993 365.32433569 -187.09375 355.30078125 C-190.11699707 345.65739828 -189.01091972 338.29172578 -185.53515625 328.88671875 C-184.32001278 323.49539254 -187.39109015 319.8527785 -190.12939453 315.40649414 C-202.24319337 295.68427484 -212.16302282 272.94129294 -215.09765625 249.83105469 C-215.70562493 247.65575806 -215.70562493 247.65575806 -218.03417969 246.58837891 C-219.71770906 245.99352266 -221.41526749 245.43768055 -223.12109375 244.91015625 C-230.60972781 242.06447531 -236.592746 235.06187879 -239.85546875 227.87109375 C-244.19276187 216.03572709 -243.62958304 206.54772002 -238.85546875 194.87109375 C-233.88813342 186.08163008 -226.3365318 180.15374287 -216.85546875 176.87109375 C-216.19546875 176.87109375 -215.53546875 176.87109375 -214.85546875 176.87109375 C-214.74203125 175.5871875 -214.62859375 174.30328125 -214.51171875 172.98046875 C-211.92817874 149.99772738 -200.85504898 124.43812181 -187.23046875 105.80859375 C-185.00725331 102.68605763 -185.00725331 102.68605763 -185.29296875 98.87109375 C-185.80859375 97.88109375 -186.32421875 96.89109375 -186.85546875 95.87109375 C-190.80132726 86.05319936 -190.97760056 77.72701793 -186.85546875 67.87109375 C-181.86512948 58.49530481 -175.26810305 52.63620245 -165.3671875 48.78515625 C-156.72156368 46.53479365 -147.45321184 46.65386138 -139.10546875 49.87109375 C-135.5489667 51.01195962 -134.3111779 51.06664935 -130.82421875 49.5703125 C-128.00336138 47.80727665 -125.28348571 45.97150484 -122.57226562 44.04833984 C-104.82877196 31.88122858 -79.39100748 21.89659559 -57.85546875 20.87109375 C-57.70851562 20.31421875 -57.5615625 19.75734375 -57.41015625 19.18359375 C-54.2853126 8.55194181 -48.13420617 2.15583497 -38.71875 -3.38671875 C-26.1194693 -9.50453587 -11.57227492 -7.04081569 0 0 Z M-32.85546875 22.87109375 C-34.46976798 26.09969222 -34.45117532 29.38103028 -33.85546875 32.87109375 C-32.1194477 35.8961752 -30.01966738 38.28899444 -26.85546875 39.87109375 C-21.73176477 40.4783822 -21.73176477 40.4783822 -17.03125 38.82421875 C-13.22794131 35.6931656 -11.96883508 34.00475707 -11.48046875 29.12109375 C-11.504881 25.77051307 -12.09945521 24.02214843 -14.23046875 21.43359375 C-17.76032735 17.9877794 -19.78383395 17.47553539 -24.75 17.51171875 C-28.47140328 18.14691189 -30.25859724 20.21088391 -32.85546875 22.87109375 Z M-109.60546875 65.12109375 C-110.32710205 65.52102539 -111.04873535 65.92095703 -111.79223633 66.33300781 C-115.57560209 68.57166737 -115.57560209 68.57166737 -117.8203125 72.22265625 C-117.86366648 75.48865637 -117.79403807 78.73192055 -117.66796875 81.99609375 C-117.52966121 93.0110138 -120.55464967 100.6721461 -128.21484375 108.63671875 C-137.14439135 116.19248979 -146.4973427 118.32965163 -157.85546875 117.87109375 C-160.21882294 117.62805378 -162.51288182 117.27850017 -164.85546875 116.87109375 C-169.82181819 123.56672407 -173.88037636 130.3271957 -177.41796875 137.87109375 C-177.88904053 138.86858643 -178.3601123 139.8660791 -178.84545898 140.89379883 C-184.64740664 153.42684591 -189.28668696 166.07663321 -190.85546875 179.87109375 C-190.27539062 180.29519531 -189.6953125 180.71929687 -189.09765625 181.15625 C-180.27467491 187.78076569 -174.29806224 193.78336601 -171.85546875 204.87109375 C-170.59539499 216.90608395 -172.38488646 227.50577907 -180.0625 237.078125 C-183.25364285 240.26926785 -186.97848875 242.59659882 -190.85546875 244.87109375 C-188.5604387 264.87064132 -179.31954312 291.47422039 -165.85546875 306.87109375 C-162.71150391 308.33053239 -159.37396012 307.87197922 -155.96606445 307.75488281 C-148.10711124 307.50427515 -141.86147093 307.92424262 -134.85546875 311.87109375 C-133.78296875 312.46921875 -132.71046875 313.06734375 -131.60546875 313.68359375 C-124.43117335 319.39041963 -119.57658969 326.76419168 -117.85546875 335.87109375 C-117.7621945 337.99445454 -117.72551443 340.12069107 -117.73046875 342.24609375 C-117.72660156 343.89738281 -117.72660156 343.89738281 -117.72265625 345.58203125 C-117.85102538 348.76105491 -118.2611988 351.7488183 -118.85546875 354.87109375 C-99.09248422 367.01477917 -79.41552919 375.41317266 -56.85546875 380.87109375 C-54.65899423 378.72713213 -52.94716835 376.60352561 -51.23046875 374.05859375 C-46.03537798 367.08049652 -38.41174346 362.46791018 -29.85546875 360.87109375 C-18.10765088 359.80714043 -8.73660145 361.72982939 0.8046875 368.75390625 C4.68262119 372.2628212 7.44177332 376.42317756 10.14453125 380.87109375 C32.95581961 375.26745118 53.04191879 367.05449524 73.14453125 354.87109375 C72.98726563 354.37609375 72.83 353.88109375 72.66796875 353.37109375 C70.40918494 342.58287255 71.45755895 331.38676008 77.14453125 321.87109375 C78.13636839 320.86299698 79.13421521 319.86067017 80.14453125 318.87109375 C80.14453125 318.21109375 80.14453125 317.55109375 80.14453125 316.87109375 C80.99917969 316.4534375 80.99917969 316.4534375 81.87109375 316.02734375 C84.88921246 314.49235554 87.80133561 312.78729193 90.73046875 311.08984375 C96.45699486 308.19878202 100.41280919 307.85632218 106.68286133 308.46118164 C114.61522137 309.27197581 114.61522137 309.27197581 121.8671875 306.68164062 C124.88240102 303.28415644 126.58543299 299.24118723 128.25146484 295.05615234 C129.12893297 292.90925793 130.12314039 290.88374811 131.1953125 288.828125 C138.28942642 275.04167005 143.41821086 260.12995549 146.14453125 244.87109375 C145.51522705 244.49315674 144.88592285 244.11521973 144.23754883 243.72583008 C135.77010308 238.5540242 130.9528726 232.36950742 127.83984375 222.92578125 C125.36528928 212.05442397 126.85547562 201.83130808 132.6875 192.3671875 C136.42197552 187.17994118 140.47997162 183.79900899 146.14453125 180.87109375 C142.24491918 161.29606738 135.2199064 143.11437533 125.25219727 125.81054688 C124.22396164 124.01017134 123.27988726 122.16243718 122.34375 120.3125 C120.28292996 117.45184993 120.28292996 117.45184993 116.4921875 117.64453125 C115.06087241 117.8229426 113.63234184 118.02477223 112.20703125 118.24609375 C102.06081686 119.31365951 93.67637057 117.72909552 85.20703125 111.68359375 C77.4171255 104.96569337 72.70147579 96.34858995 71.93359375 86.0390625 C71.86297987 80.87718819 72.3639116 75.97659809 73.14453125 70.87109375 C53.70814479 58.35725589 33.09425609 48.87138891 10.14453125 44.87109375 C9.75523437 45.51175781 9.3659375 46.15242188 8.96484375 46.8125 C2.89546135 56.19626865 -4.18126654 61.96541563 -15.2109375 64.43359375 C-25.36481316 66.11340774 -35.7442371 64.11503203 -44.29296875 58.12109375 C-48.66281481 54.49189956 -52.31199669 49.95803788 -54.85546875 44.87109375 C-73.02706148 44.87109375 -94.17612462 56.37763427 -109.60546875 65.12109375 Z M-160.85546875 73.87109375 C-163.57594456 76.59156956 -164.67647372 79.02270066 -164.85546875 82.87109375 C-163.25370012 87.94336107 -161.57005003 91.25188193 -156.85546875 93.87109375 C-151.71065316 94.62108834 -151.71065316 94.62108834 -147.04296875 92.8125 C-144.86177748 91.04552534 -143.11894718 89.3980506 -141.85546875 86.87109375 C-141.35646194 81.88102564 -141.26814127 79.83217508 -143.91796875 75.49609375 C-149.72621253 70.30574824 -154.14824654 70.00154247 -160.85546875 73.87109375 Z M99.14453125 73.87109375 C96.18437738 77.21320296 95.56267683 80.40753066 95.71484375 84.87109375 C96.49057618 88.4817756 98.53505307 90.323746 101.14453125 92.87109375 C104.38373552 94.49069588 107.64331327 94.43727584 111.14453125 93.87109375 C115.07666584 91.46812261 116.77195188 89.67586519 118.70703125 85.49609375 C119.25262845 80.97543126 118.40432405 78.78806794 116.14453125 74.87109375 C110.97646105 69.52481423 105.21104012 70.4372208 99.14453125 73.87109375 Z M154.14453125 203.87109375 C153.56703125 204.26296875 152.98953125 204.65484375 152.39453125 205.05859375 C150.33353008 208.04704544 150.0197266 211.32802848 150.14453125 214.87109375 C151.58514303 218.11247025 153.4172234 220.5983372 156.14453125 222.87109375 C159.75025829 224.07300276 162.35477475 224.1977969 166.14453125 223.87109375 C169.55371909 221.74982131 171.9272243 219.74434312 173.14453125 215.87109375 C173.5974818 210.88863771 173.31903655 207.81185894 170.14453125 203.87109375 C167.38569794 201.70876494 165.62911022 200.93166612 162.14453125 200.49609375 C158.71504112 200.92478002 156.92106946 201.84497127 154.14453125 203.87109375 Z M-216.85546875 206.87109375 C-218.46976798 210.09969222 -218.45117532 213.38103028 -217.85546875 216.87109375 C-216.1194477 219.8961752 -214.01966738 222.28899444 -210.85546875 223.87109375 C-205.73176477 224.4783822 -205.73176477 224.4783822 -201.03125 222.82421875 C-197.22794131 219.6931656 -195.96883508 218.00475707 -195.48046875 213.12109375 C-195.504881 209.77051307 -196.09945521 208.02214843 -198.23046875 205.43359375 C-201.76032735 201.9877794 -203.78383395 201.47553539 -208.75 201.51171875 C-212.47140328 202.14691189 -214.25859724 204.21088391 -216.85546875 206.87109375 Z M-162.85546875 336.87109375 C-164.84742218 341.17371315 -165.0993958 343.0580036 -163.73046875 347.62109375 C-161.26216791 351.89948188 -159.66784315 353.31950154 -154.98046875 354.74609375 C-149.9488856 354.94735708 -147.10658013 353.02343318 -143.48046875 349.68359375 C-141.37685288 346.04272012 -140.9132793 342.92488364 -141.85546875 338.87109375 C-143.6169531 335.85512055 -145.68287753 333.45738936 -148.85546875 331.87109375 C-155.328543 331.22378633 -158.30428057 331.77809746 -162.85546875 336.87109375 Z M97.14453125 336.87109375 C95.52492912 340.11029802 95.57834916 343.36987577 96.14453125 346.87109375 C98.54750239 350.80322834 100.33975981 352.49851438 104.51953125 354.43359375 C109.04019374 354.97919095 111.22755706 354.13088655 115.14453125 351.87109375 C118.20178366 348.91574975 118.97578703 346.0896992 119.14453125 341.87109375 C117.47862956 337.24358905 115.42223276 334.34265462 111.14453125 331.87109375 C104.43987552 330.91328579 101.82593152 332.07551299 97.14453125 336.87109375 Z M-32.85546875 390.87109375 C-34.46976798 394.09969222 -34.45117532 397.38103028 -33.85546875 400.87109375 C-32.1194477 403.8961752 -30.01966738 406.28899444 -26.85546875 407.87109375 C-21.73176477 408.4783822 -21.73176477 408.4783822 -17.03125 406.82421875 C-13.22794131 403.6931656 -11.96883508 402.00475707 -11.48046875 397.12109375 C-11.504881 393.77051307 -12.09945521 392.02214843 -14.23046875 389.43359375 C-17.76032735 385.9877794 -19.78383395 385.47553539 -24.75 385.51171875 C-28.47140328 386.14691189 -30.25859724 388.21088391 -32.85546875 390.87109375 Z " fill="#55B2F0" transform="translate(278.85546875,43.12890625)"/>
<path d="M0 0 C1.73202673 1.02449947 3.46406664 2.04897748 5.19689941 3.07211304 C6.98946025 4.13263059 8.7785551 5.19882513 10.56738281 6.265625 C15.05820447 8.93691863 19.59014398 11.53568583 24.12304688 14.13476562 C28.41168161 16.59461317 32.68955516 19.07287526 36.96777344 21.55078125 C39.08851769 22.7761293 41.21160625 23.99742815 43.33691406 25.21484375 C46.39658452 26.96753456 49.44888549 28.73246832 52.5 30.5 C53.41555664 31.02029785 54.33111328 31.5405957 55.27441406 32.07666016 C56.54236816 32.81601807 56.54236816 32.81601807 57.8359375 33.5703125 C58.57118652 33.99328613 59.30643555 34.41625977 60.06396484 34.85205078 C63.16312895 37.14209884 65.73763301 39.37217945 66.50019073 43.31486511 C66.65275016 45.70995046 66.67683892 48.07637797 66.65844727 50.47631836 C66.66706284 51.38424637 66.67567841 52.29217438 66.68455505 53.22761536 C66.70722522 56.22364961 66.70047393 59.21874925 66.69140625 62.21484375 C66.69664155 64.30082985 66.70291769 66.38681358 66.71018982 68.47279358 C66.72059613 72.8432225 66.71602939 77.21332587 66.70141602 81.58374023 C66.68423259 87.18055347 66.70771728 92.77633967 66.74290562 98.37303829 C66.76488175 102.68053472 66.76343749 106.98778553 66.7551403 111.29532051 C66.75432082 113.3585682 66.76118366 115.42183393 66.77591133 117.48502922 C66.79335984 120.37208772 66.77881177 123.2573023 66.75610352 126.14428711 C66.77364182 127.41860092 66.77364182 127.41860092 66.79153442 128.71865845 C66.72502128 132.88140738 66.40734157 135.54866228 63.74066162 138.84291077 C61.24260101 141.26115644 59.06330099 142.8937742 56.01171875 144.53125 C55.02357178 145.07136719 54.0354248 145.61148438 53.01733398 146.16796875 C51.95973877 146.73128906 50.90214355 147.29460937 49.8125 147.875 C47.54582306 149.11265872 45.28022384 150.35229296 43.015625 151.59375 C41.28989258 152.53541016 41.28989258 152.53541016 39.52929688 153.49609375 C34.32287541 156.36963216 29.19099406 159.36521266 24.0625 162.375 C23.08949951 162.9424292 22.11649902 163.5098584 21.11401367 164.09448242 C15.90760861 167.13523585 10.72654764 170.21338176 5.56640625 173.33203125 C4.48818604 173.97720703 3.40996582 174.62238281 2.29907227 175.28710938 C0.2392345 176.52038198 -1.81412175 177.76457015 -3.85961914 179.02148438 C-9.30777418 182.26883501 -13.45849726 184.50199328 -19.875 184.375 C-22.525513 183.52448533 -24.48068822 182.69719555 -26.875 181.375 C-27.63925293 180.96427246 -28.40350586 180.55354492 -29.19091797 180.13037109 C-31.91585586 178.6374613 -34.61539868 177.10511235 -37.3125 175.5625 C-38.31676025 174.99136475 -39.32102051 174.42022949 -40.35571289 173.83178711 C-49.52909426 168.60155655 -58.65566669 163.29173934 -67.76171875 157.9453125 C-72.0174482 155.44974115 -76.2927297 152.99208636 -80.58203125 150.5546875 C-81.67717041 149.92812256 -82.77230957 149.30155762 -83.90063477 148.65600586 C-85.99940066 147.45605271 -88.10255927 146.26373957 -90.21069336 145.08032227 C-91.1569458 144.53690186 -92.10319824 143.99348145 -93.078125 143.43359375 C-93.90989258 142.96236084 -94.74166016 142.49112793 -95.59863281 142.00561523 C-98.80936564 139.70569196 -101.47110064 137.48672467 -102.24649429 133.43270016 C-102.39573929 131.03287243 -102.41539794 128.6622381 -102.39257812 126.2578125 C-102.3995874 125.3482782 -102.40659668 124.4387439 -102.41381836 123.50164795 C-102.43139647 120.50078634 -102.41977611 117.50087089 -102.40625 114.5 C-102.40894496 112.41161926 -102.41282742 110.32323973 -102.41784668 108.23486328 C-102.42374149 103.86022991 -102.41517914 99.48592347 -102.39648438 95.11132812 C-102.37369506 89.50556414 -102.3868182 83.9005662 -102.41077423 78.29483032 C-102.42523254 73.98309565 -102.42062602 69.6715424 -102.41026306 65.35980225 C-102.40759588 63.29294748 -102.41086523 61.22607621 -102.42018127 59.15924072 C-102.43034719 56.26977951 -102.41484489 53.38155655 -102.39257812 50.4921875 C-102.40067505 49.63904968 -102.40877197 48.78591187 -102.41711426 47.90692139 C-102.35993312 43.89903426 -102.19136011 41.87383583 -99.99639893 38.41282654 C-97.67708446 36.18488133 -95.44590071 34.66988443 -92.640625 33.09765625 C-91.08577393 32.21484985 -91.08577393 32.21484985 -89.49951172 31.31420898 C-88.38592285 30.69489502 -87.27233398 30.07558105 -86.125 29.4375 C-84.95393303 28.77598235 -83.78353249 28.1132837 -82.61376953 27.44946289 C-80.20905315 26.08541101 -77.80205982 24.72551352 -75.39355469 23.36816406 C-70.1471808 20.40438028 -64.94944514 17.35761749 -59.75 14.3125 C-58.78384766 13.74901855 -57.81769531 13.18553711 -56.82226562 12.60498047 C-51.59921867 9.55878149 -46.38544746 6.49752758 -41.1796875 3.421875 C-39.53444092 2.45326538 -39.53444092 2.45326538 -37.85595703 1.46508789 C-35.74771747 0.22362568 -33.64180607 -1.02180122 -31.53857422 -2.27172852 C-30.59256348 -2.82787842 -29.64655273 -3.38402832 -28.671875 -3.95703125 C-27.84010742 -4.44921143 -27.00833984 -4.9413916 -26.15136719 -5.44848633 C-16.39420777 -10.49135969 -8.44985344 -5.11385028 0 0 Z M-25.28515625 23.26953125 C-26.34943848 23.89077881 -27.4137207 24.51202637 -28.51025391 25.15209961 C-29.64124512 25.82378174 -30.77223633 26.49546387 -31.9375 27.1875 C-33.10285375 27.87137532 -34.26871045 28.55439427 -35.43505859 29.23657227 C-37.7883727 30.61428739 -40.13909422 31.99626809 -42.48779297 33.38183594 C-47.30959698 36.21917254 -52.15435381 39.0161554 -57 41.8125 C-58.54446476 42.70669637 -60.08875707 43.60119075 -61.6328125 44.49609375 C-62.70273438 45.11613281 -63.77265625 45.73617187 -64.875 46.375 C-61.8411053 48.75110337 -58.69925947 50.71340907 -55.359375 52.6328125 C-54.28010742 53.25486572 -53.20083984 53.87691895 -52.08886719 54.51782227 C-49.75662995 55.85243138 -47.42405687 57.18642834 -45.09082031 58.51928711 C-44.2155368 59.01940056 -44.2155368 59.01940056 -43.3225708 59.52961731 C-41.57973971 60.5253071 -39.83674566 61.52071162 -38.09375 62.51611328 C-35.31163247 64.1228368 -32.55658263 65.76311088 -29.8125 67.43359375 C-29.09094727 67.86462402 -28.36939453 68.2956543 -27.62597656 68.73974609 C-26.33176266 69.5144427 -25.04642682 70.30425501 -23.77246094 71.11181641 C-20.82481768 72.84920772 -19.40848802 73.51105366 -16.03369141 72.65039062 C-12.89051164 71.38126316 -10.08669902 69.92886933 -7.1640625 68.21484375 C-5.554104 67.27717163 -5.554104 67.27717163 -3.91162109 66.32055664 C-2.78578613 65.65789795 -1.65995117 64.99523926 -0.5 64.3125 C1.24692148 63.29243718 2.9949932 62.27436568 4.74313354 61.25639343 C6.46677149 60.25244087 8.18944568 59.24683428 9.91210938 58.24121094 C14.1699944 55.76801389 18.45315729 53.34222425 22.75 50.9375 C23.41177246 50.56681396 24.07354492 50.19612793 24.75537109 49.81420898 C26.2111796 48.999825 27.66795069 48.18716193 29.125 47.375 C25.79913187 44.59818196 22.49093165 42.3224032 18.6953125 40.23828125 C17.65914795 39.66480957 16.6229834 39.09133789 15.55541992 38.50048828 C13.91923706 37.60305908 13.91923706 37.60305908 12.25 36.6875 C4.23159784 32.25888282 -3.74479275 27.81024696 -11.45849609 22.86450195 C-16.9158834 19.45958467 -19.92886531 20.11242159 -25.28515625 23.26953125 Z M-77.875 68.375 C-78.20553805 75.91770198 -78.43261739 83.45853156 -78.58911133 91.00683594 C-78.65435752 93.57199873 -78.74298237 96.13668034 -78.85571289 98.70019531 C-80.05518918 111.84580745 -80.05518918 111.84580745 -76.79071045 124.21224976 C-73.96941638 127.06848814 -70.5123819 128.41240189 -66.76522827 129.67303467 C-63.50044455 130.8854623 -60.62743147 132.75560918 -57.65625 134.55078125 C-56.44760983 135.24425381 -55.23666074 135.93371768 -54.0234375 136.61914062 C-53.42370117 136.95921143 -52.82396484 137.29928223 -52.20605469 137.6496582 C-51.60180664 137.992146 -50.99755859 138.33463379 -50.375 138.6875 C-48.51621095 139.74354208 -46.65779634 140.80023781 -44.79968262 141.85746765 C-43.13600568 142.80370042 -41.47135549 143.74822141 -39.80664062 144.69262695 C-37.88966965 145.79271414 -35.99111644 146.925707 -34.11523438 148.09448242 C-32.01567077 149.54041701 -32.01567077 149.54041701 -29.875 149.375 C-29.31312598 141.92626008 -28.93052878 134.48300546 -28.66650391 127.01782227 C-28.5564229 124.4854749 -28.40666317 121.9545093 -28.21533203 119.42700195 C-26.74484282 105.43127895 -26.74484282 105.43127895 -31.8918457 93.02279663 C-37.12853758 88.82857078 -42.99701867 86.11881236 -49.15765381 83.54556274 C-52.73882611 82.00288596 -55.89434437 80.10367478 -59.203125 78.04296875 C-61.17681135 76.88234985 -63.15075497 75.72216832 -65.125 74.5625 C-66.15367187 73.95341797 -67.18234375 73.34433594 -68.2421875 72.71679688 C-69.21929687 72.14380859 -70.19640625 71.57082031 -71.203125 70.98046875 C-72.0580957 70.47668701 -72.91306641 69.97290527 -73.79394531 69.45385742 C-75.78024987 68.22158425 -75.78024987 68.22158425 -77.875 68.375 Z M35.5703125 71.48828125 C34.99529999 71.81732956 34.42028748 72.14637787 33.82785034 72.48539734 C31.96741144 73.55076285 30.10871794 74.61913538 28.25 75.6875 C26.46723867 76.70869575 24.68417567 77.72926626 22.89866638 78.74565125 C21.66373211 79.45832302 20.43679294 80.18500461 19.21766663 80.9243927 C15.55746527 83.11807076 11.9703659 84.86980223 7.98217773 86.39916992 C2.67475971 88.60706419 -2.24712962 90.77067369 -5.875 95.375 C-8.94406407 104.1669079 -7.65464848 113.94270775 -7.0625 123.0625 C-6.96710234 125.61361811 -6.88042596 128.16507817 -6.80273438 130.71679688 C-6.59420928 136.94370481 -6.27726906 143.15776102 -5.875 149.375 C2.44903788 145.2843429 10.65548144 141.08365594 18.6875 136.4375 C19.51701172 135.96376953 20.34652344 135.49003906 21.20117188 135.00195312 C22.9231789 134.01249079 24.62698928 132.99076036 26.31225586 131.93994141 C29.125 130.375 29.125 130.375 32.64282227 129.18115234 C36.65857741 127.53808229 39.82898704 126.11632798 42.125 122.375 C44.36676451 113.49765382 43.33563326 103.92863127 42.9375 94.875 C42.872259 92.31004134 42.81294896 89.7449245 42.75976562 87.1796875 C42.61682033 80.9079983 42.39964399 74.64222928 42.125 68.375 C39.91005584 68.375 37.38953678 70.44510439 35.5703125 71.48828125 Z " fill="#5BBBF3" transform="translate(273.875,167.625)"/>
</svg>
