<?xml version="1.0" encoding="UTF-8"?>
<svg version="1.1" xmlns="http://www.w3.org/2000/svg" width="512" height="512">
<path d="M0 0 C0.95734004 -0.00384115 1.91468008 -0.00768229 2.90103042 -0.01163983 C4.48198649 -0.01034011 4.48198649 -0.01034011 6.09488106 -0.00901413 C7.77177425 -0.01347081 7.77177425 -0.01347081 9.48254406 -0.01801753 C13.2481161 -0.02672537 17.01365642 -0.02821453 20.77923775 -0.02970505 C23.47104227 -0.03433169 26.16284387 -0.03933536 28.85464668 -0.04475021 C36.18101572 -0.05833627 43.50737929 -0.06435853 50.83375883 -0.06876087 C55.40699791 -0.07152253 59.98023487 -0.07575972 64.55347252 -0.08026505 C77.21180972 -0.0924575 89.87014522 -0.10275723 102.52848816 -0.10614014 C103.33875047 -0.1063597 104.14901278 -0.10657927 104.98382849 -0.10680549 C105.79604264 -0.10702377 106.6082568 -0.10724204 107.4450835 -0.10746694 C109.09097346 -0.1079104 110.73686342 -0.10835697 112.38275337 -0.10880661 C113.19917376 -0.10902804 114.01559415 -0.10924947 114.85675456 -0.10947761 C128.09019109 -0.11342691 141.3235726 -0.13088507 154.55698787 -0.15416613 C168.13872823 -0.17786747 181.72044096 -0.19034141 195.30220234 -0.19150805 C202.92984076 -0.19242544 210.55740748 -0.19819382 218.18502617 -0.21632767 C224.67911683 -0.23171216 231.17311362 -0.23685889 237.66721903 -0.22858956 C240.9812768 -0.2246773 244.29510546 -0.22726585 247.60914803 -0.23964691 C251.20042275 -0.25227958 254.79120801 -0.24653661 258.38247871 -0.23606491 C259.43198798 -0.24412132 260.48149725 -0.25217772 261.56280982 -0.26047826 C267.84175266 -0.21749138 271.46708565 0.43275181 276.17816353 4.81892776 C277.96973955 8.30778634 277.56028295 11.23903924 277.36566353 15.13142776 C277.94574165 15.14560745 278.52581978 15.15978714 279.12347603 15.17439651 C285.21156651 15.54611161 288.13958301 16.69404322 292.36566353 21.13142776 C293.64884245 24.98096453 293.4320999 28.07880911 293.36566353 32.13142776 C293.94574165 32.07341995 294.52581978 32.01541214 295.12347603 31.95564651 C299.47445729 31.70435222 302.41546599 31.63687323 305.86566353 34.50642776 C309.08361145 37.88527308 309.49269108 39.23949896 309.42816353 43.75642776 C309.41914009 44.57369339 309.41011665 45.39095901 309.40081978 46.23299026 C309.38341743 47.17271683 309.38341743 47.17271683 309.36566353 48.13142776 C311.19097603 48.03861526 311.19097603 48.03861526 313.05316353 47.94392776 C316.98028507 47.95086614 319.23153326 48.62412355 322.36566353 51.13142776 C325.26715715 54.30617442 325.74379452 56.39539593 325.76007271 60.65922928 C325.7714225 61.78355362 325.78277229 62.90787796 325.79446602 64.06627274 C325.79153542 65.29546432 325.78860481 66.52465591 325.7855854 67.79109573 C325.79405495 69.08902054 325.80252449 70.38694534 325.81125069 71.7242012 C325.83346812 75.28216221 325.83639723 78.83989164 325.83450317 82.3979125 C325.83438347 85.37002114 325.84294787 88.34208073 325.85128069 91.31417572 C325.87051614 98.32767454 325.87339833 105.34105433 325.86664009 112.3545723 C325.86000113 119.5847189 325.88285698 126.8143551 325.91995382 134.04439819 C325.95066625 140.25601606 325.96200915 146.46746988 325.95811701 152.67916214 C325.95605081 156.38728273 325.96150783 160.09500626 325.9860096 163.80305481 C326.01244237 167.94003617 325.99853729 172.07594258 325.9808979 176.21297073 C325.99416115 177.43811386 326.00742439 178.66325699 326.02108955 179.92552567 C325.92930128 189.1787406 325.92930128 189.1787406 323.01471138 192.87633133 C319.53709641 195.83677507 317.14404806 196.25621647 312.73132706 196.26285553 C311.295317 196.26861725 311.295317 196.26861725 309.83029664 196.27449536 C308.24934057 196.27319564 308.24934057 196.27319564 306.636446 196.27186966 C305.51851721 196.27484078 304.40058841 196.2778119 303.24878299 196.28087306 C299.48321096 196.2895809 295.71767063 196.29107006 291.95208931 196.29256058 C289.26028479 196.29718722 286.56848319 196.30219089 283.87668037 196.30760574 C276.55031134 196.3211918 269.22394777 196.32721406 261.89756823 196.3316164 C257.32432915 196.33437806 252.75109219 196.33861525 248.17785454 196.34312057 C235.51951734 196.35531303 222.86118184 196.36561276 210.2028389 196.36899567 C208.98744543 196.36932502 208.98744543 196.36932502 207.74749856 196.36966102 C206.93528441 196.3698793 206.12307026 196.37009757 205.28624356 196.37032247 C203.6403536 196.37076593 201.99446364 196.3712125 200.34857368 196.37166214 C199.53215329 196.37188357 198.7157329 196.372105 197.8745725 196.37233314 C184.64113597 196.37628244 171.40775446 196.3937406 158.17433919 196.41702166 C144.59259883 196.440723 131.01088609 196.45319694 117.42912471 196.45436358 C109.80148629 196.45528097 102.17391958 196.46104935 94.54630089 196.4791832 C88.05221023 196.49456769 81.55821344 196.49971442 75.06410803 196.49144509 C71.75005026 196.48753282 68.4362216 196.49012138 65.12217903 196.50250244 C61.53090431 196.51513511 57.94011905 196.50939214 54.34884834 196.49892044 C53.29933908 196.50697685 52.24982981 196.51503325 51.16851723 196.52333379 C44.88821105 196.48033758 41.32944815 195.78861398 36.55316353 191.50642776 C34.713994 187.82808871 35.13272201 184.16908081 35.36566353 180.13142776 C34.33441353 180.19330276 33.30316353 180.25517776 32.24066353 180.31892776 C27.37984269 180.08372676 24.2865685 178.72114223 20.55316353 175.63142776 C17.59163033 171.89054372 18.29191998 167.62978409 18.36566353 163.13142776 C17.49554634 163.21843948 17.49554634 163.21843948 16.60785103 163.30720901 C12.29657321 163.55621021 9.31227114 163.62665201 5.86566353 160.81892776 C2.0190869 156.68385789 2.26259809 153.59389605 2.36566353 148.13142776 C1.31378853 148.19330276 0.26191353 148.25517776 -0.82183647 148.31892776 C-5.6194781 148.08297818 -8.0282 146.88457673 -11.2503109 143.36754036 C-12.97291438 140.58440152 -13.01629727 138.86429601 -13.02874565 135.60362625 C-13.04009544 134.47930191 -13.05144524 133.35497757 -13.06313896 132.19658279 C-13.06020836 130.9673912 -13.05727776 129.73819962 -13.05425835 128.4717598 C-13.06272789 127.17383499 -13.07119743 125.87591019 -13.07992363 124.53865433 C-13.10214107 120.98069332 -13.10507018 117.42296388 -13.10317612 113.86494303 C-13.10305641 110.89283438 -13.11162081 107.9207748 -13.11995363 104.9486798 C-13.13918908 97.93518099 -13.14207128 90.9218012 -13.13531303 83.90828323 C-13.12867407 76.67813663 -13.15152992 69.44850043 -13.18862677 62.21845734 C-13.21933919 56.00683947 -13.23068209 49.79538565 -13.22678995 43.58369339 C-13.22472375 39.8755728 -13.23018078 36.16784927 -13.25468254 32.45980072 C-13.28111531 28.32281936 -13.26721023 24.18691295 -13.24957085 20.0498848 C-13.26283409 18.82474167 -13.27609734 17.59959854 -13.2897625 16.33732986 C-13.19797422 7.08411493 -13.19797422 7.08411493 -10.28338432 3.3865242 C-6.80576935 0.42608046 -4.412721 0.00663906 0 0 Z " fill="#39C289" transform="translate(99.63433647155762,157.86857223510742)"/>
<path d="M0 0 C8.31391055 7.82626563 16.00794754 15.95745493 23 25 C23.82884603 26.04993813 24.65829714 27.0993988 25.48828125 28.1484375 C31.03255643 35.20555285 36.13282552 42.45452 41 50 C41.4125 49.60167969 41.825 49.20335938 42.25 48.79296875 C48.35909504 43.1884195 54.2879454 40.32883817 62.69921875 40.6484375 C71.09046941 41.930632 76.20262574 46.44657864 81.3125 52.9375 C85.07732825 60.28622026 83.79522523 68.78465079 81.49633789 76.38452148 C79.81489265 81.4999832 77.96648012 86.54954148 76.06640625 91.58740234 C74.8754972 94.74868017 73.72043377 97.92134094 72.5703125 101.09765625 C71.81716828 103.14399004 71.06202674 105.18959006 70.3046875 107.234375 C69.96380096 108.16691101 69.62291443 109.09944702 69.271698 110.0602417 C65.9257762 118.87080891 62.41504864 127.37223159 53.9296875 132.16015625 C44.66993434 136.19021076 36.14534893 133.4516097 27.125 130.125 C26.00746338 129.72224854 24.88992676 129.31949707 23.73852539 128.90454102 C21.372264 128.049367 19.0081221 127.18830852 16.64599609 126.32177734 C12.98130289 124.99322177 9.30090171 123.72039626 5.61328125 122.45703125 C3.22096641 121.61829267 0.82902769 120.7784804 -1.5625 119.9375 C-2.67286621 119.56318848 -3.78323242 119.18887695 -4.92724609 118.80322266 C-13.44119956 115.74276996 -20.07953042 111.51345299 -25.0625 103.8125 C-26.94030438 96.17609551 -27.55006364 87.69659289 -23.40234375 80.71484375 C-19.76880902 76.27160769 -14.59465195 72.43452614 -9 71 C-6.66680011 70.97504599 -4.3331745 70.97277509 -2 71 C-9.76383596 59.45519427 -17.93085699 48.66904461 -28 39 C-33 34 -33 34 -34.40234375 32.4921875 C-40.01357775 26.59284613 -46.43697749 21.77491527 -53 17 C-53.55655273 16.59378418 -54.11310547 16.18756836 -54.68652344 15.76904297 C-82.81459993 -4.48938283 -116.5271048 -17.34442788 -151 -21 C-152.01449219 -21.11085937 -153.02898437 -21.22171875 -154.07421875 -21.3359375 C-204.98650376 -26.06305054 -258.91895536 -11.84469548 -298.98828125 20.47265625 C-299.98214844 21.30667969 -300.97601563 22.14070313 -302 23 C-302.57153809 23.4729248 -303.14307617 23.94584961 -303.73193359 24.43310547 C-332.31037872 48.11106769 -354.25521869 78.38686851 -366.73022461 113.47924805 C-370.09140845 122.90219728 -373.73144934 128.86572467 -383 133.5 C-391.10628231 134.85104705 -397.75756775 134.1754839 -405 130 C-410.90363175 125.10097785 -413.45496464 118.88337694 -414.5 111.4375 C-412.85709959 79.67475869 -386.05380112 43.2416512 -366 20 C-365.03126953 18.86498047 -365.03126953 18.86498047 -364.04296875 17.70703125 C-352.52176153 4.55567233 -340.1272337 -7.68094178 -326 -18 C-324.84894983 -18.85806152 -323.69790823 -19.71613451 -322.546875 -20.57421875 C-314.35760728 -26.6109578 -305.84774626 -31.98437059 -297 -37 C-296.34161133 -37.37511719 -295.68322266 -37.75023438 -295.00488281 -38.13671875 C-283.73574784 -44.49561436 -272.1211925 -49.49952089 -260 -54 C-259.27796387 -54.27440918 -258.55592773 -54.54881836 -257.81201172 -54.83154297 C-169.60902225 -88.03858231 -68.06872781 -62.81442773 0 0 Z " fill="#F9A615" transform="translate(429,73)"/>
<path d="M0 0 C1.67630493 0.6041272 1.67630493 0.6041272 3.38647461 1.22045898 C5.752736 2.075633 8.1168779 2.93669148 10.47900391 3.80322266 C14.14369711 5.13177823 17.82409829 6.40460374 21.51171875 7.66796875 C23.90403359 8.50670733 26.29597231 9.3465196 28.6875 10.1875 C30.35304932 10.74896729 30.35304932 10.74896729 32.05224609 11.32177734 C40.56619956 14.38223004 47.20453042 18.61154701 52.1875 26.3125 C53.97972578 33.60088483 54.56281417 41.16004093 51.1875 48.0625 C47.65648065 53.55632093 42.258008 57.080664 36.125 59.125 C33.79200175 59.16454234 31.45791811 59.16901732 29.125 59.125 C36.88883596 70.66980573 45.05585699 81.45595539 55.125 91.125 C60.125 96.125 60.125 96.125 61.52734375 97.6328125 C94.85939327 132.67628754 147.99091739 151.00003517 195.40625 152.25 C243.39378667 153.10881474 292.07735542 138.21426854 329.125 107.125 C329.69653809 106.6520752 330.26807617 106.17915039 330.85693359 105.69189453 C359.43537872 82.01393231 381.38021869 51.73813149 393.85522461 16.64575195 C397.21640845 7.22280272 400.85644934 1.25927533 410.125 -3.375 C418.23128231 -4.72604705 424.88256775 -4.0504839 432.125 0.125 C438.02863175 5.02402215 440.57996464 11.24162306 441.625 18.6875 C441.0310192 31.43333793 433.45846373 44.77416667 428.125 56.125 C427.80128418 56.81770996 427.47756836 57.51041992 427.14404297 58.22412109 C419.3243571 74.81362242 409.46027893 89.73541889 398.125 104.125 C397.70202637 104.66656738 397.27905273 105.20813477 396.84326172 105.76611328 C384.31479609 121.65819413 369.5272632 136.27379413 353.125 148.125 C351.97725242 148.97834392 350.83012638 149.83252439 349.68359375 150.6875 C341.49284635 156.73165925 332.97751126 162.1066694 324.125 167.125 C323.13741699 167.68767578 323.13741699 167.68767578 322.12988281 168.26171875 C310.8652514 174.61807312 299.25170659 179.64923531 287.125 184.125 C286.37105957 184.40472656 285.61711914 184.68445313 284.84033203 184.97265625 C260.24776965 193.96477003 234.24897414 198.27457561 208.125 199.125 C207.05378906 199.16625 205.98257812 199.2075 204.87890625 199.25 C142.28740274 200.4757822 80.88948911 177.51282325 34.125 136.125 C33.24328125 135.35414063 32.3615625 134.58328125 31.453125 133.7890625 C21.79704925 125.24253583 13.13715158 116.22791376 5.125 106.125 C4.48046875 105.34769531 3.8359375 104.57039063 3.171875 103.76953125 C-3.02644261 96.24840196 -8.42773548 88.19576325 -13.875 80.125 C-14.32883057 80.53637207 -14.78266113 80.94774414 -15.25024414 81.37158203 C-21.35140585 86.77530686 -27.47790627 89.8434103 -35.83203125 89.4765625 C-44.0792845 88.0573411 -49.14413641 83.59393483 -54.1875 77.1875 C-58.00826884 69.69458059 -56.65877988 61.23217702 -54.26147461 53.52075195 C-52.45625219 48.1562319 -50.48334618 42.85859065 -48.45922852 37.57324219 C-47.18562258 34.24509398 -45.94670425 30.90557889 -44.71289062 27.5625 C-43.91083979 25.41852697 -43.10686898 23.27527101 -42.30078125 21.1328125 C-41.93285965 20.14620636 -41.56493805 19.15960022 -41.18586731 18.14309692 C-35.28008577 2.80060457 -35.28008577 2.80060457 -28.8125 -0.8125 C-28.16152344 -1.19277344 -27.51054687 -1.57304687 -26.83984375 -1.96484375 C-17.69102113 -6.20276755 -8.94338963 -3.29822792 0 0 Z " fill="#EF4850" transform="translate(55.875,308.875)"/>
<path d="M0 0 C1.42805756 0.10464866 2.85497723 0.22489072 4.28125 0.3515625 C5.07595703 0.41682129 5.87066406 0.48208008 6.68945312 0.54931641 C10.54885994 1.30211279 12.31598699 3.18178634 15 6 C16.28317892 9.84953676 16.06643637 12.94738135 16 17 C16.58007812 16.94199219 17.16015625 16.88398438 17.7578125 16.82421875 C22.10879376 16.57292445 25.04980246 16.50544546 28.5 19.375 C31.71794792 22.75384532 32.12702755 24.1080712 32.0625 28.625 C32.05347656 29.44226563 32.04445313 30.25953125 32.03515625 31.1015625 C32.01775391 32.04128906 32.01775391 32.04128906 32 33 C33.8253125 32.9071875 33.8253125 32.9071875 35.6875 32.8125 C39.61462154 32.81943838 41.86586973 33.49269579 45 36 C47.90149362 39.17474666 48.37813099 41.26396817 48.39440918 45.52780151 C48.40575897 46.65212585 48.41710876 47.7764502 48.42880249 48.93484497 C48.42587189 50.16403656 48.42294128 51.39322815 48.41992188 52.65966797 C48.42839142 53.95759277 48.43686096 55.25551758 48.44558716 56.59277344 C48.46780459 60.15073445 48.4707337 63.70846388 48.46883965 67.26648474 C48.46871994 70.23859338 48.47728434 73.21065297 48.48561716 76.18274796 C48.50485261 83.19624677 48.5077348 90.20962657 48.50097656 97.22314453 C48.4943376 104.45329114 48.51719345 111.68292734 48.55429029 118.91297042 C48.58500272 125.12458829 48.59634562 131.33604212 48.59245348 137.54773438 C48.59038728 141.25585496 48.59584431 144.96357849 48.62034607 148.67162704 C48.64677884 152.80860841 48.63287376 156.94451482 48.61523438 161.08154297 C48.62849762 162.3066861 48.64176086 163.53182922 48.65542603 164.7940979 C48.56363775 174.04731284 48.56363775 174.04731284 45.64904785 177.74490356 C42.17143288 180.7053473 39.77838453 181.1247887 35.36566353 181.13142776 C33.92965347 181.13718948 33.92965347 181.13718948 32.46463311 181.1430676 C30.88367704 181.14176787 30.88367704 181.14176787 29.27078247 181.14044189 C28.15285368 181.14341302 27.03492489 181.14638414 25.88311946 181.1494453 C22.11754743 181.15815314 18.3520071 181.1596423 14.58642578 181.16113281 C11.89462126 181.16575946 9.20281966 181.17076312 6.51101685 181.17617798 C-0.81535219 181.18976403 -8.14171576 181.19578629 -15.4680953 181.20018864 C-20.04133438 181.2029503 -24.61457134 181.20718748 -29.18780899 181.21169281 C-41.84614619 181.22388526 -54.50448169 181.23418499 -67.16282463 181.2375679 C-68.3782181 181.23789725 -68.3782181 181.23789725 -69.61816496 181.23823325 C-70.43037912 181.23845153 -71.24259327 181.23866981 -72.07941997 181.2388947 C-73.72530993 181.23933817 -75.37119989 181.23978473 -77.01708984 181.24023438 C-77.83351023 181.2404558 -78.64993063 181.24067723 -79.49109103 181.24090537 C-92.72452756 181.24485468 -105.95790907 181.26231283 -119.19132434 181.2855939 C-132.7730647 181.30929523 -146.35477743 181.32176918 -159.93653882 181.32293582 C-167.56417724 181.32385321 -175.19174395 181.32962158 -182.81936264 181.34775543 C-189.3134533 181.36313992 -195.80745009 181.36828665 -202.3015555 181.36001733 C-205.61561327 181.35610506 -208.92944193 181.35869362 -212.2434845 181.37107468 C-215.83475922 181.38370735 -219.42554448 181.37796438 -223.01681519 181.36749268 C-224.06632445 181.37554908 -225.11583372 181.38360548 -226.1971463 181.39190602 C-232.47745248 181.34890981 -236.03621538 180.65718621 -240.8125 176.375 C-242.65166953 172.69666095 -242.23294152 169.03765305 -242 165 C-243.03125 165.061875 -244.0625 165.12375 -245.125 165.1875 C-249.8902492 164.95692343 -252.88722491 163.62598368 -256.64453125 160.734375 C-258.50864137 158.34917358 -258.3059788 156.5635747 -258.4375 153.5625 C-259.45427753 145.9040197 -263.9497599 142.29456609 -269.4453125 137.3984375 C-270.28835938 136.60695313 -271.13140625 135.81546875 -272 135 C-272 134.34 -272 133.68 -272 133 C-271.16866745 132.99910437 -271.16866745 132.99910437 -270.32054031 132.99819064 C-237.47777952 132.96230198 -204.63512782 132.90567121 -171.79245489 132.82207905 C-167.8495927 132.81206151 -163.90673009 132.80221739 -159.96386719 132.79248047 C-159.17890937 132.7905391 -158.39395154 132.78859772 -157.58520712 132.78659752 C-144.87284046 132.75557068 -132.16049186 132.73859497 -119.44809447 132.72680578 C-106.40541082 132.71439775 -93.36282198 132.68690426 -80.32019818 132.64538693 C-72.27122561 132.62024148 -64.22241026 132.60688348 -56.17339785 132.60857043 C-50.00290543 132.60860368 -43.83264704 132.58765528 -37.66222572 132.55883217 C-35.12981979 132.55029928 -32.59738034 132.54860606 -30.0649662 132.55419731 C-26.61163234 132.5608074 -23.15926108 132.54298673 -19.70602417 132.51898193 C-18.70018182 132.52674235 -17.69433946 132.53450277 -16.65801704 132.54249835 C-10.97118683 132.47235295 -7.40568839 131.97817493 -3 128 C-0.87623686 124.9874932 -0.74360601 122.44712268 -0.7215271 118.8114624 C-0.71036362 117.76260864 -0.69920013 116.71375488 -0.68769836 115.63311768 C-0.68445808 113.91545197 -0.68445808 113.91545197 -0.68115234 112.16308594 C-0.67110672 110.95305908 -0.6610611 109.74303223 -0.65071106 108.49633789 C-0.62512286 105.18259345 -0.60826551 101.86902014 -0.59528303 98.55521679 C-0.57964703 95.09049294 -0.55285832 91.62585577 -0.5272522 88.16119385 C-0.48047268 81.60232253 -0.4437246 75.04343489 -0.41057932 68.48448205 C-0.37235207 61.01652136 -0.3229435 53.54864775 -0.27259517 46.08076048 C-0.16928763 30.72056994 -0.08002344 15.36033056 0 0 Z " fill="#1DB07F" transform="translate(377,173)"/>
<path d="M0 0 C0.95734004 -0.00384115 1.91468008 -0.00768229 2.90103042 -0.01163983 C4.48198649 -0.01034011 4.48198649 -0.01034011 6.09488106 -0.00901413 C7.77177425 -0.01347081 7.77177425 -0.01347081 9.48254406 -0.01801753 C13.2481161 -0.02672537 17.01365642 -0.02821453 20.77923775 -0.02970505 C23.47104227 -0.03433169 26.16284387 -0.03933536 28.85464668 -0.04475021 C36.18101572 -0.05833627 43.50737929 -0.06435853 50.83375883 -0.06876087 C55.40699791 -0.07152253 59.98023487 -0.07575972 64.55347252 -0.08026505 C77.21180972 -0.0924575 89.87014522 -0.10275723 102.52848816 -0.10614014 C103.33875047 -0.1063597 104.14901278 -0.10657927 104.98382849 -0.10680549 C105.79604264 -0.10702377 106.6082568 -0.10724204 107.4450835 -0.10746694 C109.09097346 -0.1079104 110.73686342 -0.10835697 112.38275337 -0.10880661 C113.19917376 -0.10902804 114.01559415 -0.10924947 114.85675456 -0.10947761 C128.09019109 -0.11342691 141.3235726 -0.13088507 154.55698787 -0.15416613 C168.13872823 -0.17786747 181.72044096 -0.19034141 195.30220234 -0.19150805 C202.92984076 -0.19242544 210.55740748 -0.19819382 218.18502617 -0.21632767 C224.67911683 -0.23171216 231.17311362 -0.23685889 237.66721903 -0.22858956 C240.9812768 -0.2246773 244.29510546 -0.22726585 247.60914803 -0.23964691 C251.20042275 -0.25227958 254.79120801 -0.24653661 258.38247871 -0.23606491 C259.43198798 -0.24412132 260.48149725 -0.25217772 261.56280982 -0.26047826 C270.50652678 -0.19924782 270.50652678 -0.19924782 274.36566353 3.13142776 C277.34125463 6.20433977 277.74267782 8.36099898 277.75334358 12.58330154 C277.76820053 14.24454559 277.76820053 14.24454559 277.78335762 15.93935013 C277.77885597 17.14984024 277.77435432 18.36033035 277.76971626 19.60750198 C277.78001114 21.52512848 277.78001114 21.52512848 277.79051399 23.4814949 C277.80845895 26.98575407 277.80727434 30.489763 277.80157161 33.99405432 C277.79848096 36.92142448 277.80457098 39.8487465 277.81061035 42.77610981 C277.82465901 49.68414065 277.82309216 56.59204783 277.81170845 63.50008011 C277.80023288 70.6211011 277.81429239 77.74174524 277.84110492 84.86271656 C277.86327721 90.980914 277.86989571 97.09899329 277.86402851 103.21722806 C277.86066061 106.86939269 277.86306232 110.52131589 277.88027954 114.17344666 C277.89864974 118.24806107 277.88454602 122.32194489 277.86737251 126.39656448 C277.87704048 127.60300613 277.88670845 128.80944778 277.89666939 130.05244827 C277.80456671 140.47764173 277.80456671 140.47764173 273.36566353 145.13142776 C268.58872254 149.05463855 263.66188482 148.54314513 257.77989388 148.49219131 C256.16252428 148.49603623 256.16252428 148.49603623 254.51248056 148.49995881 C250.89332189 148.5049069 247.2745788 148.48838636 243.65545845 148.47200394 C241.06362099 148.47115789 238.4717828 148.47163237 235.87994576 148.47333145 C230.29674845 148.47490403 224.71365637 148.46549647 219.13048553 148.44861794 C211.05818889 148.42423039 202.98594309 148.41642292 194.9136136 148.41265396 C181.81662809 148.40608909 168.71969866 148.38612696 155.62274361 148.35774612 C142.90074125 148.33020648 130.17875413 148.30897244 117.45672798 148.29622269 C116.67246176 148.29543452 115.88819554 148.29464635 115.08016368 148.29383429 C111.14570621 148.28991916 107.21124863 148.28612804 103.27679098 148.28239858 C70.63970767 148.25130156 38.0026931 148.19846479 5.36566353 148.13142776 C5.83109566 148.66252151 6.29652779 149.19361526 6.77606392 149.74080276 C7.39473335 150.44720901 8.01340279 151.15361526 8.65081978 151.88142776 C9.26062691 152.57752151 9.87043404 153.27361526 10.49872017 153.99080276 C13.14118204 157.0206322 15.75457196 160.07454007 18.36566353 163.13142776 C13.598046 163.60818952 9.73333837 163.96966776 5.86566353 160.81892776 C2.0190869 156.68385789 2.26259809 153.59389605 2.36566353 148.13142776 C1.31378853 148.19330276 0.26191353 148.25517776 -0.82183647 148.31892776 C-5.6194781 148.08297818 -8.0282 146.88457673 -11.2503109 143.36754036 C-12.97291438 140.58440152 -13.01629727 138.86429601 -13.02874565 135.60362625 C-13.04009544 134.47930191 -13.05144524 133.35497757 -13.06313896 132.19658279 C-13.06020836 130.9673912 -13.05727776 129.73819962 -13.05425835 128.4717598 C-13.06272789 127.17383499 -13.07119743 125.87591019 -13.07992363 124.53865433 C-13.10214107 120.98069332 -13.10507018 117.42296388 -13.10317612 113.86494303 C-13.10305641 110.89283438 -13.11162081 107.9207748 -13.11995363 104.9486798 C-13.13918908 97.93518099 -13.14207128 90.9218012 -13.13531303 83.90828323 C-13.12867407 76.67813663 -13.15152992 69.44850043 -13.18862677 62.21845734 C-13.21933919 56.00683947 -13.23068209 49.79538565 -13.22678995 43.58369339 C-13.22472375 39.8755728 -13.23018078 36.16784927 -13.25468254 32.45980072 C-13.28111531 28.32281936 -13.26721023 24.18691295 -13.24957085 20.0498848 C-13.26283409 18.82474167 -13.27609734 17.59959854 -13.2897625 16.33732986 C-13.19797422 7.08411493 -13.19797422 7.08411493 -10.28338432 3.3865242 C-6.80576935 0.42608046 -4.412721 0.00663906 0 0 Z M19.36566353 12.13142776 C18.11613542 14.32099176 18.11613542 14.32099176 18.05316353 17.88142776 C17.53961361 22.16879148 16.22317956 24.81053075 13.36566353 28.13142776 C8.78701303 31.40189241 4.86010231 31.38229946 -0.56011772 31.13924026 C-1.586856 31.13537308 -1.586856 31.13537308 -2.63433647 31.13142776 C-4.41155338 32.90864467 -3.75421746 35.28389977 -3.75875664 37.65005875 C-3.75516136 38.44127625 -3.75156609 39.23249374 -3.74786186 40.04768753 C-3.74800789 40.87688705 -3.74815392 41.70608658 -3.74830437 42.56041336 C-3.74760498 45.31457975 -3.7398114 48.06867937 -3.73199272 50.82283401 C-3.73012863 52.72712543 -3.72870469 54.63141732 -3.727705 56.53570938 C-3.7238791 61.55810739 -3.7140482 66.58047668 -3.70300102 71.60286331 C-3.69278845 76.72370897 -3.68820771 81.84455925 -3.6831646 86.96541214 C-3.672426 97.02076333 -3.65534871 107.07609316 -3.63433647 117.13142776 C-2.50306328 117.10206131 -2.50306328 117.10206131 -1.34893608 117.07210159 C-0.35901665 117.05687454 0.63090279 117.04164749 1.65081978 117.02595901 C3.12240547 116.99659256 3.12240547 116.99659256 4.62372017 116.96663284 C9.62933642 117.26747791 12.15400554 120.01801232 15.67816353 123.25642776 C17.36566353 126.13142776 17.36566353 126.13142776 18.36566353 136.13142776 C93.93566353 136.13142776 169.50566353 136.13142776 247.36566353 136.13142776 C247.69566353 132.83142776 248.02566353 129.53142776 248.36566353 126.13142776 C250.91628503 121.03018477 251.89029946 120.32157339 257.36566353 118.13142776 C260.99566353 118.13142776 264.62566353 118.13142776 268.36566353 118.13142776 C268.36566353 89.09142776 268.36566353 60.05142776 268.36566353 30.13142776 C264.73566353 30.13142776 261.10566353 30.13142776 257.36566353 30.13142776 C252.74208393 28.32534198 250.9330748 27.10151801 248.42816353 22.81892776 C247.36566353 19.13142776 247.36566353 19.13142776 247.36566353 12.13142776 C172.12566353 12.13142776 96.88566353 12.13142776 19.36566353 12.13142776 Z " fill="#83E6B3" transform="translate(99.63433647155762,157.86857223510742)"/>
<path d="M0 0 C6.84515653 4.9285127 12.60179804 12.67641051 14.84765625 20.8671875 C16.72596605 32.86648699 15.49746764 43.7184106 8.4375 53.75 C2.32007584 61.22855104 -5.08799911 66.61381925 -14.75 68.4375 C-28.15138419 69.14717921 -37.02706128 67.82379834 -47.75 59.4375 C-55.21032876 52.00470013 -59.76716207 41.92944489 -60.0625 31.375 C-59.94640491 21.68750957 -55.99714197 12.78136245 -49.75 5.4375 C-35.27545238 -8.35428594 -17.23207939 -10.21489242 0 0 Z " fill="#89E8B7" transform="translate(253.75,200.5625)"/>
<path d="M0 0 C19.14 0 38.28 0 58 0 C58 5.94 58 11.88 58 18 C38.86 18 19.72 18 0 18 C0 12.06 0 6.12 0 0 Z " fill="#86E7B5" transform="translate(122,183)"/>
<path d="M0 0 C18.81 0 37.62 0 57 0 C57 5.28 57 10.56 57 16 C38.19 16 19.38 16 0 16 C0 10.72 0 5.44 0 0 Z " fill="#8AE9B8" transform="translate(284,264)"/>
<path d="M0 0 C1.20694107 0.00056958 1.20694107 0.00056958 2.43826479 0.00115067 C3.8259011 -0.00183591 3.8259011 -0.00183591 5.24157047 -0.00488281 C6.78385316 -0.00051355 6.78385316 -0.00051355 8.35729307 0.00394398 C9.44028887 0.00308955 10.52328467 0.00223513 11.63909853 0.00135481 C15.29818575 -0.00030319 18.95722796 0.0052266 22.61631101 0.01067311 C25.22726274 0.01095493 27.83821455 0.01079733 30.44916624 0.0102306 C36.08587009 0.00970518 41.72256241 0.01285386 47.35926336 0.01846844 C55.50907684 0.026581 63.65888472 0.02919841 71.80870181 0.03045643 C85.02989372 0.03264734 98.25107948 0.03930846 111.47226804 0.04875904 C124.3186219 0.05793217 137.16497408 0.06501349 150.01133054 0.06926686 C150.80262165 0.06952958 151.59391275 0.0697923 152.40918238 0.07006299 C156.37869061 0.07136799 160.34819886 0.0726317 164.31770712 0.07387489 C197.27068048 0.0842487 230.22364629 0.10186806 263.17661375 0.1241985 C263.17661375 0.4541985 263.17661375 0.7841985 263.17661375 1.1241985 C176.38661375 1.1241985 89.59661375 1.1241985 0.17661375 1.1241985 C2.48661375 3.7641985 4.79661375 6.4041985 7.17661375 9.1241985 C9.17961124 11.45495921 11.18062586 13.78743219 13.17661375 16.1241985 C8.40899622 16.60096025 4.54428859 16.96243849 0.67661375 13.8116985 C-2.40107094 10.50318746 -2.7934857 8.99131464 -2.94838625 4.4991985 C-2.78878467 0.18995584 -2.78878467 0.18995584 0 0 Z " fill="#53CD99" transform="translate(104.82338625192642,304.8758015036583)"/>
<path d="M0 0 C6.01826738 4.97161218 11.66337352 10.29829243 17 16 C17 16.33 17 16.66 17 17 C10.91038209 17.36537707 6.92852172 16.42360418 2.1875 12.5 C-0.7740332 8.75911596 -0.07374355 4.49835633 0 0 Z " fill="#5CDA99" transform="translate(118,321)"/>
<path d="M0 0 C5.29118628 4.4093219 10.18127939 9.08158172 15 14 C15.66 14.66 16.32 15.32 17 16 C7.33333333 16.56862745 7.33333333 16.56862745 3 13 C0.77551105 11.00563059 0.05776413 9.7258189 -0.1796875 6.7421875 C-0.18675946 4.48623251 -0.12991752 2.25190364 0 0 Z " fill="#5DD897" transform="translate(135,338)"/>
<path d="M0 0 C3 0 3 0 4.61328125 1.50390625 C5.17402344 2.18324219 5.73476562 2.86257813 6.3125 3.5625 C6.91835937 4.28566406 7.52421875 5.00882812 8.1484375 5.75390625 C8.75945312 6.49511719 9.37046875 7.23632812 10 8 C11.14329607 9.3355096 12.28890491 10.66904503 13.4375 12 C14.283125 12.99 15.12875 13.98 16 15 C11.23238247 15.47676175 7.36767485 15.83824 3.5 12.6875 C-0.34657663 8.55243012 -0.10306544 5.46246829 0 0 Z " fill="#5DD997" transform="translate(102,306)"/>
</svg>
