<?xml version="1.0" encoding="UTF-8"?>
<svg version="1.1" xmlns="http://www.w3.org/2000/svg" width="256" height="256">
<path d="M0 0 C0.90764099 0.25782257 1.81528198 0.51564514 2.75042725 0.78128052 C4.65397519 1.32408895 6.55649452 1.87051656 8.45800781 2.42041016 C11.36223535 3.25863806 14.27059253 4.0811887 17.1796875 4.90234375 C19.03672537 5.43396392 20.89350565 5.9664849 22.75 6.5 C23.61465881 6.74386444 24.47931763 6.98772888 25.37017822 7.23898315 C29.65387967 8.48904735 33.45789677 9.71497939 37.109375 12.3828125 C40.6882379 19.54053829 36.84182752 28.6661039 34.609375 35.6953125 C33.94835235 37.81492374 33.29190049 39.93596731 32.640625 42.05859375 C32.20073242 43.4494519 32.20073242 43.4494519 31.75195312 44.8684082 C30.91821736 48.13081119 30.75880705 50.57212411 32.109375 53.6953125 C33.36096012 57.05894752 33.31102612 59.82030932 33.109375 63.3828125 C32.779375 64.0428125 32.449375 64.7028125 32.109375 65.3828125 C42.009375 65.3828125 51.909375 65.3828125 62.109375 65.3828125 C61.779375 64.3928125 61.449375 63.4028125 61.109375 62.3828125 C60.32756485 55.88481669 61.27683451 50.74603228 65.109375 45.3828125 C69.60112192 40.76502166 72.96850667 39.20892722 79.359375 39.0703125 C84.8164646 39.11844559 88.01479742 39.49821326 92.109375 43.3828125 C97.09046423 48.7789925 98.33855915 53.12242966 98.27734375 60.296875 C98.109375 62.3828125 98.109375 62.3828125 97.109375 65.3828125 C97.91157471 65.36710205 98.71377441 65.3513916 99.5402832 65.33520508 C103.16740904 65.27292667 106.79442249 65.23384386 110.421875 65.1953125 C111.68451172 65.17017578 112.94714844 65.14503906 114.24804688 65.11914062 C115.45654297 65.10947266 116.66503906 65.09980469 117.91015625 65.08984375 C119.02559814 65.0741333 120.14104004 65.05842285 121.2902832 65.04223633 C124.109375 65.3828125 124.109375 65.3828125 125.75932312 66.40109253 C127.87713915 69.50980145 127.54304815 72.7962465 127.52929688 76.4309082 C127.53776642 77.25076202 127.54623596 78.07061584 127.55496216 78.91531372 C127.57839066 81.62989758 127.57935274 84.34391636 127.578125 87.05859375 C127.58522448 88.9456556 127.59292316 90.83271527 127.60119629 92.71977234 C127.61465556 96.67839554 127.61620402 100.63681928 127.61035156 104.59545898 C127.6044626 109.66321777 127.63500682 114.73001617 127.67546844 119.7975893 C127.70135053 123.69674313 127.70422224 127.59566614 127.70057678 131.49489403 C127.70226843 133.36277868 127.71191524 135.23067395 127.72972107 137.0984745 C127.75191494 139.71514176 127.74220687 142.32987125 127.72460938 144.9465332 C127.73787262 145.71506119 127.75113586 146.48358917 127.76480103 147.27540588 C127.70367985 151.19671618 127.16140053 153.82380022 124.7779541 156.88664246 C122.109375 159.3828125 122.109375 159.3828125 118.796875 159.7578125 C117.4665625 159.5721875 117.4665625 159.5721875 116.109375 159.3828125 C116.109375 160.7028125 116.109375 162.0228125 116.109375 163.3828125 C115.46682448 170.19774228 112.27753958 175.703686 109.1171875 181.6484375 C108.77848633 182.28587891 108.43978516 182.92332031 108.09082031 183.58007812 C107.21174937 185.19476963 106.28461287 186.78307532 105.3515625 188.3671875 C104.05817752 191.50710323 104.10239691 193.63788829 104.23193359 196.97802734 C103.95651681 202.38212166 102.01235112 207.55838874 100.421875 212.6953125 C99.91237305 214.46358398 99.91237305 214.46358398 99.39257812 216.26757812 C98.8753418 217.95850586 98.8753418 217.95850586 98.34765625 219.68359375 C98.03868408 220.70622314 97.72971191 221.72885254 97.41137695 222.7824707 C95.72684137 226.14680381 94.64698862 227.07397525 91.109375 228.3828125 C84.49186401 228.56070203 78.02723978 226.43589337 71.74609375 224.58203125 C70.791689 224.30438431 69.83728424 224.02673737 68.85395813 223.74067688 C66.85192783 223.15533842 64.85105723 222.56602 62.85131836 221.97290039 C59.7924502 221.06900497 56.72772839 220.18732897 53.66210938 219.30664062 C51.7105435 218.73310979 49.75935738 218.15828486 47.80859375 217.58203125 C46.89502609 217.32145432 45.98145844 217.06087738 45.04020691 216.79240417 C36.84528079 214.32169077 36.84528079 214.32169077 34.109375 210.3828125 C32.25144614 203.41469621 35.52029927 195.64807796 37.609375 189.0703125 C38.27039765 186.95070126 38.92684951 184.82965769 39.578125 182.70703125 C40.01801758 181.3161731 40.01801758 181.3161731 40.46679688 179.8972168 C41.29391318 176.66071571 41.48302886 174.22353368 40.109375 171.1328125 C38.75776498 167.41588494 39.04486439 164.3340875 39.109375 160.3828125 C37.90812988 160.36299316 36.70688477 160.34317383 35.46923828 160.32275391 C31.02240646 160.2468163 26.57590695 160.15808118 22.12939453 160.06542969 C20.20302886 160.02709082 18.2765904 159.99224668 16.35009766 159.9609375 C13.58469582 159.91539305 10.81979731 159.85738213 8.0546875 159.796875 C7.1900589 159.78532379 6.3254303 159.77377258 5.43460083 159.76187134 C-0.66288159 159.61055591 -0.66288159 159.61055591 -2.890625 157.3828125 C-2.67697555 154.39172022 -1.59784492 152.97469482 0.171875 150.5078125 C2.35468058 146.98715834 2.62706173 145.43802524 2.109375 141.3828125 C1.41452236 138.60057872 1.41452236 138.60057872 0.109375 136.3828125 C-2.70290122 135.44538709 -4.47809344 135.24810406 -7.390625 135.2578125 C-8.1640625 135.25523437 -8.9375 135.25265625 -9.734375 135.25 C-12.07509517 135.30135437 -12.07509517 135.30135437 -14.890625 136.3828125 C-16.8964388 140.07773266 -17.39999149 143.2229862 -16.890625 147.3828125 C-15.62401967 149.42572432 -14.29176116 151.42971362 -12.890625 153.3828125 C-12.015625 155.6328125 -12.015625 155.6328125 -11.890625 157.3828125 C-14.48519503 159.97738253 -16.29750275 159.64146653 -19.83396912 159.68635559 C-21.05117393 159.68498848 -21.05117393 159.68498848 -22.29296875 159.68359375 C-23.12647354 159.68787888 -23.95997833 159.692164 -24.81874084 159.69657898 C-26.5831715 159.70232685 -28.34762585 159.70281918 -30.11206055 159.69848633 C-32.81405033 159.69532895 -35.51494278 159.71876995 -38.21679688 159.74414062 C-39.92968612 159.74641381 -41.64257831 159.74711703 -43.35546875 159.74609375 C-44.1649144 159.7553035 -44.97436005 159.76451324 -45.80833435 159.77400208 C-51.31078718 159.72855276 -51.31078718 159.72855276 -53.60169983 158.36254883 C-55.63626018 155.23754737 -55.32420705 151.94529831 -55.31054688 148.3347168 C-55.31901642 147.51486298 -55.32748596 146.69500916 -55.33621216 145.85031128 C-55.35964066 143.13572742 -55.36060274 140.42170864 -55.359375 137.70703125 C-55.36647448 135.8199694 -55.37417316 133.93290973 -55.38244629 132.04585266 C-55.39590556 128.08722946 -55.39745402 124.12880572 -55.39160156 120.17016602 C-55.3857126 115.10240723 -55.41625682 110.03560883 -55.45671844 104.9680357 C-55.48260053 101.06888187 -55.48547224 97.16995886 -55.48182678 93.27073097 C-55.48351843 91.40284632 -55.49316524 89.53495105 -55.51097107 87.6671505 C-55.53316494 85.05048324 -55.52345687 82.43575375 -55.50585938 79.8190918 C-55.51912262 79.05056381 -55.53238586 78.28203583 -55.54605103 77.49021912 C-55.48492985 73.56890882 -54.94265053 70.94182478 -52.5592041 67.87898254 C-49.890625 65.3828125 -49.890625 65.3828125 -46.578125 65.0078125 C-45.2478125 65.1934375 -45.2478125 65.1934375 -43.890625 65.3828125 C-43.890625 64.0628125 -43.890625 62.7428125 -43.890625 61.3828125 C-43.03756792 52.33523739 -37.60061697 44.08013192 -33.1328125 36.3359375 C-31.68874951 33.44326805 -31.68874951 33.44326805 -31.90625 30.30078125 C-31.88306944 24.48825464 -30.21618746 19.26122805 -28.640625 13.6953125 C-28.34027344 12.56802734 -28.03992188 11.44074219 -27.73046875 10.27929688 C-27.42753906 9.19583984 -27.12460938 8.11238281 -26.8125 6.99609375 C-26.54018555 6.01423096 -26.26787109 5.03236816 -25.98730469 4.02075195 C-21.13040552 -7.6619719 -9.4461913 -2.73399124 0 0 Z M-16.890625 4.3828125 C-18.06409602 8.15156269 -19.22822833 11.92313334 -20.390625 15.6953125 C-20.72449219 16.76716797 -21.05835938 17.83902344 -21.40234375 18.94335938 C-21.71816406 19.97138672 -22.03398438 20.99941406 -22.359375 22.05859375 C-22.65263672 23.00645752 -22.94589844 23.95432129 -23.24804688 24.9309082 C-24.01738088 27.44402743 -24.01738088 27.44402743 -23.890625 30.3828125 C-17.56816904 32.4182258 -11.23409215 34.4138635 -4.890625 36.3828125 C-3.84293945 36.70862305 -2.79525391 37.03443359 -1.71582031 37.37011719 C1.51360358 38.36714004 4.74803402 39.34600197 7.984375 40.3203125 C9.01175781 40.6387915 10.03914063 40.95727051 11.09765625 41.28540039 C12.06832031 41.57406982 13.03898437 41.86273926 14.0390625 42.16015625 C14.89741699 42.42046631 15.75577148 42.68077637 16.64013672 42.94897461 C19.42024644 43.4374317 21.39865385 43.09853746 24.109375 42.3828125 C25.11806417 38.96865003 26.11479821 35.55111021 27.109375 32.1328125 C27.53863281 30.68068359 27.53863281 30.68068359 27.9765625 29.19921875 C28.24726562 28.26464844 28.51796875 27.33007812 28.796875 26.3671875 C29.17392578 25.07893066 29.17392578 25.07893066 29.55859375 23.76464844 C30.25957307 21.14073386 30.25957307 21.14073386 30.109375 17.3828125 C23.73838298 15.52768938 17.36620147 13.67669742 10.99316406 11.82861328 C8.82394035 11.19903787 6.65499377 10.56850681 4.48632812 9.93701172 C1.37441703 9.03103029 -1.73846487 8.12845709 -4.8515625 7.2265625 C-5.82556 6.94220337 -6.7995575 6.65784424 -7.80307007 6.36486816 C-8.70385284 6.10459839 -9.60463562 5.84432861 -10.53271484 5.57617188 C-11.32769379 5.34522827 -12.12267273 5.11428467 -12.94174194 4.87634277 C-14.87869114 4.30098306 -14.87869114 4.30098306 -16.890625 4.3828125 Z M-24.890625 39.3828125 C-26.35557837 41.92085928 -27.81266822 44.46290967 -29.265625 47.0078125 C-29.678125 47.72066406 -30.090625 48.43351562 -30.515625 49.16796875 C-30.91523437 49.87050781 -31.31484375 50.57304688 -31.7265625 51.296875 C-32.09313965 51.9357666 -32.4597168 52.5746582 -32.83740234 53.23291016 C-35.78422218 59.2481386 -36.16428578 64.36564654 -36.0859375 70.9375 C-36.0831076 71.83904816 -36.08027771 72.74059631 -36.07736206 73.66946411 C-36.06621939 76.53238526 -36.0411258 79.39498684 -36.015625 82.2578125 C-36.00558755 84.20572463 -35.99646304 86.15364169 -35.98828125 88.1015625 C-35.96629943 92.8621012 -35.9318105 97.62240277 -35.890625 102.3828125 C-33.47416718 102.54968698 -33.47416718 102.54968698 -30.890625 102.3828125 C-27.99728973 99.48947723 -28.62005613 97.33727469 -28.58203125 93.29296875 C-28.55687302 91.85481362 -28.53147497 90.41666268 -28.50585938 88.97851562 C-28.47709908 86.70940209 -28.45308407 84.44036108 -28.43432617 82.17114258 C-28.41268646 79.98220265 -28.37325173 77.7941146 -28.33203125 75.60546875 C-28.31857666 74.29328369 -28.30512207 72.98109863 -28.29125977 71.62915039 C-27.890625 68.3828125 -27.890625 68.3828125 -26.48413086 66.5 C-24.68055234 65.23553312 -22.88627385 64.25388308 -20.890625 63.3203125 C-18.36317248 62.12838887 -16.23773159 60.94755023 -13.890625 59.3828125 C-11.203125 59.2578125 -11.203125 59.2578125 -8.890625 59.3828125 C-8.890625 61.3628125 -8.890625 63.3428125 -8.890625 65.3828125 C1.999375 65.3828125 12.889375 65.3828125 24.109375 65.3828125 C25.68760837 58.86227291 25.68760837 58.86227291 23.609375 55.1328125 C19.05169333 50.11936266 12.27191061 48.70600185 5.91015625 46.90234375 C5.152686 46.68462814 4.39521576 46.46691254 3.61479187 46.24259949 C2.02632004 45.7874527 0.4371815 45.33462685 -1.15258789 44.8840332 C-3.58371671 44.19372476 -6.01162539 43.49283446 -8.43945312 42.79101562 C-9.9894013 42.34832051 -11.53952561 41.90624149 -13.08984375 41.46484375 C-13.8128215 41.25551712 -14.53579926 41.04619049 -15.28068542 40.83052063 C-18.65728236 39.88142732 -21.34892508 39.3828125 -24.890625 39.3828125 Z M70.109375 52.3828125 C68.67633436 55.24889379 68.80293345 57.19582033 69.109375 60.3828125 C70.37598033 62.42572432 71.70823884 64.42971362 73.109375 66.3828125 C73.921875 68.6953125 73.921875 68.6953125 74.109375 70.3828125 C72.15839415 72.33379335 68.46262571 71.63696358 65.79296875 71.69921875 C64.69638695 71.7303904 64.69638695 71.7303904 63.57765198 71.76219177 C61.23415844 71.82776274 58.89054961 71.88660682 56.546875 71.9453125 C54.96157645 71.98849058 53.37628971 72.03210463 51.79101562 72.07617188 C47.89725202 72.18427532 44.00340542 72.28329133 40.109375 72.3828125 C40.109375 79.9728125 40.109375 87.5628125 40.109375 95.3828125 C42.295625 95.3003125 44.481875 95.2178125 46.734375 95.1328125 C52.41426427 95.13853819 55.87866828 95.26344017 60.109375 99.3828125 C64.61373491 104.25239078 65.44321917 107.68449591 65.3203125 114.296875 C64.81020402 119.3412811 62.84496925 123.01689589 59.046875 126.2578125 C52.99279835 130.63735731 47.50751181 129.45006829 40.109375 129.3828125 C40.109375 136.9728125 40.109375 144.5628125 40.109375 152.3828125 C57.599375 152.3828125 75.089375 152.3828125 93.109375 152.3828125 C93.27965293 142.40616671 93.27965293 142.40616671 93.40722656 132.42895508 C93.4378418 131.18267334 93.46845703 129.9363916 93.5 128.65234375 C93.52094727 127.37979736 93.54189453 126.10725098 93.56347656 124.79614258 C94.19637678 120.83881793 95.27141288 119.16629761 98.109375 116.3828125 C101.15878173 115.36634359 103.41307403 115.18436574 106.609375 115.1328125 C108.04796875 115.09414062 108.04796875 115.09414062 109.515625 115.0546875 C112.109375 115.3828125 112.109375 115.3828125 113.73950195 116.42016602 C115.83917523 119.42841294 115.58999214 122.56880104 115.62109375 126.11328125 C115.64802055 127.23891228 115.64802055 127.23891228 115.67549133 128.38728333 C115.72962687 130.7815694 115.76349916 133.17565581 115.796875 135.5703125 C115.83004536 137.19468927 115.86453476 138.81903967 115.90039062 140.44335938 C115.9853547 144.42303306 116.05214965 148.4026472 116.109375 152.3828125 C117.099375 151.7228125 118.089375 151.0628125 119.109375 150.3828125 C119.39597703 147.83928767 119.48795178 145.53994286 119.44995117 142.99560547 C119.45038925 142.23453491 119.45082733 141.47346436 119.45127869 140.68933105 C119.44918459 138.16762857 119.42582501 135.64658667 119.40234375 133.125 C119.39674999 131.37908288 119.39247885 129.63316106 119.38948059 127.88723755 C119.37801448 123.2872421 119.34853227 118.68752987 119.31536865 114.08764648 C119.28470571 109.39570955 119.27098335 104.70372695 119.25585938 100.01171875 C119.22366406 90.80193874 119.17088189 81.59244346 119.109375 72.3828125 C108.219375 72.0528125 97.329375 71.7228125 86.109375 71.3828125 C85.614375 69.4028125 85.614375 69.4028125 85.109375 67.3828125 C86.984375 64.7578125 86.984375 64.7578125 89.109375 62.3828125 C90.51938164 59.56279923 90.35485951 57.51273995 90.109375 54.3828125 C88.44175178 50.88874481 87.36931478 49.55610569 84.109375 47.3828125 C77.77653736 46.25618408 74.13803784 47.09519252 70.109375 52.3828125 Z M-44.890625 72.3828125 C-47.35546813 74.84765563 -47.12543605 76.21861434 -47.13946533 79.58163452 C-47.13227478 80.30380157 -47.12508423 81.02596863 -47.11767578 81.77001953 C-47.11796783 82.53109009 -47.11825989 83.29216064 -47.11856079 84.07629395 C-47.11716481 86.59785266 -47.10159118 89.11911775 -47.0859375 91.640625 C-47.08220832 93.38654417 -47.0793609 95.13246544 -47.07736206 96.87838745 C-47.06971811 101.4783097 -47.05006313 106.07810607 -47.0279541 110.67797852 C-47.00751204 115.3699371 -46.99836386 120.06191599 -46.98828125 124.75390625 C-46.9668179 133.96360593 -46.9316296 143.17317907 -46.890625 152.3828125 C-39.300625 152.3828125 -31.710625 152.3828125 -23.890625 152.3828125 C-24.220625 151.3928125 -24.550625 150.4028125 -24.890625 149.3828125 C-25.67360811 142.87506762 -24.68547377 137.77613454 -20.890625 132.3828125 C-15.35574363 127.2432798 -11.49581317 127.03205815 -4.09765625 127.10546875 C0.05155475 127.46429211 2.12936213 128.47921022 5.109375 131.3828125 C10.50646473 138.53030971 10.20321102 143.65606289 10.109375 152.3828125 C17.369375 152.3828125 24.629375 152.3828125 32.109375 152.3828125 C32.439375 141.4928125 32.769375 130.6028125 33.109375 119.3828125 C34.759375 119.0528125 36.409375 118.7228125 38.109375 118.3828125 C38.851875 119.0221875 39.594375 119.6615625 40.359375 120.3203125 C43.75232266 122.86502324 45.80314075 123.02057226 49.953125 122.84765625 C53.42050575 122.10015931 55.01947193 120.12581028 57.109375 117.3828125 C58.51938164 114.56279923 58.35485951 112.51273995 58.109375 109.3828125 C56.44175178 105.88874481 55.36931478 104.55610569 52.109375 102.3828125 C49.06661593 101.89278014 46.15487274 101.91468829 43.109375 102.3828125 C41.4018752 103.66343735 39.72673759 104.9900836 38.109375 106.3828125 C36.459375 106.0528125 34.809375 105.7228125 33.109375 105.3828125 C32.779375 94.4928125 32.449375 83.6028125 32.109375 72.3828125 C14.619375 72.3828125 -2.870625 72.3828125 -20.890625 72.3828125 C-21.06090293 82.35945829 -21.06090293 82.35945829 -21.18847656 92.33666992 C-21.2190918 93.58295166 -21.24970703 94.8292334 -21.28125 96.11328125 C-21.3126709 98.02210083 -21.3126709 98.02210083 -21.34472656 99.96948242 C-21.97762678 103.92680707 -23.05266288 105.59932739 -25.890625 108.3828125 C-28.94003173 109.39928141 -31.19432403 109.58125926 -34.390625 109.6328125 C-35.3496875 109.65859375 -36.30875 109.684375 -37.296875 109.7109375 C-39.890625 109.3828125 -39.890625 109.3828125 -41.52075195 108.34545898 C-43.62042523 105.33721206 -43.37124214 102.19682396 -43.40234375 98.65234375 C-43.42029495 97.90192307 -43.43824615 97.15150238 -43.45674133 96.37834167 C-43.51087687 93.9840556 -43.54474916 91.58996919 -43.578125 89.1953125 C-43.61129536 87.57093573 -43.64578476 85.94658533 -43.68164062 84.32226562 C-43.7666047 80.34259194 -43.83339965 76.3629778 -43.890625 72.3828125 C-44.220625 72.3828125 -44.550625 72.3828125 -44.890625 72.3828125 Z M101.109375 124.3828125 C100.78563059 127.63801133 100.78563059 127.63801133 100.80078125 131.47265625 C100.77562302 132.91081138 100.75022497 134.34896232 100.72460938 135.78710938 C100.69584908 138.05622291 100.67183407 140.32526392 100.65307617 142.59448242 C100.63143646 144.78342235 100.59200173 146.9715104 100.55078125 149.16015625 C100.53732666 150.47234131 100.52387207 151.78452637 100.51000977 153.13647461 C100.109375 156.3828125 100.109375 156.3828125 98.70288086 158.265625 C96.89930234 159.53009188 95.10502385 160.51174192 93.109375 161.4453125 C90.58192248 162.63723613 88.45648159 163.81807477 86.109375 165.3828125 C83.421875 165.5078125 83.421875 165.5078125 81.109375 165.3828125 C81.109375 163.4028125 81.109375 161.4228125 81.109375 159.3828125 C76.5887411 159.30874733 72.068459 159.25425205 67.54736328 159.21801758 C66.00888926 159.20291539 64.47045839 159.18243204 62.93212891 159.15649414 C60.72287359 159.12017176 58.51418652 159.10310131 56.3046875 159.08984375 C55.61504913 159.07435989 54.92541077 159.05887604 54.21487427 159.04292297 C52.06508914 159.00743367 52.06508914 159.00743367 49.109375 159.3828125 C46.81722753 162.18152189 46.81722753 162.18152189 47.234375 165.2578125 C48.30197249 169.07066067 49.25126448 170.60648526 52.109375 173.3828125 C55.4645984 174.8960883 58.94034992 175.84695556 62.484375 176.8203125 C63.48992432 177.11107666 64.49547363 177.40184082 65.53149414 177.70141602 C68.71864592 178.6161065 71.91252748 179.50265403 75.109375 180.3828125 C76.17559082 180.67929688 77.24180664 180.97578125 78.34033203 181.28125 C84.58763265 183.01602492 90.84319072 184.7175627 97.109375 186.3828125 C98.76233619 183.30324962 100.40547671 180.21855171 102.046875 177.1328125 C102.51544922 176.26011719 102.98402344 175.38742188 103.46679688 174.48828125 C103.91474609 173.64394531 104.36269531 172.79960937 104.82421875 171.9296875 C105.23792725 171.15463867 105.65163574 170.37958984 106.07788086 169.58105469 C107.71359988 166.09513419 108.23473505 162.99946814 108.22290039 159.16503906 C108.22282486 158.34449036 108.22274933 157.52394165 108.22267151 156.67852783 C108.21751022 155.80234802 108.21234894 154.92616821 108.20703125 154.0234375 C108.20490883 152.66687042 108.20490883 152.66687042 108.20274353 151.28289795 C108.19715411 148.39950223 108.18460353 145.51618468 108.171875 142.6328125 C108.16685863 140.67578237 108.16229596 138.71875103 108.15820312 136.76171875 C108.14718813 131.96871997 108.12993074 127.17577948 108.109375 122.3828125 C104.15479652 122.03457443 104.15479652 122.03457443 101.109375 124.3828125 Z M49.109375 181.3828125 C43.97691381 194.04156889 43.97691381 194.04156889 42.109375 207.3828125 C48.48036702 209.23793562 54.85254853 211.08892758 61.22558594 212.93701172 C63.39480965 213.56658713 65.56375623 214.19711819 67.73242188 214.82861328 C70.84433297 215.73459471 73.95721487 216.63716791 77.0703125 217.5390625 C78.04431 217.82342163 79.0183075 218.10778076 80.02182007 218.40075684 C80.92260284 218.66102661 81.82338562 218.92129639 82.75146484 219.18945312 C83.94393326 219.53586853 83.94393326 219.53586853 85.16049194 219.88928223 C87.09744114 220.46464194 87.09744114 220.46464194 89.109375 220.3828125 C90.28284602 216.61406231 91.44697833 212.84249166 92.609375 209.0703125 C92.94324219 207.99845703 93.27710938 206.92660156 93.62109375 205.82226562 C94.09482422 204.28022461 94.09482422 204.28022461 94.578125 202.70703125 C94.87138672 201.75916748 95.16464844 200.81130371 95.46679688 199.8347168 C96.23613088 197.32159757 96.23613088 197.32159757 96.109375 194.3828125 C84.9442467 190.75863157 73.76110127 187.20823798 62.484375 183.9453125 C61.60305908 183.68669434 60.72174316 183.42807617 59.8137207 183.16162109 C58.57948364 182.80898193 58.57948364 182.80898193 57.3203125 182.44921875 C56.60149902 182.24240479 55.88268555 182.03559082 55.14208984 181.82250977 C52.80439935 181.24186537 52.80439935 181.24186537 49.109375 181.3828125 Z " fill="#1BA5FF" transform="translate(91.890625,15.6171875)"/>
</svg>
