<?xml version="1.0" encoding="UTF-8"?>
<svg version="1.1" xmlns="http://www.w3.org/2000/svg" width="256" height="256">
<path d="M0 0 C2.50232259 2.09694633 4.27053279 4.23972452 6 7 C6.40992187 7.62132813 6.81984375 8.24265625 7.2421875 8.8828125 C11.07373512 15.83244715 11.29489417 24.2879312 10 32 C7.7594341 38.519324 4.37702411 43.71902526 0 49 C0.68964844 49.3403125 1.37929687 49.680625 2.08984375 50.03125 C11.72770753 55.00221952 19.09523922 60.85714459 25 70 C25.721875 69.71125 26.44375 69.4225 27.1875 69.125 C29.79166667 68.08333333 32.39583333 67.04166667 35 66 C34.41992188 65.29037109 34.41992188 65.29037109 33.828125 64.56640625 C26.79860952 55.64031358 23.2956038 47.14216348 24.18359375 35.6171875 C25.60102177 27.22952065 30.64440085 20.44466621 37.20703125 15.21484375 C44.46177219 10.29932211 52.89422828 8.85456111 61.45703125 10.4609375 C71.12429634 12.98541533 77.84296779 18.47611555 83 27 C86.76447496 35.2158015 86.55965387 43.5277375 84.1640625 52.125 C82.27491475 56.79081457 79.28019936 60.24879766 76 64 C75.67 64.66 75.34 65.32 75 66 C76.26418246 66.69965443 77.53665402 67.38434763 78.8125 68.0625 C79.52019531 68.44535156 80.22789062 68.82820313 80.95703125 69.22265625 C83.14697801 70.30263511 83.14697801 70.30263511 86 69 C87.51008248 67.17131287 87.51008248 67.17131287 89 64.9375 C94.49015144 57.62895445 101.83008825 52.91100034 110 49 C109.61328125 48.52691406 109.2265625 48.05382812 108.828125 47.56640625 C101.46494919 38.21663103 98.55257963 29.92571239 99.68212891 17.96728516 C100.88163476 10.5436153 105.07187535 3.65256964 111.09375 -0.82421875 C119.84810172 -6.2239316 127.97243581 -8.08294753 138.125 -5.9375 C147.03579504 -3.40135064 153.41953864 1.95208659 158 10 C161.7240266 18.82524039 161.97770735 26.47054033 159.05859375 35.53515625 C157.33908236 39.53888941 154.7603315 42.67068652 152 46 C151.34 46.99 150.68 47.98 150 49 C150.58265625 49.23332031 151.1653125 49.46664062 151.765625 49.70703125 C165.19807672 55.68404986 174.09181419 65.77691747 180 79 C182.50524889 85.97223504 184.13901953 93.57418434 183 101 C181 103 181 103 177.95016479 103.24050903 C176.64000397 103.23606781 175.32984314 103.23162659 173.97998047 103.22705078 C173.25792419 103.22734283 172.53586792 103.22763489 171.79193115 103.22793579 C169.40022858 103.22654008 167.00883579 103.21096783 164.6171875 103.1953125 C162.9609494 103.19158322 161.30470911 103.18873585 159.64846802 103.18673706 C155.2852776 103.17909389 150.92221993 103.1594396 146.55908203 103.1373291 C142.10841671 103.11688535 137.65772997 103.1077385 133.20703125 103.09765625 C124.47129319 103.07619429 115.7356631 103.04205018 107 103 C107.16081055 103.94399658 107.32162109 104.88799316 107.48730469 105.8605957 C108.12312213 109.75391784 108.25861528 113.05611702 108 117 C106.48784771 119.06237773 105.60388544 119.88141439 103.07749939 120.37752342 C102.34672684 120.3786545 101.61595428 120.37978558 100.86303711 120.38095093 C100.02183319 120.3894104 99.18062927 120.39786987 98.31393433 120.40658569 C96.93457199 120.39747665 96.93457199 120.39747665 95.52734375 120.38818359 C94.07087936 120.39606903 94.07087936 120.39606903 92.58499146 120.40411377 C89.3689983 120.41733917 86.15349837 120.40856654 82.9375 120.3984375 C80.7069489 120.4004575 78.47639844 120.40336832 76.24584961 120.40713501 C71.56845825 120.41156181 66.89123861 120.40511573 62.21386719 120.39111328 C56.21113923 120.37402135 50.20881365 120.3838606 44.20610046 120.40183067 C39.59937495 120.4126588 34.99274521 120.40922661 30.38601685 120.4014473 C28.17237297 120.39944261 25.95872047 120.40191394 23.74508667 120.40888596 C20.65404141 120.41648434 17.56365249 120.40491854 14.47265625 120.38818359 C13.55308136 120.39425629 12.63350647 120.40032898 11.68606567 120.40658569 C10.84486176 120.39812622 10.00365784 120.38966675 9.13696289 120.38095093 C8.04080406 120.37925431 8.04080406 120.37925431 6.92250061 120.37752342 C4.39611456 119.88141439 3.51215229 119.06237773 2 117 C1.67843666 112.09615908 2.17537546 107.84074435 3 103 C1.61604538 103.00666183 1.61604538 103.00666183 0.20413208 103.01345825 C-8.47775903 103.05348113 -17.1596193 103.08395694 -25.84158134 103.10362434 C-30.30539755 103.11407534 -34.76913772 103.12825844 -39.23291016 103.15087891 C-43.53820674 103.17256052 -47.84343005 103.1845587 -52.14877701 103.18975449 C-53.79387694 103.19345869 -55.43897273 103.20069177 -57.0840416 103.21146011 C-59.38277704 103.22591299 -61.68120713 103.22798058 -63.97998047 103.22705078 C-65.2901413 103.231492 -66.60030212 103.23593323 -67.95016479 103.24050903 C-71 103 -71 103 -73 101 C-74.78246855 89.379231 -70.38385997 77.50609716 -64 68 C-57.60254342 59.64163719 -49.97961132 52.68042403 -40 49 C-40.38671875 48.5153125 -40.7734375 48.030625 -41.171875 47.53125 C-47.82138072 38.97248026 -52.05000042 31.14167109 -51 20 C-49.18070844 10.30225092 -44.43664705 2.92139851 -36.328125 -2.7421875 C-23.7265892 -9.55039979 -11.65258819 -7.45967712 0 0 Z M115.6875 7.1875 C110.73113788 12.37439059 108.77331689 16.77532359 108.5 24 C108.76256452 30.51488217 110.06909964 35.15174976 114.80078125 39.75 C120.20023043 44.11149682 125.40843574 46.32265421 132.4375 45.9375 C138.57111337 45.04781205 142.99507297 42.00492703 147.3125 37.6875 C151.10688422 31.6445918 152.65539145 26.63048305 151.640625 19.4609375 C150.04901765 13.34683609 146.3836974 8.30363249 141 5 C131.60608715 1.10414027 124.26545334 1.52281383 115.6875 7.1875 Z M-36.48828125 9.14453125 C-40.54648393 14.12552937 -42.38758989 19.72171429 -42.0625 26.125 C-41.08477958 32.40611297 -38.1183093 36.82284877 -33.75 41.3125 C-28.17329006 44.73457201 -22.53248064 46.81447444 -15.97265625 45.5625 C-8.40541803 43.40471326 -4.02784803 39.78741173 0 33 C1.96101963 27.11694111 1.86198427 20.37045673 -0.25 14.5625 C-0.8275 13.716875 -1.405 12.87125 -2 12 C-2.556875 11.13375 -3.11375 10.2675 -3.6875 9.375 C-8.07038845 4.87365511 -13.65746523 2.398189 -19.9296875 1.90625 C-26.28966405 2.19424894 -31.88687596 4.80054724 -36.48828125 9.14453125 Z M38.5625 26.1875 C34.8172217 31.16701774 32.56923488 36.77336968 33.0625 43.0625 C34.52363768 50.71825264 37.75630293 55.40415197 44.09765625 59.87109375 C49.29796276 62.95710726 55.15637827 62.51233786 61 62 C66.90254883 60.4631838 70.44103727 57.04365204 73.80859375 52.0703125 C77.20181435 46.17389637 77.72747422 40.48638708 76 34 C72.97590491 27.39135976 68.81672189 23.03643755 62.0625 20.25 C53.62721372 17.40682157 44.72714422 19.57703363 38.5625 26.1875 Z M-53.8125 69.8125 C-58.61096044 75.68608719 -61.62302248 81.74450506 -63.06518555 89.18017578 C-63.24139938 90.0822879 -63.41761322 90.98440002 -63.59916687 91.91384888 C-63.7314418 92.60227875 -63.86371674 93.29070862 -64 94 C-54.84680246 94.23198355 -45.69462017 94.40951619 -36.53912163 94.51812172 C-32.28739286 94.57025659 -28.0376785 94.64092062 -23.78710938 94.75439453 C-19.68260154 94.86327989 -15.58002674 94.92288408 -11.47418594 94.94877243 C-9.91024452 94.967212 -8.34640596 95.00322667 -6.78329086 95.05730057 C-2.05679719 95.21426239 2.3931258 95.23512115 7 94 C10.06476038 91.02138169 11.40194701 87.90262011 13 84 C14.55164191 81.85973285 16.23524277 79.97237573 18 78 C15.19622571 69.61850451 8.1453814 63.84432422 0.48925781 59.85302734 C-18.56875737 50.49373492 -39.1126308 54.13052747 -53.8125 69.8125 Z M95.5859375 71.64453125 C94.37771271 73.08562618 93.18715311 74.5414976 92 76 C93.51383343 79.2698802 95.3976112 82.07803591 97.5 85 C99.64867123 87.98628883 101.34292591 90.68585182 103 94 C126.43 94 149.86 94 174 94 C170.40310347 79.61241389 166.0554388 69.50838407 153.6875 61.1875 C133.40183986 49.14804317 110.70059099 54.06643977 95.5859375 71.64453125 Z M21.1875 86.75 C15.20218558 94.04813103 13.02942412 101.86759146 11 111 C40.04 111 69.08 111 99 111 C95.24458943 95.97835772 90.40755373 85.19504494 76.9375 77.0625 C58.07993892 66.35545525 35.76426002 71.3861579 21.1875 86.75 Z " fill="#3EACFA" transform="translate(73,116)"/>
<path d="M0 0 C3.69231087 1.3514041 3.88395738 1.91531157 5.484375 5.3359375 C6.18846788 7.07757102 6.86732523 8.82957367 7.5234375 10.58984375 C8.05517578 11.91725586 8.05517578 11.91725586 8.59765625 13.27148438 C11.1484375 19.73707469 11.1484375 19.73707469 11.1484375 22.15234375 C12.03982422 22.13494141 12.03982422 22.13494141 12.94921875 22.1171875 C17.65238469 22.06598663 22.32976178 22.14898401 27.0234375 22.46484375 C27.90773438 22.52285156 28.79203125 22.58085938 29.703125 22.640625 C32.51247082 23.22852325 34.00000195 24.28870082 36.1484375 26.15234375 C35.87637688 30.54532261 34.16122152 32.51279201 30.94140625 35.40429688 C30.11576172 36.11489258 30.11576172 36.11489258 29.2734375 36.83984375 C28.73074219 37.32517578 28.18804687 37.81050781 27.62890625 38.31054688 C25.21985725 40.44570644 22.83013788 42.3645435 20.1484375 44.15234375 C20.54000925 48.60389627 21.00229027 52.90314477 22.2109375 57.21484375 C23.30857587 61.29412664 23.37032341 64.93651146 23.1484375 69.15234375 C22.1484375 70.15234375 22.1484375 70.15234375 19.58984375 70.53515625 C14.1069909 69.92525888 10.3946465 66.66937819 5.98242188 63.53125 C2.10576771 60.72535912 2.10576771 60.72535912 -2.4453125 60.58984375 C-3.239375 61.10546875 -4.0334375 61.62109375 -4.8515625 62.15234375 C-5.88152344 62.79429688 -6.91148438 63.43625 -7.97265625 64.09765625 C-10.18417095 65.55116061 -12.39251315 67.00950345 -14.59765625 68.47265625 C-18.06397059 70.26199018 -20.01399352 70.59318378 -23.8515625 70.15234375 C-24.8515625 69.15234375 -24.8515625 69.15234375 -25.1015625 65.90234375 C-25.07395029 60.81249244 -23.72759118 56.09227242 -22.41015625 51.203125 C-21.81567266 47.95633003 -21.66596503 46.22685921 -22.8515625 43.15234375 C-25.21731308 40.73761164 -25.21731308 40.73761164 -28.1640625 38.58984375 C-35.28430384 33.10469121 -35.28430384 33.10469121 -37.8515625 30.15234375 C-37.7890625 27.52734375 -37.7890625 27.52734375 -36.8515625 25.15234375 C-30.28650715 20.77564018 -20.53310472 22.00237872 -12.8515625 22.15234375 C-12.4596875 20.91484375 -12.0678125 19.67734375 -11.6640625 18.40234375 C-5.61064634 0.29974686 -5.61064634 0.29974686 0 0 Z M-1.8515625 18.15234375 C-2.17769531 18.93480469 -2.50382812 19.71726562 -2.83984375 20.5234375 C-3.27683594 21.53535156 -3.71382812 22.54726563 -4.1640625 23.58984375 C-4.59332031 24.59917969 -5.02257812 25.60851562 -5.46484375 26.6484375 C-6.8515625 29.15234375 -6.8515625 29.15234375 -9.8515625 30.15234375 C-11.91049871 30.37560189 -13.97389903 30.55940134 -16.0390625 30.71484375 C-17.12574219 30.79863281 -18.21242188 30.88242188 -19.33203125 30.96875 C-20.16347656 31.02933594 -20.99492188 31.08992188 -21.8515625 31.15234375 C-21.1296875 31.87421875 -20.4078125 32.59609375 -19.6640625 33.33984375 C-18.7359375 34.26796875 -17.8078125 35.19609375 -16.8515625 36.15234375 C-15.9028125 36.89484375 -14.9540625 37.63734375 -13.9765625 38.40234375 C-11.60321621 41.47373306 -11.58479636 41.93540025 -11.9765625 45.58984375 C-12.24396516 47.11513037 -12.53781783 48.63591118 -12.8515625 50.15234375 C-13.18913563 52.1516325 -13.52336564 54.15149445 -13.8515625 56.15234375 C-13.12710938 55.70761719 -12.40265625 55.26289062 -11.65625 54.8046875 C-10.68945312 54.23878906 -9.72265625 53.67289063 -8.7265625 53.08984375 C-7.77523437 52.52136719 -6.82390625 51.95289063 -5.84375 51.3671875 C-2.24308751 49.90529973 -0.55384558 50.08892201 3.1484375 51.15234375 C5.703125 52.34375 5.703125 52.34375 8.0234375 53.71484375 C9.19519531 54.39740234 9.19519531 54.39740234 10.390625 55.09375 C11.26074219 55.61775391 11.26074219 55.61775391 12.1484375 56.15234375 C12.0040625 55.48847656 11.8596875 54.82460937 11.7109375 54.140625 C11.5253125 53.25761719 11.3396875 52.37460938 11.1484375 51.46484375 C10.9628125 50.59472656 10.7771875 49.72460938 10.5859375 48.828125 C9.75439505 43.74235196 9.75439505 43.74235196 10.1484375 41.15234375 C12.3359375 38.73046875 12.3359375 38.73046875 15.1484375 36.40234375 C16.82425761 34.99651688 18.49349396 33.58268781 20.1484375 32.15234375 C20.1484375 31.82234375 20.1484375 31.49234375 20.1484375 31.15234375 C19.31699219 31.09175781 18.48554688 31.03117187 17.62890625 30.96875 C16.54222656 30.88496094 15.45554688 30.80117187 14.3359375 30.71484375 C13.25699219 30.63363281 12.17804688 30.55242187 11.06640625 30.46875 C8.1484375 30.15234375 8.1484375 30.15234375 5.1484375 29.15234375 C3.76171875 26.6484375 3.76171875 26.6484375 2.4609375 23.58984375 C2.02394531 22.57792969 1.58695313 21.56601562 1.13671875 20.5234375 C0.64751953 19.34974609 0.64751953 19.34974609 0.1484375 18.15234375 C-0.5115625 18.15234375 -1.1715625 18.15234375 -1.8515625 18.15234375 Z " fill="#3E8AF8" transform="translate(128.8515625,36.84765625)"/>
<path d="M0 0 C2.5703125 0.90625 2.5703125 0.90625 4.265625 3.3125 C4.73742188 4.3334375 5.20921875 5.354375 5.6953125 6.40625 C6.17226563 7.4065625 6.64921875 8.406875 7.140625 9.4375 C8.82872041 13.53320689 10.22453449 17.68782183 11.5703125 21.90625 C12.15522461 21.92606934 12.74013672 21.94588867 13.34277344 21.96630859 C16.00239275 22.06178481 18.66125088 22.17137142 21.3203125 22.28125 C22.24070313 22.3121875 23.16109375 22.343125 24.109375 22.375 C24.99882813 22.41367187 25.88828125 22.45234375 26.8046875 22.4921875 C27.62163086 22.5236084 28.43857422 22.5550293 29.28027344 22.58740234 C31.77425454 22.93464534 33.43794437 23.57903518 35.5703125 24.90625 C36.46484375 26.828125 36.46484375 26.828125 36.5703125 28.90625 C33.25741086 33.56221987 29.78226488 36.49389071 25.1328125 39.78125 C21.67561072 42.32476153 21.67561072 42.32476153 20.08203125 46.09765625 C20.33623838 48.49387104 20.86059745 50.60457744 21.5703125 52.90625 C21.93506335 54.44544685 22.28938892 55.98715467 22.6328125 57.53125 C22.80554688 58.26601562 22.97828125 59.00078125 23.15625 59.7578125 C23.76018436 62.89143417 23.76925248 65.72321024 23.5703125 68.90625 C22.5703125 69.90625 22.5703125 69.90625 19.9765625 70.25390625 C14.78414722 69.72394643 11.36293808 66.91616694 7.13671875 64.01757812 C4.0408359 62.00747014 2.26742113 60.91336335 -1.4921875 60.875 C-6.23732873 62.54084745 -10.07106544 65.38713577 -14.2109375 68.19140625 C-17.65492531 70.02624927 -19.59469688 70.27011206 -23.4296875 69.90625 C-25.28222134 66.07827959 -25.58966746 63.93188651 -24.53125 59.82421875 C-24.29921875 58.89287109 -24.0671875 57.96152344 -23.828125 57.00195312 C-23.57289062 56.04224609 -23.31765625 55.08253906 -23.0546875 54.09375 C-22.6834375 52.62518555 -22.6834375 52.62518555 -22.3046875 51.12695312 C-21.69318876 48.71623693 -21.06785595 46.31001781 -20.4296875 43.90625 C-21.03868896 43.6187085 -21.64769043 43.33116699 -22.27514648 43.03491211 C-25.09005556 41.56031441 -27.15452426 39.61601533 -29.4921875 37.46875 C-30.34941406 36.68628906 -31.20664062 35.90382812 -32.08984375 35.09765625 C-32.86199219 34.37449219 -33.63414063 33.65132812 -34.4296875 32.90625 C-35.02652344 32.37 -35.62335937 31.83375 -36.23828125 31.28125 C-37.4296875 29.90625 -37.4296875 29.90625 -37.4296875 27.34375 C-36.4296875 24.90625 -36.4296875 24.90625 -34.48046875 23.79296875 C-30.20695617 22.55085946 -26.04749283 22.43982916 -21.6171875 22.28125 C-20.29170898 22.22324219 -20.29170898 22.22324219 -18.93945312 22.1640625 C-16.76985778 22.07024216 -14.59980203 21.98717674 -12.4296875 21.90625 C-12.242854 21.33197266 -12.05602051 20.75769531 -11.86352539 20.16601562 C-10.33508568 15.51654928 -8.72908338 10.93550143 -6.8671875 6.40625 C-6.45339844 5.3853125 -6.03960937 4.364375 -5.61328125 3.3125 C-4.0944993 0.22481128 -3.41191472 -0.13164944 0 0 Z M-1.4296875 16.90625 C-1.76742187 17.76089844 -2.10515625 18.61554687 -2.453125 19.49609375 C-2.89914063 20.60082031 -3.34515625 21.70554687 -3.8046875 22.84375 C-4.24554688 23.94589844 -4.68640625 25.04804687 -5.140625 26.18359375 C-6.4296875 28.90625 -6.4296875 28.90625 -8.4296875 29.90625 C-10.30025541 30.1337515 -12.17654708 30.31587811 -14.0546875 30.46875 C-15.05757812 30.55253906 -16.06046875 30.63632812 -17.09375 30.72265625 C-17.86460938 30.78324219 -18.63546875 30.84382813 -19.4296875 30.90625 C-19.4296875 31.89625 -19.4296875 32.88625 -19.4296875 33.90625 C-17.74657197 35.51465806 -15.92940956 36.82766762 -14.05859375 38.2109375 C-11.92201145 40.43462268 -11.68028272 41.84988325 -11.4296875 44.90625 C-11.76953125 47.80078125 -11.76953125 47.80078125 -12.3671875 50.71875 C-12.56183594 51.69457031 -12.75648437 52.67039063 -12.95703125 53.67578125 C-13.19099609 54.77986328 -13.19099609 54.77986328 -13.4296875 55.90625 C-12.23472656 55.22175781 -12.23472656 55.22175781 -11.015625 54.5234375 C-9.42621094 53.66105469 -9.42621094 53.66105469 -7.8046875 52.78125 C-6.76054688 52.20117188 -5.71640625 51.62109375 -4.640625 51.0234375 C-0.68380192 49.64673263 0.83242595 50.16190294 4.5703125 51.90625 C6.6044031 53.18697371 8.61434066 54.50912726 10.5703125 55.90625 C11.5603125 55.41125 11.5603125 55.41125 12.5703125 54.90625 C12.4259375 54.31457031 12.2815625 53.72289062 12.1328125 53.11328125 C11.854375 51.92798828 11.854375 51.92798828 11.5703125 50.71875 C11.3846875 49.94144531 11.1990625 49.16414063 11.0078125 48.36328125 C10.53138392 45.68762429 10.19381273 43.6102029 10.5703125 40.90625 C12.5390625 38.66796875 12.5390625 38.66796875 15.0703125 36.59375 C15.905625 35.89636719 16.7409375 35.19898437 17.6015625 34.48046875 C18.25125 33.96097656 18.9009375 33.44148438 19.5703125 32.90625 C19.0753125 31.91625 19.0753125 31.91625 18.5703125 30.90625 C16.08339223 30.51318989 16.08339223 30.51318989 13.1953125 30.40625 C9.31801535 30.20164329 7.87817266 30.11149011 4.5703125 27.90625 C3.47265625 25.55859375 3.47265625 25.55859375 2.5078125 22.84375 C1.42326185 19.1195316 1.42326185 19.1195316 -1.4296875 16.90625 Z " fill="#3E91F8" transform="translate(53.4296875,20.09375)"/>
<path d="M0 0 C3.66332131 1.4135148 3.88399444 1.98358102 5.484375 5.3984375 C6.18846788 7.14007102 6.86732523 8.89207367 7.5234375 10.65234375 C8.05517578 11.97975586 8.05517578 11.97975586 8.59765625 13.33398438 C11.1484375 19.79957469 11.1484375 19.79957469 11.1484375 22.21484375 C11.72811279 22.22942627 12.30778809 22.24400879 12.9050293 22.2590332 C15.54931303 22.33382903 18.19237752 22.43038273 20.8359375 22.52734375 C21.74794922 22.54990234 22.65996094 22.57246094 23.59960938 22.59570312 C28.56474324 22.79430848 32.08963669 23.02761701 36.1484375 26.21484375 C35.9107049 30.13743165 35.54473315 31.81015747 32.75 34.6640625 C31.76773438 35.40269531 30.78546875 36.14132813 29.7734375 36.90234375 C25.94280109 39.76777927 25.94280109 39.76777927 22.421875 42.984375 C21.1484375 44.21484375 21.1484375 44.21484375 19.1484375 44.21484375 C19.31037598 44.82481201 19.47231445 45.43478027 19.63916016 46.06323242 C20.36653956 48.8390367 21.07015323 51.62034163 21.7734375 54.40234375 C22.02867187 55.36205078 22.28390625 56.32175781 22.546875 57.31054688 C22.89492187 58.70756836 22.89492187 58.70756836 23.25 60.1328125 C23.57991943 61.41321411 23.57991943 61.41321411 23.91650391 62.71948242 C24.19707453 65.73812701 23.45470947 67.51563776 22.1484375 70.21484375 C15.52552738 70.96209636 11.85373805 67.86454372 6.62695312 64.32617188 C2.91318269 61.87166579 2.91318269 61.87166579 -1.3828125 61.18359375 C-5.36823195 62.84838922 -8.95547997 65.11521398 -12.59179688 67.41992188 C-16.51715004 69.79229379 -19.26703974 70.75460127 -23.8515625 70.21484375 C-24.8515625 69.21484375 -24.8515625 69.21484375 -25.1015625 66.46484375 C-25.06116786 61.59728909 -23.71061004 56.98946424 -22.5078125 52.30078125 C-21.53201148 48.25856135 -21.53201148 48.25856135 -21.8515625 44.21484375 C-23.91070674 41.92195459 -26.29119155 40.0926053 -28.7265625 38.21484375 C-37.0082306 31.7535027 -37.0082306 31.7535027 -37.8515625 27.21484375 C-35.8515625 24.21484375 -35.8515625 24.21484375 -32.65625 23.51953125 C-31.35945312 23.37773438 -30.06265625 23.2359375 -28.7265625 23.08984375 C-27.44523438 22.94289063 -26.16390625 22.7959375 -24.84375 22.64453125 C-24.19760742 22.57588867 -23.55146484 22.50724609 -22.88574219 22.43652344 C-19.53568486 22.07144278 -16.19456573 21.63923392 -12.8515625 21.21484375 C-12.61969238 20.64975098 -12.38782227 20.0846582 -12.14892578 19.50244141 C-11.0966189 16.9460877 -10.03669353 14.39296208 -8.9765625 11.83984375 C-8.61175781 10.95039063 -8.24695313 10.0609375 -7.87109375 9.14453125 C-7.51660156 8.29375 -7.16210938 7.44296875 -6.796875 6.56640625 C-6.47219238 5.78088379 -6.14750977 4.99536133 -5.81298828 4.18603516 C-4.29648134 1.07677232 -3.50327484 0.26394536 0 0 Z M-0.8515625 17.21484375 C-1.26148438 18.06949219 -1.67140625 18.92414062 -2.09375 19.8046875 C-2.63257813 20.90941406 -3.17140625 22.01414062 -3.7265625 23.15234375 C-4.26023437 24.25449219 -4.79390625 25.35664062 -5.34375 26.4921875 C-6.8515625 29.21484375 -6.8515625 29.21484375 -8.8515625 30.21484375 C-10.72213041 30.44234525 -12.59842208 30.62447186 -14.4765625 30.77734375 C-15.47945312 30.86113281 -16.48234375 30.94492187 -17.515625 31.03125 C-18.28648437 31.09183594 -19.05734375 31.15242188 -19.8515625 31.21484375 C-19.8515625 32.20484375 -19.8515625 33.19484375 -19.8515625 34.21484375 C-18.02558637 35.76128572 -18.02558637 35.76128572 -15.7890625 37.27734375 C-11.95573588 40.45603536 -11.95573588 40.45603536 -11.5078125 43.71875 C-11.78358258 46.28877396 -12.23296639 48.70656364 -12.8515625 51.21484375 C-13.0371875 52.24609375 -13.2228125 53.27734375 -13.4140625 54.33984375 C-13.630625 55.26796875 -13.630625 55.26796875 -13.8515625 56.21484375 C-10.75635885 55.08931515 -8.14993786 53.76444176 -5.4140625 51.96484375 C-1.8515625 50.21484375 -1.8515625 50.21484375 1.0859375 50.71484375 C2.0965625 51.20984375 3.1071875 51.70484375 4.1484375 52.21484375 C4.85871094 52.55773437 5.56898438 52.900625 6.30078125 53.25390625 C8.26543558 54.21379009 10.21080953 55.20176923 12.1484375 56.21484375 C11.94605469 55.26222656 11.74367187 54.30960938 11.53515625 53.328125 C11.30441406 52.07386719 11.07367188 50.81960937 10.8359375 49.52734375 C10.59230469 48.28597656 10.34867188 47.04460937 10.09765625 45.765625 C10.1484375 42.21484375 10.1484375 42.21484375 12.4609375 39.43359375 C13.3478125 38.70140625 14.2346875 37.96921875 15.1484375 37.21484375 C16.50399043 35.5661983 17.84475403 33.9048038 19.1484375 32.21484375 C17.05649875 30.122905 12.64666707 30.8334885 9.8125 30.69140625 C6.76131636 30.14559334 5.93707119 29.69935925 4.1484375 27.21484375 C2.98046875 24.734375 2.98046875 24.734375 1.9609375 22.02734375 C1.61675781 21.12628906 1.27257812 20.22523437 0.91796875 19.296875 C0.66402344 18.60980469 0.41007812 17.92273438 0.1484375 17.21484375 C-0.1815625 17.21484375 -0.5115625 17.21484375 -0.8515625 17.21484375 Z " fill="#3E85F8" transform="translate(203.8515625,19.78515625)"/>
</svg>
