<?xml version="1.0" encoding="UTF-8"?>
<svg version="1.1" xmlns="http://www.w3.org/2000/svg" width="256" height="256">
<path d="M0 0 C22.03852652 18.81159856 36.46579334 41.06373377 44.3515625 68.91015625 C44.69316406 70.08835937 45.03476563 71.2665625 45.38671875 72.48046875 C52.92056498 104.36791093 46.53869956 140.38566089 29.7109375 168.21484375 C19.22380228 184.89578124 5.20171214 199.62660904 -11.6484375 209.91015625 C-12.7209375 210.59335938 -13.7934375 211.2765625 -14.8984375 211.98046875 C-42.75922794 228.94201478 -78.25061189 233.92648545 -110.03027344 226.74707031 C-117.81941729 224.77736357 -125.2980262 222.14033195 -132.6484375 218.91015625 C-133.30263672 218.62688477 -133.95683594 218.34361328 -134.63085938 218.05175781 C-164.72593234 204.76588414 -188.43262339 179.18859339 -200.51953125 148.71386719 C-202.47890077 143.51521742 -204.1350825 138.25415274 -205.6484375 132.91015625 C-205.99003906 131.73195312 -206.33164063 130.55375 -206.68359375 129.33984375 C-214.21743998 97.45240157 -207.83557456 61.43465161 -191.0078125 33.60546875 C-172.71931393 4.51560818 -145.47270495 -14.79440926 -112.6484375 -24.08984375 C-111.47023438 -24.43144531 -110.29203125 -24.77304687 -109.078125 -25.125 C-71.91216204 -33.90596927 -29.43835184 -24.14652242 0 0 Z M-76.6484375 21.91015625 C-77.52666062 23.99549258 -77.52666062 23.99549258 -77.6484375 25.91015625 C-78.5146875 25.41515625 -79.3809375 24.92015625 -80.2734375 24.41015625 C-83.85672965 22.81758196 -85.78841752 22.41738774 -89.6484375 22.91015625 C-92.48703555 24.02933565 -92.48703555 24.02933565 -94.6484375 25.91015625 C-95.52666062 27.99549258 -95.52666062 27.99549258 -95.6484375 29.91015625 C-96.5146875 29.41515625 -97.3809375 28.92015625 -98.2734375 28.41015625 C-101.90953287 26.79411386 -103.73851841 26.25850307 -107.6484375 26.91015625 C-110.56865022 28.74805237 -113.08051599 30.77431324 -114.6484375 33.91015625 C-114.72025571 36.62775733 -114.74143256 39.31875013 -114.7109375 42.03515625 C-114.70642578 42.78925781 -114.70191406 43.54335937 -114.69726562 44.3203125 C-114.68547249 46.18362752 -114.66753692 48.0469018 -114.6484375 49.91015625 C-113.9884375 49.91015625 -113.3284375 49.91015625 -112.6484375 49.91015625 C-112.58785156 48.87375 -112.52726562 47.83734375 -112.46484375 46.76953125 C-112.38040379 45.39972752 -112.29575753 44.0299365 -112.2109375 42.66015625 C-112.17162109 41.97824219 -112.13230469 41.29632813 -112.09179688 40.59375 C-111.88177278 37.26567584 -111.62909748 34.10760223 -110.6484375 30.91015625 C-103.38527961 29.69962993 -103.38527961 29.69962993 -100.4609375 30.53515625 C-97.83126897 32.5300772 -97.84614478 34.32658742 -97.3984375 37.53515625 C-97.24890625 38.53804687 -97.099375 39.5409375 -96.9453125 40.57421875 C-96.79835938 41.73050781 -96.79835938 41.73050781 -96.6484375 42.91015625 C-95.9884375 42.91015625 -95.3284375 42.91015625 -94.6484375 42.91015625 C-94.59945312 42.0903125 -94.55046875 41.27046875 -94.5 40.42578125 C-94.42523438 39.348125 -94.35046875 38.27046875 -94.2734375 37.16015625 C-94.20382813 36.0928125 -94.13421875 35.02546875 -94.0625 33.92578125 C-93.66970018 31.06501278 -93.30384487 29.26083472 -91.6484375 26.91015625 C-88.32369697 26.04818648 -85.83046833 25.55769615 -82.5 26.55078125 C-80.6484375 27.91015625 -80.6484375 27.91015625 -79.8203125 30.51171875 C-79.68109375 31.50945313 -79.541875 32.5071875 -79.3984375 33.53515625 C-79.24890625 34.53804687 -79.099375 35.5409375 -78.9453125 36.57421875 C-78.79835938 37.73050781 -78.79835938 37.73050781 -78.6484375 38.91015625 C-77.9884375 38.91015625 -77.3284375 38.91015625 -76.6484375 38.91015625 C-76.59945312 38.00652344 -76.55046875 37.10289063 -76.5 36.171875 C-76.42523438 34.99238281 -76.35046875 33.81289063 -76.2734375 32.59765625 C-76.20382813 31.42589844 -76.13421875 30.25414062 -76.0625 29.046875 C-75.6484375 25.91015625 -75.6484375 25.91015625 -73.6484375 22.91015625 C-70.20268623 22.08062354 -67.6886573 21.58166579 -64.2734375 22.66015625 C-62.6484375 23.91015625 -62.6484375 23.91015625 -61.6484375 26.91015625 C-61.42517936 28.96909246 -61.24137991 31.03249278 -61.0859375 33.09765625 C-61.00214844 34.18433594 -60.91835937 35.27101563 -60.83203125 36.390625 C-60.77144531 37.22207031 -60.71085937 38.05351563 -60.6484375 38.91015625 C-59.9884375 38.91015625 -59.3284375 38.91015625 -58.6484375 38.91015625 C-58.59945312 38.00652344 -58.55046875 37.10289063 -58.5 36.171875 C-58.42523438 34.99238281 -58.35046875 33.81289063 -58.2734375 32.59765625 C-58.20382813 31.42589844 -58.13421875 30.25414062 -58.0625 29.046875 C-57.6484375 25.91015625 -57.6484375 25.91015625 -55.6484375 22.91015625 C-51.72833251 22.03902181 -48.47821292 21.5314371 -44.6484375 22.91015625 C-43.52977995 26.55674102 -43.44472858 30.06377135 -43.33203125 33.86328125 C-43.31125015 34.52350281 -43.29046906 35.18372437 -43.26905823 35.86395264 C-43.20393603 37.9625864 -43.14485248 40.06133997 -43.0859375 42.16015625 C-43.04271671 43.58725172 -42.9991013 45.0143353 -42.95507812 46.44140625 C-42.84829339 49.93086347 -42.74692184 53.42045378 -42.6484375 56.91015625 C-41.9884375 56.91015625 -41.3284375 56.91015625 -40.6484375 56.91015625 C-40.3184375 52.62015625 -39.9884375 48.33015625 -39.6484375 43.91015625 C-28.13165898 52.76921665 -28.13165898 52.76921665 -27.3125 58.09375 C-27.29316406 59.20943359 -27.29316406 59.20943359 -27.2734375 60.34765625 C-27.24507813 61.08886719 -27.21671875 61.83007812 -27.1875 62.59375 C-28.2429494 67.89783046 -32.85635815 71.08613917 -36.8984375 74.28515625 C-37.86136719 75.06117187 -38.82429688 75.8371875 -39.81640625 76.63671875 C-40.75097656 77.38695312 -41.68554688 78.1371875 -42.6484375 78.91015625 C-49.22780317 83.79801779 -49.22780317 83.79801779 -52.6484375 90.91015625 C-52.36103825 93.15256407 -52.36103825 93.15256407 -51.6484375 94.91015625 C-49.41508945 92.97860311 -49.41508945 92.97860311 -48.6484375 89.84765625 C-45.55659273 82.35886641 -37.45489671 77.51848017 -31.2109375 72.78515625 C-26.97496917 69.42169083 -24.900171 67.20595183 -23.6484375 61.91015625 C-23.43145656 55.94318031 -25.74999234 53.04567831 -29.59765625 48.85546875 C-31.59210708 46.87258895 -31.59210708 46.87258895 -33.85546875 45.33984375 C-37.56805882 42.67748186 -39.43177408 41.22396637 -40.19921875 36.5703125 C-40.28970981 34.10637028 -40.35133928 31.64118372 -40.3828125 29.17578125 C-40.7640309 24.48903744 -42.14044362 22.90478518 -45.6484375 19.91015625 C-48.46845077 18.50014961 -50.51851005 18.66467174 -53.6484375 18.91015625 C-56.5037351 20.15487606 -56.5037351 20.15487606 -58.6484375 21.91015625 C-58.6484375 22.57015625 -58.6484375 23.23015625 -58.6484375 23.91015625 C-59.08414063 23.54921875 -59.51984375 23.18828125 -59.96875 22.81640625 C-62.95763854 20.4874022 -64.97487252 19.01792665 -68.7734375 18.41015625 C-72.07986855 18.98518774 -74.02746607 19.8133791 -76.6484375 21.91015625 Z M-143.6484375 62.91015625 C-144.87853274 64.96121162 -144.87853274 64.96121162 -144.5078125 67.74609375 C-144.22295914 76.96313469 -144.22295914 76.96313469 -146.91894531 80.64550781 C-149.59281066 83.43167881 -152.51728237 85.80711514 -155.546875 88.19140625 C-158.63280222 90.6919062 -160.23211077 93.14691988 -161.6484375 96.91015625 C-161.5543051 102.18157042 -160.23847274 106.0765759 -156.6484375 109.91015625 C-153.0807281 113.03620387 -149.37180393 115.97254853 -145.6484375 118.91015625 C-144.11572562 120.1244787 -142.59333815 121.35205278 -141.0859375 122.59765625 C-140.15587891 123.34595703 -140.15587891 123.34595703 -139.20703125 124.109375 C-134.62649527 129.40167347 -135.30747181 136.62829231 -135.234375 143.21484375 C-135.21500885 144.29396027 -135.1956427 145.37307678 -135.1756897 146.4848938 C-135.11609808 149.9182352 -135.06958989 153.35161049 -135.0234375 156.78515625 C-134.98523897 159.11850389 -134.94618615 161.45183771 -134.90625 163.78515625 C-134.81041333 169.49336657 -134.72530638 175.20166069 -134.6484375 180.91015625 C-136.6284375 181.40515625 -136.6284375 181.40515625 -138.6484375 181.91015625 C-137.61870275 183.16265567 -137.61870275 183.16265567 -135.40220642 183.03041077 C-134.40959305 183.02819016 -133.41697968 183.02596954 -132.39428711 183.02368164 C-130.71265724 183.02356834 -130.71265724 183.02356834 -128.99705505 183.02345276 C-127.7772847 183.01829147 -126.55751434 183.01313019 -125.30078125 183.0078125 C-124.05921768 183.00639755 -122.81765411 183.0049826 -121.53846741 183.00352478 C-118.23238259 182.99886216 -114.92636604 182.98987122 -111.62030029 182.9788208 C-108.248826 182.96860452 -104.87734467 182.9640267 -101.50585938 182.95898438 C-94.88669975 182.9479302 -88.26757257 182.93117361 -81.6484375 182.91015625 C-81.64701248 182.28232742 -81.64558746 181.6544986 -81.64411926 181.00764465 C-81.62442422 174.46974059 -81.57015445 167.93277042 -81.49584961 161.39526367 C-81.47266061 158.95587872 -81.45827182 156.51639351 -81.45288086 154.0769043 C-81.44359844 150.5688625 -81.40261968 147.06239953 -81.35546875 143.5546875 C-81.3594014 142.46493118 -81.36333405 141.37517487 -81.36738586 140.25239563 C-81.22086288 132.63887207 -81.22086288 132.63887207 -78.24487305 128.8503418 C-77.38804932 128.21008057 -76.53122559 127.56981934 -75.6484375 126.91015625 C-72.26986493 122.87463902 -70.53135202 120.70830814 -70.48730469 115.44799805 C-70.47769714 114.52331223 -70.4680896 113.5986264 -70.45819092 112.6459198 C-70.45394104 111.64386002 -70.44969116 110.64180023 -70.4453125 109.609375 C-70.43961243 108.58084915 -70.43391235 107.5523233 -70.42803955 106.49263 C-70.41858131 104.31288688 -70.41205231 102.13312939 -70.40820312 99.95336914 C-70.39850733 96.62165273 -70.36749534 93.29055565 -70.3359375 89.95898438 C-70.32940657 87.84245158 -70.32415645 85.72591438 -70.3203125 83.609375 C-70.3017923 82.11539436 -70.3017923 82.11539436 -70.28289795 80.5912323 C-70.29464586 73.7583736 -70.29464586 73.7583736 -73.6484375 67.91015625 C-76.87175681 65.57602847 -79.74775076 65.52008758 -83.6484375 65.91015625 C-86.94944881 67.3094057 -86.94944881 67.3094057 -89.6484375 68.91015625 C-89.8959375 68.12640625 -90.1434375 67.34265625 -90.3984375 66.53515625 C-91.41752734 63.87173094 -91.41752734 63.87173094 -93.3984375 62.59765625 C-97.8206507 61.24642444 -100.79887449 61.53257269 -105.0234375 63.41015625 C-105.8896875 63.90515625 -106.7559375 64.40015625 -107.6484375 64.91015625 C-107.8959375 64.12640625 -108.1434375 63.34265625 -108.3984375 62.53515625 C-109.41752734 59.87173094 -109.41752734 59.87173094 -111.3984375 58.59765625 C-114.45028343 57.66514777 -116.45726782 57.47215257 -119.6484375 57.91015625 C-122.16560326 59.36373084 -124.41235507 61.05778027 -126.6484375 62.91015625 C-127.1434375 61.42515625 -127.1434375 61.42515625 -127.6484375 59.91015625 C-134.01734825 55.42833017 -138.75353488 58.12908857 -143.6484375 62.91015625 Z M-52.6484375 103.91015625 C-53.52666062 105.99549258 -53.52666062 105.99549258 -53.6484375 107.91015625 C-54.5765625 107.41515625 -55.5046875 106.92015625 -56.4609375 106.41015625 C-59.51371266 104.69725773 -59.51371266 104.69725773 -62.6484375 104.91015625 C-62.6484375 105.57015625 -62.6484375 106.23015625 -62.6484375 106.91015625 C-60.6684375 107.57015625 -58.6884375 108.23015625 -56.6484375 108.91015625 C-55.9884375 112.87015625 -55.3284375 116.83015625 -54.6484375 120.91015625 C-53.9884375 120.91015625 -53.3284375 120.91015625 -52.6484375 120.91015625 C-52.59945312 120.00652344 -52.55046875 119.10289062 -52.5 118.171875 C-52.42523438 116.99238281 -52.35046875 115.81289062 -52.2734375 114.59765625 C-52.20382813 113.42589844 -52.13421875 112.25414062 -52.0625 111.046875 C-51.6484375 107.91015625 -51.6484375 107.91015625 -49.6484375 104.91015625 C-45.40814601 103.96786925 -42.90029837 103.84719103 -38.6484375 104.91015625 C-37.9884375 110.19015625 -37.3284375 115.47015625 -36.6484375 120.91015625 C-35.9884375 120.91015625 -35.3284375 120.91015625 -34.6484375 120.91015625 C-34.59945312 120.00652344 -34.55046875 119.10289062 -34.5 118.171875 C-34.42523438 116.99238281 -34.35046875 115.81289062 -34.2734375 114.59765625 C-34.20382813 113.42589844 -34.13421875 112.25414062 -34.0625 111.046875 C-33.6484375 107.91015625 -33.6484375 107.91015625 -31.6484375 104.91015625 C-27.72833251 104.03902181 -24.47821292 103.5314371 -20.6484375 104.91015625 C-19.52977995 108.55674102 -19.44472858 112.06377135 -19.33203125 115.86328125 C-19.31125015 116.52350281 -19.29046906 117.18372437 -19.26905823 117.86395264 C-19.20393603 119.9625864 -19.14485248 122.06133997 -19.0859375 124.16015625 C-19.04271671 125.58725172 -18.9991013 127.0143353 -18.95507812 128.44140625 C-18.84829339 131.93086347 -18.74692184 135.42045378 -18.6484375 138.91015625 C-17.9884375 138.91015625 -17.3284375 138.91015625 -16.6484375 138.91015625 C-16.3184375 134.62015625 -15.9884375 130.33015625 -15.6484375 125.91015625 C-3.90847446 136.29550817 -3.90847446 136.29550817 -3.3125 139.99609375 C-3.29316406 141.12917969 -3.29316406 141.12917969 -3.2734375 142.28515625 C-3.24507813 143.03539062 -3.21671875 143.785625 -3.1875 144.55859375 C-4.23227791 149.8887319 -8.83849822 153.0720043 -12.8984375 156.28515625 C-14.34283203 157.44917969 -14.34283203 157.44917969 -15.81640625 158.63671875 C-16.75097656 159.38695312 -17.68554688 160.1371875 -18.6484375 160.91015625 C-25.22696711 165.80771996 -25.22696711 165.80771996 -28.6484375 172.91015625 C-28.6484375 175.55015625 -28.6484375 178.19015625 -28.6484375 180.91015625 C-43.4984375 180.91015625 -58.3484375 180.91015625 -73.6484375 180.91015625 C-73.6484375 181.57015625 -73.6484375 182.23015625 -73.6484375 182.91015625 C-58.1384375 182.91015625 -42.6284375 182.91015625 -26.6484375 182.91015625 C-25.9884375 178.95015625 -25.3284375 174.99015625 -24.6484375 170.91015625 C-20.48706124 164.06402111 -13.07395758 159.19590456 -6.70703125 154.46875 C-2.74678559 151.4613454 -0.93169463 148.72237048 0.3515625 143.91015625 C0.382192 138.24369901 -1.47057058 134.66341409 -5.3984375 130.66015625 C-7.35203048 128.83110927 -9.18999767 127.19091383 -11.47265625 125.79296875 C-13.0859375 124.78515625 -13.0859375 124.78515625 -15.6484375 121.91015625 C-16.10878064 118.34466834 -16.21458707 114.83874512 -16.3125 111.24609375 C-16.78678529 106.53633053 -18.11264676 104.9285142 -21.6484375 101.91015625 C-24.46845077 100.50014961 -26.51851005 100.66467174 -29.6484375 100.91015625 C-32.5037351 102.15487606 -32.5037351 102.15487606 -34.6484375 103.91015625 C-34.6484375 104.57015625 -34.6484375 105.23015625 -34.6484375 105.91015625 C-35.08414063 105.54921875 -35.51984375 105.18828125 -35.96875 104.81640625 C-38.95763854 102.4874022 -40.97487252 101.01792665 -44.7734375 100.41015625 C-48.07986855 100.98518774 -50.02746607 101.8133791 -52.6484375 103.91015625 Z " fill="#00A8F4" transform="translate(208.6484375,27.08984375)"/>
<path d="M0 0 C2.51226303 2.40854575 2.97596173 3.73461744 3.29296875 7.234375 C3.25816406 8.39453125 3.22335938 9.5546875 3.1875 10.75 C3.14689453 12.50570312 3.14689453 12.50570312 3.10546875 14.296875 C3.07066406 15.18890625 3.03585938 16.0809375 3 17 C3.66 17 4.32 17 5 17 C4.94779297 15.78763672 4.94779297 15.78763672 4.89453125 14.55078125 C4.86746094 13.48214844 4.84039062 12.41351563 4.8125 11.3125 C4.76029297 9.72888672 4.76029297 9.72888672 4.70703125 8.11328125 C5.03931829 4.58217769 5.82192778 2.77891972 8 0 C11.98548426 -1.18088423 14.06682223 -1.42601594 17.875 0.3125 C20 2 20 2 21 4 C21.07092842 6.2072923 21.08415025 8.41667452 21.0625 10.625 C21.05347656 11.81351563 21.04445312 13.00203125 21.03515625 14.2265625 C21.02355469 15.14179687 21.01195312 16.05703125 21 17 C21.66 17 22.32 17 23 17 C22.938125 15.783125 22.87625 14.56625 22.8125 13.3125 C22.84027506 9.39621619 23.22218937 6.95702422 26 4 C29.98548426 2.81911577 32.06682223 2.57398406 35.875 4.3125 C38 6 38 6 39 8 C39.07092842 10.2072923 39.08415025 12.41667452 39.0625 14.625 C39.05347656 15.81351563 39.04445313 17.00203125 39.03515625 18.2265625 C39.02355469 19.14179687 39.01195313 20.05703125 39 21 C39.66 21 40.32 21 41 21 C40.938125 19.783125 40.87625 18.56625 40.8125 17.3125 C40.84027506 13.39621619 41.22218937 10.95702422 44 8 C47.95485583 6.82819086 50.06892942 6.5951867 53.875 8.25 C56 10 56 10 57 13 C57.10084121 14.46154015 57.14827048 15.92713144 57.16113281 17.39208984 C57.17074036 18.27665863 57.1803479 19.16122742 57.19024658 20.07260132 C57.19449646 21.02575226 57.19874634 21.9789032 57.203125 22.9609375 C57.20882507 23.94365631 57.21452515 24.92637512 57.22039795 25.93887329 C57.22984519 28.01848271 57.23638083 30.09810707 57.24023438 32.17773438 C57.24994116 35.35573481 57.28096786 38.53308882 57.3125 41.7109375 C57.31903011 43.73176699 57.32428055 45.75260111 57.328125 47.7734375 C57.3404718 48.72253998 57.3528186 49.67164246 57.36553955 50.64950562 C57.3488778 55.59552965 57.23672714 58.98840178 54 63 C52.4296875 64.51171875 52.4296875 64.51171875 50.875 65.6875 C47.98461218 67.68356337 47.98461218 67.68356337 47 70 C46.88143364 71.6027098 46.82293876 73.21005353 46.79467773 74.81689453 C46.77473251 75.81778107 46.75478729 76.8186676 46.73423767 77.84988403 C46.71752518 78.93325043 46.70081268 80.01661682 46.68359375 81.1328125 C46.6524221 82.79327103 46.6524221 82.79327103 46.62062073 84.48727417 C46.55509009 88.03311799 46.49622386 91.57903754 46.4375 95.125 C46.39431813 97.5247475 46.35070395 99.92448727 46.30664062 102.32421875 C46.19858939 108.21606925 46.09954176 114.10797492 46 120 C29.83 120 13.66 120 -3 120 C-3.03738281 116.38804687 -3.07476562 112.77609375 -3.11328125 109.0546875 C-3.15951539 105.54974369 -3.21074234 102.04490587 -3.26245117 98.54003906 C-3.29566947 96.1074876 -3.32371099 93.67485963 -3.34643555 91.2421875 C-3.38003758 87.74185642 -3.43235834 84.24222445 -3.48828125 80.7421875 C-3.49467117 79.65759247 -3.5010611 78.57299744 -3.50764465 77.45553589 C-3.63370318 70.95584172 -4.10188962 66.20390206 -8.63818359 61.18896484 C-9.50950928 60.45734131 -9.50950928 60.45734131 -10.3984375 59.7109375 C-11.04296875 59.16179687 -11.6875 58.61265625 -12.3515625 58.046875 C-13.01929687 57.49515625 -13.68703125 56.9434375 -14.375 56.375 C-15.035 55.81554687 -15.695 55.25609375 -16.375 54.6796875 C-19.16150703 52.32614371 -21.96868712 50.02427821 -24.8515625 47.7890625 C-27.28749014 45.76059912 -28.83739244 44.12769397 -29.30078125 40.9140625 C-29.32556546 36.07287971 -29.23375634 32.84008566 -26 29 C-19.20261438 22.40087146 -19.20261438 22.40087146 -15 21 C-15 25.62 -15 30.24 -15 35 C-14.34 35 -13.68 35 -13 35 C-13.01047363 34.1121582 -13.02094727 33.22431641 -13.03173828 32.30957031 C-13.06587756 29.00713493 -13.09092668 25.70488782 -13.10986328 22.40234375 C-13.11990427 20.97457922 -13.13353981 19.54683517 -13.15087891 18.11914062 C-13.17521152 16.06375059 -13.18650202 14.00863308 -13.1953125 11.953125 C-13.20578613 10.71723633 -13.21625977 9.48134766 -13.22705078 8.20800781 C-13.01113099 5.15727016 -12.67009017 3.51669684 -11 1 C-7.44020669 -1.76872813 -4.1946238 -1.06772242 0 0 Z " fill="#00BAF8" transform="translate(79,88)"/>
</svg>
