<?xml version="1.0" encoding="UTF-8"?>
<svg version="1.1" xmlns="http://www.w3.org/2000/svg" width="256" height="256">
<path d="M0 0 C4.39826272 3.06855539 7.57625224 6.88477803 9.6875 11.875 C10.22632813 11.55273438 10.76515625 11.23046875 11.3203125 10.8984375 C15.87343369 8.92992636 20.83128296 9.34771638 25.6875 9.875 C30.70541684 12.29435276 34.18708655 15.8741731 36.6875 20.875 C37.450625 20.545 38.21375 20.215 39 19.875 C45.26437847 18.1761855 51.2442047 17.63114057 57.125 20.625 C57.970625 21.3675 58.81625 22.11 59.6875 22.875 C60.43 23.49375 61.1725 24.1125 61.9375 24.75 C66.43645148 30.21301252 66.00811175 36.78129825 66.0234375 43.49609375 C66.0334227 45.02327782 66.0334227 45.02327782 66.04360962 46.58131409 C66.05370843 48.72875163 66.0584275 50.87622038 66.05810547 53.02368164 C66.06248091 56.29821683 66.09883717 59.57140588 66.13671875 62.84570312 C66.14258712 64.93749542 66.14655638 67.02929407 66.1484375 69.12109375 C66.16280853 70.09421005 66.17717957 71.06732635 66.19198608 72.06993103 C66.15129138 78.16151513 65.44450686 81.98610088 61.6875 86.875 C59.4375 87.8125 59.4375 87.8125 57.6875 87.875 C57.70844727 88.84211914 57.72939453 89.80923828 57.75097656 90.80566406 C57.82428849 94.45101661 57.86962465 98.09630647 57.90722656 101.7421875 C57.92713732 103.30935686 57.95427635 104.87645397 57.98925781 106.44335938 C58.30838038 121.12299742 56.00903596 132.98640042 46.6875 144.875 C42.72133286 148.98185888 38.83479801 152.38780084 33.6875 154.875 C33.67719254 155.5492955 33.66688507 156.223591 33.65626526 156.9183197 C33.54844231 163.90943582 33.43382557 170.90041667 33.31518555 177.89135742 C33.27175876 180.50363344 33.23008962 183.11593928 33.19018555 185.72827148 C33.13266993 189.47388719 33.06892236 193.21935169 33.00390625 196.96484375 C32.98719376 198.14086655 32.97048126 199.31688934 32.95326233 200.52854919 C32.9233445 202.15011681 32.9233445 202.15011681 32.89282227 203.80444336 C32.87727798 204.76152695 32.8617337 205.71861053 32.84571838 206.70469666 C32.6875 208.875 32.6875 208.875 31.6875 209.875 C28.97911914 209.97014592 26.29631487 210.00054932 23.58764648 209.98852539 C22.73893982 209.98867142 21.89023315 209.98881744 21.01580811 209.9889679 C18.19671109 209.98826848 15.37767929 209.98047478 12.55859375 209.97265625 C10.60946183 209.97079217 8.66032945 209.96936822 6.7111969 209.96836853 C1.57043168 209.96454255 -3.57030547 209.95471159 -8.71105957 209.94366455 C-14.87341482 209.93165796 -21.03577942 209.92704857 -27.19814301 209.92121124 C-36.56961488 209.91149987 -45.94102513 209.89234388 -55.3125 209.875 C-55.3125 191.725 -55.3125 173.575 -55.3125 154.875 C-56.9625 154.215 -58.6125 153.555 -60.3125 152.875 C-71.03303138 146.20781441 -77.9005846 135.87798503 -80.84684753 123.65888977 C-81.39099261 120.40573422 -81.4626238 117.30765571 -81.48950195 114.00854492 C-81.49607315 113.33791519 -81.50264435 112.66728546 -81.50941467 111.97633362 C-81.52903431 109.7693773 -81.54078404 107.56248862 -81.55078125 105.35546875 C-81.55485678 104.59775995 -81.5589323 103.84005116 -81.56313133 103.05938148 C-81.58394259 99.04960025 -81.59826625 95.03985275 -81.60766602 91.0300293 C-81.61872748 86.90430614 -81.65313805 82.77912272 -81.69283772 78.6535902 C-81.71906576 75.46640568 -81.72736323 72.27934874 -81.73094749 69.09206581 C-81.73579653 67.57191632 -81.74736224 66.05177189 -81.76598549 64.53172874 C-81.8718749 55.31726271 -81.75587893 48.2401988 -75.63671875 40.8515625 C-68.66966686 35.09834065 -62.10373165 34.55660529 -53.3125 34.875 C-53.34730469 34.00617188 -53.38210937 33.13734375 -53.41796875 32.2421875 C-53.69644794 20.38693059 -53.69644794 20.38693059 -50.3125 15.875 C-45.80874192 11.49134214 -42.78379299 9.72624102 -36.5 9.6875 C-35.46230469 9.67332031 -34.42460938 9.65914062 -33.35546875 9.64453125 C-30.27479467 9.87785573 -28.09488408 10.57381114 -25.3125 11.875 C-24.8175 10.658125 -24.3225 9.44125 -23.8125 8.1875 C-18.97260328 -1.339989 -9.67657114 -3.28638265 0 0 Z M-17.3125 8.875 C-19.30639913 11.99639661 -19.55045506 14.41086494 -19.5078125 18.078125 C-19.50136719 19.0578125 -19.49492188 20.0375 -19.48828125 21.046875 C-19.47152344 22.06265625 -19.45476562 23.0784375 -19.4375 24.125 C-19.42847656 25.15625 -19.41945312 26.1875 -19.41015625 27.25 C-19.38662011 29.79190287 -19.35374023 32.3333328 -19.3125 34.875 C-18.69689209 35.06328369 -18.08128418 35.25156738 -17.44702148 35.44555664 C-16.23381226 35.83022095 -16.23381226 35.83022095 -14.99609375 36.22265625 C-14.19486084 36.47281494 -13.39362793 36.72297363 -12.56811523 36.98071289 C-8.66995635 38.52622171 -6.31637878 41.18649717 -4.20703125 44.734375 C-2.34851921 49.18181867 -2.4410006 54.45816146 -4.0703125 58.9765625 C-6.36528691 63.22316868 -8.69279628 66.0790131 -13.34375 67.4921875 C-15.32173117 68.00061224 -17.31653307 68.4425405 -19.3125 68.875 C-19.42183628 70.26903756 -19.49869553 71.66563776 -19.5625 73.0625 C-19.60890625 73.83980469 -19.6553125 74.61710937 -19.703125 75.41796875 C-19.14289439 78.94181927 -17.92298791 80.46661438 -15.3125 82.875 C-11.95795916 83.62867903 -11.95795916 83.62867903 -8.3125 83.4375 C-6.4871875 83.43943359 -6.4871875 83.43943359 -4.625 83.44140625 C-0.68118055 82.76705033 0.2740632 82.00292094 2.6875 78.875 C3.29234037 75.85689786 3.29234037 75.85689786 3.20507812 72.45751953 C3.21768677 71.15581818 3.23029541 69.85411682 3.24328613 68.51296997 C3.23612482 67.09457865 3.22792046 65.67619226 3.21875 64.2578125 C3.22144602 62.79816428 3.22532937 61.33851782 3.23034668 59.87887573 C3.2362404 56.82060639 3.22768608 53.76280475 3.20898438 50.70458984 C3.18623448 46.79485736 3.19929222 42.88622567 3.22327423 38.97653389 C3.23777072 35.96177979 3.2331081 32.94728396 3.22276306 29.93252182 C3.22010426 28.49169661 3.22333567 27.05084756 3.23268127 25.6100502 C3.24290378 23.59046156 3.22454548 21.57079022 3.20507812 19.55126953 C3.20189575 18.40417511 3.19871338 17.25708069 3.19543457 16.07522583 C2.48296075 11.58630685 0.50355585 8.20677429 -3.1875 5.5 C-9.12035337 3.75504313 -12.58399491 5.00622311 -17.3125 8.875 Z M-45.3125 19.875 C-48.13239159 24.76942719 -48.13239159 24.76942719 -47.3125 34.875 C-40.0525 34.875 -32.7925 34.875 -25.3125 34.875 C-24.67058884 24.77704088 -24.67058884 24.77704088 -29.3125 17.875 C-35.15269436 13.98153709 -40.61994706 14.90641453 -45.3125 19.875 Z M10.6875 19.875 C8.986591 23.40546502 8.43286925 26.23506531 8.4128418 30.13671875 C8.40330978 31.16128174 8.39377777 32.18584473 8.38395691 33.24145508 C8.38486832 34.3373999 8.38577972 35.43334473 8.38671875 36.5625 C8.38243362 37.69776123 8.3781485 38.83302246 8.37373352 40.00268555 C8.36799753 42.39989557 8.36748456 44.79712299 8.37182617 47.19433594 C8.37498847 50.86162963 8.35150867 54.52811835 8.32617188 58.1953125 C8.32389906 60.52604065 8.3231953 62.85677097 8.32421875 65.1875 C8.315009 66.28344482 8.30579926 67.37938965 8.29631042 68.50854492 C8.30253922 69.53310791 8.30876801 70.5576709 8.31518555 71.61328125 C8.31455612 72.51087158 8.3139267 73.40846191 8.3132782 74.33325195 C8.81349063 77.73073968 10.24518765 80.43268765 12.6875 82.875 C14.95367608 83.05383149 17.22721385 83.14302736 19.5 83.1875 C21.36591797 83.24357422 21.36591797 83.24357422 23.26953125 83.30078125 C27.3387735 82.79386993 28.1987827 82.04092951 30.6875 78.875 C31.2819823 76.29812881 31.2819823 76.29812881 31.18920898 73.45141602 C31.19858994 72.36671524 31.20797089 71.28201447 31.21763611 70.16444397 C31.20640213 68.99771652 31.19516815 67.83098907 31.18359375 66.62890625 C31.18504898 65.42564194 31.18650421 64.22237762 31.18800354 62.98265076 C31.18634366 60.43819762 31.17477262 57.89373455 31.15405273 55.34936523 C31.12513578 51.45578295 31.13343581 47.563565 31.14648438 43.66992188 C31.14024589 41.19791005 31.1318541 38.72590253 31.12109375 36.25390625 C31.12402939 35.08920303 31.12696503 33.92449982 31.12998962 32.72450256 C31.11730545 31.63664963 31.10462128 30.54879669 31.09155273 29.42797852 C31.08614975 28.4740773 31.08074677 27.52017609 31.07518005 26.53736877 C30.49977378 22.58580183 28.68681205 19.94833517 26 17.0625 C20.15924372 14.06319272 14.99795406 15.18421176 10.6875 19.875 Z M38.6875 29.875 C36.43433732 35.00257172 36.38082637 39.75741882 36.38671875 45.25390625 C36.38243362 46.14359604 36.3781485 47.03328583 36.37373352 47.94993591 C36.36801129 49.82330476 36.36747436 51.69669582 36.37182617 53.57006836 C36.37499376 56.43186256 36.35147462 59.29262969 36.32617188 62.15429688 C36.32389939 63.97916537 36.32319515 65.80403663 36.32421875 67.62890625 C36.315009 68.48110245 36.30579926 69.33329865 36.29631042 70.21131897 C36.3364447 75.37313147 36.8542618 79.0417618 40.6875 82.875 C42.95367608 83.05383149 45.22721385 83.14302736 47.5 83.1875 C49.36591797 83.24357422 49.36591797 83.24357422 51.26953125 83.30078125 C54.62767205 83.12803504 54.62767205 83.12803504 56.86572266 81.50219727 C59.72229987 77.3827082 59.27849144 73.31437705 59.25390625 68.4140625 C59.26010483 67.39073822 59.26630341 66.36741394 59.27268982 65.31307983 C59.27978989 63.14948477 59.27661076 60.9858351 59.26391602 58.82226562 C59.2500775 55.51850202 59.28408742 52.21758569 59.32226562 48.9140625 C59.3232171 46.80989514 59.32135647 44.70572425 59.31640625 42.6015625 C59.32966446 41.6170108 59.34292267 40.63245911 59.35658264 39.61807251 C59.29550714 35.0976999 59.18827775 31.87406421 56.28857422 28.26586914 C53.00198241 25.24488232 51.22695887 24.77975808 46.90625 24.578125 C42.86087078 25.11940814 41.36092986 26.81033651 38.6875 29.875 Z M-70.95703125 45.41015625 C-74.55612298 50.11666082 -75.43876034 52.19155884 -75.47363281 58.09375 C-75.48324036 59.4027124 -75.4928479 60.7116748 -75.50274658 62.06030273 C-75.50759732 63.49853338 -75.51187547 64.93676606 -75.515625 66.375 C-75.52137965 67.85034181 -75.52713734 69.32568361 -75.53289795 70.80102539 C-75.54341538 73.90137073 -75.54925171 77.00169011 -75.55273438 80.10205078 C-75.55818994 84.05157508 -75.58215097 88.00074951 -75.61070633 91.95016479 C-75.62945553 95.00275626 -75.63454501 98.05526601 -75.63607025 101.10791016 C-75.63907484 102.56219372 -75.64702818 104.01647661 -75.66025543 105.47070312 C-75.77734419 119.34574612 -73.60228399 130.7146001 -64.12109375 141.328125 C-54.98006159 150.19037769 -44.74982704 153.39751611 -32.3125 154.875 C-32.3125 156.195 -32.3125 157.515 -32.3125 158.875 C-39.10396026 159.09060191 -43.27608299 158.43864822 -50.3125 156.875 C-50.3125 172.385 -50.3125 187.895 -50.3125 203.875 C-25.2325 203.875 -0.1525 203.875 25.6875 203.875 C25.6875 188.695 25.6875 173.515 25.6875 157.875 C23.0475 158.205 20.4075 158.535 17.6875 158.875 C16.0217531 158.93415294 14.35409344 158.96354052 12.6875 158.9375 C11.5428125 158.92396484 11.5428125 158.92396484 10.375 158.91015625 C9.818125 158.89855469 9.26125 158.88695312 8.6875 158.875 C8.6875 157.555 8.6875 156.235 8.6875 154.875 C9.65429688 154.71644531 10.62109375 154.55789062 11.6171875 154.39453125 C24.94731306 152.06871099 36.26340716 147.77518858 44.51171875 136.34765625 C51.59858067 124.9366074 51.84749372 115.03428769 51.25 101.9375 C51.19779297 100.68130859 51.14558594 99.42511719 51.09179688 98.13085938 C50.96274235 95.04528299 50.8278033 91.96008195 50.6875 88.875 C49.72328125 88.82601562 48.7590625 88.77703125 47.765625 88.7265625 C46.50234375 88.65179688 45.2390625 88.57703125 43.9375 88.5 C42.68453125 88.43039063 41.4315625 88.36078125 40.140625 88.2890625 C37.07751879 87.92176696 35.26775734 87.47788714 32.6875 85.875 C31.6975 86.535 30.7075 87.195 29.6875 87.875 C27.59033203 88.13378906 27.59033203 88.13378906 25.1953125 88.140625 C23.89013672 88.14449219 23.89013672 88.14449219 22.55859375 88.1484375 C21.65238281 88.14070313 20.74617188 88.13296875 19.8125 88.125 C18.46478516 88.13660156 18.46478516 88.13660156 17.08984375 88.1484375 C12.37320153 88.13450355 9.06983418 87.70791544 4.6875 85.875 C3.6975 86.535 2.7075 87.195 1.6875 87.875 C-0.42553711 88.13378906 -0.42553711 88.13378906 -2.83984375 88.140625 C-3.71447266 88.14320313 -4.58910156 88.14578125 -5.49023438 88.1484375 C-6.40095703 88.14070313 -7.31167969 88.13296875 -8.25 88.125 C-9.15685547 88.13273437 -10.06371094 88.14046875 -10.99804688 88.1484375 C-12.31192383 88.14457031 -12.31192383 88.14457031 -13.65234375 88.140625 C-14.45019287 88.13836914 -15.24804199 88.13611328 -16.07006836 88.13378906 C-18.56829347 87.84548001 -20.17435232 87.18088196 -22.3125 85.875 C-25.68857507 81.12671378 -24.97941003 74.42649943 -25.3125 68.875 C-31.9125 68.875 -38.5125 68.875 -45.3125 68.875 C-45.3125 76.135 -45.3125 83.395 -45.3125 90.875 C-43.518125 91.266875 -41.72375 91.65875 -39.875 92.0625 C-30.14204476 94.50433683 -21.01203796 99.32569305 -15.3125 107.875 C-12.43080945 106.54205944 -10.13597739 105.01087717 -7.6875 103 C0.48286492 96.83454013 8.58822774 95.22205403 18.6875 94.875 C18.3575 96.525 18.0275 98.175 17.6875 99.875 C16.93726563 99.96136719 16.18703125 100.04773438 15.4140625 100.13671875 C5.47623544 101.50097964 -3.27192539 104.45296109 -10.23828125 112.00390625 C-11.6805058 114.06747794 -11.6805058 114.06747794 -10.75 117.625 C-10.50378906 118.27984375 -10.25757812 118.9346875 -10.00390625 119.609375 C-8.69489865 123.89877844 -9.16547333 128.43152733 -9.3125 132.875 C-10.6325 133.205 -11.9525 133.535 -13.3125 133.875 C-13.39886719 133.05257812 -13.48523438 132.23015625 -13.57421875 131.3828125 C-14.86968114 121.09042326 -17.7617626 111.03618704 -26.24609375 104.3515625 C-33.5025017 99.19536274 -40.57460894 96.96723638 -49.3125 95.875 C-51.19569268 93.99180732 -50.44304285 90.75569863 -50.4453125 88.25 C-50.44674759 87.25685791 -50.44674759 87.25685791 -50.44821167 86.24365234 C-50.44889326 84.84147039 -50.44704042 83.4392853 -50.44287109 82.03710938 C-50.43752246 79.88404287 -50.4428167 77.73118498 -50.44921875 75.578125 C-50.44855796 74.21874954 -50.44727679 72.8593742 -50.4453125 71.5 C-50.44418457 70.25476563 -50.44305664 69.00953125 -50.44189453 67.7265625 C-50.3125 64.875 -50.3125 64.875 -49.3125 63.875 C-46.94793753 63.78912323 -44.60690268 63.76234966 -42.2421875 63.76953125 C-40.77342292 63.75606366 -39.30467194 63.74103842 -37.8359375 63.72460938 C-35.51840461 63.70186449 -33.20239406 63.68741947 -30.88476562 63.69995117 C-20.75009096 64.08316632 -20.75009096 64.08316632 -11.80078125 60.109375 C-10.0822411 58.19650324 -9.33644289 56.9441053 -8.48828125 54.49609375 C-8.80360612 49.45990508 -9.35934189 46.40078967 -13.3125 42.875 C-18.11949833 40.22272219 -23.09357334 40.56903946 -28.43359375 40.57421875 C-29.41111099 40.56993362 -30.38862823 40.5656485 -31.39576721 40.56123352 C-33.45923082 40.55550096 -35.52271464 40.55498203 -37.58618164 40.55932617 C-40.73554094 40.5624855 -43.8839599 40.53901542 -47.03320312 40.51367188 C-49.04166549 40.51139865 -51.05013036 40.5106955 -53.05859375 40.51171875 C-54.46509438 40.49790413 -54.46509438 40.49790413 -55.90000916 40.48381042 C-61.84985595 40.52571767 -66.41375962 41.16904995 -70.95703125 45.41015625 Z " fill="#45A3F6" transform="translate(136.3125,46.125)"/>
<path d="M0 0 C5.01298423 0.47996657 9.27949356 2.14325264 13.875 4.0625 C14.90753906 4.48499023 14.90753906 4.48499023 15.9609375 4.91601562 C17.64289909 5.60515266 19.32177697 6.30180798 21 7 C21 8.65 21 10.3 21 12 C15.90215917 13.78625132 12.4133243 11.95504393 7.75 9.875 C7.0178125 9.57851562 6.285625 9.28203125 5.53125 8.9765625 C3.421875 8.0546875 3.421875 8.0546875 0 6 C-1.046875 3.3203125 -1.046875 3.3203125 -1 1 C-0.67 0.67 -0.34 0.34 0 0 Z " fill="#48AEF8" transform="translate(13,75)"/>
<path d="M0 0 C0.5880542 0.22324951 1.1761084 0.44649902 1.78198242 0.67651367 C2.45849609 2.45849609 2.45849609 2.45849609 2.78198242 4.67651367 C1.67382812 6.43164062 1.67382812 6.43164062 -0.04223633 8.16479492 C-0.65905273 8.78805664 -1.27586914 9.41131836 -1.91137695 10.0534668 C-2.56944336 10.69219727 -3.22750977 11.33092773 -3.90551758 11.98901367 C-4.54424805 12.64708008 -5.18297852 13.30514648 -5.84106445 13.9831543 C-6.46432617 14.5999707 -7.08758789 15.21678711 -7.72973633 15.85229492 C-8.30167725 16.41859619 -8.87361816 16.98489746 -9.46289062 17.56835938 C-11.21801758 18.67651367 -11.21801758 18.67651367 -13.43603516 18.35302734 C-14.02408936 18.12977783 -14.61214355 17.90652832 -15.21801758 17.67651367 C-15.89453125 15.89453125 -15.89453125 15.89453125 -16.21801758 13.67651367 C-15.10986328 11.92138672 -15.10986328 11.92138672 -13.39379883 10.18823242 C-12.77698242 9.5649707 -12.16016602 8.94170898 -11.5246582 8.29956055 C-10.8665918 7.66083008 -10.20852539 7.02209961 -9.53051758 6.36401367 C-8.89178711 5.70594727 -8.25305664 5.04788086 -7.5949707 4.36987305 C-6.97170898 3.75305664 -6.34844727 3.13624023 -5.70629883 2.50073242 C-5.13435791 1.93443115 -4.56241699 1.36812988 -3.97314453 0.78466797 C-2.21801758 -0.32348633 -2.21801758 -0.32348633 0 0 Z " fill="#3A7CF2" transform="translate(215.218017578125,35.323486328125)"/>
<path d="M0 0 C1.67542976 0.28604898 3.34385343 0.61781233 5 1 C4.38440219 5.77088306 3.07229271 9.86479072 1.25 14.3125 C1.01023438 14.94478516 0.77046875 15.57707031 0.5234375 16.22851562 C-0.234375 18.05078125 -0.234375 18.05078125 -2 21 C-4.703125 21.91796875 -4.703125 21.91796875 -7 22 C-8.8442384 16.85234558 -6.81586775 13.3993224 -4.625 8.75 C-4.295 8.0178125 -3.965 7.285625 -3.625 6.53125 C-1.1932398 1.1932398 -1.1932398 1.1932398 0 0 Z " fill="#3B81F2" transform="translate(173,9)"/>
<path d="M0 0 C2.2578125 0.015625 2.2578125 0.015625 5 1 C6.57837195 3.62861944 7.7377257 5.94142694 8.875 8.75 C9.1946875 9.46671875 9.514375 10.1834375 9.84375 10.921875 C11.55075348 14.95930933 12.51719707 17.67002186 11 22 C8.7421875 21.984375 8.7421875 21.984375 6 21 C4.42162805 18.37138056 3.2622743 16.05857306 2.125 13.25 C1.8053125 12.53328125 1.485625 11.8165625 1.15625 11.078125 C-0.55075348 7.04069067 -1.51719707 4.32997814 0 0 Z " fill="#4194F5" transform="translate(79,9)"/>
<path d="M0 0 C5.0798014 0.43070635 9.23534678 1.67126391 13.875 3.75 C15.00679687 4.23984375 16.13859375 4.7296875 17.3046875 5.234375 C20 7 20 7 20.8828125 9.703125 C20.92148438 10.46109375 20.96015625 11.2190625 21 12 C16.12658338 13.61561021 12.86425995 11.75796325 8.3125 9.875 C7.1359082 9.43027344 7.1359082 9.43027344 5.93554688 8.9765625 C3.81485297 8.11142203 1.90395119 7.27390388 0 6 C-1.08203125 3.3203125 -1.08203125 3.3203125 -1 1 C-0.67 0.67 -0.34 0.34 0 0 Z " fill="#4194F5" transform="translate(223,162)"/>
<path d="M0 0 C0.01953125 2.2578125 0.01953125 2.2578125 -1 5 C-3.58702709 6.74140388 -6.40557155 7.77624315 -9.3125 8.875 C-10.08529297 9.1946875 -10.85808594 9.514375 -11.65429688 9.84375 C-17.96203972 12.33864399 -17.96203972 12.33864399 -22 11 C-21.8984375 8.703125 -21.8984375 8.703125 -21 6 C-18.1640625 4.234375 -18.1640625 4.234375 -14.625 2.75 C-13.46226563 2.24984375 -12.29953125 1.7496875 -11.1015625 1.234375 C-6.7345442 -0.50363228 -4.56135042 -1.10951767 0 0 Z " fill="#4DC3FA" transform="translate(34,163)"/>
<path d="M0 0 C0.33 1.32 0.66 2.64 1 4 C-0.89454824 4.96087136 -2.79069581 5.91858969 -4.6875 6.875 C-6.27111328 7.67550781 -6.27111328 7.67550781 -7.88671875 8.4921875 C-16.00907821 12.42597765 -16.00907821 12.42597765 -21 11 C-21 9.35 -21 7.7 -21 6 C-18.25538312 4.79848104 -15.50547873 3.61361897 -12.75 2.4375 C-11.97269531 2.09525391 -11.19539062 1.75300781 -10.39453125 1.40039062 C-9.64042969 1.08134766 -8.88632813 0.76230469 -8.109375 0.43359375 C-7.07248535 -0.01415405 -7.07248535 -0.01415405 -6.01464844 -0.47094727 C-3.64929576 -1.09209599 -2.28986553 -0.77451334 0 0 Z " fill="#3C81F3" transform="translate(243,76)"/>
<path d="M0 0 C3.24475485 2.03844323 5.85416291 4.5621874 8.58203125 7.23828125 C9.42604492 8.02041992 9.42604492 8.02041992 10.28710938 8.81835938 C11.8828125 10.3828125 11.8828125 10.3828125 14.26953125 13.42578125 C14.125 16.3125 14.125 16.3125 13.26953125 18.42578125 C7.9855496 18.07286225 5.47644383 15.2678913 1.95703125 11.67578125 C1.40724609 11.14984375 0.85746094 10.62390625 0.29101562 10.08203125 C-2.18042717 7.60137811 -3.65096392 6.072304 -4.0859375 2.53515625 C-3.96863281 1.8390625 -3.85132813 1.14296875 -3.73046875 0.42578125 C-1.73046875 -0.57421875 -1.73046875 -0.57421875 0 0 Z " fill="#45A1F6" transform="translate(42.73046875,35.57421875)"/>
<path d="M0 0 C0.91644287 0.00523682 1.83288574 0.01047363 2.77709961 0.01586914 C3.76645508 0.0190918 4.75581055 0.02231445 5.77514648 0.02563477 C6.81606445 0.03401367 7.85698242 0.04239258 8.92944336 0.05102539 C10.49662109 0.05779297 10.49662109 0.05779297 12.09545898 0.06469727 C14.68600996 0.07652627 17.27644895 0.0930085 19.86694336 0.11352539 C19.90966436 1.77964444 19.90758168 3.44735424 19.86694336 5.11352539 C18.86694336 6.11352539 18.86694336 6.11352539 16.82568359 6.22705078 C15.95113525 6.22181396 15.07658691 6.21657715 14.17553711 6.21118164 C13.23129883 6.20795898 12.28706055 6.20473633 11.31420898 6.20141602 C10.32098633 6.19303711 9.32776367 6.1846582 8.30444336 6.17602539 C7.30735352 6.17151367 6.31026367 6.16700195 5.28295898 6.16235352 C2.81089487 6.15052546 0.33894818 6.13404388 -2.13305664 6.11352539 C-2.51524431 4.45737882 -2.84700766 2.78895515 -3.13305664 1.11352539 C-2.13305664 0.11352539 -2.13305664 0.11352539 0 0 Z " fill="#3D87F3" transform="translate(233.133056640625,121.886474609375)"/>
<path d="M0 0 C0.87454834 0.00523682 1.74909668 0.01047363 2.65014648 0.01586914 C3.59438477 0.0190918 4.53862305 0.02231445 5.51147461 0.02563477 C6.50469727 0.03401367 7.49791992 0.04239258 8.52124023 0.05102539 C9.51833008 0.05553711 10.51541992 0.06004883 11.54272461 0.06469727 C14.01478872 0.07652532 16.48673541 0.0930069 18.95874023 0.11352539 C19.34092791 1.76967196 19.67269125 3.43809563 19.95874023 5.11352539 C18.95874023 6.11352539 18.95874023 6.11352539 16.91748047 6.22705078 C16.04293213 6.22181396 15.16838379 6.21657715 14.26733398 6.21118164 C13.3230957 6.20795898 12.37885742 6.20473633 11.40600586 6.20141602 C10.4127832 6.19303711 9.41956055 6.1846582 8.39624023 6.17602539 C7.39915039 6.17151367 6.40206055 6.16700195 5.37475586 6.16235352 C2.90269175 6.15052546 0.43074506 6.13404388 -2.04125977 6.11352539 C-2.42344744 4.45737882 -2.75521078 2.78895515 -3.04125977 1.11352539 C-2.04125977 0.11352539 -2.04125977 0.11352539 0 0 Z " fill="#4BBAF9" transform="translate(6.041259765625,121.886474609375)"/>
<path d="M0 0 C1.65 0.33 3.3 0.66 5 1 C5 7.93 5 14.86 5 22 C3.35 22.33 1.7 22.66 0 23 C-1.62200515 21.37799485 -1.1299075 19.57976969 -1.1328125 17.34375 C-1.13410156 16.40402344 -1.13539062 15.46429688 -1.13671875 14.49609375 C-1.13285156 13.50738281 -1.12898438 12.51867187 -1.125 11.5 C-1.12886719 10.51128906 -1.13273437 9.52257812 -1.13671875 8.50390625 C-1.13542969 7.56417969 -1.13414063 6.62445312 -1.1328125 5.65625 C-1.13168457 4.78806641 -1.13055664 3.91988281 -1.12939453 3.02539062 C-1 1 -1 1 0 0 Z " fill="#3E88F3" transform="translate(126,0)"/>
</svg>
