<?xml version="1.0" encoding="UTF-8"?>
<svg version="1.1" xmlns="http://www.w3.org/2000/svg" width="256" height="256">
<path d="M0 0 C0.71353638 0.00202423 1.42707275 0.00404846 2.16223145 0.00613403 C2.89091431 0.00517731 3.61959717 0.00422058 4.37036133 0.00323486 C5.91377855 0.00255318 7.45719861 0.00440666 9.00061035 0.00857544 C11.37095544 0.01392391 13.74111104 0.00863011 16.1114502 0.00222778 C17.60754437 0.00288857 19.10363842 0.00416973 20.59973145 0.00613403 C21.67003601 0.00309769 21.67003601 0.00309769 22.76196289 0 C27.76602953 0.02399462 27.76602953 0.02399462 28.88098145 1.13894653 C29.20291519 4.68021774 29.22859074 6.58277166 27.31848145 9.63894653 C25.59210776 12.11149871 25.59210776 12.11149871 26.06848145 15.26394653 C26.76820312 18.3029163 26.76820312 18.3029163 28.88098145 21.13894653 C29.13098145 23.70144653 29.13098145 23.70144653 28.88098145 26.13894653 C26.88098145 28.13894653 26.88098145 28.13894653 24.35900879 28.36599731 C23.32211914 28.35552368 22.28522949 28.34505005 21.21691895 28.33425903 C20.09543457 28.32781372 18.9739502 28.32136841 17.81848145 28.31472778 C16.64285645 28.29796997 15.46723145 28.28121216 14.25598145 28.26394653 C13.07262207 28.2549231 11.8892627 28.24589966 10.67004395 28.23660278 C7.74015622 28.21297466 4.81066804 28.18003167 1.88098145 28.13894653 C1.71770307 31.00836339 1.71770307 31.00836339 2.88098145 34.13894653 C5.41748161 36.09104403 8.29293338 37.18784513 11.24035645 38.39675903 C12.11603775 38.77809494 12.99171906 39.15943085 13.89393616 39.55232239 C16.7974807 40.81116113 19.7137973 42.03708841 22.63098145 43.26394653 C24.65701717 44.13609984 26.6819889 45.01072867 28.70593262 45.88772583 C32.93977626 47.72011197 37.17809626 49.54154845 41.41955566 51.35623169 C50.75671008 55.36284318 60.02865394 59.51548231 69.3046875 63.66110229 C73.8862055 65.70753948 78.47130019 67.7458983 83.0567627 69.78347778 C84.31412735 70.34337402 84.31412735 70.34337402 85.59689331 70.9145813 C89.60589625 72.69717231 93.62069712 74.46341553 97.65197754 76.19509888 C98.39618454 76.51588913 99.14039154 76.83667938 99.90715027 77.16719055 C101.29305193 77.76312876 102.68065882 78.35512344 104.07026672 78.94236755 C106.7870584 80.11155332 108.76819797 81.02616305 110.88098145 83.13894653 C111.07950246 85.84817454 111.15937622 88.43197833 111.13098145 91.13894653 C111.13871582 91.87629028 111.1464502 92.61363403 111.15441895 93.37332153 C111.13430104 98.88562694 111.13430104 98.88562694 108.88098145 101.13894653 C106.71691895 101.33425903 106.71691895 101.33425903 104.25598145 101.26394653 C103.43871582 101.24589966 102.6214502 101.22785278 101.77941895 101.20925903 C101.15293457 101.18605591 100.5264502 101.16285278 99.88098145 101.13894653 C99.79848145 102.04644653 99.71598145 102.95394653 99.63098145 103.88894653 C98.76596367 107.63735688 98.01255777 108.93837939 94.88098145 111.13894653 C91.63098145 111.38894653 91.63098145 111.38894653 88.88098145 111.13894653 C88.98410645 112.35582153 89.08723145 113.57269653 89.19348145 114.82644653 C89.19348145 118.40189898 88.93379785 119.0665126 86.69348145 122.13894653 C83.88098145 124.13894653 83.88098145 124.13894653 78.88098145 124.13894653 C78.88098145 148.88894653 78.88098145 173.63894653 78.88098145 199.13894653 C81.19098145 199.46894653 83.50098145 199.79894653 85.88098145 200.13894653 C87.81848145 201.70144653 87.81848145 201.70144653 88.88098145 204.13894653 C89.10984454 206.85929649 89.01800841 209.39840727 88.88098145 212.13894653 C89.78848145 212.05644653 90.69598145 211.97394653 91.63098145 211.88894653 C94.88098145 212.13894653 94.88098145 212.13894653 97.19348145 213.95144653 C100.23394361 217.89278638 99.97192681 221.31884196 99.88098145 226.13894653 C100.76785645 226.03582153 101.65473145 225.93269653 102.56848145 225.82644653 C105.88098145 226.13894653 105.88098145 226.13894653 108.5645752 228.17800903 C111.53288448 231.97223912 111.43309136 234.06778281 111.25598145 238.82644653 C111.24180176 239.50255981 111.22762207 240.1786731 111.2130127 240.87527466 C111.06699335 245.76692272 111.06699335 245.76692272 109.88098145 248.13894653 C81.3617291 248.16173676 52.84247789 248.17944463 24.32321823 248.19001186 C20.9597415 248.19126264 17.59626479 248.19255695 14.23278809 248.19387817 C13.22833499 248.19427164 13.22833499 248.19427164 12.20358991 248.19467305 C1.34696475 248.19902977 -9.50965513 248.20691732 -20.36627715 248.21609933 C-31.49803342 248.22543583 -42.62978787 248.23092723 -53.7615481 248.23303503 C-60.01750459 248.23434255 -66.27344911 248.23743104 -72.52940178 248.24467659 C-78.41026818 248.25143293 -84.29111762 248.25356429 -90.17198753 248.25205421 C-92.33723289 248.25233072 -94.50247878 248.25433812 -96.66772079 248.25815201 C-99.61012108 248.26308323 -102.55245618 248.26194695 -105.49485779 248.25920105 C-106.36351736 248.26211389 -107.23217694 248.26502673 -108.12715954 248.26802784 C-114.00489734 248.25306774 -114.00489734 248.25306774 -115.11901855 247.13894653 C-115.32693207 244.53705737 -115.44355952 241.99446784 -115.49401855 239.38894653 C-115.53140137 238.67222778 -115.56878418 237.95550903 -115.6072998 237.21707153 C-115.67399448 233.18574875 -115.29367622 231.36485283 -112.8026123 228.14285278 C-109.62322962 225.76872859 -107.99679611 225.68804217 -104.11901855 226.13894653 C-104.18089355 225.08707153 -104.24276855 224.03519653 -104.30651855 222.95144653 C-104.06305763 218.00107441 -102.56312807 215.58305605 -99.11901855 212.13894653 C-95.99401855 212.01394653 -95.99401855 212.01394653 -93.11901855 212.13894653 C-93.21183105 210.28269653 -93.21183105 210.28269653 -93.30651855 208.38894653 C-93.28740761 205.6895251 -93.15054297 204.21126725 -92.05651855 201.70144653 C-90.11901855 200.13894653 -90.11901855 200.13894653 -83.11901855 199.13894653 C-83.11901855 174.38894653 -83.11901855 149.63894653 -83.11901855 124.13894653 C-86.58401855 123.64394653 -86.58401855 123.64394653 -90.11901855 123.13894653 C-92.05651855 121.57644653 -92.05651855 121.57644653 -93.11901855 119.13894653 C-93.34788165 116.41859657 -93.25604552 113.8794858 -93.11901855 111.13894653 C-94.02651855 111.22144653 -94.93401855 111.30394653 -95.86901855 111.38894653 C-99.11901855 111.13894653 -99.11901855 111.13894653 -101.43151855 109.51394653 C-103.43135195 106.6993662 -103.80930909 104.54575066 -104.11901855 101.13894653 C-104.74550293 101.16214966 -105.3719873 101.18535278 -106.01745605 101.20925903 C-106.83472168 101.22730591 -107.6519873 101.24535278 -108.49401855 101.26394653 C-109.30612793 101.28714966 -110.1182373 101.31035278 -110.95495605 101.33425903 C-113.11901855 101.13894653 -113.11901855 101.13894653 -115.11901855 99.13894653 C-115.39790589 96.44107848 -115.53514587 93.90152932 -115.55651855 91.20144653 C-115.6058252 90.10799927 -115.6058252 90.10799927 -115.65612793 88.99246216 C-115.6776123 86.86160278 -115.6776123 86.86160278 -115.11901855 83.13894653 C-111.13831255 80.19490777 -106.3875031 78.34733181 -101.88464355 76.32254028 C-101.07059052 75.95382309 -100.25653748 75.5851059 -99.41781616 75.20521545 C-96.73640868 73.99221733 -94.05282712 72.78412188 -91.36901855 71.57644653 C-89.49124566 70.72896627 -87.61347882 69.88147258 -85.73571777 69.03396606 C-70.97506592 62.38212384 -56.16563283 55.84311766 -41.32702637 49.36721802 C-29.88712224 44.37266332 -18.49202302 39.28403351 -7.11901855 34.13894653 C-7.08143433 32.6472998 -7.08143433 32.6472998 -7.04309082 31.1255188 C-6.94916974 27.44845906 -6.84891237 23.77159504 -6.7467041 20.09475708 C-6.7032971 18.50105353 -6.66162637 16.90730173 -6.6217041 15.31350708 C-6.56414048 13.02730745 -6.50040706 10.74135204 -6.4354248 8.45535278 C-6.41871231 7.73867935 -6.40199982 7.02200592 -6.38478088 6.28361511 C-6.20516591 0.33455483 -5.96149015 0.02858549 0 0 Z M1.88098145 8.13894653 C1.88098145 11.76894653 1.88098145 15.39894653 1.88098145 19.13894653 C6.50098145 19.13894653 11.12098145 19.13894653 15.88098145 19.13894653 C15.86035645 17.88082153 15.83973145 16.62269653 15.81848145 15.32644653 C15.77212061 12.49843566 15.96405183 10.88973537 16.88098145 8.13894653 C11.93098145 8.13894653 6.98098145 8.13894653 1.88098145 8.13894653 Z M-12.1697998 46.44363403 C-12.96430038 46.79435471 -13.75880096 47.14507538 -14.57737732 47.50642395 C-17.19945997 48.66673314 -19.81541896 49.84021731 -22.43151855 51.01394653 C-24.264854 51.82839562 -26.0985179 52.64210573 -27.93249512 53.45510864 C-33.66782355 56.00197539 -39.39456931 58.56773443 -45.11901855 61.13894653 C-46.03560242 61.55062073 -46.95218628 61.96229492 -47.89654541 62.38644409 C-55.73738134 65.90969238 -63.57536187 69.43925829 -71.40930176 72.97781372 C-82.9202071 78.17380149 -94.47070819 83.2569341 -106.11901855 88.13894653 C-106.11901855 89.45894653 -106.11901855 90.77894653 -106.11901855 92.13894653 C-37.47901855 92.13894653 31.16098145 92.13894653 101.88098145 92.13894653 C101.88098145 90.81894653 101.88098145 89.49894653 101.88098145 88.13894653 C101.02609131 87.75899536 100.17120117 87.37904419 99.29040527 86.98757935 C98.71317215 86.73103073 98.13593903 86.47448212 97.54121399 86.2101593 C96.20657007 85.61698538 94.8719244 85.0238154 93.53727722 84.4306488 C89.65050323 82.70321494 85.7637629 80.9757054 81.8770752 79.24807739 C73.63081973 75.58272291 65.38426759 71.91803972 57.13676453 68.25549316 C53.18520846 66.50063441 49.23381833 64.74540217 45.28244019 62.99014282 C43.37889179 62.14467302 41.47526881 61.29937108 39.57156372 60.45425415 C37.7462901 59.64393841 35.92114912 58.83332384 34.09614563 58.0223999 C32.32220239 57.23451185 30.54778586 56.44768845 28.77287292 55.6619873 C24.25380552 53.65750393 19.75145415 51.62319744 15.2677002 49.540802 C14.35822632 49.12160995 13.44875244 48.70241791 12.51171875 48.27052307 C10.78318886 47.47233534 9.05809457 46.66664927 7.3371582 45.85221863 C-0.42348751 42.28140804 -4.3559141 42.90879986 -12.1697998 46.44363403 Z M-95.11901855 101.13894653 C-95.11901855 101.46894653 -95.11901855 101.79894653 -95.11901855 102.13894653 C-33.73901855 102.13894653 27.64098145 102.13894653 90.88098145 102.13894653 C90.88098145 101.80894653 90.88098145 101.47894653 90.88098145 101.13894653 C29.50098145 101.13894653 -31.87901855 101.13894653 -95.11901855 101.13894653 Z M-84.11901855 111.13894653 C-84.11901855 112.45894653 -84.11901855 113.77894653 -84.11901855 115.13894653 C-75.86901855 115.13894653 -67.61901855 115.13894653 -59.11901855 115.13894653 C-59.11901855 113.81894653 -59.11901855 112.49894653 -59.11901855 111.13894653 C-67.36901855 111.13894653 -75.61901855 111.13894653 -84.11901855 111.13894653 Z M-50.11901855 111.13894653 C-50.77901855 114.76894653 -51.43901855 118.39894653 -52.11901855 122.13894653 C-54.75901855 122.79894653 -57.39901855 123.45894653 -60.11901855 124.13894653 C-60.11901855 148.88894653 -60.11901855 173.63894653 -60.11901855 199.13894653 C-57.80901855 200.12894653 -55.49901855 201.11894653 -53.11901855 202.13894653 C-50.82268031 205.5834539 -50.57885371 208.07706936 -50.11901855 212.13894653 C-49.12901855 212.13894653 -48.13901855 212.13894653 -47.11901855 212.13894653 C-47.0210498 211.52406372 -46.92308105 210.90918091 -46.82214355 210.27566528 C-45.59590291 203.64762318 -45.59590291 203.64762318 -43.24401855 201.13894653 C-41.11901855 200.13894653 -41.11901855 200.13894653 -37.11901855 199.13894653 C-37.11901855 174.38894653 -37.11901855 149.63894653 -37.11901855 124.13894653 C-39.42901855 123.14894653 -41.73901855 122.15894653 -44.11901855 121.13894653 C-46.4153568 117.69443917 -46.6591834 115.20082371 -47.11901855 111.13894653 C-48.10901855 111.13894653 -49.09901855 111.13894653 -50.11901855 111.13894653 Z M-38.11901855 111.13894653 C-38.11901855 112.45894653 -38.11901855 113.77894653 -38.11901855 115.13894653 C-29.86901855 115.13894653 -21.61901855 115.13894653 -13.11901855 115.13894653 C-13.11901855 113.81894653 -13.11901855 112.49894653 -13.11901855 111.13894653 C-21.36901855 111.13894653 -29.61901855 111.13894653 -38.11901855 111.13894653 Z M-4.11901855 111.13894653 C-4.21376465 112.169552 -4.21376465 112.169552 -4.3104248 113.22097778 C-4.43288574 114.12203247 -4.55534668 115.02308716 -4.68151855 115.95144653 C-4.78593262 116.84476685 -4.89034668 117.73808716 -4.9979248 118.65847778 C-6.11901855 121.13894653 -6.11901855 121.13894653 -13.11901855 124.13894653 C-13.11901855 148.88894653 -13.11901855 173.63894653 -13.11901855 199.13894653 C-10.80901855 200.12894653 -8.49901855 201.11894653 -6.11901855 202.13894653 C-4.9979248 204.61941528 -4.9979248 204.61941528 -4.68151855 207.32644653 C-4.55905762 208.22750122 -4.43659668 209.12855591 -4.3104248 210.05691528 C-4.24726074 210.7439856 -4.18409668 211.43105591 -4.11901855 212.13894653 C-2.79901855 212.13894653 -1.47901855 212.13894653 -0.11901855 212.13894653 C-0.02427246 211.10834106 -0.02427246 211.10834106 0.0723877 210.05691528 C0.2560791 208.70533325 0.2560791 208.70533325 0.44348145 207.32644653 C0.54789551 206.43312622 0.65230957 205.53980591 0.7598877 204.61941528 C1.88098145 202.13894653 1.88098145 202.13894653 8.88098145 199.13894653 C8.88098145 174.38894653 8.88098145 149.63894653 8.88098145 124.13894653 C6.57098145 123.14894653 4.26098145 122.15894653 1.88098145 121.13894653 C0.7598877 118.65847778 0.7598877 118.65847778 0.44348145 115.95144653 C0.25979004 114.5998645 0.25979004 114.5998645 0.0723877 113.22097778 C0.00922363 112.53390747 -0.05394043 111.84683716 -0.11901855 111.13894653 C-1.43901855 111.13894653 -2.75901855 111.13894653 -4.11901855 111.13894653 Z M8.88098145 111.13894653 C8.88098145 112.45894653 8.88098145 113.77894653 8.88098145 115.13894653 C17.13098145 115.13894653 25.38098145 115.13894653 33.88098145 115.13894653 C33.88098145 113.81894653 33.88098145 112.49894653 33.88098145 111.13894653 C25.63098145 111.13894653 17.38098145 111.13894653 8.88098145 111.13894653 Z M42.88098145 111.13894653 C42.7830127 111.75382935 42.68504395 112.36871216 42.58410645 113.00222778 C41.3578658 119.63026989 41.3578658 119.63026989 39.00598145 122.13894653 C36.88098145 123.13894653 36.88098145 123.13894653 32.88098145 124.13894653 C32.88098145 148.88894653 32.88098145 173.63894653 32.88098145 199.13894653 C35.19098145 200.12894653 37.50098145 201.11894653 39.88098145 202.13894653 C42.17731969 205.5834539 42.42114629 208.07706936 42.88098145 212.13894653 C43.87098145 212.13894653 44.86098145 212.13894653 45.88098145 212.13894653 C45.9789502 211.52406372 46.07691895 210.90918091 46.17785645 210.27566528 C47.40409709 203.64762318 47.40409709 203.64762318 49.75598145 201.13894653 C51.88098145 200.13894653 51.88098145 200.13894653 55.88098145 199.13894653 C55.88098145 174.38894653 55.88098145 149.63894653 55.88098145 124.13894653 C53.24098145 123.47894653 50.60098145 122.81894653 47.88098145 122.13894653 C47.22098145 118.50894653 46.56098145 114.87894653 45.88098145 111.13894653 C44.89098145 111.13894653 43.90098145 111.13894653 42.88098145 111.13894653 Z M54.88098145 111.13894653 C54.88098145 112.45894653 54.88098145 113.77894653 54.88098145 115.13894653 C63.13098145 115.13894653 71.38098145 115.13894653 79.88098145 115.13894653 C79.88098145 113.81894653 79.88098145 112.49894653 79.88098145 111.13894653 C71.63098145 111.13894653 63.38098145 111.13894653 54.88098145 111.13894653 Z M-74.11901855 124.13894653 C-74.11901855 148.88894653 -74.11901855 173.63894653 -74.11901855 199.13894653 C-72.46901855 199.13894653 -70.81901855 199.13894653 -69.11901855 199.13894653 C-69.11901855 174.38894653 -69.11901855 149.63894653 -69.11901855 124.13894653 C-70.76901855 124.13894653 -72.41901855 124.13894653 -74.11901855 124.13894653 Z M-28.11901855 124.13894653 C-28.11901855 148.88894653 -28.11901855 173.63894653 -28.11901855 199.13894653 C-26.13901855 199.13894653 -24.15901855 199.13894653 -22.11901855 199.13894653 C-22.11901855 174.38894653 -22.11901855 149.63894653 -22.11901855 124.13894653 C-24.09901855 124.13894653 -26.07901855 124.13894653 -28.11901855 124.13894653 Z M17.88098145 124.13894653 C17.88098145 148.88894653 17.88098145 173.63894653 17.88098145 199.13894653 C19.86098145 199.13894653 21.84098145 199.13894653 23.88098145 199.13894653 C23.88098145 174.38894653 23.88098145 149.63894653 23.88098145 124.13894653 C21.90098145 124.13894653 19.92098145 124.13894653 17.88098145 124.13894653 Z M64.88098145 124.13894653 C64.88098145 148.88894653 64.88098145 173.63894653 64.88098145 199.13894653 C66.53098145 199.13894653 68.18098145 199.13894653 69.88098145 199.13894653 C69.88098145 174.38894653 69.88098145 149.63894653 69.88098145 124.13894653 C68.23098145 124.13894653 66.58098145 124.13894653 64.88098145 124.13894653 Z M-84.11901855 208.13894653 C-84.11901855 209.45894653 -84.11901855 210.77894653 -84.11901855 212.13894653 C-75.86901855 212.13894653 -67.61901855 212.13894653 -59.11901855 212.13894653 C-59.11901855 210.81894653 -59.11901855 209.49894653 -59.11901855 208.13894653 C-67.36901855 208.13894653 -75.61901855 208.13894653 -84.11901855 208.13894653 Z M-38.11901855 208.13894653 C-38.11901855 209.45894653 -38.11901855 210.77894653 -38.11901855 212.13894653 C-29.86901855 212.13894653 -21.61901855 212.13894653 -13.11901855 212.13894653 C-13.11901855 210.81894653 -13.11901855 209.49894653 -13.11901855 208.13894653 C-21.36901855 208.13894653 -29.61901855 208.13894653 -38.11901855 208.13894653 Z M8.88098145 208.13894653 C8.88098145 209.45894653 8.88098145 210.77894653 8.88098145 212.13894653 C17.13098145 212.13894653 25.38098145 212.13894653 33.88098145 212.13894653 C33.88098145 210.81894653 33.88098145 209.49894653 33.88098145 208.13894653 C25.63098145 208.13894653 17.38098145 208.13894653 8.88098145 208.13894653 Z M54.88098145 208.13894653 C54.88098145 209.45894653 54.88098145 210.77894653 54.88098145 212.13894653 C63.13098145 212.13894653 71.38098145 212.13894653 79.88098145 212.13894653 C79.88098145 210.81894653 79.88098145 209.49894653 79.88098145 208.13894653 C71.63098145 208.13894653 63.38098145 208.13894653 54.88098145 208.13894653 Z M-95.11901855 221.13894653 C-95.11901855 222.78894653 -95.11901855 224.43894653 -95.11901855 226.13894653 C-33.73901855 226.13894653 27.64098145 226.13894653 90.88098145 226.13894653 C90.88098145 224.48894653 90.88098145 222.83894653 90.88098145 221.13894653 C29.50098145 221.13894653 -31.87901855 221.13894653 -95.11901855 221.13894653 Z M-106.11901855 235.13894653 C-106.11901855 236.78894653 -106.11901855 238.43894653 -106.11901855 240.13894653 C-37.47901855 240.13894653 31.16098145 240.13894653 101.88098145 240.13894653 C101.88098145 238.48894653 101.88098145 236.83894653 101.88098145 235.13894653 C33.24098145 235.13894653 -35.39901855 235.13894653 -106.11901855 235.13894653 Z " fill="#1CA6F4" transform="translate(130.1190185546875,3.861053466796875)"/>
</svg>
