<?xml version="1.0" encoding="UTF-8"?>
<svg version="1.1" xmlns="http://www.w3.org/2000/svg" width="256" height="256">
<path d="M0 0 C1.00474365 0.27287842 1.00474365 0.27287842 2.02978516 0.55126953 C21.9199781 6.1002912 39.16527892 16.77847883 54 31 C54.88300781 31.80824219 55.76601562 32.61648437 56.67578125 33.44921875 C70.98418782 46.98857377 80.57004993 64.12560173 87.3125 82.5 C87.54300049 83.11480225 87.77350098 83.72960449 88.01098633 84.36303711 C92.22884726 96.53333946 93.50477578 109.06017551 93.39111328 121.85449219 C93.37500004 123.99999488 93.39109647 126.14361523 93.41015625 128.2890625 C93.46339957 163.04035897 77.39264608 194.03009205 53.5390625 218.52734375 C25.48785677 245.0408588 -10.4741502 253.15706751 -47.95947266 252.17480469 C-55.94470643 251.88704434 -63.40413383 250.42252147 -71 248 C-71.77794922 247.75862305 -72.55589844 247.51724609 -73.35742188 247.26855469 C-102.42839972 238.01658215 -127.93906544 219.1449309 -144 193 C-144.60972656 192.06285156 -145.21945313 191.12570313 -145.84765625 190.16015625 C-162.84190194 162.93201315 -167.85909288 126.77236988 -160.76147461 95.64599609 C-160.20832276 93.41983447 -159.61422955 91.20999689 -159 89 C-158.82871582 88.34612305 -158.65743164 87.69224609 -158.48095703 87.01855469 C-152.89515197 66.12410234 -140.63675455 48.5652054 -126 33 C-125.4740625 32.40960938 -124.948125 31.81921875 -124.40625 31.2109375 C-110.3821202 16.11353246 -89.76332262 5.17703596 -70 0 C-69.30487305 -0.19319824 -68.60974609 -0.38639648 -67.89355469 -0.58544922 C-45.97495225 -6.50743598 -21.82341664 -6.11819812 0 0 Z M-59 55 C-64.72502322 63.43087996 -65.87774218 70.85851936 -65 81 C-63.60736626 85.84664117 -61.71850225 89.56917557 -58 93 C-57.79246094 92.34773438 -57.58492188 91.69546875 -57.37109375 91.0234375 C-55.0757414 84.51193585 -52.53330908 81.03413667 -47 77 C-46.34 76.34 -45.68 75.68 -45 75 C-45.433125 74.25556641 -45.433125 74.25556641 -45.875 73.49609375 C-48.42291312 68.83376662 -49.78991646 65.43067565 -49 60 C-47.51428433 55.96853556 -45.7763261 53.54695702 -42.25 51.0625 C-36.94958488 49.32967198 -32.92038446 49.27532662 -27.6875 51.25 C-23.9227141 53.70148849 -22.4110434 55.76686981 -21 60 C-20.61654708 65.84765703 -21.1997081 68.76467167 -24 74 C-22.90499158 77.28502527 -22.26569832 77.79019306 -19.625 79.8125 C-16.32385151 82.5330784 -14.6517492 85.00102824 -13 89 C-12.34101258 90.33714539 -11.67577545 91.67126008 -11 93 C-10.18071114 91.75443908 -9.36984814 90.50333365 -8.5625 89.25 C-8.11003906 88.55390625 -7.65757812 87.8578125 -7.19140625 87.140625 C-3.81450788 81.07327972 -4.27877105 73.71513164 -5 67 C-7.90051132 57.8489403 -13.00505747 51.39240836 -21.3125 46.69140625 C-34.80584904 40.44208274 -49.28637061 43.94804833 -59 55 Z M-44 61 C-44.73490789 65.00116517 -44.38814018 66.41778974 -42.125 69.8125 C-39.61855093 72.39266816 -38.74538327 72.91717964 -35.1875 73.3125 C-31.2692355 72.92835642 -29.78706733 71.70743683 -27 69 C-25.43064406 65.86128812 -25.64798897 63.46144178 -26 60 C-27.99176104 57.07460098 -29.44924075 55.41270206 -32.9375 54.484375 C-38.6610765 54.00741029 -41.04282944 56.00977467 -44 61 Z M-49.9375 86.1875 C-52.53750512 90.20093071 -52.88285923 94.30372009 -53 99 C-44.06869313 104.14975353 -36.27951065 106.36804545 -26.1171875 103.74609375 C-22.77938953 102.56985867 -19.97968954 100.90192949 -17 99 C-16.42547476 93.48455772 -17.37314392 90.38056175 -20.5 85.796875 C-23.41563536 82.30418681 -26.74068199 80.41977267 -31 79 C-38.74126846 78.3439603 -44.88895001 79.94934914 -49.9375 86.1875 Z M-86 109 C-87.42741479 110.96619296 -88.61496606 112.84980572 -89.80078125 114.95703125 C-90.15963913 115.57462814 -90.51849701 116.19222504 -90.88822937 116.82853699 C-92.04021417 118.81730661 -93.1762893 120.81468492 -94.3125 122.8125 C-95.06606312 124.11711121 -95.82061002 125.42115471 -96.57617188 126.72460938 C-100.8311376 134.08802236 -104.97129585 141.51002857 -109 149 C-108.02208496 149.67591187 -108.02208496 149.67591187 -107.02441406 150.36547852 C-105.46940104 151.44026693 -103.91438802 152.51505534 -102.359375 153.58984375 C-100.14778059 154.91167419 -98.47978869 155.44868167 -96 156 C-90.99066664 148.78232673 -86.59700505 141.25404701 -82.25 133.625 C-80.92334981 131.30383846 -79.59465135 128.98386601 -78.265625 126.6640625 C-77.68586914 125.64779785 -77.10611328 124.6315332 -76.50878906 123.58447266 C-75.40041609 121.68589074 -74.21947075 119.82920612 -73 118 C-72.98109876 115.92820763 -72.98109876 115.92820763 -74 114 C-75.96011672 112.43176838 -75.96011672 112.43176838 -78.375 111.25 C-79.16648437 110.82203125 -79.95796875 110.3940625 -80.7734375 109.953125 C-83.05599116 108.80323502 -83.05599116 108.80323502 -86 109 Z M16.8125 111.1875 C15.93207031 111.42855469 15.05164063 111.66960937 14.14453125 111.91796875 C11.85534367 112.77243493 11.85534367 112.77243493 11.29946899 114.81173706 C10.95852596 117.30305674 11.27748914 118.71691561 12.06396484 121.09423828 C12.32108246 121.88831085 12.57820007 122.68238342 12.84310913 123.5005188 C13.12949249 124.34855072 13.41587585 125.19658264 13.7109375 126.0703125 C13.99852936 126.94775116 14.28612122 127.82518982 14.58242798 128.72921753 C15.50359482 131.53111688 16.43928126 134.32793109 17.375 137.125 C17.99831385 139.01662483 18.62072061 140.90854882 19.2421875 142.80078125 C20.38189573 146.25715104 21.52307505 149.71298058 22.67724609 153.16455078 C22.90898529 153.85864044 23.14072449 154.5527301 23.37948608 155.26785278 C23.98854374 157.07656333 23.98854374 157.07656333 25 159 C26.77111844 158.52188823 28.54188483 158.0424722 30.3125 157.5625 C31.29863281 157.29566406 32.28476563 157.02882812 33.30078125 156.75390625 C35.21517526 156.21920575 37.11433615 155.62855462 39 155 C37.52713115 146.34472955 35.0433072 138.11859273 32.36914062 129.77416992 C31.61815195 127.41599649 30.89119541 125.05116886 30.1640625 122.68554688 C29.68635344 121.18443119 29.20723845 119.68376203 28.7265625 118.18359375 C28.51287018 117.47641708 28.29917786 116.76924042 28.07901001 116.04063416 C27.40078908 113.85132511 27.40078908 113.85132511 26 111 C22.73106718 109.41532739 20.22453486 110.19463313 16.8125 111.1875 Z M-42.9921875 124.47265625 C-46 127 -46 127 -48.9453125 128.93359375 C-52.61748161 131.53340579 -55.55049154 133.62034039 -56.42529297 138.25146484 C-56.85804378 143.86859196 -56.51278865 149.39920846 -56 155 C-52.96149133 154.66238793 -51.2392587 154.18155018 -48.78125 152.31640625 C-46.06212159 148.78034671 -45.71574904 145.08579586 -44.90625 140.77734375 C-43.83974228 137.50886534 -43.04354466 136.5485641 -40 135 C-37.77294922 134.54614258 -37.77294922 134.54614258 -35 135 C-32.53128025 136.77336418 -30.50632667 138.93730912 -28.4140625 141.1328125 C-27.79405365 141.76226776 -27.1740448 142.39172302 -26.5352478 143.04025269 C-24.5530438 145.05704143 -22.58863159 147.09013864 -20.625 149.125 C-18.66524729 151.13497801 -16.70193848 153.14137757 -14.73617554 155.14547729 C-13.5153061 156.39240302 -12.29842178 157.64324821 -11.08633423 158.89871216 C-7.24877306 162.84660912 -3.23984854 166.4879338 1 170 C5.38942076 168.52326179 8.79584994 166.18013228 12.375 163.3125 C12.93316406 162.90322266 13.49132812 162.49394531 14.06640625 162.07226562 C15.90601077 160.67801865 15.90601077 160.67801865 18 158 C17.67262338 152.9817461 16.32320193 148.49754492 14.71484375 143.75390625 C14.49429825 143.09792953 14.27375275 142.44195282 14.04652405 141.76609802 C13.34918801 139.69626334 12.64350868 137.62939047 11.9375 135.5625 C11.45972915 134.14927683 10.98251035 132.7358669 10.50585938 131.32226562 C9.34360916 127.87932972 8.17386505 124.43899571 7 121 C6.09459473 121.16113281 5.18918945 121.32226562 4.25634766 121.48828125 C-4.17690015 122.81352397 -12.03714352 121.50671888 -20.375 120 C-22.50744861 119.62293621 -24.64024675 119.24784233 -26.7734375 118.875 C-28.17215088 118.62363281 -28.17215088 118.62363281 -29.59912109 118.3671875 C-35.99037367 117.3897171 -38.31526184 120.42555658 -42.9921875 124.47265625 Z M-70 123 C-72.22640712 126.73375473 -74.45001946 130.46915539 -76.67114258 134.20605469 C-77.42592445 135.47505694 -78.18144628 136.74361941 -78.93774414 138.01171875 C-80.02949344 139.84257584 -81.11850423 141.67503823 -82.20703125 143.5078125 C-82.8616333 144.60754395 -83.51623535 145.70727539 -84.19067383 146.84033203 C-85.91147515 149.84540702 -87.4845779 152.88713025 -89 156 C-87.88625 156.86625 -87.88625 156.86625 -86.75 157.75 C-84.33912357 159.72253526 -82.15957299 161.76044282 -80 164 C-79.505 163.34 -79.01 162.68 -78.5 162 C-75.59627206 159.67701765 -73.62744492 159.43083116 -69.94140625 159.59375 C-67.03469321 160.20199579 -65.29186201 162.1665104 -63 164 C-60.99633161 164.20411268 -60.99633161 164.20411268 -58.875 164.0625 C-55 164 -55 164 -53.0625 165 C-51.35699294 168.21036623 -51.29565596 171.39299727 -51 175 C-49.68 175.33 -48.36 175.66 -47 176 C-46.83197949 177.45817797 -46.66562857 178.9165484 -46.5 180.375 C-46.4071875 181.18710938 -46.314375 181.99921875 -46.21875 182.8359375 C-46 185 -46 185 -46 187 C-45.38125 187.391875 -44.7625 187.78375 -44.125 188.1875 C-42 190 -42 190 -41.25 193.25 C-39.59264812 198.22205565 -36.55953795 201.38471785 -32 204 C-29.81087138 203.93518254 -29.81087138 203.93518254 -28 203 C-27.67 202.34 -27.34 201.68 -27 201 C-28.12174498 199.87825502 -29.24383888 198.7568578 -30.3671875 197.63671875 C-31.58579841 196.4151925 -32.79837743 195.1876432 -34.0078125 193.95703125 C-34.70648438 193.24933594 -35.40515625 192.54164063 -36.125 191.8125 C-36.78757813 191.13832031 -37.45015625 190.46414062 -38.1328125 189.76953125 C-40.07943317 187.82446642 -40.07943317 187.82446642 -43 186 C-42.67 184.68 -42.34 183.36 -42 182 C-36.02389439 183.68643889 -32.37386867 188.25022672 -28.171875 192.56445312 C-26.50303522 194.19882774 -24.93993713 195.69768472 -23 197 C-20.13750006 197.07601773 -20.13750006 197.07601773 -18 196 C-18.55313379 192.11050366 -20.28128993 190.37329977 -23.0625 187.6875 C-23.866875 186.90503906 -24.67125 186.12257812 -25.5 185.31640625 C-28.43225062 182.59949279 -31.4558774 180.01806386 -34.56640625 177.5078125 C-36 176 -36 176 -36 173 C-31.53343004 173.49892537 -29.4725783 174.99262557 -26.25 178.0625 C-25.38632813 178.866875 -24.52265625 179.67125 -23.6328125 180.5 C-22.76398438 181.325 -21.89515625 182.15 -21 183 C-19.38401216 184.53040593 -17.75959452 186.05198361 -16.125 187.5625 C-15.07699219 188.55443359 -15.07699219 188.55443359 -14.0078125 189.56640625 C-11.86862033 191.38739227 -11.86862033 191.38739227 -8 191 C-7.18380575 189.20414351 -7.18380575 189.20414351 -7 187 C-8.36090293 184.98996621 -8.36090293 184.98996621 -10.4375 183.1875 C-11.17355469 182.49785156 -11.90960938 181.80820313 -12.66796875 181.09765625 C-13.43753906 180.40542969 -14.20710938 179.71320313 -15 179 C-15.71800781 178.33871094 -16.43601562 177.67742187 -17.17578125 176.99609375 C-20.32455138 174.15567776 -23.11714635 171.76961914 -27 170 C-27 168.35 -27 166.7 -27 165 C-21.47276606 166.36310732 -18.50536763 168.88450097 -14.5625 172.75 C-13.4197286 173.83251471 -12.27650366 174.91455083 -11.1328125 175.99609375 C-10.08779139 176.99661277 -9.04344752 177.99783998 -8 179 C-5.71127273 181.18973387 -3.54691034 183.10336464 -1 185 C1.15187593 184.70611656 1.15187593 184.70611656 3 184 C3.40320022 180.11244536 3.40320022 180.11244536 1.48144531 178.00042725 C0.77084961 177.29871399 0.06025391 176.59700073 -0.671875 175.87402344 C-1.47270508 175.07349548 -2.27353516 174.27296753 -3.09863281 173.44818115 C-3.97358398 172.59387512 -4.84853516 171.73956909 -5.75 170.859375 C-6.6378418 169.97719299 -7.52568359 169.09501099 -8.44042969 168.18609619 C-10.80078362 165.84435753 -13.16940685 163.51166416 -15.54248047 161.18286133 C-17.96261711 158.80366837 -20.37144675 156.41308821 -22.78125 154.0234375 C-27.51046596 149.33837613 -32.25091106 144.66491096 -37 140 C-37.99 140.33 -38.98 140.66 -40 141 C-40.88741832 143.6284008 -40.88741832 143.6284008 -41.4375 146.75 C-42.50527419 151.40837238 -43.30156982 154.73667925 -47 158 C-51.16399558 160.47588926 -54.35164164 159.98330658 -59 159 C-61.59660735 156.40339265 -60.3322936 149.29695417 -60.375 145.8125 C-60.41238281 144.67490234 -60.44976562 143.53730469 -60.48828125 142.36523438 C-60.58737712 132.93461118 -60.58737712 132.93461118 -57.4765625 129.19921875 C-56.65929687 128.47347656 -55.84203125 127.74773437 -55 127 C-55.58007812 126.87882813 -56.16015625 126.75765625 -56.7578125 126.6328125 C-57.92957031 126.38144531 -57.92957031 126.38144531 -59.125 126.125 C-59.89070313 125.96257812 -60.65640625 125.80015625 -61.4453125 125.6328125 C-64.357453 124.9114566 -67.15888383 123.96071437 -70 123 Z M-75.73828125 166.171875 C-76.25777344 166.69265625 -76.77726562 167.2134375 -77.3125 167.75 C-77.84488281 168.26046875 -78.37726563 168.7709375 -78.92578125 169.296875 C-80.24811325 170.98222637 -80.24811325 170.98222637 -79.66796875 173.203125 C-79.44753906 173.79609375 -79.22710937 174.3890625 -79 175 C-75.20338092 175.37266182 -75.20338092 175.37266182 -73.26171875 173.828125 C-72.74222656 173.30734375 -72.22273438 172.7865625 -71.6875 172.25 C-71.15511719 171.73953125 -70.62273437 171.2290625 -70.07421875 170.703125 C-68.75188675 169.01777363 -68.75188675 169.01777363 -69.33203125 166.796875 C-69.55246094 166.20390625 -69.77289063 165.6109375 -70 165 C-73.79661908 164.62733818 -73.79661908 164.62733818 -75.73828125 166.171875 Z M-60 168 C-63.96 171.96 -67.92 175.92 -72 180 C-71.34 181.32 -70.68 182.64 -70 184 C-65.99415371 183.45916492 -64.10242573 181.50509442 -61.3125 178.6875 C-60.52488281 177.90761719 -59.73726562 177.12773437 -58.92578125 176.32421875 C-57.070414 174.08498241 -56.38274353 172.83489697 -56 170 C-57.32 169.34 -58.64 168.68 -60 168 Z M-59.8125 183.1875 C-62.63859308 186.02748954 -62.63859308 186.02748954 -62.9375 189.9375 C-62.628125 190.618125 -62.31875 191.29875 -62 192 C-58.48850159 191.41604794 -56.70968242 190.16720355 -54.1875 187.6875 C-53.24970703 186.79611328 -53.24970703 186.79611328 -52.29296875 185.88671875 C-50.73700696 184.068364 -50.73700696 184.068364 -51.30078125 181.76953125 C-51.53152344 181.18558594 -51.76226562 180.60164062 -52 180 C-56.43491254 180 -56.83688474 180.24947145 -59.8125 183.1875 Z M-53.3125 193.75 C-55.24584894 195.82415591 -55.24584894 195.82415591 -54.875 198.1875 C-54.13800752 200.18560131 -54.13800752 200.18560131 -52 201 C-49.03 198.525 -49.03 198.525 -46 196 C-46.33 194.68 -46.66 193.36 -47 192 C-50.95173357 191.59770489 -50.95173357 191.59770489 -53.3125 193.75 Z " fill="#2CA9DD" transform="translate(163,4)"/>
</svg>
