<?xml version="1.0" encoding="UTF-8"?>
<svg version="1.1" xmlns="http://www.w3.org/2000/svg" width="512" height="512">
<path d="M0 0 C0.91092911 -0.00524185 1.82185822 -0.0104837 2.76039124 -0.0158844 C4.68261701 -0.02229391 6.60488207 -0.02098148 8.52709961 -0.01245117 C11.45953608 -0.00394431 14.39002157 -0.03271196 17.32226562 -0.06445312 C19.19400984 -0.06606545 21.06575748 -0.06548702 22.9375 -0.0625 C23.80954575 -0.07373398 24.68159149 -0.08496796 25.58006287 -0.09654236 C31.05048916 -0.03428462 34.20076973 0.7820994 38.53515625 4.43359375 C43.35092921 10.74391694 42.78328785 18.70190917 43.09765625 26.30859375 C43.14083984 27.283125 43.18402344 28.25765625 43.22851562 29.26171875 C43.33397899 31.65222177 43.436098 34.04281819 43.53515625 36.43359375 C44.58574219 36.92988281 45.63632813 37.42617188 46.71875 37.9375 C54.01622119 41.45148362 60.64847159 44.68007705 66.54296875 50.37890625 C68.54848264 51.69559819 68.54848264 51.69559819 71.11328125 51.02734375 C77.05457592 48.26016541 82.4964359 44.57447269 87.953125 40.95703125 C94.86653498 36.64937107 100.40599815 35.29314993 108.53515625 36.43359375 C113.11316422 38.29870811 114.88893496 40.80770234 117.3046875 44.93359375 C117.82933594 45.82481934 118.35398438 46.71604492 118.89453125 47.63427734 C119.70664062 49.01993896 119.70664062 49.01993896 120.53515625 50.43359375 C121.59360477 52.19670178 122.65219741 53.95972329 123.7109375 55.72265625 C124.75764914 57.50063219 125.80322001 59.27928021 126.84765625 61.05859375 C127.38455078 61.94804688 127.92144531 62.8375 128.47460938 63.75390625 C131.98251906 69.76999348 134.29223527 74.70571251 133.15234375 81.82421875 C132.90742188 82.4378125 132.6625 83.05140625 132.41015625 83.68359375 C132.18070313 84.3075 131.95125 84.93140625 131.71484375 85.57421875 C129.02958196 89.80661812 124.35596083 92.24964065 120.0859375 94.66796875 C119.07337891 95.24160156 118.06082031 95.81523438 117.01757812 96.40625 C115.97150391 96.99277344 114.92542969 97.57929687 113.84765625 98.18359375 C112.78998047 98.78558594 111.73230469 99.38757813 110.64257812 100.0078125 C102.78957625 104.43359375 102.78957625 104.43359375 100.53515625 104.43359375 C100.69814209 104.95469727 100.86112793 105.47580078 101.02905273 106.01269531 C101.67598301 109.10722529 101.64668022 112.00612971 101.6328125 115.16796875 C101.62958984 116.46347656 101.62636719 117.75898437 101.62304688 119.09375 C101.61469223 120.45703192 101.60622729 121.82031317 101.59765625 123.18359375 C101.59263793 124.5624984 101.5880756 125.94140479 101.58398438 127.3203125 C101.57219718 130.69145034 101.5557426 134.06250003 101.53515625 137.43359375 C102.6032251 138.0052124 102.6032251 138.0052124 103.69287109 138.58837891 C116.72997358 145.56665845 129.76467959 152.54932661 142.78515625 159.55859375 C143.84428223 160.12860107 144.9034082 160.6986084 145.99462891 161.28588867 C151.33726037 164.1636632 156.67455695 167.05082066 162.00390625 169.953125 C172.42971274 175.6283469 182.84934717 181.26000661 193.53515625 186.43359375 C194.49035156 185.76972656 195.44554687 185.10585937 196.4296875 184.421875 C215.3572225 171.43359375 215.3572225 171.43359375 221.53515625 171.43359375 C221.51420898 170.67739746 221.49326172 169.92120117 221.47167969 169.14208984 C221.3882504 165.69772775 221.33641001 162.25357868 221.28515625 158.80859375 C221.25164062 157.61878906 221.218125 156.42898437 221.18359375 155.203125 C221.05860608 144.01672845 221.05860608 144.01672845 225.53515625 139.43359375 C230.13713612 135.80073992 234.38643314 135.98114636 240 136 C241.36639366 135.99213722 241.36639366 135.99213722 242.76039124 135.9841156 C244.68261701 135.97770609 246.60488207 135.97901852 248.52709961 135.98754883 C251.45953608 135.99605569 254.39002157 135.96728804 257.32226562 135.93554688 C259.19400984 135.93393455 261.06575748 135.93451298 262.9375 135.9375 C263.80954575 135.92626602 264.68159149 135.91503204 265.58006287 135.90345764 C271.05048916 135.96571538 274.20076973 136.7820994 278.53515625 140.43359375 C283.25701177 146.62085271 282.77292652 154.34513336 283.09765625 161.80859375 C283.14083984 162.73542969 283.18402344 163.66226563 283.22851562 164.6171875 C283.33391811 166.88919669 283.43604231 169.161303 283.53515625 171.43359375 C284.58574219 171.92988281 285.63632812 172.42617187 286.71875 172.9375 C294.01622119 176.45148362 300.64847159 179.68007705 306.54296875 185.37890625 C308.54848264 186.69559819 308.54848264 186.69559819 311.11328125 186.02734375 C317.05457592 183.26016541 322.4964359 179.57447269 327.953125 175.95703125 C334.86653498 171.64937107 340.40599815 170.29314993 348.53515625 171.43359375 C353.11316422 173.29870811 354.88893496 175.80770234 357.3046875 179.93359375 C358.09166016 181.27043213 358.09166016 181.27043213 358.89453125 182.63427734 C359.4359375 183.55805176 359.97734375 184.48182617 360.53515625 185.43359375 C361.59360477 187.19670178 362.65219741 188.95972329 363.7109375 190.72265625 C364.75764914 192.50063219 365.80322001 194.27928021 366.84765625 196.05859375 C367.38455078 196.94804687 367.92144531 197.8375 368.47460938 198.75390625 C371.98251906 204.76999348 374.29223527 209.70571251 373.15234375 216.82421875 C372.90742188 217.4378125 372.6625 218.05140625 372.41015625 218.68359375 C372.18070312 219.3075 371.95125 219.93140625 371.71484375 220.57421875 C369.02958196 224.80661812 364.35596083 227.24964065 360.0859375 229.66796875 C359.07337891 230.24160156 358.06082031 230.81523437 357.01757812 231.40625 C355.97150391 231.99277344 354.92542969 232.57929688 353.84765625 233.18359375 C352.78998047 233.78558594 351.73230469 234.38757813 350.64257812 235.0078125 C342.78957625 239.43359375 342.78957625 239.43359375 340.53515625 239.43359375 C340.69814209 239.95469727 340.86112793 240.47580078 341.02905273 241.01269531 C341.67598301 244.10722529 341.64668022 247.00612971 341.6328125 250.16796875 C341.62958984 251.46347656 341.62636719 252.75898438 341.62304688 254.09375 C341.61469223 255.45703192 341.60622729 256.82031317 341.59765625 258.18359375 C341.59263793 259.5624984 341.5880756 260.94140479 341.58398438 262.3203125 C341.57219718 265.69145034 341.5557426 269.06250003 341.53515625 272.43359375 C342.02806152 272.69986572 342.5209668 272.9661377 343.02880859 273.24047852 C368.85101097 287.24231917 368.85101097 287.24231917 372.53515625 294.43359375 C375.04397177 305.36486135 369.01581689 313.46781309 363.59765625 322.62109375 C362.97697266 323.68779297 362.35628906 324.75449219 361.71679688 325.85351562 C353.60098723 339.67372821 353.60098723 339.67372821 348.53515625 341.43359375 C337.53832176 343.45275378 330.29060583 338.40766797 321.51245117 332.54052734 C315.42859326 328.00945819 315.42859326 328.00945819 308.375 326.75 C306.50500303 327.8028896 305.09387832 328.96451989 303.53515625 330.43359375 C302.61992187 331.02140625 301.7046875 331.60921875 300.76171875 332.21484375 C299.03096787 333.35828277 297.30179123 334.50410827 295.57421875 335.65234375 C291.69892639 337.92372333 287.66524164 339.67998705 283.53515625 341.43359375 C283.51533691 341.99755859 283.49551758 342.56152344 283.47509766 343.14257812 C283.37883814 345.73998949 283.26957573 348.33670478 283.16015625 350.93359375 C283.11375 352.26390625 283.11375 352.26390625 283.06640625 353.62109375 C282.46944921 367.15212 282.46944921 367.15212 278.09765625 372.30859375 C274.76122576 375.07538977 272.76187081 376.67838643 268.43432617 376.72412109 C267.61304733 376.7368808 266.79176849 376.7496405 265.94560242 376.76278687 C265.06120987 376.76501251 264.17681732 376.76723816 263.265625 376.76953125 C262.351866 376.77618805 261.43810699 376.78284485 260.49665833 376.78970337 C258.56248996 376.79983018 256.62828665 376.80452038 254.6940918 376.80419922 C251.74403744 376.80856213 248.79549171 376.84485249 245.84570312 376.8828125 C243.96484885 376.88868281 242.08398749 376.89265077 240.203125 376.89453125 C239.32480515 376.90890228 238.44648529 376.92327332 237.54154968 376.93807983 C232.06603057 376.89752265 228.79708367 376.20129709 224.53515625 372.43359375 C221.59786637 368.693715 221.17274441 365.95679486 221.2421875 361.2578125 C221.25185547 360.10087891 221.26152344 358.94394531 221.27148438 357.75195312 C221.29662109 356.55376953 221.32175781 355.35558594 221.34765625 354.12109375 C221.36119141 352.90357422 221.37472656 351.68605469 221.38867188 350.43164062 C221.42396364 347.4318403 221.47327144 344.432944 221.53515625 341.43359375 C220.95652832 341.25618652 220.37790039 341.0787793 219.78173828 340.89599609 C214.9910057 339.37297659 210.73949954 337.66563699 206.41015625 335.05859375 C205.45882813 334.49398438 204.5075 333.929375 203.52734375 333.34765625 C200.10256612 331.15687161 196.82539131 328.82127056 193.53515625 326.43359375 C175.88980034 335.14102628 158.44854731 344.23155467 141.19946289 353.69970703 C135.82663682 356.6466076 130.43955268 359.56465095 125.03515625 362.453125 C124.0775666 362.96499107 124.0775666 362.96499107 123.10063171 363.48719788 C119.9470412 365.17203994 116.79213449 366.85437833 113.63598633 368.53442383 C112.49540771 369.14310303 111.3548291 369.75178223 110.1796875 370.37890625 C109.16237549 370.92047363 108.14506348 371.46204102 107.09692383 372.02001953 C104.41476388 373.45341744 104.41476388 373.45341744 101.53515625 375.43359375 C101.26788611 377.91700278 101.18649291 380.14831443 101.2421875 382.62890625 C101.24643234 383.33634979 101.25067719 384.04379333 101.25505066 384.77267456 C101.27186078 387.0350328 101.30951497 389.29650423 101.34765625 391.55859375 C101.36270018 393.09113298 101.37638909 394.62368615 101.38867188 396.15625 C101.42177163 399.91570693 101.473568 403.67449993 101.53515625 407.43359375 C102.02806152 407.69986572 102.5209668 407.9661377 103.02880859 408.24047852 C128.85101097 422.24231917 128.85101097 422.24231917 132.53515625 429.43359375 C135.03656575 440.33259227 129.03685308 448.4717666 123.66015625 457.62109375 C122.74169922 459.22114258 122.74169922 459.22114258 121.8046875 460.85351562 C118.02158797 467.33014962 114.82657737 472.239313 108.53515625 476.43359375 C97.57105561 478.52698855 90.24958953 473.38025351 81.51245117 467.54052734 C75.44668416 463.02525243 75.44668416 463.02525243 68.41455078 461.73022461 C66.54096535 462.78719201 65.11452568 463.97786247 63.53515625 465.43359375 C62.45234375 466.10519531 61.36953125 466.77679688 60.25390625 467.46875 C58.10689775 468.82105268 55.96106409 470.17522241 53.81640625 471.53125 C50.44457799 473.48610757 47.14119697 474.97205452 43.53515625 476.43359375 C43.51533691 477.02785156 43.49551758 477.62210937 43.47509766 478.234375 C43.37891632 480.96783794 43.26962068 483.70063178 43.16015625 486.43359375 C43.12921875 487.36816406 43.09828125 488.30273438 43.06640625 489.265625 C42.48450101 503.1343666 42.48450101 503.1343666 38.09765625 508.30859375 C34.76122576 511.07538977 32.76187081 512.67838643 28.43432617 512.72412109 C27.20240791 512.74326065 27.20240791 512.74326065 25.94560242 512.76278687 C24.6190136 512.76612534 24.6190136 512.76612534 23.265625 512.76953125 C22.351866 512.77618805 21.43810699 512.78284485 20.49665833 512.78970337 C18.56248996 512.79983018 16.62828665 512.80452038 14.6940918 512.80419922 C11.74403744 512.80856213 8.79549171 512.84485249 5.84570312 512.8828125 C3.96484885 512.88868281 2.08398749 512.89265077 0.203125 512.89453125 C-0.67519485 512.90890228 -1.55351471 512.92327332 -2.45845032 512.93807983 C-7.93396943 512.89752265 -11.20291633 512.20129709 -15.46484375 508.43359375 C-18.46434337 504.63659403 -18.82573677 501.81640269 -18.7578125 497.0390625 C-18.74814453 495.83701172 -18.73847656 494.63496094 -18.72851562 493.39648438 C-18.70337891 492.15060547 -18.67824219 490.90472656 -18.65234375 489.62109375 C-18.63880859 488.35587891 -18.62527344 487.09066406 -18.61132812 485.78710938 C-18.57602693 482.66883732 -18.52671194 479.55143333 -18.46484375 476.43359375 C-19.02461914 476.26923828 -19.58439453 476.10488281 -20.16113281 475.93554688 C-25.67727369 474.22147868 -30.34429849 472.0145441 -35.21484375 468.93359375 C-35.84777344 468.54300781 -36.48070313 468.15242188 -37.1328125 467.75 C-38.31217808 467.02178466 -39.48929929 466.28990848 -40.66308594 465.55273438 C-42.91508486 464.15393179 -45.18929559 462.79366914 -47.46484375 461.43359375 C-51.23674149 463.55670856 -55.00717646 465.6824078 -58.77734375 467.80859375 C-59.84919922 468.411875 -60.92105469 469.01515625 -62.02539062 469.63671875 C-63.05341797 470.21679688 -64.08144531 470.796875 -65.140625 471.39453125 C-66.08848877 471.92868652 -67.03635254 472.4628418 -68.01293945 473.01318359 C-69.86928447 474.08858092 -71.67981054 475.24357161 -73.46484375 476.43359375 C-76.13671875 476.8046875 -76.13671875 476.8046875 -79.21484375 476.87109375 C-80.2203125 476.91105469 -81.22578125 476.95101563 -82.26171875 476.9921875 C-87.35128091 476.10461751 -90.80903714 473.72279627 -93.84277344 469.52856445 C-95.1392444 467.34654392 -96.31618187 465.1342918 -97.46484375 462.87109375 C-98.31621568 461.25702429 -99.16908545 459.64374402 -100.0234375 458.03125 C-100.4344873 457.24637207 -100.84553711 456.46149414 -101.26904297 455.65283203 C-102.90152828 452.62316861 -104.70984435 449.73077451 -106.52734375 446.80859375 C-109.99829915 440.85135115 -111.4511042 436.23789458 -109.65234375 429.37109375 C-107.23891751 423.93298048 -102.51784503 421.24600324 -97.46484375 418.43359375 C-95.84248005 417.83329874 -94.21431754 417.24854608 -92.58203125 416.67578125 C-84.48125969 413.49338197 -84.48125969 413.49338197 -78.46484375 407.43359375 C-76.01745143 397.05207105 -77.31907378 385.93292877 -78.46484375 375.43359375 C-79.46281982 374.88215698 -79.46281982 374.88215698 -80.48095703 374.31958008 C-83.52093519 372.63496742 -86.55538976 370.94063523 -89.58984375 369.24609375 C-90.6365625 368.66794922 -91.68328125 368.08980469 -92.76171875 367.49414062 C-107.37961933 359.30626593 -107.37961933 359.30626593 -109.40234375 353.62109375 C-109.63824219 353.01652344 -109.87414062 352.41195313 -110.1171875 351.7890625 C-111.43706936 342.84649212 -107.12242759 336.41900832 -102.77734375 328.93359375 C-102.16439453 327.84433594 -101.55144531 326.75507813 -100.91992188 325.6328125 C-91.36314633 308.87045115 -91.36314633 308.87045115 -85.46484375 306.43359375 C-75.71697477 304.79051697 -69.51247079 308.57369923 -61.53466797 313.66552734 C-59.44254625 314.98818965 -57.32976293 316.27278719 -55.21484375 317.55859375 C-54.22254761 318.21686157 -54.22254761 318.21686157 -53.21020508 318.88842773 C-51.26587721 320.06389221 -49.6814541 320.92565654 -47.46484375 321.43359375 C-44.58477646 320.21866172 -42.85590611 319.27082269 -40.46484375 317.43359375 C-39.54960938 316.84578125 -38.634375 316.25796875 -37.69140625 315.65234375 C-36.40363281 314.8015625 -36.40363281 314.8015625 -35.08984375 313.93359375 C-23.39629536 306.43359375 -23.39629536 306.43359375 -18.46484375 306.43359375 C-18.46484375 273.43359375 -18.46484375 240.43359375 -18.46484375 206.43359375 C-21.43484375 205.44359375 -24.40484375 204.45359375 -27.46484375 203.43359375 C-34.17133633 200.04014067 -40.45678195 195.9396401 -46.46484375 191.43359375 C-51.86689148 193.99881195 -57.18761028 196.5352935 -62.1796875 199.8359375 C-69.01934588 204.33876423 -74.20933427 207.45744313 -82.68359375 207.23828125 C-88.34870012 205.59921958 -92.09370747 202.48831319 -95.08984375 197.4296875 C-95.89819941 195.91896832 -96.6893903 194.39896262 -97.46484375 192.87109375 C-98.31621568 191.25702429 -99.16908545 189.64374402 -100.0234375 188.03125 C-100.4344873 187.24637207 -100.84553711 186.46149414 -101.26904297 185.65283203 C-102.90152828 182.62316861 -104.70984435 179.73077451 -106.52734375 176.80859375 C-109.99829915 170.85135115 -111.4511042 166.23789458 -109.65234375 159.37109375 C-107.23891751 153.93298048 -102.51784503 151.24600324 -97.46484375 148.43359375 C-95.84248005 147.83329874 -94.21431754 147.24854608 -92.58203125 146.67578125 C-84.48125969 143.49338197 -84.48125969 143.49338197 -78.46484375 137.43359375 C-76.01745143 127.05207105 -77.31907378 115.93292877 -78.46484375 105.43359375 C-79.13016113 105.06596924 -79.79547852 104.69834473 -80.48095703 104.31958008 C-83.52093519 102.63496742 -86.55538976 100.94063523 -89.58984375 99.24609375 C-90.6365625 98.66794922 -91.68328125 98.08980469 -92.76171875 97.49414062 C-107.37961933 89.30626593 -107.37961933 89.30626593 -109.40234375 83.62109375 C-109.75619141 82.71423828 -109.75619141 82.71423828 -110.1171875 81.7890625 C-111.43706936 72.84649212 -107.12242759 66.41900832 -102.77734375 58.93359375 C-102.16439453 57.84433594 -101.55144531 56.75507812 -100.91992188 55.6328125 C-91.36314633 38.87045115 -91.36314633 38.87045115 -85.46484375 36.43359375 C-75.71697477 34.79051697 -69.51247079 38.57369923 -61.53466797 43.66552734 C-59.44254625 44.98818965 -57.32976293 46.27278719 -55.21484375 47.55859375 C-54.55331299 47.99743896 -53.89178223 48.43628418 -53.21020508 48.88842773 C-51.26587721 50.06389221 -49.6814541 50.92565654 -47.46484375 51.43359375 C-44.58477646 50.21866172 -42.85590611 49.27082269 -40.46484375 47.43359375 C-39.54960938 46.84578125 -38.634375 46.25796875 -37.69140625 45.65234375 C-36.83289063 45.08515625 -35.974375 44.51796875 -35.08984375 43.93359375 C-23.39629536 36.43359375 -23.39629536 36.43359375 -18.46484375 36.43359375 C-18.49626465 35.25385986 -18.49626465 35.25385986 -18.52832031 34.05029297 C-18.61172128 30.46985777 -18.66358151 26.88962733 -18.71484375 23.30859375 C-18.74835938 22.07109375 -18.781875 20.83359375 -18.81640625 19.55859375 C-18.92696908 9.2762501 -18.92696908 9.2762501 -16.76171875 5.75390625 C-11.46842828 0.40660261 -7.21709301 -0.02423922 0 0 Z M66.1875 192.21484375 C64.9362419 193.10309073 63.69824804 194.01025509 62.47265625 194.93359375 C56.05833761 199.65185207 49.85905798 202.77164288 42.53515625 206.43359375 C42.53515625 239.43359375 42.53515625 272.43359375 42.53515625 306.43359375 C48.14515625 309.40359375 53.75515625 312.37359375 59.53515625 315.43359375 C66.35546875 320.00390625 66.35546875 320.00390625 69.53515625 322.43359375 C80.16386935 317.17464088 90.69842641 311.76689679 101.16015625 306.18359375 C102.56427572 305.43592628 103.96841007 304.68828673 105.37255859 303.94067383 C115.04936415 298.78326467 124.69902949 293.57799296 134.3046875 288.2890625 C138.09299891 286.20734148 141.90642978 284.17975402 145.734375 282.171875 C146.75644043 281.63022705 147.77850586 281.0885791 148.83154297 280.53051758 C150.79753598 279.48959478 152.76901463 278.45894753 154.74658203 277.44018555 C155.62169434 276.97394775 156.49680664 276.50770996 157.3984375 276.02734375 C158.17485596 275.62193359 158.95127441 275.21652344 159.7512207 274.79882812 C161.64183718 273.58639931 161.64183718 273.58639931 162.27001953 271.68139648 C162.84528727 266.80433384 162.96085443 261.92324641 163.05004883 257.01635742 C163.08175617 255.67082796 163.12958544 254.32558079 163.19360352 252.98120117 C163.81147866 245.46148862 163.81147866 245.46148862 161.24609375 238.69311523 C159.09107953 237.29802401 156.9137962 236.40427845 154.53515625 235.43359375 C152.82590457 234.52496561 151.11736614 233.61477453 149.42021179 232.68374634 C147.48081347 231.62298765 145.52947503 230.58823877 143.57275391 229.55981445 C139.29086025 227.30862935 135.01379847 225.04842623 130.73828125 222.78515625 C130.02648712 222.4085939 129.31469299 222.03203156 128.58132935 221.64405823 C122.74989349 218.55567716 116.94670901 215.41781628 111.16015625 212.24609375 C103.52454192 208.06539653 95.88343528 203.89526526 88.22503662 199.75643921 C86.5150221 198.83150902 84.80656268 197.90370557 83.09814453 196.97583008 C81.53362549 196.13121216 81.53362549 196.13121216 79.9375 195.26953125 C79.01445068 194.7698584 78.09140137 194.27018555 77.14038086 193.75537109 C71.76465141 190.57751448 71.76465141 190.57751448 66.1875 192.21484375 Z " fill="#FED92D" transform="translate(124.46484375,-0.43359375)"/>
<path d="M0 0 C20.13 0 40.26 0 61 0 C61.33 16.5 61.66 33 62 50 C67.28 52.64 72.56 55.28 78 58 C84.75 62.5 84.75 62.5 88 65 C103.56259181 57.44244743 118.75913501 49.18005801 134 41 C136.78317617 44.34245845 139.10423703 47.69185575 141.25 51.47265625 C141.85328125 52.52831787 142.4565625 53.58397949 143.078125 54.67163086 C143.71234375 55.79061768 144.3465625 56.90960449 145 58.0625 C146.33046764 60.4000806 147.66421082 62.73576906 149 65.0703125 C149.33394775 65.6543132 149.66789551 66.2383139 150.01196289 66.8400116 C152.1795705 70.61497482 154.40863425 74.34596943 156.6875 78.0546875 C157.24824219 78.96855225 157.80898438 79.88241699 158.38671875 80.82397461 C159.44337369 82.53576201 160.50819836 84.24253952 161.58203125 85.94360352 C162.04996094 86.70342529 162.51789063 87.46324707 163 88.24609375 C163.4125 88.90279053 163.825 89.5594873 164.25 90.23608398 C165 92 165 92 164 95 C161.57006836 96.57470703 161.57006836 96.57470703 158.33984375 98.2578125 C157.76224808 98.56258011 157.1846524 98.86734772 156.58955383 99.18135071 C154.70990718 100.17116037 152.82377859 101.14789815 150.9375 102.125 C149.01425425 103.13456669 147.0928648 104.14760332 145.17160034 105.16093445 C143.89980139 105.83152323 142.62744257 106.50105128 141.35452271 107.16950989 C134.1458379 110.95942239 127.0749615 114.96727195 120 119 C120 129.56 120 140.12 120 151 C122.76375 152.505625 125.5275 154.01125 128.375 155.5625 C147.47789086 166.12501219 147.47789086 166.12501219 151 173 C153.5014095 183.89899852 147.50169683 192.03817285 142.125 201.1875 C141.51269531 202.25419922 140.90039062 203.32089844 140.26953125 204.41992188 C136.48643172 210.89655587 133.29142112 215.80571925 127 220 C116.03589936 222.0933948 108.71443328 216.94665976 99.97729492 211.10693359 C93.91152791 206.59165868 93.91152791 206.59165868 86.87939453 205.29663086 C85.0058091 206.35359826 83.57936943 207.54426872 82 209 C80.9171875 209.67160156 79.834375 210.34320313 78.71875 211.03515625 C76.5717415 212.38745893 74.42590784 213.74162866 72.28125 215.09765625 C68.90942174 217.05251382 65.60604072 218.53846077 62 220 C61.98018066 220.59425781 61.96036133 221.18851563 61.93994141 221.80078125 C61.84376007 224.53424419 61.73446443 227.26703803 61.625 230 C61.5940625 230.93457031 61.563125 231.86914062 61.53125 232.83203125 C60.94934476 246.70077285 60.94934476 246.70077285 56.5625 251.875 C53.22606951 254.64179602 51.22671456 256.24479268 46.89916992 256.29052734 C46.07789108 256.30328705 45.25661224 256.31604675 44.41044617 256.32919312 C43.08385735 256.33253159 43.08385735 256.33253159 41.73046875 256.3359375 C40.81670975 256.3425943 39.90295074 256.3492511 38.96150208 256.35610962 C37.02733371 256.36623643 35.0931304 256.37092663 33.15893555 256.37060547 C30.20888119 256.37496838 27.26033546 256.41125874 24.31054688 256.44921875 C22.4296926 256.45508906 20.54883124 256.45905702 18.66796875 256.4609375 C17.7896489 256.47530853 16.91132904 256.48967957 16.00639343 256.50448608 C10.53087432 256.4639289 7.26192742 255.76770334 3 252 C0.00050038 248.20300028 -0.36089302 245.38280894 -0.29296875 240.60546875 C-0.28330078 239.40341797 -0.27363281 238.20136719 -0.26367188 236.96289062 C-0.23853516 235.71701172 -0.21339844 234.47113281 -0.1875 233.1875 C-0.17396484 231.92228516 -0.16042969 230.65707031 -0.14648438 229.35351562 C-0.11118318 226.23524357 -0.06186819 223.11783958 0 220 C-0.55977539 219.83564453 -1.11955078 219.67128906 -1.69628906 219.50195312 C-7.21242994 217.78788493 -11.87945474 215.58095035 -16.75 212.5 C-17.38292969 212.10941406 -18.01585938 211.71882812 -18.66796875 211.31640625 C-19.84733433 210.58819091 -21.02445554 209.85631473 -22.19824219 209.11914062 C-24.45024111 207.72033804 -26.72445184 206.36007539 -29 205 C-32.77189774 207.12311481 -36.54233271 209.24881405 -40.3125 211.375 C-41.38435547 211.97828125 -42.45621094 212.5815625 -43.56054688 213.203125 C-44.58857422 213.78320312 -45.61660156 214.36328125 -46.67578125 214.9609375 C-48.0975769 215.76217041 -48.0975769 215.76217041 -49.5480957 216.57958984 C-51.40444072 217.65498717 -53.21496679 218.80997786 -55 220 C-57.671875 220.37109375 -57.671875 220.37109375 -60.75 220.4375 C-61.75546875 220.47746094 -62.7609375 220.51742187 -63.796875 220.55859375 C-68.88643716 219.67102376 -72.34419339 217.28920252 -75.37792969 213.0949707 C-76.67440065 210.91295017 -77.85133812 208.70069805 -79 206.4375 C-79.85137193 204.82343054 -80.7042417 203.21015027 -81.55859375 201.59765625 C-81.96964355 200.81277832 -82.38069336 200.02790039 -82.80419922 199.21923828 C-84.43668453 196.18957486 -86.2450006 193.29718076 -88.0625 190.375 C-91.5334554 184.4177574 -92.98626045 179.80430083 -91.1875 172.9375 C-88.77407376 167.49938673 -84.05300128 164.81240949 -79 162 C-77.3776363 161.39970499 -75.74947379 160.81495233 -74.1171875 160.2421875 C-66.01641594 157.05978822 -66.01641594 157.05978822 -60 151 C-57.55260768 140.6184773 -58.85423003 129.49933502 -60 119 C-60.66531738 118.63237549 -61.33063477 118.26475098 -62.01611328 117.88598633 C-65.05609144 116.20137367 -68.09054601 114.50704148 -71.125 112.8125 C-72.17171875 112.23435547 -73.2184375 111.65621094 -74.296875 111.06054688 C-88.91477558 102.87267218 -88.91477558 102.87267218 -90.9375 97.1875 C-91.29134766 96.28064453 -91.29134766 96.28064453 -91.65234375 95.35546875 C-92.97222561 86.41289837 -88.65758384 79.98541457 -84.3125 72.5 C-83.69955078 71.41074219 -83.08660156 70.32148438 -82.45507812 69.19921875 C-72.89830258 52.4368574 -72.89830258 52.4368574 -67 50 C-57.25213102 48.35692322 -51.04762704 52.14010548 -43.06982422 57.23193359 C-40.9777025 58.5545959 -38.86491918 59.83919344 -36.75 61.125 C-36.08846924 61.56384521 -35.42693848 62.00269043 -34.74536133 62.45483398 C-32.80103346 63.63029846 -31.21661035 64.49206279 -29 65 C-26.11993271 63.78506797 -24.39106236 62.83722894 -22 61 C-21.08476563 60.4121875 -20.16953125 59.824375 -19.2265625 59.21875 C-18.36804688 58.6515625 -17.50953125 58.084375 -16.625 57.5 C-4.93145161 50 -4.93145161 50 0 50 C0 33.5 0 17 0 0 Z " fill="#FE631A" transform="translate(106,256)"/>
<path d="M0 0 C0.91092911 -0.00524185 1.82185822 -0.0104837 2.76039124 -0.0158844 C4.68261701 -0.02229391 6.60488207 -0.02098148 8.52709961 -0.01245117 C11.45953608 -0.00394431 14.39002157 -0.03271196 17.32226562 -0.06445312 C19.19400984 -0.06606545 21.06575748 -0.06548702 22.9375 -0.0625 C23.80954575 -0.07373398 24.68159149 -0.08496796 25.58006287 -0.09654236 C31.05048916 -0.03428462 34.20076973 0.7820994 38.53515625 4.43359375 C43.25701177 10.62085271 42.77292652 18.34513336 43.09765625 25.80859375 C43.14083984 26.73542969 43.18402344 27.66226563 43.22851562 28.6171875 C43.33391811 30.88919669 43.43604231 33.161303 43.53515625 35.43359375 C44.58574219 35.92988281 45.63632812 36.42617187 46.71875 36.9375 C54.01622119 40.45148362 60.64847159 43.68007705 66.54296875 49.37890625 C68.54848264 50.69559819 68.54848264 50.69559819 71.11328125 50.02734375 C77.05457592 47.26016541 82.4964359 43.57447269 87.953125 39.95703125 C94.86653498 35.64937107 100.40599815 34.29314993 108.53515625 35.43359375 C113.11316422 37.29870811 114.88893496 39.80770234 117.3046875 43.93359375 C117.82933594 44.82481934 118.35398437 45.71604492 118.89453125 46.63427734 C119.70664062 48.01993896 119.70664062 48.01993896 120.53515625 49.43359375 C121.59360477 51.19670178 122.65219741 52.95972329 123.7109375 54.72265625 C124.75764914 56.50063219 125.80322001 58.27928021 126.84765625 60.05859375 C127.38455078 60.94804687 127.92144531 61.8375 128.47460938 62.75390625 C131.98251906 68.76999348 134.29223527 73.70571251 133.15234375 80.82421875 C132.90742188 81.4378125 132.6625 82.05140625 132.41015625 82.68359375 C132.18070313 83.3075 131.95125 83.93140625 131.71484375 84.57421875 C129.02958196 88.80661812 124.35596083 91.24964065 120.0859375 93.66796875 C119.07337891 94.24160156 118.06082031 94.81523437 117.01757812 95.40625 C115.97150391 95.99277344 114.92542969 96.57929688 113.84765625 97.18359375 C112.78998047 97.78558594 111.73230469 98.38757813 110.64257812 99.0078125 C102.78957625 103.43359375 102.78957625 103.43359375 100.53515625 103.43359375 C100.69814209 103.95469727 100.86112793 104.47580078 101.02905273 105.01269531 C101.67598301 108.10722529 101.64668022 111.00612971 101.6328125 114.16796875 C101.62958984 115.46347656 101.62636719 116.75898438 101.62304688 118.09375 C101.61469223 119.45703192 101.60622729 120.82031317 101.59765625 122.18359375 C101.59263793 123.5624984 101.5880756 124.94140479 101.58398438 126.3203125 C101.57219718 129.69145034 101.5557426 133.06250003 101.53515625 136.43359375 C102.02806152 136.69986572 102.5209668 136.9661377 103.02880859 137.24047852 C128.85101097 151.24231917 128.85101097 151.24231917 132.53515625 158.43359375 C135.04397177 169.36486135 129.01581689 177.46781309 123.59765625 186.62109375 C122.97697266 187.68779297 122.35628906 188.75449219 121.71679688 189.85351562 C113.60098723 203.67372821 113.60098723 203.67372821 108.53515625 205.43359375 C97.53832176 207.45275378 90.29060583 202.40766797 81.51245117 196.54052734 C75.42859326 192.00945819 75.42859326 192.00945819 68.375 190.75 C66.50500303 191.8028896 65.09387832 192.96451989 63.53515625 194.43359375 C62.61992187 195.02140625 61.7046875 195.60921875 60.76171875 196.21484375 C59.03096787 197.35828277 57.30179123 198.50410827 55.57421875 199.65234375 C51.69892639 201.92372333 47.66524164 203.67998705 43.53515625 205.43359375 C43.51533691 205.99755859 43.49551758 206.56152344 43.47509766 207.14257812 C43.37883814 209.73998949 43.26957573 212.33670478 43.16015625 214.93359375 C43.12921875 215.82046875 43.09828125 216.70734375 43.06640625 217.62109375 C42.46944921 231.15212 42.46944921 231.15212 38.09765625 236.30859375 C34.76122576 239.07538977 32.76187081 240.67838643 28.43432617 240.72412109 C27.61304733 240.7368808 26.79176849 240.7496405 25.94560242 240.76278687 C24.6190136 240.76612534 24.6190136 240.76612534 23.265625 240.76953125 C21.8949865 240.77951645 21.8949865 240.77951645 20.49665833 240.78970337 C18.56248996 240.79983018 16.62828665 240.80452038 14.6940918 240.80419922 C11.74403744 240.80856213 8.79549171 240.84485249 5.84570312 240.8828125 C3.96484885 240.88868281 2.08398749 240.89265077 0.203125 240.89453125 C-0.67519485 240.90890228 -1.55351471 240.92327332 -2.45845032 240.93807983 C-7.93396943 240.89752265 -11.20291633 240.20129709 -15.46484375 236.43359375 C-18.40213363 232.693715 -18.82725559 229.95679486 -18.7578125 225.2578125 C-18.74814453 224.10087891 -18.73847656 222.94394531 -18.72851562 221.75195312 C-18.70337891 220.55376953 -18.67824219 219.35558594 -18.65234375 218.12109375 C-18.63880859 216.90357422 -18.62527344 215.68605469 -18.61132812 214.43164062 C-18.57603636 211.4318403 -18.52672856 208.432944 -18.46484375 205.43359375 C-19.04347168 205.25618652 -19.62209961 205.0787793 -20.21826172 204.89599609 C-25.0089943 203.37297659 -29.26050046 201.66563699 -33.58984375 199.05859375 C-35.01683594 198.21167969 -35.01683594 198.21167969 -36.47265625 197.34765625 C-39.89743388 195.15687161 -43.17460869 192.82127056 -46.46484375 190.43359375 C-56.84767377 195.55719637 -67.13994777 200.84066492 -77.39282227 206.21972656 C-82.72353195 209.0144407 -88.07120255 211.76221486 -93.46484375 214.43359375 C-93.85115967 213.76118652 -94.23747559 213.0887793 -94.63549805 212.39599609 C-96.47308652 209.1994115 -98.31237656 206.00380944 -100.15234375 202.80859375 C-100.48720795 202.22679352 -100.82207214 201.64499329 -101.16708374 201.04556274 C-106.50562997 191.77440689 -111.91333341 182.54719178 -117.42651367 173.37841797 C-117.93029541 172.53424316 -118.43407715 171.69006836 -118.953125 170.8203125 C-119.39180908 170.09030029 -119.83049316 169.36028809 -120.2824707 168.6081543 C-121.55001392 166.27695309 -122.5256938 163.91324335 -123.46484375 161.43359375 C-115.70099439 156.33888476 -107.48840039 152.1245092 -99.27734375 147.80859375 C-97.09939777 146.66156956 -94.92193001 145.51365745 -92.74528503 144.36416626 C-91.39935824 143.65359837 -90.05265112 142.94450585 -88.70503235 142.2371521 C-86.952691 141.31319839 -85.20846844 140.37389349 -83.46484375 139.43359375 C-82.01948242 138.79804565 -82.01948242 138.79804565 -80.54492188 138.1496582 C-78.11381738 136.52357625 -78.11381738 136.52357625 -77.8972168 133.15551758 C-77.89800612 131.81695896 -77.92613145 130.4782335 -77.9765625 129.140625 C-77.98717461 128.08158211 -77.98717461 128.08158211 -77.9980011 127.00114441 C-78.02596845 124.74837791 -78.08870041 122.49810727 -78.15234375 120.24609375 C-78.17742409 118.71813489 -78.20023774 117.19013702 -78.22070312 115.66210938 C-78.27580131 111.91831069 -78.36208089 108.17637516 -78.46484375 104.43359375 C-79.0160791 104.13291992 -79.56731445 103.83224609 -80.13525391 103.52246094 C-80.91690918 103.09610352 -81.69856445 102.66974609 -82.50390625 102.23046875 C-83.38473877 101.75013184 -84.26557129 101.26979492 -85.1730957 100.77490234 C-87.13296587 99.70564364 -89.0924326 98.63564518 -91.05151367 97.56494141 C-96.28819571 94.70431239 -101.53119854 91.85668847 -106.7890625 89.03515625 C-107.79308105 88.49407227 -108.79709961 87.95298828 -109.83154297 87.39550781 C-111.77476246 86.3486881 -113.72035932 85.30626794 -115.66845703 84.26855469 C-116.54614746 83.79450195 -117.42383789 83.32044922 -118.328125 82.83203125 C-119.10454346 82.41614746 -119.88096191 82.00026367 -120.6809082 81.57177734 C-122.46484375 80.43359375 -122.46484375 80.43359375 -123.46484375 78.43359375 C-122.43945312 76.21655273 -122.43945312 76.21655273 -120.80859375 73.4296875 C-120.20474854 72.38989746 -119.60090332 71.35010742 -118.97875977 70.27880859 C-118.31416748 69.1542627 -117.6495752 68.0297168 -116.96484375 66.87109375 C-116.28713326 65.71207026 -115.60997485 64.55272379 -114.93334961 63.39306641 C-107.88533261 51.34284057 -100.69146901 39.37727666 -93.46484375 27.43359375 C-89.22979448 28.04201891 -86.08531417 29.51964611 -82.34375 31.56640625 C-81.76253891 31.88133026 -81.18132782 32.19625427 -80.58250427 32.52072144 C-78.72735154 33.52718491 -76.87715294 34.54234802 -75.02734375 35.55859375 C-72.61378222 36.87702645 -70.1981087 38.19152839 -67.78125 39.50390625 C-67.18607574 39.82764221 -66.59090149 40.15137817 -65.97769165 40.48492432 C-59.55276051 43.96076524 -53.01940208 47.20995819 -46.46484375 50.43359375 C-45.50964844 49.76972656 -44.55445313 49.10585937 -43.5703125 48.421875 C-24.6427775 35.43359375 -24.6427775 35.43359375 -18.46484375 35.43359375 C-18.49626465 34.29929932 -18.49626465 34.29929932 -18.52832031 33.14208984 C-18.6117496 29.69772775 -18.66358999 26.25357868 -18.71484375 22.80859375 C-18.74835938 21.61878906 -18.781875 20.42898437 -18.81640625 19.203125 C-18.94139392 8.01672845 -18.94139392 8.01672845 -14.46484375 3.43359375 C-9.86286388 -0.19926008 -5.61356686 -0.01885364 0 0 Z " fill="#737EE6" transform="translate(364.46484375,135.56640625)"/>
<path d="M0 0 C0.97904297 0.01353516 1.95808594 0.02707031 2.96679688 0.04101562 C5.37426625 0.07624688 7.78059564 0.12550735 10.1875 0.1875 C10.51586874 14.80864553 10.76205571 29.42929758 10.91287041 44.05339241 C10.98478905 50.84528641 11.08265405 57.63487811 11.24365234 64.42529297 C11.39915097 70.98692863 11.47963564 77.54707879 11.5157814 84.11046982 C11.54151574 86.60567587 11.59177368 89.10076126 11.66772079 91.594944 C12.29842692 113.17988386 12.29842692 113.17988386 5.08296394 120.9750042 C2.25493775 123.62546883 -0.64998817 125.94476342 -3.8125 128.1875 C-6.84580657 126.73818997 -8.88086307 125.33235505 -11.203125 122.88671875 C-12.14478516 121.91508789 -12.14478516 121.91508789 -13.10546875 120.92382812 C-14.39685029 119.5718728 -15.68596498 118.21774807 -16.97265625 116.86132812 C-24.71109261 108.86991744 -24.71109261 108.86991744 -35 105.6875 C-40.77021486 106.44424949 -44.02549292 108.85949191 -47.8125 113.1875 C-49.03647775 116.85943324 -49.53846231 120.38452314 -48.8125 124.1875 C-45.6885574 129.50995393 -41.66831651 133.62282269 -37.30859375 137.95703125 C-36.58889908 138.67863937 -35.86920441 139.4002475 -35.12770081 140.14372253 C-33.61306289 141.65971588 -32.09591862 143.17320881 -30.57641602 144.68432617 C-28.24716086 147.00282603 -25.928823 149.33186079 -23.61132812 151.66210938 C-22.13605793 153.13605878 -20.66016789 154.60938811 -19.18359375 156.08203125 C-18.48979111 156.77988235 -17.79598846 157.47773346 -17.0811615 158.19673157 C-16.43361404 158.8379747 -15.78606659 159.47921783 -15.11889648 160.13989258 C-14.55138168 160.70581619 -13.98386688 161.27173981 -13.39915466 161.85481262 C-10.3917636 164.38082676 -6.90757001 164.63137063 -3.078125 164.6171875 C1.34123397 163.77903321 4.65728153 160.8315018 8.1875 158.1875 C8.8475 157.8575 9.5075 157.5275 10.1875 157.1875 C10.1875 184.5775 10.1875 211.9675 10.1875 240.1875 C-10.8125 240.1875 -10.8125 240.1875 -16.8125 236.1875 C-19.74978988 232.44762125 -20.17491184 229.71070111 -20.10546875 225.01171875 C-20.09580078 223.85478516 -20.08613281 222.69785156 -20.07617188 221.50585938 C-20.05103516 220.30767578 -20.02589844 219.10949219 -20 217.875 C-19.98646484 216.65748047 -19.97292969 215.43996094 -19.95898438 214.18554688 C-19.92369261 211.18574655 -19.87438481 208.18685025 -19.8125 205.1875 C-20.39112793 205.01009277 -20.96975586 204.83268555 -21.56591797 204.64990234 C-26.35665055 203.12688284 -30.60815671 201.41954324 -34.9375 198.8125 C-36.36449219 197.96558594 -36.36449219 197.96558594 -37.8203125 197.1015625 C-41.24509013 194.91077786 -44.52226494 192.57517681 -47.8125 190.1875 C-58.19533002 195.31110262 -68.48760402 200.59457117 -78.74047852 205.97363281 C-84.0711882 208.76834695 -89.4188588 211.51612111 -94.8125 214.1875 C-95.19881592 213.51509277 -95.58513184 212.84268555 -95.9831543 212.14990234 C-97.82074277 208.95331775 -99.66003281 205.75771569 -101.5 202.5625 C-101.8348642 201.98069977 -102.16972839 201.39889954 -102.51473999 200.79946899 C-107.85328622 191.52831314 -113.26098966 182.30109803 -118.77416992 173.13232422 C-119.27795166 172.28814941 -119.7817334 171.44397461 -120.30078125 170.57421875 C-120.73946533 169.84420654 -121.17814941 169.11419434 -121.63012695 168.36206055 C-122.89767017 166.03085934 -123.87335005 163.6671496 -124.8125 161.1875 C-117.04865064 156.09279101 -108.83605664 151.87841545 -100.625 147.5625 C-98.44705402 146.41547581 -96.26958626 145.2675637 -94.09294128 144.11807251 C-92.74701449 143.40750462 -91.40030737 142.6984121 -90.0526886 141.99105835 C-88.30034725 141.06710464 -86.55612469 140.12779974 -84.8125 139.1875 C-83.36713867 138.5519519 -83.36713867 138.5519519 -81.89257812 137.90356445 C-79.46147363 136.2774825 -79.46147363 136.2774825 -79.24487305 132.90942383 C-79.24566237 131.57086521 -79.2737877 130.23213975 -79.32421875 128.89453125 C-79.33483086 127.83548836 -79.33483086 127.83548836 -79.34565735 126.75505066 C-79.3736247 124.50228416 -79.43635666 122.25201352 -79.5 120 C-79.52508034 118.47204114 -79.54789399 116.94404327 -79.56835938 115.41601562 C-79.62345756 111.67221694 -79.70973714 107.93028141 -79.8125 104.1875 C-80.36373535 103.88682617 -80.9149707 103.58615234 -81.48291016 103.27636719 C-82.26456543 102.85000977 -83.0462207 102.42365234 -83.8515625 101.984375 C-84.73239502 101.50403809 -85.61322754 101.02370117 -86.52075195 100.52880859 C-88.48062212 99.45954989 -90.44008885 98.38955143 -92.39916992 97.31884766 C-97.63585196 94.45821864 -102.87885479 91.61059472 -108.13671875 88.7890625 C-109.1407373 88.24797852 -110.14475586 87.70689453 -111.17919922 87.14941406 C-113.12241871 86.10259435 -115.06801557 85.06017419 -117.01611328 84.02246094 C-117.89380371 83.5484082 -118.77149414 83.07435547 -119.67578125 82.5859375 C-120.45219971 82.17005371 -121.22861816 81.75416992 -122.02856445 81.32568359 C-123.8125 80.1875 -123.8125 80.1875 -124.8125 78.1875 C-123.78710938 75.97045898 -123.78710938 75.97045898 -122.15625 73.18359375 C-121.55240479 72.14380371 -120.94855957 71.10401367 -120.32641602 70.03271484 C-119.66182373 68.90816895 -118.99723145 67.78362305 -118.3125 66.625 C-117.63478951 65.46597651 -116.9576311 64.30663004 -116.28100586 63.14697266 C-109.23298886 51.09674682 -102.03912526 39.13118291 -94.8125 27.1875 C-90.57745073 27.79592516 -87.43297042 29.27355236 -83.69140625 31.3203125 C-83.11019516 31.63523651 -82.52898407 31.95016052 -81.93016052 32.27462769 C-80.07500779 33.28109116 -78.22480919 34.29625427 -76.375 35.3125 C-73.96143847 36.6309327 -71.54576495 37.94543464 -69.12890625 39.2578125 C-68.53373199 39.58154846 -67.93855774 39.90528442 -67.3253479 40.23883057 C-60.90041676 43.71467149 -54.36705833 46.96386444 -47.8125 50.1875 C-46.85730469 49.52363281 -45.90210938 48.85976562 -44.91796875 48.17578125 C-25.99043375 35.1875 -25.99043375 35.1875 -19.8125 35.1875 C-19.8439209 34.05320557 -19.8439209 34.05320557 -19.87597656 32.89599609 C-19.95940585 29.451634 -20.01124624 26.00748493 -20.0625 22.5625 C-20.09601563 21.37269531 -20.12953125 20.18289062 -20.1640625 18.95703125 C-20.28905017 7.7706347 -20.28905017 7.7706347 -15.8125 3.1875 C-11.00698675 -0.80596498 -5.92173124 -0.15510243 0 0 Z " fill="#979EEE" transform="translate(365.8125,135.8125)"/>
<path d="M0 0 C21 0 21 0 27 4 C31.81577296 10.31032319 31.2481316 18.26831542 31.5625 25.875 C31.60568359 26.84953125 31.64886719 27.8240625 31.69335938 28.828125 C31.79882274 31.21862802 31.90094175 33.60922444 32 36 C33.05058594 36.49628906 34.10117188 36.99257813 35.18359375 37.50390625 C42.48106494 41.01788987 49.11331534 44.2464833 55.0078125 49.9453125 C57.01332639 51.26200444 57.01332639 51.26200444 59.578125 50.59375 C65.51941967 47.82657166 70.96127965 44.14087894 76.41796875 40.5234375 C83.33137873 36.21577732 88.8708419 34.85955618 97 36 C101.57800797 37.86511436 103.35377871 40.37410859 105.76953125 44.5 C106.29417969 45.39122559 106.81882812 46.28245117 107.359375 47.20068359 C107.90078125 48.12445801 108.4421875 49.04823242 109 50 C110.05844852 51.76310803 111.11704116 53.52612954 112.17578125 55.2890625 C113.22249289 57.06703844 114.26806376 58.84568646 115.3125 60.625 C115.84939453 61.51445313 116.38628906 62.40390625 116.93945312 63.3203125 C120.44736281 69.33639973 122.75707902 74.27211876 121.6171875 81.390625 C121.24980469 82.31101563 121.24980469 82.31101563 120.875 83.25 C120.64554687 83.87390625 120.41609375 84.4978125 120.1796875 85.140625 C117.49442571 89.37302437 112.82080458 91.8160469 108.55078125 94.234375 C107.53822266 94.80800781 106.52566406 95.38164063 105.48242188 95.97265625 C104.43634766 96.55917969 103.39027344 97.14570312 102.3125 97.75 C101.25482422 98.35199219 100.19714844 98.95398438 99.10742188 99.57421875 C91.25442 104 91.25442 104 89 104 C89.16298584 104.52110352 89.32597168 105.04220703 89.49389648 105.57910156 C90.14082676 108.67363154 90.11152397 111.57253596 90.09765625 114.734375 C90.09282227 116.67763672 90.09282227 116.67763672 90.08789062 118.66015625 C90.07953598 120.02343817 90.07107104 121.38671942 90.0625 122.75 C90.05748168 124.12890465 90.05291935 125.50781104 90.04882812 126.88671875 C90.03704093 130.25785659 90.02058635 133.62890628 90 137 C90.75394043 137.40202637 91.50788086 137.80405273 92.28466797 138.21826172 C106.92269026 146.02862374 121.53654982 153.86909216 136 162 C131.74823874 169.93866023 127.28730749 177.74395498 122.72363281 185.50585938 C121.63114894 187.3645386 120.54195554 189.22511629 119.453125 191.0859375 C114.74075963 199.12392963 109.91577437 207.0846576 105 215 C93.80513947 209.52116532 82.81666586 203.71982896 71.87548828 197.74951172 C70.79895996 197.16443848 69.72243164 196.57936523 68.61328125 195.9765625 C67.65204346 195.45143066 66.69080566 194.92629883 65.70043945 194.38525391 C61.95076947 192.44512561 61.95076947 192.44512561 58 191 C55.37217564 192.41101424 53.23061793 193.78361911 50.875 195.5625 C44.77310716 200.07344868 39.1544413 202.74798123 32 206 C31.67 222.5 31.34 239 31 256 C20.77 256 10.54 256 0 256 C-1.66010642 240.68323791 -2.85326868 225.39423833 -3.5 210 C-3.54749516 208.87120548 -3.59499031 207.74241096 -3.64392471 206.57941055 C-4.63033551 179.94881779 -4.30044115 156.73012545 14.19672775 136.12564468 C24.05197556 125.5872494 35.41724284 116.11149611 47.12287903 107.68974304 C47.98414021 107.06763947 47.98414021 107.06763947 48.8628006 106.43296814 C50.40225094 105.33393727 51.95718899 104.25668971 53.51325989 103.18132019 C56.88166258 100.22662268 58.61843698 97.06250282 59.43359375 92.65625 C59.4432762 87.31154011 58.72572601 84.1179077 55 80 C51.14159778 77.36927121 47.88500309 76.65238863 43.22265625 76.50390625 C36.01815627 78.11194052 31.08412862 83.5229838 26.1328125 88.609375 C25.05252274 89.69958954 25.05252274 89.69958954 23.95040894 90.81182861 C21.66800578 93.11750863 19.39608013 95.4331708 17.125 97.75 C14.83073497 100.07928832 12.53434083 102.40642266 10.23532104 104.73101807 C8.80874617 106.17462505 7.38526271 107.62129452 5.96511841 109.07122803 C5.32710297 109.71900208 4.68908752 110.36677612 4.03173828 111.03417969 C3.46883087 111.60835632 2.90592346 112.18253296 2.32595825 112.77410889 C1 114 1 114 0 114 C0 76.38 0 38.76 0 0 Z " fill="#FCBF00" transform="translate(136,0)"/>
<path d="M0 0 C10.23 0 20.46 0 31 0 C31.33 16.5 31.66 33 32 50 C37.28 52.64 42.56 55.28 48 58 C54.75 62.5 54.75 62.5 58 65 C73.56259181 57.44244743 88.75913501 49.18005801 104 41 C106.78317617 44.34245845 109.10423703 47.69185575 111.25 51.47265625 C111.85328125 52.52831787 112.4565625 53.58397949 113.078125 54.67163086 C113.71234375 55.79061768 114.3465625 56.90960449 115 58.0625 C116.33046764 60.4000806 117.66421082 62.73576906 119 65.0703125 C119.33394775 65.6543132 119.66789551 66.2383139 120.01196289 66.8400116 C122.1795705 70.61497482 124.40863425 74.34596943 126.6875 78.0546875 C127.52861328 79.42548462 127.52861328 79.42548462 128.38671875 80.82397461 C129.44337369 82.53576201 130.50819836 84.24253952 131.58203125 85.94360352 C132.04996094 86.70342529 132.51789063 87.46324707 133 88.24609375 C133.4125 88.90279053 133.825 89.5594873 134.25 90.23608398 C135 92 135 92 134 95 C131.57006836 96.57470703 131.57006836 96.57470703 128.33984375 98.2578125 C127.76224808 98.56258011 127.1846524 98.86734772 126.58955383 99.18135071 C124.70990718 100.17116037 122.82377859 101.14789815 120.9375 102.125 C119.01425425 103.13456669 117.0928648 104.14760332 115.17160034 105.16093445 C113.89980139 105.83152323 112.62744257 106.50105128 111.35452271 107.16950989 C104.1458379 110.95942239 97.0749615 114.96727195 90 119 C90 129.56 90 140.12 90 151 C92.76375 152.505625 95.5275 154.01125 98.375 155.5625 C117.47789086 166.12501219 117.47789086 166.12501219 121 173 C123.5014095 183.89899852 117.50169683 192.03817285 112.125 201.1875 C111.51269531 202.25419922 110.90039062 203.32089844 110.26953125 204.41992188 C106.48643172 210.89655587 103.29142112 215.80571925 97 220 C86.03589936 222.0933948 78.71443328 216.94665976 69.97729492 211.10693359 C63.91152791 206.59165868 63.91152791 206.59165868 56.87939453 205.29663086 C55.0058091 206.35359826 53.57936943 207.54426872 52 209 C50.9171875 209.67160156 49.834375 210.34320313 48.71875 211.03515625 C46.5717415 212.38745893 44.42590784 213.74162866 42.28125 215.09765625 C38.90942174 217.05251382 35.60604072 218.53846077 32 220 C31.98018066 220.59425781 31.96036133 221.18851563 31.93994141 221.80078125 C31.84376007 224.53424419 31.73446443 227.26703803 31.625 230 C31.57859375 231.40185547 31.57859375 231.40185547 31.53125 232.83203125 C30.94934476 246.70077285 30.94934476 246.70077285 26.5625 251.875 C22.84671921 254.95637919 20.90446353 256.25338744 16.11328125 256.1953125 C15.17548828 256.18886719 14.23769531 256.18242188 13.27148438 256.17578125 C12.29501953 256.15902344 11.31855469 256.14226562 10.3125 256.125 C9.32443359 256.11597656 8.33636719 256.10695313 7.31835938 256.09765625 C4.87866235 256.0740843 2.43945303 256.04118022 0 256 C-1.71436904 243.03366105 -2.8563347 230.06397321 -3.5 217 C-3.54749516 216.03748699 -3.59499031 215.07497398 -3.64392471 214.08329391 C-4.71674819 189.36532329 -2.94939879 169.89481181 14.19672775 151.08646774 C24.20638375 140.4888464 35.50758404 130.84409529 47.12287903 122.0471344 C47.69705315 121.60994583 48.27122726 121.17275726 48.8628006 120.72232056 C50.40309051 119.56020019 51.95764714 118.41705576 53.51325989 117.27552795 C56.82386721 114.24610825 58.61584059 111.07653736 59.43359375 106.65625 C59.4432762 101.31154011 58.72572601 98.1179077 55 94 C51.14159778 91.36927121 47.88500309 90.65238863 43.22265625 90.50390625 C36.01815627 92.11194052 31.08412862 97.5229838 26.1328125 102.609375 C25.05252274 103.69958954 25.05252274 103.69958954 23.95040894 104.81182861 C21.66800578 107.11750863 19.39608013 109.4331708 17.125 111.75 C14.83073497 114.07928832 12.53434083 116.40642266 10.23532104 118.73101807 C8.80874617 120.17462505 7.38526271 121.62129452 5.96511841 123.07122803 C5.32710297 123.71900208 4.68908752 124.36677612 4.03173828 125.03417969 C3.46883087 125.60835632 2.90592346 126.18253296 2.32595825 126.77410889 C1 128 1 128 0 128 C0 85.76 0 43.52 0 0 Z " fill="#F03800" transform="translate(136,256)"/>
<path d="M0 0 C4.33790345 2.22004052 6.96383138 4.83457252 9.07421875 9.30859375 C10.2132583 15.74358006 8.64380495 19.91314997 5.07421875 25.30859375 C3.2846537 27.48458859 1.33373849 29.46043401 -0.66894531 31.43994141 C-1.51373695 32.29261848 -1.51373695 32.29261848 -2.37559509 33.16252136 C-4.22343632 35.02347286 -6.08192375 36.87334231 -7.94140625 38.72265625 C-9.23975706 40.02303064 -10.53766247 41.32384986 -11.83514404 42.62509155 C-14.55044944 45.34480843 -17.27107657 48.05905519 -19.99560547 50.76953125 C-23.47346853 54.23032056 -26.93771063 57.70438217 -30.39804459 61.18268776 C-33.07446325 63.86999055 -35.75804031 66.55005345 -38.44377899 69.22803879 C-39.72330183 70.50557153 -41.00063084 71.7853057 -42.2756424 73.06734085 C-44.06491156 74.86429888 -45.86364181 76.65124577 -47.66503906 78.43603516 C-48.18168625 78.95875504 -48.69833344 79.48147491 -49.2306366 80.02003479 C-53.89560943 84.60634108 -59.30861551 89.53679336 -66.11328125 89.80859375 C-73.55483824 88.83265185 -77.70355773 83.82532933 -82.78125 78.71875 C-83.52409744 77.97781601 -84.26694489 77.23688202 -85.03230286 76.47349548 C-86.59715603 74.91000016 -88.15949891 73.34398884 -89.71948242 71.77563477 C-92.10831106 69.37608624 -94.50763122 66.98740313 -96.90820312 64.59960938 C-98.42902723 63.0774639 -99.94923094 61.55469827 -101.46875 60.03125 C-102.18645065 59.31759781 -102.90415131 58.60394562 -103.64360046 57.8686676 C-104.64022453 56.86258705 -104.64022453 56.86258705 -105.65698242 55.83618164 C-106.24146652 55.25010635 -106.82595062 54.66403107 -107.42814636 54.06019592 C-110.57860328 50.37548797 -111.37336532 47.22289602 -111.24609375 42.33203125 C-110.45765299 37.35139329 -106.60441703 33.51256685 -102.92578125 30.30859375 C-99.1330696 29.04435653 -95.84785406 28.59920491 -91.92578125 29.30859375 C-85.0387357 32.79585781 -79.66590849 38.18714977 -74.36328125 43.68359375 C-73.27950195 44.78767578 -73.27950195 44.78767578 -72.17382812 45.9140625 C-70.41731011 47.70547822 -68.66826679 49.50354429 -66.92578125 51.30859375 C-63.29048923 49.77792567 -61.00500319 47.61321571 -58.25244141 44.81469727 C-57.33113434 43.88355606 -56.40982727 42.95241486 -55.46060181 41.99305725 C-54.9726778 41.4952733 -54.4847538 40.99748936 -53.98204422 40.48462105 C-52.44775712 38.9200764 -50.90680691 37.36238449 -49.36386108 35.80638123 C-44.97939527 31.38224538 -40.60772228 26.94554577 -36.23925781 22.50561523 C-33.5631659 19.78668368 -30.87970285 17.07520063 -28.19184494 14.36790276 C-27.17229484 13.33782168 -26.15566778 12.30483854 -25.14210892 11.26886177 C-23.7209943 9.8163686 -22.2896338 8.37392172 -20.85791016 6.93188477 C-19.64356796 5.69850121 -19.64356796 5.69850121 -18.4046936 4.44020081 C-12.98010233 -0.22438406 -6.94166145 -2.49223951 0 0 Z " fill="#2E3B72" transform="translate(186.92578125,346.69140625)"/>
<path d="M0 0 C4.33790345 2.22004052 6.96383138 4.83457252 9.07421875 9.30859375 C10.2132583 15.74358006 8.64380495 19.91314997 5.07421875 25.30859375 C3.2846537 27.48458859 1.33373849 29.46043401 -0.66894531 31.43994141 C-1.51373695 32.29261848 -1.51373695 32.29261848 -2.37559509 33.16252136 C-4.22343632 35.02347286 -6.08192375 36.87334231 -7.94140625 38.72265625 C-9.23975706 40.02303064 -10.53766247 41.32384986 -11.83514404 42.62509155 C-14.55044944 45.34480843 -17.27107657 48.05905519 -19.99560547 50.76953125 C-23.47346853 54.23032056 -26.93771063 57.70438217 -30.39804459 61.18268776 C-33.07446325 63.86999055 -35.75804031 66.55005345 -38.44377899 69.22803879 C-39.72330183 70.50557153 -41.00063084 71.7853057 -42.2756424 73.06734085 C-44.06491156 74.86429888 -45.86364181 76.65124577 -47.66503906 78.43603516 C-48.18168625 78.95875504 -48.69833344 79.48147491 -49.2306366 80.02003479 C-53.89560943 84.60634108 -59.30861551 89.53679336 -66.11328125 89.80859375 C-73.53840006 88.83480768 -77.70179857 83.83986312 -82.78125 78.75390625 C-83.52409744 78.01534393 -84.26694489 77.27678162 -85.03230286 76.51583862 C-86.59724058 74.95663094 -88.15958162 73.39481324 -89.71948242 71.83056641 C-92.10664653 69.44023726 -94.50683514 67.06354903 -96.90820312 64.6875 C-98.42919581 63.16877992 -99.94940505 61.64927474 -101.46875 60.12890625 C-102.18645065 59.42041534 -102.90415131 58.71192444 -103.64360046 57.98196411 C-104.64022453 56.97599686 -104.64022453 56.97599686 -105.65698242 55.94970703 C-106.24146652 55.36585236 -106.82595062 54.78199768 -107.42814636 54.18045044 C-110.86344337 49.88675793 -111.40702183 45.6984882 -110.92578125 40.30859375 C-109.06432276 36.19379077 -106.26618141 33.3149539 -102.92578125 30.30859375 C-99.1330696 29.04435653 -95.84785406 28.59920491 -91.92578125 29.30859375 C-85.0387357 32.79585781 -79.66590849 38.18714977 -74.36328125 43.68359375 C-73.27950195 44.78767578 -73.27950195 44.78767578 -72.17382812 45.9140625 C-70.41731011 47.70547822 -68.66826679 49.50354429 -66.92578125 51.30859375 C-63.29048923 49.77792567 -61.00500319 47.61321571 -58.25244141 44.81469727 C-57.33113434 43.88355606 -56.40982727 42.95241486 -55.46060181 41.99305725 C-54.9726778 41.4952733 -54.4847538 40.99748936 -53.98204422 40.48462105 C-52.44775712 38.9200764 -50.90680691 37.36238449 -49.36386108 35.80638123 C-44.97939527 31.38224538 -40.60772228 26.94554577 -36.23925781 22.50561523 C-33.5631659 19.78668368 -30.87970285 17.07520063 -28.19184494 14.36790276 C-27.17229484 13.33782168 -26.15566778 12.30483854 -25.14210892 11.26886177 C-23.7209943 9.8163686 -22.2896338 8.37392172 -20.85791016 6.93188477 C-19.64356796 5.69850121 -19.64356796 5.69850121 -18.4046936 4.44020081 C-12.98010233 -0.22438406 -6.94166145 -2.49223951 0 0 Z " fill="#2E3C72" transform="translate(186.92578125,76.69140625)"/>
<path d="M0 0 C4.64461912 2.30739108 7.38788704 5.4344293 9.07421875 10.34375 C10.06838071 15.55028891 9.01768393 19.0062168 6.28371048 23.5645771 C4.35743345 26.39814744 2.03405072 28.79363853 -0.39697266 31.18725586 C-1.19769951 31.99345871 -1.19769951 31.99345871 -2.01460266 32.81594849 C-3.76156648 34.57094685 -5.51904712 36.31495557 -7.27734375 38.05859375 C-8.50046046 39.28119135 -9.72305799 40.50430856 -10.94515991 41.72792053 C-13.49748525 44.28015649 -16.05486962 46.82717436 -18.61621094 49.37036133 C-21.90463716 52.63599313 -25.18175806 55.91270035 -28.45543861 59.19310665 C-30.97370507 61.71470597 -33.49691567 64.23130831 -36.02177048 66.74630928 C-37.23280669 67.95348951 -38.44248914 69.16202937 -39.65080643 70.37193108 C-41.3334541 72.0549478 -43.02242086 73.73134454 -44.71337891 75.40600586 C-45.21419479 75.90929916 -45.71501068 76.41259247 -46.23100281 76.93113708 C-49.69702796 80.34375 -49.69702796 80.34375 -51.92578125 80.34375 C-52.18101562 80.94703125 -52.43625 81.5503125 -52.69921875 82.171875 C-54.79693667 85.88630546 -58.09275959 87.64617274 -61.92578125 89.34375 C-65.59386067 90.07063546 -68.73059648 89.90583092 -72.1730957 88.28686523 C-76.11520216 85.50414015 -79.38496959 82.16950815 -82.78125 78.75390625 C-83.52409744 78.01297226 -84.26694489 77.27203827 -85.03230286 76.50865173 C-86.59715603 74.94515641 -88.15949891 73.37914509 -89.71948242 71.81079102 C-92.10831106 69.41124249 -94.50763122 67.02255938 -96.90820312 64.63476562 C-98.42902723 63.11262015 -99.94923094 61.58985452 -101.46875 60.06640625 C-102.18645065 59.35275406 -102.90415131 58.63910187 -103.64360046 57.90382385 C-104.64022453 56.8977433 -104.64022453 56.8977433 -105.65698242 55.87133789 C-106.24146652 55.2852626 -106.82595062 54.69918732 -107.42814636 54.09535217 C-110.62496108 50.35642512 -111.32264123 47.25339931 -111.17578125 42.296875 C-110.50963623 37.09261705 -106.65957088 33.70416067 -102.92578125 30.34375 C-99.1330696 29.07951278 -95.84785406 28.63436116 -91.92578125 29.34375 C-85.0387357 32.83101406 -79.66590849 38.22230602 -74.36328125 43.71875 C-73.27950195 44.82283203 -73.27950195 44.82283203 -72.17382812 45.94921875 C-70.41731011 47.74063447 -68.66826679 49.53870054 -66.92578125 51.34375 C-63.29048923 49.81308192 -61.00500319 47.64837196 -58.25244141 44.84985352 C-57.33113434 43.91871231 -56.40982727 42.98757111 -55.46060181 42.0282135 C-54.9726778 41.53042955 -54.4847538 41.03264561 -53.98204422 40.5197773 C-52.44775712 38.95523265 -50.90680691 37.39754074 -49.36386108 35.84153748 C-44.97939527 31.41740163 -40.60772228 26.98070202 -36.23925781 22.54077148 C-33.5631659 19.82183993 -30.87970285 17.11035688 -28.19184494 14.40305901 C-27.17229484 13.37297793 -26.15566778 12.33999479 -25.14210892 11.30401802 C-23.7209943 9.85152485 -22.2896338 8.40907797 -20.85791016 6.96704102 C-19.64356796 5.73365746 -19.64356796 5.73365746 -18.4046936 4.47535706 C-12.94781579 -0.21699087 -6.98576543 -2.38054481 0 0 Z " fill="#2C3B74" transform="translate(426.92578125,211.65625)"/>
<path d="M0 0 C6.88704555 3.48726406 12.25987276 8.87855602 17.5625 14.375 C18.28501953 15.11105469 19.00753906 15.84710938 19.75195312 16.60546875 C21.50847114 18.39688447 23.25751446 20.19495054 25 22 C28.998021 20.16790754 31.67761082 17.51644725 34.6875 14.375 C36.43980459 12.56148942 38.20610427 10.77313991 40 9 C40.33 9 40.66 9 41 9 C41.33 22.86 41.66 36.72 42 51 C41.34 51 40.68 51 40 51 C39.74476563 51.60328125 39.48953125 52.2065625 39.2265625 52.828125 C37.12884458 56.54255546 33.83302166 58.30242274 30 60 C26.33192058 60.72688546 23.19518477 60.56208092 19.75268555 58.94311523 C15.81057909 56.16039015 12.54081166 52.82575815 9.14453125 49.41015625 C8.03026009 48.29875526 8.03026009 48.29875526 6.89347839 47.16490173 C5.32862522 45.60140641 3.76628234 44.03539509 2.20629883 42.46704102 C-0.18252981 40.06749249 -2.58184997 37.67880938 -4.98242188 35.29101562 C-6.50324598 33.76887015 -8.02344969 32.24610452 -9.54296875 30.72265625 C-10.2606694 30.00900406 -10.97837006 29.29535187 -11.71781921 28.56007385 C-12.38223526 27.88935349 -13.04665131 27.21863312 -13.73120117 26.52758789 C-14.31568527 25.9415126 -14.90016937 25.35543732 -15.50236511 24.75160217 C-18.69917983 21.01267512 -19.39685998 17.90964931 -19.25 12.953125 C-18.58385498 7.74886705 -14.73378963 4.36041067 -11 1 C-7.20728835 -0.26423722 -3.92207281 -0.70938884 0 0 Z " fill="#47568C" transform="translate(335,241)"/>
<path d="M0 0 C6.88704555 3.48726406 12.25987276 8.87855602 17.5625 14.375 C18.28501953 15.11105469 19.00753906 15.84710938 19.75195312 16.60546875 C21.50847114 18.39688447 23.25751446 20.19495054 25 22 C28.998021 20.16790754 31.67761082 17.51644725 34.6875 14.375 C36.43980459 12.56148942 38.20610427 10.77313991 40 9 C40.33 9 40.66 9 41 9 C41.34186705 14.85180234 41.62901428 20.70285352 41.86669922 26.55981445 C41.95504176 28.54978692 42.05806117 30.539166 42.17626953 32.52758789 C42.34410248 35.39437548 42.45822011 38.25918835 42.5625 41.12890625 C42.62566406 42.01147598 42.68882812 42.89404572 42.75390625 43.80335999 C42.84839798 47.65332131 42.78021577 50.02548137 40.31982422 53.09860229 C35.16556793 57.73463823 31.13432231 60.18141911 24.09765625 60.36328125 C17.82057258 59.27618855 13.4389785 53.7452598 9.14453125 49.4453125 C8.40168381 48.70675018 7.65883636 47.96818787 6.89347839 47.20724487 C5.32854067 45.64803719 3.76619963 44.08621949 2.20629883 42.52197266 C-0.18086528 40.13164351 -2.58105389 37.75495528 -4.98242188 35.37890625 C-6.50341456 33.86018617 -8.0236238 32.34068099 -9.54296875 30.8203125 C-10.2606694 30.11182159 -10.97837006 29.40333069 -11.71781921 28.67337036 C-12.38223526 28.00272552 -13.04665131 27.33208069 -13.73120117 26.64111328 C-14.31568527 26.05725861 -14.90016937 25.47340393 -15.50236511 24.87185669 C-18.93766212 20.57816418 -19.48124058 16.38989445 -19 11 C-17.13854151 6.88519702 -14.34040016 4.00636015 -11 1 C-7.20728835 -0.26423722 -3.92207281 -0.70938884 0 0 Z " fill="#48578B" transform="translate(95,106)"/>
<path d="M0 0 C6.88704555 3.48726406 12.25987276 8.87855602 17.5625 14.375 C18.28501953 15.11105469 19.00753906 15.84710938 19.75195312 16.60546875 C21.50847114 18.39688447 23.25751446 20.19495054 25 22 C28.998021 20.16790754 31.67761082 17.51644725 34.6875 14.375 C36.43980459 12.56148942 38.20610427 10.77313991 40 9 C40.33 9 40.66 9 41 9 C41.22321213 14.99543974 41.38612382 20.98844175 41.49438477 26.98706055 C41.53952684 29.02524966 41.60085969 31.06314918 41.67895508 33.1003418 C42.31304373 50.0715381 42.31304373 50.0715381 39.02685547 54.89794922 C36.72972275 56.69892705 34.70107119 57.91963303 32 59 C31.01 59.495 31.01 59.495 30 60 C24.32900858 60.37186829 21.76925889 60.26337029 17 57 C14.28103044 54.56985748 11.7152853 51.99553535 9.14453125 49.41015625 C8.03026009 48.29875526 8.03026009 48.29875526 6.89347839 47.16490173 C5.32862522 45.60140641 3.76628234 44.03539509 2.20629883 42.46704102 C-0.18252981 40.06749249 -2.58184997 37.67880938 -4.98242188 35.29101562 C-6.50324598 33.76887015 -8.02344969 32.24610452 -9.54296875 30.72265625 C-10.2606694 30.00900406 -10.97837006 29.29535187 -11.71781921 28.56007385 C-12.38223526 27.88935349 -13.04665131 27.21863312 -13.73120117 26.52758789 C-14.31568527 25.9415126 -14.90016937 25.35543732 -15.50236511 24.75160217 C-18.65282203 21.06689422 -19.44758407 17.91430227 -19.3203125 13.0234375 C-18.53187174 8.04279954 -14.67863578 4.2039731 -11 1 C-7.20728835 -0.26423722 -3.92207281 -0.70938884 0 0 Z " fill="#48568A" transform="translate(95,376)"/>
</svg>
