<?xml version="1.0" encoding="UTF-8"?>
<svg version="1.1" xmlns="http://www.w3.org/2000/svg" width="256" height="256">
<path d="M0 0 C15.5239123 11.18479977 26.56383736 26.33919199 30.40625 45.3671875 C33.47340174 69.42278259 26.56180058 87.3289563 13.68994141 107.38623047 C1.26628743 126.89605323 -9.69249786 147.93426956 -17.70239258 169.65942383 C-20.02132955 175.67056094 -23.81646786 179.53780149 -29.12109375 183.07421875 C-35.00127633 185.03427961 -41.72380218 184.90237402 -47.55859375 182.88671875 C-55.64106095 177.16985171 -58.55943242 169.7441432 -62.35375977 160.88085938 C-72.03557869 138.34406876 -83.83463339 117.1129043 -96.83178711 96.34008789 C-99.89764513 91.39131384 -102.19313023 86.82072431 -103.93359375 81.26171875 C-104.53107422 79.39580078 -104.53107422 79.39580078 -105.140625 77.4921875 C-110.28410664 59.56172363 -107.55582917 40.17682624 -98.8125 23.8515625 C-88.63827512 7.1451563 -72.95038278 -3.95888981 -54.12109375 -8.92578125 C-35.49541124 -13.11296525 -16.11575195 -10.10797503 0 0 Z M-68.51953125 32.9453125 C-76.3186548 43.31244015 -78.01905895 53.4647637 -77.12109375 66.07421875 C-74.8191649 76.55786043 -69.21214905 85.27017342 -60.55859375 91.5703125 C-51.28173311 97.29401658 -41.13141329 99.42068272 -30.37890625 97.61328125 C-19.83416864 95.07418013 -11.41471486 89.98598624 -5.12109375 81.07421875 C1.03369333 70.98345498 2.72824631 59.51183276 0.19140625 47.9375 C-3.43977731 37.0893391 -10.95683392 28.20421758 -21.05859375 22.76171875 C-37.67883744 15.18340803 -56.0885436 19.77789193 -68.51953125 32.9453125 Z " fill="#2789FE" transform="translate(166.12109375,25.92578125)"/>
<path d="M0 0 C1.42527932 2.59114587 2.67373461 5.11985012 3.875 7.8125 C4.22868652 8.58062012 4.58237305 9.34874023 4.94677734 10.14013672 C6.9773277 14.58619786 8.84341406 19.07270085 10.625 23.625 C13.91880276 31.57143505 18.16469407 36.51893511 26.09375 40.11328125 C34.62507824 42.71625371 42.87535779 41.87855411 50.71875 37.77734375 C58.50053194 31.71448282 61.67812987 23.59716907 65.3125 14.6875 C65.85360682 13.38686536 66.39591591 12.08673022 66.93945312 10.78710938 C67.92726714 8.42309842 68.90649361 6.05623367 69.88012695 3.6862793 C70.53983973 2.1038028 71.23325978 0.53348044 72 -1 C88.25731597 0.86513728 110.91848732 5.77367842 122 19 C125.04003594 23.37290454 126.7178529 27.62658079 126.37109375 32.99609375 C125.06333769 40.05797648 121.33409528 44.24350337 115.59375 48.34375 C95.80693838 60.978702 70.78481354 65.07534752 47.609375 65.203125 C46.75040115 65.21013931 45.89142731 65.21715363 45.00642395 65.22438049 C42.25422853 65.24176298 39.50224827 65.2482313 36.75 65.25 C35.8096994 65.25067474 34.8693988 65.25134949 33.90060425 65.25204468 C20.08483504 65.23628048 6.55189658 64.96261332 -7 62 C-7.83450684 61.81775879 -8.66901367 61.63551758 -9.52880859 61.44775391 C-24.21068039 58.1174146 -42.53309202 53.8347914 -51.625 40.6875 C-54.26377892 35.52988665 -55.08130656 30.4849338 -53.3515625 24.91015625 C-48.52507492 14.16400228 -37.4672931 9.12739176 -27 5 C-20.76840518 2.94743892 -14.40154551 1.4180536 -8 0 C-7.05511719 -0.22816406 -6.11023438 -0.45632812 -5.13671875 -0.69140625 C-3 -1 -3 -1 0 0 Z " fill="#2789FE" transform="translate(92,175)"/>
<path d="M0 0 C7.49446061 4.43655483 12.732052 10.2722 15.64453125 18.5390625 C17.90320467 28.55119382 17.42373172 37.89750807 12.203125 46.875 C6.56069371 54.70911948 -0.21197405 59.44846529 -9.6875 61.5 C-19.15938501 62.69174438 -27.64167437 61.12246156 -35.45703125 55.51171875 C-41.76013012 50.16838896 -46.08232955 44.77392404 -47.6875 36.5 C-48.48921224 25.32859997 -47.69494457 16.34768476 -40.6875 7.25 C-30.06392923 -3.75378277 -13.83743247 -6.31973077 0 0 Z " fill="#2789FE" transform="translate(143.6875,55.5)"/>
</svg>
