<?xml version="1.0" encoding="UTF-8"?>
<svg version="1.1" xmlns="http://www.w3.org/2000/svg" width="512" height="512">
<path d="M0 0 C11.88141935 7.45827414 20.1605476 18.13683504 23.3125 31.875 C24.70770595 40.78084736 24.16269235 50.01312481 24 59 C25.29454102 58.75987183 25.29454102 58.75987183 26.61523438 58.51489258 C61.20735726 53.25271809 98.5873283 63.02782665 126.6875 83.625 C131.99362513 87.86237368 137.06612892 92.33626035 142 97 C142.81082031 97.74636719 143.62164062 98.49273437 144.45703125 99.26171875 C166.40220986 120.17011727 181.76381409 151.63618977 184 182 C184.11605313 187.00083503 184.09434313 191.99817988 184.0625 197 C184.05747487 198.36067544 184.05291376 199.72135267 184.04882812 201.08203125 C184.03710459 204.38806725 184.02069427 207.69401001 184 211 C184.64565918 210.78053711 185.29131836 210.56107422 185.95654297 210.33496094 C190.30585189 209.85627878 193.61683957 211.2054013 197.6953125 212.640625 C198.52457245 212.92347351 199.3538324 213.20632202 200.20822144 213.4977417 C201.95674774 214.09730347 203.70323149 214.70285102 205.44775391 215.31396484 C208.11751807 216.24738412 210.7942279 217.1581894 213.47265625 218.06640625 C215.17233455 218.65231441 216.87156942 219.23951082 218.5703125 219.828125 C219.37034698 220.10013733 220.17038147 220.37214966 220.99465942 220.65240479 C221.73908295 220.91567566 222.48350647 221.17894653 223.25048828 221.45019531 C223.90381134 221.67749329 224.5571344 221.90479126 225.23025513 222.13897705 C227.30501804 223.14839853 228.54095857 224.21661588 230 226 C230.38134766 228.76806641 230.38134766 228.76806641 230.4140625 232.1015625 C230.45402344 233.31457031 230.49398438 234.52757812 230.53515625 235.77734375 C230.59449474 238.3185792 230.63138805 240.86044959 230.64453125 243.40234375 C230.90796289 250.14476989 231.38187315 254.18089889 236.3359375 259 C237.55482666 260.03954834 237.55482666 260.03954834 238.79833984 261.10009766 C240.78027513 262.81039045 241.95891957 264.15927212 243.25 266.3984375 C246.06277359 271.182664 248.48633648 274.86962878 253.99609375 276.359375 C257.64365246 277.08498865 261.30848485 277.49394825 265.01171875 277.81298828 C267.68940441 278.06484329 270.30110798 278.53752078 272.9375 279.0625 C273.68902344 279.19785156 274.44054687 279.33320313 275.21484375 279.47265625 C277 280 277 280 279 282 C279.66459649 284.58991124 280.22657546 287.13166307 280.7265625 289.75390625 C280.95537613 290.91623024 280.95537613 290.91623024 281.18881226 292.10203552 C281.51025529 293.74639425 281.82774461 295.39153 282.14160156 297.03735352 C282.61890472 299.53065986 283.11318334 302.02015855 283.609375 304.50976562 C283.92031116 306.1117776 284.23023806 307.71398585 284.5390625 309.31640625 C284.68590485 310.05113663 284.83274719 310.785867 284.98403931 311.54286194 C285.93492172 316.61849675 286.66439072 321.84420927 286 327 C284.04296875 329.234375 284.04296875 329.234375 281 331 C280.34854004 331.40669922 279.69708008 331.81339844 279.02587891 332.23242188 C276.80968126 333.61147825 274.56690352 334.93445325 272.3125 336.25 C271.54099609 336.70890625 270.76949219 337.1678125 269.97460938 337.640625 C269.23662109 338.07375 268.49863281 338.506875 267.73828125 338.953125 C267.06837158 339.34661133 266.39846191 339.74009766 265.70825195 340.14550781 C264 341 264 341 262 341 C261.87044922 341.96486328 261.87044922 341.96486328 261.73828125 342.94921875 C260.68728183 349.70839848 258.76095593 355.65112901 256.12109375 361.95703125 C253.26791366 369.70137721 254.6839357 373.68620256 257.9375 381 C262.81843828 392.08192998 262.81843828 392.08192998 262 397 C260.85546875 398.80078125 260.85546875 398.80078125 259.1875 400.3125 C258.22650391 401.19421875 258.22650391 401.19421875 257.24609375 402.09375 C253.84740721 404.97820049 250.39612422 407.7931018 246.921875 410.5859375 C242.91697146 413.89480165 239.11808574 417.39904537 235.3125 420.93359375 C232.48000797 423.46465504 230.6969167 424.89379481 226.8984375 425.47265625 C220.71620404 424.7231069 216.30447494 421.22453691 211.203125 417.82226562 C206.17697642 414.6707566 202.95760303 413.39076544 197.04541016 414.49853516 C196.3704248 414.66401855 195.69543945 414.82950195 195 415 C194.25911133 415.16137451 193.51822266 415.32274902 192.75488281 415.48901367 C191.33384666 415.80689524 189.91844498 416.15045921 188.5078125 416.51171875 C186 417 186 417 182.9296875 417.08203125 C177.48237949 417.35890388 173.65720163 417.92378414 169.8984375 422.03125 C166.59851501 426.07982136 163.68894719 430.42730137 160.82421875 434.79101562 C159.625 436.453125 159.625 436.453125 157 439 C151.40021591 439.56262452 146.99107078 438.31268948 141.80078125 436.48046875 C140.66457588 436.09161247 140.66457588 436.09161247 139.50541687 435.69490051 C137.91450623 435.14770734 136.32539243 434.59526455 134.73803711 434.0378418 C132.31360739 433.18788823 129.88312299 432.35745095 127.45117188 431.52929688 C125.90064607 430.99333057 124.35050186 430.45625879 122.80078125 429.91796875 C122.0778035 429.67096725 121.35482574 429.42396576 120.60993958 429.16947937 C116.99995046 427.89116783 113.74893049 426.72872746 111 424 C110.75 420.8125 110.75 420.8125 111 418 C109.9275 418.639375 108.855 419.27875 107.75 419.9375 C103.02704494 422.75310782 99.23436957 423.12211271 93.75 423.0625 C92.67234375 423.05347656 91.5946875 423.04445313 90.484375 423.03515625 C89.25460937 423.01775391 89.25460937 423.01775391 88 423 C88.02618408 423.55349121 88.05236816 424.10698242 88.0793457 424.67724609 C88.96525885 446.230728 88.96525885 446.230728 81.203125 455.0390625 C74.00188612 462.03866669 65.68611838 463.44027354 55.93359375 463.51171875 C54.55434471 463.53864555 54.55434471 463.53864555 53.14723206 463.56611633 C50.24403308 463.61979261 47.34099439 463.65397681 44.4375 463.6875 C42.45505602 463.72071084 40.47263308 463.75520392 38.49023438 463.79101562 C33.66027276 463.875494 28.83035514 463.94250712 24 464 C23.8138916 464.94319092 23.6277832 465.88638184 23.43603516 466.8581543 C23.18128418 468.10508057 22.9265332 469.35200684 22.6640625 470.63671875 C22.4160791 471.86865967 22.1680957 473.10060059 21.91259766 474.36987305 C18.9463975 486.16881103 11.13791473 494.96796383 1 501.375 C-6.57617654 505.87335482 -14.07600574 507.5450339 -22.8125 507.4375 C-23.6876123 507.42920166 -24.56272461 507.42090332 -25.46435547 507.41235352 C-38.2248459 507.08089689 -47.95877553 502.65760768 -57.22265625 493.8984375 C-64.27433582 486.43815593 -69.74447728 477.02687488 -70.125 466.5625 C-70.08375 465.716875 -70.0425 464.87125 -70 464 C-71.26650391 464.48339844 -71.26650391 464.48339844 -72.55859375 464.9765625 C-83.84616353 468.33336532 -96.40850296 466.11112228 -106.6328125 460.57421875 C-117.13451944 453.86768313 -125.33715368 443.92040786 -128.59765625 431.7734375 C-129.15329875 427.94328047 -129.14466808 424.17727785 -129.125 420.3125 C-129.12886719 419.54099609 -129.13273437 418.76949219 -129.13671875 417.97460938 C-129.12672546 412.25345092 -129.12672546 412.25345092 -128 410 C-128.79921875 410.04640625 -129.5984375 410.0928125 -130.421875 410.140625 C-144.44396766 410.60144495 -154.96396935 406.47110758 -165.22265625 396.93359375 C-174.01084718 387.75116622 -178.11499925 376.46443814 -177.9609375 363.78515625 C-177.61442607 358.59390167 -177.01890541 353.845373 -175 349 C-175.58265625 348.98582031 -176.1653125 348.97164063 -176.765625 348.95703125 C-191.30828615 348.11099593 -203.61805486 340.29010732 -213.56640625 330.046875 C-222.00373226 319.48328866 -226.40778487 307.13764059 -226.3125 293.6875 C-226.30686035 292.85081787 -226.3012207 292.01413574 -226.29541016 291.15209961 C-226.16929097 284.70940705 -225.43192061 279.01482654 -223 273 C-222.62101563 272.0409375 -222.24203125 271.081875 -221.8515625 270.09375 C-217.67145546 260.71871225 -211.15363153 254.15363153 -204 247 C-204.47308594 246.64550781 -204.94617188 246.29101562 -205.43359375 245.92578125 C-215.92823655 237.47687779 -223.83428674 225.42509351 -226 212 C-227.16271094 200.3642136 -227.15591527 188.69973638 -222 178 C-221.59910156 177.08476562 -221.19820312 176.16953125 -220.78515625 175.2265625 C-213.80230704 160.77510065 -201.28807791 152.02196036 -186.54296875 146.6640625 C-183.91987109 145.9790754 -181.69842441 145.87404123 -179 146 C-179.48533203 144.54013672 -179.48533203 144.54013672 -179.98046875 143.05078125 C-181.20443239 138.74472348 -181.34554117 134.64333737 -181.3125 130.1875 C-181.30404053 128.99447266 -181.30404053 128.99447266 -181.29541016 127.77734375 C-181.04477881 115.62792734 -176.64750683 105.86722387 -168.5 96.8125 C-158.98550831 87.80934375 -146.20860364 83.60165858 -133.30859375 83.86328125 C-130.48969651 84.03022102 -127.76265937 84.4183875 -125 85 C-125.26490234 83.95005859 -125.26490234 83.95005859 -125.53515625 82.87890625 C-127.30708258 71.90487512 -122.43412572 61.1849393 -116.1796875 52.4609375 C-109.06342534 43.84651489 -98.99462344 38.12244035 -88 36 C-85.48056872 35.90617671 -82.95867284 35.87007102 -80.4375 35.875 C-79.76525391 35.87113281 -79.09300781 35.86726563 -78.40039062 35.86328125 C-75.32500248 35.86938927 -72.93973687 36.02008771 -70 37 C-69.9175 35.72125 -69.835 34.4425 -69.75 33.125 C-68.32376515 20.82854274 -61.51241284 11.3682896 -52.171875 3.56640625 C-37.30622785 -7.15504071 -16.11743824 -9.01754689 0 0 Z M164.6640625 278.99609375 C159.28252375 279.41201709 156.34815363 281.18692367 152.68261719 285.18164062 C142.86752793 296.78311627 138.35208686 308.21384522 137.625 323.3125 C137.27803639 329.66064892 136.03352021 335.11012793 133.9375 341.09765625 C132.93802607 344.19186096 132.11572159 346.73836544 132 350 C137.96131515 359.53810424 148.13487222 366.68821069 158.98046875 369.5234375 C172.09252564 371.59286951 184.10175078 370.61420931 195.55078125 363.390625 C206.13061312 355.6380087 212.91484526 345.77553065 216 333 C217.24638984 319.04333242 214.92772438 307.1387963 206 296 C205.44828125 295.31164062 204.8965625 294.62328125 204.328125 293.9140625 C195.88808446 284.50017113 183.49389012 279.53929461 171.0625 278.75 C166.03515625 278.99838655 166.03515625 278.99838655 164.6640625 278.99609375 Z M91 378 C95 379 95 379 95 379 Z " fill="#FD7C84" transform="translate(226,5)"/>
<path d="M0 0 C9.95247824 5.68519075 18.4895536 12.94459666 26.80078125 20.80078125 C27.61160156 21.54714844 28.42242187 22.29351562 29.2578125 23.0625 C51.20299111 43.97089852 66.56459534 75.43697102 68.80078125 105.80078125 C68.91683438 110.80161628 68.89512438 115.79896113 68.86328125 120.80078125 C68.85825612 122.16145669 68.85369501 123.52213392 68.84960938 124.8828125 C68.83788584 128.1888485 68.82147552 131.49479126 68.80078125 134.80078125 C69.44644043 134.58131836 70.09209961 134.36185547 70.75732422 134.13574219 C75.10663314 133.65706003 78.41762082 135.00618255 82.49609375 136.44140625 C83.3253537 136.72425476 84.15461365 137.00710327 85.00900269 137.29852295 C86.75752899 137.89808472 88.50401274 138.50363227 90.24853516 139.11474609 C92.91829932 140.04816537 95.59500915 140.95897065 98.2734375 141.8671875 C99.9731158 142.45309566 101.67235067 143.04029207 103.37109375 143.62890625 C104.17112823 143.90091858 104.97116272 144.17293091 105.79544067 144.45318604 C106.5398642 144.71645691 107.28428772 144.97972778 108.05126953 145.25097656 C108.70459259 145.47827454 109.35791565 145.70557251 110.03103638 145.9397583 C112.10579929 146.94917978 113.34173982 148.01739713 114.80078125 149.80078125 C115.18212891 152.56884766 115.18212891 152.56884766 115.21484375 155.90234375 C115.25480469 157.11535156 115.29476563 158.32835937 115.3359375 159.578125 C115.39527599 162.11936045 115.4321693 164.66123084 115.4453125 167.203125 C115.70874414 173.94555114 116.1826544 177.98168014 121.13671875 182.80078125 C121.94931152 183.49381348 122.7619043 184.1868457 123.59912109 184.90087891 C125.58105638 186.6111717 126.75970082 187.96005337 128.05078125 190.19921875 C130.86355484 194.98344525 133.28711773 198.67041003 138.796875 200.16015625 C142.44443371 200.8857699 146.1092661 201.2947295 149.8125 201.61376953 C152.49018566 201.86562454 155.10188923 202.33830203 157.73828125 202.86328125 C158.86556641 203.06630859 158.86556641 203.06630859 160.015625 203.2734375 C161.80078125 203.80078125 161.80078125 203.80078125 163.80078125 205.80078125 C164.46537774 208.39069249 165.02735671 210.93244432 165.52734375 213.5546875 C165.67988617 214.32957016 165.83242859 215.10445282 165.98959351 215.90281677 C166.31103654 217.5471755 166.62852586 219.19231125 166.94238281 220.83813477 C167.41968597 223.33144111 167.91396459 225.8209398 168.41015625 228.31054688 C168.72109241 229.91255885 169.03101931 231.5147671 169.33984375 233.1171875 C169.4866861 233.85191788 169.63352844 234.58664825 169.78482056 235.34364319 C170.73570297 240.419278 171.46517197 245.64499052 170.80078125 250.80078125 C168.84375 253.03515625 168.84375 253.03515625 165.80078125 254.80078125 C165.14932129 255.20748047 164.49786133 255.61417969 163.82666016 256.03320312 C161.61046251 257.4122595 159.36768477 258.7352345 157.11328125 260.05078125 C156.34177734 260.5096875 155.57027344 260.96859375 154.77539062 261.44140625 C154.03740234 261.87453125 153.29941406 262.30765625 152.5390625 262.75390625 C151.86915283 263.14739258 151.19924316 263.54087891 150.5090332 263.94628906 C148.80078125 264.80078125 148.80078125 264.80078125 146.80078125 264.80078125 C146.67123047 265.76564453 146.67123047 265.76564453 146.5390625 266.75 C145.48806308 273.50917973 143.56173718 279.45191026 140.921875 285.7578125 C138.06869491 293.50215846 139.48471695 297.48698381 142.73828125 304.80078125 C147.61921953 315.88271123 147.61921953 315.88271123 146.80078125 320.80078125 C145.65625 322.6015625 145.65625 322.6015625 143.98828125 324.11328125 C143.02728516 324.995 143.02728516 324.995 142.046875 325.89453125 C138.64818846 328.77898174 135.19690547 331.59388305 131.72265625 334.38671875 C127.71775271 337.6955829 123.91886699 341.19982662 120.11328125 344.734375 C117.28078922 347.26543629 115.49769795 348.69457606 111.69921875 349.2734375 C105.51698529 348.52388815 101.10525619 345.02531816 96.00390625 341.62304688 C90.97775767 338.47153785 87.75838428 337.19154669 81.84619141 338.29931641 C81.17120605 338.4647998 80.4962207 338.6302832 79.80078125 338.80078125 C79.05989258 338.96215576 78.31900391 339.12353027 77.55566406 339.28979492 C76.13462791 339.60767649 74.71922623 339.95124046 73.30859375 340.3125 C70.80078125 340.80078125 70.80078125 340.80078125 67.73046875 340.8828125 C62.28316074 341.15968513 58.45798288 341.72456539 54.69921875 345.83203125 C51.39929626 349.88060261 48.48972844 354.22808262 45.625 358.59179688 C44.42578125 360.25390625 44.42578125 360.25390625 41.80078125 362.80078125 C36.20099716 363.36340577 31.79185203 362.11347073 26.6015625 360.28125 C25.46535713 359.89239372 25.46535713 359.89239372 24.30619812 359.49568176 C22.71528748 358.94848859 21.12617368 358.3960458 19.53881836 357.83862305 C17.11438864 356.98866948 14.68390424 356.1582322 12.25195312 355.33007812 C10.70142732 354.79411182 9.15128311 354.25704004 7.6015625 353.71875 C6.87858475 353.4717485 6.15560699 353.22474701 5.41072083 352.97026062 C1.80073171 351.69194908 -1.45028826 350.52950871 -4.19921875 347.80078125 C-4.44921875 344.61328125 -4.44921875 344.61328125 -4.19921875 341.80078125 C-5.27171875 342.44015625 -6.34421875 343.07953125 -7.44921875 343.73828125 C-12.70447874 346.8712247 -17.52047893 346.94906944 -23.546875 346.93359375 C-24.81222328 346.93502884 -24.81222328 346.93502884 -26.10313416 346.93649292 C-27.90965854 346.93717473 -29.71618537 346.93532037 -31.52270508 346.93115234 C-34.14475919 346.9260106 -36.76662471 346.93098435 -39.38867188 346.9375 C-57.01822035 346.92461761 -74.55443458 346.30491794 -92.19921875 345.80078125 C-92.19921875 301.58078125 -92.19921875 257.36078125 -92.19921875 211.80078125 C-126.7416787 209.44834494 -126.7416787 209.44834494 -139.75390625 218.8828125 C-142.02775887 221.4392384 -144.04689038 223.89095458 -146.07421875 226.61328125 C-147.71253399 228.58183535 -149.37934914 230.52281255 -151.05300903 232.46134949 C-152.06278187 233.65249973 -153.04754792 234.86558957 -153.99850464 236.10420227 C-157.83018699 240.98488763 -162.14431866 244.13166341 -168.3789978 245.16047668 C-170.720518 245.32514541 -173.02403406 245.35580883 -175.37109375 245.33203125 C-176.21593323 245.33585815 -177.06077271 245.33968506 -177.93121338 245.34362793 C-179.70268966 245.34633191 -181.4742069 245.33907758 -183.24560547 245.32226562 C-185.95630233 245.30072496 -188.66438153 245.32217222 -191.375 245.34765625 C-193.10287041 245.3450148 -194.83073921 245.3398936 -196.55859375 245.33203125 C-197.36592957 245.34012817 -198.17326538 245.3482251 -199.00506592 245.35656738 C-202.5775224 245.29688184 -204.75188317 245.13013627 -207.66894531 242.98242188 C-209.89631797 239.80695888 -210.33505852 237.67221468 -210.19921875 233.80078125 C-206.91828437 230.26247544 -205.54054646 228.87657402 -200.67358398 228.6015625 C-199.38137939 228.77042969 -198.0891748 228.93929687 -196.7578125 229.11328125 C-178.07710777 230.90263087 -178.07710777 230.90263087 -161.59913635 223.23062134 C-154.86860407 217.21102294 -148.81069891 210.45554339 -143.15455627 203.42298889 C-140.1616602 199.71179517 -137.9567211 197.11458083 -133.08575439 196.56027222 C-131.95324249 196.56693405 -131.95324249 196.56693405 -130.79785156 196.57373047 C-129.50696625 196.57395706 -129.50696625 196.57395706 -128.19000244 196.57418823 C-127.27007507 196.5845108 -126.35014771 196.59483337 -125.40234375 196.60546875 C-124.45357361 196.60829865 -123.50480347 196.61112854 -122.52728271 196.61404419 C-119.50113236 196.62522677 -116.47527945 196.65032795 -113.44921875 196.67578125 C-111.39583761 196.68581353 -109.34245183 196.69493895 -107.2890625 196.703125 C-102.25900021 196.72515984 -97.22915989 196.75967663 -92.19921875 196.80078125 C-92.19921875 192.18078125 -92.19921875 187.56078125 -92.19921875 182.80078125 C-95.20809456 182.81743584 -95.20809456 182.81743584 -98.27775574 182.83442688 C-117.1569572 182.93654085 -136.03612229 183.01098241 -154.91553783 183.05984211 C-164.62226954 183.08563039 -174.32879869 183.12079282 -184.03540039 183.17797852 C-192.49509179 183.2277944 -200.9546365 183.26006773 -209.41447049 183.27122372 C-213.89450666 183.27774558 -218.37412315 183.29308653 -222.85402489 183.32943153 C-227.07052226 183.3633625 -231.28642701 183.3738402 -235.50304794 183.36631966 C-237.05064807 183.36769552 -238.59826795 183.37764577 -240.14575005 183.39680862 C-242.25981535 183.42170408 -244.37164611 183.41570268 -246.48576355 183.40205383 C-247.66842395 183.4066628 -248.85108435 183.41127176 -250.06958294 183.41602039 C-254.14644418 182.61457103 -255.63789126 181.00314277 -258.19921875 177.80078125 C-258.82421875 174.80078125 -258.82421875 174.80078125 -258.19921875 171.80078125 C-255.63789126 168.59841973 -254.14644418 166.98699147 -250.06958294 166.18554211 C-248.29559234 166.19245555 -248.29559234 166.19245555 -246.48576355 166.19950867 C-245.8240395 166.19523654 -245.16231544 166.19096442 -244.48053914 166.18656284 C-242.2704285 166.17834806 -240.06222966 166.20578813 -237.85229492 166.2331543 C-236.26537114 166.23456512 -234.6784441 166.23377212 -233.09152222 166.23094177 C-228.78795015 166.22950752 -224.48507526 166.25889841 -220.18166518 166.29381156 C-215.68269497 166.32507367 -211.18370867 166.32800568 -206.68464661 166.3339386 C-198.16711888 166.34947749 -189.64991214 166.39050652 -181.13252574 166.44068605 C-171.43493714 166.49657813 -161.7373332 166.52406566 -152.03962362 166.54916322 C-132.09263802 166.60142238 -112.14595991 166.69037299 -92.19921875 166.80078125 C-92.19921875 162.51078125 -92.19921875 158.22078125 -92.19921875 153.80078125 C-93.90851563 153.82434692 -93.90851563 153.82434692 -95.65234375 153.84838867 C-99.90894409 153.90298158 -104.1655139 153.93723748 -108.42236328 153.96557617 C-110.25933041 153.98059621 -112.09626209 154.00101834 -113.93310547 154.02709961 C-116.58439929 154.06378327 -119.23521607 154.08057563 -121.88671875 154.09375 C-122.69850586 154.10923386 -123.51029297 154.12471771 -124.34667969 154.14067078 C-130.35187954 154.14241485 -136.10251991 153.55669636 -140.75646973 149.41490173 C-142.2730363 147.73091383 -143.66767973 145.98818251 -145.05859375 144.19921875 C-158.54997034 127.28249682 -158.54997034 127.28249682 -177.93359375 119.8046875 C-185.56936215 119.3548019 -193.20913702 119.9307579 -200.78710938 120.88647461 C-204.19921875 120.80078125 -204.19921875 120.80078125 -207.08789062 119.04125977 C-209.19921875 116.80078125 -209.19921875 116.80078125 -210.32421875 113.36328125 C-210.19921875 109.80078125 -210.19921875 109.80078125 -208.23754883 107.11743164 C-204.18944819 104.03085655 -201.41593224 104.08997966 -196.4609375 104.171875 C-195.20154106 104.16825706 -195.20154106 104.16825706 -193.91670227 104.16456604 C-192.14404572 104.16554323 -190.37135817 104.1789065 -188.59887695 104.20385742 C-185.90533951 104.23804491 -183.21510878 104.2245418 -180.52148438 104.20507812 C-178.79295495 104.21198098 -177.06443393 104.22165734 -175.3359375 104.234375 C-174.53983566 104.22941513 -173.74373383 104.22445526 -172.92350769 104.21934509 C-166.62493156 104.34989177 -161.35053256 105.79601789 -156.6938324 110.23616028 C-155.26946928 111.87162945 -153.94951829 113.56116451 -152.62890625 115.28125 C-151.55788277 116.54465286 -150.48082116 117.80295658 -149.3984375 119.05664062 C-147.73263175 120.99604176 -146.11657194 122.93140876 -144.58935547 124.98217773 C-140.15995251 130.85582481 -137.05155579 132.43892975 -130.19921875 136.80078125 C-117.65921875 137.13078125 -105.11921875 137.46078125 -92.19921875 137.80078125 C-92.19921875 86.98078125 -92.19921875 36.16078125 -92.19921875 -16.19921875 C-61.81398953 -24.88071281 -26.84707818 -14.8057054 0 0 Z M49.46484375 202.796875 C44.083305 203.21279834 41.14893488 204.98770492 37.48339844 208.98242188 C27.66830918 220.58389752 23.15286811 232.01462647 22.42578125 247.11328125 C22.07881764 253.46143017 20.83430146 258.91090918 18.73828125 264.8984375 C17.73880732 267.99264221 16.91650284 270.53914669 16.80078125 273.80078125 C22.7620964 283.33888549 32.93565347 290.48899194 43.78125 293.32421875 C56.89330689 295.39365076 68.90253203 294.41499056 80.3515625 287.19140625 C90.93139437 279.43878995 97.71562651 269.5763119 100.80078125 256.80078125 C102.04717109 242.84411367 99.72850563 230.93957755 90.80078125 219.80078125 C90.2490625 219.11242187 89.69734375 218.4240625 89.12890625 217.71484375 C80.68886571 208.30095238 68.29467137 203.34007586 55.86328125 202.55078125 C50.8359375 202.7991678 50.8359375 202.7991678 49.46484375 202.796875 Z M-24.19921875 301.80078125 C-20.19921875 302.80078125 -20.19921875 302.80078125 -20.19921875 302.80078125 Z " fill="#FED05B" transform="translate(341.19921875,81.19921875)"/>
<path d="M0 0 C2.13389814 0.75641542 4.27184476 1.50055019 6.41015625 2.24438477 C7.76979097 2.72477011 9.12917597 3.20586296 10.48828125 3.68774414 C11.7117627 4.11901611 12.93524414 4.55028809 14.19580078 4.99462891 C16.98046875 6.18383789 16.98046875 6.18383789 17.98046875 8.18383789 C18.09667674 10.1830934 18.1606885 12.18548484 18.19921875 14.18774414 C18.245625 15.40397461 18.29203125 16.62020508 18.33984375 17.87329102 C18.43256759 20.42706014 18.49574861 22.98209693 18.52734375 25.53735352 C18.8396515 32.28391077 19.37069653 36.36821064 24.32421875 41.18774414 C25.13568359 41.8802124 25.94714844 42.57268066 26.78320312 43.28613281 C28.76218181 44.99531073 29.94036438 46.34562705 31.23046875 48.58227539 C34.04324234 53.36650189 36.46680523 57.05346667 41.9765625 58.54321289 C45.62412121 59.26882654 49.2889536 59.67778614 52.9921875 59.99682617 C55.66987316 60.24868118 58.28157673 60.72135867 60.91796875 61.24633789 C61.66949219 61.38168945 62.42101562 61.51704102 63.1953125 61.65649414 C64.98046875 62.18383789 64.98046875 62.18383789 66.98046875 64.18383789 C67.64506524 66.77374913 68.20704421 69.31550096 68.70703125 71.93774414 C68.93584488 73.10006813 68.93584488 73.10006813 69.16928101 74.28587341 C69.49072404 75.93023214 69.80821336 77.57536789 70.12207031 79.22119141 C70.59937347 81.71449775 71.09365209 84.20399644 71.58984375 86.69360352 C71.90077991 88.29561549 72.21070681 89.89782375 72.51953125 91.50024414 C72.6663736 92.23497452 72.81321594 92.9697049 72.96450806 93.72669983 C73.91539047 98.80233464 74.64485947 104.02804716 73.98046875 109.18383789 C72.0234375 111.41821289 72.0234375 111.41821289 68.98046875 113.18383789 C68.32900879 113.59053711 67.67754883 113.99723633 67.00634766 114.41625977 C64.79015001 115.79531614 62.54737227 117.11829114 60.29296875 118.43383789 C59.52146484 118.89274414 58.74996094 119.35165039 57.95507812 119.82446289 C57.21708984 120.25758789 56.47910156 120.69071289 55.71875 121.13696289 C55.04884033 121.53044922 54.37893066 121.92393555 53.6887207 122.3293457 C51.98046875 123.18383789 51.98046875 123.18383789 49.98046875 123.18383789 C49.85091797 124.14870117 49.85091797 124.14870117 49.71875 125.13305664 C48.66775058 131.89223637 46.74142468 137.8349669 44.1015625 144.14086914 C41.24838241 151.8852151 42.66440445 155.87004045 45.91796875 163.18383789 C50.79890703 174.26576787 50.79890703 174.26576787 49.98046875 179.18383789 C48.8359375 180.98461914 48.8359375 180.98461914 47.16796875 182.49633789 C46.52730469 183.08415039 45.88664063 183.67196289 45.2265625 184.27758789 C41.82787596 187.16203838 38.37659297 189.97693969 34.90234375 192.76977539 C30.89744021 196.07863954 27.09855449 199.58288326 23.29296875 203.11743164 C20.46047672 205.64849293 18.67738545 207.0776327 14.87890625 207.65649414 C8.69667279 206.90694479 4.28494369 203.4083748 -0.81640625 200.00610352 C-5.84255483 196.85459449 -9.06192822 195.57460333 -14.97412109 196.68237305 C-15.64910645 196.84785645 -16.3240918 197.01333984 -17.01953125 197.18383789 C-17.76041992 197.3452124 -18.50130859 197.50658691 -19.26464844 197.67285156 C-20.68568459 197.99073313 -22.10108627 198.3342971 -23.51171875 198.69555664 C-26.01953125 199.18383789 -26.01953125 199.18383789 -29.08984375 199.26586914 C-34.53715176 199.54274177 -38.36232962 200.10762203 -42.12109375 204.21508789 C-45.42101624 208.26365925 -48.33058406 212.61113926 -51.1953125 216.97485352 C-52.39453125 218.63696289 -52.39453125 218.63696289 -55.01953125 221.18383789 C-60.61931534 221.74646241 -65.02846047 220.49652737 -70.21875 218.66430664 C-70.97622025 218.40506912 -71.73369049 218.1458316 -72.51411438 217.8787384 C-74.10502502 217.33154523 -75.69413882 216.77910244 -77.28149414 216.22167969 C-79.70592386 215.37172612 -82.13640826 214.54128884 -84.56835938 213.71313477 C-86.11888518 213.17716846 -87.66902939 212.64009668 -89.21875 212.10180664 C-90.30321663 211.7313044 -90.30321663 211.7313044 -91.40959167 211.35331726 C-95.01958079 210.07500572 -98.27060076 208.91256535 -101.01953125 206.18383789 C-101.26953125 202.99633789 -101.26953125 202.99633789 -101.01953125 200.18383789 C-102.09203125 200.82321289 -103.16453125 201.46258789 -104.26953125 202.12133789 C-109.52495707 205.25438021 -114.34055387 205.3318418 -120.3671875 205.31665039 C-121.19996719 205.31796967 -122.03274689 205.31928894 -122.89076233 205.32064819 C-125.62122254 205.32257142 -128.35158135 205.31620672 -131.08203125 205.30883789 C-132.01005554 205.30795166 -132.93807983 205.30706543 -133.89422607 205.30615234 C-152.28672191 205.28558129 -170.63678491 204.80174533 -189.01953125 204.18383789 C-189.01953125 189.99383789 -189.01953125 175.80383789 -189.01953125 161.18383789 C-165.25953125 161.18383789 -141.49953125 161.18383789 -117.01953125 161.18383789 C-117.01953125 160.52383789 -117.01953125 159.86383789 -117.01953125 159.18383789 C-115.91158203 158.78165039 -115.91158203 158.78165039 -114.78125 158.37133789 C-100.01493215 152.66744891 -89.29283838 143.54841095 -81.01953125 130.18383789 C-79.07932703 132.04643394 -77.23080604 133.92044492 -75.546875 136.01977539 C-69.00071138 144.09801986 -60.37926175 149.54879634 -50.01953125 151.18383789 C-36.66354188 152.50335318 -25.17702805 150.97342856 -14.08203125 142.80883789 C-4.45278764 134.62310064 2.16857578 124.27515099 3.31640625 111.42211914 C3.44337025 98.66223665 1.09801176 88.39495647 -7.01953125 78.18383789 C-7.49777344 77.56895508 -7.97601563 76.95407227 -8.46875 76.32055664 C-15.2398506 68.62844992 -26.86912893 63.21272857 -37.01953125 62.18383789 C-43.088536 61.89483766 -48.9902673 62.49195514 -55.01953125 63.18383789 C-53.06635021 59.75057965 -51.10470784 56.32746562 -49.08984375 52.92993164 C-38.99010637 35.75226585 -31.98276544 17.10104971 -29.34375 -2.73413086 C-29.01953125 -4.81616211 -29.01953125 -4.81616211 -28.01953125 -6.81616211 C-19.81916034 -9.54961908 -7.99523486 -2.84164597 0 0 Z " fill="#6ED6A2" transform="translate(438.01953125,222.816162109375)"/>
<path d="M0 0 C5.30612513 4.23737368 10.37862892 8.71126035 15.3125 13.375 C16.12332031 14.12136719 16.93414062 14.86773437 17.76953125 15.63671875 C41.61928075 38.35970843 56.68275166 72.31992972 57.55078125 105.234375 C57.7645037 120.34828974 57.50747175 134.73024218 53.3125 149.375 C52.95841064 150.64512939 52.95841064 150.64512939 52.59716797 151.94091797 C47.02595199 171.42760186 38.05089346 188.67031219 25.25 204.375 C17.08707063 214.45582151 13.3032135 223.05795961 12.4375 235.9375 C10.93877387 254.0948573 5.19067851 268.83674315 -8.32421875 281.41796875 C-24.20410557 294.56808991 -39.26096315 296.10172539 -59.0625 295.6875 C-61.16663993 295.66236578 -63.27080905 295.63956173 -65.375 295.61914062 C-70.4799001 295.56459835 -75.58336978 295.47861289 -80.6875 295.375 C-80.6875 295.045 -80.6875 294.715 -80.6875 294.375 C-79.74390625 294.16746094 -78.8003125 293.95992188 -77.828125 293.74609375 C-62.15407877 290.07534251 -49.31411595 282.65448692 -40.28515625 269.0390625 C-33.90961139 258.40795836 -30.75516381 247.60860453 -30.1875 235.25 C-29.59480682 222.67485384 -25.89997542 214.65702221 -17.9453125 205.0390625 C5.10451226 177.13468066 18.42667645 140.84962459 15.3125 104.375 C11.37290771 66.66046074 -4.81883213 31.46092619 -34.46289062 6.90429688 C-54.56795364 -9.00418217 -77.43025488 -19.20207228 -102.6875 -23.625 C-102.6875 -23.955 -102.6875 -24.285 -102.6875 -24.625 C-67.55450053 -31.14192214 -28.61561847 -20.9749912 0 0 Z " fill="#FEC344" transform="translate(352.6875,88.625)"/>
<path d="M0 0 C2.13389814 0.75641542 4.27184476 1.50055019 6.41015625 2.24438477 C7.76979097 2.72477011 9.12917597 3.20586296 10.48828125 3.68774414 C11.7117627 4.11901611 12.93524414 4.55028809 14.19580078 4.99462891 C16.98046875 6.18383789 16.98046875 6.18383789 17.98046875 8.18383789 C18.09667674 10.1830934 18.1606885 12.18548484 18.19921875 14.18774414 C18.245625 15.40397461 18.29203125 16.62020508 18.33984375 17.87329102 C18.43256759 20.42706014 18.49574861 22.98209693 18.52734375 25.53735352 C18.8396515 32.28391077 19.37069653 36.36821064 24.32421875 41.18774414 C25.13568359 41.8802124 25.94714844 42.57268066 26.78320312 43.28613281 C28.76218181 44.99531073 29.94036438 46.34562705 31.23046875 48.58227539 C34.04324234 53.36650189 36.46680523 57.05346667 41.9765625 58.54321289 C45.62412121 59.26882654 49.2889536 59.67778614 52.9921875 59.99682617 C55.66987316 60.24868118 58.28157673 60.72135867 60.91796875 61.24633789 C61.66949219 61.38168945 62.42101562 61.51704102 63.1953125 61.65649414 C64.98046875 62.18383789 64.98046875 62.18383789 66.98046875 64.18383789 C67.64506524 66.77374913 68.20704421 69.31550096 68.70703125 71.93774414 C68.85957367 72.7126268 69.01211609 73.48750946 69.16928101 74.28587341 C69.49072404 75.93023214 69.80821336 77.57536789 70.12207031 79.22119141 C70.59937347 81.71449775 71.09365209 84.20399644 71.58984375 86.69360352 C71.90077991 88.29561549 72.21070681 89.89782375 72.51953125 91.50024414 C72.73979477 92.60233971 72.73979477 92.60233971 72.96450806 93.72669983 C73.91539047 98.80233464 74.64485947 104.02804716 73.98046875 109.18383789 C72.0234375 111.41821289 72.0234375 111.41821289 68.98046875 113.18383789 C68.32900879 113.59053711 67.67754883 113.99723633 67.00634766 114.41625977 C64.79015001 115.79531614 62.54737227 117.11829114 60.29296875 118.43383789 C59.52146484 118.89274414 58.74996094 119.35165039 57.95507812 119.82446289 C57.21708984 120.25758789 56.47910156 120.69071289 55.71875 121.13696289 C54.7138855 121.72719238 54.7138855 121.72719238 53.6887207 122.3293457 C51.98046875 123.18383789 51.98046875 123.18383789 49.98046875 123.18383789 C49.85091797 124.14870117 49.85091797 124.14870117 49.71875 125.13305664 C48.66775058 131.89223637 46.74142468 137.8349669 44.1015625 144.14086914 C41.24838241 151.8852151 42.66440445 155.87004045 45.91796875 163.18383789 C50.79890703 174.26576787 50.79890703 174.26576787 49.98046875 179.18383789 C48.8359375 180.98461914 48.8359375 180.98461914 47.16796875 182.49633789 C46.52730469 183.08415039 45.88664062 183.67196289 45.2265625 184.27758789 C41.82787596 187.16203838 38.37659297 189.97693969 34.90234375 192.76977539 C30.89744021 196.07863954 27.09855449 199.58288326 23.29296875 203.11743164 C20.46047672 205.64849293 18.67738545 207.0776327 14.87890625 207.65649414 C8.69667279 206.90694479 4.28494369 203.4083748 -0.81640625 200.00610352 C-5.8473475 196.85158939 -9.03478133 195.57562249 -14.93945312 196.703125 C-15.9690918 196.94107788 -15.9690918 196.94107788 -17.01953125 197.18383789 C-18.75396484 197.44874023 -18.75396484 197.44874023 -20.5234375 197.71899414 C-21.53277344 197.89301758 -22.54210937 198.06704102 -23.58203125 198.24633789 C-25.13083984 198.51124023 -25.13083984 198.51124023 -26.7109375 198.78149414 C-27.47277344 198.91426758 -28.23460937 199.04704102 -29.01953125 199.18383789 C-25.76712094 195.86731196 -22.41283631 192.77628121 -18.89453125 189.74633789 C2.14927188 170.59760843 15.66979829 142.47434536 17.08837891 114.01928711 C17.56921885 102.6709906 16.52123496 92.22961024 13.98046875 81.18383789 C13.79871094 80.19641602 13.61695313 79.20899414 13.4296875 78.19165039 C8.20834126 52.54667091 -10.56984767 28.48362695 -32.01953125 14.18383789 C-29.78357978 -1.42024895 -29.78357978 -1.42024895 -28.01953125 -6.81616211 C-19.81916034 -9.54961908 -7.99523486 -2.84164597 0 0 Z " fill="#3EC3A4" transform="translate(438.01953125,222.816162109375)"/>
<path d="M0 0 C11.61861159 8.44810911 18.58092282 18.88755717 21.07270432 33.01859474 C21.92337268 39.92801538 21.69980555 46.88200026 21.62744141 53.83081055 C21.61699736 55.56639605 21.60746551 57.30198725 21.59877014 59.0375824 C21.57276138 63.71869763 21.53409179 68.39963054 21.49304628 73.08063483 C21.45223866 77.98395045 21.42321719 82.88733595 21.39291382 87.79072571 C21.33383982 97.06233092 21.26425706 106.33382588 21.19084299 115.60532743 C21.10773368 126.16639205 21.03642437 136.72752621 20.96607709 147.28868234 C20.82118867 169.00115107 20.6615764 190.71349074 20.4921875 212.42578125 C15.13536617 212.49990175 9.77884288 212.55436901 4.42163086 212.59057617 C2.59898683 212.60566885 0.77637914 212.6261452 -1.04614258 212.65209961 C-3.6649675 212.68846228 -6.28331257 212.70550249 -8.90234375 212.71875 C-9.71806351 212.73423386 -10.53378326 212.74971771 -11.3742218 212.76567078 C-17.06736016 212.76736692 -17.06736016 212.76736692 -19.22359228 211.09513605 C-21.29130614 208.40731974 -20.88447119 205.88296293 -20.88635254 202.54678345 C-20.89088267 201.84285442 -20.8954128 201.13892539 -20.9000802 200.41366518 C-20.91173192 198.04853941 -20.90204599 195.68397623 -20.89257812 193.31884766 C-20.8966823 191.62523025 -20.90214226 189.93161566 -20.90885925 188.23800659 C-20.92060223 184.58590885 -20.92306195 180.93396232 -20.91850281 177.28184891 C-20.91169774 171.49790992 -20.92755647 165.71416983 -20.94689941 159.93026733 C-20.98480255 147.6371161 -20.99754447 135.34398193 -21.0078125 123.05078125 C-21.01889187 109.81335442 -21.03439921 96.57601926 -21.07852507 83.33865488 C-21.09680427 77.59940374 -21.10080053 71.86037957 -21.09358978 66.12110639 C-21.09205791 62.5324077 -21.10291566 58.94382036 -21.11696815 55.35515213 C-21.1209403 53.7029055 -21.11989855 52.05063716 -21.11319542 50.39839935 C-21.05300086 34.31218553 -22.81048687 19.21422764 -34.3828125 7.05078125 C-38.08121054 3.58085567 -42.07821464 0.87619709 -46.5078125 -1.57421875 C-45.21505619 -4.15973138 -44.39836836 -4.26190691 -41.6953125 -5.19921875 C-27.6549687 -9.11276285 -12.36412415 -7.76128042 0 0 Z " fill="#FE646F" transform="translate(228.5078125,6.57421875)"/>
<path d="M0 0 C19.14527166 -0.16043524 19.14527166 -0.16043524 27.3359375 -0.1953125 C32.91454375 -0.21918013 38.49288619 -0.24734872 44.07128906 -0.30175781 C48.57115054 -0.3453703 53.07072893 -0.36916957 57.57078552 -0.37950897 C59.28352817 -0.38687279 60.99625615 -0.40125255 62.70887756 -0.42292023 C80.70341697 -0.64143078 80.70341697 -0.64143078 88.2421875 5.96484375 C92.75688427 11.41920228 95.52621031 15.36489695 95.31640625 22.75 C94.34279147 29.67348287 91.47173681 35.59591916 86 40 C80.2713525 43.91224707 75.46193558 44.14997752 68.65234375 44.1328125 C67.81956406 44.13413177 66.98678436 44.13545105 66.12876892 44.1368103 C63.39830871 44.13873353 60.6679499 44.13236883 57.9375 44.125 C57.00947571 44.12411377 56.08145142 44.12322754 55.12530518 44.12231445 C36.73280934 44.1017434 18.38274634 43.61790744 0 43 C0 28.81 0 14.62 0 0 Z " fill="#7B6D79" transform="translate(249,384)"/>
<path d="M0 0 C0.8746245 -0.00709439 1.749249 -0.01418877 2.65037727 -0.02149814 C5.58100457 -0.03909983 8.51030942 -0.02096228 11.44091797 -0.00291443 C13.54189661 -0.00805241 15.64287095 -0.01533276 17.74383545 -0.02459717 C23.45046655 -0.04313465 29.15663132 -0.03015751 34.8632431 -0.01050687 C40.83201148 0.00586141 46.80074989 -0.00293073 52.76953125 -0.00802612 C62.79353293 -0.0125491 72.81734814 0.00333557 82.84130859 0.03126526 C94.43448946 0.06331795 106.02733396 0.06330201 117.62053871 0.04605049 C128.76755623 0.03019313 139.91445029 0.03691391 151.0614624 0.0539875 C155.80779298 0.06086459 160.5540248 0.05981877 165.300354 0.05244255 C170.88842726 0.04478803 176.4761172 0.05687896 182.06412506 0.08429146 C184.11641553 0.09118507 186.16874173 0.09126286 188.22103119 0.08407593 C191.01985393 0.07540326 193.81748774 0.0913003 196.61621094 0.11352539 C197.43089907 0.10528462 198.2455872 0.09704386 199.08496284 0.08855337 C202.81473636 0.14332456 205.09363678 0.49845029 208.31228638 2.44551182 C210.30810547 4.62818909 210.30810547 4.62818909 210.93310547 8.06568909 C210.13521852 12.61364472 208.94367318 13.82419503 205.30810547 16.62818909 C202.22446713 17.12021318 199.69587191 17.30526985 196.61621094 17.2631073 C195.30427419 17.27480723 195.30427419 17.27480723 193.96583366 17.28674352 C191.0352249 17.30668665 188.10591136 17.29088989 185.17529297 17.27516174 C183.07431276 17.28193682 180.97333849 17.29083933 178.87237549 17.30171204 C173.16575844 17.32452476 167.45959288 17.31566066 161.75296783 17.29981661 C155.78419263 17.28716797 149.81545639 17.29889485 143.84667969 17.30674744 C133.82268322 17.31584699 123.79887087 17.30384794 113.77490234 17.28004456 C102.18167554 17.25283286 90.58888837 17.26164679 78.99567223 17.28917658 C69.04649273 17.31185781 59.09744567 17.31507251 49.14824867 17.30198324 C43.20404477 17.29418336 37.2600476 17.29316205 31.31585693 17.30966568 C25.72772364 17.32409666 20.14015779 17.31411326 14.55208588 17.2851944 C12.49979343 17.27857632 10.44745331 17.28049351 8.39517975 17.29150772 C5.59613926 17.30514607 2.79892377 17.28806827 0 17.2631073 C-0.81468813 17.27426091 -1.62937626 17.28541452 -2.46875191 17.29690611 C-6.53503235 17.22643175 -8.4547447 16.8138702 -11.69607544 14.2760067 C-13.69189453 11.62818909 -13.69189453 11.62818909 -14.31689453 8.62818909 C-12.69870772 0.86089237 -6.97674996 -0.1013577 0 0 Z " fill="#FEFBFA" transform="translate(96.69189453125,247.37181091308594)"/>
<path d="M0 0 C1.25939644 -0.00361794 1.25939644 -0.00361794 2.54423523 -0.00730896 C4.31689178 -0.00633177 6.08957933 0.0070315 7.86206055 0.03198242 C10.55559799 0.06616991 13.24582872 0.0526668 15.93945312 0.03320312 C17.66798255 0.04010598 19.39650357 0.04978234 21.125 0.0625 C21.92110184 0.05754013 22.71720367 0.05258026 23.53742981 0.04747009 C29.21225782 0.16508873 33.80583403 0.94120342 38.26171875 4.62890625 C39.95659443 6.7515847 41.57160616 8.87959367 43.16625977 11.07421875 C51.77396549 22.59000234 60.67187975 32.46069971 75.50757408 34.62149048 C90.07014306 36.05920131 104.75618279 35.41835439 119.3482666 34.78192139 C127.06687669 34.47522732 134.79037316 34.35878835 142.5135355 34.22218323 C148.50885316 34.11394787 154.49788815 33.97568566 160.48973083 33.74145508 C161.58288101 33.70543686 162.67603119 33.66941864 163.80230713 33.63230896 C165.83764279 33.56441509 167.87254451 33.48095583 169.90644836 33.37879944 C174.20249527 33.25211158 176.57819931 33.2359489 180.37110901 35.41650391 C182.26171875 37.62890625 182.26171875 37.62890625 182.82421875 41.12890625 C182.26171875 44.62890625 182.26171875 44.62890625 180.92025757 46.81530762 C176.63218404 49.74054017 172.23421205 49.18485418 167.16259766 49.14648438 C165.4644265 49.15699829 165.4644265 49.15699829 163.73194885 49.16772461 C159.98381123 49.18535134 156.23642677 49.17366288 152.48828125 49.16015625 C149.88520157 49.16285017 147.28212286 49.16673176 144.67904663 49.17175293 C139.21986724 49.17902885 133.76090433 49.16944549 128.30175781 49.15039062 C121.99867572 49.12864347 115.69611164 49.13565724 109.39304221 49.15769625 C103.32213285 49.17807073 97.25145228 49.17586847 91.18052292 49.16416931 C88.60093488 49.16150108 86.02133363 49.16477513 83.44176102 49.17408752 C79.83402829 49.18425113 76.22728779 49.1687516 72.61962891 49.14648438 C71.55344833 49.1545813 70.48726776 49.16267822 69.38877869 49.17102051 C63.34935508 49.10199747 59.85656579 48.65789008 55.26171875 44.62890625 C53.43544438 42.57094549 51.7300034 40.52455139 50.03515625 38.3671875 C38.07040555 23.38148482 38.07040555 23.38148482 21.11715698 15.98286438 C12.62866851 15.2481735 4.15540486 15.7731152 -4.29443359 16.74633789 C-8.49382282 16.60314306 -9.89019977 15.65156885 -12.73828125 12.62890625 C-13.86328125 9.19140625 -13.86328125 9.19140625 -13.73828125 5.62890625 C-9.73070456 0.14698026 -6.31526352 -0.10437764 0 0 Z " fill="#FEFDFD" transform="translate(144.73828125,185.37109375)"/>
<path d="M0 0 C0.80370529 -0.00671722 1.60741058 -0.01343445 2.43547058 -0.02035522 C5.08920489 -0.03933612 7.74268643 -0.04325909 10.39648438 -0.04541016 C12.24206649 -0.05183675 14.08764758 -0.05856501 15.93322754 -0.06558228 C19.80007287 -0.07755434 23.66682885 -0.08126304 27.53369141 -0.08007812 C32.49049296 -0.07987465 37.44672302 -0.10720667 42.40338898 -0.14162254 C46.21407712 -0.16384701 50.0246266 -0.16791708 53.83537292 -0.16685867 C55.6630399 -0.1692202 57.49071039 -0.1780747 59.3183136 -0.19352341 C61.8727746 -0.21309884 64.42598808 -0.20737983 66.98046875 -0.1953125 C67.73591476 -0.20655151 68.49136078 -0.21779053 69.2696991 -0.22937012 C72.73431733 -0.18773582 74.64694511 0.03338334 77.45568848 2.13729858 C78.99023438 4.29052734 78.99023438 4.29052734 79.55273438 7.22802734 C78.79003734 11.38048897 77.26629993 12.68026504 73.99023438 15.29052734 C70.65415955 15.74134827 70.65415955 15.74134827 66.79858398 15.50561523 C66.09136609 15.4717657 65.3841482 15.43791616 64.65549946 15.40304089 C63.12138169 15.32938646 61.58772972 15.24546797 60.05466461 15.15244293 C55.90082836 14.91262546 51.74320403 14.79279807 47.5847168 14.6628418 C46.28328452 14.62049817 46.28328452 14.62049817 44.95556068 14.57729912 C12.46241182 12.09660706 12.46241182 12.09660706 -16.1415863 24.26878357 C-21.168158 29.30895273 -25.28449715 35.08265465 -28.75317383 41.28198242 C-32.04498143 45.67070308 -35.76797773 47.75689607 -41.19490051 48.65022278 C-43.53461778 48.81515819 -45.83635774 48.84553692 -48.18164062 48.82177734 C-49.0264801 48.82560425 -49.87131958 48.82943115 -50.74176025 48.83337402 C-52.51323653 48.836078 -54.28475378 48.82882368 -56.05615234 48.81201172 C-58.76684921 48.79047105 -61.47492841 48.81191832 -64.18554688 48.83740234 C-65.91341729 48.83476089 -67.64128608 48.82963969 -69.36914062 48.82177734 C-70.58014435 48.83392273 -70.58014435 48.83392273 -71.81561279 48.84631348 C-75.38806927 48.78662793 -77.56243005 48.61988236 -80.47949219 46.47216797 C-82.70686484 43.29670497 -83.14560539 41.16196078 -83.00976562 37.29052734 C-79.72883124 33.75222154 -78.35109334 32.36632012 -73.48413086 32.09130859 C-72.19192627 32.26017578 -70.89972168 32.42904297 -69.56835938 32.60302734 C-50.88765464 34.39237696 -50.88765464 34.39237696 -34.40968323 26.72036743 C-27.67915094 20.70076903 -21.62124578 13.94528949 -15.96510315 6.91273499 C-11.01845131 0.77888243 -7.71824974 -0.00926023 0 0 Z " fill="#FEFDFD" transform="translate(214.009765625,277.70947265625)"/>
<path d="M0 0 C21.69518385 -0.12579723 43.3206072 0.09478604 65 1 C66.09216631 24.08671562 66.09216631 24.08671562 58.203125 33.0390625 C51.79058704 39.2720494 44.42917257 41.33388949 35.60241699 41.36553955 C34.73330688 41.35319275 33.86419678 41.34084595 32.96875 41.328125 C32.05162231 41.32625183 31.13449463 41.32437866 30.1895752 41.32244873 C28.27022614 41.31577551 26.35088958 41.30195666 24.43164062 41.28125 C21.48034161 41.24979045 18.52957593 41.2402427 15.578125 41.234375 C13.70832675 41.22521599 11.83853396 41.21484376 9.96875 41.203125 C8.64079407 41.19675018 8.64079407 41.19675018 7.28601074 41.19024658 C1.11723517 41.11723517 1.11723517 41.11723517 0 40 C-0.08868299 37.04294679 -0.11520296 34.10934944 -0.09765625 31.15234375 C-0.0962413 30.2659169 -0.09482635 29.37949005 -0.09336853 28.46620178 C-0.08775215 25.62326746 -0.07519691 22.78041069 -0.0625 19.9375 C-0.05748711 18.01497509 -0.05292384 16.09244896 -0.04882812 14.16992188 C-0.03777741 9.44658451 -0.02050183 4.72330542 0 0 Z " fill="#DEDAEC" transform="translate(249,427)"/>
<path d="M0 0 C16.82174183 -0.67204254 16.82174183 -0.67204254 22.41845703 4.11181641 C27.68883177 9.16083541 31.04299254 13.41974891 31.79345703 20.79931641 C31.60904455 27.29063562 29.08768212 33.10018617 24.98095703 38.04931641 C18.16667373 43.53398345 13.31218058 44.27745873 4.71533203 43.99072266 C3.45864716 43.95530617 3.45864716 43.95530617 2.17657471 43.91917419 C-0.49297928 43.84274782 -3.16222769 43.75863333 -5.83154297 43.67431641 C-7.64402814 43.62107465 -9.45652811 43.5683344 -11.26904297 43.51611328 C-15.7067356 43.3871612 -20.14416984 43.25131466 -24.58154297 43.11181641 C-23.81068359 42.50080078 -23.03982422 41.88978516 -22.24560547 41.26025391 C-16.54832629 36.66567392 -12.18478696 32.67837343 -11.19091797 25.15478516 C-10.83627516 18.2311903 -11.50554017 13.47496205 -15.78076172 7.92431641 C-18.46900657 5.21857755 -21.1230986 3.70270082 -24.58154297 2.11181641 C-24.58154297 1.78181641 -24.58154297 1.45181641 -24.58154297 1.11181641 C-16.38974108 0.68205256 -8.19515303 0.35496313 0 0 Z " fill="#685E68" transform="translate(312.58154296875,383.88818359375)"/>
<path d="M0 0 C7.26 0 14.52 0 22 0 C22.78245614 23.47368421 22.78245614 23.47368421 15.390625 31.81640625 C11.29381488 35.71589295 5.81204017 39 0 39 C0 26.13 0 13.26 0 0 Z " fill="#F8F6F7" transform="translate(250,428)"/>
<path d="M0 0 C2.375 1 2.375 1 4 3 C4.96010161 6.2003387 5.43014231 7.81223301 5 11 C3.45297885 13.82316311 1.35846043 15.83436967 -1 18 C-1.60457031 18.56460938 -2.20914062 19.12921875 -2.83203125 19.7109375 C-4.84844623 21.52612166 -6.9130677 23.26641074 -9 25 C-9.84433594 25.72058594 -10.68867188 26.44117187 -11.55859375 27.18359375 C-12.42613281 27.90675781 -13.29367187 28.62992188 -14.1875 29.375 C-14.98542969 30.04273437 -15.78335937 30.71046875 -16.60546875 31.3984375 C-19.19022268 33.12722888 -20.91322787 33.75406206 -24 34 C-29.63855422 31.72289157 -29.63855422 31.72289157 -31 29 C-31.49565567 24.70431751 -31.42800364 22.64200546 -29 19 C-25.58661713 15.38639076 -21.79644167 12.19903206 -18 9 C-16.65615234 7.78957031 -16.65615234 7.78957031 -15.28515625 6.5546875 C-14.34542969 5.73226562 -13.40570313 4.90984375 -12.4375 4.0625 C-11.13619141 2.90427734 -11.13619141 2.90427734 -9.80859375 1.72265625 C-6.29046085 -0.43519717 -4.06020301 -0.38828388 0 0 Z " fill="#FFD15B" transform="translate(422,59)"/>
<path d="M0 0 C3.13137045 2.53491894 3.82654449 4.07490393 4.5625 8 C3.97186105 11.15007438 3.13835998 12.62116242 0.82592773 14.81396484 C-3.2003251 17.42922575 -8.10123042 17.95213913 -12.75 18.8125 C-13.79671875 19.02841797 -14.8434375 19.24433594 -15.921875 19.46679688 C-22.04059543 20.67141996 -27.76513265 21.43150035 -34 21 C-37.06018871 18.46228253 -37.83450185 16.88265681 -38.5625 13 C-37.96893619 9.83432633 -37.11209755 8.38695176 -34.7902832 6.18603516 C-30.9330519 3.63067859 -26.28658239 3.05833288 -21.8125 2.1875 C-20.82185547 1.97158203 -19.83121094 1.75566406 -18.81054688 1.53320312 C-12.65240944 0.26119441 -6.29008603 -0.88192926 0 0 Z " fill="#FFD15A" transform="translate(469,149)"/>
<path d="M0 0 C2.5 1.5 2.5 1.5 4 4 C3.67352974 11.54677767 1.58452071 18.2491925 -0.8125 25.375 C-1.15603516 26.45394531 -1.49957031 27.53289063 -1.85351562 28.64453125 C-2.19705078 29.67707031 -2.54058594 30.70960937 -2.89453125 31.7734375 C-3.20237549 32.70591309 -3.51021973 33.63838867 -3.82739258 34.59912109 C-5.17901221 37.36652219 -6.34961114 38.46747701 -9 40 C-13.37934493 40.63699563 -15.29101164 40.47265891 -19 38 C-21.2474752 34.62878719 -21.13291004 33.32650978 -20.52539062 29.44335938 C-19.44900569 24.4375692 -17.85696035 19.6063287 -16.25 14.75 C-15.91484375 13.67492187 -15.5796875 12.59984375 -15.234375 11.4921875 C-12.49275059 3.16346485 -9.85430998 -2.86670836 0 0 Z " fill="#FFD15A" transform="translate(338,5)"/>
<path d="M0 0 C13.53 0 27.06 0 41 0 C41 4.62 41 9.24 41 14 C27.47 14 13.94 14 0 14 C0 9.38 0 4.76 0 0 Z " fill="#FE6772" transform="translate(208,264)"/>
<path d="M0 0 C20.295 0.495 20.295 0.495 41 1 C41 5.29 41 9.58 41 14 C27.47 14 13.94 14 0 14 C0 9.38 0 4.76 0 0 Z " fill="#FE646F" transform="translate(208,234)"/>
</svg>
