<?xml version="1.0" encoding="UTF-8"?>
<svg version="1.1" xmlns="http://www.w3.org/2000/svg" width="512" height="512">
<path d="M0 0 C7.91650757 4.7000161 11.92787756 11.18547434 14.4375 19.9375 C14.69195544 21.87401764 14.89440528 23.81811966 15.04296875 25.765625 C15.1205542 26.73918945 15.19813965 27.71275391 15.27807617 28.71582031 C15.35699097 29.81555176 15.35699097 29.81555176 15.4375 30.9375 C16.40421631 31.33316162 17.37093262 31.72882324 18.36694336 32.13647461 C36.62423836 39.61056845 54.87245529 47.10551438 73.0914917 54.67245483 C75.67845447 55.7462454 78.26609854 56.8183759 80.85400391 57.88989258 C82.53678975 58.58673706 84.21956978 59.28359558 85.90234375 59.98046875 C86.7153595 60.31712051 87.52837524 60.65377228 88.36602783 61.00062561 C92.87279443 62.86855352 97.37416953 64.74858344 101.86984253 66.64305115 C103.81041665 67.4594671 105.752889 68.27114749 107.69628906 69.08081055 C109.99237033 70.03814204 112.28497398 71.00387702 114.57324219 71.97973633 C115.56614258 72.39118896 116.55904297 72.8026416 117.58203125 73.2265625 C118.43128174 73.58443848 119.28053223 73.94231445 120.15551758 74.31103516 C122.72084845 75.01528668 123.97586856 74.87837838 126.4375 73.9375 C128.15615225 72.64563316 128.15615225 72.64563316 129.75 71.0625 C135.134637 66.28506675 141.197555 63.9375 148.4375 63.9375 C158.86997938 64.98730925 164.91528189 68.91338328 171.73828125 76.62109375 C176.17704086 82.67209249 176.90872914 89.62911928 176.109375 96.9375 C174.71057146 103.96738445 172.29852022 107.99934342 166.984375 112.8046875 C165.15974209 114.84292933 165.15974209 114.84292933 165.60302734 117.47900391 C166.69624507 122.00987646 168.41799715 126.12554322 170.2421875 130.40625 C170.82910873 131.80555252 170.82910873 131.80555252 171.42788696 133.23312378 C172.71706974 136.30367567 174.01490107 139.37049649 175.3125 142.4375 C176.67016605 145.66669248 178.02548213 148.89686535 179.38079834 152.12704468 C180.31547068 154.35410624 181.25090558 156.5808479 182.18707275 158.80728149 C186.73478894 169.6258544 191.22554897 180.46762312 195.70123291 191.31616211 C196.91423539 194.25611363 198.12863315 197.19548561 199.34326172 200.13476562 C200.09350819 201.95178835 200.84367516 203.76884391 201.59375 205.5859375 C201.92525055 206.3882077 202.2567511 207.19047791 202.59829712 208.01705933 C204.91743979 213.64162465 207.18750065 219.28493812 209.4375 224.9375 C210.40429688 225.01226562 211.37109375 225.08703125 212.3671875 225.1640625 C221.86857913 226.12360898 229.48320171 227.65222562 236.30859375 234.93359375 C242.47690544 242.75862225 243.30994261 250.30461405 242.67578125 260.00048828 C241.91506112 266.18445708 238.67020713 271.08083251 234.25 275.3125 C228.35253805 279.80883708 221.96220181 281.9820658 214.609375 282.54296875 C213.63581055 282.6205542 212.66224609 282.69813965 211.65917969 282.77807617 C210.55944824 282.85699097 210.55944824 282.85699097 209.4375 282.9375 C209.04183838 283.90421631 208.64617676 284.87093262 208.23852539 285.86694336 C200.76443155 304.12423836 193.26948562 322.37245529 185.70254517 340.5914917 C184.6287546 343.17845447 183.5566241 345.76609854 182.48510742 348.35400391 C181.78826294 350.03678975 181.09140442 351.71956978 180.39453125 353.40234375 C180.05787949 354.2153595 179.72122772 355.02837524 179.37437439 355.86602783 C177.50644648 360.37279443 175.62641656 364.87416953 173.73194885 369.36984253 C172.9155329 371.31041665 172.10385251 373.252889 171.29418945 375.19628906 C170.33685796 377.49237033 169.37112298 379.78497398 168.39526367 382.07324219 C167.98381104 383.06614258 167.5723584 384.05904297 167.1484375 385.08203125 C166.79056152 385.93128174 166.43268555 386.78053223 166.06396484 387.65551758 C165.35758581 390.22859818 165.48268401 391.4711954 166.4375 393.9375 C167.98997976 395.95539389 167.98997976 395.95539389 169.875 397.875 C175.11521172 403.71531776 176.4700643 409.1329229 176.4375 416.9375 C175.49679579 426.4574266 171.74704179 432.80953232 164.4375 438.9375 C157.56523899 443.32132809 150.41648741 444.57939266 142.4375 443.3125 C136.37084923 441.93117029 131.46738674 439.20619694 127.3125 434.5625 C125.5314845 432.6350313 125.5314845 432.6350313 122.91210938 433.09814453 C118.3755066 434.19404394 114.25515073 435.91557071 109.96875 437.7421875 C109.03588165 438.13346832 108.10301331 438.52474915 107.14187622 438.92788696 C104.07132433 440.21706974 101.00450351 441.51490107 97.9375 442.8125 C94.70830752 444.17016605 91.47813465 445.52548213 88.24795532 446.88079834 C86.02089376 447.81547068 83.7941521 448.75090558 81.56771851 449.68707275 C70.7491456 454.23478894 59.90737688 458.72554897 49.05883789 463.20123291 C46.11888637 464.41423539 43.17951439 465.62863315 40.24023438 466.84326172 C38.42321165 467.59350819 36.60615609 468.34367516 34.7890625 469.09375 C33.9867923 469.42525055 33.18452209 469.7567511 32.35794067 470.09829712 C26.73337535 472.41743979 21.09006188 474.68750065 15.4375 476.9375 C15.36273438 477.90429688 15.28796875 478.87109375 15.2109375 479.8671875 C14.24972373 489.38508857 12.69664003 496.91931658 5.4765625 503.80859375 C-2.534612 510.2083251 -10.56910908 510.65867254 -20.5625 509.9375 C-27.54618919 508.60780558 -32.68606432 504.56728788 -37.0390625 499.07421875 C-39.3717964 495.45234243 -40.58217263 492.88198689 -40.49072266 488.49145508 C-40.40433826 484.22698211 -40.4143065 480.70060295 -42.5625 476.9375 C-48.24893956 472.05739177 -56.18028515 470.01850505 -63.125 467.5625 C-65.20792964 466.77425211 -67.28840265 465.97948412 -69.36645508 465.1784668 C-73.64221504 463.53632576 -77.92734549 461.92346754 -82.22167969 460.33056641 C-90.96851833 457.06169554 -99.56933306 453.4527254 -108.17477417 449.83148193 C-110.66190355 448.78699665 -113.1523976 447.75112948 -115.64477539 446.71923828 C-116.82114815 446.23203308 -116.82114815 446.23203308 -118.02128601 445.73498535 C-119.55951297 445.09875088 -121.09816917 444.46355304 -122.63728333 443.82946777 C-126.70717644 442.14680148 -130.75256718 440.42080513 -134.77978516 438.63818359 C-135.64050125 438.26199387 -136.50121735 437.88580414 -137.38801575 437.49821472 C-139.03862777 436.77527613 -140.68469816 436.0418469 -142.32524109 435.29634094 C-147.79339495 432.88036945 -147.79339495 432.88036945 -153.5625 433.9375 C-155.43281969 435.44605823 -155.43281969 435.44605823 -157.125 437.3125 C-162.78038217 442.45857946 -169.16847425 444.12036031 -176.75390625 443.8046875 C-186.12336305 442.5147748 -192.01021109 439.34369574 -198.0546875 432.01171875 C-202.3242924 426.13824673 -203.97643163 419.6563206 -203.34765625 412.48828125 C-202.20774741 405.39913392 -199.58461608 399.6414986 -194.1875 394.8125 C-193.65125 394.19375 -193.115 393.575 -192.5625 392.9375 C-192.94855874 387.82938867 -194.80232614 383.4797117 -196.78125 378.82421875 C-197.11104858 378.03391266 -197.44084717 377.24360657 -197.78063965 376.42935181 C-198.86876735 373.82541913 -199.96568596 371.22528431 -201.0625 368.625 C-201.82750009 366.79805359 -202.5918122 364.97081896 -203.35546875 363.14331055 C-204.94913397 359.3310609 -206.54578421 355.52008207 -208.14453125 351.70996094 C-211.61242129 343.43906409 -215.04541537 335.15371556 -218.47781372 326.86804199 C-219.55414752 324.27015988 -220.63134512 321.67263743 -221.70874023 319.07519531 C-226.69763442 307.04459954 -231.65568031 295.00184584 -236.5625 282.9375 C-237.52929688 282.86273438 -238.49609375 282.78796875 -239.4921875 282.7109375 C-249.01008857 281.74972373 -256.54431658 280.19664003 -263.43359375 272.9765625 C-269.7815977 265.03014029 -270.46596292 256.87559211 -269.5625 246.9375 C-267.56362938 239.47144813 -263.19861467 233.3897954 -256.6875 229.1875 C-252.35389659 226.83157242 -249.19407016 226.98057887 -244.328125 227.08203125 C-241.42196299 226.86668084 -239.10759679 226.38977217 -236.5625 224.9375 C-231.68246304 219.25099107 -229.64350688 211.31972002 -227.1875 204.375 C-226.39925211 202.29207036 -225.60448412 200.21159735 -224.8034668 198.13354492 C-223.16132576 193.85778496 -221.54846754 189.57265451 -219.95556641 185.27832031 C-216.68669554 176.53148167 -213.0777254 167.93066694 -209.45648193 159.32522583 C-208.41199665 156.83809645 -207.37612948 154.3476024 -206.34423828 151.85522461 C-206.01943481 151.0709761 -205.69463135 150.2867276 -205.35998535 149.47871399 C-204.72375088 147.94048703 -204.08855304 146.40183083 -203.45446777 144.86271667 C-201.77180148 140.79282356 -200.04580513 136.74743282 -198.26318359 132.72021484 C-197.88699387 131.85949875 -197.51080414 130.99878265 -197.12321472 130.11198425 C-196.40027613 128.46137223 -195.6668469 126.81530184 -194.92134094 125.17475891 C-192.51368426 119.70909732 -192.51368426 119.70909732 -193.5625 113.9375 C-194.83181625 112.1249554 -194.83181625 112.1249554 -196.4375 110.5625 C-201.2465287 105.22297892 -203.5625 99.15933132 -203.5625 91.9375 C-202.55681456 81.94350091 -198.82963029 75.11844103 -191.17578125 68.6796875 C-184.69528889 64.35935926 -177.86632796 63.46227532 -170.25 64.5 C-163.86806711 65.86636683 -159.47409615 67.83940667 -155 72.75 C-154.195625 73.471875 -153.39125 74.19375 -152.5625 74.9375 C-147.47052093 74.62544886 -143.08373938 72.6887591 -138.44921875 70.71875 C-137.65891266 70.38895142 -136.86860657 70.05915283 -136.05435181 69.71936035 C-133.45041913 68.63123265 -130.85028431 67.53431404 -128.25 66.4375 C-126.42305359 65.67249991 -124.59581896 64.9081878 -122.76831055 64.14453125 C-118.9560609 62.55086603 -115.14508207 60.95421579 -111.33496094 59.35546875 C-103.06406409 55.88757871 -94.77871556 52.45458463 -86.49304199 49.02218628 C-83.89515988 47.94585248 -81.29763743 46.86865488 -78.70019531 45.79125977 C-66.66959954 40.80236558 -54.62684584 35.84431969 -42.5625 30.9375 C-42.48773438 29.97070312 -42.41296875 29.00390625 -42.3359375 28.0078125 C-41.37472373 18.48991143 -39.82164003 10.95568342 -32.6015625 4.06640625 C-23.53562257 -3.17592507 -10.67662918 -4.9251825 0 0 Z M-27.375 15.625 C-30.12176112 19.78438112 -30.8561717 22.98826813 -30.5625 27.9375 C-28.82187288 33.73959039 -25.96141465 37.90243556 -20.703125 41.05078125 C-16.2532669 42.89406189 -11.04388251 42.76306393 -6.49609375 41.25 C-2.16631033 39.00561982 0.31482371 36.26449398 2.4375 31.9375 C3.6507972 27.35207336 3.68260042 23.84130779 2.4375 19.25 C-0.28464586 14.74144592 -3.8225029 11.30749855 -8.5625 8.9375 C-17.027738 8.00875986 -21.19738047 9.72194134 -27.375 15.625 Z M-37.5625 40.9375 C-38.47273926 41.32268799 -39.38297852 41.70787598 -40.32080078 42.10473633 C-60.93097349 50.82212386 -81.57891651 59.44270344 -102.26916504 67.96832275 C-117.40398502 74.2057394 -132.51035395 80.50274084 -147.5625 86.9375 C-147.63380127 88.25053101 -147.63380127 88.25053101 -147.70654297 89.59008789 C-147.78018066 90.74758545 -147.85381836 91.90508301 -147.9296875 93.09765625 C-147.99784668 94.24113525 -148.06600586 95.38461426 -148.13623047 96.56274414 C-148.98852242 103.31029951 -151.94249445 108.7849949 -156.9375 113.375 C-162.67502957 117.71492621 -167.18763774 119.02747504 -174.3046875 119.51171875 C-175.47628418 119.59381592 -176.64788086 119.67591309 -177.85498047 119.76049805 C-178.74846191 119.81890869 -179.64194336 119.87731934 -180.5625 119.9375 C-187.99654524 137.05164851 -195.19456975 154.2522747 -202.25219727 171.5246582 C-208.1943827 186.06490932 -214.20756269 200.5750994 -220.24291992 215.0769043 C-220.93148287 216.73355912 -221.62004107 218.39021591 -222.30859375 220.046875 C-222.62447449 220.80436539 -222.94035522 221.56185577 -223.26580811 222.34230042 C-224.44824504 225.18849388 -225.58748373 228.01245119 -226.5625 230.9375 C-225.2321875 231.865625 -225.2321875 231.865625 -223.875 232.8125 C-218.39053269 237.42621065 -215.56511772 243.98191187 -214.625 251 C-214.17018733 260.09625348 -216.73537453 266.92419123 -222.5625 273.9375 C-224.0475 274.9275 -224.0475 274.9275 -225.5625 275.9375 C-224.9444573 281.3937779 -223.09166677 285.95954065 -220.9765625 290.96875 C-220.60761368 291.85695435 -220.23866486 292.74515869 -219.85853577 293.66027832 C-218.64069637 296.58848997 -217.41409157 299.51294505 -216.1875 302.4375 C-215.33503873 304.48280019 -214.48324196 306.52837747 -213.63208008 308.57421875 C-211.85209969 312.85130378 -210.06921461 317.12716209 -208.28466797 321.40234375 C-205.60227377 327.83461679 -202.94053934 334.27528626 -200.28515625 340.71875 C-199.6475235 342.26568542 -199.6475235 342.26568542 -198.99700928 343.84387207 C-197.34842073 347.84409226 -195.70025242 351.84448547 -194.05230713 355.8449707 C-189.63024258 366.5753979 -185.17686515 377.28810455 -180.5625 387.9375 C-179.66716553 387.96255615 -178.77183105 387.9876123 -177.84936523 388.01342773 C-169.25074315 388.31684603 -162.27714907 389.74226142 -155.71875 395.578125 C-150.31675312 401.45676866 -148.522625 406.82630506 -147.98828125 414.6796875 C-147.90618408 415.85128418 -147.82408691 417.02288086 -147.73950195 418.22998047 C-147.68109131 419.12346191 -147.62268066 420.01694336 -147.5625 420.9375 C-125.01066127 430.48081218 -102.41999272 439.92534664 -79.77539062 449.24658203 C-63.4460661 455.96983371 -63.4460661 455.96983371 -55.453125 459.36328125 C-54.32116699 459.8423291 -53.18920898 460.32137695 -52.02294922 460.81494141 C-50.04798643 461.65349579 -48.07540582 462.49769703 -46.10595703 463.34912109 C-45.27435059 463.70184082 -44.44274414 464.05456055 -43.5859375 464.41796875 C-42.89419434 464.71598389 -42.20245117 465.01399902 -41.48974609 465.32104492 C-39.26476474 466.14060501 -39.26476474 466.14060501 -35.5625 465.9375 C-35.02625 465.215625 -34.49 464.49375 -33.9375 463.75 C-29.49992575 458.49497786 -23.26367368 455.89689901 -16.5 455 C-7.40374652 454.54518733 -0.57580877 457.11037453 6.4375 462.9375 C7.4275 464.4225 7.4275 464.4225 8.4375 465.9375 C13.3374448 465.32993153 17.59284828 463.83758331 22.11328125 461.9375 C22.85892334 461.63003342 23.60456543 461.32256683 24.37280273 461.00578308 C26.83439451 459.98900773 29.29216723 458.96332478 31.75 457.9375 C33.48504315 457.2186087 35.22031762 456.5002755 36.95581055 455.7824707 C40.59830847 454.27466455 44.23920755 452.7630856 47.87890625 451.24853516 C53.32202483 448.98402707 58.76992887 446.73121365 64.21875 444.48046875 C82.99550578 436.72004046 101.7471502 428.90409404 120.4375 420.9375 C120.48503418 420.062146 120.53256836 419.18679199 120.58154297 418.28491211 C120.65518066 417.12741455 120.72881836 415.96991699 120.8046875 414.77734375 C120.87284668 413.63386475 120.94100586 412.49038574 121.01123047 411.31225586 C121.86352242 404.56470049 124.81749445 399.0900051 129.8125 394.5 C135.55002957 390.16007379 140.06263774 388.84752496 147.1796875 388.36328125 C148.93708252 388.2401355 148.93708252 388.2401355 150.72998047 388.11450195 C151.62346191 388.05609131 152.51694336 387.99768066 153.4375 387.9375 C160.87163801 370.82313792 168.07733437 353.62495178 175.125 336.34814453 C178.78883696 327.37095714 182.48599826 318.40937607 186.23828125 309.46875 C187.03109997 307.57515333 187.82382561 305.68151769 188.61645508 303.7878418 C189.76920292 301.03409044 190.92421345 298.28141723 192.08700562 295.53189087 C193.15798663 292.99908694 194.22041108 290.4628462 195.28125 287.92578125 C195.60229202 287.17345215 195.92333405 286.42112305 196.25410461 285.64599609 C197.71456576 282.13188139 198.4375 279.80168211 198.4375 275.9375 C197.715625 275.40125 196.99375 274.865 196.25 274.3125 C190.99497786 269.87492575 188.39689901 263.63867368 187.5 256.875 C187.0398171 247.671342 189.7134024 241.09946901 195.4375 233.9375 C196.76272819 232.59611049 198.0951321 231.26173713 199.4375 229.9375 C198.85971802 228.57214111 198.85971802 228.57214111 198.27026367 227.17919922 C189.55287614 206.56902651 180.93229656 185.92108349 172.40667725 165.23083496 C166.1692606 150.09601498 159.87225916 134.98964605 153.4375 119.9375 C152.12446899 119.86619873 152.12446899 119.86619873 150.78491211 119.79345703 C149.62741455 119.71981934 148.46991699 119.64618164 147.27734375 119.5703125 C146.13386475 119.50215332 144.99038574 119.43399414 143.81225586 119.36376953 C137.06470049 118.51147758 131.5900051 115.55750555 127 110.5625 C122.66007379 104.82497043 121.34752496 100.31236226 120.86328125 93.1953125 C120.78118408 92.02371582 120.69908691 90.85211914 120.61450195 89.64501953 C120.55609131 88.75153809 120.49768066 87.85805664 120.4375 86.9375 C103.20382736 79.45153586 85.88123946 72.20863461 68.48779297 65.1027832 C55.28426284 59.7070352 42.11328538 54.23607082 28.95898438 48.72143555 C27.88420082 48.27181458 27.88420082 48.27181458 26.78770447 47.81311035 C25.47024944 47.26196664 24.1532731 46.70967635 22.83692932 46.15588379 C18.40832998 44.30451135 13.9382781 42.60308859 9.4375 40.9375 C8.509375 42.2678125 8.509375 42.2678125 7.5625 43.625 C3.14264646 48.89386496 -3.32299849 51.84734551 -10.0625 52.875 C-19.33283101 53.39727217 -26.40144037 50.76108546 -33.5625 44.9375 C-34.90320474 43.61157905 -36.23747596 42.27909116 -37.5625 40.9375 Z M-188.375 81.9375 C-191.93271484 86.81665178 -192.10393324 91.09202629 -191.5625 96.9375 C-189.73715409 102.21072153 -186.95530797 104.73441086 -182.5625 107.9375 C-177.97187391 109.4677087 -173.18709862 109.8788765 -168.55859375 108.21875 C-163.59966326 105.56256261 -160.33925083 102.2677525 -158.5625 96.9375 C-157.99865871 91.24487162 -158.25530094 86.78805862 -161.5625 81.9375 C-165.57608723 77.89101452 -169.12943903 75.80657898 -174.875 75.6875 C-180.72232626 75.78227028 -184.52319116 77.52602663 -188.375 81.9375 Z M134.625 81.9375 C131.10350478 86.76697916 130.74183632 91.1306407 131.4375 96.9375 C133.17303773 101.77625464 136.18385365 105.10173577 140.4375 107.9375 C145.6046159 109.65987197 150.54349758 109.59311622 155.6875 107.8125 C159.8671989 104.9627053 162.80614324 101.83157029 164.4375 96.9375 C165.00134129 91.24487162 164.74469906 86.78805862 161.4375 81.9375 C157.42391277 77.89101452 153.87056097 75.80657898 148.125 75.6875 C142.27767374 75.78227028 138.47680884 77.52602663 134.625 81.9375 Z M-253.29296875 241.62890625 C-257.69955089 246.64257097 -258.92674374 249.6917331 -258.83984375 256.40234375 C-258.28325433 261.49004137 -255.27319772 264.19374657 -251.875 267.75 C-247.71561888 270.49676112 -244.51173187 271.2311717 -239.5625 270.9375 C-233.76430576 269.19804173 -229.58791026 266.33933344 -226.453125 261.07421875 C-224.52625782 256.45142775 -224.62762965 251.23604487 -226.5078125 246.61328125 C-228.85894153 242.61340451 -231.13439915 239.64835715 -235.5625 237.9375 C-242.30400175 236.32208354 -248.03044067 236.48517113 -253.29296875 241.62890625 Z M201.83203125 242.63671875 C198.64638866 247.03593947 197.65784145 251.06968863 197.94921875 256.47265625 C198.98526035 261.70259426 201.70018465 265.44147845 205.6875 268.875 C211.0300283 270.93915866 215.57088882 271.44369964 221.125 269.9375 C225.63355408 267.21535414 229.06750145 263.6774971 231.4375 258.9375 C231.97499296 254.03838383 232.00424874 250.0927955 229.8125 245.625 C224.27383625 239.35192636 224.27383625 239.35192636 216.5625 236.875 C210.44099865 236.58043151 206.06050698 238.16132473 201.83203125 242.63671875 Z M-188.375 404.9375 C-191.93271484 409.81665178 -192.10393324 414.09202629 -191.5625 419.9375 C-189.73715409 425.21072153 -186.95530797 427.73441086 -182.5625 430.9375 C-177.3953841 432.65987197 -172.45650242 432.59311622 -167.3125 430.8125 C-163.1328011 427.9627053 -160.19385676 424.83157029 -158.5625 419.9375 C-157.78735699 413.38055257 -158.68537083 409.28165102 -162.5625 403.9375 C-167.29699552 399.54943098 -171.00845957 398.62483322 -177.28515625 398.7265625 C-182.15791469 399.17789862 -185.24835024 401.3565507 -188.375 404.9375 Z M134.0625 405.5 C130.97505857 410.13116214 130.93821941 414.54711885 131.4375 419.9375 C133.26284591 425.21072153 136.04469203 427.73441086 140.4375 430.9375 C145.6046159 432.65987197 150.54349758 432.59311622 155.6875 430.8125 C159.8671989 427.9627053 162.80614324 424.83157029 164.4375 419.9375 C165.00134129 414.24487162 164.74469906 409.78805862 161.4375 404.9375 C157.4584786 400.92586367 153.88337432 398.81419862 148.1875 398.625 C142.00464637 398.70542736 138.29438445 400.93401941 134.0625 405.5 Z M-28.5 473.1875 C-30.56415866 478.5300283 -31.06869964 483.07088882 -29.5625 488.625 C-26.84035414 493.13355408 -23.3024971 496.56750145 -18.5625 498.9375 C-13.66338383 499.47499296 -9.7177955 499.50424874 -5.25 497.3125 C-0.88142291 493.45189699 2.50114093 490.42020572 3.4375 484.5 C3.77566674 478.58208198 1.85812715 474.57668517 -2 470.125 C-6.56770691 466.225738 -10.0269316 465.43205619 -15.95703125 465.5546875 C-21.28943022 466.33815841 -25.0461698 469.17660042 -28.5 473.1875 Z " fill="#008FEF" transform="translate(269.5625,2.0625)"/>
<path d="M0 0 C0.7891127 -0.0033284 1.5782254 -0.0066568 2.39125061 -0.01008606 C4.06152767 -0.01515223 5.73181487 -0.01749448 7.40209961 -0.01733398 C9.9589911 -0.01951957 12.51545057 -0.03767571 15.07226562 -0.05664062 C16.69400894 -0.05957477 18.3157543 -0.06155943 19.9375 -0.0625 C21.08604713 -0.07327827 21.08604713 -0.07327827 22.25779724 -0.08427429 C26.05843398 -0.06789882 27.7942896 0.00739099 31.03515625 2.16796875 C31.35165135 5.04090287 31.47915543 7.69404115 31.46875 10.5703125 C31.47399185 11.40381729 31.4792337 12.23732208 31.4846344 13.09608459 C31.49106334 14.86051315 31.48970633 16.62498452 31.48120117 18.3894043 C31.47269938 21.0917592 31.50142477 23.79199526 31.53320312 26.49414062 C31.53481538 28.20703061 31.53423713 29.91992436 31.53125 31.6328125 C31.54248398 32.44225815 31.55371796 33.2517038 31.56529236 34.0856781 C31.49613 39.64543353 31.49613 39.64543353 29.20336914 42.24438477 C27.03515625 43.16796875 27.03515625 43.16796875 23.84765625 42.48046875 C21.03515625 41.16796875 21.03515625 41.16796875 20.03515625 39.16796875 C19.88510652 37.79450525 19.78677619 36.41511615 19.71875 35.03515625 C19.6559082 33.82666016 19.6559082 33.82666016 19.59179688 32.59375 C19.55248047 31.75199219 19.51316406 30.91023438 19.47265625 30.04296875 C19.42947266 29.19347656 19.38628906 28.34398437 19.34179688 27.46875 C19.23561389 25.36868652 19.13487128 23.26834927 19.03515625 21.16796875 C11.53943501 28.43203902 4.07090146 35.722865 -3.3640995 43.04910278 C-6.81734603 46.45014873 -10.2792733 49.84127085 -13.76269531 53.21142578 C-17.12384679 56.46395828 -20.46000141 59.74029183 -23.78022385 63.03457642 C-25.05144468 64.28731272 -26.33143922 65.53120946 -27.62013626 66.76596069 C-29.42392717 68.49718318 -31.19397359 70.25720499 -32.95947266 72.02734375 C-33.76974663 72.78368858 -33.76974663 72.78368858 -34.59638977 73.55531311 C-36.28669626 75.18635479 -36.28669626 75.18635479 -37.96484375 78.16796875 C-37.77942602 81.13983003 -36.97623019 83.31062331 -35.96484375 86.16796875 C-35.04319835 92.84453949 -36.27340321 98.5070725 -39.96484375 104.16796875 C-44.54024083 109.27878463 -49.09342485 112.67627413 -56.0546875 113.37890625 C-63.15832254 113.69462336 -68.35512918 111.92450741 -74.21484375 107.98046875 C-78.91007987 103.17852272 -81.30269183 98.06064759 -82.07128906 91.328125 C-81.96484375 89.16796875 -81.96484375 89.16796875 -81.06933594 86.8515625 C-79.89525896 83.63053456 -79.55134923 81.59619991 -79.96484375 78.16796875 C-83.26189546 72.58875387 -88.60939575 68.31110337 -93.33984375 63.98046875 C-94.65267053 62.73289471 -95.96260434 61.48226886 -97.26953125 60.22851562 C-100.46889274 57.1719897 -103.70502907 54.15988386 -106.96484375 51.16796875 C-108.06570312 51.49249023 -109.1665625 51.81701172 -110.30078125 52.15136719 C-113.41101629 53.0143082 -115.77663336 53.43894382 -118.96484375 53.41796875 C-119.74859375 53.423125 -120.53234375 53.42828125 -121.33984375 53.43359375 C-124.68889739 53.09470142 -127.74178053 52.11809307 -130.96484375 51.16796875 C-131.41284143 51.62149719 -131.86083912 52.07502563 -132.32241249 52.54229736 C-143.22278753 63.57516206 -154.13968953 74.59136069 -165.0752964 85.58929443 C-170.36327734 90.90821714 -175.64550223 96.23262883 -180.91455078 101.5703125 C-185.50692537 106.2224791 -190.10974022 110.86401203 -194.72541273 115.4930687 C-197.16920049 117.94468056 -199.60742615 120.40130125 -202.0332222 122.87072754 C-204.741033 125.6268426 -207.47209735 128.35916215 -210.20556641 131.08984375 C-211.00685974 131.91270874 -211.80815308 132.73557373 -212.63372803 133.58337402 C-218.13019531 139.01928945 -218.13019531 139.01928945 -222.39120483 139.77832031 C-224.96484375 139.16796875 -224.96484375 139.16796875 -226.90234375 137.48046875 C-228.26762864 134.50896635 -227.89724989 133.26928079 -226.96484375 130.16796875 C-225.48029137 128.21077824 -225.48029137 128.21077824 -223.53500366 126.30421448 C-222.80015244 125.57398071 -222.06530121 124.84374695 -221.30818176 124.09138489 C-220.49669174 123.30527328 -219.68520172 122.51916168 -218.84912109 121.70922852 C-217.99880814 120.8695755 -217.14849518 120.02992249 -216.27241516 119.16482544 C-213.94238924 116.8666672 -211.60397033 114.57743277 -209.26268721 112.29075742 C-206.81468247 109.89386525 -204.38076043 107.48278179 -201.94619751 105.07225037 C-194.1771282 97.38494175 -186.38758153 89.71850698 -178.58456862 82.06565946 C-173.45538425 77.03513011 -168.33628198 71.99481179 -163.23595202 66.93501514 C-160.8139709 64.53361297 -158.38547549 62.13966881 -155.94059372 59.76156807 C-153.21836941 57.10870965 -150.51811201 54.43523446 -147.82177734 51.75610352 C-147.00623886 50.97201614 -146.19070038 50.18792877 -145.35044861 49.38008118 C-141.03467032 45.33952722 -141.03467032 45.33952722 -139.95889282 39.82798767 C-140.45683853 38.51127831 -140.45683853 38.51127831 -140.96484375 37.16796875 C-141.54703082 29.47546417 -141.88415865 22.48252793 -136.96484375 16.16796875 C-132.60483999 11.54967093 -128.36375243 8.54224038 -121.9140625 7.83203125 C-115.062023 7.7499709 -109.5395025 7.89097403 -103.96484375 12.16796875 C-98.73787161 17.39494089 -95.83252685 22.735416 -95.65234375 30.16796875 C-95.67337093 34.42947677 -96.76651942 38.09384494 -97.96484375 42.16796875 C-94.40697272 46.09856184 -90.80101227 49.97560432 -87.14331055 53.81347656 C-85.90842464 55.1234929 -84.68736805 56.44669743 -83.48120117 57.78320312 C-76.78248437 65.78129079 -76.78248437 65.78129079 -67.59130859 69.48730469 C-64.34975266 68.97082564 -64.34975266 68.97082564 -61.47729492 67.88037109 C-57.56405008 67.08667898 -56.15545807 67.69621248 -52.42016602 68.828125 C-48.07514692 69.63407135 -46.50854098 69.50601333 -42.70439148 67.14077759 C-38.97909419 63.99021911 -35.66428068 60.44252339 -32.32421875 56.89453125 C-31.06650635 55.61068346 -29.80564947 54.32990926 -28.54180908 53.05209351 C-25.23514189 49.69215285 -21.97267162 46.29233517 -18.71783447 42.88226318 C-15.38458742 39.4053951 -12.01098866 35.96817547 -8.640625 32.52734375 C-2.0420652 25.77896076 4.51045547 18.98773488 11.03515625 12.16796875 C10.43977051 12.15338623 9.84438477 12.13880371 9.23095703 12.1237793 C6.54002574 12.04942531 3.85035292 11.95272688 1.16015625 11.85546875 C0.22300781 11.83291016 -0.71414063 11.81035156 -1.6796875 11.78710938 C-2.57558594 11.75166016 -3.47148437 11.71621094 -4.39453125 11.6796875 C-5.22194824 11.65350342 -6.04936523 11.62731934 -6.90185547 11.6003418 C-8.96484375 11.16796875 -8.96484375 11.16796875 -10.96484375 8.16796875 C-10.71484375 4.54296875 -10.71484375 4.54296875 -9.96484375 1.16796875 C-6.8201458 -0.40438023 -3.4526734 0.00500469 0 0 Z M-127.96484375 23.16796875 C-130.56411781 26.59428456 -130.53125506 29.99068534 -129.96484375 34.16796875 C-128.05274845 37.71799863 -125.78463995 40.42777387 -121.99609375 41.96875 C-118.12019574 42.70666135 -116.25569813 42.31065203 -112.65234375 40.54296875 C-109.88590967 38.09821305 -108.29420678 36.60867306 -106.96484375 33.16796875 C-106.96484375 28.07495346 -107.13321626 26.17018649 -110.40234375 22.23046875 C-116.47916427 17.33936931 -122.08003827 18.24115486 -127.96484375 23.16796875 Z M-68.96484375 84.16796875 C-70.18247106 87.82085068 -70.35560226 90.32551011 -69.96484375 94.16796875 C-68.22624166 97.22790843 -65.88263333 99.46433007 -63.08984375 101.60546875 C-59.75868449 102.4872462 -57.28765491 101.98409781 -53.96484375 101.16796875 C-51.00991406 99.32934583 -49.36471712 97.84048306 -47.58984375 94.85546875 C-46.74389647 91.21789546 -46.99798397 88.7775786 -47.96484375 85.16796875 C-51.42625154 81.08528264 -53.38302865 79.32615026 -58.71484375 78.79296875 C-63.62532898 78.83769084 -65.63516514 80.67586679 -68.96484375 84.16796875 Z " fill="#0095F0" transform="translate(353.96484375,152.83203125)"/>
<path d="M0 0 C3.5 -0.3125 3.5 -0.3125 7 0 C9.62599312 2.62599312 9.25322128 3.76551102 9.26069641 7.42810059 C9.26778122 8.5806987 9.27486603 9.73329681 9.28216553 10.92082214 C9.27968811 12.19154068 9.27721069 13.46225922 9.2746582 14.77148438 C9.2790036 16.11827376 9.28418617 17.46506066 9.29014587 18.81184387 C9.30356478 22.47499378 9.30411143 26.1380407 9.30158257 29.8012104 C9.30051496 32.85559916 9.30539077 35.90996691 9.310188 38.96435118 C9.32129288 46.16749351 9.32171489 53.37058371 9.31567383 60.57373047 C9.30963008 68.01395779 9.32195288 75.45399619 9.3432439 82.89419127 C9.36083359 89.27468942 9.36686549 95.6551273 9.36360615 102.03564882 C9.36178915 105.84976109 9.3644708 109.66373857 9.37832069 113.47782898 C9.39085207 117.06311066 9.38899997 120.64809676 9.37590981 124.23337364 C9.37239831 126.1819828 9.38375604 128.13060079 9.39547729 130.07917786 C9.38846298 131.23177597 9.38144867 132.38437408 9.3742218 133.57189941 C9.37438954 134.5777433 9.37455729 135.58358719 9.37473011 136.61991119 C9.25106917 137.4053405 9.12740824 138.19076981 9 139 C5.77856724 141.14762184 4.7404533 141.561068 1 141 C-1.99493273 137.92468133 -2.37494292 135.66748816 -2.3742218 131.45201111 C-2.38123611 130.32335129 -2.38825043 129.19469147 -2.39547729 128.03182983 C-2.38783356 126.79792511 -2.38018982 125.56402039 -2.37231445 124.29272461 C-2.37596512 122.98998093 -2.37961578 121.68723724 -2.38337708 120.34501648 C-2.39277912 116.7748192 -2.38336709 113.2048964 -2.37004495 109.63472056 C-2.35872695 105.89918525 -2.36283816 102.16366338 -2.36479187 98.42811584 C-2.36567463 92.1560518 -2.35459742 85.88409588 -2.33618164 79.61206055 C-2.31500504 72.35815678 -2.31150619 65.1044113 -2.3177436 57.85048288 C-2.32343549 50.87405615 -2.31779427 43.89768523 -2.30657005 36.92126656 C-2.30192267 33.95122815 -2.3010508 30.98122385 -2.3031559 28.01118279 C-2.30538687 23.86666421 -2.29093978 19.722368 -2.2746582 15.57788086 C-2.27713562 14.3419519 -2.27961304 13.10602295 -2.28216553 11.8326416 C-2.27508072 10.70680161 -2.26799591 9.58096161 -2.26069641 8.42100525 C-2.25761711 6.95070311 -2.25761711 6.95070311 -2.25447559 5.4506979 C-2 3 -2 3 0 0 Z " fill="#0075E9" transform="translate(376,218)"/>
<path d="M0 0 C1.670625 0.4021875 1.670625 0.4021875 3.375 0.8125 C4.55786666 3.17823333 4.50578374 4.60776795 4.51544189 7.24681091 C4.52400711 8.64538834 4.52400711 8.64538834 4.53274536 10.07221985 C4.53386322 11.09824814 4.53498108 12.12427643 4.53613281 13.18139648 C4.54109772 14.25951599 4.54606262 15.3376355 4.55117798 16.44842529 C4.56582355 20.02682119 4.57260503 23.60517277 4.578125 27.18359375 C4.58387376 29.66219586 4.58963152 32.14079795 4.59539795 34.61940002 C4.60591427 39.82056893 4.61175304 45.02172234 4.61523438 50.22290039 C4.61900376 55.57257203 4.63310634 60.92210628 4.65625 66.27172852 C4.68371663 72.71902554 4.69663876 79.16618863 4.69857025 85.61354256 C4.70160514 88.075604 4.70966159 90.53766442 4.72275543 92.99969292 C4.73973849 96.4380242 4.73795468 99.87585323 4.73144531 103.31420898 C4.7406601 104.33821304 4.74987488 105.3622171 4.7593689 106.41725159 C4.75379974 107.35245636 4.74823059 108.28766113 4.74249268 109.25120544 C4.74395924 110.0643946 4.7454258 110.87758375 4.7469368 111.715415 C4.28211557 114.33620871 3.47468384 115.22051663 1.375 116.8125 C-1.125 117.1875 -1.125 117.1875 -3.625 116.8125 C-5.72132274 115.22170596 -6.53098653 114.33403488 -7.00252342 111.71820831 C-7.0036545 110.90631798 -7.00478558 110.09442764 -7.00595093 109.25793457 C-7.0144104 108.32417496 -7.02286987 107.39041534 -7.03158569 106.42835999 C-7.025513 105.40592697 -7.01944031 104.38349396 -7.01318359 103.33007812 C-7.01844055 102.25181259 -7.02369751 101.17354706 -7.02911377 100.06260681 C-7.04234447 96.48950827 -7.03356454 92.91685327 -7.0234375 89.34375 C-7.02545734 86.86657628 -7.02836803 84.38940313 -7.03213501 81.91223145 C-7.03713014 76.05095933 -7.02661314 70.18984885 -7.0106827 64.32860041 C-6.9994185 59.65178142 -7.00340205 54.97515179 -7.01611328 50.29833984 C-7.03347313 43.85634354 -7.03624352 37.41453061 -7.0264473 30.97251892 C-7.02444206 28.51325946 -7.02691585 26.05399223 -7.03388596 23.59474182 C-7.041481 20.16125661 -7.02992294 16.72836288 -7.01318359 13.29492188 C-7.02229263 11.76127235 -7.02229263 11.76127235 -7.03158569 10.19664001 C-7.02312622 9.2628804 -7.01466675 8.32912079 -7.00595093 7.36706543 C-7.00481985 6.55517509 -7.00368877 5.74328476 -7.00252342 4.90679169 C-6.20452326 0.479927 -4.2909111 -0.22194368 0 0 Z " fill="#008FEE" transform="translate(215.625,242.1875)"/>
<path d="M0 0 C3.5 0.25 3.5 0.25 5.5 2.25 C5.75447559 4.19000912 5.75447559 4.19000912 5.76069641 6.60838318 C5.76778122 7.52393982 5.77486603 8.43949646 5.78216553 9.38279724 C5.77968811 10.39012405 5.77721069 11.39745087 5.7746582 12.43530273 C5.77976913 13.4939151 5.78488007 14.55252747 5.79014587 15.64321899 C5.80409211 19.15673411 5.80308131 22.67005418 5.80078125 26.18359375 C5.80466541 28.6173561 5.8089995 31.05111776 5.81376648 33.48487854 C5.82123953 38.59191076 5.82092955 43.69887386 5.81567383 48.8059082 C5.80987782 55.36129001 5.82680838 61.91638941 5.8500185 68.47172451 C5.86472656 73.49963545 5.86563153 78.52747793 5.86250877 83.55540657 C5.86302346 85.97280499 5.86828866 88.3902071 5.87832069 90.80758476 C5.89061091 94.18367921 5.88393777 97.55921767 5.87231445 100.93530273 C5.87995819 101.94060532 5.88760193 102.9459079 5.89547729 103.98167419 C5.88846298 104.90005066 5.88144867 105.81842712 5.8742218 106.76463318 C5.87438954 107.56307364 5.87455729 108.36151411 5.87473011 109.18414974 C5.39899839 111.80681192 4.66200759 112.7166343 2.5 114.25 C-1.125 114.0625 -1.125 114.0625 -4.5 113.25 C-5.67538956 110.89922088 -5.6282188 109.50546006 -5.63371277 106.8848877 C-5.64011024 105.50938499 -5.64011024 105.50938499 -5.64663696 104.10609436 C-5.64595718 102.59274757 -5.64595718 102.59274757 -5.64526367 101.04882812 C-5.64862228 99.98860947 -5.6519809 98.92839081 -5.65544128 97.83604431 C-5.66497079 94.31776775 -5.66689529 90.79953867 -5.66796875 87.28125 C-5.67117955 84.84509257 -5.67454349 82.40893534 -5.67805481 79.97277832 C-5.68405082 74.86156771 -5.68589419 69.75037403 -5.68530273 64.63916016 C-5.685201 58.07477697 -5.69886309 51.51050168 -5.71607494 44.9461441 C-5.72716672 39.91399635 -5.72922283 34.88187492 -5.72869301 29.84971619 C-5.72987702 27.42870206 -5.73432215 25.00768734 -5.74202538 22.58668518 C-5.75176993 19.20810271 -5.74896936 15.82975777 -5.74291992 12.45117188 C-5.74853943 11.44227402 -5.75415894 10.43337616 -5.75994873 9.39390564 C-5.75575424 8.47690384 -5.75155975 7.55990204 -5.74723816 6.6151123 C-5.74778293 5.81575005 -5.74832769 5.01638779 -5.74888897 4.19280243 C-5.26118332 0.38582085 -3.57665469 0.25547534 0 0 Z " fill="#007AEA" transform="translate(338.5,244.75)"/>
<path d="M0 0 C1.17885982 3.53657947 1.15534409 6.74101129 1.16113281 10.42138672 C1.16609772 11.17457184 1.17106262 11.92775696 1.17617798 12.70376587 C1.19078452 15.19574904 1.19759886 17.68766856 1.203125 20.1796875 C1.20887743 21.91220095 1.21463515 23.64471437 1.22039795 25.37722778 C1.23090346 29.01044003 1.23674916 32.64363017 1.24023438 36.27685547 C1.24572001 40.92968779 1.26975131 45.58222761 1.29820633 50.23496819 C1.31683988 53.81406505 1.32203868 57.39309154 1.32357025 60.97223282 C1.32659539 62.687426 1.33461924 64.40261798 1.34775543 66.11776352 C1.36483215 68.51867624 1.36293203 70.91887521 1.35644531 73.31982422 C1.3656601 74.02649231 1.37487488 74.7331604 1.3843689 75.46124268 C1.34783393 79.78340134 0.74530774 82.61185978 -2 86 C-5 86.5625 -5 86.5625 -8 86 C-10.61655398 83.56183816 -10.99024635 82.09116969 -11.3742218 78.50205994 C-11.38896577 77.08470179 -11.38717649 75.66711278 -11.37231445 74.24975586 C-11.37596512 73.47370499 -11.37961578 72.69765411 -11.38337708 71.89808655 C-11.39147316 69.33678198 -11.37788181 66.77611187 -11.36328125 64.21484375 C-11.36276258 62.43412781 -11.36328054 60.6534113 -11.36479187 58.87269592 C-11.36470219 55.14282674 -11.35428089 51.41317391 -11.33618164 47.68334961 C-11.31347816 42.89922745 -11.31295382 38.11542095 -11.31969929 33.33125973 C-11.3230382 29.6552906 -11.31641091 25.97939363 -11.30657005 22.30343819 C-11.30271767 20.53916361 -11.30157 18.77488102 -11.3031559 17.01060295 C-11.30352616 14.54719577 -11.29091807 12.08419571 -11.2746582 9.62084961 C-11.27713562 8.88986053 -11.27961304 8.15887146 -11.28216553 7.4057312 C-11.24324817 3.71726703 -11.10303061 2.15454591 -9 -1 C-5.19881294 -2.26706235 -3.6149628 -1.57172296 0 0 Z " fill="#0085ED" transform="translate(261,273)"/>
<path d="M0 0 C1.7325 0.1546875 1.7325 0.1546875 3.5 0.3125 C5.91552242 3.93578363 5.75823534 5.62621758 5.7746582 9.93945312 C5.77976913 10.6080687 5.78488007 11.27668427 5.79014587 11.96556091 C5.80404292 14.17504838 5.80308529 16.38422403 5.80078125 18.59375 C5.80466772 20.12927364 5.80900229 21.66479621 5.81376648 23.20031738 C5.82122861 26.41824835 5.8209372 29.6360696 5.81567383 32.85400391 C5.80987474 36.980208 5.82682044 41.10596386 5.8500185 45.23209381 C5.86473989 48.40279776 5.86562982 51.5733933 5.86250877 54.74412537 C5.86302265 56.26558827 5.86827279 57.78705713 5.87832069 59.30848694 C5.89063941 61.43447139 5.88392233 63.5595768 5.87231445 65.68554688 C5.87294388 66.89561401 5.8735733 68.10568115 5.8742218 69.35241699 C5.5 72.3125 5.5 72.3125 4.20329285 74.23840332 C2.5 75.3125 2.5 75.3125 -1.125 75.125 C-2.23875 74.856875 -3.3525 74.58875 -4.5 74.3125 C-5.94413004 71.42423993 -5.63528761 68.91853642 -5.64526367 65.69140625 C-5.64862228 65.01157684 -5.6519809 64.33174744 -5.65544128 63.63131714 C-5.66495744 61.37919296 -5.66689459 59.12714305 -5.66796875 56.875 C-5.6711804 55.31323211 -5.67454441 53.75146452 -5.67805481 52.18969727 C-5.68404741 48.91454368 -5.68589453 45.63941649 -5.68530273 42.36425781 C-5.685201 38.16068186 -5.69886445 33.95727438 -5.71607494 29.7537384 C-5.72717369 26.52819028 -5.72922262 23.30268319 -5.72869301 20.07711792 C-5.72987591 18.52692076 -5.73431495 16.97672263 -5.74202538 15.42654419 C-5.75178447 13.26210593 -5.74896388 11.09803752 -5.74291992 8.93359375 C-5.74505745 7.08399048 -5.74505745 7.08399048 -5.74723816 5.19702148 C-5.37116825 0.8094232 -4.31992016 0.38570716 0 0 Z " fill="#0092EF" transform="translate(173.5,283.6875)"/>
<path d="M0 0 C1.63198853 1.14550781 1.63198853 1.14550781 3 3 C3.38095093 5.69433594 3.38095093 5.69433594 3.38818359 8.984375 C3.39764008 10.21575195 3.40709656 11.44712891 3.4168396 12.71582031 C3.41146989 14.06055014 3.40531694 15.40527704 3.3984375 16.75 C3.40045847 18.1285823 3.4033701 19.50716355 3.40713501 20.88574219 C3.41155735 23.77419214 3.40513058 26.66236367 3.39111328 29.55078125 C3.37402099 33.25329754 3.38386272 36.95516146 3.40183067 40.65765381 C3.41267121 43.50411902 3.40922103 46.35042955 3.4014473 49.19689941 C3.39944601 50.56205319 3.40190208 51.92722102 3.40888596 53.2923584 C3.4165039 55.2001112 3.40283406 57.10791324 3.38818359 59.015625 C3.38579681 60.10133789 3.38341003 61.18705078 3.38095093 62.30566406 C3 65 3 65 1.70230103 66.88964844 C0 68 0 68 -3.625 67.75 C-7 67 -7 67 -8 66 C-8.10981194 64.01671573 -8.1491169 62.02949856 -8.16113281 60.04321289 C-8.17074036 58.76841568 -8.1803479 57.49361847 -8.19024658 56.18019104 C-8.19509366 54.77768125 -8.19937271 53.3751694 -8.203125 51.97265625 C-8.20887365 50.54398088 -8.21463141 49.11530555 -8.22039795 47.68663025 C-8.23091616 44.68797444 -8.23675356 41.6893455 -8.24023438 38.69067383 C-8.24572342 34.84234191 -8.2697563 30.99436306 -8.29820633 27.14614201 C-8.31680043 24.19423881 -8.32203655 21.24242123 -8.32357025 18.2904644 C-8.32660424 16.87143458 -8.33465779 15.45240653 -8.34775543 14.03343391 C-8.36474808 12.0510872 -8.36110076 10.06859572 -8.35644531 8.08618164 C-8.36009094 6.95668594 -8.36373657 5.82719025 -8.36749268 4.66346741 C-8.24622009 3.78452316 -8.12494751 2.90557892 -8 2 C-4.76746204 -0.15502531 -3.74849077 -0.46856135 0 0 Z " fill="#007DEA" transform="translate(300,291)"/>
<path d="M0 0 C2.05369933 3.080549 2.25312502 3.7417545 2.2746582 7.22436523 C2.28419022 8.07212021 2.29372223 8.91987518 2.30354309 9.7933197 C2.30263168 10.70586014 2.30172028 11.61840057 2.30078125 12.55859375 C2.30506638 13.49929214 2.3093515 14.43999054 2.31376648 15.40919495 C2.31950985 17.39884639 2.32000999 19.38851882 2.31567383 21.37817383 C2.31251566 24.42240232 2.33596671 27.46565744 2.36132812 30.50976562 C2.36360129 32.44270711 2.36430453 34.3756512 2.36328125 36.30859375 C2.372491 37.21910995 2.38170074 38.12962616 2.39118958 39.06773376 C2.3453106 45.33520291 2.3453106 45.33520291 0.66479492 48.57055664 C-1 50 -1 50 -4 50.5625 C-7 50 -7 50 -8.66479492 48.04711914 C-10.50047336 43.85785189 -10.41182847 40.20883729 -10.36328125 35.68359375 C-10.36377975 34.79011734 -10.36427826 33.89664093 -10.36479187 32.97608948 C-10.36245716 31.09251677 -10.35276431 29.20894061 -10.33618164 27.32543945 C-10.31255239 24.44388942 -10.31562991 21.5632632 -10.32226562 18.68164062 C-10.31668961 16.84895282 -10.30958021 15.01626891 -10.30078125 13.18359375 C-10.30169266 12.32309921 -10.30260406 11.46260468 -10.30354309 10.57603455 C-10.29401108 9.7716243 -10.28447906 8.96721405 -10.2746582 8.13842773 C-10.27005081 7.43403061 -10.26544342 6.72963348 -10.26069641 6.00389099 C-9.95228155 3.63320333 -9.24786042 2.03184876 -8 0 C-5.06791253 -1.46604374 -3.11702298 -0.77925574 0 0 Z " fill="#0098F0" transform="translate(136,309)"/>
</svg>
