<?xml version="1.0" encoding="UTF-8"?>
<svg version="1.1" xmlns="http://www.w3.org/2000/svg" width="512" height="512">
<path d="M0 0 C2.52040664 0.01611263 5.03921081 0.00001365 7.55957031 -0.01904297 C19.12720432 -0.0316567 30.15597085 1.27472539 41.52050781 3.39111328 C41.57356079 5.22561035 41.57356079 5.22561035 41.62768555 7.09716797 C41.91241261 20.22421257 41.91241261 20.22421257 49.11035156 30.88330078 C52.83317701 33.8946177 56.89654886 35.26676495 61.39550781 36.76611328 C68.49176236 39.23027234 75.35112925 41.93352649 82.09228516 45.2578125 C87.38876484 47.73292286 92.02249673 48.27332772 97.73535156 46.83251953 C102.97308855 44.16020474 106.49537725 40.54798188 110.34472656 36.12158203 C112.52050781 34.39111328 112.52050781 34.39111328 114.91113281 34.35595703 C118.22305088 35.66981674 120.82828637 37.55782771 123.58300781 39.76611328 C124.14882568 40.21164551 124.71464355 40.65717773 125.29760742 41.11621094 C130.77649868 45.48864831 135.97518371 50.13691012 141.04101562 54.97900391 C142.02215621 55.91545888 143.00846028 56.84653559 144 57.77197266 C153.63938427 66.78228703 163.83565336 77.36431087 169.52050781 89.39111328 C168.76125 90.10396484 168.00199219 90.81681641 167.21972656 91.55126953 C166.21528511 92.51816177 165.2114088 93.48564133 164.20800781 94.45361328 C163.70849609 94.91960937 163.20898438 95.38560547 162.69433594 95.86572266 C158.13411104 100.30514689 155.9126852 104.6250743 155.00488281 111.02783203 C155.25885634 117.16306462 158.2882596 122.69908576 160.77050781 128.20361328 C161.7575703 130.43810513 162.74197479 132.67377312 163.72363281 134.91064453 C164.44087524 136.53329224 164.44087524 136.53329224 165.17260742 138.1887207 C166.81811943 142.09819018 168.20221432 146.06751179 169.51196289 150.10058594 C171.54966782 154.72845996 175.31397795 157.2600683 179.69238281 159.50439453 C183.56498193 160.71859343 187.29596613 160.85368411 191.33300781 161.01611328 C192.51540039 161.07412109 192.51540039 161.07412109 193.72167969 161.13330078 C195.65426161 161.22700172 197.58735158 161.31012107 199.52050781 161.39111328 C204.32147819 187.81154774 204.2219793 212.98599355 199.52050781 239.39111328 C197.81894531 239.42978516 197.81894531 239.42978516 196.08300781 239.46923828 C182.81062638 239.74849483 182.81062638 239.74849483 172.02832031 246.98095703 C169.01700339 250.70378248 167.64485614 254.76715433 166.14550781 259.26611328 C163.68134875 266.36236783 160.9780946 273.22173471 157.65380859 279.96289062 C155.180478 285.25556179 154.6712485 289.85464541 156.04394531 295.57080078 C159.25713076 301.96769291 164.32976384 306.55698531 169.52050781 311.39111328 C157.99827052 331.54455379 140.15207531 348.78637959 121.52050781 362.39111328 C120.47894531 363.17228516 119.43738281 363.95345703 118.36425781 364.75830078 C115.52050781 366.39111328 115.52050781 366.39111328 113.41503906 366.41455078 C110.8255614 365.01569893 109.1874132 363.18888865 107.20800781 361.01611328 C102.32075895 355.99310751 99.07256792 353.70418931 91.93066406 353.07470703 C86.59275239 353.14633631 82.288764 355.29530579 77.52050781 357.51611328 C75.6666495 358.35302312 73.81115899 359.1863263 71.95410156 360.01611328 C71.03999512 360.42474609 70.12588867 360.83337891 69.18408203 361.25439453 C66.04665418 362.59333716 62.86816524 363.71745871 59.64013672 364.81469727 C51.89539126 367.45541097 47.18153993 370.12607117 43.42675781 377.55517578 C42.18790534 381.43192963 42.05888052 385.15762233 41.89550781 389.20361328 C41.82920994 390.66417109 41.76227415 392.12470002 41.69482422 393.58520508 C41.6372998 394.84115479 41.57977539 396.09710449 41.52050781 397.39111328 C29.29221397 399.66835635 17.48139258 400.87628913 5.04101562 400.78222656 C2.52060899 400.76611393 0.00180482 400.78221292 -2.51855469 400.80126953 C-14.0861887 400.81388326 -25.11495522 399.50750118 -36.47949219 397.39111328 C-36.5274292 396.15433838 -36.57536621 394.91756348 -36.62475586 393.64331055 C-36.65378998 392.90557404 -36.6828241 392.16783752 -36.71273804 391.40774536 C-36.77086628 389.88282476 -36.82133604 388.35760713 -36.86743164 386.83227539 C-37.19491005 380.17832839 -38.59558208 374.85465612 -43.60449219 370.16845703 C-47.55649146 367.0439335 -51.72829999 365.49544552 -56.47949219 363.95361328 C-62.75104166 361.80679958 -68.68268103 359.42939778 -74.60449219 356.45361328 C-80.91213026 353.37978992 -85.65981844 351.94427165 -92.48339844 353.99267578 C-97.95183213 356.28278304 -101.46303502 360.24421829 -105.30371094 364.66064453 C-107.47949219 366.39111328 -107.47949219 366.39111328 -109.83886719 366.45751953 C-113.36924147 365.03179146 -116.12274141 362.90374201 -119.04199219 360.51611328 C-119.65333008 360.02506104 -120.26466797 359.53400879 -120.89453125 359.02807617 C-126.99888123 354.07046516 -132.79142649 348.81738516 -138.47949219 343.39111328 C-139.3315625 342.59189453 -140.18363281 341.79267578 -141.06152344 340.96923828 C-147.93214586 334.34747305 -153.82152083 327.05438348 -159.47949219 319.39111328 C-160.26582031 318.34439453 -161.05214844 317.29767578 -161.86230469 316.21923828 C-163.47949219 313.39111328 -163.47949219 313.39111328 -163.50292969 311.28564453 C-162.10407783 308.69616687 -160.27726755 307.05801867 -158.10449219 305.07861328 C-153.06638107 300.16865761 -150.43151281 296.48799355 -150.16308594 289.27001953 C-150.22825666 283.78565299 -152.19518146 279.67019422 -154.60449219 274.82861328 C-155.44106554 273.07686896 -156.27304795 271.32292529 -157.10058594 269.56689453 C-157.50905762 268.70016113 -157.9175293 267.83342773 -158.33837891 266.94042969 C-160.5436694 262.01367672 -162.21280485 256.89741952 -163.89746094 251.77392578 C-166.26908114 246.70275765 -169.22235099 243.46028543 -174.29980469 241.05517578 C-178.32853033 240.21379573 -182.24986068 239.93366547 -186.35449219 239.76611328 C-187.80390038 239.69979938 -189.25328024 239.63286445 -190.70263672 239.56542969 C-191.94899902 239.50790527 -193.19536133 239.45038086 -194.47949219 239.39111328 C-196.75673526 227.16281944 -197.96466803 215.35199805 -197.87060547 202.91162109 C-197.85449283 200.39121446 -197.87059182 197.87241028 -197.88964844 195.35205078 C-197.90226217 183.78441677 -196.59588008 172.75565025 -194.47949219 161.39111328 C-192.62432983 161.31920776 -192.62432983 161.31920776 -190.73168945 161.24584961 C-189.99395294 161.21681549 -189.25621643 161.18778137 -188.49612427 161.15786743 C-186.97120367 161.09973919 -185.44598604 161.04926943 -183.9206543 161.00317383 C-177.30951374 160.67780216 -171.97114957 159.29491402 -167.29199219 154.33642578 C-163.91938009 150.07145809 -162.23631177 145.36208707 -160.47949219 140.26611328 C-158.25213631 134.05956673 -155.95435915 128.09020145 -152.97949219 122.20361328 C-150.43948159 116.81739902 -149.14732673 112.29941964 -150.47949219 106.39111328 C-152.87529744 100.47270852 -157.24636793 96.45608423 -162.00292969 92.34814453 C-163.47949219 90.39111328 -163.47949219 90.39111328 -163.51074219 88.06298828 C-162.13335805 84.49431121 -160.00092365 81.75862677 -157.60449219 78.82861328 C-157.11343994 78.21727539 -156.6223877 77.6059375 -156.11645508 76.97607422 C-151.15884407 70.87172424 -145.90576406 65.07917897 -140.47949219 59.39111328 C-139.68027344 58.53904297 -138.88105469 57.68697266 -138.05761719 56.80908203 C-131.43585195 49.93845961 -124.14276239 44.04908463 -116.47949219 38.39111328 C-114.90941406 37.21162109 -114.90941406 37.21162109 -113.30761719 36.00830078 C-110.47949219 34.39111328 -110.47949219 34.39111328 -108.37402344 34.36767578 C-105.78454577 35.76652763 -104.14639758 37.59333791 -102.16699219 39.76611328 C-97.25703652 44.8042244 -93.57637246 47.43909266 -86.35839844 47.70751953 C-80.8740319 47.64234881 -76.75857312 45.67542401 -71.91699219 43.26611328 C-70.16524787 42.42953993 -68.41130419 41.59755752 -66.65527344 40.77001953 C-65.78854004 40.36154785 -64.92180664 39.95307617 -64.02880859 39.53222656 C-59.10205563 37.32693607 -53.98579843 35.65780062 -48.86230469 33.97314453 C-43.79113655 31.60152433 -40.54866433 28.64825448 -38.14355469 23.57080078 C-37.30217464 19.54207514 -37.02204437 15.62074479 -36.85449219 11.51611328 C-36.78817829 10.06670509 -36.72124336 8.61732523 -36.65380859 7.16796875 C-36.59628418 5.92160645 -36.53875977 4.67524414 -36.47949219 3.39111328 C-24.25119834 1.11387021 -12.44037695 -0.09406256 0 0 Z " fill="#456580" transform="translate(253.4794921875,55.60888671875)"/>
<path d="M0 0 C0.82242188 0.68707031 1.64484375 1.37414062 2.4921875 2.08203125 C28.14577567 24.2591986 44.1153775 57.34607081 47 91 C48.77330048 118.44393604 43.33536658 144.95250878 30 169 C29.4225 170.07894531 28.845 171.15789062 28.25 172.26953125 C24.22949141 179.51947615 19.4331517 185.75647991 14 192 C12.95199219 193.24910156 12.95199219 193.24910156 11.8828125 194.5234375 C-10.73992627 220.79233197 -44.26777403 236.12089654 -78.56298828 238.83886719 C-96.01878156 239.99302703 -112.34422351 238.5519255 -129 233 C-129 205.94 -129 178.88 -129 151 C-116.20799217 145.18545099 -103.07844773 140.13796161 -90 135 C-89.67 103.32 -89.34 71.64 -89 39 C-100.69265559 38.97536909 -100.69265559 38.97536909 -112 41 C-113.65688068 48.47824208 -114.64936063 55.92863829 -115.4375 63.54296875 C-115.69524746 65.93946012 -115.95306195 68.33594428 -116.2109375 70.73242188 C-116.60770093 74.47140035 -117.00242656 78.2105838 -117.39550781 81.94995117 C-117.77934562 85.58569522 -118.17059793 89.22058647 -118.5625 92.85546875 C-118.677146 93.96915329 -118.79179199 95.08283783 -118.90991211 96.23027039 C-120.15733262 107.74993103 -120.15733262 107.74993103 -122 112 C-124.50488281 113.70581055 -124.50488281 113.70581055 -127.703125 114.88671875 C-129.49423706 115.57290283 -129.49423706 115.57290283 -131.3215332 116.27294922 C-132.63099516 116.74454104 -133.94048479 117.21605605 -135.25 117.6875 C-136.59381411 118.1951189 -137.936495 118.70574703 -139.27807617 119.21923828 C-142.08308434 120.28956789 -144.89255211 121.34658472 -147.70654297 122.39306641 C-153.95808057 124.7238866 -160.17027121 127.15283247 -166.37268066 129.61099243 C-168.26503965 130.3563075 -170.16271136 131.08649811 -172.06152344 131.81518555 C-184.02328566 136.51585881 -193.16062145 141.54411568 -198.62109375 153.5703125 C-200.44996998 158.63679395 -200.55858971 163.65943066 -200.6875 169 C-200.72166016 169.96550781 -200.75582031 170.93101562 -200.79101562 171.92578125 C-200.87272699 174.28373782 -200.94212119 176.64135863 -201 179 C-204.44259676 175.89326634 -206.67002725 172.50222148 -208.8125 168.4375 C-209.15434326 167.79127686 -209.49618652 167.14505371 -209.84838867 166.47924805 C-226.19231194 134.57219822 -229.94659091 97.27430712 -219.38476562 62.98632812 C-214.26466453 47.21007852 -207.43298568 32.97022721 -197 20 C-196.59023926 19.4848584 -196.18047852 18.9697168 -195.75830078 18.43896484 C-175.48886633 -6.89594934 -146.95831445 -24.61679169 -115 -31 C-113.98421875 -31.20496094 -112.9684375 -31.40992187 -111.921875 -31.62109375 C-71.54489252 -38.55789761 -30.98192939 -26.15034233 0 0 Z " fill="#EAEFF0" transform="translate(345,153)"/>
<path d="M0 0 C19 0 19 0 23 2 C25.19870461 5.29805692 25.42512079 6.96218289 25.85375977 10.8449707 C26.05890953 12.64748039 26.05890953 12.64748039 26.26820374 14.48640442 C26.47768898 16.43639595 26.47768898 16.43639595 26.69140625 18.42578125 C26.84233406 19.77484006 26.99403311 21.1238128 27.14646912 22.47270203 C27.54608843 26.02555364 27.93616131 29.57938768 28.32397461 33.13354492 C28.87092389 38.12998541 29.43086998 43.12498875 29.98924255 48.12016296 C30.28637745 50.77869067 30.57956758 53.43755849 30.8707428 56.09675598 C31.07116432 57.91345039 31.07116432 57.91345039 31.27563477 59.7668457 C31.39173599 60.82813187 31.50783722 61.88941803 31.62745667 62.98286438 C31.75039597 63.97851913 31.87333527 64.97417389 32 66 C32.19592743 67.62857689 32.19592743 67.62857689 32.39581299 69.29005432 C32.71902355 72.21088594 32.71902355 72.21088594 35.39135742 73.59228516 C36.45201416 73.98722168 37.5126709 74.3821582 38.60546875 74.7890625 C39.80276611 75.24974121 41.00006348 75.71041992 42.23364258 76.18505859 C43.55157871 76.66508394 44.8695316 77.14506326 46.1875 77.625 C47.53576809 78.13746445 48.88300763 78.65264247 50.22924805 79.17041016 C53.04552737 80.25051251 55.86590948 81.31859061 58.69042969 82.37695312 C64.94335068 84.72458193 71.16377788 87.15312495 77.37368774 89.61199951 C79.26573673 90.35659678 81.16298796 91.08643453 83.0612793 91.81494141 C93.52494634 95.92733732 103.74313684 100.7402609 109.10888672 111.15161133 C113.26283494 120.90685197 113.82984242 131.56356111 112 142 C109.76797877 146.69953093 106.85716972 149.5799368 103 153 C101.5693896 154.6547133 100.15264223 156.32151348 98.75 158 C74.81809547 184.12256246 40.58870228 198.27696386 5.54345703 200.12988281 C-10.27011148 200.74708892 -24.94527021 199.01824326 -40 194 C-40 166.94 -40 139.88 -40 112 C-27.20799217 106.18545099 -14.07844773 101.13796161 -1 96 C-0.67 64.32 -0.34 32.64 0 0 Z " fill="#1F81B4" transform="translate(256,192)"/>
<path d="M0 0 C0 18.48 0 36.96 0 56 C-6.27 53.03 -12.54 50.06 -19 47 C-19.66 48.98 -20.32 50.96 -21 53 C-21.564514 54.46235855 -22.14205454 55.91977537 -22.734375 57.37109375 C-27.92867652 70.34651063 -32.05421096 83.33198185 -35 97 C-35.21172852 97.9801709 -35.42345703 98.9603418 -35.64160156 99.97021484 C-41.34605668 127.83706573 -42.03220851 160.12926119 -36 188 C-35.79600586 188.95390625 -35.59201172 189.9078125 -35.38183594 190.890625 C-23.17871235 246.31092425 7.27318432 298.61847988 54 332 C54.66161133 332.47356934 55.32322266 332.94713867 56.00488281 333.43505859 C74.01502927 346.17302198 93.19730982 356.61989754 114 364 C115.16063965 364.41306396 115.16063965 364.41306396 116.34472656 364.83447266 C134.2298265 371.08107914 153.09508214 375.49988028 172 377 C173.21913086 377.10054688 173.21913086 377.10054688 174.46289062 377.203125 C233.50082316 381.73444971 295.27610527 363.79242778 340.6328125 325.1015625 C341.41398437 324.40804688 342.19515625 323.71453125 343 323 C344.38832031 321.77410156 344.38832031 321.77410156 345.8046875 320.5234375 C350.48380526 316.34832333 350.48380526 316.34832333 355 312 C358.61991736 312.29168756 360.32363813 313.99615571 362.75 316.5625 C363.36359375 317.20316406 363.9771875 317.84382813 364.609375 318.50390625 C365.06828125 318.99761719 365.5271875 319.49132812 366 320 C336.869295 356.03008249 286.93775058 377.36762149 242.75 386.75 C241.81704102 386.94875732 240.88408203 387.14751465 239.92285156 387.35229492 C224.47213193 390.4802478 209.40873279 391.40840635 193.6875 391.375 C192.72122681 391.37445618 191.75495361 391.37391235 190.75939941 391.37335205 C174.85392224 391.33232302 159.5939297 390.36938902 144 387 C142.97084473 386.78037598 141.94168945 386.56075195 140.88134766 386.33447266 C133.85097733 384.79122063 126.91264957 383.00407713 120 381 C118.75573242 380.63962646 118.75573242 380.63962646 117.48632812 380.27197266 C88.83031815 371.69027624 62.36993352 356.4330582 39 338 C38.17169678 337.3495874 38.17169678 337.3495874 37.32666016 336.68603516 C23.19592789 325.47440897 9.84153587 312.42789945 -1 298 C-1.85153854 296.9010231 -2.70310263 295.802066 -3.5546875 294.703125 C-27.30718451 263.62155343 -42.7292003 227.3481918 -50 189 C-50.24339111 187.8251001 -50.24339111 187.8251001 -50.49169922 186.62646484 C-55.98913598 159.51371944 -55.58756329 127.05424849 -50 100 C-49.80132324 99.01692871 -49.60264648 98.03385742 -49.39794922 97.02099609 C-45.31847695 77.40591557 -39.1843515 58.29674734 -31 40 C-32.28777344 39.60167969 -32.28777344 39.60167969 -33.6015625 39.1953125 C-37.02910808 37.98976199 -40.14173798 36.52755614 -43.375 34.875 C-44.43460938 34.33617187 -45.49421875 33.79734375 -46.5859375 33.2421875 C-47.38257813 32.83226562 -48.17921875 32.42234375 -49 32 C-45.01595254 27.61439835 -40.71811847 24.79408854 -35.625 21.8125 C-29.63658011 18.23287091 -23.72719049 14.58132582 -17.9375 10.6875 C-17.32511475 10.2762085 -16.71272949 9.86491699 -16.08178711 9.44116211 C-13.42744457 7.65235815 -10.78202816 5.85081436 -8.140625 4.04296875 C-7.33109375 3.49253906 -6.5215625 2.94210938 -5.6875 2.375 C-5.01074219 1.90835938 -4.33398438 1.44171875 -3.63671875 0.9609375 C-2 0 -2 0 0 0 Z " fill="#7D8C8D" transform="translate(63,111)"/>
<path d="M0 0 C1.23707703 0.00323273 1.23707703 0.00323273 2.49914551 0.00653076 C68.376948 0.28114066 128.31869823 26.94431668 175.375 72.3125 C176.67630859 73.55193359 176.67630859 73.55193359 178.00390625 74.81640625 C183.61627247 80.27260228 188.56053532 86.14660664 193.375 92.3125 C193.84341309 92.90981934 194.31182617 93.50713867 194.79443359 94.12255859 C202.07815982 103.45683531 208.63395362 112.9574556 214.375 123.3125 C214.8390625 124.14104492 215.303125 124.96958984 215.78125 125.82324219 C233.99790595 158.61559486 246.27710215 196.28220628 246.61328125 234.0859375 C246.6230751 234.99915268 246.63286896 235.91236786 246.64295959 236.85325623 C246.81454459 257.00878117 246.66720863 276.52551554 242.375 296.3125 C242.15537598 297.34552246 241.93575195 298.37854492 241.70947266 299.44287109 C238.87807392 312.42161816 235.08441035 324.87048619 230.20214844 337.21875 C229.39356196 339.26551436 228.6036185 341.31844371 227.8203125 343.375 C226.68226418 346.35835831 225.53410743 349.33727954 224.375 352.3125 C225.21289062 352.56773437 226.05078125 352.82296875 226.9140625 353.0859375 C230.70707838 354.43018918 234.17724791 356.10264193 237.75 357.9375 C238.39066406 358.26234375 239.03132813 358.5871875 239.69140625 358.921875 C241.25447501 359.71507407 242.81500622 360.51327031 244.375 361.3125 C243.02010804 365.37717587 240.39040224 366.41713387 236.875 368.5 C235.42988925 369.37840065 233.98596298 370.25875175 232.54296875 371.140625 C231.7339209 371.63369141 230.92487305 372.12675781 230.09130859 372.63476562 C224.74580935 375.93642577 219.47203933 379.35195897 214.1875 382.75 C212.04861781 384.12438404 209.90931854 385.49811929 207.76953125 386.87109375 C206.85018799 387.46204834 205.93084473 388.05300293 204.98364258 388.66186523 C197.63383745 393.3125 197.63383745 393.3125 195.375 393.3125 C195.375 375.1625 195.375 357.0125 195.375 338.3125 C199.85171433 339.20784287 202.69821681 340.31460099 206.6875 342.375 C207.75613281 342.92285156 208.82476562 343.47070312 209.92578125 344.03515625 C211.13814453 344.66744141 211.13814453 344.66744141 212.375 345.3125 C212.54733154 344.77882813 212.71966309 344.24515625 212.8972168 343.6953125 C214.24152457 339.59093539 215.65043814 335.52902129 217.20703125 331.5 C220.96618396 321.71638251 224.21393979 311.94097233 226.6875 301.75 C226.91735596 300.81994141 227.14721191 299.88988281 227.3840332 298.93164062 C231.17695162 282.5877871 232.88444316 266.26758509 232.76611328 249.51025391 C232.74999888 246.81231187 232.76610537 244.11586685 232.78515625 241.41796875 C232.80650104 224.5777887 230.70335238 208.09849514 226.625 191.75 C226.36895996 190.70900146 226.11291992 189.66800293 225.84912109 188.59545898 C210.76832326 129.07675866 172.43465183 78.74209072 120.25 46.75 C91.99579154 29.92799709 60.89286519 19.69485325 28.375 15.3125 C26.44333984 15.03599609 26.44333984 15.03599609 24.47265625 14.75390625 C16.93635977 13.95182956 9.32091044 14.068069 1.75 14.0625 C0.92619843 14.06182526 0.10239685 14.06115051 -0.74636841 14.06045532 C-14.2404413 14.07797138 -27.34052172 14.7754643 -40.625 17.3125 C-41.51574219 17.47878906 -42.40648437 17.64507813 -43.32421875 17.81640625 C-85.62773506 25.96330311 -126.18450523 45.61869939 -157.625 75.3125 C-161.91878813 73.38962966 -164.39653701 70.68771131 -167.625 67.3125 C-165.45006878 61.89339764 -160.6780084 59.04654568 -156.20458984 55.55224609 C-154.68325574 54.3582222 -153.179117 53.14238806 -151.67578125 51.92578125 C-121.44730706 27.89008026 -86.10938657 12.6137235 -48.5 4.5625 C-47.58371826 4.36374268 -46.66743652 4.16498535 -45.72338867 3.96020508 C-30.58475199 0.8737383 -15.41727187 -0.07333341 0 0 Z " fill="#7D8C8D" transform="translate(255.625,8.6875)"/>
<path d="M0 0 C6.6 0 13.2 0 20 0 C20 31.68 20 63.36 20 96 C7.20799217 101.81454901 -5.92155227 106.86203839 -19 112 C-19.33 139.06 -19.66 166.12 -20 194 C-36.54157602 188.09229428 -36.54157602 188.09229428 -42 185.3125 C-42.6595166 184.97855225 -43.3190332 184.64460449 -43.99853516 184.30053711 C-54.42598158 178.85226497 -63.56174649 171.76716266 -72.109375 163.71484375 C-73.8955419 161.93987267 -73.8955419 161.93987267 -76 161 C-76 160.34 -76 159.68 -76 159 C-76.66 159 -77.32 159 -78 159 C-79.50126091 157.36896408 -80.92684386 155.66782355 -82.3125 153.9375 C-83.07175781 152.99777344 -83.83101562 152.05804688 -84.61328125 151.08984375 C-85.40089844 150.07019531 -86.18851563 149.05054688 -87 148 C-87.68703003 147.23127563 -87.68703003 147.23127563 -88.38793945 146.44702148 C-92.66683754 141.31707184 -92.72661049 136.69425916 -92.5625 130.1875 C-92.57345703 129.25357422 -92.58441406 128.31964844 -92.59570312 127.35742188 C-92.49255872 117.44868292 -89.37613494 109.22658 -82.4609375 102.07421875 C-71.33518792 92.69680124 -55.0456365 88.5899648 -41.70654297 83.44042969 C-35.70374173 81.10763247 -29.72663507 78.71137975 -23.75 76.3125 C-22.66678467 75.87832764 -21.58356934 75.44415527 -20.4675293 74.99682617 C-17.97802361 73.99870125 -15.48883271 72.99980153 -13 72 C-12.86424561 70.85861572 -12.72849121 69.71723145 -12.58862305 68.54125977 C-12.49808151 67.7802597 -12.40753998 67.01925964 -12.31425476 66.23519897 C-12.10943052 64.51298937 -11.90477438 62.79075977 -11.70027161 61.06851196 C-11.13388376 56.30141649 -10.56416598 51.53475697 -9.98828125 46.76879883 C-8.98673117 38.45808926 -7.99101016 30.15163226 -7.17578125 21.8203125 C-7.05823486 20.6748999 -6.94068848 19.5294873 -6.81958008 18.34936523 C-6.61255949 16.30114241 -6.42249634 14.25110578 -6.25268555 12.19946289 C-6.15898682 11.30219482 -6.06528809 10.40492676 -5.96875 9.48046875 C-5.86723633 8.34967896 -5.86723633 8.34967896 -5.76367188 7.19604492 C-5 5 -5 5 0 0 Z " fill="#C43730" transform="translate(236,192)"/>
<path d="M0 0 C1.83529679 0.70794146 3.6707746 1.41544497 5.50907898 2.11553955 C8.19046251 3.14688351 10.85349911 4.22142843 13.5168457 5.29833984 C15.58788823 6.13525953 17.66187241 6.96455012 19.73632812 7.79296875 C29.8575245 11.8575245 29.8575245 11.8575245 31 13 C31.09506052 15.55589888 31.12556761 18.08467972 31.11352539 20.64086914 C31.11367142 21.44080795 31.11381744 22.24074677 31.1139679 23.06492615 C31.11326855 25.72169665 31.10547518 28.37839793 31.09765625 31.03515625 C31.09579215 32.87218691 31.09436821 34.70921806 31.09336853 36.54624939 C31.08954275 41.39109662 31.07971196 46.23591408 31.06866455 51.08074951 C31.05845172 56.02062578 31.05387119 60.96050685 31.04882812 65.90039062 C31.03808974 75.60027353 31.0210126 85.30013429 31 95 C28.76335264 95.65223292 26.52568722 96.30097538 24.28759766 96.94824219 C23.04160797 97.30988464 21.79561829 97.6715271 20.51187134 98.04412842 C16.46256759 99.14627995 12.54528637 99.86389049 8.375 100.25 C7.63048584 100.32371826 6.88597168 100.39743652 6.11889648 100.47338867 C-12.86740355 102.1721525 -30.83741203 101.05419599 -49 95 C-49 67.94 -49 40.88 -49 13 C-40.67745927 9.21702694 -32.37941114 5.49664959 -23.9375 2 C-22.13442383 1.20916016 -22.13442383 1.20916016 -20.29492188 0.40234375 C-12.2410123 -2.8930366 -7.8887863 -3.56858457 0 0 Z " fill="#EAEFF0" transform="translate(265,291)"/>
<path d="M0 0 C9.05460147 4.68341456 14.06827195 10.89231584 17.25 20.4375 C18.40208863 29.75629288 16.45518892 36.65857021 11.25 44.4375 C6.28792854 50.44993696 -0.86724275 53.76259138 -8.51953125 54.8203125 C-17.16300999 55.18297594 -23.39691564 52.56178112 -30.0625 47.1875 C-35.40527766 42.23851273 -38.29339039 36.19073121 -38.98828125 28.95703125 C-39.25893084 19.08544361 -36.37574192 12.40004837 -29.6875 5.1640625 C-21.73572147 -1.9219982 -9.89705325 -4.03468721 0 0 Z " fill="#C43832" transform="translate(186.75,225.5625)"/>
<path d="M0 0 C9.05460147 4.68341456 14.06827195 10.89231584 17.25 20.4375 C18.24513552 30.24203196 16.21778823 38.11496354 10 45.8125 C4.34492743 51.83241596 -2.59363593 54.47446426 -10.75 54.875 C-18.56802848 54.78093281 -25.03359973 51.5750627 -30.95703125 46.57421875 C-36.687125 40.55460447 -38.82099159 34.14957902 -39.1875 25.9375 C-38.90454192 17.48412737 -35.351821 11.29227186 -29.6875 5.1640625 C-21.73572147 -1.9219982 -9.89705325 -4.03468721 0 0 Z " fill="#2182B4" transform="translate(346.75,225.5625)"/>
</svg>
