<?xml version="1.0" encoding="UTF-8"?>
<svg version="1.1" xmlns="http://www.w3.org/2000/svg" width="512" height="512">
<path d="M0 0 C2.99391536 1.57573754 5.80621694 3.39982199 8.63671875 5.25 C9.46683975 5.78379776 10.29696075 6.31759552 11.15223694 6.86756897 C19.61534816 12.3372281 27.96502077 17.97661486 36.29730225 23.64279175 C54.32472922 35.89716622 72.47125833 47.96355476 90.69116211 59.92944336 C92.4061079 61.05579537 94.12103327 62.18217847 95.8359375 63.30859375 C96.67531357 63.8598291 97.51468964 64.41106445 98.37950134 64.97900391 C105.32013299 69.54191975 112.23099113 74.14864421 119.13812256 78.76205444 C125.13140706 82.76209287 131.14118065 86.73608625 137.1640625 90.69140625 C138.00743668 91.24533051 138.85081085 91.79925476 139.71974182 92.3699646 C141.45633401 93.51047591 143.19293179 94.65097872 144.92953491 95.79147339 C162.88426998 107.58844072 180.75088282 119.50913811 198.53564453 131.56079102 C206.96569068 137.2709663 215.41179142 142.95070439 223.92578125 148.53515625 C225.47831835 149.55665079 227.03080979 150.57821471 228.58325195 151.59985352 C231.44560461 153.48290732 234.31616977 155.35242926 237.19213867 157.21459961 C238.4617636 158.04880249 239.73107082 158.88348918 241 159.71875 C242.093125 160.42966797 243.18625 161.14058594 244.3125 161.87304688 C247.96117498 164.76069735 249.74488064 167.29230918 250.43359375 171.90234375 C250.43488281 172.90394531 250.43617188 173.90554687 250.4375 174.9375 C250.45683594 175.93652344 250.47617187 176.93554688 250.49609375 177.96484375 C249.72577357 182.67774755 247.66375174 185.65007203 244.01402283 188.6113739 C241.51929377 190.37225986 238.98504911 192.05125826 236.421875 193.7109375 C235.4953009 194.32393707 234.56872681 194.93693665 233.61407471 195.56851196 C230.66645466 197.5150025 227.7085228 199.44513134 224.75 201.375 C222.74408874 202.69554746 220.73887207 204.01715063 218.734375 205.33984375 C213.83089678 208.57216864 208.91886302 211.79114237 204 215 C207.69540873 219.15990324 212.18460299 221.90616807 216.81640625 224.90234375 C218.56727064 226.05110719 220.31791504 227.20020597 222.06835938 228.34960938 C224.81977426 230.14871547 227.57324103 231.94447092 230.33081055 233.73413086 C232.99883949 235.46848054 235.65804855 237.21571871 238.31640625 238.96484375 C239.14145157 239.49520737 239.96649689 240.02557098 240.81654358 240.57200623 C244.88727649 243.26180598 248.01853712 245.3618436 250 250 C250.43359375 252.90234375 250.43359375 252.90234375 250.4375 255.9375 C250.45683594 256.93652344 250.47617187 257.93554688 250.49609375 258.96484375 C249.72577357 263.67774755 247.66375174 266.65007203 244.01402283 269.6113739 C241.51929377 271.37225986 238.98504911 273.05125826 236.421875 274.7109375 C235.03201385 275.63043686 235.03201385 275.63043686 233.61407471 276.56851196 C230.66645466 278.5150025 227.7085228 280.44513134 224.75 282.375 C222.74408874 283.69554746 220.73887207 285.01715063 218.734375 286.33984375 C213.83089678 289.57216864 208.91886302 292.79114237 204 296 C207.69540873 300.15990324 212.18460299 302.90616807 216.81640625 305.90234375 C218.56727064 307.05110719 220.31791504 308.20020597 222.06835938 309.34960938 C224.81977426 311.14871547 227.57324103 312.94447092 230.33081055 314.73413086 C232.99883949 316.46848054 235.65804855 318.21571871 238.31640625 319.96484375 C239.14145157 320.49520737 239.96649689 321.02557098 240.81654358 321.57200623 C244.88727649 324.26180598 248.01853712 326.3618436 250 331 C250.43359375 333.90234375 250.43359375 333.90234375 250.4375 336.9375 C250.45683594 337.93652344 250.47617187 338.93554688 250.49609375 339.96484375 C249.75470178 344.50076157 247.74086905 347.57149024 244.23164368 350.45106506 C242.02222375 352.00013331 239.77408711 353.46378616 237.49609375 354.91015625 C236.64201935 355.4665126 235.78794495 356.02286896 234.9079895 356.59608459 C233.05925656 357.79876587 231.20706828 358.99614885 229.35183716 360.18878174 C224.35215951 363.40323045 219.37748597 366.65607313 214.3984375 369.90234375 C213.37083817 370.57068237 212.34323883 371.239021 211.28450012 371.9276123 C201.54350744 378.27148349 191.90321241 384.75934984 182.28131104 391.2819519 C169.76132843 399.76909198 157.23034803 408.23475361 144.5625 416.5 C143.72977066 417.04340027 143.72977066 417.04340027 142.88021851 417.59777832 C140.55680605 419.11346723 138.23305989 420.62864322 135.90898132 422.14331055 C126.88148746 428.02921967 117.87659688 433.94958562 108.875 439.875 C107.94238342 440.48885559 107.00976685 441.10271118 106.04888916 441.73516846 C91.04672637 451.61602678 76.13301796 461.62272773 61.25540161 471.68988037 C48.66174955 480.20974797 36.02341711 488.65598312 23.3125 497 C22.58175262 497.47999451 21.85100525 497.95998901 21.09811401 498.45452881 C17.81262315 500.61123706 14.52421551 502.7631431 11.22729492 504.90234375 C9.30100376 506.154382 7.37990419 507.41455407 5.4699707 508.69140625 C0.65307396 511.85571694 -2.66772205 513.1836191 -8.40576172 512.80322266 C-12.90756371 511.79718213 -15.87248685 509.85627315 -19.63671875 507.2734375 C-20.37020538 506.78442963 -21.10369202 506.29542175 -21.85940552 505.79159546 C-23.43450143 504.74145572 -25.00664842 503.68688179 -26.57608032 502.6282959 C-29.78855241 500.47028086 -33.0280854 498.35496241 -36.26821899 496.23880005 C-40.64452196 493.37875111 -45.00918364 490.50102074 -49.375 487.625 C-50.31665009 487.0049408 -51.25830017 486.38488159 -52.22848511 485.74603271 C-66.56937659 476.2978348 -80.83888603 466.74868663 -95.0625 457.125 C-107.80367549 448.50504706 -120.57101324 439.93197962 -133.4375 431.5 C-134.13416779 431.04338989 -134.83083557 430.58677979 -135.5486145 430.11633301 C-139.15251374 427.75500198 -142.75750353 425.39534054 -146.36279297 423.03613281 C-155.08335289 417.32817249 -163.79405143 411.60521714 -172.5 405.875 C-173.87599365 404.96933792 -173.87599365 404.96933792 -175.27978516 404.04537964 C-191.29556288 393.49717457 -207.22056772 382.8177725 -223.1015625 372.06787109 C-223.93076202 371.50682678 -224.75996155 370.94578247 -225.61428833 370.36773682 C-227.25037158 369.25985762 -228.88554135 368.15062809 -230.51974487 367.03997803 C-234.92238772 364.05386259 -239.34960625 361.11294688 -243.81298828 358.21826172 C-244.77386856 357.59088608 -245.73474884 356.96351044 -246.7247467 356.31712341 C-248.57432307 355.11151358 -250.42941925 353.91431606 -252.29075623 352.72694397 C-260.09716557 347.62230196 -260.09716557 347.62230196 -262 343 C-262.43359375 340.09765625 -262.43359375 340.09765625 -262.4375 337.0625 C-262.45683594 336.06347656 -262.47617187 335.06445312 -262.49609375 334.03515625 C-261.72577357 329.32225245 -259.66375174 326.34992797 -256.01402283 323.3886261 C-253.51929377 321.62774014 -250.98504911 319.94874174 -248.421875 318.2890625 C-247.03201385 317.36956314 -247.03201385 317.36956314 -245.61407471 316.43148804 C-242.66645466 314.4849975 -239.7085228 312.55486866 -236.75 310.625 C-234.74408874 309.30445254 -232.73887207 307.98284937 -230.734375 306.66015625 C-225.83089678 303.42783136 -220.91886302 300.20885763 -216 297 C-219.69540873 292.84009676 -224.18460299 290.09383193 -228.81640625 287.09765625 C-230.56727064 285.94889281 -232.31791504 284.79979403 -234.06835938 283.65039062 C-236.81977426 281.85128453 -239.57324103 280.05552908 -242.33081055 278.26586914 C-244.99883949 276.53151946 -247.65804855 274.78428129 -250.31640625 273.03515625 C-251.55397423 272.23961082 -251.55397423 272.23961082 -252.81654358 271.42799377 C-256.88727649 268.73819402 -260.01853712 266.6381564 -262 262 C-262.43359375 259.09765625 -262.43359375 259.09765625 -262.4375 256.0625 C-262.45683594 255.06347656 -262.47617187 254.06445312 -262.49609375 253.03515625 C-261.72577357 248.32225245 -259.66375174 245.34992797 -256.01402283 242.3886261 C-253.51929377 240.62774014 -250.98504911 238.94874174 -248.421875 237.2890625 C-247.4953009 236.67606293 -246.56872681 236.06306335 -245.61407471 235.43148804 C-242.66645466 233.4849975 -239.7085228 231.55486866 -236.75 229.625 C-234.74408874 228.30445254 -232.73887207 226.98284937 -230.734375 225.66015625 C-225.83089678 222.42783136 -220.91886302 219.20885763 -216 216 C-219.69540873 211.84009676 -224.18460299 209.09383193 -228.81640625 206.09765625 C-230.56727064 204.94889281 -232.31791504 203.79979403 -234.06835938 202.65039062 C-236.81977426 200.85128453 -239.57324103 199.05552908 -242.33081055 197.26586914 C-244.99883949 195.53151946 -247.65804855 193.78428129 -250.31640625 192.03515625 C-251.55397423 191.23961082 -251.55397423 191.23961082 -252.81654358 190.42799377 C-256.88727649 187.73819402 -260.01853712 185.6381564 -262 181 C-262.43359375 178.09765625 -262.43359375 178.09765625 -262.4375 175.0625 C-262.45683594 174.06347656 -262.47617187 173.06445312 -262.49609375 172.03515625 C-261.75470178 167.49923843 -259.74086905 164.42850976 -256.23164368 161.54893494 C-254.02222348 159.9998665 -251.77408623 158.53621599 -249.49609375 157.08984375 C-248.64174744 156.53330612 -247.78740112 155.97676849 -246.90716553 155.40336609 C-245.05815913 154.20049989 -243.20569668 153.00293302 -241.35018921 151.81011963 C-236.35893354 148.6011527 -231.3925548 145.35398883 -226.421875 142.11328125 C-225.39551437 141.44576843 -224.36915375 140.77825562 -223.31169128 140.09051514 C-212.51823364 133.06117688 -201.84961675 125.8513145 -191.1875 118.625 C-178.97498346 110.36066345 -166.74068892 102.14857135 -154.36328125 94.1328125 C-145.29691532 88.25728294 -136.27372127 82.31573472 -127.25 76.375 C-126.30774567 75.75471924 -125.36549133 75.13443848 -124.39468384 74.49536133 C-109.20740066 64.49111031 -94.10827488 54.36139595 -79.0458374 44.17041016 C-65.90606079 35.28202786 -52.7341433 26.44744314 -39.42773438 17.80981445 C-38.1835877 17.00212521 -36.93944689 16.19442692 -35.6953125 15.38671875 C-35.10764099 15.00548355 -34.51996948 14.62424835 -33.91448975 14.23146057 C-30.45345768 11.97689768 -27.05037458 9.65672007 -23.6796875 7.26953125 C-9.24270904 -2.88863498 -9.24270904 -2.88863498 0 0 Z " fill="#7ED8F6" transform="translate(262,0)"/>
<path d="M0 0 C3.46013841 1.38838279 6.39910202 3.21126657 9.42041016 5.35839844 C10.75627759 6.27790398 12.09290667 7.19630369 13.43017578 8.11376953 C14.13988525 8.60455994 14.84959473 9.09535034 15.58081055 9.60101318 C19.4780195 12.26922546 23.43664512 14.84346875 27.38916016 17.42871094 C29.12280893 18.56700163 30.85620097 19.70568343 32.58935547 20.84472656 C33.92528748 21.72245728 33.92528748 21.72245728 35.28820801 22.61791992 C51.61713193 33.35051222 67.87766356 44.17710575 84.06103516 55.12792969 C99.40319526 65.50729241 114.81876988 75.75970633 130.32810974 85.88710022 C139.1058336 91.62187632 147.85910655 97.39384661 156.61355591 103.1640625 C159.39178911 104.99507791 162.17059758 106.82521755 164.94946289 108.65527344 C166.27029625 109.52625168 166.27029625 109.52625168 167.61781311 110.41482544 C169.37100187 111.56956611 171.12582154 112.72183468 172.88230896 113.87155151 C177.47305834 116.88477438 182.01009629 119.95455186 186.49707031 123.12060547 C187.43235062 123.77090225 188.36763092 124.42119904 189.33125305 125.09120178 C191.11225037 126.3321441 192.88202866 127.58941022 194.63786316 128.8657074 C199.30161611 132.09084845 202.88748119 134.03625211 208.65213013 133.58615112 C215.73170136 132.08353232 221.69248561 127.3687251 227.55712891 123.34277344 C228.38809082 122.77857193 229.21905273 122.21437042 230.07519531 121.6330719 C231.86599298 120.41685491 233.65541079 119.19860414 235.443573 117.97851562 C240.27689841 114.68201238 245.1222182 111.40323499 249.96728516 108.12402344 C250.95981796 107.45192841 251.95235077 106.77983337 252.97496033 106.08737183 C262.6816656 99.52277373 272.45384956 93.06026944 282.24853516 86.62792969 C283.50091476 85.80489853 283.50091476 85.80489853 284.77859497 84.96524048 C289.9120366 81.59185357 295.0474018 78.22140531 300.18341064 74.85192871 C308.35442831 69.49087868 316.52239686 64.12521064 324.68603516 58.75292969 C325.59339417 58.15591248 326.50075317 57.55889526 327.43560791 56.94378662 C340.6299185 48.25712417 353.75895477 39.47781924 366.84594727 30.63037109 C369.58272537 28.78051404 372.32067214 26.93240137 375.05908203 25.08496094 C376.36505844 24.20384644 376.36505844 24.20384644 377.69741821 23.30493164 C379.39623953 22.1588591 381.09511118 21.01286117 382.79403687 19.86694336 C386.47715811 17.3818126 390.15828688 14.89396682 393.83105469 12.39355469 C397.10564717 10.16437924 400.39433874 7.95678668 403.68603516 5.75292969 C404.57653564 5.1401416 405.46703613 4.52735352 406.38452148 3.89599609 C407.58177856 3.10201416 407.58177856 3.10201416 408.80322266 2.29199219 C409.79878174 1.61837646 409.79878174 1.61837646 410.81445312 0.93115234 C413.52915279 -0.16096821 415.00545269 0.37271235 417.81103516 1.12792969 C419.98660278 2.27752686 419.98660278 2.27752686 422.18652344 3.73242188 C423.43273972 4.54897247 423.43273972 4.54897247 424.70413208 5.38201904 C425.58761322 5.97363831 426.47109436 6.56525757 427.38134766 7.17480469 C428.29939178 7.78302063 429.21743591 8.39123657 430.16329956 9.0178833 C432.10082687 10.30506375 434.03559372 11.59640771 435.96777344 12.89160156 C438.92354878 14.86957394 441.89189774 16.82752739 444.86181641 18.78417969 C446.74412183 20.03819551 448.62565875 21.29336582 450.50634766 22.54980469 C451.39387726 23.13332703 452.28140686 23.71684937 453.1958313 24.3180542 C460.89006128 29.51570762 460.89006128 29.51570762 462.81103516 34.12792969 C463.24462891 37.03027344 463.24462891 37.03027344 463.24853516 40.06542969 C463.26787109 41.06445312 463.28720703 42.06347656 463.30712891 43.09277344 C462.53680872 47.80567723 460.4747869 50.77800172 456.82505798 53.73930359 C454.33032893 55.50018954 451.79608427 57.17918795 449.23291016 58.83886719 C447.84304901 59.75836655 447.84304901 59.75836655 446.42510986 60.69644165 C443.47748982 62.64293219 440.51955795 64.57306103 437.56103516 66.50292969 C435.5551239 67.82347714 433.54990722 69.14508032 431.54541016 70.46777344 C426.64193194 73.70009833 421.72989818 76.91907206 416.81103516 80.12792969 C420.50644389 84.28783293 424.99563815 87.03409776 429.62744141 90.03027344 C431.37830579 91.17903688 433.1289502 92.32813566 434.87939453 93.47753906 C437.63080942 95.27664516 440.38427619 97.07240061 443.1418457 98.86206055 C445.80987465 100.59641023 448.46908371 102.34364839 451.12744141 104.09277344 C451.95248672 104.62313705 452.77753204 105.15350067 453.62757874 105.69993591 C457.69831164 108.38973566 460.82957228 110.48977328 462.81103516 115.12792969 C463.24462891 118.03027344 463.24462891 118.03027344 463.24853516 121.06542969 C463.26787109 122.06445312 463.28720703 123.06347656 463.30712891 124.09277344 C462.56573693 128.62869126 460.55190421 131.69941993 457.04267883 134.57899475 C454.83325891 136.128063 452.58512226 137.59171585 450.30712891 139.03808594 C449.4530545 139.59444229 448.5989801 140.15079865 447.71902466 140.72401428 C445.87029172 141.92669556 444.01810344 143.12407853 442.16287231 144.31671143 C437.16319467 147.53116013 432.18852113 150.78400282 427.20947266 154.03027344 C426.18187332 154.69861206 425.15427399 155.36695068 424.09553528 156.05554199 C414.3545426 162.39941318 404.71424756 168.88727952 395.09234619 175.40988159 C382.57236359 183.89702167 370.04138319 192.36268329 357.37353516 200.62792969 C356.54080582 201.17132996 356.54080582 201.17132996 355.69125366 201.72570801 C353.36784121 203.24139692 351.04409505 204.75657291 348.72001648 206.27124023 C339.69252262 212.15714935 330.68763204 218.07751531 321.68603516 224.00292969 C320.75341858 224.61678528 319.820802 225.23064087 318.85992432 225.86309814 C303.85776153 235.74395646 288.94405312 245.75065741 274.06643677 255.81781006 C261.4727847 264.33767766 248.83445226 272.78391281 236.12353516 281.12792969 C235.39278778 281.60792419 234.66204041 282.0879187 233.90914917 282.5824585 C230.62365831 284.73916675 227.33525066 286.89107278 224.03833008 289.03027344 C222.11203892 290.28231169 220.19093935 291.54248375 218.28100586 292.81933594 C213.46410912 295.98364663 210.14331311 297.31154879 204.40527344 296.93115234 C199.90347144 295.92511182 196.93854831 293.98420284 193.17431641 291.40136719 C192.44082977 290.91235931 191.70734314 290.42335144 190.95162964 289.91952515 C189.37653373 288.86938541 187.80438674 287.81481148 186.23495483 286.75622559 C183.02248274 284.59821054 179.78294976 282.4828921 176.54281616 280.36672974 C172.1665132 277.50668079 167.80185152 274.62895043 163.43603516 271.75292969 C162.49438507 271.13287048 161.55273499 270.51281128 160.58255005 269.8739624 C146.24165857 260.42576449 131.97214913 250.87661632 117.74853516 241.25292969 C105.00735966 232.63297675 92.24002192 224.05990931 79.37353516 215.62792969 C78.32853348 214.94301453 78.32853348 214.94301453 77.26242065 214.2442627 C73.65852142 211.88293167 70.05353162 209.52327023 66.44824219 207.1640625 C57.72768226 201.45610218 49.01698373 195.73314682 40.31103516 190.00292969 C38.9350415 189.09726761 38.9350415 189.09726761 37.53125 188.17330933 C21.51547227 177.62510425 5.59046744 166.94570219 -10.29052734 156.19580078 C-11.11972687 155.63475647 -11.94892639 155.07371216 -12.80325317 154.4956665 C-14.43933642 153.3877873 -16.07450619 152.27855777 -17.70870972 151.16790771 C-22.11135256 148.18179228 -26.53857109 145.24087657 -31.00195312 142.34619141 C-31.9628334 141.71881577 -32.92371368 141.09144012 -33.91371155 140.4450531 C-35.76328792 139.23944327 -37.61838409 138.04224575 -39.47972107 136.85487366 C-47.28613042 131.75023165 -47.28613042 131.75023165 -49.18896484 127.12792969 C-49.62255859 124.22558594 -49.62255859 124.22558594 -49.62646484 121.19042969 C-49.64580078 120.19140625 -49.66513672 119.19238281 -49.68505859 118.16308594 C-48.91473841 113.45018214 -46.85271658 110.47785766 -43.20298767 107.51655579 C-40.70825862 105.75566983 -38.17401396 104.07667143 -35.61083984 102.41699219 C-34.68426575 101.80399261 -33.75769165 101.19099304 -32.80303955 100.55941772 C-29.85541951 98.61292719 -26.89748764 96.68279835 -23.93896484 94.75292969 C-21.93305358 93.43238223 -19.92783691 92.11077905 -17.92333984 90.78808594 C-13.01986163 87.55576104 -8.10782786 84.33678732 -3.18896484 81.12792969 C-6.88437357 76.96802645 -11.37356784 74.22176162 -16.00537109 71.22558594 C-17.75623548 70.07682249 -19.50687989 68.92772372 -21.25732422 67.77832031 C-24.00873911 65.97921422 -26.76220587 64.18345877 -29.51977539 62.39379883 C-32.18780434 60.65944915 -34.8470134 58.91221098 -37.50537109 57.16308594 C-38.33041641 56.63272232 -39.15546173 56.1023587 -40.00550842 55.55592346 C-44.07624133 52.86612371 -47.20750197 50.76608609 -49.18896484 46.12792969 C-49.62255859 43.22558594 -49.62255859 43.22558594 -49.62646484 40.19042969 C-49.64580078 39.19140625 -49.66513672 38.19238281 -49.68505859 37.16308594 C-48.73380155 31.34319051 -45.58612133 28.21135882 -40.97460938 24.8605957 C-39.2656817 23.68825032 -37.54749033 22.52932981 -35.82177734 21.38183594 C-34.45326126 20.45877907 -34.45326126 20.45877907 -33.05709839 19.51707458 C-31.13281235 18.2246745 -29.20450169 16.93824909 -27.27246094 15.6574707 C-24.31722845 13.69259959 -21.38385314 11.69780609 -18.45068359 9.70019531 C-16.57563018 8.44637283 -14.69936752 7.19435644 -12.82177734 5.94433594 C-11.94659454 5.34553116 -11.07141174 4.74672638 -10.16970825 4.129776 C-4.10818734 0.16480556 -4.10818734 0.16480556 0 0 Z " fill="#5E59CD" transform="translate(49.18896484375,215.8720703125)"/>
<path d="M0 0 C0 26.73 0 53.46 0 81 C-3.96 82.485 -3.96 82.485 -8 84 C-10.4909329 85.32373754 -10.4909329 85.32373754 -12.66162109 86.81225586 C-13.48383148 87.35389877 -14.30604187 87.89554169 -15.15316772 88.45359802 C-16.01785675 89.03480911 -16.88254578 89.6160202 -17.7734375 90.21484375 C-19.15736191 91.13131432 -19.15736191 91.13131432 -20.56924438 92.06629944 C-23.50950717 94.01594377 -26.44230895 95.97648952 -29.375 97.9375 C-31.30550676 99.22012804 -33.23649262 100.5020353 -35.16796875 101.78320312 C-40.78516909 105.51238808 -46.39375053 109.25437818 -52 113 C-63.34380351 120.57868464 -74.71445007 128.11418609 -86.11523438 135.60693359 C-92.82184956 140.01519626 -99.51903629 144.43770924 -106.21484375 148.86236572 C-110.7745103 151.8746097 -115.33880156 154.87918404 -119.91583252 157.86497498 C-122.45151885 159.52347029 -124.97511752 161.20011979 -127.5 162.875 C-128.34530273 163.41938721 -129.19060547 163.96377441 -130.06152344 164.5246582 C-134.95316676 167.80406863 -137.56278269 170.6001393 -140 176 C-140.91092324 181.56675311 -139.39358791 184.73044368 -136.484375 189.30078125 C-134.22019531 191.89267116 -132.11058487 192.81777968 -128.73828125 193.37109375 C-127.93777344 193.39300781 -127.13726562 193.41492188 -126.3125 193.4375 C-125.52488281 193.47746094 -124.73726562 193.51742187 -123.92578125 193.55859375 C-116.71305122 192.18153047 -110.1488305 186.90788815 -104.13671875 182.84375 C-103.40361481 182.35270279 -102.67051086 181.86165558 -101.91519165 181.35572815 C-100.33216853 180.29503757 -98.75016619 179.23282223 -97.1690979 178.16921997 C-92.84434432 175.26022128 -88.51180194 172.36286444 -84.1796875 169.46484375 C-82.81820335 168.55356972 -82.81820335 168.55356972 -81.42921448 167.62388611 C-71.09431821 160.71336786 -60.70230353 153.89004331 -50.3125 147.0625 C-36.39677275 137.91644593 -22.5316994 128.70591732 -8.80395508 119.27954102 C-7.77165771 118.57240967 -6.73936035 117.86527832 -5.67578125 117.13671875 C-4.3441394 116.21959106 -4.3441394 116.21959106 -2.9855957 115.28393555 C-1 114 -1 114 0 114 C0 129.84 0 145.68 0 162 C-3.3 163.32 -6.6 164.64 -10 166 C-12.66266358 167.41981527 -12.66266358 167.41981527 -14.81274414 168.94165039 C-15.61801041 169.48644547 -16.42327667 170.03124054 -17.25294495 170.59254456 C-18.50638954 171.46132484 -18.50638954 171.46132484 -19.78515625 172.34765625 C-20.68511826 172.95959335 -21.58508026 173.57153046 -22.51231384 174.20201111 C-25.36857916 176.14659953 -28.2158078 178.10393122 -31.0625 180.0625 C-33.87623748 181.98674433 -36.69183738 183.90822914 -39.50814819 185.82870483 C-41.35329399 187.08711548 -43.19739822 188.34705474 -45.04043579 189.60855103 C-51.43319114 193.97301495 -57.89065559 198.2221911 -64.45680237 202.3217926 C-73.25276046 207.74471349 -73.25276046 207.74471349 -79 216 C-79.4850824 221.23888993 -78.85631117 224.56779301 -76 229 C-71.71926024 232.86310661 -69.04113505 234.37285907 -63.18960571 234.27651978 C-55.92412807 233.35898095 -49.04743604 227.50906377 -43.1640625 223.4765625 C-42.24466888 222.85276703 -41.32527527 222.22897156 -40.37802124 221.58627319 C-37.45720175 219.60376313 -34.54079762 217.61488705 -31.625 215.625 C-28.7158387 213.64301906 -25.80569495 211.66252704 -22.8934021 209.68515015 C-21.08825959 208.45918128 -19.28492791 207.23054 -17.48379517 205.99868774 C-16.64947968 205.43144989 -15.81516418 204.86421204 -14.95556641 204.27978516 C-13.87923447 203.54509506 -13.87923447 203.54509506 -12.78115845 202.79556274 C-8.58868734 200.08883277 -4.27915614 197.56749368 0 195 C0 246.15 0 297.3 0 350 C-7.87459934 348.87505724 -7.87459934 348.87505724 -11.42456055 346.43066406 C-12.22037033 345.89209778 -13.01618011 345.35353149 -13.83610535 344.79864502 C-14.67780777 344.21024841 -15.51951019 343.62185181 -16.38671875 343.015625 C-17.28381058 342.4041864 -18.1809024 341.7927478 -19.10517883 341.16278076 C-21.9743461 339.2037889 -24.83117625 337.22765933 -27.6875 335.25 C-31.41775183 332.68858412 -35.15243815 330.13366236 -38.88671875 327.578125 C-40.28191994 326.62075439 -40.28191994 326.62075439 -41.70530701 325.64404297 C-50.21809995 319.81532223 -58.85756431 314.19524116 -67.52572632 308.60144043 C-75.23381095 303.61248611 -82.89461533 298.55041902 -90.5625 293.5 C-91.49665741 292.88493591 -92.43081482 292.26987183 -93.39328003 291.63616943 C-107.67937047 282.22478314 -121.89345127 272.71153032 -136.0625 263.125 C-149.38743975 254.11042937 -162.74373515 245.14909776 -176.1875 236.3125 C-176.88408722 235.85385559 -177.58067444 235.39521118 -178.29837036 234.92266846 C-185.33737936 230.29121769 -192.40804558 225.72233117 -199.56640625 221.27734375 C-209.05828331 215.37824482 -218.43508548 209.3044711 -227.78613281 203.18505859 C-229.78039178 201.88304075 -231.77785615 200.58592074 -233.77832031 199.29345703 C-236.70868362 197.399604 -239.62867181 195.49064644 -242.546875 193.578125 C-243.43848328 193.00612366 -244.33009155 192.43412231 -245.24871826 191.8447876 C-250.01286475 188.69612398 -253.34707158 186.10648308 -256 181 C-256.53125 178 -256.53125 178 -256.5 175 C-256.51546875 173.515 -256.51546875 173.515 -256.53125 172 C-255.55098923 166.4644098 -252.66211333 163.25247396 -248.18920898 160.11694336 C-246.63262144 159.09594279 -245.06763818 158.08766892 -243.49609375 157.08984375 C-242.64174744 156.53330612 -241.78740112 155.97676849 -240.90716553 155.40336609 C-239.05815913 154.20049989 -237.20569668 153.00293302 -235.35018921 151.81011963 C-230.35893354 148.6011527 -225.3925548 145.35398883 -220.421875 142.11328125 C-219.39551437 141.44576843 -218.36915375 140.77825562 -217.31169128 140.09051514 C-206.51823364 133.06117688 -195.84961675 125.8513145 -185.1875 118.625 C-172.97498346 110.36066345 -160.74068892 102.14857135 -148.36328125 94.1328125 C-139.29691532 88.25728294 -130.27372127 82.31573472 -121.25 76.375 C-120.30774567 75.75471924 -119.36549133 75.13443848 -118.39468384 74.49536133 C-103.20740066 64.49111031 -88.10827488 54.36139595 -73.0458374 44.17041016 C-58.09658973 34.05801386 -43.0735158 24.06854349 -27.94168091 14.23146057 C-24.42786786 11.94361509 -20.94005732 9.62129046 -17.46875 7.26953125 C-16.67291504 6.73602051 -15.87708008 6.20250977 -15.05712891 5.65283203 C-13.67694781 4.72601988 -12.30327143 3.78938081 -10.93896484 2.83935547 C-6.71721259 0.02836916 -5.49218016 0 0 0 Z " fill="#AAFEF4" transform="translate(256,0)"/>
<path d="M0 0 C3.46013841 1.38838279 6.39910202 3.21126657 9.42041016 5.35839844 C10.75627759 6.27790398 12.09290667 7.19630369 13.43017578 8.11376953 C14.13988525 8.60455994 14.84959473 9.09535034 15.58081055 9.60101318 C19.4780195 12.26922546 23.43664512 14.84346875 27.38916016 17.42871094 C29.12280893 18.56700163 30.85620097 19.70568343 32.58935547 20.84472656 C33.92528748 21.72245728 33.92528748 21.72245728 35.28820801 22.61791992 C51.61713193 33.35051222 67.87766356 44.17710575 84.06103516 55.12792969 C99.40319526 65.50729241 114.81876988 75.75970633 130.32810974 85.88710022 C139.1058336 91.62187632 147.85910655 97.39384661 156.61355591 103.1640625 C159.39178911 104.99507791 162.17059758 106.82521755 164.94946289 108.65527344 C166.27029625 109.52625168 166.27029625 109.52625168 167.61781311 110.41482544 C169.37100187 111.56956611 171.12582154 112.72183468 172.88230896 113.87155151 C177.47305834 116.88477438 182.01009629 119.95455186 186.49707031 123.12060547 C187.43235062 123.77090225 188.36763092 124.42119904 189.33125305 125.09120178 C191.11225037 126.3321441 192.88202866 127.58941022 194.63786316 128.8657074 C199.30161611 132.09084845 202.88748119 134.03625211 208.65213013 133.58615112 C215.73170136 132.08353232 221.69248561 127.3687251 227.55712891 123.34277344 C228.38809082 122.77857193 229.21905273 122.21437042 230.07519531 121.6330719 C231.86599298 120.41685491 233.65541079 119.19860414 235.443573 117.97851562 C240.27689841 114.68201238 245.1222182 111.40323499 249.96728516 108.12402344 C250.95981796 107.45192841 251.95235077 106.77983337 252.97496033 106.08737183 C262.6816656 99.52277373 272.45384956 93.06026944 282.24853516 86.62792969 C283.50091476 85.80489853 283.50091476 85.80489853 284.77859497 84.96524048 C289.9120366 81.59185357 295.0474018 78.22140531 300.18341064 74.85192871 C308.35442831 69.49087868 316.52239686 64.12521064 324.68603516 58.75292969 C325.59339417 58.15591248 326.50075317 57.55889526 327.43560791 56.94378662 C340.6299185 48.25712417 353.75895477 39.47781924 366.84594727 30.63037109 C369.58272537 28.78051404 372.32067214 26.93240137 375.05908203 25.08496094 C376.36505844 24.20384644 376.36505844 24.20384644 377.69741821 23.30493164 C379.39623953 22.1588591 381.09511118 21.01286117 382.79403687 19.86694336 C386.47715811 17.3818126 390.15828688 14.89396682 393.83105469 12.39355469 C397.10564717 10.16437924 400.39433874 7.95678668 403.68603516 5.75292969 C404.57653564 5.1401416 405.46703613 4.52735352 406.38452148 3.89599609 C407.58177856 3.10201416 407.58177856 3.10201416 408.80322266 2.29199219 C409.79878174 1.61837646 409.79878174 1.61837646 410.81445312 0.93115234 C413.52915279 -0.16096821 415.00545269 0.37271235 417.81103516 1.12792969 C419.98660278 2.27752686 419.98660278 2.27752686 422.18652344 3.73242188 C423.43273972 4.54897247 423.43273972 4.54897247 424.70413208 5.38201904 C425.58761322 5.97363831 426.47109436 6.56525757 427.38134766 7.17480469 C428.29939178 7.78302063 429.21743591 8.39123657 430.16329956 9.0178833 C432.10082687 10.30506375 434.03559372 11.59640771 435.96777344 12.89160156 C438.92354878 14.86957394 441.89189774 16.82752739 444.86181641 18.78417969 C446.74412183 20.03819551 448.62565875 21.29336582 450.50634766 22.54980469 C451.39387726 23.13332703 452.28140686 23.71684937 453.1958313 24.3180542 C460.89006128 29.51570762 460.89006128 29.51570762 462.81103516 34.12792969 C463.24462891 37.03027344 463.24462891 37.03027344 463.24853516 40.06542969 C463.26787109 41.06445312 463.28720703 42.06347656 463.30712891 43.09277344 C462.54104088 47.77978442 460.49255217 50.76677042 456.85728455 53.7094574 C454.39380041 55.43733207 451.89057363 57.08125269 449.35791016 58.70605469 C448.42489075 59.31753357 447.49187134 59.92901245 446.53057861 60.559021 C443.54781648 62.50977837 440.55461827 64.4438298 437.56103516 66.37792969 C435.59420561 67.66203932 433.62805287 68.94718623 431.66259766 70.23339844 C423.3694569 75.64837906 415.04832662 81.00982663 406.62353516 86.21777344 C398.17200905 91.4511987 389.96139844 97.03069094 381.74169922 102.6187439 C365.51527797 113.64565378 349.20465922 124.53884994 332.81103516 135.31542969 C331.87690796 135.92955719 330.94278076 136.54368469 329.98034668 137.17642212 C328.12612722 138.39537285 326.27189967 139.61431127 324.41766357 140.83323669 C323.5265387 141.41904007 322.63541382 142.00484344 321.71728516 142.60839844 C320.84469055 143.18191544 319.97209595 143.75543243 319.07305908 144.34632874 C312.13234583 148.91054888 305.21533108 153.50881991 298.31103516 158.12792969 C285.55877693 166.65702419 272.74352435 175.08984906 259.92901611 183.52502441 C247.03938638 192.01019491 234.167439 200.52020363 221.35009766 209.11425781 C220.36525391 209.77361328 219.38041016 210.43296875 218.36572266 211.11230469 C217.52509277 211.6765918 216.68446289 212.24087891 215.81835938 212.82226562 C211.26017666 215.78713563 207.15205134 215.88058809 201.81103516 215.12792969 C198.24766853 213.63206954 195.21285812 211.55576705 192.05322266 209.34667969 C191.15636749 208.74674194 190.25951233 208.1468042 189.33547974 207.52868652 C186.43739395 205.58291792 183.56217314 203.60596054 180.68603516 201.62792969 C178.67579968 200.27026213 176.66407162 198.91480204 174.65087891 197.56152344 C169.83237576 194.31687075 165.02959933 191.04985294 160.23132324 187.77539062 C155.4502197 184.52095105 150.6301843 181.32566583 145.81103516 178.12792969 C143.99460394 176.91312327 142.17819906 175.69827747 140.36181641 174.48339844 C134.95731513 170.88010528 129.53228382 167.30856115 124.10400391 163.74121094 C105.18571256 151.30597443 86.31154987 138.8151387 67.56103516 126.12792969 C54.79592794 117.49239648 42.00829569 108.89666538 29.12353516 100.44042969 C28.49870239 100.02962158 27.87386963 99.61881348 27.23010254 99.19555664 C20.64861009 94.87189703 14.02765074 90.62280828 7.33837891 86.46777344 C-2.18366881 80.54618233 -11.59267001 74.45293635 -20.97509766 68.31298828 C-22.96935663 67.01097044 -24.96682099 65.71385043 -26.96728516 64.42138672 C-29.89764846 62.52753369 -32.81763665 60.61857613 -35.73583984 58.70605469 C-36.62744812 58.13405334 -37.5190564 57.562052 -38.43768311 56.97271729 C-43.20182959 53.82405366 -46.53603642 51.23441276 -49.18896484 46.12792969 C-49.72021484 43.12792969 -49.72021484 43.12792969 -49.68896484 40.12792969 C-49.70443359 38.64292969 -49.70443359 38.64292969 -49.72021484 37.12792969 C-48.69532629 31.34032374 -45.57859828 28.20541154 -40.97460938 24.8605957 C-39.2656817 23.68825032 -37.54749033 22.52932981 -35.82177734 21.38183594 C-34.45326126 20.45877907 -34.45326126 20.45877907 -33.05709839 19.51707458 C-31.13281235 18.2246745 -29.20450169 16.93824909 -27.27246094 15.6574707 C-24.31722845 13.69259959 -21.38385314 11.69780609 -18.45068359 9.70019531 C-16.57563018 8.44637283 -14.69936752 7.19435644 -12.82177734 5.94433594 C-11.94659454 5.34553116 -11.07141174 4.74672638 -10.16970825 4.129776 C-4.10818734 0.16480556 -4.10818734 0.16480556 0 0 Z " fill="#FE3C7D" transform="translate(49.18896484375,215.8720703125)"/>
<path d="M0 0 C2.17556763 1.14959717 2.17556763 1.14959717 4.37548828 2.60449219 C5.62170456 3.42104279 5.62170456 3.42104279 6.89309692 4.25408936 C7.77657806 4.84570862 8.6600592 5.43732788 9.5703125 6.046875 C10.48835663 6.65509094 11.40640076 7.26330688 12.3522644 7.88995361 C14.28979171 9.17713406 16.22455857 10.46847802 18.15673828 11.76367188 C21.11251363 13.74164426 24.08086258 15.6995977 27.05078125 17.65625 C28.93308668 18.91026582 30.81462359 20.16543613 32.6953125 21.421875 C33.5828421 22.00539734 34.4703717 22.58891968 35.38479614 23.19012451 C43.07902613 28.38777794 43.07902613 28.38777794 45 33 C45.43359375 35.90234375 45.43359375 35.90234375 45.4375 38.9375 C45.46650391 40.43603516 45.46650391 40.43603516 45.49609375 41.96484375 C44.75470178 46.50076157 42.74086905 49.57149024 39.23164368 52.45106506 C37.02222375 54.00013331 34.77408711 55.46378616 32.49609375 56.91015625 C31.64201935 57.4665126 30.78794495 58.02286896 29.9079895 58.59608459 C28.05925656 59.79876587 26.20706828 60.99614885 24.35183716 62.18878174 C19.35215951 65.40323045 14.37748597 68.65607313 9.3984375 71.90234375 C8.37083817 72.57068237 7.34323883 73.239021 6.28450012 73.9276123 C-3.45649256 80.27148349 -13.09678759 86.75934984 -22.71868896 93.2819519 C-35.23867157 101.76909198 -47.76965197 110.23475361 -60.4375 118.5 C-60.99265289 118.86226685 -61.54780579 119.22453369 -62.11978149 119.59777832 C-64.44319395 121.11346723 -66.76694011 122.62864322 -69.09101868 124.14331055 C-78.11851254 130.02921967 -87.12340312 135.94958562 -96.125 141.875 C-97.05761658 142.48885559 -97.99023315 143.10271118 -98.95111084 143.73516846 C-113.95327363 153.61602678 -128.86698204 163.62272773 -143.74459839 173.68988037 C-156.33825045 182.20974797 -168.97658289 190.65598312 -181.6875 199 C-182.78362106 199.71999176 -182.78362106 199.71999176 -183.90188599 200.45452881 C-187.18733072 202.61120678 -190.47607694 204.7622764 -193.77490234 206.8984375 C-195.70064936 208.15330732 -197.6164448 209.42399315 -199.51025391 210.7265625 C-203.95942436 213.72972634 -205.25880596 214 -211 214 C-211 187.27 -211 160.54 -211 133 C-208.03 132.01 -205.06 131.02 -202 130 C-199.62400335 128.81768459 -199.62400335 128.81768459 -197.72924805 127.45751953 C-196.64929062 126.72560898 -196.64929062 126.72560898 -195.54751587 125.97891235 C-194.79320282 125.4521994 -194.03888977 124.92548645 -193.26171875 124.3828125 C-192.44037445 123.82266449 -191.61903015 123.26251648 -190.77279663 122.68539429 C-188.99988866 121.47490296 -187.23018546 120.25970698 -185.46340942 119.0402832 C-180.65998863 115.72608603 -175.8317719 112.44825668 -171.0078125 109.1640625 C-170.01163406 108.48438416 -169.01545563 107.80470581 -167.98908997 107.10443115 C-157.75169523 100.12721466 -147.41698457 93.30173946 -137.0625 86.5 C-135.22878189 85.29387263 -133.39512329 84.0876548 -131.56152344 82.88134766 C-125.1229896 78.64686766 -118.68130305 74.41719311 -112.23962402 70.1875 C-105.80369127 65.96120618 -99.36942527 61.73239051 -92.9375 57.5 C-92.03545837 56.90652771 -91.13341675 56.31305542 -90.20404053 55.70159912 C-77.06773423 47.05388595 -63.99729427 38.31266799 -50.96810913 29.50445557 C-48.23007243 27.65377535 -45.49087681 25.80482489 -42.7512207 23.95654297 C-41.88067551 23.3692038 -41.01013031 22.78186462 -40.11320496 22.17672729 C-38.41453667 21.03075583 -36.71581761 19.88485962 -35.01704407 18.73904419 C-31.33390736 16.25390356 -27.65276343 13.76604745 -23.97998047 11.265625 C-20.70538798 9.03644955 -17.41669642 6.828857 -14.125 4.625 C-13.23449951 4.01221191 -12.34399902 3.39942383 -11.42651367 2.76806641 C-10.62834229 2.23874512 -9.8301709 1.70942383 -9.0078125 1.1640625 C-8.34410645 0.71498535 -7.68040039 0.2659082 -6.99658203 -0.19677734 C-4.28188236 -1.2888979 -2.80558247 -0.75521734 0 0 Z " fill="#00347B" transform="translate(467,298)"/>
<path d="M0 0 C3.46013841 1.38838279 6.39910202 3.21126657 9.42041016 5.35839844 C10.75627759 6.27790398 12.09290667 7.19630369 13.43017578 8.11376953 C14.13988525 8.60455994 14.84959473 9.09535034 15.58081055 9.60101318 C19.4780195 12.26922546 23.43664512 14.84346875 27.38916016 17.42871094 C29.12280893 18.56700163 30.85620097 19.70568343 32.58935547 20.84472656 C33.92528748 21.72245728 33.92528748 21.72245728 35.28820801 22.61791992 C51.61713193 33.35051222 67.87766356 44.17710575 84.06103516 55.12792969 C99.40319526 65.50729241 114.81876988 75.75970633 130.32810974 85.88710022 C139.1058336 91.62187632 147.85910655 97.39384661 156.61355591 103.1640625 C159.39178911 104.99507791 162.17059758 106.82521755 164.94946289 108.65527344 C165.83034073 109.23584503 166.71121857 109.81641663 167.61878967 110.4145813 C169.36980998 111.56848194 171.12138077 112.72154771 172.8735199 113.87374878 C177.48468073 116.91129558 182.0733407 119.97793877 186.63769531 123.08544922 C187.59102249 123.73123428 188.54434967 124.37701935 189.52656555 125.04237366 C191.35217248 126.28068837 193.17338166 127.52551962 194.98942566 128.77781677 C195.81074478 129.33364944 196.6320639 129.88948212 197.47827148 130.4621582 C198.19622391 130.95394058 198.91417633 131.44572296 199.65388489 131.95240784 C202.15577241 133.45428271 202.15577241 133.45428271 206.81103516 134.12792969 C206.81103516 160.85792969 206.81103516 187.58792969 206.81103516 215.12792969 C198.9364732 214.00299226 198.9364732 214.00299226 195.43408203 211.59033203 C194.64702377 211.05761688 193.85996552 210.52490173 193.04905701 209.9760437 C192.2176973 209.39452545 191.38633759 208.8130072 190.52978516 208.21386719 C189.20739586 207.31198166 189.20739586 207.31198166 187.85829163 206.39187622 C185.00129112 204.44017627 182.15646651 202.47144799 179.31103516 200.50292969 C177.33152676 199.14789099 175.35097188 197.79437981 173.36938477 196.44238281 C169.51508841 193.81244155 165.66374857 191.17826976 161.81445312 188.54101562 C156.38227979 184.82677576 150.90488965 181.19312099 145.37353516 177.62792969 C134.57028194 170.63536998 123.80961399 163.57921823 113.06103516 156.50292969 C112.11878082 155.88264893 111.17652649 155.26236816 110.20571899 154.62329102 C95.92741567 145.21780823 81.72246857 135.70831765 67.56103516 126.12792969 C54.79573017 117.49268228 42.00830072 108.89666868 29.12353516 100.44042969 C28.49870239 100.02962158 27.87386963 99.61881348 27.23010254 99.19555664 C20.64861009 94.87189703 14.02765074 90.62280828 7.33837891 86.46777344 C-2.18366881 80.54618233 -11.59267001 74.45293635 -20.97509766 68.31298828 C-22.96935663 67.01097044 -24.96682099 65.71385043 -26.96728516 64.42138672 C-29.89764846 62.52753369 -32.81763665 60.61857613 -35.73583984 58.70605469 C-36.62744812 58.13405334 -37.5190564 57.562052 -38.43768311 56.97271729 C-43.20182959 53.82405366 -46.53603642 51.23441276 -49.18896484 46.12792969 C-49.72021484 43.12792969 -49.72021484 43.12792969 -49.68896484 40.12792969 C-49.70443359 38.64292969 -49.70443359 38.64292969 -49.72021484 37.12792969 C-48.69532629 31.34032374 -45.57859828 28.20541154 -40.97460938 24.8605957 C-39.2656817 23.68825032 -37.54749033 22.52932981 -35.82177734 21.38183594 C-34.45326126 20.45877907 -34.45326126 20.45877907 -33.05709839 19.51707458 C-31.13281235 18.2246745 -29.20450169 16.93824909 -27.27246094 15.6574707 C-24.31722845 13.69259959 -21.38385314 11.69780609 -18.45068359 9.70019531 C-16.57563018 8.44637283 -14.69936752 7.19435644 -12.82177734 5.94433594 C-11.94659454 5.34553116 -11.07141174 4.74672638 -10.16970825 4.129776 C-4.10818734 0.16480556 -4.10818734 0.16480556 0 0 Z " fill="#FE8859" transform="translate(49.18896484375,215.8720703125)"/>
<path d="M0 0 C9.17082408 4.49176109 17.60394413 10.61139701 26.0625 16.3125 C28.69856977 18.08430027 31.33563179 19.85462107 33.97265625 21.625 C34.63657379 22.07132278 35.30049133 22.51764557 35.98452759 22.97749329 C40.54892165 26.04143393 45.1401068 29.06154727 49.74609375 32.0625 C51.57878319 33.26244474 53.41084727 34.46333726 55.24264526 35.66464233 C56.3998369 36.42048932 57.55939543 37.1727269 58.72146606 37.92105103 C72.35203389 46.70406778 72.35203389 46.70406778 76 54 C76.40399154 59.25189007 75.88990343 62.56881474 73 67 C69.40760111 70.55407997 66.48936381 72.87160657 61.375 73.3125 C53.03327023 73.1751708 45.76530451 67.00880991 39.12890625 62.4765625 C38.20714096 61.85276703 37.28537567 61.22897156 36.3356781 60.58627319 C33.40818942 58.60370369 30.4852597 56.61453274 27.5625 54.625 C25.6038218 53.29642351 23.64484012 51.9682943 21.68554688 50.640625 C18.9127834 48.76155924 16.14045103 46.8818952 13.37049866 44.99868774 C11.71700303 43.87460409 10.06002832 42.75561674 8.39920044 41.64239502 C6.75985648 40.52016683 5.14484175 39.36177446 3.55270386 38.17352295 C2.77210602 37.60498596 1.99150818 37.03644897 1.18725586 36.45068359 C0.50022079 35.93186615 -0.18681427 35.41304871 -0.89466858 34.87850952 C-3.02977023 33.73520408 -3.02977023 33.73520408 -5.49043274 34.67320251 C-7.87917696 35.93612138 -10.10685466 37.25840197 -12.34033203 38.77807617 C-13.1653421 39.33593307 -13.99035217 39.89378998 -14.84036255 40.46855164 C-15.72062103 41.07060928 -16.60087952 41.67266693 -17.5078125 42.29296875 C-18.42907928 42.91722244 -19.35034607 43.54147614 -20.29953003 44.18464661 C-23.24439915 46.18115354 -26.18488844 48.18399508 -29.125 50.1875 C-32.04441536 52.17205454 -34.9647589 54.1552237 -37.88619995 56.13679504 C-39.70079736 57.36812266 -41.51414153 58.60130013 -43.32595825 59.8367157 C-64.41730961 74.17258768 -64.41730961 74.17258768 -73 73 C-78.29112204 70.25268663 -82.09375244 66.71874267 -84 61 C-84.54151185 55.25997435 -83.66949256 52.44201731 -80 48 C-75.1453113 43.66080821 -69.86791943 40.14303579 -64.421875 36.58984375 C-63.03370575 35.67761803 -63.03370575 35.67761803 -61.61749268 34.7469635 C-58.66391979 32.80700863 -55.70709445 30.87208165 -52.75 28.9375 C-49.84668445 27.03356328 -46.94406093 25.12857594 -44.04162598 23.22329712 C-42.13445419 21.97159648 -40.22682338 20.72059497 -38.31872559 19.4703064 C-31.37973436 14.91996238 -24.47028709 10.32687889 -17.59393311 5.68235779 C-16.91228088 5.2245845 -16.23062866 4.76681122 -15.52832031 4.29516602 C-14.93996399 3.89797867 -14.35160767 3.50079132 -13.74542236 3.09156799 C-9.21957502 0.26115273 -5.37047933 -1.13575426 0 0 Z " fill="#6AA9FE" transform="translate(260,162)"/>
<path d="M0 0 C6.10134522 0.40830145 9.70108749 2.30779687 14.66796875 5.765625 C15.40322281 6.26187881 16.13847687 6.75813263 16.89601135 7.26942444 C19.33435613 8.91835821 21.76054153 10.58436336 24.1875 12.25 C26.81544642 14.0323056 29.4465104 15.80994849 32.0776062 17.58760071 C33.91514209 18.82967099 35.75165242 20.07325971 37.58718872 21.31828308 C46.67171964 27.47623346 55.84030587 33.5028849 65.01818848 39.52041626 C81.39483992 50.26359181 97.69472247 61.118044 113.9375 72.0625 C114.870177 72.69000153 115.802854 73.31750305 116.76379395 73.96401978 C119.3950331 75.73519464 122.02410007 77.50954033 124.65234375 79.28515625 C125.42732712 79.80672302 126.20231049 80.32828979 127.0007782 80.86566162 C138.68188277 88.77768533 138.68188277 88.77768533 141 95 C141.81424647 100.49616367 140.5559121 103.83398149 137.47265625 108.265625 C134.70568542 111.52433865 132.03107883 112.72088561 127.82835388 113.2984314 C120.46082852 113.66497955 116.2850202 111.44245239 110.34765625 107.2890625 C109.45900375 106.6945932 108.57035126 106.1001239 107.6547699 105.48764038 C104.77574857 103.55456462 101.91961231 101.59027762 99.0625 99.625 C97.06008509 98.27252893 95.05616656 96.92228152 93.05078125 95.57421875 C89.10662077 92.91833257 85.17066906 90.25102743 81.24267578 87.57128906 C75.02723264 83.33172885 68.76768574 79.16179638 62.5 75 C60.45572868 73.63281323 58.41145787 72.2656257 56.3671875 70.8984375 C50.18319728 66.77040745 43.9708249 62.68573324 37.7578125 58.6015625 C36.76243469 57.94694031 35.76705688 57.29231812 34.74151611 56.61785889 C29.73275062 53.3240889 24.72224174 50.03302282 19.70898438 46.74609375 C17.86061209 45.53134889 16.01230201 44.31650937 14.1640625 43.1015625 C13.31321075 42.54506012 12.46235901 41.98855774 11.58572388 41.41519165 C10.03934518 40.39736009 8.49934892 39.36972719 6.96763611 38.32995605 C5.32059862 37.21669763 3.64248292 36.1496045 1.95776367 35.09423828 C-0.37619436 32.59758134 -0.56840973 30.88539965 -0.56648254 27.51544189 C-0.54067612 26.81425232 -0.51486969 26.11306274 -0.48828125 25.390625 C-0.48120651 24.66381531 -0.47413177 23.93700562 -0.46684265 23.18817139 C-0.4389273 20.87438543 -0.37620383 18.56305002 -0.3125 16.25 C-0.28741299 14.67842046 -0.26460051 13.10680284 -0.24414062 11.53515625 C-0.18911132 7.6891648 -0.10286666 3.84499735 0 0 Z " fill="#6AA9FE" transform="translate(256,81)"/>
<path d="M0 0 C0.27382288 4.55273627 0.47230307 9.10060921 0.60424805 13.65966797 C0.65927006 15.20641581 0.73412755 16.75259903 0.82983398 18.29736328 C1.58717885 30.8441782 1.58717885 30.8441782 -1.71313477 35.3269043 C-4.04089433 37.05679719 -6.4165108 38.47967972 -8.97000122 39.84954834 C-12.32085182 41.74856014 -15.46653208 43.94833527 -18.65501404 46.10549927 C-22.51476886 48.71298159 -26.40780798 51.26873974 -30.29907227 53.82885742 C-33.32535384 55.82096127 -36.347372 57.81941846 -39.36914062 59.81835938 C-41.30443473 61.09413353 -43.239973 62.36953738 -45.17578125 63.64453125 C-46.07275223 64.23829056 -46.96972321 64.83204987 -47.89387512 65.44380188 C-61.47171511 74.35509128 -61.47171511 74.35509128 -69 73 C-74.29112204 70.25268663 -78.09375244 66.71874267 -80 61 C-80.54151185 55.25997435 -79.66949256 52.44201731 -76 48 C-71.1453113 43.66080821 -65.86791943 40.14303579 -60.421875 36.58984375 C-59.03370575 35.67761803 -59.03370575 35.67761803 -57.61749268 34.7469635 C-54.66391979 32.80700863 -51.70709445 30.87208165 -48.75 28.9375 C-45.84668445 27.03356328 -42.94406093 25.12857594 -40.04162598 23.22329712 C-38.13445419 21.97159648 -36.22682338 20.72059497 -34.31872559 19.4703064 C-27.37973436 14.91996238 -20.47028709 10.32687889 -13.59393311 5.68235779 C-12.91228088 5.2245845 -12.23062866 4.76681122 -11.52832031 4.29516602 C-10.93996399 3.89797867 -10.35160767 3.50079132 -9.74542236 3.09156799 C-6.14463175 0.83967306 -4.39805389 0 0 0 Z " fill="#7ED8F6" transform="translate(256,162)"/>
</svg>
