<?xml version="1.0" encoding="UTF-8"?>
<svg version="1.1" xmlns="http://www.w3.org/2000/svg" width="512" height="512">
<path d="M0 0 C0.76119141 0.21430664 1.52238281 0.42861328 2.30664062 0.64941406 C24.49932892 7.02865124 43.99370226 18.4822304 61 34 C61.94746094 34.86367187 62.89492188 35.72734375 63.87109375 36.6171875 C90.90143403 62.45895963 105.33775739 99.46070213 106.35327148 136.52514648 C106.60928044 165.68427915 98.70957135 194.93951258 82 219 C81.31421875 219.98871094 80.6284375 220.97742188 79.921875 221.99609375 C56.73269999 254.06889156 22.89210345 274.44010064 -16 281 C-53.92233065 286.94628445 -92.08156966 276.82546573 -122.97460938 254.55761719 C-126.46390771 251.87418862 -129.74143683 248.95668291 -133 246 C-139.55377097 251.38640924 -145.47246635 257.35885127 -151.4375 263.375 C-152.46525983 264.40778595 -153.49325285 265.44033991 -154.52148438 266.47265625 C-157.01701598 268.97910287 -159.50938082 271.4886708 -162 274 C-160.47467768 277.64674165 -158.30609139 279.87294077 -155.46484375 282.58984375 C-154.12776367 283.89018555 -154.12776367 283.89018555 -152.76367188 285.21679688 C-150.87947743 287.03067584 -148.99144784 288.84057939 -147.09960938 290.64648438 C-146.20951172 291.51466797 -145.31941406 292.38285156 -144.40234375 293.27734375 C-143.58241943 294.06359131 -142.76249512 294.84983887 -141.91772461 295.65991211 C-139.76809178 298.28298413 -139.27619022 299.6534682 -139 303 C-140.00838852 304.80685329 -140.00838852 304.80685329 -141.68157959 306.54551697 C-142.33571587 307.23688688 -142.98985214 307.9282568 -143.66381073 308.64057732 C-144.43475319 309.4191868 -145.20569565 310.19779629 -146 311 C-146.86300972 311.88948397 -147.72601944 312.77896793 -148.61518097 313.69540596 C-151.7500138 316.91253272 -154.92214138 320.09190166 -158.09472656 323.27172852 C-159.30960364 324.49288247 -160.52429476 325.71422144 -161.73881531 326.93572998 C-165.7025333 330.92033405 -169.67144557 334.89974372 -173.640625 338.87890625 C-175.01330477 340.25563847 -176.38595219 341.63240296 -177.75856781 343.00919914 C-184.20647513 349.47611912 -190.65676461 355.94065135 -197.11000562 362.40224892 C-204.53496701 369.83698739 -211.95156827 377.27993724 -219.36120439 384.72994858 C-225.10727135 390.50623964 -230.86105429 396.27477217 -236.62059951 402.03762382 C-240.05248462 405.47185083 -243.48103605 408.90925187 -246.90143585 412.35492134 C-250.12006616 415.59694984 -253.34822947 418.82918179 -256.58368874 422.05441284 C-257.76297624 423.23320785 -258.93890669 424.41537344 -260.11102104 425.60130119 C-271.61343309 437.2315446 -282.62171141 445.87849389 -299.5625 446.375 C-311.25737551 446.04323048 -321.23854129 441.68614979 -329.8125 433.6875 C-333.37390316 429.87470368 -335.80472186 425.71220876 -338 421 C-338.32097656 420.34773438 -338.64195312 419.69546875 -338.97265625 419.0234375 C-342.67489584 410.10362305 -342.42009688 398.12777493 -339.4375 389 C-334.55587109 378.21426 -325.50538786 370.20210723 -317.25927734 361.95288086 C-315.97534535 360.66131504 -314.69181236 359.36935248 -313.40864563 358.07702637 C-309.94475886 354.59132881 -306.4744452 351.11210208 -303.00218916 347.63474345 C-300.83202025 345.4609199 -298.66315233 343.28580671 -296.49470901 341.11026192 C-288.92761911 333.51873987 -281.35488218 325.93289885 -273.77734375 318.35180664 C-266.71432407 311.28513995 -259.66458601 304.20540727 -252.62065732 297.11971563 C-246.56563579 291.03005572 -240.5010831 284.9499988 -234.42906725 278.87728411 C-230.80518333 275.25260623 -227.18541119 271.62403742 -223.57535934 267.98557854 C-220.18651439 264.57065869 -216.78601997 261.16779427 -213.37607384 257.77394867 C-212.1256635 256.52536029 -210.87953521 255.27246702 -209.63799858 254.0150547 C-207.94576157 252.30250035 -206.23892368 250.60598731 -204.5274353 248.91270447 C-203.79187253 248.15734174 -203.79187253 248.15734174 -203.0414499 247.38671917 C-200.82859574 245.22745981 -199.41123962 244.06741337 -196.32196999 243.56099796 C-192.78433678 244.22983873 -190.86789659 246.51473729 -188.48046875 249.03125 C-187.97703445 249.54175903 -187.47360016 250.05226807 -186.95491028 250.57824707 C-185.35363679 252.20745309 -183.77064088 253.85318749 -182.1875 255.5 C-181.10337497 256.60920927 -180.01810068 257.71729651 -178.93164062 258.82421875 C-176.27426155 261.53665169 -173.63314063 264.26403939 -171 267 C-164.44622903 261.61359076 -158.52753365 255.64114873 -152.5625 249.625 C-151.53474017 248.59221405 -150.50674715 247.55966009 -149.47851562 246.52734375 C-146.98298402 244.02089713 -144.49061918 241.5113292 -142 239 C-143.95189566 235.66595304 -145.86544743 232.95211965 -148.5625 230.1875 C-171.95804764 204.17816407 -182.29388103 166.83568437 -181.13623047 132.45849609 C-178.91553701 92.38254064 -161.29089544 57.00603971 -131.71875 30.04125977 C-126.18654814 25.14063937 -120.22896 20.97187802 -114 17 C-112.94554687 16.32195313 -111.89109375 15.64390625 -110.8046875 14.9453125 C-78.878376 -4.45199732 -35.98950159 -10.50893446 0 0 Z " fill="#5B5D6E" transform="translate(374,36)"/>
<path d="M0 0 C17.64938465 14.93152422 30.50995688 34.05127613 36.05859375 56.62109375 C36.35636719 57.74773437 36.65414062 58.874375 36.9609375 60.03515625 C41.08754735 78.10095976 41.07720833 98.0372982 35.05859375 115.62109375 C34.68476563 116.81476563 34.3109375 118.0084375 33.92578125 119.23828125 C29.53647534 132.52247199 22.84800962 143.78728063 14.05859375 154.62109375 C13.02798828 155.90113281 13.02798828 155.90113281 11.9765625 157.20703125 C-2.12665913 173.7959784 -21.97369829 185.14530495 -42.94140625 190.62109375 C-43.99823608 190.89711426 -43.99823608 190.89711426 -45.07641602 191.17871094 C-52.61465559 192.93160953 -60.04508423 192.91736982 -67.75390625 192.87109375 C-69.03072266 192.87882813 -70.30753906 192.8865625 -71.62304688 192.89453125 C-97.6616419 192.84152648 -119.90516894 184.06420643 -139.94140625 167.62109375 C-140.66585937 167.04875 -141.3903125 166.47640625 -142.13671875 165.88671875 C-162.28220886 149.29631513 -174.25700411 123.06290188 -177.94140625 97.62109375 C-178.83179681 82.54217614 -178.8133632 67.99930817 -173.94140625 53.62109375 C-173.66425781 52.62207031 -173.38710937 51.62304688 -173.1015625 50.59375 C-165.24681155 23.62697831 -145.34899623 1.76547729 -121.16967773 -11.72167969 C-82.5636376 -32.52279319 -33.96883206 -27.80509036 0 0 Z " fill="#EFF5FA" transform="translate(405.94140625,90.37890625)"/>
<path d="M0 0 C1.28753174 0.00607269 1.28753174 0.00607269 2.60107422 0.01226807 C3.92147705 0.00939789 3.92147705 0.00939789 5.26855469 0.00646973 C7.13135056 0.00510755 8.99415591 0.00880625 10.85693359 0.01715088 C13.71457158 0.02785 16.57158088 0.01725675 19.42919922 0.00445557 C21.23649228 0.00577716 23.04378495 0.00833954 24.85107422 0.01226807 C25.70942871 0.0082196 26.5677832 0.00417114 27.45214844 0 C33.49615677 0.04797562 33.49615677 0.04797562 35.72607422 2.27789307 C35.91452549 5.35176976 35.97769173 8.33494156 35.953125 11.40924072 C35.95341705 12.35562912 35.95370911 13.30201752 35.95401001 14.27708435 C35.95261302 17.41546697 35.93703445 20.55361425 35.92138672 23.69195557 C35.9176579 25.86385976 35.91481031 28.03576564 35.91281128 30.20767212 C35.90516449 35.93207419 35.88550703 41.65637523 35.86340332 47.3807373 C35.84296739 53.21883782 35.83381439 59.05695461 35.82373047 64.89508057 C35.80226212 76.35606252 35.76811359 87.8169694 35.72607422 99.27789307 C36.74556152 99.26741943 37.76504883 99.2569458 38.81542969 99.24615479 C42.59111023 99.21000579 46.36677543 99.1870113 50.14257812 99.16802979 C51.77802094 99.15796052 53.41344571 99.14430426 55.04882812 99.12701416 C57.39701792 99.10280602 59.74497009 99.09141949 62.09326172 99.08258057 C62.82664764 99.072258 63.56003357 99.06193542 64.31564331 99.05130005 C66.12070119 99.05089938 67.92515252 99.15576552 69.72607422 99.27789307 C71.72607422 101.27789307 71.72607422 101.27789307 71.97607422 103.77789307 C71.72607422 106.27789307 71.72607422 106.27789307 69.72607422 108.27789307 C66.77093601 108.52957535 66.77093601 108.52957535 62.90003967 108.53186035 C61.83484428 108.53654032 61.83484428 108.53654032 60.74812979 108.54131484 C58.35666153 108.54932406 55.96544498 108.54295992 53.57397461 108.53668213 C51.86428172 108.53939072 50.15459001 108.54295091 48.44490051 108.54730225 C43.79204441 108.55644489 39.13927668 108.55287411 34.48641896 108.54654408 C29.62444263 108.54149294 24.76247405 108.54617313 19.90049744 108.54931641 C11.7333744 108.55295899 3.56628748 108.54814966 -4.60083008 108.53863525 C-14.05070898 108.52775378 -23.50050156 108.53127287 -32.95037836 108.54228806 C-41.05401536 108.55135696 -49.15762633 108.55264806 -57.26126677 108.54741073 C-62.10545076 108.54428837 -66.94959415 108.54388889 -71.79377556 108.5504837 C-76.34833768 108.55625063 -80.90278829 108.55227226 -85.45733833 108.54069519 C-87.13152506 108.53804495 -88.80572113 108.53881988 -90.47990417 108.54322052 C-92.76036643 108.5486632 -95.04046846 108.54185758 -97.32090759 108.53186035 C-98.59868041 108.5311063 -99.87645323 108.53035225 -101.19294643 108.52957535 C-104.27392578 108.27789307 -104.27392578 108.27789307 -107.27392578 106.27789307 C-107.58642578 103.77789307 -107.58642578 103.77789307 -107.27392578 101.27789307 C-104.58362429 98.58759158 -102.52454852 99.04132419 -98.86933899 99.02905273 C-97.51959236 99.03983856 -97.51959236 99.03983856 -96.14257812 99.05084229 C-95.19618973 99.05055023 -94.24980133 99.05025818 -93.2747345 99.04995728 C-90.13635187 99.05135426 -86.9982046 99.06693283 -83.85986328 99.08258057 C-81.68795908 99.08630938 -79.51605321 99.08915697 -77.34414673 99.09115601 C-71.61974466 99.0988028 -65.89544362 99.11846026 -60.17108154 99.14056396 C-54.33298103 99.1609999 -48.49486423 99.1701529 -42.65673828 99.18023682 C-31.19575632 99.20170516 -19.73484944 99.2358537 -8.27392578 99.27789307 C-8.278367 98.0671109 -8.28280823 96.85632874 -8.28738403 95.6088562 C-8.32786168 84.21919409 -8.3578772 72.82954649 -8.37755013 61.43982887 C-8.38800403 55.58373653 -8.40219245 49.72770208 -8.42480469 43.87164307 C-8.44647588 38.2241903 -8.45848229 32.57679334 -8.46368027 26.92930222 C-8.46738634 24.7706451 -8.47462297 22.61199116 -8.48538589 20.4533577 C-8.49982476 17.43858396 -8.50190692 14.42404326 -8.50097656 11.40924072 C-8.50816711 10.50940964 -8.51535767 9.60957855 -8.52276611 8.68247986 C-8.49774383 1.22927745 -7.48299394 0.05939788 0 0 Z " fill="#5B9BED" transform="translate(353.27392578125,121.72210693359375)"/>
<path d="M0 0 C11.22 0 22.44 0 34 0 C34 24.42 34 48.84 34 74 C10.24 74 -13.52 74 -38 74 C-38.04125 66.12125 -38.0825 58.2425 -38.125 50.125 C-38.15231201 46.39340576 -38.15231201 46.39340576 -38.18017578 42.58642578 C-38.18601497 40.62272355 -38.19111188 38.65901892 -38.1953125 36.6953125 C-38.20554443 35.66913818 -38.21577637 34.64296387 -38.22631836 33.58569336 C-38.22656006 32.61140381 -38.22680176 31.63711426 -38.22705078 30.63330078 C-38.231492 29.78502716 -38.23593323 28.93675354 -38.24050903 28.06277466 C-38 26 -38 26 -36 24 C-33.41896694 23.82497005 -30.94691837 23.76837721 -28.3671875 23.8046875 C-27.23943405 23.80893234 -27.23943405 23.80893234 -26.08889771 23.81326294 C-23.68410422 23.82447126 -21.27968119 23.84957648 -18.875 23.875 C-17.24609912 23.88502898 -15.61719242 23.89415497 -13.98828125 23.90234375 C-9.99204444 23.92441265 -5.99608506 23.95894649 -2 24 C-2.01571045 23.01604248 -2.01571045 23.01604248 -2.03173828 22.01220703 C-2.07322503 19.04984342 -2.09930262 16.08754084 -2.125 13.125 C-2.14175781 12.09246094 -2.15851563 11.05992187 -2.17578125 9.99609375 C-2.18544922 8.51689453 -2.18544922 8.51689453 -2.1953125 7.0078125 C-2.21102295 5.64100342 -2.21102295 5.64100342 -2.22705078 4.24658203 C-2 2 -2 2 0 0 Z " fill="#FCC009" transform="translate(311,147)"/>
<path d="M0 0 C3.47916167 1.03349806 5.53195216 3.19894929 7.97387695 5.75537109 C8.74453491 6.53308365 8.74453491 6.53308365 9.53076172 7.32650757 C11.16968002 8.98674326 12.79019178 10.66377206 14.41137695 12.34130859 C15.50141866 13.44786608 16.59255407 14.55334732 17.68481445 15.65771484 C25.71471648 23.8222516 25.71471648 23.8222516 29.02441406 27.87255859 C30.98221479 30.20501875 32.83773767 32.11629962 35.1652832 34.05224609 C39.74581239 37.96673169 44.06139717 42.10989873 48.34887695 46.34130859 C49.11522461 47.07865234 49.88157227 47.81599609 50.67114258 48.57568359 C51.39881836 49.29498047 52.12649414 50.01427734 52.8762207 50.75537109 C53.53227295 51.39684082 54.1883252 52.03831055 54.86425781 52.69921875 C56.71895302 55.11731751 57.27414977 56.67478978 57.41137695 59.71630859 C56.40405273 61.51293945 56.40405273 61.51293945 54.73168945 63.24365234 C53.7576416 64.27208252 53.7576416 64.27208252 52.76391602 65.32128906 C51.59940918 66.50682373 51.59940918 66.50682373 50.41137695 67.71630859 C49.49281168 68.68373014 48.57591305 69.65273601 47.66040039 70.62304688 C45.10392508 73.32064587 42.5122898 75.98114676 39.90405273 78.62866211 C38.81577524 79.73878399 37.73382282 80.8551383 36.65795898 81.97729492 C35.08735132 83.61451 33.49818842 85.2314251 31.90356445 86.84521484 C31.42635956 87.3502504 30.94915466 87.85528595 30.45748901 88.37562561 C29.07104492 89.75366211 29.07104492 89.75366211 26.41137695 91.71630859 C21.50122024 91.61223545 18.93995725 88.79104591 15.703125 85.4621582 C15.15619492 84.91581223 14.60926483 84.36946625 14.04576111 83.80656433 C12.24522553 82.0032481 10.45926252 80.18619238 8.6730957 78.36865234 C7.42558307 77.1136773 6.17718278 75.85958407 4.92793274 74.6063385 C1.64589201 71.30904169 -1.62395835 67.99990899 -4.89141846 64.68817139 C-8.22917369 61.30946335 -11.57831284 57.94208183 -14.92651367 54.57373047 C-21.49174475 47.96562892 -28.04415385 41.34496821 -34.58862305 34.71630859 C-33.28417409 31.84895711 -31.8882482 29.75515393 -29.68701172 27.50830078 C-29.10267868 26.90798035 -28.51834564 26.30765991 -27.91630554 25.68914795 C-27.28610001 25.05357971 -26.65589447 24.41801147 -26.0065918 23.76318359 C-25.35539871 23.10296204 -24.70420563 22.44274048 -24.03327942 21.76251221 C-22.65659985 20.37134691 -21.27711003 18.98295777 -19.89501953 17.59716797 C-17.78191926 15.47213754 -15.68819179 13.32917435 -13.59448242 11.18505859 C-12.25383864 9.83495427 -10.91207852 8.48595735 -9.5690918 7.13818359 C-8.94495895 6.49451843 -8.32082611 5.85085327 -7.67778015 5.18768311 C-3.3819647 0.93583745 -3.3819647 0.93583745 0 0 Z " fill="#5B5D6E" transform="translate(177.588623046875,279.28369140625)"/>
<path d="M0 0 C1.42826175 0.00050027 2.85654878 0.01155229 4.28466797 0.03173828 C5.28421509 0.03475952 5.28421509 0.03475952 6.30395508 0.0378418 C8.79499182 0.0483119 11.2859305 0.07623454 13.77685547 0.10205078 C19.34560547 0.14330078 24.91435547 0.18455078 30.65185547 0.22705078 C30.65185547 16.72705078 30.65185547 33.22705078 30.65185547 50.22705078 C18.77185547 50.22705078 6.89185547 50.22705078 -5.34814453 50.22705078 C-5.39398375 43.42756707 -5.4338309 36.62861652 -5.45800781 29.82910156 C-5.46808345 27.51462999 -5.48174428 25.20017119 -5.49902344 22.88574219 C-5.52320318 19.56458385 -5.53461183 16.24359338 -5.54345703 12.92236328 C-5.5537796 11.88274445 -5.56410217 10.84312561 -5.57473755 9.77200317 C-5.57488861 8.81115814 -5.57503967 7.85031311 -5.57519531 6.86035156 C-5.57963654 6.01207794 -5.58407776 5.16380432 -5.58865356 4.28982544 C-5.14562583 0.49010794 -3.60476077 0.24445293 0 0 Z " fill="#EE5551" transform="translate(278.34814453125,170.77294921875)"/>
<path d="M0 0 C0.71491938 -0.00311998 1.42983876 -0.00623996 2.16642237 -0.00945449 C4.57404357 -0.01746382 6.98141478 -0.01109955 9.38903809 -0.00482178 C11.11020557 -0.00753034 12.8313719 -0.01109051 14.55253601 -0.01544189 C19.23631553 -0.0245842 23.92000726 -0.02101408 28.60378838 -0.01468372 C33.4969291 -0.00963324 38.39006212 -0.01431252 43.28320312 -0.01745605 C51.5016007 -0.02109848 59.71996237 -0.01628936 67.93835449 -0.0067749 C77.45073718 0.00411018 86.96303414 0.00058479 96.47541475 -0.01042771 C104.63084032 -0.01949272 112.78624002 -0.02078973 120.94166899 -0.01555037 C125.81767908 -0.01242633 130.69364884 -0.01203319 135.56965637 -0.01862335 C140.15294232 -0.02438477 144.73611734 -0.0204221 149.31939125 -0.00883484 C151.00528593 -0.00618178 152.69118988 -0.00696428 154.37708092 -0.01136017 C156.67102991 -0.01679176 158.96461912 -0.01001093 161.25854492 0 C163.18764835 0.00113108 163.18764835 0.00113108 165.15572357 0.002285 C168.12927246 0.25396729 168.12927246 0.25396729 170.12927246 2.25396729 C170.37927246 4.75396729 170.37927246 4.75396729 170.12927246 7.25396729 C167.26676976 10.11646999 165.31485758 9.5055665 161.30323792 9.50793457 C160.59310765 9.51105455 159.88297739 9.51417453 159.15132803 9.51738906 C156.75985978 9.52539827 154.36864322 9.51903414 151.97717285 9.51275635 C150.26747997 9.51546494 148.55778825 9.51902513 146.84809875 9.52337646 C142.19524265 9.53251911 137.54247492 9.52894833 132.8896172 9.52261829 C128.02764088 9.51756716 123.16567229 9.52224735 118.30369568 9.52539062 C110.13657264 9.52903321 101.96948572 9.52422388 93.80236816 9.51470947 C84.35248927 9.503828 74.90269668 9.50734709 65.45281988 9.51836228 C57.34918288 9.52743118 49.24557191 9.52872227 41.14193147 9.52348495 C36.29774748 9.52036259 31.45360409 9.51996311 26.60942268 9.52655792 C22.05486056 9.53232485 17.50040995 9.52834648 12.94585991 9.51676941 C11.27167318 9.51411917 9.59747711 9.5148941 7.92329407 9.51929474 C5.64283181 9.52473742 3.36272978 9.5179318 1.08229065 9.50793457 C-0.19548217 9.50718052 -1.47325499 9.50642647 -2.78974819 9.50564957 C-5.87072754 9.25396729 -5.87072754 9.25396729 -8.87072754 7.25396729 C-9.18322754 4.75396729 -9.18322754 4.75396729 -8.87072754 2.25396729 C-6.00093897 -0.61582128 -4.02154999 0.00235793 0 0 Z " fill="#096CC0" transform="translate(254.8707275390625,220.74603271484375)"/>
<path d="M0 0 C3.90743581 1.59410643 6.57780825 4.26865425 9.51879883 7.1965332 C10.326754 7.98959366 10.326754 7.98959366 11.15103149 8.79867554 C12.92529712 10.54380484 14.69174888 12.29656808 16.45703125 14.05078125 C17.68681911 15.26906268 18.91661145 16.4873396 20.14640808 17.70561218 C22.7198986 20.25811692 25.28871972 22.8152286 27.85522461 25.37475586 C31.14852274 28.6570546 34.45997588 31.92037628 37.77605152 35.17963886 C40.3210602 37.68745876 42.85261019 40.20853732 45.38062096 42.73348045 C46.59614501 43.9429419 47.81668049 45.147388 49.04221535 46.34670448 C50.75196615 48.02244481 52.44188423 49.71598147 54.12817383 51.4152832 C54.63977554 51.90845535 55.15137726 52.4016275 55.67848206 52.90974426 C57.05915833 54.32417297 57.05915833 54.32417297 59 57 C58.91034965 60.46346035 58.45606632 61.54393368 56 64 C51.09160396 63.89912513 48.52432782 61.0703639 45.29174805 57.74584961 C44.74481796 57.19950363 44.19788788 56.65315765 43.63438416 56.09025574 C41.83384858 54.28693951 40.04788556 52.46988378 38.26171875 50.65234375 C37.01420612 49.39736871 35.76580582 48.14327548 34.51655579 46.89002991 C31.23451506 43.5927331 27.96466469 40.2836004 24.69720459 36.97186279 C21.35944936 33.59315475 18.01031021 30.22577324 14.66210938 26.85742188 C8.0968783 20.24932033 1.54446919 13.62865962 -5 7 C-3.64062915 4.1394109 -2.35479531 2.14072301 0 0 Z " fill="#9198AF" transform="translate(148,307)"/>
<path d="M0 0 C3.465 2.475 3.465 2.475 7 5 C6.05087463 8.79650148 5.86621536 9.50866646 3.31616211 12.02441406 C2.75565659 12.58469299 2.19515106 13.14497192 1.61766052 13.722229 C1.01035599 14.31404968 0.40305145 14.90587036 -0.22265625 15.515625 C-0.84273056 16.13145447 -1.46280487 16.74728394 -2.10166931 17.3817749 C-4.08167905 19.34500635 -6.07186919 21.29754436 -8.0625 23.25 C-9.40758535 24.58003748 -10.75199488 25.91075879 -12.09570312 27.2421875 C-15.38934906 30.50277537 -18.69216339 33.75381188 -22 37 C-27.18010355 34.49038462 -27.18010355 34.49038462 -29 32 C-28.57253823 28.83176287 -27.56514157 27.19431007 -25.31616211 24.97558594 C-24.47540382 24.13516754 -24.47540382 24.13516754 -23.61766052 23.277771 C-23.01035599 22.68595032 -22.40305145 22.09412964 -21.77734375 21.484375 C-21.15726944 20.86854553 -20.53719513 20.25271606 -19.89833069 19.6182251 C-17.91832095 17.65499365 -15.92813081 15.70245564 -13.9375 13.75 C-12.59241465 12.41996252 -11.24800512 11.08924121 -9.90429688 9.7578125 C-6.61065094 6.49722463 -3.30783661 3.24618812 0 0 Z " fill="#949BB2" transform="translate(233,274)"/>
</svg>
