<?xml version="1.0" encoding="UTF-8"?>
<svg version="1.1" xmlns="http://www.w3.org/2000/svg" width="256" height="256">
<path d="M0 0 C22.03852652 18.81159856 36.46579334 41.06373377 44.3515625 68.91015625 C44.69316406 70.08835937 45.03476563 71.2665625 45.38671875 72.48046875 C52.92056498 104.36791093 46.53869956 140.38566089 29.7109375 168.21484375 C11.42243893 197.30470432 -15.82417005 216.61472176 -48.6484375 225.91015625 C-49.82664063 226.25175781 -51.00484375 226.59335938 -52.21875 226.9453125 C-78.47842447 233.1495213 -108.14583514 229.67794972 -132.6484375 218.91015625 C-133.30263672 218.62688477 -133.95683594 218.34361328 -134.63085938 218.05175781 C-164.72593234 204.76588414 -188.43262339 179.18859339 -200.51953125 148.71386719 C-202.47890077 143.51521742 -204.1350825 138.25415274 -205.6484375 132.91015625 C-205.99003906 131.73195312 -206.33164063 130.55375 -206.68359375 129.33984375 C-214.21743998 97.45240157 -207.83557456 61.43465161 -191.0078125 33.60546875 C-172.71931393 4.51560818 -145.47270495 -14.79440926 -112.6484375 -24.08984375 C-111.47023438 -24.43144531 -110.29203125 -24.77304687 -109.078125 -25.125 C-71.91216204 -33.90596927 -29.43835184 -24.14652242 0 0 Z " fill="#00C5FE" transform="translate(208.6484375,27.08984375)"/>
<path d="M0 0 C7.40128545 6.56238289 12.82397195 15.39631799 13.67578125 25.33984375 C14.18148198 39.67106823 10.571034 48.99374212 1.13671875 59.89453125 C2.04421875 60.05953125 2.95171875 60.22453125 3.88671875 60.39453125 C16.24814473 63.92994923 27.50287514 74.96243273 34.6875 85.23828125 C36.07807753 87.7870487 36.64608893 89.04749114 36.38671875 91.89453125 C35.01154197 95.19495553 34.37479207 96.40676783 31.13671875 97.89453125 C28.41796875 98.40625 28.41796875 98.40625 25.13671875 97.89453125 C22.52412455 95.81888244 20.46859594 93.314552 18.32421875 90.76953125 C8.96228737 80.25432733 -2.50047345 71.95358765 -17.11474609 70.70166016 C-35.30858552 70.10567375 -49.55984182 72.38874805 -63.921875 84.65234375 C-67.80352888 88.37539242 -70.78717196 92.5000894 -73.86328125 96.89453125 C-76.91312121 98.41945123 -79.50561815 98.13015673 -82.86328125 97.89453125 C-84.80078125 96.89453125 -84.80078125 96.89453125 -85.86328125 94.89453125 C-86.58513747 90.70776519 -86.70508273 88.35875564 -84.57421875 84.65234375 C-82.77692679 82.28057491 -80.87708096 80.08511491 -78.86328125 77.89453125 C-78.2496875 77.20101562 -77.63609375 76.5075 -77.00390625 75.79296875 C-70.59992982 68.9391262 -62.50041512 63.56531314 -53.86328125 59.89453125 C-52.87328125 59.89453125 -51.88328125 59.89453125 -50.86328125 59.89453125 C-51.394375 59.20488281 -51.92546875 58.51523438 -52.47265625 57.8046875 C-61.64812509 45.59863497 -64.19386536 37.06319011 -62.86328125 21.89453125 C-61.35216257 12.18019686 -55.10226591 4.27029148 -47.42578125 -1.54296875 C-32.40294628 -11.59202728 -14.81602981 -10.50687931 0 0 Z " fill="#FAFEFF" transform="translate(152.86328125,42.10546875)"/>
<path d="M0 0 C6.61481529 2.92154342 10.96368827 8.37631821 13.6875 14.9375 C14.58113963 21.87729601 14.74263269 29.13315329 11.015625 35.26171875 C6.45663338 41.01409347 0.7709426 45.16467933 -6.625 46.2890625 C-13.46385908 46.69511976 -18.70071395 44.80769728 -24.3125 40.9375 C-28.75061925 36.8294888 -32.01453192 32.65998729 -32.68359375 26.546875 C-32.81585951 18.85990026 -32.87229815 12.78918755 -27.3125 6.9375 C-19.39424225 -0.92773371 -11.06468238 -3.5077858 0 0 Z " fill="#02C2FF" transform="translate(137.3125,50.0625)"/>
<path d="M0 0 C4.19422687 2.04596433 5.06075376 6.02019071 6.5625 10.25 C7.23625463 12.24762337 7.9045352 14.24712038 8.5625 16.25 C9.76648438 16.29898438 10.97046875 16.34796875 12.2109375 16.3984375 C13.78648198 16.47346343 15.36200166 16.54901133 16.9375 16.625 C17.7315625 16.6559375 18.525625 16.686875 19.34375 16.71875 C25.3359375 17.0234375 25.3359375 17.0234375 27.5625 19.25 C28.06640625 21.5703125 28.06640625 21.5703125 27.5625 24.25 C25.06101201 26.53476583 22.53075744 28.42257484 19.74023438 30.32421875 C17.8308273 31.67249044 17.8308273 31.67249044 15.5625 34.25 C15.62778522 38.03654292 16.41237387 40.80845255 17.625 44.375 C18.55886883 47.23886443 18.89402571 49.26626863 18.5625 52.25 C16.5625 54.25 16.5625 54.25 14.21484375 54.59375 C10.07186579 54.05681029 7.9602768 51.50309393 4.94140625 48.78125 C1.85550266 46.79492125 0.17564471 46.7285152 -3.4375 47.25 C-6.09540625 48.7345943 -6.09540625 48.7345943 -8.5 50.75 C-12.81587181 54.18633396 -12.81587181 54.18633396 -16.18359375 54.53125 C-18.4375 54.25 -18.4375 54.25 -19.4375 53.25 C-19.84941911 48.20399096 -19.0923882 44.73291607 -16.99609375 40.2421875 C-16.215214 37.45723173 -16.42109899 35.9646377 -17.4375 33.25 C-20.17913388 31.03017475 -23.0706452 29.26867298 -26.06640625 27.41015625 C-28.4375 25.25 -28.4375 25.25 -28.90234375 22.12109375 C-28.4375 19.25 -28.4375 19.25 -26.4375 17.25 C-23.53782243 16.94324768 -20.71966822 16.73826629 -17.8125 16.625 C-16.60980469 16.56699219 -16.60980469 16.56699219 -15.3828125 16.5078125 C-13.40142444 16.41346069 -11.41949355 16.33063785 -9.4375 16.25 C-9.05658203 14.89455078 -9.05658203 14.89455078 -8.66796875 13.51171875 C-8.32378906 12.33222656 -7.97960937 11.15273437 -7.625 9.9375 C-7.28855469 8.76574219 -6.95210937 7.59398437 -6.60546875 6.38671875 C-5.17281574 2.53915898 -4.21883748 0.43270128 0 0 Z " fill="#F9FEFF" transform="translate(71.4375,150.75)"/>
<path d="M0 0 C3.69756788 1.67270928 4.26689594 4.01215072 5.73046875 7.66796875 C6.73435135 10.49549836 7.68857353 13.33696834 8.625 16.1875 C9.82898438 16.23648438 11.03296875 16.28546875 12.2734375 16.3359375 C13.84898198 16.41096343 15.42450166 16.48651133 17 16.5625 C17.7940625 16.5934375 18.588125 16.624375 19.40625 16.65625 C25.3984375 16.9609375 25.3984375 16.9609375 27.625 19.1875 C28.1875 21.4375 28.1875 21.4375 27.625 24.1875 C25.52026277 26.48733927 23.10872096 28.31444597 20.625 30.1875 C19.655625 30.97125 18.68625 31.755 17.6875 32.5625 C17.006875 33.09875 16.32625 33.635 15.625 34.1875 C16.07255431 37.32038016 16.6086039 40.1421696 17.6875 43.125 C18.75331998 46.6066786 18.76982941 49.56676472 18.625 53.1875 C15.06848352 54.13349203 13.34317354 54.58928306 10.0625 52.75390625 C9.258125 52.09261719 8.45375 51.43132812 7.625 50.75 C4.8219918 48.45458784 3.23716761 47.2784871 -0.37109375 46.7421875 C-4.9081086 47.41477488 -7.42491348 49.92937301 -10.91015625 52.75390625 C-13.375 54.1875 -13.375 54.1875 -16.12109375 53.96484375 C-18.375 53.1875 -18.375 53.1875 -19.375 52.1875 C-19.03812742 48.21240357 -18.59692594 44.84022335 -17.3125 41.0625 C-16.29746912 37.94973864 -16.220129 35.4397911 -16.375 32.1875 C-17.3959375 31.878125 -17.3959375 31.878125 -18.4375 31.5625 C-22.34659432 29.73271117 -25.52423665 27.44665923 -28.375 24.1875 C-28.9375 21.4375 -28.9375 21.4375 -28.375 19.1875 C-25.35406785 16.16656785 -21.81127928 16.72073166 -17.75 16.5625 C-16.54730469 16.50449219 -16.54730469 16.50449219 -15.3203125 16.4453125 C-13.33892444 16.35096069 -11.35699355 16.26813785 -9.375 16.1875 C-9.03726563 15.20007813 -8.69953125 14.21265625 -8.3515625 13.1953125 C-7.90134467 11.90093623 -7.45080716 10.60667113 -7 9.3125 C-6.66742188 8.33603516 -6.66742188 8.33603516 -6.328125 7.33984375 C-3.86227417 0.30491638 -3.86227417 0.30491638 0 0 Z " fill="#FAFDFE" transform="translate(185.375,150.8125)"/>
<path d="M0 0 C3.26907962 1.36845194 3.43747422 2.15365699 4.8125 5.3125 C5.24949219 6.44751953 5.24949219 6.44751953 5.6953125 7.60546875 C6.18644531 8.85263672 6.18644531 8.85263672 6.6875 10.125 C7.05488281 11.19878906 7.42226562 12.27257812 7.80078125 13.37890625 C9.50081888 16.53875934 9.50081888 16.53875934 13.41015625 16.859375 C14.85636959 16.89384021 16.30355921 16.89802028 17.75 16.875 C25.47828249 16.91578249 25.47828249 16.91578249 27.6875 19.125 C28.1875 21.44921875 28.1875 21.44921875 27.6875 24.125 C25.69551938 25.98951757 23.91794928 27.42792791 21.6875 28.9375 C20.82898438 29.54754883 20.82898438 29.54754883 19.953125 30.16992188 C18.54161379 31.16974232 17.11584959 32.14938622 15.6875 33.125 C16.1478492 36.63775468 16.58625837 39.8331859 17.75 43.1875 C18.76587535 46.37057611 18.98935637 48.80457993 18.6875 52.125 C18.0275 52.785 17.3675 53.445 16.6875 54.125 C11.38196331 53.7844419 8.20880899 50.70278492 4.1875 47.5234375 C1.80102067 45.90959286 1.80102067 45.90959286 -0.8125 46.1875 C-4.6979677 47.64455039 -7.58242371 50.17278343 -10.8125 52.7265625 C-13.3125 54.125 -13.3125 54.125 -16.0625 53.8984375 C-18.3125 53.125 -18.3125 53.125 -19.3125 52.125 C-19.19614084 47.87341541 -18.57788934 43.8916803 -17.1875 39.875 C-16.15594483 36.63296947 -16.19301131 35.32353912 -17.3125 32.125 C-20.05034729 29.86979973 -22.94468482 28.08096985 -25.94140625 26.1875 C-28.3125 24.125 -28.3125 24.125 -28.77734375 21.5 C-28.3125 19.125 -28.3125 19.125 -26.3125 17.125 C-23.57815038 16.8186141 -20.92970179 16.6136664 -18.1875 16.5 C-17.05634766 16.44199219 -17.05634766 16.44199219 -15.90234375 16.3828125 C-14.03946816 16.28848969 -12.17601745 16.20565338 -10.3125 16.125 C-9.93158203 15.25488281 -9.93158203 15.25488281 -9.54296875 14.3671875 C-3.29125548 0.1779057 -3.29125548 0.1779057 0 0 Z " fill="#FBFEFF" transform="translate(128.3125,127.875)"/>
</svg>
