<?xml version="1.0" encoding="UTF-8"?>
<svg version="1.1" xmlns="http://www.w3.org/2000/svg" width="512" height="512">
<path d="M0 0 C18.70787367 15.04489165 31.68381897 37.73920387 34.56079102 61.734375 C34.56079102 64.704375 34.56079102 67.674375 34.56079102 70.734375 C42.48079102 70.734375 50.40079102 70.734375 58.56079102 70.734375 C57.07892894 73.69809914 55.76643553 75.96851047 53.83032227 78.578125 C53.28134277 79.3208667 52.73236328 80.0636084 52.16674805 80.82885742 C51.57490723 81.62267822 50.98306641 82.41649902 50.37329102 83.234375 C49.45845947 84.46861206 49.45845947 84.46861206 48.52514648 85.7277832 C41.57494937 95.09156211 34.57295274 104.41694658 27.56079102 113.734375 C24.16164126 112.60132508 23.50824651 111.60919025 21.56079102 108.734375 C21.28404541 109.21793457 21.0072998 109.70149414 20.72216797 110.19970703 C19.44517483 112.42308364 18.15931543 114.6412109 16.87329102 116.859375 C16.43823242 117.61992187 16.00317383 118.38046875 15.55493164 119.1640625 C12.89147228 123.74126674 10.07520468 127.77036967 6.56079102 131.734375 C6.84954102 132.311875 7.13829102 132.889375 7.43579102 133.484375 C8.47745768 135.56770833 9.51912435 137.65104167 10.56079102 139.734375 C-0.83089692 152.33224166 -14.46301639 161.05076107 -30.43920898 166.734375 C-31.06923828 166.95883301 -31.69926758 167.18329102 -32.34838867 167.41455078 C-55.77342852 175.27720584 -82.7038371 172.14318746 -104.72436523 161.640625 C-128.29469866 149.83428914 -145.22260465 129.17820848 -153.53759766 104.39038086 C-161.30707782 79.80060838 -158.82939617 53.41455732 -147.35375977 30.48730469 C-135.34950961 7.47862447 -115.82742644 -8.77012673 -91.43920898 -17.265625 C-59.35076561 -26.722022 -26.28782379 -20.66855925 0 0 Z " fill="#F1F1F1" transform="translate(317.439208984375,333.265625)"/>
<path d="M0 0 C7.41201938 4.41975971 11.89466356 10.10970841 15.2890625 18 C16.12525108 21.3208632 15.91962807 23.84665665 15.5690918 27.21972656 C15.29957421 31.17980248 15.42325751 34.61395372 17.109375 38.2578125 C22.04529924 43.19926099 28.91424754 45.87661109 35.14990234 48.81298828 C39.80209983 51.08420629 44.18592161 53.7626994 48.609375 56.4453125 C50.42196053 57.52288233 52.23580869 58.59833056 54.05078125 59.671875 C55.0061377 60.2380957 55.96149414 60.80431641 56.94580078 61.38769531 C62.49123141 64.66582455 68.04801857 67.92458195 73.60546875 71.18228149 C74.88568584 71.93273068 76.16579891 72.68335737 77.44580078 73.43417358 C80.35420111 75.14010272 83.26393038 76.84355039 86.17700195 78.54150391 C87.93225515 79.56884801 89.68261919 80.60472355 91.42260742 81.65771484 C94.73969745 83.83932938 94.73969745 83.83932938 98.546875 83.7578125 C99.3925 83.2628125 100.238125 82.7678125 101.109375 82.2578125 C102.48056782 81.56275026 103.85587768 80.87577293 105.234375 80.1953125 C105.89695312 79.85371094 106.55953125 79.51210937 107.2421875 79.16015625 C114.1177699 75.83743756 123.87241945 76.17989686 131.2109375 78.046875 C135.44473025 79.72248482 139.22755655 81.88521243 143.109375 84.2578125 C144.2025 83.56558594 145.295625 82.87335938 146.421875 82.16015625 C155.53116706 76.39664439 164.65462406 70.65641244 173.796875 64.9453125 C174.79122559 64.32414551 175.78557617 63.70297852 176.81005859 63.06298828 C182.12605225 59.74314897 187.44355873 56.42574259 192.76171875 53.109375 C193.84557861 52.43302002 194.92943848 51.75666504 196.04614258 51.05981445 C198.1197008 49.76588491 200.19373154 48.47271219 202.26831055 47.18041992 C204.10166572 46.03616371 205.92985305 44.88356337 207.75146484 43.72070312 C210.109375 42.2578125 210.109375 42.2578125 212.11181641 41.23242188 C214.00512265 40.30472867 214.00512265 40.30472867 216.109375 38.2578125 C216.46247421 35.27815077 216.49330427 33.06031156 216.234375 30.1328125 C215.84371028 21.14752391 217.21604547 14.67679215 222.859375 7.4453125 C228.51706987 1.3875786 235.56363592 -2.33326118 243.84375 -3.078125 C254.57322774 -3.31953493 263.41677606 -2.06770443 271.578125 5.5546875 C278.97178791 13.77825135 280.69127567 22.49226885 280.421875 33.26953125 C279.94754865 41.65522581 276.33467977 48.6607495 270.109375 54.2578125 C263.35674254 59.33579211 256.86847535 61.65215831 248.359375 61.6328125 C247.65707764 61.63192627 246.95478027 61.63104004 246.23120117 61.63012695 C238.00222395 61.44394244 232.04970549 58.44032943 225.109375 54.2578125 C224.50802734 54.63365479 223.90667969 55.00949707 223.28710938 55.39672852 C209.15136719 64.23156738 209.15136719 64.23156738 195.015625 73.06640625 C194.0373877 73.67790527 193.05915039 74.2894043 192.05126953 74.91943359 C190.08907001 76.14560475 188.12650438 77.37119024 186.16357422 78.59619141 C181.45051468 81.53846167 176.74154071 84.48672858 172.04498291 87.45529175 C170.36029564 88.5197655 168.67429761 89.58216388 166.98828125 90.64453125 C164.85577474 91.98854796 162.72547924 93.33608066 160.59765625 94.6875 C159.64503906 95.28691406 158.69242187 95.88632813 157.7109375 96.50390625 C156.86869629 97.03685303 156.02645508 97.5697998 155.15869141 98.11889648 C153.109375 99.2578125 153.109375 99.2578125 151.109375 99.2578125 C151.439375 99.9178125 151.769375 100.5778125 152.109375 101.2578125 C152.90510308 112.42409503 152.52134046 121.91238946 145.359375 131.0703125 C139.70168013 137.1280464 132.65511408 140.84888618 124.375 141.59375 C113.64552226 141.83515993 104.80197394 140.58332943 96.640625 132.9609375 C92.50026862 128.35584724 89.63052857 123.26999088 88.109375 117.2578125 C88.33859382 113.92558672 88.57438833 110.64478606 89.15429688 107.35546875 C89.34513183 104.84804239 89.21721619 103.53729295 88.109375 101.2578125 C84.6474493 98.43725049 80.86974502 96.3400766 76.94546509 94.24816895 C74.08378553 92.7046266 71.30680054 91.02230222 68.515625 89.35546875 C66.80732142 88.35595429 65.09899827 87.35647144 63.38949585 86.35900879 C61.54831255 85.28468271 59.70824373 84.20846834 57.8684082 83.13183594 C54.61427619 81.22791244 51.35929177 79.32545178 48.10406494 77.42340088 C42.79763555 74.32261198 37.49233217 71.21990483 32.18847656 68.11471558 C30.34367792 67.03520003 28.49803906 65.95713192 26.65234375 64.87915039 C21.86972292 62.07989057 17.10705442 59.2804775 12.44921875 56.27734375 C9.38519897 54.04685346 9.38519897 54.04685346 6.484375 54.1953125 C3.44764876 55.55384792 0.86652375 57.40095722 -1.890625 59.2578125 C-6.47746256 61.13093664 -10.73046725 61.64221443 -15.640625 61.6328125 C-16.6929834 61.63474609 -16.6929834 61.63474609 -17.76660156 61.63671875 C-22.99989145 61.5308499 -27.1606168 60.50648796 -31.875 58.1328125 C-34.13592983 56.99234182 -34.13592983 56.99234182 -37.890625 57.2578125 C-39.8275627 58.27139699 -39.8275627 58.27139699 -41.69921875 59.7578125 C-42.80330078 60.58152344 -42.80330078 60.58152344 -43.9296875 61.421875 C-44.72117188 62.02773437 -45.51265625 62.63359375 -46.328125 63.2578125 C-47.57916016 64.19753906 -47.57916016 64.19753906 -48.85546875 65.15625 C-51.5422222 67.17931138 -54.21751953 69.21675952 -56.890625 71.2578125 C-58.64192522 72.59114828 -60.39322729 73.92448163 -62.14453125 75.2578125 C-64.77779841 77.26453183 -67.40997996 79.2726186 -70.03955078 81.28417969 C-76.65158864 86.33692441 -83.32642871 91.29753302 -90.03637695 96.21923828 C-97.69850573 101.84035622 -105.29969839 107.5410595 -112.890625 113.2578125 C-112.73053955 113.84481934 -112.5704541 114.43182617 -112.40551758 115.03662109 C-110.26290999 124.27960062 -111.01458645 135.080605 -115.890625 143.2578125 C-120.72736217 150.52722814 -127.51452054 154.96146502 -135.890625 157.2578125 C-146.99039772 158.25632762 -156.6251116 157.60728452 -165.703125 150.5078125 C-171.7608589 144.85011763 -175.48169868 137.80355158 -176.2265625 129.5234375 C-176.46797243 118.79395976 -175.21614193 109.95041144 -167.59375 101.7890625 C-160.74250635 95.62922876 -153.35670638 92.86516562 -144.140625 92.8828125 C-143.0882666 92.88087891 -143.0882666 92.88087891 -142.01464844 92.87890625 C-136.78135855 92.9847751 -132.6206332 94.00913704 -127.90625 96.3828125 C-125.64532017 97.52328318 -125.64532017 97.52328318 -121.890625 97.2578125 C-119.9536873 96.24422801 -119.9536873 96.24422801 -118.08203125 94.7578125 C-117.34597656 94.20867187 -116.60992187 93.65953125 -115.8515625 93.09375 C-115.06007812 92.48789063 -114.26859375 91.88203125 -113.453125 91.2578125 C-112.61910156 90.63132812 -111.78507812 90.00484375 -110.92578125 89.359375 C-108.2390278 87.33631362 -105.56373047 85.29886548 -102.890625 83.2578125 C-101.13932478 81.92447672 -99.38802271 80.59114337 -97.63671875 79.2578125 C-95.00345159 77.25109317 -92.37127004 75.2430064 -89.74169922 73.23144531 C-83.12966136 68.17870059 -76.45482129 63.21809198 -69.74487305 58.29638672 C-62.08274427 52.67526878 -54.48155161 46.9745655 -46.890625 41.2578125 C-47.05071045 40.67080566 -47.2107959 40.08379883 -47.37573242 39.47900391 C-49.51834001 30.23602438 -48.76666355 19.43502 -43.890625 11.2578125 C-34.50132508 -2.85391638 -15.14643312 -7.26825482 0 0 Z " fill="#D8565C" transform="translate(199.890625,10.7421875)"/>
<path d="M0 0 C21.12 0 42.24 0 64 0 C64 84.48 64 168.96 64 256 C42.88 256 21.76 256 0 256 C0 171.52 0 87.04 0 0 Z " fill="#5A6C80" transform="translate(416,128)"/>
<path d="M0 0 C21.12 0 42.24 0 64 0 C64 57.09 64 114.18 64 173 C58.555 175.475 58.555 175.475 53 178 C42.7923892 182.72450095 33.69844435 187.74523051 25 195 C24.06542969 195.77085937 23.13085938 196.54171875 22.16796875 197.3359375 C14.99472177 203.53603069 9.58710188 210.40114308 4 218 C2.68 219.65 1.36 221.3 0 223 C0 149.41 0 75.82 0 0 Z " fill="#596B7F" transform="translate(160,128)"/>
<path d="M0 0 C21.12 0 42.24 0 64 0 C64 58.08 64 116.16 64 176 C42.88 176 21.76 176 0 176 C0 117.92 0 59.84 0 0 Z " fill="#485666" transform="translate(32,208)"/>
<path d="M0 0 C18.70787367 15.04489165 31.68381897 37.73920387 34.56079102 61.734375 C34.56079102 64.704375 34.56079102 67.674375 34.56079102 70.734375 C42.48079102 70.734375 50.40079102 70.734375 58.56079102 70.734375 C57.07892894 73.69809914 55.76643553 75.96851047 53.83032227 78.578125 C53.28134277 79.3208667 52.73236328 80.0636084 52.16674805 80.82885742 C51.57490723 81.62267822 50.98306641 82.41649902 50.37329102 83.234375 C49.45845947 84.46861206 49.45845947 84.46861206 48.52514648 85.7277832 C41.57494937 95.09156211 34.57295274 104.41694658 27.56079102 113.734375 C23.78208792 112.4748073 23.44010496 111.33289737 21.37329102 107.984375 C16.7545319 100.81970769 11.59369895 94.11990737 6.37255859 87.38574219 C5.71022217 86.52754883 5.04788574 85.66935547 4.36547852 84.78515625 C3.77750488 84.02887939 3.18953125 83.27260254 2.58374023 82.4934082 C-0.22202296 78.66672104 -2.80710881 74.68252526 -5.43920898 70.734375 C2.48079102 70.734375 10.40079102 70.734375 18.56079102 70.734375 C14.54367732 45.73900091 5.13679127 25.63852979 -15.43920898 9.734375 C-32.96907753 -2.40752529 -54.93203001 -6.97948683 -75.96655273 -3.89501953 C-95.37558172 -0.06659653 -113.587522 10.77831281 -125.43920898 26.734375 C-138.36176892 46.62450923 -143.83888336 68.63654281 -139.25170898 92.171875 C-133.97142487 113.31757093 -121.93608525 131.41192356 -103.18676758 142.72607422 C-84.11485289 153.7301267 -61.99215747 157.28789547 -40.43920898 151.734375 C-27.6572347 147.47812296 -17.12845946 141.46801826 -6.88452148 132.6875 C-4.77330458 131.00122452 -2.90084706 129.81062607 -0.43920898 128.734375 C0.11766602 129.3325 0.67454102 129.930625 1.24829102 130.546875 C3.46621892 132.81743 3.46621892 132.81743 6.18579102 134.234375 C8.80910949 135.89120772 9.32913986 136.97728434 10.56079102 139.734375 C-0.83089692 152.33224166 -14.46301639 161.05076107 -30.43920898 166.734375 C-31.06923828 166.95883301 -31.69926758 167.18329102 -32.34838867 167.41455078 C-55.77342852 175.27720584 -82.7038371 172.14318746 -104.72436523 161.640625 C-128.29469866 149.83428914 -145.22260465 129.17820848 -153.53759766 104.39038086 C-161.30707782 79.80060838 -158.82939617 53.41455732 -147.35375977 30.48730469 C-135.34950961 7.47862447 -115.82742644 -8.77012673 -91.43920898 -17.265625 C-59.35076561 -26.722022 -26.28782379 -20.66855925 0 0 Z " fill="#2A70CC" transform="translate(317.439208984375,333.265625)"/>
<path d="M0 0 C8.36874897 4.99025401 13.48914268 11.85915309 16.109375 21.2578125 C17.51095314 32.78052125 16.04236419 40.75009618 9.109375 50.2578125 C3.12786858 56.64174443 -2.75225406 60.79557411 -11.625 61.59375 C-12.96328849 61.62285761 -14.30202246 61.63537565 -15.640625 61.6328125 C-16.6929834 61.63474609 -16.6929834 61.63474609 -17.76660156 61.63671875 C-22.99989145 61.5308499 -27.1606168 60.50648796 -31.875 58.1328125 C-34.13592983 56.99234182 -34.13592983 56.99234182 -37.890625 57.2578125 C-39.8275627 58.27139699 -39.8275627 58.27139699 -41.69921875 59.7578125 C-42.80330078 60.58152344 -42.80330078 60.58152344 -43.9296875 61.421875 C-44.72117188 62.02773437 -45.51265625 62.63359375 -46.328125 63.2578125 C-47.57916016 64.19753906 -47.57916016 64.19753906 -48.85546875 65.15625 C-51.5422222 67.17931138 -54.21751953 69.21675952 -56.890625 71.2578125 C-58.64192522 72.59114828 -60.39322729 73.92448163 -62.14453125 75.2578125 C-64.77779841 77.26453183 -67.40997996 79.2726186 -70.03955078 81.28417969 C-76.65158864 86.33692441 -83.32642871 91.29753302 -90.03637695 96.21923828 C-97.69850573 101.84035622 -105.29969839 107.5410595 -112.890625 113.2578125 C-112.73053955 113.84481934 -112.5704541 114.43182617 -112.40551758 115.03662109 C-110.26290999 124.27960062 -111.01458645 135.080605 -115.890625 143.2578125 C-120.72736217 150.52722814 -127.51452054 154.96146502 -135.890625 157.2578125 C-146.99039772 158.25632762 -156.6251116 157.60728452 -165.703125 150.5078125 C-171.7608589 144.85011763 -175.48169868 137.80355158 -176.2265625 129.5234375 C-176.46797243 118.79395976 -175.21614193 109.95041144 -167.59375 101.7890625 C-160.74250635 95.62922876 -153.35670638 92.86516562 -144.140625 92.8828125 C-143.0882666 92.88087891 -143.0882666 92.88087891 -142.01464844 92.87890625 C-136.78135855 92.9847751 -132.6206332 94.00913704 -127.90625 96.3828125 C-125.64532017 97.52328318 -125.64532017 97.52328318 -121.890625 97.2578125 C-119.9536873 96.24422801 -119.9536873 96.24422801 -118.08203125 94.7578125 C-117.34597656 94.20867187 -116.60992187 93.65953125 -115.8515625 93.09375 C-115.06007812 92.48789063 -114.26859375 91.88203125 -113.453125 91.2578125 C-112.61910156 90.63132812 -111.78507812 90.00484375 -110.92578125 89.359375 C-108.2390278 87.33631362 -105.56373047 85.29886548 -102.890625 83.2578125 C-101.13932478 81.92447672 -99.38802271 80.59114337 -97.63671875 79.2578125 C-95.00345159 77.25109317 -92.37127004 75.2430064 -89.74169922 73.23144531 C-83.12966136 68.17870059 -76.45482129 63.21809198 -69.74487305 58.29638672 C-62.08274427 52.67526878 -54.48155161 46.9745655 -46.890625 41.2578125 C-47.05071045 40.67080566 -47.2107959 40.08379883 -47.37573242 39.47900391 C-49.51834001 30.23602438 -48.76666355 19.43502 -43.890625 11.2578125 C-34.50132508 -2.85391638 -15.14643312 -7.26825482 0 0 Z " fill="#D8565C" transform="translate(199.890625,10.7421875)"/>
<path d="M0 0 C21.12 0 42.24 0 64 0 C64 47.19 64 94.38 64 143 C60 138 60 138 58.17578125 135.67578125 C43.18110525 116.65737668 26.355834 102.99445422 3.37890625 94.875 C1 94 1 94 0 93 C-0.09523905 90.10856849 -0.12553027 87.24107936 -0.11352539 84.34936523 C-0.11367142 83.44213715 -0.11381744 82.53490906 -0.1139679 81.60018921 C-0.11326841 78.58630015 -0.10547434 75.57247207 -0.09765625 72.55859375 C-0.0957922 70.47494033 -0.09436824 68.39128646 -0.09336853 66.30763245 C-0.08954234 60.81176554 -0.0797112 55.31592487 -0.06866455 49.82006836 C-0.05665852 43.23220614 -0.05204867 36.64433517 -0.04621124 30.05646515 C-0.03649949 20.03762516 -0.01734364 10.0188428 0 0 Z " fill="#475565" transform="translate(288,208)"/>
<path d="M0 0 C7.6723512 4.7969988 13.25860537 12.77581612 16.10546875 21.31640625 C16.87926224 32.49201383 16.52845309 41.95689348 9.35546875 51.12890625 C3.69777388 57.18664015 -3.34879217 60.90747993 -11.62890625 61.65234375 C-22.35838399 61.89375368 -31.20193231 60.64192318 -39.36328125 53.01953125 C-46.75694416 44.7959674 -48.47643192 36.0819499 -48.20703125 25.3046875 C-47.7327049 16.91899294 -44.11983602 9.91346925 -37.89453125 4.31640625 C-27.22039517 -3.71054408 -12.27872485 -5.90283757 0 0 Z " fill="#D9565C" transform="translate(71.89453125,106.68359375)"/>
<path d="M0 0 C8.34468007 4.97590182 13.53387008 11.86345977 16.109375 21.2578125 C17.10789012 32.35758522 16.45884702 41.9922991 9.359375 51.0703125 C3.70168013 57.1280464 -3.34488592 60.84888618 -11.625 61.59375 C-21.09447878 61.80558731 -28.95189182 61.18635026 -36.640625 55.0703125 C-42.84370193 47.31646633 -48.48279569 39.76886244 -48.328125 29.5078125 C-48.32055176 28.80406494 -48.31297852 28.10031738 -48.30517578 27.37524414 C-48.03899908 18.90324772 -45.42137048 12.02873696 -39.59375 5.7890625 C-28.99673947 -3.73852495 -12.95346121 -6.21592266 0 0 Z " fill="#D9565C" transform="translate(463.890625,10.7421875)"/>
<path d="M0 0 C44.88 0 89.76 0 136 0 C136 5.28 136 10.56 136 16 C91.12 16 46.24 16 0 16 C0 10.72 0 5.44 0 0 Z " fill="#667180" transform="translate(8,400)"/>
<path d="M0 0 C36.96 0 73.92 0 112 0 C112 5.28 112 10.56 112 16 C75.04 16 38.08 16 0 16 C0 10.72 0 5.44 0 0 Z " fill="#667180" transform="translate(392,400)"/>
<path d="M0 0 C2.63034171 2.55600597 5.02501737 5.14642428 7.25 8.0625 C8.03117187 9.06990234 8.03117187 9.06990234 8.828125 10.09765625 C10 12 10 12 10 15 C8.3737793 16.5871582 8.3737793 16.5871582 6.07421875 18.30078125 C5.22472656 18.94080078 4.37523437 19.58082031 3.5 20.24023438 C2.571875 20.92408203 1.64375 21.60792969 0.6875 22.3125 C-0.26511719 23.02599609 -1.21773438 23.73949219 -2.19921875 24.47460938 C-5.12468219 26.6609471 -8.06028771 28.83286912 -11 31 C-11.83192871 31.61407715 -12.66385742 32.2281543 -13.52099609 32.86083984 C-16.61854364 35.14516129 -19.71788777 37.42696077 -22.82250977 39.70166016 C-28.85261213 44.12695194 -34.80940342 48.64295701 -40.75 53.1875 C-47.03791628 57.99151664 -53.33004123 62.78819429 -59.6875 67.5 C-60.3052832 67.96301514 -60.92306641 68.42603027 -61.55957031 68.90307617 C-65.76602909 72 -65.76602909 72 -68 72 C-68.31453125 71.40832031 -68.6290625 70.81664063 -68.953125 70.20703125 C-69.59507813 69.02173828 -69.59507813 69.02173828 -70.25 67.8125 C-70.66765625 67.03519531 -71.0853125 66.25789063 -71.515625 65.45703125 C-73.1384657 62.77080283 -74.995717 60.41113532 -77 58 C-67.22093843 50.30471099 -57.36492463 42.74069593 -47.32104492 35.39404297 C-41.32559849 30.9999405 -35.40191308 26.51878801 -29.5 22 C-19.75725677 14.54207547 -9.90541303 7.24008732 0 0 Z " fill="#7A8898" transform="translate(153,52)"/>
<path d="M0 0 C27.5318278 15.66811291 54.86219996 31.65939035 82 48 C80.44914842 52.09175574 78.46484942 55.37975242 76 59 C75.30570621 60.3191582 74.62469505 61.64649406 74 63 C69.7914736 61.44865284 65.94982009 59.40124253 62.0625 57.1875 C61.36922607 56.79498047 60.67595215 56.40246094 59.96166992 55.99804688 C52.32719839 51.65318486 44.77691569 47.16588674 37.22265625 42.68359375 C29.4638251 38.08300071 21.67745801 33.52942111 13.89126587 28.9753418 C6.56864003 24.69228489 -0.73798867 20.38529767 -8 16 C-6.52587462 12.22568275 -4.84054249 8.73402232 -2.875 5.1875 C-2.33617187 4.21167969 -1.79734375 3.23585937 -1.2421875 2.23046875 C-0.83226562 1.49441406 -0.42234375 0.75835937 0 0 Z " fill="#798899" transform="translate(215,48)"/>
<path d="M0 0 C5.28 0 10.56 0 16 0 C16.11304274 8.64933492 16.20473912 17.29817784 16.25906086 25.94808483 C16.28513507 29.96477428 16.32049178 33.98093138 16.37719727 37.99731445 C16.43159709 41.87473581 16.46143691 45.75164575 16.47438622 49.62941933 C16.48361202 51.10743574 16.50162858 52.58542471 16.52865028 54.06322289 C16.56505088 56.13675374 16.56994139 58.20818254 16.56762695 60.28198242 C16.58428154 62.05069954 16.58428154 62.05069954 16.60127258 63.85514832 C15.81709438 67.95665601 14.17798131 69.37959559 11 72 C8.67724363 73.37296879 6.43622193 74.59900123 4.01953125 75.76953125 C3.36546799 76.09539719 2.71140472 76.42126312 2.03752136 76.75700378 C0.66578238 77.43803329 -0.70834519 78.11427105 -2.0847168 78.78588867 C-4.19681935 79.81704985 -6.30093819 80.86324495 -8.40429688 81.91210938 C-9.7417509 82.57379989 -11.079627 83.2346381 -12.41796875 83.89453125 C-13.04817429 84.20695267 -13.67837982 84.51937408 -14.3276825 84.84126282 C-18.76660615 87 -18.76660615 87 -21 87 C-22.00732399 85.06629769 -23.00563288 83.12789694 -24 81.1875 C-24.8353125 79.56908203 -24.8353125 79.56908203 -25.6875 77.91796875 C-27 75 -27 75 -27 72 C-18.42 67.71 -9.84 63.42 -1 59 C-0.67 39.53 -0.34 20.06 0 0 Z " fill="#2A70CC" transform="translate(248,352)"/>
<path d="M0 0 C2.55534268 2.46753481 4.34852633 4.94866591 6.1875 8 C6.71730469 8.86625 7.24710937 9.7325 7.79296875 10.625 C9 13 9 13 9 16 C7.17773438 17.47949219 7.17773438 17.47949219 4.59375 19.046875 C3.6346875 19.63662109 2.675625 20.22636719 1.6875 20.83398438 C0.635625 21.46626953 -0.41625 22.09855469 -1.5 22.75 C-3.718924 24.10909095 -5.93766918 25.46847391 -8.15625 26.828125 C-9.30846175 27.52951376 -10.46080563 28.23068552 -11.61328125 28.93164062 C-16.7681183 32.07983696 -21.8828273 35.29109832 -27 38.5 C-28.97257781 39.7305945 -30.94523464 40.96106234 -32.91796875 42.19140625 C-36.63389073 44.51271959 -40.34102737 46.84704573 -44.03860474 49.19747925 C-45.71516182 50.26265516 -47.39370089 51.32470942 -49.07226562 52.38671875 C-51.19292357 53.72890732 -53.31025768 55.07636556 -55.42382812 56.4296875 C-56.37322266 57.02910156 -57.32261719 57.62851563 -58.30078125 58.24609375 C-59.13778564 58.77904053 -59.97479004 59.3119873 -60.8371582 59.86108398 C-63 61 -63 61 -66 61 C-66.36351562 60.23816406 -66.36351562 60.23816406 -66.734375 59.4609375 C-68.87798137 55.05829981 -71.19200344 51.01142366 -74 47 C-67.82394304 42.38421006 -61.37470501 38.36749708 -54.75 34.4375 C-44.65799306 28.44519327 -34.75784457 22.17960917 -24.87890625 15.84375 C-19.80186737 12.5922407 -14.71264162 9.35988317 -9.625 6.125 C-7.76296958 4.94018472 -5.90098547 3.75529664 -4.0390625 2.5703125 C-2.69270833 1.71354167 -1.34635417 0.85677083 0 0 Z " fill="#798899" transform="translate(416,49)"/>
</svg>
