<?xml version="1.0" encoding="UTF-8"?>
<svg version="1.1" xmlns="http://www.w3.org/2000/svg" width="512" height="512">
<path d="M0 0 C14.35546434 11.70990834 26.06794902 27.89121936 28.30664062 46.72021484 C29.76601625 68.44058871 26.97909464 88.67535502 12.32739258 105.62890625 C0.32096356 118.77990476 -13.94021367 127.79387214 -31.69335938 130.72021484 C-33.01335937 130.72021484 -34.33335937 130.72021484 -35.69335938 130.72021484 C-35.69335938 188.80021484 -35.69335938 246.88021484 -35.69335938 306.72021484 C-31.07335937 307.05021484 -26.45335937 307.38021484 -21.69335938 307.72021484 C-3.43406294 310.65296935 14.14562602 319.69349631 27.30664062 332.72021484 C28.96572386 336.03838132 29.19029903 339.1758618 28.30664062 342.72021484 C23.63797348 348.17186439 17.05702093 352.0981868 11.11914062 356.03271484 C4.4117734 360.54592017 -2.04517689 365.21713566 -8.40820312 370.20458984 C-12.84253275 373.64306848 -17.45309878 376.8317779 -22.04760742 380.05078125 C-27.27218553 383.71223261 -32.46269057 387.41706806 -37.63085938 391.15771484 C-38.37682373 391.69759033 -39.12278809 392.23746582 -39.89135742 392.79370117 C-41.40349365 393.88859529 -42.91545637 394.98372906 -44.42724609 396.07910156 C-48.17980732 398.79669653 -51.93677188 401.50818971 -55.69335938 404.22021484 C-60.24115424 407.50410027 -64.78845316 410.78866533 -69.33398438 414.07568359 C-76.66669771 419.37703715 -84.00697781 424.66676922 -91.375 429.91894531 C-96.07671103 433.27328029 -100.76193944 436.65013098 -105.44335938 440.03271484 C-106.20277832 440.5812915 -106.96219727 441.12986816 -107.74462891 441.69506836 C-111.54548736 444.44173552 -115.34391802 447.19168208 -119.13867188 449.94677734 C-122.86467789 452.65061927 -126.599837 455.34144195 -130.33984375 458.02587891 C-131.95359041 459.18764258 -133.56411219 460.35389508 -135.171875 461.52392578 C-159.25796662 479.03686923 -184.18350088 490.80507974 -214.56835938 490.97021484 C-215.4784375 490.99083984 -216.38851563 491.01146484 -217.32617188 491.03271484 C-239.22296915 491.15236947 -261.31863843 484.05662696 -282.52502441 479.16833496 C-315.07237073 471.66713028 -345.32281465 467.71894101 -378.75585938 467.15771484 C-381.18359942 467.11441158 -383.61133387 467.07079404 -386.0390625 467.02685547 C-391.92376875 466.92102364 -397.80853172 466.81905256 -403.69335938 466.72021484 C-403.67595703 467.75082031 -403.65855469 468.78142578 -403.640625 469.84326172 C-403.62655046 471.208492 -403.61290098 472.57372671 -403.59960938 473.93896484 C-403.58704102 474.61668945 -403.57447266 475.29441406 -403.56152344 475.99267578 C-403.51158891 482.83370628 -404.89635853 486.78891124 -409.56445312 491.68115234 C-416.42792094 498.0386178 -421.80984139 499.03482747 -430.96289062 499.05615234 C-431.95786057 499.06280914 -432.95283051 499.06946594 -433.97795105 499.07632446 C-436.08008989 499.08643382 -438.18226071 499.09114201 -440.28442383 499.09082031 C-443.48443109 499.09518561 -446.68304976 499.13150245 -449.8828125 499.16943359 C-451.93033385 499.17530383 -453.97786172 499.17927184 -456.02539062 499.18115234 C-456.97460892 499.19552338 -457.92382721 499.20989441 -458.90180969 499.22470093 C-466.13021352 499.17551086 -471.45203793 497.56060629 -476.93554688 492.75537109 C-477.474375 492.10439453 -478.01320313 491.45341797 -478.56835938 490.78271484 C-479.12265625 490.13431641 -479.67695313 489.48591797 -480.24804688 488.81787109 C-483.67177828 483.8488339 -483.98416726 479.25226093 -483.96078491 473.35221863 C-483.96531603 472.51237924 -483.96984714 471.67253986 -483.97451556 470.8072508 C-483.98717042 467.99457277 -483.98553848 465.1820881 -483.98388672 462.36938477 C-483.9898713 460.35209402 -483.99667669 458.33480557 -484.00424194 456.31752014 C-484.02191664 450.83810274 -484.02659796 445.3587478 -484.02787352 439.87930465 C-484.02977278 435.30431181 -484.03713067 430.72933352 -484.04421771 426.15434629 C-484.06050499 415.35948183 -484.06538636 404.56465073 -484.06396484 393.76977539 C-484.06276343 382.63678756 -484.08386456 371.5039936 -484.11545217 360.37105483 C-484.14161029 350.81081391 -484.15233233 341.25063632 -484.15105402 331.69035989 C-484.15054424 325.98136698 -484.15623667 320.27254634 -484.17741013 314.5635891 C-484.19678444 309.19305338 -484.19692232 303.82285439 -484.18237686 298.45230675 C-484.18028665 296.48350024 -484.18500227 294.51467271 -484.19709778 292.54590225 C-484.21256633 289.85326112 -484.20323166 287.16177871 -484.18783569 284.46916199 C-484.19812282 283.69433997 -484.20840995 282.91951795 -484.2190088 282.12121648 C-484.13651346 275.56986958 -482.05668623 270.41713256 -477.72851562 265.47802734 C-476.75205078 264.66978516 -476.75205078 264.66978516 -475.75585938 263.84521484 C-475.10746094 263.29091797 -474.4590625 262.73662109 -473.79101562 262.16552734 C-468.20893965 258.31940423 -462.9914716 258.39957871 -456.42382812 258.38427734 C-455.42885818 258.37762054 -454.43388824 258.37096375 -453.4087677 258.36410522 C-451.30662886 258.35399587 -449.20445804 258.34928767 -447.10229492 258.34960938 C-443.90228766 258.34524408 -440.70366899 258.30892724 -437.50390625 258.27099609 C-435.4563849 258.26512585 -433.40885703 258.26115785 -431.36132812 258.25927734 C-430.41210983 258.24490631 -429.46289154 258.23053528 -428.48490906 258.21572876 C-421.25650523 258.26491883 -415.93468082 259.8798234 -410.45117188 264.68505859 C-405.3009216 270.90725092 -403.60714036 274.51024882 -403.69335938 282.72021484 C-400.96396732 281.05391708 -398.23489172 279.38710165 -395.50585938 277.72021484 C-394.75626953 277.26259766 -394.00667969 276.80498047 -393.234375 276.33349609 C-391.66859843 275.3769966 -390.11430539 274.40145943 -388.57171535 273.40799904 C-385.69335938 271.72021484 -385.69335938 271.72021484 -382.39399052 270.37268639 C-375.89977403 267.43997438 -375.89977403 267.43997438 -371.95037341 261.79332781 C-370.72378468 255.74091215 -371.04795364 249.55843116 -371.18920898 243.41796875 C-371.18956214 241.33451177 -371.18413314 239.251047 -371.17337036 237.1676178 C-371.16000421 231.51957397 -371.2259392 225.87488244 -371.30503535 220.22748232 C-371.37318884 214.31051563 -371.36445669 208.39369617 -371.3629303 202.47640991 C-371.37096833 191.26466207 -371.44171106 180.0542931 -371.53789669 168.84298837 C-371.70783256 148.77562902 -371.76734455 128.70773961 -371.81003195 108.63975656 C-371.82743017 101.60062683 -371.87079969 94.56226845 -371.93628013 87.52342629 C-371.97404083 83.13847081 -371.99590407 78.7535268 -372.01437759 74.36845207 C-372.02658191 72.34076734 -372.04576991 70.31311028 -372.07259941 68.28556633 C-372.37613741 44.86604284 -372.37613741 44.86604284 -363.39648438 35.25146484 C-355.7454447 28.37254844 -348.01130883 26.41194267 -337.93884277 26.5090332 C-336.96198061 26.51029646 -335.98511844 26.51155972 -334.97865438 26.51286125 C-331.70832686 26.51926734 -328.43823755 26.53980328 -325.16796875 26.56005859 C-322.82217178 26.56713173 -320.47637153 26.57318455 -318.13056946 26.57829285 C-313.08053275 26.59051343 -308.03055212 26.608083 -302.98054504 26.62921143 C-294.99724021 26.66067291 -287.01399346 26.66867383 -279.03063965 26.67089844 C-277.66975037 26.67140311 -276.30886109 26.67192198 -274.94797182 26.67245483 C-272.88581806 26.67324219 -270.82366431 26.6740138 -268.76151052 26.67472601 C-260.99383624 26.67750165 -253.22616631 26.6829579 -245.45849609 26.69140625 C-244.39381101 26.69255149 -244.39381101 26.69255149 -243.30761713 26.69371986 C-231.79827422 26.70704277 -220.28919601 26.74983706 -208.77997059 26.80166638 C-196.9574738 26.85403458 -185.13534206 26.86828092 -173.31274462 26.84879208 C-166.67686238 26.83906822 -160.04189765 26.84901709 -153.40617371 26.90158081 C-147.16764136 26.95077887 -140.93081458 26.95378286 -134.69219017 26.92110634 C-132.40160978 26.91742724 -130.11092859 26.93091511 -127.82056618 26.9627285 C-116.23893509 27.71613305 -116.23893509 27.71613305 -106.05921936 23.5165863 C-104.48744973 20.92648622 -103.57460218 18.60438261 -102.69335938 15.72021484 C-99.91746951 12.15734589 -96.8556973 8.94252814 -93.69335938 5.72021484 C-92.7884375 4.77855469 -92.7884375 4.77855469 -91.86523438 3.81787109 C-67.7971404 -19.25610596 -26.0868355 -19.71556974 0 0 Z " fill="#FEAB00" transform="translate(483.693359375,13.27978515625)"/>
<path d="M0 0 C0.67785994 -0.00282738 1.35571987 -0.00565475 2.05412102 -0.00856781 C5.64521535 -0.02347538 9.23627042 -0.03275666 12.82739258 -0.03710938 C15.76078797 -0.04148504 18.69388775 -0.05535251 21.62719727 -0.078125 C53.07548819 -0.3173269 53.07548819 -0.3173269 65.68359375 3.203125 C66.48740479 3.41694824 67.29121582 3.63077148 68.11938477 3.85107422 C82.96144957 8.20802334 95.50380254 17.24306233 107.4921875 26.71484375 C110.7139329 29.25165894 114.02525913 31.64587704 117.37109375 34.015625 C117.94303467 34.42111572 118.51497559 34.82660645 119.10424805 35.24438477 C120.31354024 36.10153955 121.52293491 36.95854977 122.73242188 37.81542969 C127.90787151 41.49626749 133.04894286 45.22495519 138.1875 48.95703125 C141.11240176 51.07889501 144.05667008 53.16760128 147.0234375 55.23046875 C147.7047876 55.71136963 148.3861377 56.19227051 149.08813477 56.68774414 C150.35563029 57.58210507 151.6303823 58.46631517 152.91381836 59.33764648 C157.83379402 62.84180181 161.03616902 66.73150105 162.1796875 72.86328125 C162.16035156 73.65605469 162.14101563 74.44882812 162.12109375 75.265625 C162.11916016 76.45865234 162.11916016 76.45865234 162.1171875 77.67578125 C161.56781184 80.87799791 160.17150464 83.33212041 158.68359375 86.203125 C163.53628852 84.99622917 168.38855918 83.78764618 173.24047852 82.57763672 C174.88392347 82.16801651 176.52747462 81.7588221 178.17114258 81.35009766 C188.70286905 78.73084152 199.20385933 76.02322398 209.68359375 73.203125 C211.29900748 72.77685429 212.91482532 72.35210849 214.53125 71.9296875 C222.06214053 69.96150548 229.58511588 67.96819164 237.09375 65.91650391 C238.98510661 65.39976291 240.87703489 64.88510969 242.76953125 64.37255859 C246.75103167 63.29224669 250.72476949 62.2044037 254.671875 61.00390625 C279.79645878 53.6175532 305.07585845 55.34090522 328.21948242 67.82519531 C334.72108091 71.56024855 344.26197999 77.35989747 347.68359375 84.203125 C348.16444691 87.35538459 348.43552534 89.18712807 347.68359375 92.203125 C343.0149266 97.65477455 336.43397405 101.58109696 330.49609375 105.515625 C323.78872653 110.02883032 317.33177623 114.70004581 310.96875 119.6875 C306.53442038 123.12597864 301.92385434 126.31468806 297.3293457 129.53369141 C292.10476759 133.19514276 286.91426255 136.89997821 281.74609375 140.640625 C281.00012939 141.18050049 280.25416504 141.72037598 279.4855957 142.27661133 C277.97345948 143.37150544 276.46149676 144.46663922 274.94970703 145.56201172 C271.19714581 148.27960669 267.44018125 150.99109986 263.68359375 153.703125 C259.13579889 156.98701043 254.58849996 160.27157548 250.04296875 163.55859375 C242.71025542 168.85994731 235.36997531 174.14967937 228.00195312 179.40185547 C223.3002421 182.75619045 218.61501368 186.13304113 213.93359375 189.515625 C213.1741748 190.06420166 212.41475586 190.61277832 211.63232422 191.17797852 C207.83146577 193.92464568 204.0330351 196.67459224 200.23828125 199.4296875 C196.51227523 202.13352943 192.77711612 204.82435211 189.03710938 207.50878906 C187.42336272 208.67055273 185.81284094 209.83680524 184.20507812 211.00683594 C160.11898651 228.51977938 135.19345225 240.2879899 104.80859375 240.453125 C103.89851563 240.47375 102.9884375 240.494375 102.05078125 240.515625 C80.15398397 240.63527963 58.05831469 233.53953712 36.85192871 228.65124512 C4.30458239 221.15004044 -25.94586152 217.20185117 -59.37890625 216.640625 C-61.80664629 216.59732173 -64.23438075 216.5537042 -66.66210938 216.50976562 C-72.54681562 216.40393379 -78.43157859 216.30196272 -84.31640625 216.203125 C-84.29900391 217.23373047 -84.28160156 218.26433594 -84.26367188 219.32617188 C-84.24959734 220.69140216 -84.23594786 222.05663687 -84.22265625 223.421875 C-84.21008789 224.09959961 -84.19751953 224.77732422 -84.18457031 225.47558594 C-84.13463578 232.31661644 -85.5194054 236.2718214 -90.1875 241.1640625 C-97.05096781 247.52152796 -102.43288826 248.51773763 -111.5859375 248.5390625 C-112.58090744 248.5457193 -113.57587738 248.5523761 -114.60099792 248.55923462 C-116.70313676 248.56934398 -118.80530758 248.57405217 -120.9074707 248.57373047 C-124.10747797 248.57809577 -127.30609663 248.61441261 -130.50585938 248.65234375 C-132.55338073 248.65821399 -134.6009086 248.662182 -136.6484375 248.6640625 C-137.59765579 248.67843353 -138.54687408 248.69280457 -139.52485657 248.70761108 C-146.7532604 248.65842102 -152.0750848 247.04351644 -157.55859375 242.23828125 C-158.36683594 241.26181641 -158.36683594 241.26181641 -159.19140625 240.265625 C-159.74570313 239.61722656 -160.3 238.96882812 -160.87109375 238.30078125 C-164.29482515 233.33174406 -164.60721413 228.73517109 -164.58383179 222.83512878 C-164.5883629 221.9952894 -164.59289401 221.15545002 -164.59756243 220.29016095 C-164.61021729 217.47748293 -164.60858536 214.66499826 -164.60693359 211.85229492 C-164.61291818 209.83500418 -164.61972356 207.81771573 -164.62728882 205.8004303 C-164.64496351 200.3210129 -164.64964483 194.84165795 -164.65092039 189.3622148 C-164.65281966 184.78722197 -164.66017754 180.21224368 -164.66726458 175.63725644 C-164.68355187 164.84239198 -164.68843324 154.04756088 -164.68701172 143.25268555 C-164.6858103 132.11969772 -164.70691143 120.98690376 -164.73849905 109.85396498 C-164.76465716 100.29372406 -164.7753792 90.73354648 -164.7741009 81.17327005 C-164.77359111 75.46427714 -164.77928354 69.75545649 -164.800457 64.04649925 C-164.81983131 58.67596354 -164.81996919 53.30576454 -164.80542374 47.9352169 C-164.80333353 45.9664104 -164.80804915 43.99758287 -164.82014465 42.02881241 C-164.8356132 39.33617128 -164.82627853 36.64468886 -164.81088257 33.95207214 C-164.82116969 33.17725012 -164.83145682 32.40242811 -164.84205568 31.60412663 C-164.75956033 25.05277974 -162.6797331 19.90004272 -158.3515625 14.9609375 C-157.70058594 14.42210937 -157.04960937 13.88328125 -156.37890625 13.328125 C-155.73050781 12.77382813 -155.08210937 12.21953125 -154.4140625 11.6484375 C-148.83198653 7.80231439 -143.61451848 7.88248886 -137.046875 7.8671875 C-136.05190506 7.8605307 -135.05693512 7.8538739 -134.03181458 7.84701538 C-131.92967574 7.83690602 -129.82750492 7.83219783 -127.7253418 7.83251953 C-124.52533453 7.82815423 -121.32671587 7.79183739 -118.12695312 7.75390625 C-116.07943177 7.74803601 -114.0319039 7.744068 -111.984375 7.7421875 C-111.03515671 7.72781647 -110.08593842 7.71344543 -109.10795593 7.69863892 C-101.8795521 7.74782898 -96.5577277 9.36273356 -91.07421875 14.16796875 C-85.92396847 20.39016107 -84.23018724 23.99315898 -84.31640625 32.203125 C-82.40353199 31.03531252 -80.49081163 29.86724999 -78.57836914 28.69873047 C-76.92853513 27.69136645 -75.27796637 26.68520491 -73.62670898 25.68017578 C-70.02849122 23.48734253 -66.43329148 21.29569228 -62.89453125 19.0078125 C-42.65679086 6.05775583 -24.04560933 0.07841071 0 0 Z " fill="#D9D8D8" transform="translate(164.31640625,263.796875)"/>
<path d="M0 0 C0.99496994 -0.0066568 1.98993988 -0.0133136 3.01506042 -0.02017212 C5.11719926 -0.03028148 7.21937008 -0.03498967 9.3215332 -0.03466797 C12.52154047 -0.03903327 15.72015913 -0.07535011 18.91992188 -0.11328125 C20.96744323 -0.11915149 23.0149711 -0.1231195 25.0625 -0.125 C26.48632744 -0.14655655 26.48632744 -0.14655655 27.93891907 -0.16854858 C35.1673229 -0.11935852 40.4891473 1.49554606 45.97265625 6.30078125 C46.51148437 6.95175781 47.0503125 7.60273438 47.60546875 8.2734375 C48.15976563 8.92183594 48.7140625 9.57023437 49.28515625 10.23828125 C52.70888765 15.20731844 53.02127663 19.80389141 52.99789429 25.70393372 C53.0024254 26.5437731 53.00695651 27.38361248 53.01162493 28.24890155 C53.02427979 31.06157957 53.02264786 33.87406424 53.02099609 36.68676758 C53.02698068 38.70405832 53.03378606 40.72134677 53.04135132 42.7386322 C53.05902601 48.2180496 53.06370733 53.69740455 53.06498289 59.1768477 C53.06688216 63.75184053 53.07424004 68.32681882 53.08132708 72.90180606 C53.09761437 83.69667052 53.10249574 94.49150162 53.10107422 105.28637695 C53.0998728 116.41936478 53.12097393 127.55215874 53.15256155 138.68509752 C53.17871966 148.24533844 53.1894417 157.80551602 53.1881634 167.36579245 C53.18765361 173.07478536 53.19334604 178.78360601 53.2145195 184.49256325 C53.23389381 189.86309896 53.23403169 195.23329796 53.21948624 200.6038456 C53.21739603 202.5726521 53.22211165 204.54147963 53.23420715 206.51025009 C53.2496757 209.20289122 53.24034103 211.89437364 53.22494507 214.58699036 C53.23523219 215.36181238 53.24551932 216.13663439 53.25611818 216.93493587 C53.17362283 223.48628276 51.0937956 228.63901978 46.765625 233.578125 C46.11464844 234.11695313 45.46367188 234.65578125 44.79296875 235.2109375 C43.82037109 236.04238281 43.82037109 236.04238281 42.828125 236.890625 C37.24604903 240.73674811 32.02858098 240.65657364 25.4609375 240.671875 C24.46596756 240.6785318 23.47099762 240.6851886 22.44587708 240.69204712 C20.34373824 240.70215648 18.24156742 240.70686467 16.1394043 240.70654297 C12.93939703 240.71090827 9.74077837 240.74722511 6.54101562 240.78515625 C4.49349427 240.79102649 2.4459664 240.7949945 0.3984375 240.796875 C-0.55078079 240.81124603 -1.49999908 240.82561707 -2.47798157 240.84042358 C-9.7063854 240.79123352 -15.0282098 239.17632894 -20.51171875 234.37109375 C-21.31996094 233.39462891 -21.31996094 233.39462891 -22.14453125 232.3984375 C-22.69882812 231.75003906 -23.253125 231.10164062 -23.82421875 230.43359375 C-27.24795015 225.46455656 -27.56033913 220.86798359 -27.53695679 214.96794128 C-27.5414879 214.1281019 -27.54601901 213.28826252 -27.55068743 212.42297345 C-27.56334229 209.61029543 -27.56171036 206.79781076 -27.56005859 203.98510742 C-27.56604318 201.96781668 -27.57284856 199.95052823 -27.58041382 197.9332428 C-27.59808851 192.4538254 -27.60276983 186.97447045 -27.60404539 181.4950273 C-27.60594466 176.92003447 -27.61330254 172.34505618 -27.62038958 167.77006894 C-27.63667687 156.97520448 -27.64155824 146.18037338 -27.64013672 135.38549805 C-27.6389353 124.25251022 -27.66003643 113.11971626 -27.69162405 101.98677748 C-27.71778216 92.42653656 -27.7285042 82.86635898 -27.7272259 73.30608255 C-27.72671611 67.59708964 -27.73240854 61.88826899 -27.753582 56.17931175 C-27.77295631 50.80877604 -27.77309419 45.43857704 -27.75854874 40.0680294 C-27.75645853 38.0992229 -27.76117415 36.13039537 -27.77326965 34.16162491 C-27.7887382 31.46898378 -27.77940353 28.77750136 -27.76400757 26.08488464 C-27.77429469 25.31006262 -27.78458182 24.53524061 -27.79518068 23.73693913 C-27.71268533 17.18559224 -25.6328581 12.03285522 -21.3046875 7.09375 C-20.65371094 6.55492187 -20.00273437 6.01609375 -19.33203125 5.4609375 C-18.68363281 4.90664063 -18.03523438 4.35234375 -17.3671875 3.78125 C-11.78511153 -0.06487311 -6.56764348 0.01530136 0 0 Z " fill="#00BEBD" transform="translate(27.26953125,271.6640625)"/>
<path d="M0 0 C14.35546434 11.70990834 26.06794902 27.89121936 28.30664062 46.72021484 C29.76601625 68.44058871 26.97909464 88.67535502 12.32739258 105.62890625 C-0.81268037 120.02161866 -17.22835406 130.07562867 -37.06054688 131.03271484 C-48.22485823 131.36505725 -58.26829082 131.04459698 -68.69335938 126.72021484 C-69.33321777 126.45708496 -69.97307617 126.19395508 -70.63232422 125.92285156 C-81.04848847 121.520708 -88.87415163 115.82768831 -96.69335938 107.72021484 C-97.35722656 107.08728516 -98.02109375 106.45435547 -98.70507812 105.80224609 C-110.7529862 93.53774641 -115.99970195 74.88375797 -116.19335938 58.15771484 C-116.10724621 49.39295984 -114.85724899 41.94436268 -111.69335938 33.72021484 C-111.25765625 32.52783203 -110.82195312 31.33544922 -110.37304688 30.10693359 C-107.25930391 22.18645627 -103.44422391 15.97305237 -97.69335938 9.72021484 C-97.06558594 9.01251953 -96.4378125 8.30482422 -95.79101562 7.57568359 C-88.04859975 -0.70505977 -78.20405982 -6.22693032 -67.69335938 -10.27978516 C-66.448125 -10.76125 -66.448125 -10.76125 -65.17773438 -11.25244141 C-43.72932016 -17.99426751 -17.86070101 -13.49852865 0 0 Z " fill="#F1F2F2" transform="translate(483.693359375,13.27978515625)"/>
<path d="M0 0 C36.96 0 73.92 0 112 0 C112.061875 15.55125 112.12375 31.1025 112.1875 47.125 C112.22846802 54.48256592 112.22846802 54.48256592 112.27026367 61.98876953 C112.28381348 67.99194336 112.28381348 67.99194336 112.28633118 70.80490112 C112.29092909 72.76382492 112.30146208 74.72274039 112.31672668 76.68161011 C112.33872502 79.65393764 112.34171672 82.62574764 112.34057617 85.59814453 C112.3513705 86.46655031 112.36216482 87.33495609 112.37328625 88.2296772 C112.34767931 93.22364786 111.81114364 96.6918476 109 101 C104.61775981 103.98789104 101.23234967 104.47364188 96 104 C93.03515625 102.26953125 93.03515625 102.26953125 90.0625 99.8125 C89.52036865 99.37413818 88.9782373 98.93577637 88.41967773 98.48413086 C86.59875061 97.00608726 84.79925796 95.50432805 83 94 C80.8943111 92.25990984 78.78504968 90.52439573 76.67163086 88.79370117 C75.29412244 87.66302491 73.92224961 86.52543787 72.55688477 85.38012695 C66.38042375 80.27048787 61.1177028 77.12023091 52.90234375 77.41796875 C47.2107936 78.55934287 43.30787955 82.32437767 39 86 C36.84166308 87.79670897 34.67790194 89.58667937 32.51220703 91.37451172 C31.03474022 92.5994092 29.56401024 93.83249119 28.10107422 95.07470703 C17.90226993 103.64972604 17.90226993 103.64972604 11.375 104.4375 C7.67001914 103.9572247 5.86334405 103.38612004 3 101 C-0.31310077 95.82460099 -0.41434737 91.53305337 -0.34057617 85.59814453 C-0.34093778 84.65576368 -0.34129938 83.71338284 -0.34167194 82.74244499 C-0.33944085 79.70568131 -0.31663213 76.66947677 -0.29296875 73.6328125 C-0.28855541 71.75252549 -0.28549641 69.8722348 -0.28381348 67.99194336 C-0.26811371 61.0362392 -0.22622989 54.08061405 -0.1875 47.125 C-0.0946875 23.798125 -0.0946875 23.798125 0 0 Z " fill="#F3F2F2" transform="translate(224,40)"/>
<path d="M0 0 C14.35546434 11.70990834 26.06794902 27.89121936 28.30664062 46.72021484 C29.76601625 68.44058871 26.97909464 88.67535502 12.32739258 105.62890625 C-0.81268037 120.02161866 -17.22835406 130.07562867 -37.06054688 131.03271484 C-48.22485823 131.36505725 -58.26829082 131.04459698 -68.69335938 126.72021484 C-69.33321777 126.45708496 -69.97307617 126.19395508 -70.63232422 125.92285156 C-81.04848847 121.520708 -88.87415163 115.82768831 -96.69335938 107.72021484 C-97.35722656 107.08728516 -98.02109375 106.45435547 -98.70507812 105.80224609 C-110.7529862 93.53774641 -115.99970195 74.88375797 -116.19335938 58.15771484 C-116.10724621 49.39295984 -114.85724899 41.94436268 -111.69335938 33.72021484 C-111.25765625 32.52783203 -110.82195312 31.33544922 -110.37304688 30.10693359 C-107.25930391 22.18645627 -103.44422391 15.97305237 -97.69335938 9.72021484 C-97.06558594 9.01251953 -96.4378125 8.30482422 -95.79101562 7.57568359 C-88.04859975 -0.70505977 -78.20405982 -6.22693032 -67.69335938 -10.27978516 C-66.448125 -10.76125 -66.448125 -10.76125 -65.17773438 -11.25244141 C-43.72932016 -17.99426751 -17.86070101 -13.49852865 0 0 Z M-85.69335938 20.72021484 C-96.29746001 33.56913517 -100.92579237 47.94601078 -99.93603516 64.46679688 C-98.83871498 74.65619854 -94.66020315 84.46198003 -88.69335938 92.72021484 C-88.0359375 93.65027344 -88.0359375 93.65027344 -87.36523438 94.59912109 C-79.06984 105.25441215 -65.8121135 112.24378451 -52.69335938 114.72021484 C-35.76052299 116.64723943 -21.24894396 112.28146912 -7.55273438 102.13427734 C3.55950816 93.10027864 10.96890524 78.95938498 12.52758789 64.69873047 C13.45885774 48.32736243 9.21779307 33.69481615 -1.44335938 20.97021484 C-11.25897936 10.5597088 -25.28611901 3.20626388 -39.73632812 2.38427734 C-57.44535555 1.99939043 -73.35090966 7.60636202 -85.69335938 20.72021484 Z " fill="#51D8D6" transform="translate(483.693359375,13.27978515625)"/>
<path d="M0 0 C1.30327744 -0.0033284 2.60655487 -0.0066568 3.94932556 -0.01008606 C6.70019356 -0.01604244 9.45103032 -0.01792975 12.2019043 -0.01733398 C14.98973108 -0.01725298 17.77739265 -0.02415847 20.56518555 -0.0378418 C58.45691752 -0.22072086 58.45691752 -0.22072086 72.46484375 4.85546875 C73.21507812 5.119646 73.9653125 5.38382324 74.73828125 5.65600586 C88.42900509 10.61685594 99.45467767 17.79546681 111.02978516 26.45068359 C114.74670151 29.21381925 118.51483827 31.90495414 122.27734375 34.60546875 C130.12572887 40.26689391 137.9345568 45.98089844 145.70703125 51.74609375 C148.73542033 53.99169437 151.78188465 56.20809461 154.84765625 58.40234375 C172.05789024 70.82017454 172.05789024 70.82017454 174 78.921875 C174.16822266 80.03369141 174.16822266 80.03369141 174.33984375 81.16796875 C174.89518799 81.02286865 175.45053223 80.87776855 176.02270508 80.72827148 C188.7693967 77.3985923 201.51887626 74.07990082 214.27319336 70.77954102 C220.63584371 69.13218672 226.99461336 67.47110928 233.34985352 65.79541016 C237.09184797 64.81263837 240.83754629 63.8446392 244.58447266 62.88085938 C246.43978641 62.40083845 248.29361536 61.91504584 250.14599609 61.42382812 C261.19690633 58.50159196 270.84167838 56.53620142 282.33984375 57.16796875 C282.33984375 62.44796875 282.33984375 67.72796875 282.33984375 73.16796875 C279.76171875 73.39484375 277.18359375 73.62171875 274.52734375 73.85546875 C265.35349753 74.8013905 256.75496296 76.93921454 247.90283203 79.45166016 C243.3154273 80.73375631 238.70104019 81.91240822 234.08984375 83.10546875 C232.14314767 83.61296873 230.19653361 84.12078345 228.25 84.62890625 C224.30035181 85.65833931 220.34973422 86.68394505 216.3984375 87.70703125 C207.62982614 89.98072469 198.8719631 92.2748936 190.15234375 94.73046875 C183.61136061 96.56679526 177.04995593 98.30905101 170.46484375 99.98046875 C169.6138208 100.19968994 168.76279785 100.41891113 167.88598633 100.64477539 C167.0895874 100.84449951 166.29318848 101.04422363 165.47265625 101.25 C164.77027832 101.42764893 164.06790039 101.60529785 163.34423828 101.78833008 C161.33984375 102.16796875 161.33984375 102.16796875 157.33984375 102.16796875 C157.66984375 101.38421875 157.99984375 100.60046875 158.33984375 99.79296875 C160.03669849 93.64187033 160.42587658 88.50293933 157.69921875 82.640625 C155.46979764 79.00022148 152.77445212 76.92445615 149.21484375 74.54296875 C147.95502581 73.6820179 146.69594715 72.81998455 145.4375 71.95703125 C144.43807373 71.28075684 144.43807373 71.28075684 143.41845703 70.59082031 C139.7811174 68.10098999 136.22052251 65.50547236 132.65234375 62.91796875 C131.89880615 62.37390381 131.14526855 61.82983887 130.36889648 61.26928711 C125.61517592 57.83329088 120.88638586 54.36512781 116.17138672 50.8762207 C113.00512665 48.53429899 109.83297762 46.20048071 106.65820312 43.87011719 C105.12944263 42.74769531 103.60206487 41.62338736 102.07617188 40.49707031 C80.64418844 24.72938857 60.70837942 17.02253999 34.015625 17 C32.62330594 16.99677843 31.23098721 16.99341372 29.83866882 16.98991394 C26.92800107 16.98395111 24.01736288 16.98207101 21.10668945 16.98266602 C17.41329505 16.98276727 13.72009446 16.96914046 10.0267458 16.95189381 C7.15161809 16.94066353 4.27653554 16.93875018 1.40138817 16.93927574 C-0.61065224 16.93755244 -2.62267856 16.92678101 -4.63468933 16.91572571 C-15.27278088 16.94181485 -25.7639112 17.70095741 -35.78515625 21.48046875 C-36.935 21.91359375 -38.08484375 22.34671875 -39.26953125 22.79296875 C-44.143717 24.76959707 -48.90543281 26.91911307 -53.66015625 29.16796875 C-53.66015625 23.22796875 -53.66015625 17.28796875 -53.66015625 11.16796875 C-35.96000255 2.86612675 -19.56651962 0.017593 0 0 Z " fill="#EA9707" transform="translate(165.66015625,247.83203125)"/>
<path d="M0 0 C5.61 0 11.22 0 17 0 C16.3503125 1.85625 16.3503125 1.85625 15.6875 3.75 C15.12080875 5.49864727 14.55858908 7.24874774 14 9 C13.57074219 10.25296875 13.57074219 10.25296875 13.1328125 11.53125 C7.45421706 30.35173775 10.87303575 49.98095634 19.58618164 67.21191406 C28.67107768 83.92894587 44.55913637 94.58467614 62.03125 101.13671875 C71.08914171 103.74467914 80.63802171 103.71600693 90 104 C90 109.28 90 114.56 90 120 C64.12296549 120.4872245 41.41353409 115.62006332 22.19921875 97.16796875 C21.47347656 96.45253906 20.74773437 95.73710937 20 95 C19.30519531 94.37738281 18.61039062 93.75476563 17.89453125 93.11328125 C4.63955468 80.88383478 -5.19060554 59.67325451 -6.12402344 41.59838867 C-6.55838671 26.6436902 -5.96532174 13.91908405 0 0 Z " fill="#E99706" transform="translate(358,40)"/>
<path d="M0 0 C-5.59306343 13.96720812 -16.22938411 23.99112585 -29.73828125 30.2734375 C-37.34460335 33.45118984 -43.99578671 34.20381698 -52.1875 34.25 C-53.08275391 34.270625 -53.97800781 34.29125 -54.90039062 34.3125 C-64.99628167 34.37081562 -73.14964442 31.31762691 -81.9375 26.5625 C-82.67806641 26.18029297 -83.41863281 25.79808594 -84.18164062 25.40429688 C-90.94366175 21.79992543 -90.94366175 21.79992543 -93 18 C-93.68857448 13.95462494 -93.32640639 12.47940938 -91 9.0625 C-88 7 -88 7 -84.4375 6.75 C-79.40360832 7.71514465 -75.393045 10.63650891 -71.08203125 13.27734375 C-61.25612154 18.76939214 -51.12403648 19.34141373 -40.4375 16.375 C-34.26705681 14.32061395 -27.39823671 11.62363893 -23.67456055 5.99731445 C-21.65764218 3.59165632 -20.42173982 3.20744388 -17.40234375 2.48046875 C-16.51869141 2.26326172 -15.63503906 2.04605469 -14.72460938 1.82226562 C-13.80486328 1.61279297 -12.88511719 1.40332031 -11.9375 1.1875 C-11.01388672 0.95869141 -10.09027344 0.72988281 -9.13867188 0.49414062 C-2.28558298 -1.14279149 -2.28558298 -1.14279149 0 0 Z " fill="#C8C8C7" transform="translate(344,346)"/>
<path d="M0 0 C2.0625 1.5625 2.0625 1.5625 3 4 C3.03656108 9.29354747 2.3712646 12.06049119 -1.20288086 16.01342773 C-2.60550853 17.42167065 -4.02739728 18.81091021 -5.46484375 20.18359375 C-6.21335098 20.92456802 -6.96185822 21.6655423 -7.73304749 22.42897034 C-10.11857636 24.78206227 -12.52760189 27.10939937 -14.9375 29.4375 C-16.55558049 31.02903069 -18.1721352 32.6221142 -19.78710938 34.21679688 C-22.73843077 37.11786176 -25.69237341 40.01590088 -28.66772461 42.89233398 C-29.26427353 43.46999008 -29.86082245 44.04764618 -30.47544861 44.64280701 C-32.52828656 46.47029364 -33.90728331 46.98233968 -36.625 47.5 C-41.83455179 46.72821455 -44.34705039 43.62879787 -48 40 C-49.0480008 38.97768384 -50.09619042 37.95556122 -51.14453125 36.93359375 C-60.80902346 27.43232408 -60.80902346 27.43232408 -61.375 23.1875 C-61 20 -61 20 -58.875 17.125 C-56 15 -56 15 -53.1875 14.25 C-48.3123391 15.39709668 -45.48664978 18.53560543 -42 22 C-40.7625 23.2065625 -40.7625 23.2065625 -39.5 24.4375 C-39.005 24.953125 -38.51 25.46875 -38 26 C-34.01295714 24.40247219 -31.3698311 21.60944346 -28.4296875 18.58984375 C-27.64623459 17.79858849 -27.64623459 17.79858849 -26.84695435 16.99134827 C-25.18479666 15.3114287 -23.52950195 13.62495728 -21.875 11.9375 C-20.21249027 10.24736984 -18.54854046 8.5587228 -16.88162231 6.87294006 C-15.8460278 5.82509029 -14.81311817 4.77457886 -13.78317261 3.72117615 C-9.19768654 -0.9283773 -6.41151562 -1.64867545 0 0 Z " fill="#FEAD05" transform="translate(469,49)"/>
</svg>
