<?xml version="1.0" encoding="UTF-8"?>
<svg version="1.1" xmlns="http://www.w3.org/2000/svg" width="512" height="512">
<path d="M0 0 C3.64839663 2.08309759 6.30921762 4.58095267 9.1875 7.625 C14.50084629 13.23768975 20.27935891 16.13472623 28.0625 16.5 C31.75222079 16.34382134 35.07237307 15.48003502 38.625 14.5 C46.7752289 12.32522482 53.5523825 12.79020455 60.9453125 16.9765625 C69.09167494 22.05433999 72.08380073 28.53292011 74.5625 37.625 C76.79037701 45.25325088 80.39618137 50.50804633 87.4375 54.375 C90.61479289 55.79739275 93.80897081 56.62086656 97.1875 57.4375 C105.44988601 59.57748086 110.46411842 63.85150331 114.77734375 71.1328125 C118.57833694 79.1915706 117.12125048 88.84859214 114.6875 97.0625 C113.69287602 105.15798376 114.96181761 111.3659685 119.6875 118.0625 C121.16961294 119.62109208 122.69235299 121.14189385 124.25 122.625 C130.56532498 128.65613536 132.85174649 133.81256012 133.1875 142.5625 C132.81853084 153.84241443 127.40553458 160.34446542 119.6875 168.0625 C114.88191417 173.58002447 114.46242392 179.22573806 114.421875 186.28125 C114.58717886 189.13315007 114.58717886 189.13315007 115.67578125 191.984375 C118.05278926 199.21635304 117.84844202 207.55018472 114.6875 214.5 C109.14958707 223.77031452 102.43470233 226.99783735 92.2980957 229.75878906 C85.39014497 231.74034078 80.69375341 235.05311988 76.6875 241.0625 C76.87316848 246.85699496 79.73384686 251.58863147 82.359375 256.61328125 C82.83401184 257.53702545 83.30864868 258.46076965 83.79766846 259.4125061 C84.81258882 261.38481002 85.83131879 263.35515742 86.85351562 265.32369995 C88.44192958 268.3835329 90.01909833 271.44893417 91.59375 274.51586914 C96.04544566 283.17267753 100.52525859 291.8120079 105.140625 300.3828125 C105.75454102 301.53096436 106.36845703 302.67911621 107.00097656 303.86206055 C108.09222023 305.8924246 109.19747544 307.9153464 110.31933594 309.92895508 C113.72846832 316.26959226 113.72846832 316.26959226 113.5 320.69140625 C113.0978125 321.86509766 113.0978125 321.86509766 112.6875 323.0625 C107.26245093 324.42469187 103.27045594 323.55402071 98 322.19140625 C97.17927002 321.9902269 96.35854004 321.78904755 95.51293945 321.58177185 C92.9016091 320.94043848 90.29443297 320.28396134 87.6875 319.625 C85.08022506 318.97125352 82.47223569 318.32101325 79.86206055 317.67893982 C78.24194737 317.27992512 76.62350075 316.87406169 75.00708008 316.46034241 C70.80032997 315.41903225 67.06009016 314.8396126 62.6875 315.0625 C59.97019592 320.36580517 57.52281199 325.6826211 55.3046875 331.2109375 C54.68889568 332.72529848 54.07300756 334.2396203 53.45703125 335.75390625 C52.50297601 338.11014107 51.55059337 340.467034 50.60009766 342.82470703 C49.6725988 345.12188994 48.7389958 347.41651745 47.8046875 349.7109375 C47.52132538 350.41922699 47.23796326 351.12751648 46.9460144 351.85726929 C45.77872165 354.71723552 44.8949356 356.8550644 42.6875 359.0625 C40.24511719 359.42041016 40.24511719 359.42041016 37.6875 359.0625 C36.10644531 357.52880859 36.10644531 357.52880859 34.765625 355.3359375 C34.00862305 354.0979541 34.00862305 354.0979541 33.23632812 352.83496094 C30.46193679 347.86869548 27.926713 342.80157073 25.4375 337.6875 C24.293215 335.36772519 23.14736953 333.04871949 22 330.73046875 C21.43925781 329.59657715 20.87851562 328.46268555 20.30078125 327.29443359 C18.07271499 322.83088317 15.771703 318.4087921 13.4375 314 C13.04159668 313.25129639 12.64569336 312.50259277 12.23779297 311.73120117 C10.19398682 307.87681726 8.13438952 304.03105929 6.0703125 300.1875 C5.43851074 299.00619507 5.43851074 299.00619507 4.79394531 297.80102539 C3.99243788 296.30336331 3.18728426 294.80764498 2.37792969 293.31420898 C-0.3125 288.28648381 -0.3125 288.28648381 -0.3125 286.0625 C-1.26125 286.3925 -2.21 286.7225 -3.1875 287.0625 C-10.37586905 289.09968961 -17.33044484 288.49104093 -24.3125 286.0625 C-24.55009033 286.87485107 -24.78768066 287.68720215 -25.0324707 288.52416992 C-26.58380574 292.81245881 -28.62883022 296.6704902 -30.79296875 300.67578125 C-31.69949099 302.37523493 -32.60489131 304.07528746 -33.50927734 305.77587891 C-33.97396423 306.64875549 -34.43865112 307.52163208 -34.91741943 308.42095947 C-37.1500707 312.64841339 -39.32060642 316.90692785 -41.48828125 321.16796875 C-42.12381424 322.41430588 -42.12381424 322.41430588 -42.77218628 323.68582153 C-44.49725635 327.06927705 -46.2207221 330.45353125 -47.93969727 333.84008789 C-49.22345953 336.36772623 -50.51178341 338.89299723 -51.80078125 341.41796875 C-52.18107986 342.17015182 -52.56137848 342.9223349 -52.95320129 343.6973114 C-59.24375297 355.99375297 -59.24375297 355.99375297 -62.3125 359.0625 C-64.625 359.5 -64.625 359.5 -67.3125 359.0625 C-70.82834118 354.55679184 -72.87234661 349.70851677 -74.94921875 344.41796875 C-75.27412796 343.60757645 -75.59903717 342.79718414 -75.93379211 341.9622345 C-76.96233314 339.39401778 -77.98164404 336.82227031 -79 334.25 C-80.0305634 331.66050841 -81.06306435 329.07181726 -82.0983429 326.48420715 C-82.74025338 324.8784122 -83.37916482 323.27141457 -84.01481628 321.66313171 C-85.22796375 318.10009885 -85.22796375 318.10009885 -87.3125 315.0625 C-97.43646692 315.51907106 -107.10309129 318.29910171 -116.8828125 320.77490234 C-119.13305713 321.34175422 -121.38646685 321.89426325 -123.640625 322.4453125 C-124.32199524 322.62232697 -125.00336548 322.79934143 -125.7053833 322.98171997 C-129.89962568 323.99804574 -133.11539547 324.06339804 -137.3125 323.0625 C-138.71685365 318.85764913 -138.24992849 316.34531876 -136.42919922 312.46362305 C-135.5084437 310.65860005 -134.56985765 308.86260303 -133.6171875 307.07421875 C-133.1174794 306.1059465 -132.6177713 305.13767426 -132.10292053 304.14006042 C-130.47909414 301.00218521 -128.83323131 297.87643272 -127.1875 294.75 C-126.07723416 292.60972801 -124.9685917 290.4686131 -123.86157227 288.32666016 C-119.22759334 279.37818105 -114.53810522 270.460039 -109.78515625 261.57421875 C-109.1710791 260.41897705 -108.55700195 259.26373535 -107.92431641 258.07348633 C-106.84052396 256.04354844 -105.74335749 254.02067103 -104.63037109 252.0065918 C-104.16324707 251.13558838 -103.69612305 250.26458496 -103.21484375 249.3671875 C-102.81773193 248.64515137 -102.42062012 247.92311523 -102.01147461 247.17919922 C-101.10144897 244.42337585 -101.46334852 242.81316306 -102.3125 240.0625 C-107.27947475 232.68729507 -113.3671566 230.56227128 -121.75 228.3125 C-129.27636672 226.06856004 -134.210241 222.4376968 -138.75 216.03515625 C-142.23654739 209.5341981 -142.03742272 202.25272182 -141.3125 195.0625 C-140.66409737 193.05650437 -139.99842736 191.05597639 -139.3125 189.0625 C-138.19979215 180.19965263 -140.1578187 173.54011217 -145.25 166.3125 C-146.75340557 164.67242119 -148.30177293 163.07322707 -149.875 161.5 C-155.43217567 155.94282433 -157.58378436 150.75174097 -157.75 142.8125 C-157.59054428 135.01688697 -155.52706145 129.43149767 -150.1171875 123.76171875 C-148.54834883 122.26277884 -146.97805234 120.76536314 -145.40625 119.26953125 C-140.69857717 114.30715224 -139.11293361 109.19631072 -138.9375 102.4375 C-139.05314056 99.21735505 -139.39008949 96.80063548 -140.3125 93.6875 C-142.61128302 85.35441157 -142.2348872 76.77201967 -138.3125 69.0625 C-133.26016321 61.48399482 -126.36112857 58.54233933 -117.75 56.1875 C-110.81781167 54.16291229 -106.11259526 51.21943155 -102.046875 45.18359375 C-100.11944102 41.62359442 -98.99295411 38.02113345 -97.9375 34.125 C-95.92373982 27.12529884 -92.57112484 21.24621748 -86.4375 17.125 C-79.03078385 13.07094514 -72.57980146 12.58036865 -64.3125 14.0625 C-62.5490625 14.5884375 -62.5490625 14.5884375 -60.75 15.125 C-53.74992787 17.03411058 -48.03807276 16.60668383 -41.5078125 13.3984375 C-37.69554041 11.07851391 -34.54151858 8.12012694 -31.3125 5.0625 C-22.76508517 -2.80524088 -10.82734297 -4.91381762 0 0 Z " fill="#FC8086" transform="translate(268.3125,1.9375)"/>
<path d="M0 0 C1.81661133 -0.0309375 1.81661133 -0.0309375 3.66992188 -0.0625 C10.09090021 -0.09061594 15.09068554 -0.04546698 20.6875 3.25 C24.29197331 7.13903699 25.81835933 9.57422634 25.78515625 14.8203125 C25.78193359 15.71621094 25.77871094 16.61210937 25.77539062 17.53515625 C25.76282227 18.94087891 25.76282227 18.94087891 25.75 20.375 C25.74548828 21.31988281 25.74097656 22.26476562 25.73632812 23.23828125 C25.72452357 25.57558387 25.70805759 27.91276061 25.6875 30.25 C26.41114746 30.23428955 27.13479492 30.2185791 27.88037109 30.20239258 C42.42901952 29.9291298 56.48670871 29.82617372 70.6875 33.25 C71.73309082 33.49943359 71.73309082 33.49943359 72.79980469 33.75390625 C89.4677516 37.88077069 104.46032316 45.20757258 119.16894531 53.94946289 C134.35293509 62.92819849 148.855606 66.40001253 166.20706558 68.32745361 C168.94211817 68.63159486 171.6758106 68.94611774 174.40939331 69.26318359 C181.19201191 70.04791792 187.97644233 70.81644846 194.7611084 71.58325195 C200.51594703 72.23405843 206.26985252 72.89218763 212.02270126 73.56036377 C214.69944011 73.86828507 217.37722325 74.16552893 220.0552063 74.46240234 C234.49967573 76.10918007 246.6945357 78.19421895 256.83203125 89.6796875 C262.63081748 97.51720489 264.71004889 104.3876546 265.2578125 114.05078125 C265.30043213 114.74449829 265.34305176 115.43821533 265.38696289 116.1529541 C265.4908066 117.85174935 265.58965916 119.55084845 265.6875 121.25 C285.16655558 112.80061325 304.62507052 104.3068848 324.02508545 95.67733765 C326.82443308 94.43219218 329.62435668 93.1883484 332.42431641 91.94458008 C341.29242358 88.00254558 350.15321966 84.04530571 358.99768066 80.05046082 C363.09372003 78.20160418 367.19302885 76.36006363 371.29266357 74.51919556 C373.23853535 73.64296491 375.18280078 72.76315673 377.12530518 71.87948608 C405.22114465 59.10031176 405.22114465 59.10031176 415.6875 62.25 C422.03659447 64.97438124 426.14605138 69.39251751 429.6875 75.25 C431.86921362 81.79514087 431.67997414 89.74220344 429.1875 96.1875 C424.51343421 104.72238792 414.40562449 108.79834466 406.1875 113.25 C403.76203806 114.57658596 401.33961492 115.90865068 398.91796875 117.2421875 C398.00394539 117.74490677 398.00394539 117.74490677 397.07145691 118.25778198 C391.15182528 121.52434679 385.32222442 124.93821996 379.5 128.375 C370.59468232 133.61913633 361.57979391 138.61292278 352.47363281 143.4987793 C345.14787267 147.43628563 337.90978825 151.50582267 330.70166016 155.65405273 C322.7231115 160.24326328 314.69891682 164.74847128 306.65942383 169.22998047 C302.09017264 171.77799068 297.52611803 174.33015638 293.00390625 176.9609375 C277.86359538 185.74479113 264.3176933 190.55401175 246.78662109 190.54052734 C245.52192993 190.54724457 244.25723877 190.55396179 242.95422363 190.56088257 C239.50755866 190.57843569 236.06099321 190.58323352 232.61428785 190.58451414 C230.45273419 190.58594292 228.29120523 190.59022627 226.12965775 190.59550858 C218.56510077 190.61397682 211.00061393 190.62218363 203.43603516 190.62060547 C196.4235972 190.61940645 189.41146819 190.64046975 182.39910829 190.6720928 C176.34777255 190.69839354 170.29653682 190.70896696 164.24514449 190.70769465 C160.64472729 190.70718884 157.04458474 190.71265686 153.44422531 190.73405075 C125.02186554 190.89096208 125.02186554 190.89096208 112.6875 186.25 C111.78511597 185.94882263 110.88273193 185.64764526 109.95300293 185.33734131 C107.46884517 184.49776218 105.01856668 183.59644995 102.56640625 182.66796875 C101.67389664 182.3365387 100.78138702 182.00510864 99.86183167 181.66363525 C96.98871092 180.59485153 94.11935111 179.51635806 91.25 178.4375 C89.24029013 177.68764651 87.23035826 176.93838776 85.22021484 176.18969727 C80.06463155 174.26742361 74.91227116 172.33667271 69.76092529 170.40307617 C65.7382757 168.89387359 61.7141363 167.38866729 57.68998718 165.88346863 C47.35180429 162.0163232 37.01791774 158.13783772 26.6875 154.25 C26.62908936 155.07564453 26.57067871 155.90128906 26.51049805 156.75195312 C26.42840088 157.83412109 26.34630371 158.91628906 26.26171875 160.03125 C26.18268311 161.10439453 26.10364746 162.17753906 26.0222168 163.28320312 C25.44601024 168.39046942 24.03619719 171.16485282 20.04882812 174.37304688 C16.0821826 176.58800698 13.61362616 176.76571778 9.09375 176.78125 C8.38400024 176.7850769 7.67425049 176.78890381 6.94299316 176.79284668 C5.45042492 176.79555462 3.95780832 176.78827191 2.46533203 176.77148438 C0.19324987 176.75005423 -2.07567129 176.77131947 -4.34765625 176.796875 C-5.80469441 176.79423152 -7.26173062 176.78910611 -8.71875 176.78125 C-10.68811523 176.77448242 -10.68811523 176.77448242 -12.69726562 176.76757812 C-16.94998238 176.15873429 -19.03793026 175.00120438 -22.3125 172.25 C-25.19758097 168.33287426 -25.6886922 165.54637362 -25.69345093 160.7220459 C-25.6981309 160.08018388 -25.70281087 159.43832187 -25.70763266 158.77700949 C-25.71956278 156.63433024 -25.7101338 154.49229294 -25.70068359 152.34960938 C-25.7047502 150.81020231 -25.71009258 149.27079816 -25.71661377 147.73139954 C-25.73028268 143.55580034 -25.72499052 139.38042368 -25.71547651 135.20482063 C-25.70787771 130.83360319 -25.71492614 126.46240472 -25.71963501 122.09118652 C-25.72509192 114.75069765 -25.71790266 107.41029934 -25.70361328 100.06982422 C-25.68728687 91.58497341 -25.69257543 83.10033887 -25.7090925 74.6154933 C-25.72270922 67.32873163 -25.72462612 60.04203504 -25.71677649 52.75526476 C-25.71210099 48.40400174 -25.71147173 44.05284034 -25.72138596 39.70158386 C-25.73005606 35.61065237 -25.72403303 31.51999954 -25.70670319 27.42909813 C-25.70273856 25.92829539 -25.703872 24.42746918 -25.71049118 22.9266758 C-25.71869813 20.876786 -25.70839676 18.82778724 -25.69345093 16.7779541 C-25.69175431 15.05795071 -25.69175431 15.05795071 -25.69002342 13.30319977 C-25.116107 8.66168252 -23.26124184 6.1257617 -19.875 3 C-13.9893294 -1.01948236 -6.86939156 0.0289695 0 0 Z " fill="#FFDDCE" transform="translate(53.3125,321.75)"/>
<path d="M0 0 C22.51136562 17.46336242 36.85006922 39.02357578 41.62109375 67.3828125 C44.60022054 92.21765707 38.56159682 117.60527437 23.9453125 138.01953125 C22.03803741 140.41981896 20.07107366 142.7469391 18.0625 145.0625 C17.299375 146.073125 16.53625 147.08375 15.75 148.125 C5.67022148 159.14243233 -7.9592152 167.87504188 -21.9375 173.0625 C-22.85088135 173.40522949 -22.85088135 173.40522949 -23.78271484 173.75488281 C-43.17798691 180.71777135 -67.54652428 181.35023921 -86.9375 174.0625 C-87.5984668 173.81580566 -88.25943359 173.56911133 -88.94042969 173.31494141 C-102.82218566 168.0141021 -114.18299352 160.32730916 -124.9375 150.0625 C-125.53949219 149.53527344 -126.14148438 149.00804687 -126.76171875 148.46484375 C-140.89218718 135.58602521 -152.0701135 113.08155156 -153.09863281 94.08666992 C-153.50072075 62.54848154 -148.92764774 36.11226841 -126.60424805 12.5847168 C-93.17803167 -21.18026092 -39.41858016 -27.67570244 0 0 Z " fill="#FECF64" transform="translate(311.9375,63.9375)"/>
<path d="M0 0 C4.29945854 -0.03483638 8.59888013 -0.05570657 12.8984375 -0.07421875 C14.7091272 -0.08914368 14.7091272 -0.08914368 16.55639648 -0.10437012 C26.33681472 -0.13589844 35.49950875 0.70942119 45 3 C45.69706055 3.16628906 46.39412109 3.33257812 47.11230469 3.50390625 C63.7802516 7.63077069 78.77282316 14.95757258 93.48144531 23.69946289 C108.66543509 32.67819849 123.168106 36.15001253 140.51956558 38.07745361 C143.25461817 38.38159486 145.9883106 38.69611774 148.72189331 39.01318359 C155.50451191 39.79791792 162.28894233 40.56644846 169.0736084 41.33325195 C174.82844703 41.98405843 180.58235252 42.64218763 186.33520126 43.31036377 C189.01194011 43.61828507 191.68972325 43.91552893 194.3677063 44.21240234 C208.81217573 45.85918007 221.0070357 47.94421895 231.14453125 59.4296875 C238.85185041 69.84673782 239.7797343 79.4042921 239 92 C236.95564464 94.04435536 232.72374055 93.30400515 229.90820312 93.38891602 C229.05707947 93.41832275 228.20595581 93.44772949 227.32904053 93.47802734 C224.47992005 93.57500475 221.63062406 93.66471126 218.78125 93.75390625 C216.77338924 93.81950644 214.76553616 93.88534206 212.75769043 93.95140076 C208.51043307 94.08992981 204.26307665 94.22474479 200.015625 94.35717773 C195.74330356 94.49069775 191.4711998 94.62919587 187.19921875 94.77319336 C166.03700166 95.4861865 144.87591051 96.12901508 123.70030212 96.20515251 C121.94773502 96.21151602 120.19517569 96.22084706 118.44264221 96.23343086 C107.77859347 96.3004203 97.83036926 95.94733204 87.69140625 92.28515625 C86.72211182 91.93799561 85.75281738 91.59083496 84.75415039 91.2331543 C83.70090576 90.84683838 82.64766113 90.46052246 81.5625 90.0625 C80.41450928 89.64718018 79.26651855 89.23186035 78.08374023 88.80395508 C56.66416639 81.03154158 35.3283265 73.01874472 14 65 C13.23870789 64.7140094 12.47741577 64.4280188 11.6930542 64.13336182 C9.80318206 63.42178334 7.91515644 62.70530557 6.02734375 61.98828125 C5.054021 61.61872314 4.08069824 61.24916504 3.07788086 60.8684082 C1 60 1 60 0 59 C-0.09381302 57.15881971 -0.11743954 55.31402359 -0.11352539 53.47045898 C-0.11344986 52.28931015 -0.11337433 51.10816132 -0.11329651 49.89122009 C-0.10813522 48.6058284 -0.10297394 47.32043671 -0.09765625 45.99609375 C-0.0962413 44.68794205 -0.09482635 43.37979034 -0.09336853 42.03199768 C-0.0895441 38.54837141 -0.07971446 35.06478661 -0.06866455 31.58117676 C-0.05844882 28.02873292 -0.05387056 24.47628241 -0.04882812 20.92382812 C-0.03809212 13.94920168 -0.0210166 6.97460283 0 0 Z " fill="#FFECE3" transform="translate(79,352)"/>
<path d="M0 0 C1.40718488 0.74031955 2.80428246 1.5000858 4.19140625 2.27734375 C4.93221436 2.68364014 5.67302246 3.08993652 6.4362793 3.50854492 C12.40073874 6.85780325 17.71817367 10.56647521 22.75390625 15.21484375 C23.71683594 16.08625 24.67976563 16.95765625 25.671875 17.85546875 C40.10919885 31.34133573 48.3776148 47.32273579 53.75390625 66.21484375 C51.48469089 66.34973766 49.21319955 66.4467837 46.94140625 66.52734375 C45.67683594 66.58535156 44.41226563 66.64335938 43.109375 66.703125 C42.00207031 66.54199219 40.89476562 66.38085938 39.75390625 66.21484375 C37.12705212 62.62439479 35.66724669 58.67258971 34.125 54.5234375 C33.8898317 53.89631363 33.65466339 53.26918976 33.41236877 52.62306213 C32.66739931 50.63452209 31.92900012 48.64363004 31.19140625 46.65234375 C30.44929069 44.65786298 29.7057422 42.6639411 28.95973206 40.6709137 C28.28448937 38.8656452 27.61368212 37.05871952 26.94311523 35.25170898 C25.98976019 32.81714043 24.97798252 30.5210077 23.75390625 28.21484375 C21.32574364 28.20723737 21.32574364 28.20723737 18.75390625 29.21484375 C17.08212992 32.05496508 17.08212992 32.05496508 15.96484375 35.6640625 C15.73487701 36.31429886 15.50491028 36.96453522 15.26797485 37.63447571 C14.53540475 39.71755148 13.83143061 41.80896552 13.12890625 43.90234375 C12.41363448 45.9755218 11.69258356 48.04656765 10.96841431 50.11665344 C10.31054821 52.00619187 9.66732832 53.90081073 9.02490234 55.7956543 C8.60547363 56.92398682 8.18604492 58.05231934 7.75390625 59.21484375 C7.35123535 60.31030518 6.94856445 61.4057666 6.53369141 62.53442383 C4.75390625 65.21484375 4.75390625 65.21484375 1.57397461 66.55029297 C-2.41197662 67.24370124 -6.33229642 67.65705408 -10.3671875 67.84765625 C-11.11194839 67.88921844 -11.85670929 67.93078064 -12.6240387 67.97360229 C-14.97688949 68.10319414 -17.33014316 68.22170106 -19.68359375 68.33984375 C-21.28975332 68.42634796 -22.89587383 68.51358056 -24.50195312 68.6015625 C-28.41626574 68.81440984 -32.33097891 69.01732559 -36.24609375 69.21484375 C-36.74109375 71.19484375 -36.74109375 71.19484375 -37.24609375 73.21484375 C-35.58664065 74.57042297 -33.9268924 75.92564207 -32.26586914 77.27929688 C-30.82646922 78.45244468 -29.38816853 79.62694238 -27.95092773 80.80273438 C-24.37837351 83.71460807 -20.78861526 86.5856074 -17.1015625 89.3515625 C-16.4617041 89.83584717 -15.8218457 90.32013184 -15.16259766 90.8190918 C-13.95059348 91.73152634 -12.73044295 92.63326496 -11.50146484 93.52270508 C-9.1260473 95.32053582 -7.45187595 96.60539412 -6.48266602 99.47583008 C-6.19033205 102.86044797 -6.86273011 105.2318905 -7.86328125 108.4765625 C-8.22292969 109.67861328 -8.58257812 110.88066406 -8.953125 112.11914062 C-9.33855469 113.36759766 -9.72398437 114.61605469 -10.12109375 115.90234375 C-12.61318065 124.01225796 -14.87339295 131.70072835 -15.24609375 140.21484375 C-10.93339705 139.64227911 -8.10043942 138.10821918 -4.46484375 135.7578125 C-3.37558594 135.05720703 -2.28632813 134.35660156 -1.1640625 133.63476562 C-0.60251465 133.26794678 -0.0409668 132.90112793 0.53759766 132.52319336 C2.24384315 131.40891554 3.95703371 130.3060702 5.671875 129.20507812 C11.71977965 125.36766857 11.71977965 125.36766857 17.30273438 120.91137695 C19.75390625 119.21484375 19.75390625 119.21484375 22.26245117 119.28100586 C24.99180553 120.30401227 27.18907212 121.54272816 29.6171875 123.15625 C30.9465332 124.03120117 30.9465332 124.03120117 32.30273438 124.92382812 C33.67075195 125.84131836 33.67075195 125.84131836 35.06640625 126.77734375 C35.99775391 127.39287109 36.92910156 128.00839844 37.88867188 128.64257812 C40.18188981 130.15962999 42.46997387 131.68386309 44.75390625 133.21484375 C39.55796084 151.07427422 21.53717445 165.82184343 5.82348633 174.52758789 C4.1405243 175.43623373 2.44743252 176.32604273 0.75390625 177.21484375 C-0.13039063 177.6840625 -1.0146875 178.15328125 -1.92578125 178.63671875 C-6.60542611 180.93715023 -9.03059098 181.52187653 -14.24609375 180.21484375 C-16.86571262 179.12007765 -19.34870829 177.99739195 -21.87109375 176.71484375 C-22.57331055 176.3580957 -23.27552734 176.00134766 -23.99902344 175.63378906 C-47.94173987 163.1120862 -64.48486453 141.78644165 -72.55859375 116.21484375 C-79.49244203 92.80944871 -76.58657369 64.75162882 -65.18701172 43.21386719 C-54.61290495 24.18138695 -25.04511025 -11.83256674 0 0 Z " fill="#FAE67A" transform="translate(234.24609375,55.78515625)"/>
<path d="M0 0 C1.81661133 -0.0309375 1.81661133 -0.0309375 3.66992188 -0.0625 C10.09090021 -0.09061594 15.09068554 -0.04546698 20.6875 3.25 C24.86917621 7.76180855 25.81212556 10.30704849 25.82794189 16.37249756 C25.83365204 17.67918396 25.83936218 18.98587036 25.84524536 20.33215332 C25.84649079 21.78881826 25.84761587 23.24548332 25.84863281 24.70214844 C25.85325997 26.22963583 25.85828449 27.75712206 25.86367798 29.28460693 C25.87681559 33.44178313 25.88324981 37.59894317 25.88768864 41.75613689 C25.89061773 44.35293229 25.89472227 46.94972325 25.89919281 49.54651642 C25.91287256 57.66982368 25.92253635 65.79312083 25.9263947 73.91643882 C25.93087399 83.29594633 25.94841384 92.67530801 25.9773953 102.05477118 C25.99901259 109.30240673 26.00909904 116.55000125 26.01043582 123.7976687 C26.011484 128.12723151 26.01739428 132.45665733 26.03525543 136.78618622 C26.05173652 140.86063547 26.05389149 144.93484478 26.04511642 149.00931549 C26.04434601 150.50325666 26.04868935 151.99721072 26.05857468 153.49111938 C26.07129695 155.53389628 26.06362466 157.5767696 26.05499268 159.61956787 C26.05645924 160.76183712 26.0579258 161.90410637 26.0594368 163.08098984 C25.46939108 168.1083517 23.79030186 171.29804937 19.97460938 174.59179688 C16.07888749 176.55701843 13.44465059 176.76629845 9.09375 176.78125 C8.38400024 176.7850769 7.67425049 176.78890381 6.94299316 176.79284668 C5.45042492 176.79555462 3.95780832 176.78827191 2.46533203 176.77148438 C0.19324987 176.75005423 -2.07567129 176.77131947 -4.34765625 176.796875 C-5.80469441 176.79423152 -7.26173062 176.78910611 -8.71875 176.78125 C-10.68811523 176.77448242 -10.68811523 176.77448242 -12.69726562 176.76757812 C-16.94998238 176.15873429 -19.03793026 175.00120438 -22.3125 172.25 C-25.19758097 168.33287426 -25.6886922 165.54637362 -25.69345093 160.7220459 C-25.6981309 160.08018388 -25.70281087 159.43832187 -25.70763266 158.77700949 C-25.71956278 156.63433024 -25.7101338 154.49229294 -25.70068359 152.34960938 C-25.7047502 150.81020231 -25.71009258 149.27079816 -25.71661377 147.73139954 C-25.73028268 143.55580034 -25.72499052 139.38042368 -25.71547651 135.20482063 C-25.70787771 130.83360319 -25.71492614 126.46240472 -25.71963501 122.09118652 C-25.72509192 114.75069765 -25.71790266 107.41029934 -25.70361328 100.06982422 C-25.68728687 91.58497341 -25.69257543 83.10033887 -25.7090925 74.6154933 C-25.72270922 67.32873163 -25.72462612 60.04203504 -25.71677649 52.75526476 C-25.71210099 48.40400174 -25.71147173 44.05284034 -25.72138596 39.70158386 C-25.73005606 35.61065237 -25.72403303 31.51999954 -25.70670319 27.42909813 C-25.70273856 25.92829539 -25.703872 24.42746918 -25.71049118 22.9266758 C-25.71869813 20.876786 -25.70839676 18.82778724 -25.69345093 16.7779541 C-25.69175431 15.05795071 -25.69175431 15.05795071 -25.69002342 13.30319977 C-25.116107 8.66168252 -23.26124184 6.1257617 -19.875 3 C-13.9893294 -1.01948236 -6.86939156 0.0289695 0 0 Z " fill="#7C8B96" transform="translate(53.3125,321.75)"/>
<path d="M0 0 C2.05420561 2.62618613 3.7382574 5.21637079 5.24560547 8.18823242 C5.66429901 9.00898254 6.08299255 9.82973267 6.51437378 10.675354 C6.96080231 11.55979187 7.40723083 12.44422974 7.8671875 13.35546875 C8.57489792 14.7453299 8.57489792 14.7453299 9.29690552 16.16326904 C10.82676978 19.16941609 12.35128157 22.17823369 13.875 25.1875 C15.95397026 29.28735308 18.03478877 33.38626228 20.1171875 37.484375 C20.62691101 38.48810654 21.13663452 39.49183807 21.6618042 40.52598572 C24.53004934 46.15995581 27.44343741 51.76425382 30.4453125 57.328125 C31.06035645 58.47514893 31.67540039 59.62217285 32.30908203 60.80395508 C33.40341103 62.83192399 34.51037928 64.85314455 35.63232422 66.8659668 C39.04087726 73.2088546 39.04087726 73.2088546 38.8125 77.62890625 C38.544375 78.41136719 38.27625 79.19382812 38 80 C32.57495093 81.36219187 28.58295594 80.49152071 23.3125 79.12890625 C22.08140503 78.82713722 22.08140503 78.82713722 20.82543945 78.51927185 C18.2141091 77.87793848 15.60693297 77.22146134 13 76.5625 C10.39272506 75.90875352 7.78473569 75.25851325 5.17456055 74.61643982 C3.55444737 74.21742512 1.93600075 73.81156169 0.31958008 73.39784241 C-3.88717003 72.35653225 -7.62740984 71.7771126 -12 72 C-14.71730408 77.30330517 -17.16468801 82.6201211 -19.3828125 88.1484375 C-19.99860432 89.66279848 -20.61449244 91.1771203 -21.23046875 92.69140625 C-22.18452399 95.04764107 -23.13690663 97.404534 -24.08740234 99.76220703 C-25.0149012 102.05938994 -25.9485042 104.35401745 -26.8828125 106.6484375 C-27.16617462 107.35672699 -27.44953674 108.06501648 -27.7414856 108.79476929 C-28.90877835 111.65473552 -29.7925644 113.7925644 -32 116 C-34.44238281 116.35791016 -34.44238281 116.35791016 -37 116 C-38.58105469 114.46630859 -38.58105469 114.46630859 -39.921875 112.2734375 C-40.42654297 111.44811523 -40.93121094 110.62279297 -41.45117188 109.77246094 C-44.22556321 104.80619548 -46.760787 99.73907073 -49.25 94.625 C-50.394285 92.30522519 -51.54013047 89.98621949 -52.6875 87.66796875 C-53.24824219 86.53407715 -53.80898438 85.40018555 -54.38671875 84.23193359 C-56.61479079 79.7683716 -58.91617745 75.3465022 -61.25 70.9375 C-61.64590332 70.18734619 -62.04180664 69.43719238 -62.44970703 68.66430664 C-64.48099689 64.82765866 -66.53828925 61.00636911 -68.6171875 57.1953125 C-69.03838867 56.41679932 -69.45958984 55.63828613 -69.89355469 54.83618164 C-70.691627 53.36265915 -71.49655801 51.89282259 -72.30957031 50.42749023 C-74.19607146 46.93643318 -75 45.05590116 -75 41 C-73.42578125 39.47265625 -73.42578125 39.47265625 -71.3125 38.0625 C-68.72230452 36.25845157 -66.66065678 34.65238011 -64.4375 32.375 C-59.37480283 27.44211558 -53.78280568 24.8615685 -46.6875 24.8125 C-45.30111328 24.79123047 -45.30111328 24.79123047 -43.88671875 24.76953125 C-41 25 -41 25 -38.06640625 25.984375 C-30.75125423 28.4072279 -22.43088743 28.13578484 -15.4375 24.875 C-9.28259043 21.29304443 -5.72021161 16.6062282 -3 10 C-2.40297729 7.62772431 -1.88850158 5.25820563 -1.4296875 2.85546875 C-1 1 -1 1 0 0 Z " fill="#EAB04D" transform="translate(343,245)"/>
<path d="M0 0 C0.66 0.33 1.32 0.66 2 1 C2.67578125 3.22265625 2.67578125 3.22265625 3.3125 6.0625 C5.7210625 15.26750125 9.8010131 21.04287194 18 26 C21.56549837 27.18849946 24.49101917 27.16877998 28.25 27.1875 C30.17585938 27.20876953 30.17585938 27.20876953 32.140625 27.23046875 C36.05473463 26.99673143 39.26623981 26.15054476 43 25 C51.4045756 23.60593961 58.02163452 26.37809706 65 31 C66.73760304 32.67631828 68.15454624 34.305567 69.5234375 36.2890625 C71.65113177 38.75448602 74.26187646 40.27264382 77 42 C76.55011719 42.89976562 76.10023438 43.79953125 75.63671875 44.7265625 C75.33266113 45.3347583 75.02860352 45.9429541 74.71533203 46.56958008 C74.01474462 47.9705885 73.31388712 49.37146189 72.61279297 50.7722168 C70.52597702 54.94272071 68.44478805 59.11592336 66.37109375 63.29296875 C60.78201305 74.53630601 55.07456945 85.704818 49.17431641 96.78808594 C47.99820519 99.00338067 46.83200126 101.22365079 45.66796875 103.4453125 C44.94544334 104.81777722 44.22279372 106.19017656 43.5 107.5625 C43.17362549 108.18825928 42.84725098 108.81401855 42.51098633 109.45874023 C41.18126871 111.97058638 40.02308363 113.97691637 38 116 C35.625 116.5 35.625 116.5 33 116 C29.49109852 111.48703872 27.44096265 106.64807824 25.36328125 101.35546875 C24.87591743 100.13988029 24.87591743 100.13988029 24.37870789 98.8997345 C23.35016686 96.33151778 22.33085596 93.75977031 21.3125 91.1875 C20.2819366 88.59800841 19.24943565 86.00931726 18.2141571 83.42170715 C17.57224662 81.8159122 16.93333518 80.20891457 16.29768372 78.60063171 C15.08453625 75.03759885 15.08453625 75.03759885 13 72 C2.87603308 72.45657106 -6.79059129 75.23660171 -16.5703125 77.71240234 C-18.82055713 78.27925422 -21.07396685 78.83176325 -23.328125 79.3828125 C-24.00949524 79.55982697 -24.69086548 79.73684143 -25.3928833 79.91921997 C-29.58712568 80.93554574 -32.80289547 81.00089804 -37 80 C-38.39322586 75.80914565 -37.94675703 73.30253471 -36.13256836 69.43286133 C-35.21820721 67.6407122 -34.28604339 65.85757653 -33.33984375 64.08203125 C-32.84291519 63.11900085 -32.34598663 62.15597046 -31.83399963 61.16375732 C-30.21687954 58.03859007 -28.57751919 54.92570164 -26.9375 51.8125 C-25.82925879 49.68102102 -24.72248961 47.54877604 -23.6171875 45.41577148 C-21.43169675 41.20422541 -19.23760469 36.99736846 -17.03466797 32.79492188 C-14.43489851 27.83531175 -11.85311709 22.86676785 -9.28515625 17.890625 C-6.20288695 11.920392 -3.10875508 5.95648887 0 0 Z " fill="#E7A52E" transform="translate(168,245)"/>
<path d="M0 0 C2.484375 0.08984375 2.484375 0.08984375 5 1 C6.265625 2.87890625 6.265625 2.87890625 7.25 5.5625 C7.85328125 7.15191406 7.85328125 7.15191406 8.46875 8.7734375 C8.81486328 9.73008301 8.81486328 9.73008301 9.16796875 10.70605469 C10.58332725 14.60825788 12.05189379 18.49059872 13.51074219 22.37670898 C14.33446022 24.57734734 15.15285648 26.7799853 15.96582031 28.98461914 C16.34319336 30.00418701 16.72056641 31.02375488 17.109375 32.07421875 C17.44936523 32.99807373 17.78935547 33.92192871 18.13964844 34.8737793 C18.81809658 36.94817871 18.81809658 36.94817871 20 38 C28.9717462 39.26763993 38.0558182 39.5807066 47.09887695 40.04956055 C49.17976969 40.15873223 51.25971635 40.2795527 53.33984375 40.40234375 C54.57081787 40.46929443 55.80179199 40.53624512 57.07006836 40.60522461 C60 41 60 41 62 43 C61.77366103 45.43596934 61.3048785 46.66983809 59.63989258 48.47290039 C59.06392334 48.92656982 58.4879541 49.38023926 57.89453125 49.84765625 C57.24669678 50.36497314 56.5988623 50.88229004 55.93139648 51.4152832 C55.23216064 51.95886475 54.5329248 52.50244629 53.8125 53.0625 C52.74721069 53.91751099 52.74721069 53.91751099 51.66040039 54.78979492 C48.10286024 57.63179919 44.50273341 60.38079566 40.7890625 63.015625 C39.8148938 63.72513306 39.8148938 63.72513306 38.82104492 64.44897461 C37.59137462 65.33915071 36.3443615 66.20597737 35.0793457 67.04516602 C33.14138703 68.36713104 33.14138703 68.36713104 31 71 C30.92057974 74.16645136 31.17284067 76.02278551 32 79 C32.24613037 79.90049072 32.49226074 80.80098145 32.74584961 81.72875977 C33.92504565 85.83268794 35.1964478 89.90582732 36.47265625 93.98046875 C38.40446663 100.34170209 39.63894511 106.35548476 40 113 C37.89086914 113.73339844 37.89086914 113.73339844 35 114 C32.01733398 112.50878906 32.01733398 112.50878906 28.74609375 110.265625 C28.16336197 109.87179626 27.58063019 109.47796753 26.98023987 109.07220459 C25.12280808 107.81192167 23.28041091 106.53139711 21.4375 105.25 C20.19427796 104.40229709 18.95014567 103.55592749 17.70507812 102.7109375 C8.92175569 96.72865466 8.92175569 96.72865466 5.76245117 94.23120117 C4.04121525 92.77308119 4.04121525 92.77308119 1.6796875 93.03515625 C-1.87815129 94.31618567 -4.79785896 96.28995399 -7.875 98.4375 C-8.52194824 98.87618408 -9.16889648 99.31486816 -9.83544922 99.7668457 C-13.29626616 102.11594304 -16.72395746 104.50915716 -20.140625 106.921875 C-20.80852051 107.38537354 -21.47641602 107.84887207 -22.16455078 108.32641602 C-23.44809357 109.21754317 -24.72298519 110.12129398 -25.98779297 111.03881836 C-28.83504982 113.0059783 -30.41431412 114.04607396 -33.9296875 113.76953125 C-34.61289063 113.51558594 -35.29609375 113.26164062 -36 113 C-35.4032478 100.66712118 -31.40171616 88.65548513 -27.3828125 77.04296875 C-26.84486455 74.17208324 -26.92556825 72.76223641 -28 70 C-30.18753151 67.68967485 -32.66385612 65.80407571 -35.1875 63.875 C-35.89841797 63.31530518 -36.60933594 62.75561035 -37.34179688 62.17895508 C-38.8177186 61.01913859 -40.2980956 59.86497083 -41.78271484 58.71630859 C-43.92382977 57.05896022 -46.0519029 55.3863887 -48.17578125 53.70703125 C-51.44148014 51.12629281 -54.71749718 48.55932642 -58 46 C-57.125 42.125 -57.125 42.125 -56 41 C-53.56490306 40.79311002 -51.15093659 40.64517996 -48.7109375 40.53515625 C-47.1966053 40.45655887 -45.68228268 40.37777677 -44.16796875 40.29882812 C-41.77861164 40.17972711 -39.38917813 40.06316883 -36.99951172 39.95043945 C-34.69457016 39.83991542 -32.39031512 39.71930371 -30.0859375 39.59765625 C-29.38149506 39.56736832 -28.67705261 39.53708038 -27.95126343 39.50587463 C-23.35114289 39.25673765 -19.21653031 38.90290528 -15 37 C-13.43730349 34.27751862 -12.48935026 32.14831589 -11.54296875 29.21875 C-11.13211784 28.0648175 -11.13211784 28.0648175 -10.71296692 26.88757324 C-9.84466862 24.43338169 -9.01511526 21.9681743 -8.1875 19.5 C-7.33454793 17.03506221 -6.47388894 14.57301509 -5.60847473 12.11242676 C-5.07306356 10.5819192 -4.54630579 9.04835143 -4.02909851 7.51159668 C-2.21747129 2.21747129 -2.21747129 2.21747129 0 0 Z " fill="#E7A52E" transform="translate(254,83)"/>
<path d="M0 0 C0.66 0.33 1.32 0.66 2 1 C2.67578125 3.22265625 2.67578125 3.22265625 3.3125 6.0625 C5.7210625 15.26750125 9.8010131 21.04287194 18 26 C21.56086658 27.18695553 24.97331024 27.35095418 28.6875 27.5625 C29.38939453 27.60568359 30.09128906 27.64886719 30.81445312 27.69335938 C32.54275206 27.7991736 34.2713511 27.90006581 36 28 C34.49124026 33.02345617 32.36615433 37.4955438 29.97265625 42.13671875 C29.58307236 42.89797562 29.19348846 43.65923248 28.792099 44.44355774 C27.97138798 46.0439663 27.14847656 47.64324819 26.32348633 49.24145508 C25.06300776 51.68651505 23.81337901 54.13691346 22.56445312 56.58789062 C21.76367094 58.14616759 20.96226014 59.70412171 20.16015625 61.26171875 C19.78818619 61.99299484 19.41621613 62.72427094 19.03297424 63.47770691 C17.32745962 66.76215983 15.79477558 69.55635828 13 72 C11.12597656 72.36669922 11.12597656 72.36669922 8.890625 72.4296875 C4.06201647 72.77859567 -0.51371393 73.72532949 -5.203125 74.8828125 C-5.93470825 75.06189148 -6.6662915 75.24097046 -7.42004395 75.42547607 C-10.47267108 76.17783523 -13.52248702 76.94082531 -16.5703125 77.71240234 C-18.82055713 78.27925422 -21.07396685 78.83176325 -23.328125 79.3828125 C-24.00949524 79.55982697 -24.69086548 79.73684143 -25.3928833 79.91921997 C-29.58712568 80.93554574 -32.80289547 81.00089804 -37 80 C-38.39322586 75.80914565 -37.94675703 73.30253471 -36.13256836 69.43286133 C-35.21820721 67.6407122 -34.28604339 65.85757653 -33.33984375 64.08203125 C-32.84291519 63.11900085 -32.34598663 62.15597046 -31.83399963 61.16375732 C-30.21687954 58.03859007 -28.57751919 54.92570164 -26.9375 51.8125 C-25.82925879 49.68102102 -24.72248961 47.54877604 -23.6171875 45.41577148 C-21.43169675 41.20422541 -19.23760469 36.99736846 -17.03466797 32.79492188 C-14.43489851 27.83531175 -11.85311709 22.86676785 -9.28515625 17.890625 C-6.20288695 11.920392 -3.10875508 5.95648887 0 0 Z " fill="#EAB04D" transform="translate(168,245)"/>
<path d="M0 0 C2.05420561 2.62618613 3.7382574 5.21637079 5.24560547 8.18823242 C5.66429901 9.00898254 6.08299255 9.82973267 6.51437378 10.675354 C6.96080231 11.55979187 7.40723083 12.44422974 7.8671875 13.35546875 C8.33899445 14.28204285 8.81080139 15.20861694 9.29690552 16.16326904 C10.82676978 19.16941609 12.35128157 22.17823369 13.875 25.1875 C15.95397026 29.28735308 18.03478877 33.38626228 20.1171875 37.484375 C20.62691101 38.48810654 21.13663452 39.49183807 21.6618042 40.52598572 C24.53004934 46.15995581 27.44343741 51.76425382 30.4453125 57.328125 C31.06035645 58.47514893 31.67540039 59.62217285 32.30908203 60.80395508 C33.40341103 62.83192399 34.51037928 64.85314455 35.63232422 66.8659668 C39.04087726 73.2088546 39.04087726 73.2088546 38.8125 77.62890625 C38.544375 78.41136719 38.27625 79.19382812 38 80 C24.15253951 83.33800215 2.56707053 77.02480464 -10 71 C-16.36004807 66.01666649 -18.81260091 59.39348687 -21.07275391 51.84179688 C-22.58673351 47.2017962 -24.94912913 43.03828594 -27.25 38.75 C-31 31.39576803 -31 31.39576803 -31 29 C-30.39414062 28.91363281 -29.78828125 28.82726562 -29.1640625 28.73828125 C-21.40016999 27.4363362 -13.42900246 25.18416897 -8.0625 19.0625 C-4.49142145 13.75998943 -2.62000606 9.0889791 -1.4296875 2.85546875 C-1 1 -1 1 0 0 Z " fill="#E7A52E" transform="translate(343,245)"/>
<path d="M0 0 C0.25287193 6.06892629 -0.30167391 11.16200408 -2 17 C-4.52884245 13.20673632 -6.09010799 9.93732186 -5.875 5.3125 C-4.91328553 2.77082605 -3.06804578 0 0 0 Z " fill="#FAE276" transform="translate(290,150)"/>
</svg>
