<?xml version="1.0" encoding="UTF-8"?>
<svg version="1.1" xmlns="http://www.w3.org/2000/svg" width="512" height="512">
<path d="M0 0 C2.03561264 0.77140406 4.01379122 1.62248725 5.99819946 2.51742554 C6.75154572 2.84276276 7.50489197 3.16809998 8.28106689 3.5032959 C10.77208084 4.58225776 13.25391179 5.68090836 15.73648071 6.77914429 C17.51139944 7.55105649 19.28705137 8.32128471 21.06338501 9.0899353 C24.81444049 10.71391094 28.5628056 12.34388768 32.3097229 13.97738647 C40.6960186 17.62457655 49.12406002 21.17266752 57.55245972 24.72119141 C60.38253208 25.91300958 63.21171266 27.1069224 66.04067993 28.30136108 C79.86518301 34.13646904 93.70661779 39.93067911 107.55206299 45.71588135 C121.22291339 51.42944148 134.86756543 57.20217225 148.4984436 63.01037598 C164.53074488 69.84025948 180.59934757 76.58193746 196.68078613 83.29522705 C198.34186374 83.98956019 200.00229722 84.68543652 201.66204834 85.38293457 C205.88024528 87.15410161 210.10723398 88.89623327 214.35513306 90.59506226 C215.21797409 90.94519882 216.08081512 91.29533539 216.96980286 91.65608215 C218.6029729 92.31842372 220.240069 92.97120209 221.88169861 93.61228943 C227.10044285 95.74587967 231.41695406 98.20259098 234.04898071 103.46664429 C234.15654671 105.74770021 234.19790656 108.03196314 234.21011353 110.31552124 C234.21507843 111.01979248 234.22004333 111.72406372 234.22515869 112.44967651 C234.23978982 114.78476939 234.2465844 117.11979431 234.25210571 119.45492554 C234.25785706 121.07676699 234.26361479 122.69860842 234.26937866 124.32044983 C234.27989181 127.72424639 234.2857322 131.12801931 234.28921509 134.53182983 C234.29469589 138.88987609 234.31871353 143.24760929 234.34718704 147.60555744 C234.36582821 150.95733039 234.37101984 154.30902822 234.37255096 157.66084862 C234.37557546 159.26719051 234.38359717 160.87353115 234.39673615 162.47982216 C234.41382555 164.72998333 234.41190956 166.97938367 234.40542603 169.22958374 C234.40907166 170.50928543 234.41271729 171.78898712 234.41647339 173.10746765 C233.93402402 177.5174403 232.34972882 180.03891839 229.40835571 183.26742554 C225.77554257 185.11390507 222.3073148 184.78376703 218.29898071 184.65414429 C217.50620728 184.64060913 216.71343384 184.62707397 215.89663696 184.61312866 C213.94712507 184.57789652 211.99796445 184.5240925 210.04898071 184.46664429 C210.06469116 185.47042114 210.08040161 186.474198 210.09658813 187.50839233 C210.15103185 191.24496383 210.18538297 194.9815005 210.21377563 198.71835327 C210.22882947 200.33332218 210.24927719 201.94825042 210.27529907 203.56307983 C210.31183357 205.88910984 210.32874086 208.2145977 210.34194946 210.54086304 C210.35743332 211.25876511 210.37291718 211.97666718 210.38887024 212.71632385 C210.39035185 217.16474731 209.76868195 219.92462233 207.04898071 223.46664429 C202.94200811 226.68562282 201.68182452 226.46664429 196.04898071 226.46664429 C196.04898071 283.22664429 196.04898071 339.98664429 196.04898071 398.46664429 C198.68898071 398.46664429 201.32898071 398.46664429 204.04898071 398.46664429 C206.7400327 400.64238844 208.50430999 402.37730285 210.04898071 405.46664429 C210.1355664 408.02027033 210.16460587 410.54618849 210.14663696 413.09945679 C210.14451454 414.22721024 210.14451454 414.22721024 210.14234924 415.37774658 C210.13674536 417.78241938 210.12419228 420.18699956 210.11148071 422.59164429 C210.10646621 424.22054919 210.10190322 425.84945556 210.09780884 427.47836304 C210.08677468 431.47449255 210.0695075 435.47055271 210.04898071 439.46664429 C211.5687854 439.41443726 211.5687854 439.41443726 213.11929321 439.36117554 C214.47083901 439.33301833 215.8224029 439.30572026 217.17398071 439.27914429 C218.17171509 439.24143921 218.17171509 439.24143921 219.18960571 439.20297241 C223.92705377 439.13330406 227.10346149 439.83058 231.04898071 442.46664429 C234.15167514 446.26698598 234.40801816 449.25691039 234.34194946 454.07992554 C234.33228149 455.32709351 234.32261353 456.57426147 234.31265259 457.85922241 C234.28751587 459.15279663 234.26237915 460.44637085 234.23648071 461.77914429 C234.22294556 463.09205444 234.2094104 464.4049646 234.19546509 465.75765991 C234.16015514 468.99440506 234.11083352 472.23031534 234.04898071 475.46664429 C234.73532593 475.44489136 235.42167114 475.42313843 236.1288147 475.40072632 C237.02930542 475.38380737 237.92979614 475.36688843 238.85757446 475.34945679 C239.75016968 475.32770386 240.64276489 475.30595093 241.56240845 475.28353882 C245.06603905 475.54153813 246.72286218 476.91541751 249.04898071 479.46664429 C251.09803121 483.56474528 250.36619796 488.77471614 250.42398071 493.27914429 C250.48005493 494.91979858 250.48005493 494.91979858 250.53726196 496.59359741 C250.62614512 504.69677841 250.62614512 504.69677841 247.65054321 508.66586304 C243.32972382 511.65670048 240.16548672 511.6095206 235.03940105 511.59807205 C233.77697135 511.601151 233.77697135 511.601151 232.48903802 511.60429215 C229.63804814 511.6099957 226.78710607 511.6085008 223.93611145 511.60708618 C221.88379765 511.6096679 219.83148436 511.61268051 217.77917176 511.61608958 C212.11535727 511.62418557 206.45155542 511.62595059 200.78773582 511.62668705 C194.68877372 511.6285331 188.58981827 511.63607813 182.49085999 511.64282227 C168.44760177 511.65713406 154.40434773 511.66293445 140.36108397 511.66751421 C133.4247058 511.66984851 126.48832845 511.67345097 119.55195092 511.67720959 C95.81809077 511.69004621 72.08423109 511.70076552 48.35036755 511.70421219 C46.85992073 511.70443382 45.36947391 511.70465561 43.87902709 511.70487754 C42.38493557 511.70509818 40.89084405 511.70531866 39.39675254 511.70553899 C36.3992368 511.70598155 33.40172106 511.70642866 30.40420532 511.70687866 C29.28938718 511.70704275 29.28938718 511.70704275 28.15204746 511.70721015 C4.04644751 511.71084181 -20.0591224 511.72676541 -44.16471084 511.75006903 C-69.63764416 511.77464957 -95.11056029 511.78838419 -120.58350581 511.78958011 C-123.37829411 511.78975157 -126.17308241 511.789967 -128.96787071 511.79021454 C-129.65604954 511.79027031 -130.34422836 511.79032608 -131.05326109 511.79038353 C-142.14136734 511.79153551 -153.22944283 511.80256991 -164.31753869 511.81710159 C-175.45673365 511.83144812 -186.59588959 511.83446095 -197.73509482 511.82666162 C-203.77308645 511.8227426 -209.81097425 511.82374549 -215.84895325 511.83771896 C-221.37147487 511.85038308 -226.89381385 511.84932671 -232.41633495 511.83712825 C-234.41904439 511.83515819 -236.42176645 511.83830945 -238.42445812 511.84697261 C-241.13783561 511.85797111 -243.85055776 511.85064436 -246.56391621 511.83858109 C-247.34917347 511.84617628 -248.13443074 511.85377147 -248.94348368 511.86159682 C-253.45687461 511.81800494 -256.38299533 511.29322504 -259.95101929 508.46664429 C-263.05002008 503.8181431 -262.31959383 499.05971009 -262.32601929 493.59164429 C-262.35051147 492.50238647 -262.37500366 491.41312866 -262.40023804 490.29086304 C-262.42968198 482.27229467 -262.42968198 482.27229467 -260.05258179 478.27133179 C-256.8114981 475.48809635 -255.02079511 475.35036511 -250.82601929 475.40414429 C-249.91594116 475.41316772 -249.00586304 475.42219116 -248.06820679 475.43148804 C-247.02019897 475.44889038 -247.02019897 475.44889038 -245.95101929 475.46664429 C-245.97196655 474.64986206 -245.99291382 473.83307983 -246.01449585 472.99154663 C-246.09787058 469.27503874 -246.14974917 465.55872796 -246.20101929 461.84164429 C-246.23453491 460.55644897 -246.26805054 459.27125366 -246.30258179 457.94711304 C-246.41315742 447.27656478 -246.41315742 447.27656478 -244.24789429 443.69320679 C-240.26240014 439.82971756 -236.67709069 439.23722835 -231.17953491 439.29086304 C-230.50599976 439.30762085 -229.8324646 439.32437866 -229.13851929 439.34164429 C-228.44564819 439.35066772 -227.7527771 439.35969116 -227.03890991 439.36898804 C-225.34279533 439.39238272 -223.64686058 439.42824788 -221.95101929 439.46664429 C-221.96672974 438.46286743 -221.98244019 437.45909058 -221.99862671 436.42489624 C-222.05307042 432.68832474 -222.08742155 428.95178808 -222.11581421 425.2149353 C-222.13086804 423.5999664 -222.15131577 421.98503816 -222.17733765 420.37020874 C-222.21387215 418.04417874 -222.23077943 415.71869088 -222.24398804 413.39242554 C-222.25947189 412.67452347 -222.27495575 411.9566214 -222.29090881 411.21696472 C-222.29238898 406.77287099 -221.70731002 403.98326328 -218.95101929 400.46664429 C-215.95101929 398.46664429 -215.95101929 398.46664429 -207.95101929 398.46664429 C-207.95101929 341.70664429 -207.95101929 284.94664429 -207.95101929 226.46664429 C-210.92101929 226.13664429 -213.89101929 225.80664429 -216.95101929 225.46664429 C-219.94554362 223.22075104 -220.76725051 222.01795062 -221.95101929 218.46664429 C-222.03583701 215.88034204 -222.06700158 213.32186372 -222.04867554 210.73617554 C-222.04726059 209.98575485 -222.04584564 209.23533417 -222.04438782 208.46217346 C-222.03879488 206.06778968 -222.02624373 203.67349976 -222.01351929 201.27914429 C-222.00850337 199.65479668 -222.00394062 198.03044761 -221.99984741 196.40609741 C-221.98882777 192.4262436 -221.97156802 188.44645985 -221.95101929 184.46664429 C-223.68738647 184.55365601 -223.68738647 184.55365601 -225.45883179 184.64242554 C-226.99785377 184.68934694 -228.53691961 184.73484454 -230.07601929 184.77914429 C-231.2168396 184.84198608 -231.2168396 184.84198608 -232.38070679 184.90609741 C-236.50751316 184.9950372 -239.15098861 184.7587451 -242.44320679 182.13461304 C-246.29528572 178.03652906 -246.08303003 174.94263887 -246.1121521 169.50424194 C-246.117117 168.79982468 -246.12208191 168.09540741 -246.12719727 167.36964417 C-246.14179869 165.03998842 -246.14861731 162.71040076 -246.15414429 160.38070679 C-246.15989718 158.76029458 -246.1656549 157.13988239 -246.17141724 155.51947021 C-246.18192132 152.12165002 -246.18776793 148.72385344 -246.19125366 145.32601929 C-246.19673873 140.97584882 -246.22076936 136.62599129 -246.24922562 132.27591896 C-246.26786456 128.92843721 -246.27305825 125.58103069 -246.27458954 122.23350143 C-246.27761351 120.62995059 -246.28563343 119.026401 -246.29877472 117.42290115 C-246.31586279 115.17763814 -246.3139487 112.93313766 -246.3074646 110.68783569 C-246.31111023 109.41115021 -246.31475586 108.13446472 -246.31851196 106.8190918 C-245.92346208 103.215254 -245.10278163 101.34821336 -242.95101929 98.46664429 C-241.14950562 97.17025757 -241.14950562 97.17025757 -238.97055054 96.16195679 C-238.07674683 95.74720093 -237.18294312 95.33244507 -236.26205444 94.90512085 C-229.66443185 92.03878902 -223.04168693 89.2387486 -216.39639282 86.48474121 C-211.58994013 84.49253917 -206.78853911 82.48820947 -201.98617554 80.48617554 C-200.9906366 80.07155563 -199.99509766 79.65693573 -198.96939087 79.22975159 C-188.49049542 74.86368607 -178.03202298 70.44968962 -167.57601929 66.02914429 C-165.69606587 65.23468519 -163.81610163 64.44025171 -161.93612671 63.64584351 C-158.16005192 62.0500856 -154.38411176 60.45400963 -150.60824585 58.85775757 C-140.28740685 54.49498086 -129.96400851 50.1382622 -119.64108276 45.78042603 C-116.83031655 44.5938385 -114.01956737 43.40721063 -111.20883179 42.22055054 C-110.28110962 41.82887695 -109.35338745 41.43720337 -108.39755249 41.03366089 C-102.7521016 38.64998795 -97.10724552 36.26491234 -91.46284485 33.87875366 C-86.75076445 31.88675618 -82.03845128 29.89530985 -77.32601929 27.90414429 C-76.4089621 27.51664001 -75.49190491 27.12913574 -74.54705811 26.72988892 C-58.08957498 19.77736233 -41.61291889 12.87104914 -25.12631226 5.98788452 C-24.25338028 5.62316544 -23.3804483 5.25844635 -22.48106384 4.88267517 C-20.84926905 4.20094321 -19.21723267 3.51978913 -17.58491516 2.83930969 C-6.52281131 -1.78315955 -6.52281131 -1.78315955 0 0 Z " fill="#F0F3F5" transform="translate(261.9510192871094,0.533355712890625)"/>
<path d="M0 0 C2.03561264 0.77140406 4.01379122 1.62248725 5.99819946 2.51742554 C6.75154572 2.84276276 7.50489197 3.16809998 8.28106689 3.5032959 C10.77208084 4.58225776 13.25391179 5.68090836 15.73648071 6.77914429 C17.51139944 7.55105649 19.28705137 8.32128471 21.06338501 9.0899353 C24.81444049 10.71391094 28.5628056 12.34388768 32.3097229 13.97738647 C40.6960186 17.62457655 49.12406002 21.17266752 57.55245972 24.72119141 C60.38253208 25.91300958 63.21171266 27.1069224 66.04067993 28.30136108 C79.86518301 34.13646904 93.70661779 39.93067911 107.55206299 45.71588135 C121.22291339 51.42944148 134.86756543 57.20217225 148.4984436 63.01037598 C164.53074488 69.84025948 180.59934757 76.58193746 196.68078613 83.29522705 C198.34186374 83.98956019 200.00229722 84.68543652 201.66204834 85.38293457 C205.88024528 87.15410161 210.10723398 88.89623327 214.35513306 90.59506226 C215.21797409 90.94519882 216.08081512 91.29533539 216.96980286 91.65608215 C218.6029729 92.31842372 220.240069 92.97120209 221.88169861 93.61228943 C227.10044285 95.74587967 231.41695406 98.20259098 234.04898071 103.46664429 C234.15654671 105.74770021 234.19790656 108.03196314 234.21011353 110.31552124 C234.21507843 111.01979248 234.22004333 111.72406372 234.22515869 112.44967651 C234.23978982 114.78476939 234.2465844 117.11979431 234.25210571 119.45492554 C234.25785706 121.07676699 234.26361479 122.69860842 234.26937866 124.32044983 C234.27989181 127.72424639 234.2857322 131.12801931 234.28921509 134.53182983 C234.29469589 138.88987609 234.31871353 143.24760929 234.34718704 147.60555744 C234.36582821 150.95733039 234.37101984 154.30902822 234.37255096 157.66084862 C234.37557546 159.26719051 234.38359717 160.87353115 234.39673615 162.47982216 C234.41382555 164.72998333 234.41190956 166.97938367 234.40542603 169.22958374 C234.40907166 170.50928543 234.41271729 171.78898712 234.41647339 173.10746765 C233.93402402 177.5174403 232.34972882 180.03891839 229.40835571 183.26742554 C225.77554257 185.11390507 222.3073148 184.78376703 218.29898071 184.65414429 C217.50620728 184.64060913 216.71343384 184.62707397 215.89663696 184.61312866 C213.94712507 184.57789652 211.99796445 184.5240925 210.04898071 184.46664429 C210.06469116 185.47042114 210.08040161 186.474198 210.09658813 187.50839233 C210.15103185 191.24496383 210.18538297 194.9815005 210.21377563 198.71835327 C210.22882947 200.33332218 210.24927719 201.94825042 210.27529907 203.56307983 C210.31183357 205.88910984 210.32874086 208.2145977 210.34194946 210.54086304 C210.35743332 211.25876511 210.37291718 211.97666718 210.38887024 212.71632385 C210.39035185 217.16474731 209.76868195 219.92462233 207.04898071 223.46664429 C202.94200811 226.68562282 201.68182452 226.46664429 196.04898071 226.46664429 C196.04898071 283.22664429 196.04898071 339.98664429 196.04898071 398.46664429 C173.93898071 398.46664429 151.82898071 398.46664429 129.04898071 398.46664429 C129.04898071 341.37664429 129.04898071 284.28664429 129.04898071 225.46664429 C126.73898071 225.46664429 124.42898071 225.46664429 122.04898071 225.46664429 C118.65958516 223.32985144 117.32315515 222.28916759 116.04898071 218.46664429 C116.04898071 207.24664429 116.04898071 196.02664429 116.04898071 184.46664429 C35.85898071 184.46664429 -44.33101929 184.46664429 -126.95101929 184.46664429 C-126.95101929 195.02664429 -126.95101929 205.58664429 -126.95101929 216.46664429 C-130.61768595 223.79997762 -130.61768595 223.79997762 -133.95101929 225.46664429 C-136.26101929 225.46664429 -138.57101929 225.46664429 -140.95101929 225.46664429 C-140.95101929 282.55664429 -140.95101929 339.64664429 -140.95101929 398.46664429 C-163.06101929 398.46664429 -185.17101929 398.46664429 -207.95101929 398.46664429 C-207.95101929 341.70664429 -207.95101929 284.94664429 -207.95101929 226.46664429 C-210.92101929 226.13664429 -213.89101929 225.80664429 -216.95101929 225.46664429 C-219.94554362 223.22075104 -220.76725051 222.01795062 -221.95101929 218.46664429 C-222.03583701 215.88034204 -222.06700158 213.32186372 -222.04867554 210.73617554 C-222.04726059 209.98575485 -222.04584564 209.23533417 -222.04438782 208.46217346 C-222.03879488 206.06778968 -222.02624373 203.67349976 -222.01351929 201.27914429 C-222.00850337 199.65479668 -222.00394062 198.03044761 -221.99984741 196.40609741 C-221.98882777 192.4262436 -221.97156802 188.44645985 -221.95101929 184.46664429 C-223.68738647 184.55365601 -223.68738647 184.55365601 -225.45883179 184.64242554 C-226.99785377 184.68934694 -228.53691961 184.73484454 -230.07601929 184.77914429 C-231.2168396 184.84198608 -231.2168396 184.84198608 -232.38070679 184.90609741 C-236.50751316 184.9950372 -239.15098861 184.7587451 -242.44320679 182.13461304 C-246.29528572 178.03652906 -246.08303003 174.94263887 -246.1121521 169.50424194 C-246.117117 168.79982468 -246.12208191 168.09540741 -246.12719727 167.36964417 C-246.14179869 165.03998842 -246.14861731 162.71040076 -246.15414429 160.38070679 C-246.15989718 158.76029458 -246.1656549 157.13988239 -246.17141724 155.51947021 C-246.18192132 152.12165002 -246.18776793 148.72385344 -246.19125366 145.32601929 C-246.19673873 140.97584882 -246.22076936 136.62599129 -246.24922562 132.27591896 C-246.26786456 128.92843721 -246.27305825 125.58103069 -246.27458954 122.23350143 C-246.27761351 120.62995059 -246.28563343 119.026401 -246.29877472 117.42290115 C-246.31586279 115.17763814 -246.3139487 112.93313766 -246.3074646 110.68783569 C-246.31293304 108.77280746 -246.31293304 108.77280746 -246.31851196 106.8190918 C-245.92346208 103.215254 -245.10278163 101.34821336 -242.95101929 98.46664429 C-241.14950562 97.17025757 -241.14950562 97.17025757 -238.97055054 96.16195679 C-238.07674683 95.74720093 -237.18294312 95.33244507 -236.26205444 94.90512085 C-229.66443185 92.03878902 -223.04168693 89.2387486 -216.39639282 86.48474121 C-211.58994013 84.49253917 -206.78853911 82.48820947 -201.98617554 80.48617554 C-200.9906366 80.07155563 -199.99509766 79.65693573 -198.96939087 79.22975159 C-188.49049542 74.86368607 -178.03202298 70.44968962 -167.57601929 66.02914429 C-165.69606587 65.23468519 -163.81610163 64.44025171 -161.93612671 63.64584351 C-158.16005192 62.0500856 -154.38411176 60.45400963 -150.60824585 58.85775757 C-140.28740685 54.49498086 -129.96400851 50.1382622 -119.64108276 45.78042603 C-116.83031655 44.5938385 -114.01956737 43.40721063 -111.20883179 42.22055054 C-110.28110962 41.82887695 -109.35338745 41.43720337 -108.39755249 41.03366089 C-102.7521016 38.64998795 -97.10724552 36.26491234 -91.46284485 33.87875366 C-86.75076445 31.88675618 -82.03845128 29.89530985 -77.32601929 27.90414429 C-76.4089621 27.51664001 -75.49190491 27.12913574 -74.54705811 26.72988892 C-58.08957498 19.77736233 -41.61291889 12.87104914 -25.12631226 5.98788452 C-24.25338028 5.62316544 -23.3804483 5.25844635 -22.48106384 4.88267517 C-20.84926905 4.20094321 -19.21723267 3.51978913 -17.58491516 2.83930969 C-6.52281131 -1.78315955 -6.52281131 -1.78315955 0 0 Z " fill="#CFE1E6" transform="translate(261.9510192871094,0.533355712890625)"/>
<path d="M0 0 C12.67250394 10.43253229 21.44267419 22.67717501 25.43261719 38.79882812 C25.59922353 41.35433597 25.66830513 43.91735301 25.65966797 46.47827148 C25.65996002 47.21081146 25.66025208 47.94335144 25.66055298 48.6980896 C25.65917086 51.09507514 25.64366306 53.49174132 25.62792969 55.88867188 C25.62419557 57.56018402 25.62135048 59.23169837 25.61935425 60.9032135 C25.61174917 65.28441501 25.5921278 69.66548213 25.56994629 74.04663086 C25.54942025 78.52455833 25.54033813 83.0025077 25.53027344 87.48046875 C25.50887873 96.25331661 25.47478088 105.02605561 25.43261719 113.79882812 C26.29806719 113.79090901 27.16351719 113.7829899 28.05519295 113.77483082 C49.11211537 113.58320072 70.16911881 113.4083691 91.22633553 113.25224018 C101.4094417 113.17633222 111.59244301 113.09473641 121.77539062 112.99975586 C130.65069915 112.91698662 139.52601921 112.84488384 148.4015168 112.7855956 C153.10116438 112.75382931 157.80063279 112.71671812 162.50012589 112.66683388 C166.92410343 112.6200427 171.34795718 112.58752252 175.77212715 112.56590652 C177.39510775 112.55546848 179.01806462 112.5398336 180.64093971 112.51858711 C182.85919687 112.49032758 185.07678221 112.48087939 187.29519653 112.47602844 C188.53592989 112.46588872 189.77666325 112.455749 191.05499458 112.44530201 C195.82828326 112.94490851 199.23121544 114.3272887 202.28930664 118.07299805 C203.67481293 121.37626041 203.77459752 123.83426387 203.72558594 127.41210938 C203.71591797 128.65927734 203.70625 129.90644531 203.69628906 131.19140625 C203.67115234 132.48498047 203.64601563 133.77855469 203.62011719 135.11132812 C203.60658203 136.42423828 203.59304688 137.73714844 203.57910156 139.08984375 C203.54379162 142.32658889 203.49446999 145.56249918 203.43261719 148.79882812 C204.46213501 148.76619873 204.46213501 148.76619873 205.51245117 148.73291016 C206.41294189 148.71599121 207.31343262 148.69907227 208.24121094 148.68164062 C209.58010376 148.64901123 209.58010376 148.64901123 210.94604492 148.61572266 C214.44967552 148.87372196 216.10649865 150.24760135 218.43261719 152.79882812 C220.48166768 156.89692911 219.74983444 162.10689998 219.80761719 166.61132812 C219.845 167.70509766 219.88238281 168.79886719 219.92089844 169.92578125 C220.00978159 178.02896225 220.00978159 178.02896225 217.03417969 181.99804688 C212.7133603 184.98888432 209.5491232 184.94170443 204.42303753 184.93025589 C203.16060783 184.93333484 203.16060783 184.93333484 201.87267449 184.93647599 C199.02168462 184.94217954 196.17074254 184.94068463 193.31974792 184.93927002 C191.26743413 184.94185173 189.21512083 184.94486435 187.16280824 184.94827342 C181.49899374 184.95636941 175.8351919 184.95813443 170.17137229 184.95887089 C164.0724102 184.96071693 157.97345474 184.96826196 151.87449646 184.9750061 C137.83123825 184.9893179 123.7879842 184.99511828 109.74472044 184.99969805 C102.80834227 185.00203235 95.87196493 185.0056348 88.9355874 185.00939343 C65.20172725 185.02223005 41.46786757 185.03294935 17.73400402 185.03639603 C16.2435572 185.03661766 14.75311038 185.03683944 13.26266356 185.03706138 C11.76857204 185.03728202 10.27448053 185.0375025 8.78038901 185.03772283 C5.78287327 185.03816538 2.78535753 185.0386125 -0.2121582 185.0390625 C-1.32697634 185.03922659 -1.32697634 185.03922659 -2.46431606 185.03939399 C-26.56991602 185.04302565 -50.67548592 185.05894925 -74.78107437 185.08225286 C-100.25400768 185.10683341 -125.72692381 185.12056803 -151.19986933 185.12176394 C-153.99465764 185.12193541 -156.78944594 185.12215084 -159.58423424 185.12239838 C-160.27241306 185.12245415 -160.96059188 185.12250991 -161.66962461 185.12256737 C-172.75773087 185.12371935 -183.84580636 185.13475375 -194.93390221 185.14928543 C-206.07309718 185.16363196 -217.21225312 185.16664478 -228.35145835 185.15884545 C-234.38944998 185.15492644 -240.42733778 185.15592933 -246.46531677 185.1699028 C-251.98783839 185.18256692 -257.51017738 185.18151054 -263.03269847 185.16931209 C-265.03540792 185.16734203 -267.03812997 185.17049329 -269.04082165 185.17915645 C-271.75419914 185.19015495 -274.46692129 185.1828282 -277.18027973 185.17076492 C-278.35816563 185.18215771 -278.35816563 185.18215771 -279.55984721 185.19378066 C-284.07323814 185.15018878 -286.99935886 184.62540887 -290.56738281 181.79882812 C-293.6663836 177.15032694 -292.93595735 172.39189393 -292.94238281 166.92382812 C-292.966875 165.83457031 -292.99136719 164.7453125 -293.01660156 163.62304688 C-293.04604551 155.60447851 -293.04604551 155.60447851 -290.66894531 151.60351562 C-287.42786162 148.82028019 -285.63715863 148.68254895 -281.44238281 148.73632812 C-280.53230469 148.74535156 -279.62222656 148.754375 -278.68457031 148.76367188 C-277.6365625 148.78107422 -277.6365625 148.78107422 -276.56738281 148.79882812 C-276.58833008 147.9820459 -276.60927734 147.16526367 -276.63085938 146.32373047 C-276.71423411 142.60722258 -276.76611269 138.8909118 -276.81738281 135.17382812 C-276.86765625 133.24603516 -276.86765625 133.24603516 -276.91894531 131.27929688 C-277.02952094 120.60874862 -277.02952094 120.60874862 -274.86425781 117.02539062 C-270.52471865 112.8186945 -266.43909553 112.55256448 -260.55021667 112.59628296 C-259.8558242 112.59865766 -259.16143173 112.60103236 -258.44599706 112.60347903 C-256.12585991 112.61387224 -253.80610813 112.63874304 -251.48608398 112.66357422 C-249.82034825 112.67400328 -248.15460671 112.68353797 -246.48886108 112.69224548 C-241.97060753 112.7183984 -237.45253737 112.75706556 -232.93439651 112.79796934 C-228.21122116 112.83860453 -223.4879753 112.86774513 -218.76472473 112.89810181 C-209.82228719 112.95732378 -200.87996123 113.02689246 -191.93762904 113.10017264 C-181.75638277 113.18310205 -171.5750659 113.25450589 -161.39372671 113.32493854 C-140.45150805 113.47007138 -119.50942043 113.62968815 -98.56738281 113.79882812 C-98.57626526 112.88586975 -98.58514771 111.97291138 -98.59429932 111.0322876 C-98.67480733 102.38298486 -98.73553005 93.73380994 -98.7746315 85.08421707 C-98.79541054 80.6385002 -98.82354853 76.19309573 -98.86914062 71.74755859 C-98.91294733 67.44867682 -98.93659253 63.15009349 -98.94689178 58.85100555 C-98.95422124 57.21971699 -98.96853202 55.58844276 -98.99030304 53.95728302 C-99.22054259 35.97404765 -94.43556753 21.30162402 -81.83691406 8.07617188 C-81.08796875 7.32464844 -80.33902344 6.573125 -79.56738281 5.79882812 C-78.9525 5.16074219 -78.33761719 4.52265625 -77.70410156 3.86523438 C-57.61555884 -15.44901762 -22.05364448 -16.9009238 0 0 Z " fill="#9BB8C1" transform="translate(292.5673828125,327.201171875)"/>
<path d="M0 0 C1.26749482 -0.00352835 1.26749482 -0.00352835 2.5605956 -0.00712797 C5.42307057 -0.01384284 8.2855004 -0.013359 11.1479826 -0.01294994 C13.20854614 -0.01624701 15.26910903 -0.01997225 17.32967108 -0.02409142 C23.01628719 -0.03413725 28.70289275 -0.03783235 34.38951647 -0.04048073 C40.51301978 -0.04437611 46.63651467 -0.0539549 52.76001263 -0.0626936 C66.85978947 -0.08154347 80.95956438 -0.09171687 95.05935028 -0.10015428 C102.02363294 -0.10435829 108.98791474 -0.10958058 115.95219667 -0.11483881 C139.78149634 -0.13272967 163.61079624 -0.14772699 187.44010162 -0.155159 C188.93654362 -0.15563376 190.43298561 -0.15610965 191.92942761 -0.15658666 C192.67154367 -0.15682303 193.41365973 -0.15705941 194.17826415 -0.15730295 C197.93832717 -0.15850417 201.69839017 -0.15971962 205.45845318 -0.16094494 C206.57775585 -0.16130516 206.57775585 -0.16130516 207.71967069 -0.16167267 C231.92228386 -0.16956849 256.12484807 -0.19300581 280.32743985 -0.22550088 C305.90283041 -0.25977657 331.4781923 -0.279508 357.05360621 -0.28280324 C359.85962849 -0.28322079 362.66565075 -0.28370036 365.47167301 -0.28422642 C366.16261814 -0.28434961 366.85356326 -0.2844728 367.56544612 -0.28459973 C378.6981963 -0.2869345 389.83088975 -0.30260981 400.96361969 -0.32306826 C412.14762876 -0.34329535 423.33157049 -0.34848417 434.51560072 -0.33929763 C440.57792666 -0.33473592 446.64006784 -0.33674741 452.70236874 -0.35605907 C458.24714049 -0.37357023 463.79159107 -0.37279167 469.33636566 -0.35716178 C471.34715256 -0.35476729 473.35796101 -0.35920353 475.36871479 -0.37099043 C478.09315502 -0.38597747 480.81643766 -0.37652889 483.54084778 -0.36076355 C484.32931374 -0.37098576 485.11777969 -0.38120796 485.93013856 -0.39173993 C489.65334878 -0.34441932 491.75963432 0.00588859 494.92283171 2.04015762 C499.3003859 6.5417702 498.25762631 11.97857602 498.3341856 17.94672108 C498.37156841 19.04049061 498.40895123 20.13426014 498.44746685 21.2611742 C498.53635001 29.3643552 498.53635001 29.3643552 495.5607481 33.33343983 C491.23992871 36.32427727 488.07569161 36.27709739 482.94960594 36.26564884 C481.68717624 36.26872779 481.68717624 36.26872779 480.39924291 36.27186894 C477.54825303 36.27757249 474.69731095 36.27607759 471.84631634 36.27466297 C469.79400254 36.27724469 467.74168924 36.2802573 465.68937665 36.28366637 C460.02556215 36.29176236 454.36176031 36.29352738 448.69794071 36.29426384 C442.59897861 36.29610989 436.50002315 36.30365492 430.40106487 36.31039906 C416.35780666 36.32471085 402.31455261 36.33051124 388.27128886 36.335091 C381.33491068 36.3374253 374.39853334 36.34102776 367.46215581 36.34478638 C343.72829566 36.357623 319.99443598 36.36834231 296.26057243 36.37178898 C294.77012561 36.37201061 293.27967879 36.3722324 291.78923197 36.37245433 C290.29514046 36.37267497 288.80104894 36.37289545 287.30695742 36.37311578 C284.30944169 36.37355834 281.31192595 36.37400545 278.31441021 36.37445545 C277.19959207 36.37461954 277.19959207 36.37461954 276.06225235 36.37478694 C251.95665239 36.3784186 227.85108249 36.3943422 203.74549404 36.41764582 C178.27256073 36.44222636 152.7996446 36.45596098 127.32669908 36.4571569 C124.53191077 36.45732836 121.73712247 36.45754379 118.94233418 36.45779133 C118.25415535 36.4578471 117.56597653 36.45790287 116.8569438 36.45796032 C105.76883754 36.4591123 94.68076206 36.4701467 83.5926662 36.48467838 C72.45347124 36.49902491 61.3143153 36.50203774 50.17511006 36.49423841 C44.13711844 36.49031939 38.09923063 36.49132228 32.06125164 36.50529575 C26.53873002 36.51795987 21.01639104 36.5169035 15.49386994 36.50470504 C13.49116049 36.50273498 11.48843844 36.50588624 9.48574676 36.5145494 C6.77236927 36.5255479 4.05964713 36.51822115 1.34628868 36.50615788 C0.56103141 36.51375307 -0.22422585 36.52134826 -1.03327879 36.52917361 C-5.54666973 36.48558173 -8.47279044 35.96080183 -12.0408144 33.13422108 C-15.13981519 28.48571989 -14.40938894 23.72728688 -14.4158144 18.25922108 C-14.44030659 17.16996326 -14.46479877 16.08070545 -14.49003315 14.95843983 C-14.5194771 6.93987146 -14.5194771 6.93987146 -12.1423769 2.93890858 C-8.26821522 -0.38797376 -4.89471921 -0.00912887 0 0 Z " fill="#86A0AF" transform="translate(14.040814399719238,475.86577892303467)"/>
<path d="M0 0 C12.67250394 10.43253229 21.44267419 22.67717501 25.43261719 38.79882812 C25.59922353 41.35433597 25.66830513 43.91735301 25.65966797 46.47827148 C25.65990904 47.22252915 25.66015011 47.96678682 25.66039848 48.73359776 C25.65891768 51.11874839 25.64374226 53.5035779 25.62792969 55.88867188 C25.62498542 57.37080739 25.62294734 58.85294499 25.62182617 60.33508301 C25.61138332 65.80219663 25.58346078 71.26926561 25.55761719 76.73632812 C25.51636719 88.96695313 25.47511719 101.19757813 25.43261719 113.79882812 C-15.48738281 113.79882812 -56.40738281 113.79882812 -98.56738281 113.79882812 C-98.64988281 101.67132813 -98.73238281 89.54382813 -98.81738281 77.04882812 C-98.85379883 73.24254883 -98.89021484 69.43626953 -98.92773438 65.51464844 C-98.94580078 60.80810547 -98.94580078 60.80810547 -98.94915771 58.59344482 C-98.9552349 57.07142435 -98.9691654 55.54942114 -98.98968506 54.02752686 C-99.22006971 36.01441414 -94.4603132 21.32760082 -81.83691406 8.07617188 C-81.08796875 7.32464844 -80.33902344 6.573125 -79.56738281 5.79882812 C-78.9525 5.16074219 -78.33761719 4.52265625 -77.70410156 3.86523438 C-57.61555884 -15.44901762 -22.05364448 -16.9009238 0 0 Z " fill="#C6865C" transform="translate(292.5673828125,327.201171875)"/>
<path d="M0 0 C22.11 0 44.22 0 67 0 C67 57.09 67 114.18 67 173 C44.89 173 22.78 173 0 173 C0 115.91 0 58.82 0 0 Z " fill="#9BB9C1" transform="translate(391,226)"/>
<path d="M0 0 C22.11 0 44.22 0 67 0 C67 57.09 67 114.18 67 173 C44.89 173 22.78 173 0 173 C0 115.91 0 58.82 0 0 Z " fill="#9AB8C0" transform="translate(54,226)"/>
<path d="M0 0 C7.2678614 5.1676429 13.5977701 11.88326791 15.8046875 20.7109375 C17.12025088 33.70548186 14.97681216 43.00273021 6.82528687 53.30203247 C3.41801415 57.36409273 -0.2942443 61.09492904 -4.05078125 64.83203125 C-4.87483963 65.65800308 -5.69889801 66.48397491 -6.54792786 67.3349762 C-8.27583464 69.06423448 -10.00623152 70.79100791 -11.73901367 72.51538086 C-14.39281851 75.15840285 -17.03569052 77.81202382 -19.67773438 80.46679688 C-21.36394184 82.15168391 -23.05076898 83.83595106 -24.73828125 85.51953125 C-25.52688034 86.3121788 -26.31547943 87.10482635 -27.12797546 87.92149353 C-27.86586807 88.65308182 -28.60376068 89.3846701 -29.36401367 90.13842773 C-30.00908371 90.78190659 -30.65415375 91.42538544 -31.31877136 92.08836365 C-34.14175992 94.52929464 -36.37005241 95.60329488 -40.0703125 96.0859375 C-46.472883 95.31762904 -50.87508323 90.32220181 -55.22265625 85.9140625 C-55.77466202 85.36159851 -56.32666779 84.80913452 -56.895401 84.2399292 C-58.05659069 83.07573456 -59.21536545 81.90912669 -60.37182617 80.74023438 C-62.11916755 78.97472433 -63.87428961 77.21726114 -65.63085938 75.4609375 C-70.87305481 70.20150658 -76.01719757 64.9222058 -80.8371582 59.26757812 C-82.54143364 57.31423277 -84.40232033 55.57737809 -86.3203125 53.8359375 C-93.34616635 46.93286556 -96.30388436 38.76715771 -96.5078125 29.0859375 C-96.39374053 19.07871488 -93.55920536 11.97627024 -86.5625 4.76171875 C-78.01626907 -2.64219419 -69.42777056 -4.39520778 -58.43359375 -3.82421875 C-52.98439573 -3.3040406 -48.66595081 -1.40811248 -44.1953125 1.7109375 C-41.52028939 3.96051396 -41.52028939 3.96051396 -39.24609375 3.48828125 C-37.03996699 2.65205415 -35.32625449 1.60732742 -33.3828125 0.2734375 C-23.19393385 -6.21892348 -10.4261912 -6.12214074 0 0 Z " fill="#DC636E" transform="translate(296.1953125,51.2890625)"/>
<path d="M0 0 C2.34414793 2.34414793 2.31115672 3.02973653 2.60546875 6.2265625 C4.33243465 22.27470906 7.90676078 35.74638011 19 48 C19.67804688 48.78375 20.35609375 49.5675 21.0546875 50.375 C24.26121237 54.02655857 27.51281971 57.57396143 31.0546875 60.90234375 C31.56483398 61.38783691 32.07498047 61.87333008 32.60058594 62.37353516 C34.056964 63.74827767 35.53198505 65.10318954 37.0078125 66.45703125 C39 69 39 69 38.8671875 71.76171875 C38 74 38 74 37 75 C35.05105041 75.09664967 33.09854545 75.12187121 31.14720154 75.12025452 C29.87528961 75.12162918 28.60337769 75.12300385 27.29292297 75.12442017 C25.87033058 75.12088055 24.44773842 75.11724573 23.02514648 75.11352539 C21.53733319 75.11324353 20.04951976 75.11340124 18.56170654 75.1139679 C14.51023 75.1142559 10.4587828 75.10835867 6.40731311 75.10139394 C2.17788003 75.09516092 -2.05155364 75.09455664 -6.2809906 75.09336853 C-14.29559722 75.09025506 -22.31019027 75.08204146 -30.32479089 75.07201904 C-39.44676684 75.06085839 -48.56874342 75.05534758 -57.69072449 75.05032361 C-76.46049226 75.03985886 -95.23024142 75.02151319 -114 75 C-114 65.43 -114 55.86 -114 46 C-109.813125 44.246875 -105.62625 42.49375 -101.3125 40.6875 C-80.19012838 31.83486079 -59.09546508 22.91651734 -38 14 C-37.24483093 13.68083618 -36.48966187 13.36167236 -35.71160889 13.03283691 C-31.34918117 11.1890892 -26.98697375 9.34482153 -22.625 7.5 C-21.61719482 7.07380371 -20.60938965 6.64760742 -19.57104492 6.20849609 C-18.65299072 5.82000488 -17.73493652 5.43151367 -16.7890625 5.03125 C-15.96075928 4.68151123 -15.13245605 4.33177246 -14.27905273 3.97143555 C-12.81362009 3.34680175 -11.35182207 2.71353287 -9.89477539 2.06958008 C-6.41999313 0.53559413 -3.83762746 -0.54823249 0 0 Z " fill="#9BB9C1" transform="translate(164,76)"/>
<path d="M0 0 C5.83315838 0.28705939 10.63623022 2.27778229 15.9453125 4.5859375 C16.8124588 4.954841 17.6796051 5.32374451 18.57302856 5.7038269 C21.42700552 6.91993622 24.27589702 8.14752085 27.125 9.375 C29.12299468 10.22842388 31.12137346 11.08094907 33.12011719 11.93261719 C37.29480467 13.71231046 41.46778995 15.49591232 45.63964844 17.28222656 C54.86748858 21.22984276 64.11498934 25.13084858 73.36273193 29.03155518 C76.17099731 30.21666038 78.97843383 31.40370761 81.78564453 32.59130859 C92.49965157 37.12111024 103.23712372 41.58745419 114 46 C114 55.57 114 65.14 114 75 C94.34658517 75.0451037 74.69321208 75.08196397 55.03975868 75.10362434 C45.91483333 75.11394783 36.78994235 75.12802858 27.66503906 75.15087891 C19.71407689 75.17078004 11.76313961 75.18370863 3.81215322 75.18817699 C-0.39991436 75.19078994 -4.61191072 75.19695363 -8.82395554 75.21146011 C-12.78505256 75.22499234 -16.74604873 75.22923153 -20.70716667 75.22621536 C-22.16408396 75.22676749 -23.62100448 75.23077085 -25.07790184 75.23841095 C-27.06089235 75.2483035 -29.04393646 75.24479082 -31.02694702 75.24050903 C-32.69447053 75.24327441 -32.69447053 75.24327441 -34.39568138 75.24609566 C-37 75 -37 75 -39 73 C-38.7310847 68.88937757 -37.45256229 66.98543388 -34.5 64.21484375 C-33.78166992 63.52535645 -33.06333984 62.83586914 -32.32324219 62.12548828 C-31.55657227 61.40345215 -30.78990234 60.68141602 -30 59.9375 C-13.75584498 44.14288152 -3.29301821 26.95695172 -2.2734375 3.8203125 C-2 2 -2 2 0 0 Z " fill="#9BB9C1" transform="translate(348,76)"/>
<path d="M0 0 C0 40.92 0 81.84 0 124 C-17.82 124 -35.64 124 -54 124 C-54.16043524 105.76386136 -54.16043524 105.76386136 -54.1953125 97.92578125 C-54.21912427 92.5999333 -54.24713972 87.27436323 -54.30175781 81.94873047 C-54.34556452 77.6498487 -54.36920971 73.35126537 -54.37950897 69.05217743 C-54.38683842 67.42088887 -54.40114921 65.78961464 -54.42292023 64.1584549 C-54.65315978 46.17521952 -49.86818471 31.50279589 -37.26953125 18.27734375 C-36.52058594 17.52582031 -35.77164063 16.77429688 -35 16 C-34.38511719 15.36191406 -33.77023438 14.72382813 -33.13671875 14.06640625 C-24.45692396 5.72116458 -12.03963921 0 0 0 Z " fill="#C6865C" transform="translate(248,317)"/>
<path d="M0 0 C1.39424194 -0.00856522 1.39424194 -0.00856522 2.81665039 -0.01730347 C4.35097969 -0.01898026 4.35097969 -0.01898026 5.91630554 -0.02069092 C6.99121246 -0.02565582 8.06611938 -0.03062073 9.17359924 -0.03573608 C12.74238212 -0.05038419 16.31112054 -0.05716425 19.87992859 -0.06268311 C22.35373944 -0.06843253 24.82755027 -0.07419028 27.30136108 -0.07995605 C32.49413766 -0.09047369 37.68689871 -0.09631132 42.87968445 -0.09979248 C49.53798815 -0.10449149 56.19605834 -0.12930341 62.85430622 -0.15776443 C67.9663554 -0.17637618 73.07835521 -0.18159565 78.19043541 -0.18312836 C80.64526169 -0.18615889 83.10008702 -0.19420081 85.55488014 -0.20731354 C88.98801401 -0.22434249 92.42064674 -0.22250119 95.85380554 -0.21600342 C96.87061905 -0.2252182 97.88743256 -0.23443298 98.93505859 -0.243927 C107.66737829 -0.19207838 107.66737829 -0.19207838 111.57914734 3.14044189 C114.6111213 7.68840284 113.94757373 12.16452212 113.95414734 17.51544189 C113.97863953 18.55700439 114.00313171 19.59856689 114.02836609 20.67169189 C114.0577945 28.34269663 114.0577945 28.34269663 111.68070984 32.30450439 C108.66020241 34.94323765 107.03983251 35.26712595 103.12033081 35.28761292 C102.18242203 35.29476822 101.24451324 35.30192352 100.27818298 35.30929565 C99.24594604 35.31198456 98.21370911 35.31467346 97.15019226 35.31744385 C96.06553177 35.32401505 94.98087128 35.33058624 93.86334229 35.33735657 C90.26209958 35.35712074 86.66089862 35.36875859 83.05961609 35.37872314 C81.83204401 35.38279867 80.60447193 35.3868742 79.3397007 35.39107323 C73.51392442 35.40979249 67.68816464 35.42435582 61.86236399 35.4326852 C55.13893528 35.44245678 48.41583586 35.46877374 41.69252318 35.50918609 C35.8683555 35.54299162 30.04429827 35.55483076 24.22004128 35.55888939 C21.74287494 35.56376914 19.26571248 35.57542229 16.78861046 35.59392738 C13.32423374 35.61820082 9.86072123 35.61737505 6.39628601 35.6104126 C4.85703964 35.62962769 4.85703964 35.62962769 3.28669739 35.64923096 C-1.14253855 35.61673219 -3.69229971 35.58605133 -7.53442383 33.23606873 C-11.60717438 28.71166516 -10.68014649 23.64869689 -10.73335266 17.82794189 C-10.76235657 16.78186768 -10.79136047 15.73579346 -10.82124329 14.65802002 C-10.88529949 6.91707361 -10.88529949 6.91707361 -8.52632141 2.97247314 C-5.51234634 0.34992341 -3.9040389 0.01433349 0 0 Z " fill="#86A0AF" transform="translate(204.4208526611328,237.85955810546875)"/>
<path d="M0 0 C0.33 0 0.66 0 1 0 C1 22.77 1 45.54 1 69 C-49.82 69 -100.64 69 -153 69 C-153 34 -153 34 -150 29 C-146.32403215 26.54935477 -143.55461323 26.71108501 -139.30322266 26.7253418 C-138.52077682 26.72023087 -137.73833099 26.71511993 -136.93217468 26.70985413 C-134.34272637 26.69594165 -131.75354377 26.69691632 -129.1640625 26.69921875 C-127.36428732 26.69533231 -125.56451306 26.69099775 -123.76473999 26.68623352 C-119.99026519 26.67876745 -116.21588391 26.67906508 -112.44140625 26.68432617 C-107.60695053 26.69011691 -102.77287841 26.67320132 -97.9384861 26.6499815 C-94.22040573 26.63524026 -90.50241761 26.63437306 -86.7843132 26.63749123 C-85.0021425 26.63697806 -83.21996662 26.63174127 -81.43782425 26.62167931 C-78.94348595 26.60932656 -76.449893 26.61609964 -73.95556641 26.62768555 C-72.85348595 26.61621994 -72.85348595 26.61621994 -71.72914124 26.60452271 C-67.31145361 26.64981981 -64.50526622 27.27138887 -61 30 C-57.98502404 34.55959216 -57.64226061 38.188384 -57.70703125 43.5859375 C-57.71827026 45.51252197 -57.71827026 45.51252197 -57.72973633 47.47802734 C-57.75704834 49.09402832 -57.78436035 50.7100293 -57.8125 52.375 C-57.874375 57.53125 -57.93625 62.6875 -58 68 C-38.86 68 -19.72 68 0 68 C0 45.56 0 23.12 0 0 Z " fill="#CFE1E6" transform="translate(193,372)"/>
<path d="M0 0 C0.33 0 0.66 0 1 0 C1 22.44 1 44.88 1 68 C20.47 68 39.94 68 60 68 C59.72366034 56.75051078 59.72366034 56.75051078 59.36938477 45.50341797 C59.34892217 44.08304543 59.33108893 42.66263155 59.31640625 41.2421875 C59.2626886 40.15466187 59.2626886 40.15466187 59.20788574 39.04516602 C59.20328906 35.18789398 59.89263042 32.40847131 62.40356445 29.5324707 C68.66660004 24.89602543 77.79667632 26.16650609 85.2265625 26.23828125 C87.02062231 26.23677771 88.81468144 26.23334494 90.60873413 26.22807312 C94.35960749 26.22375029 98.10961849 26.24051733 101.86035156 26.27270508 C106.663675 26.31254343 111.46538737 26.30315842 116.26876259 26.27847004 C119.96978939 26.26427899 123.67044066 26.27437889 127.37144089 26.29198265 C129.1424304 26.29782389 130.91345846 26.29654273 132.6844368 26.28795815 C135.1597955 26.27995219 137.63280173 26.30423862 140.10791016 26.3371582 C140.83634628 26.32860809 141.56478241 26.32005798 142.31529236 26.31124878 C146.23811288 26.40114572 147.86227114 26.88644163 150.93075562 29.41642761 C160.37305793 41.20569316 154 46.11880489 154 69 C103.18 69 52.36 69 0 69 C0 46.23 0 23.46 0 0 Z " fill="#D0E1E5" transform="translate(318,372)"/>
<path d="M0 0 C7.59 0 15.18 0 23 0 C23 57.09 23 114.18 23 173 C15.41 173 7.82 173 0 173 C0 115.91 0 58.82 0 0 Z " fill="#86A0AF" transform="translate(435,226)"/>
<path d="M0 0 C7.59 0 15.18 0 23 0 C23 57.09 23 114.18 23 173 C15.41 173 7.82 173 0 173 C0 115.91 0 58.82 0 0 Z " fill="#86A0AF" transform="translate(98,226)"/>
<path d="M0 0 C9.17863261 -0.27814038 15.43362737 2.73242169 22.140625 8.9296875 C30.11402039 17.80762774 31.70756823 26.53941775 31.17480469 38.04394531 C30.06787144 50.43046654 19.44368503 59.8648763 11.14453125 68.12109375 C10.32047287 68.94706558 9.49641449 69.77303741 8.64738464 70.6240387 C6.91947786 72.35329698 5.18908098 74.08007041 3.45629883 75.80444336 C0.80249399 78.44746535 -1.84037802 81.10108632 -4.48242188 83.75585938 C-6.16862934 85.44074641 -7.85545648 87.12501356 -9.54296875 88.80859375 C-10.33156784 89.6012413 -11.12016693 90.39388885 -11.93266296 91.21055603 C-12.67055557 91.94214432 -13.40844818 92.6737326 -14.16870117 93.42749023 C-14.81377121 94.07096909 -15.45884125 94.71444794 -16.12345886 95.37742615 C-18.94644742 97.81835714 -21.17473991 98.89235738 -24.875 99.375 C-31.18847615 98.61738286 -35.51836531 93.78264313 -39.8359375 89.4296875 C-40.62226059 88.64623459 -40.62226059 88.64623459 -41.42446899 87.84695435 C-42.52095082 86.751824 -43.6149494 85.6542021 -44.70654297 84.55419922 C-46.38417482 82.86576611 -48.07233371 81.18838325 -49.76171875 79.51171875 C-50.82876763 78.44334978 -51.89519676 77.37436139 -52.9609375 76.3046875 C-53.72016006 75.55153763 -53.72016006 75.55153763 -54.49472046 74.78317261 C-58 71.22997097 -58 71.22997097 -58 69 C-57.12859375 68.90203125 -56.2571875 68.8040625 -55.359375 68.703125 C-42.94370129 67.14444735 -32.33509419 64.21175503 -22 57 C-21.31292969 56.52175781 -20.62585938 56.04351562 -19.91796875 55.55078125 C-10.0929033 47.85738681 -3.98033977 35.90361895 -1 24 C-0.80535156 23.26523438 -0.61070312 22.53046875 -0.41015625 21.7734375 C0.20987399 17.5808521 0.10351795 13.41865895 0.0625 9.1875 C0.05798828 8.30384766 0.05347656 7.42019531 0.04882812 6.50976562 C0.03709866 4.33981441 0.01916495 2.16989828 0 0 Z " fill="#D94B55" transform="translate(281,48)"/>
<path d="M0 0 C10.39655172 3.46551724 10.39655172 3.46551724 14.8125 5.4375 C15.70582031 5.82808594 16.59914063 6.21867187 17.51953125 6.62109375 C20.84670709 8.47068914 23.28645966 10.57291932 25 14 C25.107566 16.28105593 25.14892585 18.56531886 25.16113281 20.84887695 C25.16858017 21.90528381 25.16858017 21.90528381 25.17617798 22.98303223 C25.19080911 25.31812511 25.19760368 27.65315002 25.203125 29.98828125 C25.20887634 31.6101227 25.21463408 33.23196413 25.22039795 34.85380554 C25.2309111 38.2576021 25.23675148 41.66137503 25.24023438 45.06518555 C25.24571517 49.4232318 25.26973282 53.780965 25.29820633 58.13891315 C25.3168475 61.4906861 25.32203913 64.84238393 25.32357025 68.19420433 C25.32659475 69.80054623 25.33461646 71.40688686 25.34775543 73.01317787 C25.36484483 75.26333905 25.36292884 77.51273939 25.35644531 79.76293945 C25.36191376 81.68249199 25.36191376 81.68249199 25.36749268 83.64082336 C24.88504331 88.05079601 23.30074811 90.5722741 20.359375 93.80078125 C16.72656186 95.64726078 13.25833409 95.31712274 9.25 95.1875 C8.45722656 95.17396484 7.66445313 95.16042969 6.84765625 95.14648438 C4.89814436 95.11125223 2.94898374 95.05744821 1 95 C1.01571045 96.00377686 1.0314209 97.00755371 1.04760742 98.04174805 C1.10205114 101.77831955 1.13640226 105.51485621 1.16479492 109.25170898 C1.17984876 110.86667789 1.20029648 112.48160613 1.22631836 114.09643555 C1.26285286 116.42246555 1.27976015 118.74795341 1.29296875 121.07421875 C1.30845261 121.79212082 1.32393646 122.51002289 1.33988953 123.24967957 C1.3413716 127.69950462 0.83950873 130.5306914 -2 134 C-7 137 -7 137 -20 136 C-20 122.47 -20 108.94 -20 95 C-13.4 95 -6.8 95 0 95 C0 63.65 0 32.3 0 0 Z " fill="#B4D0D5" transform="translate(471,90)"/>
<path d="M0 0 C5.28 0 10.56 0 16 0 C16 41.25 16 82.5 16 125 C10.72 125 5.44 125 0 125 C0 83.75 0 42.5 0 0 Z " fill="#B16F3E" transform="translate(248,316)"/>
<path d="M0 0 C0.33 0 0.66 0 1 0 C1 22.77 1 45.54 1 69 C-25.73 69 -52.46 69 -80 69 C-80 55.14 -80 41.28 -80 27 C-66 27 -66 27 -61 30 C-57.98502404 34.55959216 -57.64226061 38.188384 -57.70703125 43.5859375 C-57.71827026 45.51252197 -57.71827026 45.51252197 -57.72973633 47.47802734 C-57.75704834 49.09402832 -57.78436035 50.7100293 -57.8125 52.375 C-57.874375 57.53125 -57.93625 62.6875 -58 68 C-38.86 68 -19.72 68 0 68 C0 45.56 0 23.12 0 0 Z " fill="#BBD1D5" transform="translate(193,372)"/>
<path d="M0 0 C4.95 0 9.9 0 15 0 C20.96587156 5.96587156 20.96587156 5.96587156 21.11352539 10.43994141 C21.11336685 11.91049128 21.10770544 13.38104696 21.09765625 14.8515625 C21.0962413 15.62559418 21.09482635 16.39962585 21.09336853 17.19711304 C21.08776403 19.67311442 21.07521083 22.14902588 21.0625 24.625 C21.05748558 26.30208203 21.05292257 27.97916547 21.04882812 29.65625 C21.03864336 33.77089597 21.01906894 37.88534715 21 42 C14.07 42 7.14 42 0 42 C0 28.14 0 14.28 0 0 Z " fill="#B4D0D5" transform="translate(451,399)"/>
<path d="M0 0 C6.93 0 13.86 0 21 0 C21.09200081 4.89393178 21.1715799 9.78484642 21.21972656 14.67895508 C21.23980207 16.34247013 21.26706876 18.00591496 21.30175781 19.66918945 C21.35045766 22.0647924 21.37300856 24.45945992 21.390625 26.85546875 C21.41127014 27.5952446 21.43191528 28.33502045 21.45318604 29.09721375 C21.45477859 32.788885 21.12059871 34.812917 19.10058594 37.9465332 C13.16626345 43.74774037 11.25143554 41 0 41 C0 27.47 0 13.94 0 0 Z " fill="#B4D0D5" transform="translate(113,185)"/>
</svg>
