<?xml version="1.0" encoding="UTF-8"?>
<svg version="1.1" xmlns="http://www.w3.org/2000/svg" width="512" height="512">
<path d="M0 0 C0.70660243 -0.00367669 1.41320487 -0.00735338 2.1412195 -0.01114148 C4.52094191 -0.02219893 6.9006207 -0.02602567 9.28036499 -0.02983093 C10.98194519 -0.03609416 12.68352401 -0.04274084 14.38510132 -0.04974365 C19.01759894 -0.06716948 23.65008622 -0.07771031 28.28260851 -0.08594918 C31.17691636 -0.09109732 34.071221 -0.09717322 36.96552658 -0.10346031 C46.02108771 -0.12251914 55.07664066 -0.13674727 64.132218 -0.14507228 C74.5848473 -0.15484005 85.03726457 -0.18114464 95.48981917 -0.22157317 C103.56805114 -0.25174542 111.64622238 -0.26654232 119.7245096 -0.26985329 C124.54937219 -0.27220304 129.37400845 -0.28115328 134.19881058 -0.30631447 C138.74114567 -0.32961876 143.28310582 -0.33381895 147.82548523 -0.32355309 C149.48952355 -0.32305814 151.15358046 -0.32936633 152.8175621 -0.34310913 C162.77589748 -0.42072853 169.90641573 -0.19017063 177.95761108 6.39717102 C184.56267686 14.4700292 184.78652772 21.41492337 184.72227478 31.51908875 C184.72760442 32.9831775 184.73467252 34.44726077 184.74332184 35.91133368 C184.76192111 39.92162967 184.75565366 43.93155569 184.74516881 47.94186687 C184.73816899 52.27191557 184.75418072 56.60188886 184.76716614 60.93191528 C184.78879884 69.40990117 184.78868102 77.8877528 184.78054059 86.36575721 C184.77423816 93.25765671 184.77537986 100.14951708 184.78181267 107.04141617 C184.78271432 108.02269826 184.78361598 109.00398035 184.78454496 110.01499826 C184.78639618 112.00854369 184.78825874 114.00208911 184.79013252 115.99563451 C184.80670868 134.68686705 184.79799359 153.37802409 184.78114694 172.06925209 C184.76645269 189.1627832 184.78107484 206.2561385 184.8099171 223.34964697 C184.83932285 240.90810039 184.85027978 258.4664727 184.8407349 276.02494967 C184.83971236 278.01173121 184.83871775 279.99851277 184.83775139 281.98529434 C184.837275 282.96278646 184.83679861 283.94027859 184.83630778 284.94739168 C184.83414507 291.82823909 184.84394022 298.70900958 184.85852242 305.58983994 C184.87605432 313.97948381 184.87591617 322.36890361 184.85317076 330.75853871 C184.84203592 335.03733342 184.83884866 339.31573347 184.85747147 343.59451103 C184.87431673 347.51540613 184.86787125 351.43556363 184.84325468 355.35641129 C184.83838413 356.77087319 184.84185232 358.18539504 184.85474212 359.59980659 C184.92651921 368.09228901 184.33686626 375.11609838 179.20761108 382.14717102 C173.86491464 387.12834299 169.67592827 389.26913288 162.30103016 389.2813921 C161.05990178 389.28584994 159.8187734 389.29030779 158.54003507 389.29490072 C157.15520464 389.29481142 155.77037422 389.29462156 154.38554382 389.29434204 C152.92022628 389.29764066 151.45490964 389.30136622 149.98959416 389.30548352 C145.95285547 389.31551191 141.91613164 389.31922166 137.87938225 389.32187283 C133.52954165 389.32577339 129.17971284 389.33535189 124.82987976 389.34408569 C114.32006508 389.36385704 103.81024942 389.37391712 93.30042079 389.38281348 C88.35284425 389.38719525 83.40526879 389.39256235 78.4576931 389.39780235 C62.01373294 389.41481523 45.56977346 389.42930986 29.12580585 389.43655109 C24.85758272 389.43846103 20.58935959 389.44038136 16.32113647 389.44233704 C14.72984067 389.44306265 14.72984067 389.44306265 13.10639747 389.44380292 C-4.08253444 389.45210489 -21.27139679 389.47744437 -38.46029832 389.50991771 C-56.10218693 389.5429755 -73.74404017 389.56099869 -91.38595992 389.56419533 C-101.29351572 389.56636161 -111.20097008 389.57512744 -121.10849571 389.60065651 C-129.54548531 389.622346 -137.98234885 389.63042256 -146.41936316 389.62068973 C-150.7241651 389.61613995 -155.02870683 389.6180705 -159.33347321 389.63745117 C-163.27593845 389.65504743 -167.21795299 389.65411414 -171.16042278 389.63855388 C-172.58510136 389.63617241 -174.00981086 389.64052938 -175.43444213 389.65238253 C-184.31222211 389.72165961 -190.86090423 389.40271861 -197.81582642 383.40107727 C-198.26184204 382.84291321 -198.70785767 382.28474915 -199.16738892 381.70967102 C-199.62887329 381.15408508 -200.09035767 380.59849915 -200.56582642 380.02607727 C-203.59907175 375.37960909 -204.04551708 371.38457824 -204.05981445 365.88444519 C-204.06434557 365.16358455 -204.06887668 364.44272391 -204.0735451 363.700019 C-204.08618177 361.29024757 -204.08456926 358.88070234 -204.08291626 356.47090149 C-204.08890174 354.74106048 -204.09570733 353.01122215 -204.10327148 351.28138733 C-204.12093089 346.5874025 -204.12562667 341.8934906 -204.12690306 337.19947577 C-204.1288025 333.28262248 -204.13616006 329.36578618 -204.14324725 325.44893944 C-204.15952649 316.21243626 -204.1644164 306.97597206 -204.16299438 297.73945618 C-204.16179118 288.20254019 -204.18292963 278.66584985 -204.21448171 269.12899101 C-204.24059699 260.94461145 -204.25136377 252.76030586 -204.25008357 244.57588494 C-204.24957278 239.68584832 -204.25532056 234.79601251 -204.27643967 229.9060173 C-204.29574371 225.31111176 -204.29600064 220.71660032 -204.2814064 216.12168121 C-204.27930783 214.43297122 -204.28408119 212.74423703 -204.29612732 211.0555687 C-204.31147798 208.75521965 -204.30234136 206.45624722 -204.28686523 204.15592957 C-204.28795477 202.86730452 -204.2890443 201.57867947 -204.29016685 200.25100517 C-203.79238892 197.14717102 -203.79238892 197.14717102 -201.98670387 195.23338509 C-198.70031902 193.60658241 -195.4735178 193.71898833 -191.88613892 193.74873352 C-191.12442383 193.74586334 -190.36270874 193.74299316 -189.57791138 193.74003601 C-187.97084813 193.73799868 -186.3637599 193.74350545 -184.75674438 193.75605774 C-182.30061251 193.77211725 -179.84612602 193.75619906 -177.39004517 193.73701477 C-175.82623946 193.73899726 -174.26243478 193.74284106 -172.69863892 193.74873352 C-171.96625 193.74266083 -171.23386108 193.73658813 -170.47927856 193.73033142 C-167.35383253 193.77332073 -165.101564 193.98349368 -162.31777954 195.45722961 C-160.79238892 197.14717102 -160.79238892 197.14717102 -160.47988892 200.58467102 C-160.79238892 204.14717102 -160.79238892 204.14717102 -161.29238892 205.92451477 C-163.64582277 216.38626371 -161.87648856 226.23275309 -156.50723267 235.32295227 C-151.38010131 242.90653653 -144.12192848 247.40954297 -135.31973267 249.67451477 C-125.62341106 251.48789176 -116.79363744 249.61190409 -108.24160767 244.67451477 C-101.36938359 239.7888832 -97.65902488 233.55921965 -94.41738892 225.89717102 C-93.31212962 219.26561522 -92.64465616 211.59036929 -94.79238892 205.14717102 C-95.03067017 203.20967102 -95.03067017 203.20967102 -95.10488892 201.14717102 C-95.16096313 200.12623352 -95.16096313 200.12623352 -95.21817017 199.08467102 C-94.79238892 197.14717102 -94.79238892 197.14717102 -93.25314331 195.54736328 C-89.86928109 193.62191404 -86.78051798 193.750937 -82.99453735 193.80659485 C-82.2136676 193.80615677 -81.43279785 193.80571869 -80.62826538 193.80526733 C-78.05250873 193.80735394 -75.47740657 193.83067852 -72.90176392 193.85420227 C-71.1138647 193.85979869 -69.32596088 193.86406857 -67.53805542 193.86706543 C-62.83616395 193.8785106 -58.13455124 193.90797495 -53.43276978 193.94117737 C-47.78934489 193.97728594 -42.14582672 193.99104097 -36.50231934 194.00853729 C-27.93214876 194.03761251 -19.36258961 194.09510184 -10.79238892 194.14717102 C-11.12238892 173.68717102 -11.45238892 153.22717102 -11.79238892 132.14717102 C-14.26738892 133.13717102 -14.26738892 133.13717102 -16.79238892 134.14717102 C-27.09531546 136.43671025 -36.93413193 135.01678919 -46.19473267 129.79170227 C-54.68141784 123.71582209 -60.78415656 115.5293534 -62.79238892 105.14717102 C-63.75679777 92.73633581 -61.88217188 82.81654987 -53.77285767 73.15107727 C-45.89621037 65.18121522 -37.20874023 62.01941804 -26.16738892 61.83467102 C-20.97871131 61.85098762 -16.74930638 62.66068756 -11.79238892 64.14717102 C-11.78025864 63.05175995 -11.78025864 63.05175995 -11.7678833 61.93421936 C-11.68990499 55.04816527 -11.60260444 48.16228549 -11.50486183 41.27648544 C-11.45494067 37.73651286 -11.40861049 34.19656951 -11.37051392 30.65644836 C-11.32654649 26.58545714 -11.26691228 22.51482593 -11.20645142 18.44404602 C-11.19490021 17.17413818 -11.183349 15.90423035 -11.17144775 14.59584045 C-11.15157806 13.41491821 -11.13170837 12.23399597 -11.11123657 11.01728821 C-11.0979129 9.97804199 -11.08458923 8.93879578 -11.07086182 7.86805725 C-10.78880775 5.11218038 -10.29718345 3.45612118 -8.79238892 1.14717102 C-5.86244778 -0.31779955 -3.27290962 0.01100535 0 0 Z " fill="#FD8086" transform="translate(327.7923889160156,122.85282897949219)"/>
<path d="M0 0 C8.41153419 7.68083526 13.15150642 18.73411055 13.98828125 29.94140625 C14.2343339 41.11737648 11.72921645 49.7915671 6.75 59.75 C26.22 59.75 45.69 59.75 65.75 59.75 C65.86295865 82.65523311 65.95502584 105.56023997 66.00906086 128.46568108 C66.03481944 139.10157127 66.06992519 149.73727584 66.12719727 160.37304688 C66.17710397 169.64545987 66.20930806 178.91773841 66.22044247 188.19028199 C66.22694891 193.09803106 66.24219199 198.00539553 66.27865028 202.91302109 C66.31272461 207.53744577 66.32302996 212.16132939 66.31553841 216.78586769 C66.31690786 218.47810753 66.32677212 220.17036648 66.34602737 221.86249733 C66.4437672 230.89914082 66.52143128 239.22894746 60.75 246.75 C54.91837204 252.156599 50.63790508 253.87588874 42.63166809 253.87025452 C41.9022325 253.87110894 41.1727969 253.87196337 40.4212572 253.87284368 C37.97067338 253.87449422 35.52015762 253.86898406 33.06958008 253.86352539 C31.31546531 253.8632434 29.56135042 253.86340148 27.80723572 253.8639679 C23.0389601 253.86425541 18.27070952 253.85836606 13.50243974 253.85139394 C8.52162187 253.8451528 3.54080347 253.844556 -1.4400177 253.84336853 C-10.87473703 253.84025746 -20.30944481 253.83204709 -29.74415904 253.82201904 C-40.48404689 253.81085095 -51.22393528 253.80534569 -61.96382749 253.80032361 C-84.05922621 253.7898643 -106.15460909 253.77152159 -128.25 253.75 C-128.58 241.54 -128.91 229.33 -129.25 216.75 C-131.56 217.74 -133.87 218.73 -136.25 219.75 C-145.53727749 220.954836 -153.54867157 220.28095405 -161.25 214.75 C-167.91067658 209.56804505 -171.521227 202.97378934 -173.25 194.75 C-174.19084208 186.82224868 -172.23404062 180.071193 -167.70703125 173.515625 C-163.14704313 167.96433512 -157.4928476 163.07295556 -150.25 161.75 C-148.35768662 161.60759726 -146.45993053 161.52976362 -144.5625 161.5 C-143.10263672 161.46132813 -143.10263672 161.46132813 -141.61328125 161.421875 C-138.25 161.75 -138.25 161.75 -129.25 164.75 C-128.92 130.1 -128.59 95.45 -128.25 59.75 C-108.78 59.75 -89.31 59.75 -69.25 59.75 C-71.23 55.79 -73.21 51.83 -75.25 47.75 C-76.19499933 44.22772977 -76.88259964 41.3034504 -77.25 37.75 C-77.3325 36.96238281 -77.415 36.17476563 -77.5 35.36328125 C-78.16775727 22.40461667 -72.25306683 10.04668993 -63.75 0.5625 C-45.07826211 -17.10576637 -19.18911186 -15.40943831 0 0 Z " fill="#FED05B" transform="translate(446.25,258.25)"/>
<path d="M0 0 C1.07872769 -0.00551503 1.07872769 -0.00551503 2.17924786 -0.01114148 C4.59517308 -0.02217729 7.01105529 -0.0260219 9.42700195 -0.02983093 C11.15654639 -0.03609543 12.88608949 -0.04274222 14.6156311 -0.04974365 C19.31797958 -0.06714914 24.02031789 -0.0777032 28.72269058 -0.08594918 C31.65833971 -0.09109805 34.59398567 -0.09717369 37.52963257 -0.10346031 C46.7085192 -0.12250721 55.88739779 -0.13674199 65.06630039 -0.14507228 C75.67404936 -0.15485773 86.28159037 -0.18121335 96.88926601 -0.22157317 C105.08208873 -0.25167981 113.27485163 -0.26653577 121.46772861 -0.26985329 C126.36451502 -0.27220912 131.26107914 -0.281239 136.1578064 -0.30631447 C140.76087532 -0.32950641 145.36357416 -0.33386449 149.96668625 -0.32355309 C151.65862633 -0.32305552 153.35058409 -0.32944065 155.04246902 -0.34310913 C157.3472846 -0.36069211 159.65075212 -0.35379085 161.95556641 -0.34057617 C163.24678909 -0.34296453 164.53801178 -0.34535288 165.86836243 -0.34781361 C168.9777832 0.14717102 168.9777832 0.14717102 170.89202118 2.01919365 C172.25064903 4.68195884 172.3713203 6.58383112 172.39770508 9.570755 C172.41361694 10.65545578 172.42952881 11.74015656 172.44592285 12.85772705 C172.44612427 14.0244545 172.44632568 15.19118195 172.4465332 16.39326477 C172.45414673 17.59652908 172.46176025 18.7997934 172.46960449 20.03952026 C172.48040899 22.58392766 172.48325721 25.12837942 172.47875977 27.67280579 C172.47778769 31.56670555 172.51940513 35.45863404 172.5637207 39.35224915 C172.56892776 41.82425024 172.5716159 44.29625819 172.5715332 46.76826477 C172.58792847 47.93296799 172.60432373 49.0976712 172.62121582 50.29766846 C172.54428985 59.29072204 172.54428985 59.29072204 169.64990234 62.41059875 C166.05849587 64.74460279 164.11300286 64.38130384 159.9152832 63.77217102 C149.17356687 62.59427629 140.81457626 64.59855272 132.16918945 71.19013977 C124.97258951 77.61704988 120.67429506 85.62484298 119.7824707 95.25654602 C119.30248306 105.30428732 122.42750139 114.48221343 128.91918945 122.17451477 C136.344511 129.28986084 144.68894076 132.39670483 154.82348633 132.22529602 C156.23017578 132.18662415 156.23017578 132.18662415 157.6652832 132.14717102 C159.54395884 132.09615471 161.42290479 132.05408775 163.30200195 132.02217102 C164.12788818 131.9989679 164.95377441 131.97576477 165.8046875 131.95185852 C167.9777832 132.14717102 167.9777832 132.14717102 170.9777832 134.14717102 C171.97028157 137.12466612 172.12714676 139.16191036 172.1706543 142.27363586 C172.18671722 143.31837067 172.20278015 144.36310547 172.21932983 145.4394989 C172.26380663 150.20728366 172.30482624 154.97493057 172.32788086 159.74287415 C172.34445945 162.25891863 172.37177402 164.77491566 172.40991211 167.29072571 C172.46460536 170.91760193 172.48654242 174.54337578 172.5012207 178.17060852 C172.52389008 179.29470123 172.54655945 180.41879395 172.56991577 181.57695007 C172.56706573 182.6279892 172.5642157 183.67902832 172.5612793 184.76191711 C172.57340958 186.14399857 172.57340958 186.14399857 172.58578491 187.55400085 C171.68680411 191.38821738 170.11692832 192.81656059 166.9777832 195.14717102 C164.08339982 195.64529733 161.77220435 195.83987928 158.8828125 195.80659485 C158.08228958 195.81707855 157.28176666 195.82756226 156.45698547 195.83836365 C153.82159468 195.86707267 151.18752085 195.86082732 148.55200195 195.85420227 C146.72067115 195.86731988 144.88935481 195.8826243 143.05805969 195.90002441 C138.24608734 195.93988013 133.43449343 195.95006522 128.62237549 195.95405579 C123.70882686 195.96338614 118.79550069 196.00079908 113.88208008 196.0358429 C104.24732485 196.10042456 94.61273594 196.13365991 84.9777832 196.14717102 C85.25638184 196.81176331 85.53498047 197.47635559 85.82202148 198.16108704 C86.36705322 199.4864447 86.36705322 199.4864447 86.9230957 200.83857727 C87.28419434 201.70941956 87.64529297 202.58026184 88.01733398 203.47749329 C91.47640543 213.0923754 90.0059673 223.17241016 85.8527832 232.33467102 C81.12535442 241.01770348 74.25993799 246.79752386 64.9777832 250.14717102 C53.85225028 253.29789782 43.37305881 252.21436315 33.22387695 246.61201477 C25.48206397 241.5630063 20.33934266 234.01585311 17.3371582 225.28388977 C16.79773108 222.07664372 16.67087281 218.89071214 16.6027832 215.64717102 C16.55379883 214.33748352 16.50481445 213.02779602 16.4543457 211.67842102 C16.72182528 205.73320487 19.50739751 200.46525392 21.9777832 195.14717102 C20.75671875 195.16811829 19.5356543 195.18906555 18.27758789 195.21064758 C13.74531796 195.28307261 9.21309913 195.32897991 4.68041992 195.36689758 C2.71906939 195.38700735 0.75777876 195.4142992 -1.20336914 195.44892883 C-4.02334374 195.49747523 -6.84252544 195.52014588 -9.6628418 195.53779602 C-10.97711151 195.56876373 -10.97711151 195.56876373 -12.31793213 195.60035706 C-13.54875519 195.60081024 -13.54875519 195.60081024 -14.80444336 195.60127258 C-15.52392151 195.61015503 -16.24339966 195.61903748 -16.98468018 195.62818909 C-20.01373469 194.91309522 -21.10215521 193.57509484 -23.0222168 191.14717102 C-23.52837467 187.96549034 -23.52837467 187.96549034 -23.53688049 184.12773132 C-23.54382602 183.42083117 -23.55077155 182.71393102 -23.55792755 181.98560965 C-23.57622614 179.61645383 -23.56592578 177.24829621 -23.55566406 174.87910461 C-23.56272147 173.18046824 -23.57146573 171.48183816 -23.58177185 169.78321838 C-23.60430475 165.16712582 -23.60131571 160.55137553 -23.59245038 155.93524885 C-23.58734242 152.07873761 -23.59463212 148.2222908 -23.60192245 144.36578619 C-23.61893641 135.26177008 -23.6153436 126.15792149 -23.59863281 117.0539093 C-23.5817383 107.67442161 -23.59750579 98.29540022 -23.62985569 88.91596353 C-23.65659651 80.85631034 -23.66381463 72.7968019 -23.65534061 64.73710883 C-23.65042098 59.92673445 -23.65257362 55.11664012 -23.67312813 50.30630112 C-23.69155383 45.77694198 -23.68544286 41.24824932 -23.66092873 36.71892548 C-23.65594119 35.06219181 -23.65935685 33.40540679 -23.67207718 31.74871445 C-23.73535761 22.79403356 -23.70408537 14.60862693 -18.0222168 7.14717102 C-12.23323797 1.77584409 -7.94880929 0.02630769 0 0 Z " fill="#C7EFFD" transform="translate(23.022216796875,-0.1471710205078125)"/>
<path d="M0 0 C0.76171509 -0.00287018 1.52343018 -0.00574036 2.30822754 -0.00869751 C3.91529079 -0.01073484 5.52237902 -0.00522808 7.12939453 0.00732422 C9.5855264 0.02338373 12.04001289 0.00746554 14.49609375 -0.01171875 C16.05989946 -0.00973626 17.62370414 -0.00589246 19.1875 0 C19.91988892 -0.00607269 20.65227783 -0.01214539 21.40686035 -0.0184021 C24.53230639 0.0245872 26.78457491 0.23476016 29.56835938 1.70849609 C31.09375 3.3984375 31.09375 3.3984375 31.40625 6.8359375 C31.09375 10.3984375 31.09375 10.3984375 30.59375 12.17578125 C28.24031614 22.63753019 30.00965036 32.48401957 35.37890625 41.57421875 C40.5060376 49.15780301 47.76421043 53.66080945 56.56640625 55.92578125 C66.26272786 57.73915824 75.09250148 55.86317057 83.64453125 50.92578125 C90.51675533 46.04014968 94.22711404 39.81048613 97.46875 32.1484375 C98.5740093 25.5168817 99.24148276 17.84163577 97.09375 11.3984375 C96.85546875 9.4609375 96.85546875 9.4609375 96.78125 7.3984375 C96.72517578 6.3775 96.72517578 6.3775 96.66796875 5.3359375 C97.09375 3.3984375 97.09375 3.3984375 98.6272583 1.79862976 C102.03793967 -0.13756555 105.16919868 0.00255608 108.98339844 0.05786133 C109.78676762 0.05749972 110.5901368 0.05713812 111.41785049 0.05676556 C114.01319725 0.05900119 116.60789418 0.0818302 119.203125 0.10546875 C120.80745126 0.1098807 122.41178183 0.11294056 124.01611328 0.11462402 C129.95872479 0.13033997 135.90124381 0.17222373 141.84375 0.2109375 C161.7675 0.30375 161.7675 0.30375 182.09375 0.3984375 C182.09375 35.7084375 182.09375 71.0184375 182.09375 107.3984375 C178.79375 106.4084375 175.49375 105.4184375 172.09375 104.3984375 C163.75940961 103.39831665 156.59839031 104.13800732 149.74609375 109.09765625 C143.06181292 114.62984965 138.90817284 120.65608449 137.85546875 129.37109375 C137.55967274 137.70008664 140.00858039 145.23301182 145.21875 151.7734375 C151.53093006 158.24541958 157.69135487 160.68307221 166.71875 160.8984375 C172.94327664 160.84534985 175.83990026 159.74363115 182.09375 157.3984375 C182.09375 169.9384375 182.09375 182.4784375 182.09375 195.3984375 C159.02359392 195.48876157 135.95358119 195.5624334 112.88329315 195.60568619 C102.17115444 195.62630376 91.45913346 195.65440908 80.74707031 195.70019531 C71.40948739 195.74008759 62.07198975 195.76587616 52.73432398 195.77479148 C47.79093016 195.78000215 42.84778029 195.79223253 37.90446472 195.82135773 C33.24890867 195.84856453 28.5936964 195.85687184 23.93806839 195.85086823 C22.23209895 195.85196611 20.52611768 195.85988862 18.82021713 195.8752594 C1.45404743 196.02402235 1.45404743 196.02402235 -5.9296875 189.65234375 C-6.37570313 189.09417969 -6.82171875 188.53601563 -7.28125 187.9609375 C-7.74273437 187.40535156 -8.20421875 186.84976563 -8.6796875 186.27734375 C-11.71293284 181.63087557 -12.15937817 177.63584472 -12.17367554 172.13571167 C-12.17820665 171.41485103 -12.18273776 170.69399039 -12.18740618 169.95128548 C-12.20004286 167.54151405 -12.19843034 165.13196882 -12.19677734 162.72216797 C-12.20276282 160.99232696 -12.20956841 159.26248863 -12.21713257 157.53265381 C-12.23479198 152.83866898 -12.23948776 148.14475708 -12.24076414 143.45074224 C-12.24266358 139.53388896 -12.25002114 135.61705266 -12.25710833 131.70020592 C-12.27338757 122.46370274 -12.27827748 113.22723854 -12.27685547 103.99072266 C-12.27565227 94.45380666 -12.29679072 84.91711633 -12.3283428 75.38025749 C-12.35445807 67.19587793 -12.36522486 59.01157234 -12.36394465 50.82715142 C-12.36343387 45.9371148 -12.36918165 41.04727899 -12.39030075 36.15728378 C-12.40960479 31.56237823 -12.40986173 26.9678668 -12.39526749 22.37294769 C-12.39316891 20.68423769 -12.39794228 18.99550351 -12.4099884 17.30683517 C-12.42533907 15.00648613 -12.41620244 12.7075137 -12.40072632 10.40719604 C-12.40181585 9.118571 -12.40290539 7.82994595 -12.40402794 6.50227165 C-11.90625 3.3984375 -11.90625 3.3984375 -10.10056496 1.48465157 C-6.81418011 -0.14215111 -3.58737889 -0.02974519 0 0 Z " fill="#7A6D78" transform="translate(135.90625,316.6015625)"/>
<path d="M0 0 C6.06888051 -0.09878601 12.13729439 -0.17142949 18.20678711 -0.21972656 C20.27197418 -0.23985731 22.33710416 -0.26716445 24.40209961 -0.30175781 C27.36847001 -0.35021162 30.33408772 -0.37295385 33.30078125 -0.390625 C34.2258699 -0.41127014 35.15095856 -0.43191528 36.1040802 -0.45318604 C37.39507881 -0.45363922 37.39507881 -0.45363922 38.7121582 -0.45410156 C39.46938675 -0.46298401 40.2266153 -0.47186646 41.00679016 -0.48101807 C43 -0 43 -0 44.741745 1.68940735 C46.25493295 4.46814532 46.39204215 6.26742227 46.41992188 9.42358398 C46.44378967 11.05063515 46.44378967 11.05063515 46.46813965 12.71055603 C46.46834106 13.87728348 46.46854248 15.04401093 46.46875 16.24609375 C46.48017029 18.05099022 46.48017029 18.05099022 46.49182129 19.89234924 C46.50262579 22.43675664 46.505474 24.9812084 46.50097656 27.52563477 C46.50000448 31.41953452 46.54162193 35.31146302 46.5859375 39.20507812 C46.59114456 41.67707922 46.59383269 44.14908717 46.59375 46.62109375 C46.61014526 47.78579697 46.62654053 48.95050018 46.64343262 50.15049744 C46.56650665 59.14355102 46.56650665 59.14355102 43.67211914 62.26342773 C40.08071267 64.59743177 38.13521966 64.23413282 33.9375 63.625 C23.19578367 62.44710527 14.83679306 64.4513817 6.19140625 71.04296875 C-1.00519369 77.46987886 -5.30348814 85.47767196 -6.1953125 95.109375 C-6.67530014 105.1571163 -3.55028181 114.33504241 2.94140625 122.02734375 C10.36672779 129.14268982 18.71115756 132.2495338 28.84570312 132.078125 C30.25239258 132.03945313 30.25239258 132.03945313 31.6875 132 C33.56617564 131.94898369 35.44512159 131.90691672 37.32421875 131.875 C38.15010498 131.85179687 38.97599121 131.82859375 39.8269043 131.8046875 C42 132 42 132 45 134 C45.99249837 136.9774951 46.14936356 139.01473934 46.19287109 142.12646484 C46.20893402 143.17119965 46.22499695 144.21593445 46.24154663 145.29232788 C46.28602343 150.06011264 46.32704304 154.82775955 46.35009766 159.59570312 C46.36667624 162.11174761 46.39399082 164.62774464 46.43212891 167.14355469 C46.48682216 170.77043091 46.50875922 174.39620476 46.5234375 178.0234375 C46.54610687 179.14753021 46.56877625 180.27162292 46.59213257 181.42977905 C46.57934352 186.146136 46.52691699 189.12051502 44.07202148 193.21801758 C39.74385341 195.72865087 36.24316388 195.6304489 31.32421875 195.48828125 C29.93648003 195.47766914 29.93648003 195.47766914 28.52070618 195.46684265 C25.57546997 195.43892815 22.63215827 195.37619557 19.6875 195.3125 C17.68687648 195.2874133 15.68622306 195.26460078 13.68554688 195.24414062 C8.78962684 195.18911108 3.89513932 195.10285901 -1 195 C-0.34936584 194.45728455 0.30126831 193.91456909 0.97161865 193.35540771 C3.48644876 190.4351234 3.48776816 189.11780233 3.45410156 185.31347656 C3.45379944 184.17259583 3.45349731 183.03171509 3.45318604 181.85626221 C3.43254089 180.63010193 3.41189575 179.40394165 3.390625 178.140625 C3.38213531 176.25135284 3.38213531 176.25135284 3.37347412 174.32391357 C3.35488047 170.98290976 3.31897328 167.64300533 3.2746582 164.30230713 C3.23366502 160.89043661 3.21545459 157.47845231 3.1953125 154.06640625 C3.15119664 147.3773008 3.0842465 140.68871386 3 134 C2.36628479 134.00785522 1.73256958 134.01571045 1.07965088 134.02380371 C-1.81666801 134.05515817 -4.71295104 134.07455325 -7.609375 134.09375 C-9.10476807 134.11260254 -9.10476807 134.11260254 -10.63037109 134.13183594 C-21.75697695 134.18714632 -29.23861506 131.54118194 -37.76953125 124.28515625 C-41.33071072 120.63666239 -43.79163539 116.57340374 -46 112 C-46.37511719 111.24589844 -46.75023438 110.49179688 -47.13671875 109.71484375 C-49.58273508 102.02262044 -49.20609366 90.48066786 -46.1015625 82.98046875 C-40.52197405 72.949081 -32.02893415 65.44471352 -21 62 C-17.16471079 61.60023597 -13.41034177 61.70535567 -9.5625 61.875 C-7.60575654 61.94365767 -5.64869732 62.00398739 -3.69140625 62.0546875 C-2.83748291 62.09062012 -1.98355957 62.12655273 -1.10375977 62.16357422 C1.22130722 62.21213583 1.22130722 62.21213583 3 60 C3.31369998 57.51386271 3.31369998 57.51386271 3.2746582 54.58813477 C3.28419022 53.45678604 3.29372223 52.32543732 3.30354309 51.1598053 C3.30263168 49.93273361 3.30172028 48.70566193 3.30078125 47.44140625 C3.30720894 45.55856178 3.30720894 45.55856178 3.31376648 43.63768005 C3.31951898 40.97860794 3.32093459 38.31992283 3.31567383 35.66088867 C3.30988048 32.25318163 3.32680391 28.84601835 3.3500185 25.43840122 C3.36829349 22.18940678 3.3645706 18.94044287 3.36328125 15.69140625 C3.372491 14.4663588 3.38170074 13.24131134 3.39118958 11.97914124 C3.38184639 10.27738991 3.38184639 10.27738991 3.37231445 8.54125977 C3.37294388 7.54135513 3.3735733 6.5414505 3.3742218 5.51124573 C2.94608803 2.63821933 2.25205937 1.7593843 0 0 Z " fill="#99E6FC" transform="translate(149,0)"/>
<path d="M0 0 C5.97732771 -0.09931654 11.9541688 -0.17167995 17.93212891 -0.21972656 C19.96313857 -0.23976836 21.99409106 -0.26700947 24.02490234 -0.30175781 C26.95424556 -0.35060414 29.882822 -0.37304343 32.8125 -0.390625 C33.71178223 -0.41127014 34.61106445 -0.43191528 35.53759766 -0.45318604 C42.97199947 -0.45579692 48.01356861 1.55655613 53.75 6.25 C60.97639486 15.08226039 60.55189127 23.39501503 60.45410156 34.24804688 C60.45297222 36.00289891 60.45360863 37.75775282 60.45587158 39.51260376 C60.45701628 44.26007946 60.43354654 49.00714851 60.40557575 53.75452995 C60.38052137 58.72195228 60.37821692 63.68938458 60.37347412 68.65686035 C60.36105621 78.05608127 60.3282506 87.45511545 60.28807616 96.85425425 C60.2433216 107.55795821 60.22136214 118.26167123 60.20129442 128.96544552 C60.15951691 150.97709097 60.0861793 172.98848052 60 195 C46.14 195 32.28 195 18 195 C17.99383667 186.92917969 17.99383667 186.92917969 17.98754883 178.6953125 C17.97036119 160.92959457 17.92612794 143.16402034 17.86790943 125.39839172 C17.83326893 114.62576029 17.80790513 103.8532567 17.80444336 93.08056641 C17.80140217 83.69014136 17.78089075 74.29994403 17.73947543 64.90960693 C17.71815792 59.93828232 17.70553846 54.96728136 17.71384621 49.99591064 C17.72139417 45.3139219 17.70553322 40.63258854 17.67193985 35.95071983 C17.66371557 34.23511371 17.66394605 32.51944231 17.67340279 30.80384254 C17.72162962 21.0908985 17.59844728 13.81459201 10.55750751 6.5018158 C7.35391521 3.55149184 4.1777159 2.09416369 0 1 C0 0.67 0 0.34 0 0 Z " fill="#FD646F" transform="translate(452,123)"/>
<path d="M0 0 C13.86 0 27.72 0 42 0 C42.11295865 22.90523311 42.20502584 45.81023997 42.25906086 68.71568108 C42.28481944 79.35157127 42.31992519 89.98727584 42.37719727 100.62304688 C42.42710397 109.89545987 42.45930806 119.16773841 42.47044247 128.44028199 C42.47694891 133.34803106 42.49219199 138.25539553 42.52865028 143.16302109 C42.56272461 147.78744577 42.57302996 152.41132939 42.56553841 157.03586769 C42.56690786 158.72810753 42.57677212 160.42036648 42.59602737 162.11249733 C42.6937672 171.14914082 42.77143128 179.47894746 37 187 C32.27731697 191.37847776 28.20793766 194.13240097 21.62036133 194.11352539 C20.73967484 194.11344986 19.85898834 194.11337433 18.95161438 194.11329651 C18.00465195 194.10813522 17.05768951 194.10297394 16.08203125 194.09765625 C15.10965012 194.0962413 14.13726898 194.09482635 13.13542175 194.09336853 C10.02774996 194.08776817 6.92015004 194.07521562 3.8125 194.0625 C1.70638125 194.05748505 -0.39973863 194.05292213 -2.50585938 194.04882812 C-7.67060064 194.03779862 -12.83528813 194.02053375 -18 194 C-17.38576172 193.69529785 -16.77152344 193.3905957 -16.13867188 193.07666016 C-13.85910727 191.92907113 -11.67620737 190.70904493 -9.5 189.375 C-8.7471875 188.92898438 -7.994375 188.48296875 -7.21875 188.0234375 C-2.9000615 184.08491524 -1.22674452 180.15355572 -0.62372589 174.42625427 C-0.41467847 169.86947155 -0.43909243 165.3124182 -0.45410156 160.75195312 C-0.44535945 158.99709154 -0.43487144 157.24223791 -0.42277527 155.48739624 C-0.39497282 150.74002375 -0.39150931 145.99291211 -0.39249516 141.24547005 C-0.38936111 136.27796751 -0.36373264 131.3105816 -0.34051514 126.34313965 C-0.2999893 116.94400988 -0.27962244 107.54494942 -0.26654124 98.14574575 C-0.25065964 87.44195328 -0.21223909 76.73827857 -0.17194796 66.03455448 C-0.08959567 44.02305253 -0.03844941 22.01162545 0 0 Z " fill="#FFC344" transform="translate(470,318)"/>
<path d="M0 0 C4.4596574 3.20298418 6.57174949 7.52774846 8.2734375 12.6328125 C8.67080798 18.49402708 8.37418585 23.51249779 5.2734375 28.6328125 C0.02862416 34.29284022 -4.06308161 36.76650651 -11.8515625 37.0703125 C-18.54264846 37.02550612 -22.97151486 35.37756783 -27.7265625 30.6328125 C-28.0616835 29.79677994 -28.3968045 28.96074738 -28.74208069 28.09938049 C-31.00733702 25.28383 -31.47369224 25.20827393 -34.89134216 24.73545837 C-36.68655041 24.58624506 -38.4842655 24.46562977 -40.28295898 24.36694336 C-41.26679975 24.29663532 -42.25064051 24.22632729 -43.26429462 24.1538887 C-46.5410324 23.93474546 -49.81764767 23.76032707 -53.09765625 23.59765625 C-54.22641426 23.53926386 -55.35517227 23.48087147 -56.51813507 23.42070961 C-65.06428452 23.00058551 -73.60952787 22.74233928 -82.1640625 22.5703125 C-83.40511875 22.54489883 -84.646175 22.51948517 -85.92483902 22.49330139 C-126.93792554 21.11265799 -126.93792554 21.11265799 -162.01000977 39.56274414 C-175.32054988 52.90353238 -185.42136719 68.51808786 -185.79116821 87.79504395 C-185.6524222 92.81559185 -184.93168533 97.66715313 -183.87890625 102.57226562 C-183.7265625 105.6328125 -183.7265625 105.6328125 -185.54296875 108.01953125 C-187.86955553 109.73845851 -188.87838326 110.1773153 -191.7265625 110.1328125 C-192.3865625 110.143125 -193.0465625 110.1534375 -193.7265625 110.1640625 C-196.80103097 109.34740681 -197.81165086 108.19449207 -199.7265625 105.6328125 C-200.36555327 102.46879099 -200.35855172 99.33739922 -200.36328125 96.1171875 C-200.37422318 95.18739075 -200.3851651 94.25759399 -200.3964386 93.29962158 C-200.41229491 91.3327793 -200.4175027 89.36582646 -200.4128418 87.39892578 C-200.41405312 84.40598192 -200.47373431 81.41797195 -200.53710938 78.42578125 C-200.54525516 76.51042857 -200.54992383 74.59505731 -200.55078125 72.6796875 C-200.57436203 71.79295349 -200.59794281 70.90621948 -200.62223816 69.99261475 C-200.53461624 63.99612538 -199.09961732 60.96676904 -194.90232849 56.71585083 C-193.82532433 55.68474686 -193.82532433 55.68474686 -192.7265625 54.6328125 C-191.09458434 52.95910856 -189.46336958 51.28466003 -187.83276367 49.60961914 C-185.98099466 47.75132059 -184.12679137 45.89575003 -182.26953125 44.04296875 C-181.27527038 43.04803272 -180.28115787 42.05294841 -179.28718567 41.057724 C-177.2204997 38.98957518 -175.15204457 36.92321734 -173.08227539 34.8581543 C-170.42802686 32.20964734 -167.77835415 29.5566147 -165.12995434 26.90226078 C-163.08577101 24.85447169 -161.03922178 22.8090605 -158.99193764 20.76437187 C-158.01317245 19.78627359 -157.03514909 18.8074324 -156.05788231 17.82783699 C-154.69880045 16.46622356 -153.3361805 15.10814438 -151.97338867 13.75024414 C-151.19952316 12.97717422 -150.42565765 12.20410431 -149.62834167 11.40760803 C-146.72185194 8.69518744 -145.04065855 8.51020592 -141.16731262 8.52842712 C-139.72692123 8.53108582 -139.72692123 8.53108582 -138.25743103 8.53379822 C-136.67171043 8.54401756 -136.67171043 8.54401756 -135.05395508 8.55444336 C-132.7512873 8.5605607 -130.44861901 8.56648732 -128.14595032 8.57225037 C-126.92019098 8.57692259 -125.69443165 8.58159481 -124.43152809 8.58640862 C-117.95889492 8.60551452 -111.4863134 8.59038213 -105.01367188 8.58007812 C-96.76828711 8.56729097 -88.52337719 8.56523573 -80.27807617 8.60864258 C-73.62304083 8.64356089 -66.96886219 8.63661347 -60.31375694 8.60507393 C-57.77684982 8.60014475 -55.23987351 8.60945577 -52.7030735 8.63328362 C-49.14960206 8.66469481 -45.59955719 8.64651253 -42.04614258 8.61694336 C-40.47560371 8.64841713 -40.47560371 8.64841713 -38.87333679 8.68052673 C-33.29490457 8.59944761 -33.29490457 8.59944761 -28.61115074 5.85644722 C-26.75303643 3.74913425 -26.75303643 3.74913425 -25.24438 1.54352665 C-19.00848951 -6.3065635 -7.66845983 -4.12917068 0 0 Z " fill="#E5F8FD" transform="translate(473.7265625,42.3671875)"/>
<path d="M0 0 C4.71216147 3.5628538 9.16167162 8.05402081 10.5625 13.9375 C11.32970778 21.30269469 9.87724891 26.57738062 5.625 32.75 C3.62868644 34.86730226 2.1555353 35.7411309 -0.4375 36.9375 C-0.43988835 37.56256817 -0.44227671 38.18763634 -0.44473743 38.83164597 C-0.50386312 54.03812495 -0.57939742 69.24442617 -0.67321491 84.45072556 C-0.71818827 91.80437538 -0.7575993 99.15797661 -0.78393555 106.51171875 C-0.80690326 112.92094612 -0.84028734 119.3300199 -0.88620156 125.73912549 C-0.9101506 129.13299928 -0.92886825 132.5267208 -0.93511391 135.92067719 C-0.94470235 139.70874298 -0.97269973 143.49625033 -1.00512695 147.28417969 C-1.00369186 148.41058868 -1.00225677 149.53699768 -1.0007782 150.69754028 C-1.01331635 151.72956573 -1.02585449 152.76159119 -1.03877258 153.82489014 C-1.04338155 154.72087292 -1.04799051 155.6168557 -1.05273914 156.53998947 C-1.5157993 159.42539628 -2.47267784 160.80535081 -4.4375 162.9375 C-6.3046875 163.6875 -6.3046875 163.6875 -8.3125 163.9375 C-8.96992188 164.040625 -9.62734375 164.14375 -10.3046875 164.25 C-13.83802574 163.73229476 -15.05525173 162.62951968 -17.4375 159.9375 C-18.19553131 156.03283597 -18.06789237 152.15794405 -18.00512695 148.19238281 C-18.00585709 146.99210953 -18.00658722 145.79183624 -18.00733948 144.55519104 C-18.00445384 141.26791661 -17.97938944 137.98170794 -17.94446969 134.69464588 C-17.9132019 131.25804595 -17.91027516 127.82142482 -17.90434265 124.38470459 C-17.88880528 117.8787228 -17.84777884 111.37316137 -17.7975952 104.86736465 C-17.74169794 97.45997531 -17.71421437 90.05256585 -17.68911803 82.6450181 C-17.63686242 67.40893533 -17.54892288 52.17327188 -17.4375 36.9375 C-18.20707031 36.66679688 -18.97664062 36.39609375 -19.76953125 36.1171875 C-24.49455241 34.02793949 -27.52134476 29.65550002 -29.4375 24.9375 C-30.2136635 18.61989012 -30.23031716 12.26420695 -26.875 6.6953125 C-19.83912269 -1.90834181 -10.36570389 -3.20394484 0 0 Z " fill="#E4F7FC" transform="translate(256.4375,1.0625)"/>
<path d="M0 0 C4.3487248 3.14774067 7.17401077 7.12373335 8.75390625 12.26953125 C8.56024396 14.24966422 8.31790587 16.22536884 8.0390625 18.1953125 C7.95106412 23.81848855 9.2209238 26.56735749 12.8699646 30.59933472 C15.88855453 33.65340722 19.01629893 36.56714879 22.19140625 39.45703125 C23.48673183 40.67845862 24.77908365 41.90304779 26.06835938 43.13085938 C27.87668215 44.85235551 29.68800513 46.56787031 31.52403259 48.2598114 C36.66252663 52.99866554 36.66252663 52.99866554 36.89434814 56.22273254 C36.90117615 57.02039536 36.90800415 57.81805817 36.91503906 58.63989258 C36.92464661 59.54455765 36.93425415 60.44922272 36.94415283 61.38130188 C36.94840271 62.36148788 36.95265259 63.34167389 36.95703125 64.3515625 C36.96273132 65.3578923 36.9684314 66.36422211 36.9743042 67.40104675 C36.9837621 69.5337112 36.99029131 71.66639032 36.99414062 73.79907227 C37.00383585 77.05836601 37.03484784 80.31702651 37.06640625 83.57617188 C37.07293726 85.64713167 37.07818734 87.71809598 37.08203125 89.7890625 C37.09437805 90.76317581 37.10672485 91.73728912 37.1194458 92.74092102 C37.0913398 101.30188543 37.0913398 101.30188543 33.75390625 105.26953125 C30.66216873 106.81540001 28.15961073 106.56312646 24.75390625 106.26953125 C22.38893186 104.4024462 21.0935991 102.94891694 19.75390625 100.26953125 C19.64513458 97.32839028 19.59250242 94.40670433 19.578125 91.46484375 C19.5549281 89.66665494 19.53081082 87.86847782 19.50585938 86.0703125 C19.47072477 83.23055188 19.44139062 80.39122119 19.42797852 77.55126953 C19.41251278 74.8135963 19.37231417 72.07718424 19.328125 69.33984375 C19.33003342 68.49181183 19.33194183 67.64377991 19.33390808 66.77005005 C19.28239619 61.88109857 19.28239619 61.88109857 16.71801758 57.82763672 C16.06986084 57.31346191 15.4217041 56.79928711 14.75390625 56.26953125 C14.75390625 55.60953125 14.75390625 54.94953125 14.75390625 54.26953125 C14.16222656 54.01558594 13.57054687 53.76164062 12.9609375 53.5 C10.51080895 52.13399913 9.21794805 50.74016914 7.44140625 48.58203125 C6.52101563 47.52435547 6.52101563 47.52435547 5.58203125 46.4453125 C4.42114436 45.06365866 3.30035408 43.64648149 2.23828125 42.1875 C0.50030752 40.03258813 -0.83000298 38.64589336 -3.24609375 37.26953125 C-6.85810267 36.94969575 -10.31009353 37.08522106 -13.9296875 37.265625 C-18.71707676 37.27126386 -20.54847332 36.2590967 -24.24609375 33.26953125 C-28.80633347 28.68477411 -31.52775336 24.55335829 -31.62109375 18.01953125 C-31.48955467 11.85363709 -30.0572643 7.2886514 -25.8203125 2.73828125 C-18.32958117 -3.92014659 -8.73866771 -4.99604639 0 0 Z " fill="#E5F8FC" transform="translate(171.24609375,231.73046875)"/>
<path d="M0 0 C4.4596574 3.20298418 6.57174949 7.52774846 8.2734375 12.6328125 C8.67080798 18.49402708 8.37418585 23.51249779 5.2734375 28.6328125 C0.02862416 34.29284022 -4.06308161 36.76650651 -11.8515625 37.0703125 C-18.65595762 37.02474735 -22.80818101 35.29755548 -27.7265625 30.6328125 C-32.10305444 24.88866683 -32.30003625 18.63352034 -31.7265625 11.6328125 C-29.99518301 5.52206136 -26.88545766 2.09790732 -21.7265625 -1.3671875 C-13.91665164 -5.02289045 -7.34207841 -3.95342683 0 0 Z " fill="#6FD7A3" transform="translate(473.7265625,42.3671875)"/>
<path d="M0 0 C4.71216147 3.5628538 9.16167162 8.05402081 10.5625 13.9375 C11.32680407 21.27481905 9.80337749 26.41612108 5.8125 32.6875 C1.18981968 37.31018032 -3.10034813 38.13030688 -9.4375 38.3125 C-15.14056932 38.14162152 -19.59971174 37.64629789 -23.8984375 33.54296875 C-28.95253277 27.77312011 -29.91228166 23.50436984 -29.73828125 15.9765625 C-29.19274817 10.46455291 -27.51846973 7.02743942 -23.625 3.1171875 C-16.57107368 -2.45852632 -8.40346036 -2.5974332 0 0 Z " fill="#FED15B" transform="translate(256.4375,1.0625)"/>
<path d="M0 0 C4.25662554 3.08107639 7.4684332 7.12763904 8.75390625 12.26953125 C9.57344145 18.65969087 9.0229127 23.21545968 5.25390625 28.515625 C1.84836828 32.49762122 -2.60695684 36.93770994 -7.91796875 37.60546875 C-14.66276398 37.6910626 -18.85814335 37.44794176 -24.24609375 33.26953125 C-28.81444566 28.70117934 -31.52791108 24.54231787 -31.62109375 18.01953125 C-31.48955467 11.85363709 -30.0572643 7.2886514 -25.8203125 2.73828125 C-18.32958117 -3.92014659 -8.73866771 -4.99604639 0 0 Z " fill="#6FD7A3" transform="translate(171.24609375,231.73046875)"/>
</svg>
