<?xml version="1.0" encoding="UTF-8"?>
<svg version="1.1" xmlns="http://www.w3.org/2000/svg" width="512" height="512">
<path d="M0 0 C1.54896555 1.45057849 3.09116165 2.90843526 4.625 4.375 C5.29789063 4.98472656 5.97078125 5.59445312 6.6640625 6.22265625 C24.56967859 23.02254704 36.93119278 49.09112017 39.625 73.375 C39.73328125 74.25800781 39.8415625 75.14101563 39.953125 76.05078125 C40.25139469 78.82547433 40.46044421 81.58930559 40.625 84.375 C40.67914063 85.23996094 40.73328125 86.10492188 40.7890625 86.99609375 C41.36272263 105.37929336 37.40596267 125.48901049 29.2265625 142.00390625 C27.42830036 149.09186155 30.8731453 157.44810044 32.78515625 164.25 C33.42016988 166.55722342 34.05492774 168.86451725 34.68945312 171.171875 C35.68867197 174.7803701 36.69110764 178.38791467 37.69848633 181.99414062 C38.67374123 185.49371088 39.63639337 188.9965648 40.59765625 192.5 C40.90075211 193.5710498 41.20384796 194.64209961 41.51612854 195.74560547 C43.07537407 201.45583958 44.16968232 206.4499398 43.625 212.375 C41.625 214.9375 41.625 214.9375 38.625 216.375 C31.76026458 215.94665375 25.32052458 214.08213997 18.71484375 212.25 C17.58857071 211.94304199 16.46229767 211.63608398 15.30189514 211.31982422 C11.72065876 210.34338711 8.14141873 209.35989531 4.5625 208.375 C0.97989621 207.39054855 -2.60312726 206.40777664 -6.18760681 205.43017578 C-8.41249666 204.82328175 -10.63631992 204.21245993 -12.85890198 203.59716797 C-22.91714502 200.45041363 -22.91714502 200.45041363 -33.0546875 201.703125 C-33.89136963 202.00726318 -34.72805176 202.31140137 -35.59008789 202.62475586 C-36.46785889 202.95483643 -37.34562988 203.28491699 -38.25 203.625 C-69.94182789 214.70439065 -103.96629093 213.12604377 -134.27734375 198.52734375 C-162.65817875 184.31544189 -184.36143854 159.5578066 -194.71875 129.55859375 C-199.04194788 116.46034275 -200.76879376 104.13189114 -200.75 90.3125 C-200.74945618 89.63379852 -200.74891235 88.95509705 -200.74835205 88.25582886 C-200.63033492 56.10654537 -188.19192196 26.98657589 -165.5625 4.0625 C-120.13219388 -40.67914709 -47.4013072 -41.86276296 0 0 Z " fill="#FEA4D1" transform="translate(200.375,291.625)"/>
<path d="M0 0 C22.7715965 19.21353455 38.24625391 45.13160984 42 75 C43.73956389 110.56881012 36.61926802 141.45007541 12.609375 168.57080078 C-2.52672047 185.15709221 -21.46181746 195.93161132 -43 202 C-44.07378906 202.3196875 -45.14757812 202.639375 -46.25390625 202.96875 C-68.25235544 208.47473497 -93.22744645 206.28066459 -114.15722656 197.98193359 C-114.81819336 197.72621582 -115.47916016 197.47049805 -116.16015625 197.20703125 C-117.02072632 196.85862183 -117.02072632 196.85862183 -117.89868164 196.50317383 C-125.19217503 194.7567012 -131.82493041 197.06098051 -138.84765625 199.02734375 C-139.97771591 199.33571671 -141.10777557 199.64408966 -142.27207947 199.96180725 C-145.87122933 200.94538522 -149.46695395 201.94083649 -153.0625 202.9375 C-156.66214185 203.92853835 -160.26245352 204.91704184 -163.8636322 205.90248108 C-166.10062641 206.51532928 -168.33664609 207.13174878 -170.57154846 207.75218201 C-183.4917855 211.30849842 -183.4917855 211.30849842 -187.75 210.4375 C-190 209 -190 209 -191.27001953 206.48803711 C-192.26124977 201.75168044 -191.23127313 198.34398748 -189.9296875 193.75390625 C-189.69218781 192.86573715 -189.45468811 191.97756805 -189.20999146 191.06248474 C-188.44730047 188.22464971 -187.66166551 185.39377192 -186.875 182.5625 C-186.36824959 180.69377686 -185.86302645 178.82463886 -185.359375 176.95507812 C-181.51290681 162.72697005 -181.51290681 162.72697005 -179.70410156 156.55419922 C-179.51091339 155.87816147 -179.31772522 155.20212372 -179.11868286 154.50559998 C-178.61230803 152.736557 -178.09216967 150.97146924 -177.57080078 149.20678711 C-176.41950671 142.73875987 -178.46546321 137.29987494 -180.875 131.375 C-191.73809954 103.55510395 -191.00520103 71.3754774 -179.12011719 43.97119141 C-173.07559093 30.62364719 -165.05241716 19.65949031 -155 9 C-154.38769531 8.32324219 -153.77539062 7.64648438 -153.14453125 6.94921875 C-113.73002824 -34.98646782 -43.48001916 -35.08047001 0 0 Z " fill="#FFD150" transform="translate(470,238)"/>
<path d="M0 0 C24.88523772 -0.65379935 49.44826396 8.19895093 67.69140625 25.125 C68.60277344 25.94484375 69.51414063 26.7646875 70.453125 27.609375 C86.91289043 43.12792651 98.62334243 65.6492303 99.81567383 88.50732422 C100.29986306 105.13165424 98.96494738 119.64278428 92.58544922 135.14208984 C92.19703857 136.13716553 92.19703857 136.13716553 91.80078125 137.15234375 C91.56327148 137.72718506 91.32576172 138.30202637 91.08105469 138.89428711 C89.93672479 145.44550405 92.43286141 152.40089502 94.1953125 158.6640625 C94.69344832 160.47914226 95.19149247 162.29424718 95.68945312 164.109375 C96.47277824 166.9385002 97.25861675 169.76690385 98.04663086 172.59472656 C98.81096308 175.34527454 99.56603023 178.0982445 100.3203125 180.8515625 C100.55778702 181.6923233 100.79526154 182.53308411 101.03993225 183.39932251 C103.92217913 193.95304785 103.92217913 193.95304785 101.62890625 198 C97.39061183 200.46094515 92.38585702 199.16360857 87.87695312 198.00756836 C86.05240183 197.50149631 84.23022737 196.98679919 82.41015625 196.46484375 C80.41412387 195.91318934 78.41802818 195.361764 76.421875 194.81054688 C73.30028258 193.93710083 70.18000666 193.05927358 67.06103516 192.17651367 C64.03467412 191.32351744 61.00407138 190.48716976 57.97265625 189.65234375 C56.58330872 189.25087379 56.58330872 189.25087379 55.16589355 188.84129333 C46.9859446 186.6018113 41.01752417 187.8657956 33.06640625 190.5625 C7.16382014 198.8926954 -19.66714068 196.27164875 -43.87109375 183.9375 C-67.12112824 170.89479772 -83.22348662 150.50297474 -91.484375 125.234375 C-93.88244493 116.18762778 -94.66526001 107.74581772 -94.62109375 98.375 C-94.6154541 97.12944336 -94.60981445 95.88388672 -94.60400391 94.60058594 C-94.49053278 86.02846057 -94.00466668 78.31495741 -91.30859375 70.125 C-91.01057861 69.18406494 -91.01057861 69.18406494 -90.70654297 68.22412109 C-82.83193378 43.76269465 -66.02528667 23.30649789 -43.30859375 11.125 C-29.5368682 4.29142664 -15.34306551 0.8307582 0 0 Z " fill="#00D0FC" transform="translate(121.30859375,30.875)"/>
<path d="M0 0 C1.55997188 1.4809537 3.10269387 2.98035525 4.625 4.5 C5.32109375 5.18449219 6.0171875 5.86898437 6.734375 6.57421875 C24.19723958 24.88315235 29.50076242 48.68469577 28.9765625 73.1875 C28.64987949 81.08429783 27.23895412 88.03647311 24.625 95.5 C24.274375 96.53640625 23.92375 97.5728125 23.5625 98.640625 C15.14210097 120.97807242 -1.93074965 137.74085586 -23.328125 147.7734375 C-43.62768553 156.77271433 -67.36041103 157.2129937 -88.375 150.5 C-89.02210938 150.22236816 -89.66921875 149.94473633 -90.3359375 149.65869141 C-90.99851562 149.37558105 -91.66109375 149.0924707 -92.34375 148.80078125 C-93.21676758 148.39533081 -93.21676758 148.39533081 -94.10742188 147.98168945 C-100.31015705 146.6640757 -107.04790919 149.08016381 -113.00390625 150.78515625 C-114.63211524 151.23779651 -116.26037189 151.69026534 -117.88867188 152.14257812 C-120.41943222 152.8527643 -122.94932524 153.56585088 -125.47827148 154.2824707 C-127.94305674 154.97860955 -130.41072905 155.66365742 -132.87890625 156.34765625 C-133.62701065 156.56325699 -134.37511505 156.77885773 -135.14588928 157.00099182 C-139.64540529 158.24160225 -143.66172467 158.89534535 -148.375 158.5 C-150.375 156.5 -150.375 156.5 -150.63671875 153.40380859 C-150.34313199 149.02465527 -149.41834644 145.23102401 -148.1875 141.0390625 C-147.73167714 139.41669299 -147.27595097 137.79429631 -146.8203125 136.171875 C-146.09954977 133.64773451 -145.37492932 131.12475496 -144.64746094 128.60253906 C-143.9426024 126.14656258 -143.25207938 123.68686534 -142.5625 121.2265625 C-142.34376221 120.48564362 -142.12502441 119.74472473 -141.8996582 118.98135376 C-139.67277725 111.00076353 -139.64122455 104.26295372 -142.75 96.5 C-151.4114103 73.72098024 -149.40824356 50.55560101 -140.03125 28.3125 C-129.94511927 6.7954211 -112.06057452 -9.13408119 -89.953125 -17.3203125 C-58.20296452 -27.78816017 -25.26716219 -22.0702499 0 0 Z " fill="#00D8A2" transform="translate(416.375,26.5)"/>
<path d="M0 0 C20.70920991 14.54050908 34.44095308 36.76352174 41 61 C41.31710937 62.05832031 41.63421875 63.11664063 41.9609375 64.20703125 C48.96765956 91.81608744 44.10817876 123.70773862 30.1875 148.375 C13.66763709 175.64387159 -10.23658227 194.33239885 -41 203 C-42.07378906 203.3196875 -43.14757812 203.639375 -44.25390625 203.96875 C-66.25235544 209.47473497 -91.22744645 207.28066459 -112.15722656 198.98193359 C-112.81819336 198.72621582 -113.47916016 198.47049805 -114.16015625 198.20703125 C-115.02072632 197.85862183 -115.02072632 197.85862183 -115.89868164 197.50317383 C-123.19217503 195.7567012 -129.82493041 198.06098051 -136.84765625 200.02734375 C-137.97771591 200.33571671 -139.10777557 200.64408966 -140.27207947 200.96180725 C-143.87122933 201.94538522 -147.46695395 202.94083649 -151.0625 203.9375 C-154.66214185 204.92853835 -158.26245352 205.91704184 -161.8636322 206.90248108 C-164.10062641 207.51532928 -166.33664609 208.13174878 -168.57154846 208.75218201 C-181.4917855 212.30849842 -181.4917855 212.30849842 -185.75 211.4375 C-188 210 -188 210 -189.25195312 207.4597168 C-190.23752855 202.90143047 -189.40048974 199.65222599 -188.21875 195.20703125 C-188.0081897 194.37918625 -187.79762939 193.55134125 -187.58068848 192.69841003 C-187.13162654 190.95566365 -186.67388157 189.21513435 -186.20800781 187.47680664 C-185.50134599 184.81756508 -184.83932621 182.1497575 -184.1796875 179.47851562 C-183.73703942 177.78315627 -183.29181313 176.08846753 -182.84375 174.39453125 C-182.64970581 173.59763382 -182.45566162 172.80073639 -182.2557373 171.97969055 C-181.12344095 167.90978855 -180.63807991 166.41978669 -176.98632812 164.01733398 C-162.4955832 159.08086128 -143.51403037 160.85893399 -129 165 C-100.20672651 172.16387666 -69.58613093 167.5666372 -43.8828125 152.80859375 C-16.65370437 135.7258335 2.34230423 110.54908595 9.90625 79.25 C15.23714792 54.36847644 12.36854466 26.79943674 0.91796875 3.96875 C0 2 0 2 0 0 Z " fill="#FFC433" transform="translate(468,237)"/>
<path d="M0 0 C29.45883528 16.29501734 47.90175001 42.98537698 57.3515625 74.70800781 C58.59717921 79.11081266 59.49582907 83.45504734 60 88 C60.10828125 88.88300781 60.2165625 89.76601563 60.328125 90.67578125 C60.62639469 93.45047433 60.83544421 96.21430559 61 99 C61.05414063 99.86496094 61.10828125 100.72992188 61.1640625 101.62109375 C61.73772263 120.00429336 57.78096267 140.11401049 49.6015625 156.62890625 C47.80330036 163.71686155 51.2481453 172.07310044 53.16015625 178.875 C53.79516988 181.18222342 54.42992774 183.48951725 55.06445312 185.796875 C56.06367197 189.4053701 57.06610764 193.01291467 58.07348633 196.61914062 C59.04874123 200.11871088 60.01139337 203.6215648 60.97265625 207.125 C61.27575211 208.1960498 61.57884796 209.26709961 61.89112854 210.37060547 C63.45037407 216.08083958 64.54468232 221.0749398 64 227 C62 229.5625 62 229.5625 59 231 C52.13526458 230.57165375 45.69552458 228.70713997 39.08984375 226.875 C37.96357071 226.56804199 36.83729767 226.26108398 35.67689514 225.94482422 C32.09565876 224.96838711 28.51641873 223.98489531 24.9375 223 C21.35489621 222.01554855 17.77187274 221.03277664 14.18739319 220.05517578 C11.96250334 219.44828175 9.73868008 218.83745993 7.51609802 218.22216797 C-2.54214502 215.07541363 -2.54214502 215.07541363 -12.6796875 216.328125 C-13.51636963 216.63226318 -14.35305176 216.93640137 -15.21508789 217.24975586 C-16.09285889 217.57983643 -16.97062988 217.90991699 -17.875 218.25 C-48.38136043 228.91495393 -80.28342524 227.60820731 -110 215 C-110.66 214.67 -111.32 214.34 -112 214 C-112 213.34 -112 212.68 -112 212 C-111.04299194 211.97812622 -111.04299194 211.97812622 -110.06665039 211.95581055 C-70.13313831 210.94106834 -35.84185331 199.74025981 -7.30834961 170.84716797 C17.10599924 145.13449509 27.88854648 110.08718053 27.3359375 75.12890625 C26.36656327 50.23361345 17.46112581 23.68904884 1.703125 4.15234375 C0 2 0 2 0 0 Z " fill="#FF7BBA" transform="translate(180,277)"/>
<path d="M0 0 C10.17944951 1.13505366 19.55073004 9.4882232 27 16 C27.67546875 16.58007812 28.3509375 17.16015625 29.046875 17.7578125 C44.39233527 31.93701779 54.05458719 53.71531399 55.1262207 74.44116211 C55.64141598 92.31598475 54.22799771 106.05069365 42 120 C33.8403687 126.20841512 25.3463811 130.45376249 15 131 C13.19789063 131.09667969 13.19789063 131.09667969 11.359375 131.1953125 C-3.53624733 131.73386039 -16.21817324 127.53558145 -27.3125 117.25 C-37.7059564 106.24763403 -38.57666366 92.91794159 -38.30859375 78.5625 C-37.81122297 66.39445804 -33.88780101 51.88780101 -25 43 C-23.00390625 43.1015625 -23.00390625 43.1015625 -21 44 C-19.83984375 45.9609375 -19.83984375 45.9609375 -18.9375 48.375 C-17.72280308 51.57596098 -16.74307439 53.86945679 -14 56 C-9.87446453 56.6992433 -7.52206312 56.83396948 -3.83984375 54.81640625 C1.93930852 50.31190812 4.58980673 45.12147602 6 38 C7.14864306 26.80073013 5.51901127 17.67331822 -0.3125 8.0625 C-2 5 -2 5 -1.8125 2.625 C-1 1 -1 1 0 0 Z " fill="#FF7BB9" transform="translate(387,265)"/>
<path d="M0 0 C13.66187248 5.98666322 22.96092115 23.67048259 28.26855469 37.04638672 C35.43637478 56.19087816 35.75602038 78.7097839 29 98 C28.649375 99.03640625 28.29875 100.0728125 27.9375 101.140625 C19.51710097 123.47807242 2.44425035 140.24085586 -18.953125 150.2734375 C-39.25268553 159.27271433 -62.98541103 159.7129937 -84 153 C-84.64710938 152.72236816 -85.29421875 152.44473633 -85.9609375 152.15869141 C-86.62351562 151.87558105 -87.28609375 151.5924707 -87.96875 151.30078125 C-88.84176758 150.89533081 -88.84176758 150.89533081 -89.73242188 150.48168945 C-95.93515705 149.1640757 -102.67290919 151.58016381 -108.62890625 153.28515625 C-110.25711524 153.73779651 -111.88537189 154.19026534 -113.51367188 154.64257812 C-116.04443222 155.3527643 -118.57432524 156.06585088 -121.10327148 156.7824707 C-123.56805674 157.47860955 -126.03572905 158.16365742 -128.50390625 158.84765625 C-129.25201065 159.06325699 -130.00011505 159.27885773 -130.77088928 159.50099182 C-135.27040529 160.74160225 -139.28672467 161.39534535 -144 161 C-146 159 -146 159 -146.33203125 156.20703125 C-146.15347699 150.21537131 -144.25696853 144.43169165 -142.6875 138.6875 C-142.2244043 136.89989258 -142.2244043 136.89989258 -141.75195312 135.07617188 C-141.44580078 133.94115234 -141.13964844 132.80613281 -140.82421875 131.63671875 C-140.54666748 130.60248779 -140.26911621 129.56825684 -139.9831543 128.50268555 C-139 126 -139 126 -136 124 C-124.30739467 121.72030965 -111.74267639 121.96422343 -100.25 125 C-77.3798357 130.88185299 -52.97655869 126.92475739 -32.69921875 115.0703125 C-12.01124654 101.54260852 1.08630701 82.03162494 7 58 C9.90219577 39.433635 8.42910367 21.03910553 0.734375 3.78515625 C0 2 0 2 0 0 Z " fill="#00C4A4" transform="translate(412,24)"/>
<path d="M0 0 C5.3560218 1.66391118 8.61434311 5.5027558 11.2890625 10.2578125 C13.55708997 14.97798175 13.71790141 19.36728266 13.75 24.53515625 C13.77545383 26.22019992 13.80891197 27.90514763 13.8515625 29.58984375 C13.85752441 30.32444824 13.86348633 31.05905273 13.86962891 31.81591797 C13.97023896 33.90768607 13.97023896 33.90768607 16.125 35.66015625 C19.03743108 35.98337146 19.03743108 35.98337146 22.453125 35.96875 C23.72800781 35.99388672 25.00289062 36.01902344 26.31640625 36.04492188 C28.34162102 36.07355979 30.36676042 36.09757946 32.39208984 36.11645508 C34.35011035 36.13826412 36.30790018 36.17833373 38.265625 36.21875 C39.43641602 36.23220459 40.60720703 36.24565918 41.81347656 36.25952148 C47.18931999 36.90990183 51.06513995 39.01402362 54.4375 43.22265625 C54.92863281 43.82207031 55.41976562 44.42148437 55.92578125 45.0390625 C59.23130456 49.50744092 58.62516052 54.31746527 58.125 59.66015625 C57.10062799 65.0329259 55.58317827 70.28871026 54.07226562 75.54125977 C53.37281951 77.98025973 52.70065638 80.42565215 52.03125 82.87304688 C51.59013447 84.44445841 51.14747949 86.01543879 50.703125 87.5859375 C50.40598602 88.66890862 50.40598602 88.66890862 50.10284424 89.77375793 C47.93546568 97.19825786 44.2165036 102.02531656 38.125 106.66015625 C35.18791999 108.12869625 32.23156295 107.79035174 29.01318359 107.77368164 C27.91546883 107.77390068 27.91546883 107.77390068 26.795578 107.77412415 C24.37150124 107.77342628 21.94750088 107.76563979 19.5234375 107.7578125 C17.84477785 107.75594787 16.16611766 107.75452418 14.48745728 107.75352478 C10.06512962 107.74970313 5.64283472 107.73987584 1.22052002 107.7288208 C-3.29048215 107.71859911 -7.80148959 107.71402553 -12.3125 107.70898438 C-21.16668107 107.69825327 -30.02083781 107.68118106 -38.875 107.66015625 C-39.13054936 98.80237605 -39.32564781 89.94587488 -39.44493389 81.08520508 C-39.50220608 76.97002449 -39.57978466 72.85737554 -39.70483398 68.74365234 C-39.82489844 64.76876249 -39.89022969 60.79629648 -39.91864967 56.81973267 C-39.93888289 55.30760528 -39.97840208 53.7956021 -40.03803062 52.28451538 C-40.48761953 40.41240921 -40.48761953 40.41240921 -36.4737854 36.05102539 C-33.52270508 33.9375 -33.52270508 33.9375 -30.57917786 32.27319336 C-25.91327572 29.48999133 -23.65824265 25.21000801 -20.875 20.66015625 C-19.3421408 18.19581884 -17.80380805 15.73503105 -16.26147461 13.27661133 C-15.18230061 11.55118871 -14.11128877 9.82063034 -13.04907227 8.0847168 C-12.55334717 7.28461182 -12.05762207 6.48450684 -11.546875 5.66015625 C-11.1044043 4.93828125 -10.66193359 4.21640625 -10.20605469 3.47265625 C-7.3100402 -0.47085284 -4.63751372 -0.7416612 0 0 Z " fill="#F5E8E8" transform="translate(133.875,322.33984375)"/>
<path d="M0 0 C8.77578142 3.90545247 15.88937281 8.55344001 23 15 C24.37671875 16.23556641 24.37671875 16.23556641 25.78125 17.49609375 C43.00504862 33.77645396 54.50707699 57.19147726 55.203125 81.08984375 C55.41560784 96.80550459 53.92217844 110.37143727 47.89404297 125.01708984 C47.63510254 125.68047363 47.37616211 126.34385742 47.109375 127.02734375 C46.87186523 127.60218506 46.63435547 128.17702637 46.38964844 128.76928711 C45.24531854 135.32050405 47.74145516 142.27589502 49.50390625 148.5390625 C50.00204207 150.35414226 50.50008622 152.16924718 50.99804688 153.984375 C51.78137199 156.8135002 52.5672105 159.64190385 53.35522461 162.46972656 C54.11955683 165.22027454 54.87462398 167.9732445 55.62890625 170.7265625 C55.86638077 171.5673233 56.10385529 172.40808411 56.348526 173.27432251 C59.23077288 183.82804785 59.23077288 183.82804785 56.9375 187.875 C52.69920558 190.33594515 47.69445077 189.03860857 43.18554688 187.88256836 C41.36099558 187.37649631 39.53882112 186.86179919 37.71875 186.33984375 C35.72271762 185.78818934 33.72662193 185.236764 31.73046875 184.68554688 C28.60887633 183.81210083 25.48860041 182.93427358 22.36962891 182.05151367 C19.34326787 181.19851744 16.31266513 180.36216976 13.28125 179.52734375 C12.35501831 179.25969711 11.42878662 178.99205048 10.4744873 178.71629333 C2.29453835 176.4768113 -3.67388208 177.7407956 -11.625 180.4375 C-34.96486707 187.9435325 -59.45446923 186.66658051 -82 177 C-84.89453125 175.40625 -84.89453125 175.40625 -87 174 C-87 173.67 -87 173.34 -87 173 C-86.36199463 172.9906543 -85.72398926 172.98130859 -85.06665039 172.97167969 C-56.23420227 172.44354649 -31.2923983 166.45826038 -9 147 C-8.45472656 146.42765625 -7.90945312 145.8553125 -7.34765625 145.265625 C-6 144 -6 144 -4 144 C-3.74347656 143.41863281 -3.48695313 142.83726562 -3.22265625 142.23828125 C-1.88853189 139.79593858 -0.37927227 138.17634553 1.5625 136.1875 C21.08505205 114.53908021 26.27187352 86.26856671 25 58 C23.33790537 38.11508522 14.39156612 18.90097296 1.46875 3.890625 C0 2 0 2 0 0 Z " fill="#00C1FC" transform="translate(166,41)"/>
<path d="M0 0 C2.81437684 2.19112384 5.4415106 4.51636003 8 7 C11.73020806 5.27197488 14.69921681 2.98471824 17.90234375 0.4375 C24.91535238 -4.36843515 33.82031008 -4.08972843 42 -3 C50.14853295 -0.47280169 55.75455326 4.69444493 60 12 C63.92024208 20.26201556 63.90251334 27.93715648 61.0078125 36.50390625 C54.33083458 53.04107249 35.70337481 62.56176435 21.27392578 71.55810547 C19.76294207 72.51621904 18.27098799 73.50504916 16.80029297 74.52392578 C11.73484997 77.96690893 11.73484997 77.96690893 8.484375 78.11328125 C4.83127103 76.47627711 1.57384491 74.40936835 -1.75 72.1875 C-2.48863281 71.70047607 -3.22726563 71.21345215 -3.98828125 70.71166992 C-39.22346374 47.32960878 -39.22346374 47.32960878 -44 33 C-44.77975119 23.17002185 -44.36834648 14.79762113 -38.3046875 6.75 C-29.08165956 -3.40653279 -12.25201269 -7.62464309 0 0 Z " fill="#FD7BBA" transform="translate(114,96)"/>
<path d="M0 0 C1.04607422 -0.020625 2.09214844 -0.04125 3.16992188 -0.0625 C4.18248047 -0.06765625 5.19503906 -0.0728125 6.23828125 -0.078125 C7.62527222 -0.09214355 7.62527222 -0.09214355 9.0402832 -0.10644531 C12.24845632 0.32553225 14.08434143 1.35042036 16.6875 3.25 C19.09701566 6.86427349 18.97671267 9.4960283 18.9621582 13.67138672 C18.96726913 14.42457184 18.97238007 15.17775696 18.97764587 15.95376587 C18.99155575 18.4458204 18.99058387 20.93759874 18.98828125 23.4296875 C18.99216786 25.16220198 18.99650245 26.8947155 19.00126648 28.62722778 C19.00873201 32.26046841 19.00843534 35.89361188 19.00317383 39.52685547 C18.9973834 44.17971454 19.01429811 48.832175 19.0375185 53.48496819 C19.05226205 57.06408 19.05312662 60.64309601 19.05000877 64.22223282 C19.05052183 65.93741774 19.05575662 67.65260805 19.06582069 69.36776352 C19.07817788 71.76871239 19.07139782 74.16888744 19.05981445 76.56982422 C19.07128006 77.62982635 19.07128006 77.62982635 19.08297729 78.71124268 C19.03667554 83.06028361 18.32174965 85.77422448 15.6875 89.25 C11.04935245 92.49504702 5.17472908 91.6185764 -0.25 91.625 C-1.33474609 91.64949219 -2.41949219 91.67398438 -3.53710938 91.69921875 C-11.50791765 91.72861325 -11.50791765 91.72861325 -15.50390625 89.3515625 C-18.69943445 85.63840014 -18.47769266 82.55224036 -18.50537109 77.8503418 C-18.51354858 77.08754913 -18.52172607 76.32475647 -18.53015137 75.53884888 C-18.55500831 73.00898018 -18.57152201 70.47916761 -18.5859375 67.94921875 C-18.59126118 67.08572123 -18.59658485 66.2222237 -18.60206985 65.33255959 C-18.62880265 60.76216138 -18.64817718 56.1917905 -18.66259766 51.62133789 C-18.67924673 46.89990314 -18.72402584 42.17916626 -18.7749691 37.45799541 C-18.80862032 33.82828466 -18.82017271 30.19874 -18.82582474 26.56888771 C-18.83254305 24.82853677 -18.84778028 23.08819698 -18.87171555 21.34799767 C-18.9033263 18.91070009 -18.90341087 16.47529043 -18.89599609 14.0378418 C-18.91240143 13.32025192 -18.92880676 12.60266205 -18.94570923 11.86332703 C-18.89708185 7.95429809 -18.42302908 6.38403185 -15.90103149 3.32575989 C-10.8673123 -0.71081159 -6.25572954 0.03049716 0 0 Z " fill="#01A7FE" transform="translate(76.3125,347.75)"/>
<path d="M0 0 C2.4375 1.625 2.4375 1.625 4 4 C4.5625 6.9375 4.5625 6.9375 4 10 C1.51397551 13.36344489 0.08574477 14.80057749 -4.0625 15.5625 C-7 15 -7 15 -9.375 13.5 C-11.82483134 9.73102871 -11.5659239 7.45665069 -11 3 C-8.06403859 -0.7580306 -4.50318499 -0.56289812 0 0 Z " fill="#F6F4F2" transform="translate(329,86)"/>
<path d="M0 0 C2.4375 1.625 2.4375 1.625 4 4 C4.5625 6.9375 4.5625 6.9375 4 10 C1.51397551 13.36344489 0.08574477 14.80057749 -4.0625 15.5625 C-7 15 -7 15 -9.375 13.4375 C-11.62340519 10.06489221 -11.56783945 7.97487617 -11 4 C-8.11188513 -0.5054592 -5.11821063 -0.73117295 0 0 Z " fill="#F8F4F2" transform="translate(363,86)"/>
<path d="M0 0 C2.4375 1.5625 2.4375 1.5625 4 4 C4.5625 7.5 4.5625 7.5 4 11 C1.9375 13.5 1.9375 13.5 -1 15 C-4.8137751 15 -7.02424548 14.84985071 -9.9375 12.3125 C-11.33817538 9.26397123 -11.4842732 7.32073048 -11 4 C-8.05899778 -0.47032338 -5.13105401 -0.73300772 0 0 Z " fill="#F8F4F3" transform="translate(397,86)"/>
</svg>
