<?xml version="1.0" encoding="UTF-8"?>
<svg version="1.1" xmlns="http://www.w3.org/2000/svg" width="512" height="512">
<path d="M0 0 C0.99 -0.03287109 0.99 -0.03287109 2 -0.06640625 C5.23898787 0.95210361 6.21239853 2.71612377 8 5.5625 C8.53847512 8.57779623 8.46685947 11.5272418 8.390625 14.58203125 C8.38496521 15.44060226 8.37930542 16.29917328 8.37347412 17.1837616 C8.35115787 19.9147516 8.30097167 22.64440939 8.25 25.375 C8.2299288 27.23110079 8.21167911 29.08722223 8.1953125 30.94335938 C8.15130881 35.48358296 8.08231521 40.02281593 8 44.5625 C9.051875 44.48 10.10375 44.3975 11.1875 44.3125 C15 44.5625 15 44.5625 17.90698242 46.11425781 C20.74399552 49.43276561 20.5769426 51.40770114 20.48828125 55.734375 C20.47579346 56.9831543 20.46330566 58.23193359 20.45043945 59.51855469 C20.40491943 61.10055664 20.35939941 62.68255859 20.3125 64.3125 C20.209375 69.345 20.10625 74.3775 20 79.5625 C39.8 79.5625 59.6 79.5625 80 79.5625 C79.84193728 66.62331973 79.84193728 66.62331973 79.63964844 53.68481445 C79.62796063 52.05681407 79.61776902 50.42880195 79.609375 48.80078125 C79.58891113 47.96268921 79.56844727 47.12459717 79.54736328 46.2611084 C79.54492818 42.17317641 79.66959775 40.09528871 81.87207031 36.54370117 C84.36651195 34.22126038 85.60537049 33.64529584 89 33.5625 C92.81263347 34.62649073 93.75011007 35.1876651 96 38.5625 C96.24050903 40.4797821 96.24050903 40.4797821 96.22705078 42.66674805 C96.22689972 43.48737228 96.22674866 44.30799652 96.22659302 45.15348816 C96.21627045 46.03482925 96.20594788 46.91617035 96.1953125 47.82421875 C96.19106766 49.18290825 96.19106766 49.18290825 96.18673706 50.56904602 C96.17553964 53.46283158 96.15043589 56.35630794 96.125 59.25 C96.11496963 61.21158407 96.10584388 63.173173 96.09765625 65.13476562 C96.07560173 69.9441296 96.04107489 74.75326237 96 79.5625 C97.23868835 79.55139694 98.47737671 79.54029388 99.75360107 79.52885437 C111.46383283 79.42721228 123.17397433 79.35240707 134.88454819 79.30343914 C140.90417713 79.27741727 146.92344811 79.24215449 152.94287109 79.18530273 C158.75897967 79.13071902 164.57474532 79.10102381 170.39109039 79.08811378 C172.60293216 79.07892114 174.81475652 79.06097059 177.02645111 79.03384972 C193.05090867 78.84527982 204.75123068 79.46678501 216.80859375 91.17578125 C225.86774831 101.04234709 228.46550201 111.03955043 228.38095093 124.25170898 C228.3856309 125.38842513 228.39031087 126.52514128 228.39513266 127.69630337 C228.40704486 131.48385417 228.39763989 135.27104062 228.38818359 139.05859375 C228.39060147 141.78273256 228.39748577 144.50685617 228.40411377 147.23098755 C228.41741899 153.84912219 228.41458775 160.46715448 228.40587585 167.08529305 C228.39908702 172.46636558 228.39818775 177.84740952 228.4014473 183.22848511 C228.401907 183.9957934 228.40236669 184.7631017 228.40284032 185.55366176 C228.40379955 187.11267512 228.40477219 188.67168847 228.4057581 190.2307018 C228.41430258 204.83258095 228.40449266 219.4344035 228.388357 234.03627336 C228.37495467 246.55187984 228.37728303 259.06740284 228.39111328 271.58300781 C228.40718575 286.1344048 228.4134787 300.68575224 228.40427649 315.23715687 C228.40332089 316.7902762 228.40237778 318.34339554 228.4014473 319.89651489 C228.40098447 320.66058055 228.40052164 321.4246462 228.40004479 322.21186537 C228.3974599 327.58338422 228.40181507 332.95487153 228.40888596 338.3263855 C228.41731971 344.87690373 228.41498155 351.42731419 228.39904372 357.97782016 C228.39118602 361.31686983 228.3896546 364.65559228 228.39799118 367.99466324 C228.4062093 371.62105046 228.39588099 375.24693563 228.38095093 378.87329102 C228.38764309 379.91902503 228.39433526 380.96475904 228.40123022 382.04218197 C228.3077118 393.7824557 224.86428117 403.91864177 217.03125 412.79296875 C209.00705336 420.54097021 198.71350407 424.69376954 187.57731628 424.68275452 C186.5018454 424.68412918 185.42637451 424.68550385 184.3183136 424.68692017 C183.14874619 424.68332489 181.97917877 424.67972961 180.77416992 424.67602539 C178.91501953 424.67624443 178.91501953 424.67624443 177.01831055 424.6764679 C173.62819488 424.67589137 170.23814041 424.67088247 166.84803557 424.66389394 C163.30195659 424.6576348 159.75587675 424.65705457 156.20979309 424.65586853 C149.49862597 424.65276276 142.78747517 424.64455954 136.07631522 424.63451904 C128.43426713 424.62333448 120.79221825 424.61784155 113.15016401 424.61282361 C97.43343322 424.6023763 81.71671872 424.58479147 66 424.5625 C65.83725885 431.16100368 65.77093889 437.75570955 65.76806641 444.35620117 C65.75614487 446.59567825 65.7230604 448.83515559 65.66748047 451.07397461 C64.92129826 465.83805783 64.92129826 465.83805783 71.19122314 478.60066223 C72.75413798 480.14198672 74.35693767 481.57320303 76.04052734 482.98071289 C79.13995671 485.68459554 80.85410415 488.25841978 82.875 491.8125 C85.15707569 494.75752505 86.76864306 496.31427988 90.46826172 497.06005859 C94.42317439 497.42787839 98.31264501 497.52794268 102.28271484 497.41699219 C109.49474672 497.22042482 109.49474672 497.22042482 112.63671875 499.34765625 C114.64045822 502.60301521 114.53453747 504.8207377 114 508.5625 C112.61641693 510.74950409 112.61641693 510.74950409 110 512.5625 C106.55061998 513.16753323 103.13160198 513.10157752 99.6373291 513.07043457 C98.5709265 513.07667453 97.5045239 513.0829145 96.40580606 513.08934355 C92.82044491 513.10534114 89.23575723 513.09264233 85.65039062 513.08007812 C83.08489077 513.08549621 80.51939402 513.09261709 77.9539032 513.10131836 C71.70187251 513.11769259 65.4500926 513.11525704 59.19805849 513.1036678 C54.11760339 513.09463962 49.03720214 513.09340679 43.95674133 513.09776306 C42.87273268 513.09868246 42.87273268 513.09868246 41.76682487 513.09962043 C40.29879692 513.10089931 38.83076898 513.10219617 37.36274105 513.1035108 C23.59227538 513.11492099 9.82191617 513.10179604 -3.94853204 513.08030933 C-15.76798745 513.06243792 -27.58728572 513.0655419 -39.40673828 513.08398438 C-53.1274272 513.10538337 -66.84802279 513.11382232 -80.56872606 513.10153532 C-82.0313978 513.1002611 -83.49406956 513.09900362 -84.95674133 513.09776306 C-85.67643131 513.09714596 -86.39612129 513.09652886 -87.13762006 513.09589306 C-92.21283779 513.09243723 -97.28799639 513.09827349 -102.36320496 513.10768127 C-109.1922443 513.12006165 -116.02094048 513.11126596 -122.84996605 513.08810425 C-125.36064852 513.08280193 -127.87135592 513.08435675 -130.38202858 513.09315491 C-133.80080357 513.10403339 -137.21861598 513.09043887 -140.6373291 513.07043457 C-141.63848676 513.07935746 -142.63964442 513.08828034 -143.67114019 513.09747362 C-150.33767228 513.02144729 -150.33767228 513.02144729 -153.61641693 510.74950409 C-155.66152117 507.51684575 -155.5342427 505.30219889 -155 501.5625 C-153.65234375 499.33203125 -153.65234375 499.33203125 -151 497.5625 C-148.3494491 497.36622611 -145.78352354 497.49247643 -143.12915039 497.61914062 C-132.73789126 498.16543816 -132.73789126 498.16543816 -123.875 493.48828125 C-121.11974844 490.46356555 -118.78345868 487.19992335 -116.5814209 483.75604248 C-114.88067331 481.39698545 -112.96453748 479.54642063 -110.88647461 477.51586914 C-106.18488454 472.25893406 -105.86724932 468.04445583 -106 461.18359375 C-105.98912354 460.13091812 -105.97824707 459.07824249 -105.96704102 457.9936676 C-105.94103474 454.6613815 -105.96963497 451.33220067 -106 448 C-105.99190196 445.72849983 -105.9802191 443.45700944 -105.96484375 441.18554688 C-105.9351057 435.64396971 -105.95008395 430.10390192 -106 424.5625 C-106.64254069 424.56618717 -107.28508139 424.56987434 -107.94709301 424.57367325 C-123.63225277 424.66228096 -139.31732463 424.72833376 -155.00267315 424.76974869 C-162.58821835 424.79031259 -170.17359575 424.81831392 -177.7590332 424.86425781 C-184.37591146 424.90431594 -190.9926681 424.92997759 -197.60966426 424.93885398 C-201.10847183 424.94403692 -204.60693171 424.95608694 -208.10562706 424.98542023 C-212.02580308 425.01801603 -215.94564908 425.01844735 -219.8659668 425.01660156 C-221.57717461 425.03817322 -221.57717461 425.03817322 -223.32295227 425.06018066 C-235.60345062 424.99802859 -246.72221196 421.84390588 -256 413.5625 C-263.46226257 405.7127738 -268.11083166 396.57289279 -268.13422108 385.63915157 C-268.13867892 384.66821275 -268.14313676 383.69727392 -268.14772969 382.69691271 C-268.14754533 381.63797872 -268.14736097 380.57904474 -268.14717102 379.48802185 C-268.15084771 378.35698896 -268.1545244 377.22595607 -268.1583125 376.06064945 C-268.16934494 372.26235222 -268.17319246 368.46408234 -268.17700195 364.66577148 C-268.182736 361.94562039 -268.18990112 359.22547337 -268.19691467 356.50532532 C-268.21665445 348.33672471 -268.2267422 340.16812291 -268.23564246 331.99950442 C-268.24002949 328.14926151 -268.24539523 324.29901998 -268.25063133 320.44877815 C-268.26764123 307.6436857 -268.28213431 294.8385941 -268.28938007 282.03349209 C-268.29128985 278.71235083 -268.2932102 275.39120959 -268.29516602 272.07006836 C-268.29564976 271.24465269 -268.2961335 270.41923701 -268.2966319 269.56880874 C-268.30492819 256.20441378 -268.33025939 242.84010844 -268.36274669 229.47575258 C-268.39585488 215.74362386 -268.41383223 202.01154063 -268.41702431 188.2793718 C-268.41918595 180.57382495 -268.42788365 172.86840879 -268.45348549 165.16290092 C-268.47524395 158.59913999 -268.48321774 152.0355415 -268.47351871 145.47174858 C-268.46898868 142.1263098 -268.47298699 138.78147627 -268.49028015 135.43603897 C-268.50802412 131.7990341 -268.50087938 128.16286986 -268.48774719 124.52586365 C-268.49871644 123.48254472 -268.50968568 122.43922579 -268.52098733 121.36429113 C-268.42543134 110.3487323 -265.38880852 100.80798197 -258 92.5625 C-257.48695313 91.94632812 -256.97390625 91.33015625 -256.4453125 90.6953125 C-251.13513169 84.77535016 -244.43537863 82.04095954 -237 79.5625 C-235.10986343 79.47149224 -233.21662054 79.44055137 -231.32429504 79.44224548 C-230.14218948 79.44087082 -228.96008392 79.43949615 -227.74215698 79.43807983 C-225.79468063 79.44347275 -225.79468063 79.44347275 -223.80786133 79.44897461 C-222.42812604 79.44925666 -221.0483906 79.44909841 -219.6686554 79.4485321 C-215.92100557 79.44824481 -212.17338765 79.45413063 -208.42574525 79.46110606 C-204.50996197 79.46735084 -200.59417799 79.46794429 -196.6783905 79.46913147 C-189.26237979 79.47224146 -181.8463838 79.48045039 -174.43037957 79.49048096 C-165.98790917 79.50165239 -157.54543808 79.50715515 -149.10296214 79.51217639 C-131.73529957 79.52263327 -114.36765134 79.5402263 -97 79.5625 C-97.01595215 78.73903076 -97.0319043 77.91556152 -97.04833984 77.06713867 C-97.06074707 75.9866626 -97.0731543 74.90618652 -97.0859375 73.79296875 C-97.10188965 72.72199951 -97.1178418 71.65103027 -97.13427734 70.54760742 C-96.97076059 66.91248132 -96.08968519 64.53628276 -94 61.5625 C-90.90826248 60.01663124 -88.40570448 60.26890479 -85 60.5625 C-81 64.5625 -81 64.5625 -81 79.5625 C-60.87 79.5625 -40.74 79.5625 -20 79.5625 C-20.07908127 69.4953755 -20.07908127 69.4953755 -20.18017578 59.4284668 C-20.1851709 58.17718994 -20.19016602 56.92591309 -20.1953125 55.63671875 C-20.20578613 54.35369873 -20.21625977 53.07067871 -20.22705078 51.7487793 C-20 48.5625 -20 48.5625 -18 45.5625 C-14.52674819 44.4047494 -11.63932552 44.49383348 -8 44.5625 C-8.02094727 43.37172852 -8.04189453 42.18095703 -8.06347656 40.95410156 C-8.13590962 36.53365111 -8.18181172 32.11325304 -8.21972656 27.69238281 C-8.23983452 25.77953265 -8.26712507 23.86674389 -8.30175781 21.95410156 C-8.35031249 19.20362189 -8.37297658 16.45395523 -8.390625 13.703125 C-8.41127014 12.84881897 -8.43191528 11.99451294 -8.45318604 11.11431885 C-8.45542925 5.17053903 -8.45542925 5.17053903 -6.10058594 2.02661133 C-3.84570044 0.45495299 -2.7227105 -0.00531779 0 0 Z " fill="#99E5FB" transform="translate(276,-0.5625)"/>
<path d="M0 0 C1.19051971 -0.00137466 2.38103943 -0.00274933 3.6076355 -0.00416565 C4.9153038 -0.00057037 6.22297211 0.0030249 7.57026672 0.00672913 C8.95985411 0.00701117 10.34944164 0.00685293 11.73902893 0.00628662 C15.51353731 0.00599932 19.28801401 0.01188525 23.06251502 0.01886058 C27.00632553 0.02510524 30.95013673 0.0256988 34.89395142 0.02688599 C42.36308603 0.02999601 49.83220603 0.03820499 57.3013342 0.04823548 C65.80426295 0.05940679 74.3071924 0.06490964 82.81012666 0.06993091 C100.3022048 0.08038786 117.79426291 0.09872928 135.28633118 0.12025452 C135.28633118 10.02025452 135.28633118 19.92025452 135.28633118 30.12025452 C132.31633118 30.45025452 129.34633118 30.78025452 126.28633118 31.12025452 C123.20429762 34.20228807 123.97464148 37.86612937 123.96406555 42.00453186 C123.95413574 42.92498795 123.94420593 43.84544403 123.93397522 44.79379272 C123.9046927 47.8479559 123.89112217 50.90191136 123.88008118 53.95619202 C123.86858187 56.07367461 123.85706636 58.19115711 123.84553528 60.30863953 C123.8245044 64.75236484 123.81282612 69.19601766 123.80586243 73.63978577 C123.79488748 79.33893106 123.74682776 85.03712192 123.68991852 90.73596764 C123.65270355 95.1111177 123.64225669 99.48603695 123.63919067 103.86133194 C123.63312829 105.96255846 123.61703954 108.06378047 123.59082031 110.16485214 C123.55677105 113.10303974 123.56043786 116.03888422 123.57344055 118.97718811 C123.55501099 119.84798508 123.53658142 120.71878204 123.51759338 121.6159668 C123.54982733 123.93679601 123.61364039 125.89724047 124.28633118 128.12025452 C125.27698578 128.74741364 126.26764038 129.37457275 127.28831482 130.02073669 C130.28633118 132.12025452 130.28633118 132.12025452 130.83699417 134.2428112 C131.02592373 137.12922465 131.02788505 139.96343863 130.96748352 142.85560608 C130.96879776 144.49508209 130.96879776 144.49508209 130.97013855 146.16767883 C130.96595614 149.78280436 130.9192688 153.39607787 130.87226868 157.01087952 C130.86107898 159.51621995 130.85253773 162.02157351 130.84654236 164.52693176 C130.82596941 170.44864848 130.7786762 176.3697703 130.71844542 182.29118133 C130.6447724 189.69502483 130.61257 197.09895078 130.57929993 204.50306702 C130.51493916 217.7091342 130.4136774 230.91465225 130.28633118 244.12025452 C128.96633118 244.45025452 127.64633118 244.78025452 126.28633118 245.12025452 C124.97006427 241.70502715 123.65897792 238.28783388 122.34883118 234.87025452 C121.97564758 233.90216858 121.60246399 232.93408264 121.2179718 231.93666077 C120.86025696 231.00209045 120.50254211 230.06752014 120.13398743 229.10462952 C119.80406799 228.24579163 119.47414856 227.38695374 119.13423157 226.50209045 C118.38006901 224.38357334 117.81342599 222.3030514 117.28633118 220.12025452 C109.28656435 218.50071072 104.52615736 220.08949229 97.21992493 223.45619202 C95.6357074 224.15557892 95.6357074 224.15557892 94.01948547 224.86909485 C90.57897588 226.39253551 87.15182245 227.94387907 83.72383118 229.49525452 C81.34668034 230.55273293 78.96849603 231.60789105 76.58930969 232.66078186 C71.78461165 234.7879912 66.98363526 236.92328538 62.18476868 239.06361389 C52.41421654 243.40811959 42.57351957 247.58414414 32.72383118 251.74525452 C31.10775888 252.43038983 29.49178872 253.11576613 27.87593079 253.80140686 C26.36563428 254.44163506 24.85530044 255.08177522 23.34492493 255.72181702 C22.29014198 256.16906631 22.29014198 256.16906631 21.21405029 256.62535095 C15.995186 258.83323485 10.75306311 260.98087469 5.49360657 263.09046936 C3.14617911 264.03251338 3.14617911 264.03251338 1.28633118 266.12025452 C0.97095401 270.45669052 0.8373527 272.44678681 3.28633118 276.12025452 C10.69542288 277.16978251 16.33537952 274.40433951 23.01679993 271.43275452 C24.71607384 270.69761879 24.71607384 270.69761879 26.44967651 269.94763184 C28.87494111 268.89602259 31.29724773 267.83954125 33.71614075 266.77354431 C37.48916382 265.11093758 41.27129269 263.46981503 45.05488586 261.83143616 C55.49794845 257.30371426 65.91915203 252.72642928 76.33413696 248.13450623 C79.7797718 246.6168865 83.22842178 245.10619526 86.67735291 243.59608459 C88.99579079 242.57559881 91.30755594 241.54101871 93.61909485 240.50502014 C95.00272905 239.8957594 96.38658453 239.28700082 97.77070618 238.67884827 C98.94343079 238.15605286 100.1161554 237.63325745 101.32441711 237.09461975 C104.28633118 236.12025452 104.28633118 236.12025452 106.55049133 236.1441803 C109.16776384 237.61588993 109.56317396 239.39132531 110.57539368 242.17884827 C110.9595343 243.20429749 111.34367493 244.2297467 111.73945618 245.28627014 C112.12617493 246.36585999 112.51289368 247.44544983 112.91133118 248.55775452 C113.69067172 250.68311296 114.47432192 252.80689757 115.26289368 254.92884827 C115.77457092 256.34895203 115.77457092 256.34895203 116.29658508 257.79774475 C117.17361234 260.25639438 117.17361234 260.25639438 119.28633118 262.12025452 C123.29390699 262.34289762 126.37446907 262.09822004 130.28633118 261.12025452 C130.28633118 275.31025452 130.28633118 289.50025452 130.28633118 304.12025452 C75.17633118 304.12025452 20.06633118 304.12025452 -36.71366882 304.12025452 C-36.87499422 236.59661366 -36.87499422 236.59661366 -36.90898132 208.37416077 C-36.91681235 201.9146877 -36.92489415 195.45521502 -36.93339539 188.9957428 C-36.93445038 188.1861964 -36.93550538 187.37665001 -36.93659234 186.5425719 C-36.95397124 173.48728455 -36.98549635 160.43206795 -37.02228001 147.3768225 C-37.05973727 133.97030185 -37.08191478 120.56381814 -37.0900228 107.1572473 C-37.09550067 98.89020692 -37.11277771 90.62336646 -37.14533469 82.35638765 C-37.16654173 76.68098895 -37.17285493 71.00569303 -37.16767433 65.33025762 C-37.1651221 62.05983527 -37.17114099 58.78983283 -37.19049072 55.51945686 C-37.21049507 51.96320243 -37.20556909 48.40779213 -37.19468689 44.85151672 C-37.20633826 43.83202383 -37.21798962 42.81253094 -37.22999406 41.76214433 C-37.13992768 30.81632832 -34.04953464 21.3066555 -26.71366882 13.12025452 C-26.20062195 12.50408264 -25.68757507 11.88791077 -25.15898132 11.25306702 C-18.80533979 4.16982072 -9.47913178 -0.00842589 0 0 Z " fill="#62DAFA" transform="translate(44.71366882324219,78.87974548339844)"/>
<path d="M0 0 C163.68 0 327.36 0 496 0 C496 11.39088818 492.6351417 20.61574224 485.03125 29.23046875 C477.00705336 36.97847021 466.71350407 41.13126954 455.57731628 41.12025452 C454.5018454 41.12162918 453.42637451 41.12300385 452.3183136 41.12442017 C451.14874619 41.12082489 449.97917877 41.11722961 448.77416992 41.11352539 C446.91501953 41.11374443 446.91501953 41.11374443 445.01831055 41.1139679 C441.62819488 41.11339137 438.23814041 41.10838247 434.84803557 41.10139394 C431.30195659 41.0951348 427.75587675 41.09455457 424.20979309 41.09336853 C417.49862597 41.09026276 410.78747517 41.08205954 404.07631522 41.07201904 C396.43426713 41.06083448 388.79221825 41.05534155 381.15016401 41.05032361 C365.43343322 41.0398763 349.71671872 41.02229147 334 41 C333.83725885 47.59850368 333.77093889 54.19320955 333.76806641 60.79370117 C333.75614487 63.03317825 333.7230604 65.27265559 333.66748047 67.51147461 C332.92129826 82.27555783 332.92129826 82.27555783 339.19122314 95.03816223 C340.75413798 96.57948672 342.35693767 98.01070303 344.04052734 99.41821289 C347.13995671 102.12209554 348.85410415 104.69591978 350.875 108.25 C353.15707569 111.19502505 354.76864306 112.75177988 358.46826172 113.49755859 C362.42317439 113.86537839 366.31264501 113.96544268 370.28271484 113.85449219 C377.49474672 113.65792482 377.49474672 113.65792482 380.63671875 115.78515625 C382.64045822 119.04051521 382.53453747 121.2582377 382 125 C380.61641693 127.18700409 380.61641693 127.18700409 378 129 C374.55061998 129.60503323 371.13160198 129.53907752 367.6373291 129.50793457 C366.5709265 129.51417453 365.5045239 129.5204145 364.40580606 129.52684355 C360.82044491 129.54284114 357.23575723 129.53014233 353.65039062 129.51757812 C351.08489077 129.52299621 348.51939402 129.53011709 345.9539032 129.53881836 C339.70187251 129.55519259 333.4500926 129.55275704 327.19805849 129.5411678 C322.11760339 129.53213962 317.03720214 129.53090679 311.95674133 129.53526306 C310.87273268 129.53618246 310.87273268 129.53618246 309.76682487 129.53712043 C308.29879692 129.53839931 306.83076898 129.53969617 305.36274105 129.5410108 C291.59227538 129.55242099 277.82191617 129.53929604 264.05146796 129.51780933 C252.23201255 129.49993792 240.41271428 129.5030419 228.59326172 129.52148438 C214.8725728 129.54288337 201.15197721 129.55132232 187.43127394 129.53903532 C185.9686022 129.5377611 184.50593044 129.53650362 183.04325867 129.53526306 C182.32356869 129.53464596 181.60387871 129.53402886 180.86237994 129.53339306 C175.78716221 129.52993723 170.71200361 129.53577349 165.63679504 129.54518127 C158.8077557 129.55756165 151.97905952 129.54876596 145.15003395 129.52560425 C142.63935148 129.52030193 140.12864408 129.52185675 137.61797142 129.53065491 C134.19919643 129.54153339 130.78138402 129.52793887 127.3626709 129.50793457 C126.36151324 129.51685746 125.36035558 129.52578034 124.32885981 129.53497362 C117.66232772 129.45894729 117.66232772 129.45894729 114.38358307 127.18700409 C112.33847883 123.95434575 112.4657573 121.73969889 113 118 C114.34765625 115.76953125 114.34765625 115.76953125 117 114 C119.6505509 113.80372611 122.21647646 113.92997643 124.87084961 114.05664062 C135.26210874 114.60293816 135.26210874 114.60293816 144.125 109.92578125 C146.88025156 106.90106555 149.21654132 103.63742335 151.4185791 100.19354248 C153.11932669 97.83448545 155.03546252 95.98392063 157.11352539 93.95336914 C161.81511546 88.69643406 162.13275068 84.48195583 162 77.62109375 C162.01087646 76.56841812 162.02175293 75.51574249 162.03295898 74.4311676 C162.05896526 71.0988815 162.03036503 67.76970067 162 64.4375 C162.00809804 62.16599983 162.0197809 59.89450944 162.03515625 57.62304688 C162.0648943 52.08146971 162.04991605 46.54140192 162 41 C161.03618896 41.00553076 161.03618896 41.00553076 160.05290699 41.01117325 C144.36774723 41.09978096 128.68267537 41.16583376 112.99732685 41.20724869 C105.41178165 41.22781259 97.82640425 41.25581392 90.2409668 41.30175781 C83.62408854 41.34181594 77.0073319 41.36747759 70.39033574 41.37635398 C66.89152817 41.38153692 63.39306829 41.39358694 59.89437294 41.42292023 C55.97419692 41.45551603 52.05435092 41.45594735 48.1340332 41.45410156 C46.42282539 41.47567322 46.42282539 41.47567322 44.67704773 41.49768066 C32.39654938 41.43552859 21.27778804 38.28140588 12 30 C3.60411061 21.16817019 0 12.08255138 0 0 Z " fill="#EBE8EB" transform="translate(8,383)"/>
<path d="M0 0 C56.76 0 113.52 0 172 0 C172.33 16.17 172.66 32.34 173 49 C176.96 53.29 180.92 57.58 185 62 C186.27875 64.0625 187.5575 66.125 188.875 68.25 C191.15707569 71.19502505 192.76864306 72.75177988 196.46826172 73.49755859 C200.42317439 73.86537839 204.31264501 73.96544268 208.28271484 73.85449219 C215.49474672 73.65792482 215.49474672 73.65792482 218.63671875 75.78515625 C220.64045822 79.04051521 220.53453747 81.2582377 220 85 C218.61641693 87.18700409 218.61641693 87.18700409 216 89 C212.55061998 89.60503323 209.13160198 89.53907752 205.6373291 89.50793457 C204.0377252 89.51729451 204.0377252 89.51729451 202.40580606 89.52684355 C198.82044491 89.54284114 195.23575723 89.53014233 191.65039062 89.51757812 C189.08489077 89.52299621 186.51939402 89.53011709 183.9539032 89.53881836 C177.70187251 89.55519259 171.4500926 89.55275704 165.19805849 89.5411678 C160.11760339 89.53213962 155.03720214 89.53090679 149.95674133 89.53526306 C148.87273268 89.53618246 148.87273268 89.53618246 147.76682487 89.53712043 C146.29879692 89.53839931 144.83076898 89.53969617 143.36274105 89.5410108 C129.59227538 89.55242099 115.82191617 89.53929604 102.05146796 89.51780933 C90.23201255 89.49993792 78.41271428 89.5030419 66.59326172 89.52148438 C52.8725728 89.54288337 39.15197721 89.55132232 25.43127394 89.53903532 C23.9686022 89.5377611 22.50593044 89.53650362 21.04325867 89.53526306 C20.32356869 89.53464596 19.60387871 89.53402886 18.86237994 89.53339306 C13.78716221 89.52993723 8.71200361 89.53577349 3.63679504 89.54518127 C-3.1922443 89.55756165 -10.02094048 89.54876596 -16.84996605 89.52560425 C-19.36064852 89.52030193 -21.87135592 89.52185675 -24.38202858 89.53065491 C-27.80080357 89.54153339 -31.21861598 89.52793887 -34.6373291 89.50793457 C-35.63848676 89.51685746 -36.63964442 89.52578034 -37.67114019 89.53497362 C-44.33767228 89.45894729 -44.33767228 89.45894729 -47.61641693 87.18700409 C-49.66152117 83.95434575 -49.5342427 81.73969889 -49 78 C-47.65234375 75.76953125 -47.65234375 75.76953125 -45 74 C-42.3494491 73.80372611 -39.78352354 73.92997643 -37.12915039 74.05664062 C-26.73789126 74.60293816 -26.73789126 74.60293816 -17.875 69.92578125 C-14.51067925 66.23242927 -11.81313275 62.12020553 -9 58 C-5.04 53.545 -5.04 53.545 -1 49 C-0.67 32.83 -0.34 16.66 0 0 Z " fill="#EFEDEF" transform="translate(170,423)"/>
<path d="M0 0 C56.76 0 113.52 0 172 0 C172 16.17 172 32.34 172 49 C115.24 49 58.48 49 0 49 C0 32.83 0 16.66 0 0 Z " fill="#BAAFB9" transform="translate(170,423)"/>
<path d="M0 0 C0.66 -0.02191406 1.32 -0.04382812 2 -0.06640625 C5.23898787 0.95210361 6.21239853 2.71612377 8 5.5625 C8.53847512 8.57779623 8.46685947 11.5272418 8.390625 14.58203125 C8.38496521 15.44060226 8.37930542 16.29917328 8.37347412 17.1837616 C8.35115787 19.9147516 8.30097167 22.64440939 8.25 25.375 C8.2299288 27.23110079 8.21167911 29.08722223 8.1953125 30.94335938 C8.15130881 35.48358296 8.08231521 40.02281593 8 44.5625 C9.051875 44.48 10.10375 44.3975 11.1875 44.3125 C15.66949933 44.6064016 16.90352767 45.39843556 20 48.5625 C20.6292057 51.27400875 20.6292057 51.27400875 20.63491821 54.43870544 C20.64901733 55.64020233 20.66311646 56.84169922 20.67764282 58.0796051 C20.66752167 59.39452438 20.65740051 60.70944366 20.64697266 62.06420898 C20.65374925 63.46554704 20.66265263 64.86687619 20.67352295 66.26818848 C20.69632081 70.07210704 20.68747797 73.8753477 20.67162752 77.67927814 C20.65896829 81.66080219 20.67070891 85.64226822 20.67855835 89.62379456 C20.68765595 96.31123269 20.67566539 102.99839479 20.65185547 109.68579102 C20.62465484 117.41471481 20.63344975 125.14297892 20.6609875 132.87188667 C20.68368787 139.5089906 20.68687385 146.14589607 20.67379415 152.78302628 C20.66600321 156.74649207 20.66494769 160.70964797 20.68147659 164.6730938 C20.69593552 168.40061894 20.68587513 172.12729514 20.65700531 175.8547287 C20.64725431 177.87309608 20.66208344 179.89153537 20.67764282 181.90986633 C20.56216799 191.77347892 20.56216799 191.77347892 17.72909546 194.89491272 C13.71212174 197.34944551 11.60727754 196.95294725 7 196.5625 C7.00888245 197.18002136 7.01776489 197.79754272 7.0269165 198.43377686 C7.11536919 204.85744984 7.17572569 211.28095002 7.21972656 217.70507812 C7.23984936 220.10293606 7.26715059 222.50074488 7.30175781 224.8984375 C7.3502449 228.34387323 7.37296241 231.78866052 7.390625 235.234375 C7.41127014 236.30741882 7.43191528 237.38046265 7.45318604 238.48602295 C7.45348816 239.48675842 7.45379028 240.4874939 7.45410156 241.51855469 C7.46298401 242.39791687 7.47186646 243.27727905 7.48101807 244.18328857 C6.83382698 247.38442492 5.53811919 248.5695315 3 250.5625 C-0.5 251.125 -0.5 251.125 -4 250.5625 C-6.60705833 248.38269989 -7.84639619 246.61080373 -8.34387207 243.21566772 C-8.46394903 240.25393549 -8.44911795 237.31907836 -8.390625 234.35546875 C-8.38496521 233.27493729 -8.37930542 232.19440582 -8.37347412 231.08113098 C-8.35112043 227.63696611 -8.30092391 224.19384935 -8.25 220.75 C-8.22993379 218.41212442 -8.21168323 216.0742325 -8.1953125 213.73632812 C-8.15125895 208.01136239 -8.08435621 202.28700608 -8 196.5625 C-9.051875 196.665625 -10.10375 196.76875 -11.1875 196.875 C-14.8992002 196.57076228 -16.47227557 196.23509299 -18.98079109 193.50065994 C-21.42957492 188.84397504 -20.65712012 183.03318664 -20.59936523 177.91552734 C-20.60122996 176.5108039 -20.60526805 175.10608191 -20.61131287 173.70137024 C-20.62128059 169.8934506 -20.60013104 166.08627629 -20.57283282 162.27846479 C-20.54899108 158.29337478 -20.5519477 154.30829926 -20.55152893 150.32315063 C-20.54690249 143.63327422 -20.52326916 136.94368263 -20.48706055 130.25390625 C-20.44529385 122.51657646 -20.42774363 114.77950298 -20.4244408 107.04206693 C-20.42084317 98.80588278 -20.40197399 90.56979099 -20.37732053 82.33364534 C-20.37108881 79.95905679 -20.3674545 77.58447527 -20.36428642 75.20988083 C-20.35839121 71.48175464 -20.34209328 67.75381205 -20.31768227 64.02576256 C-20.306677 62.00226175 -20.3054024 59.97871541 -20.30438232 57.95518494 C-20.2944072 56.75506271 -20.28443207 55.55494049 -20.27415466 54.31845093 C-20.26950416 53.27317923 -20.26485365 52.22790752 -20.26006222 51.15096092 C-20 48.5625 -20 48.5625 -18 45.5625 C-14.52674819 44.4047494 -11.63932552 44.49383348 -8 44.5625 C-8.02094727 43.37172852 -8.04189453 42.18095703 -8.06347656 40.95410156 C-8.13590962 36.53365111 -8.18181172 32.11325304 -8.21972656 27.69238281 C-8.23983452 25.77953265 -8.26712507 23.86674389 -8.30175781 21.95410156 C-8.35031249 19.20362189 -8.37297658 16.45395523 -8.390625 13.703125 C-8.41127014 12.84881897 -8.43191528 11.99451294 -8.45318604 11.11431885 C-8.45542925 5.17053903 -8.45542925 5.17053903 -6.10058594 2.02661133 C-3.84570044 0.45495299 -2.7227105 -0.00531779 0 0 Z " fill="#6CF4C2" transform="translate(276,-0.5625)"/>
<path d="M0 0 C2.56225681 3.84338521 2.26647551 6.96619106 2.22705078 11.41870117 C2.22734283 12.27745346 2.22763489 13.13620575 2.22793579 14.02098083 C2.22654155 16.86174597 2.2109759 19.70224939 2.1953125 22.54296875 C2.19158271 24.51166134 2.18873558 26.48035579 2.18673706 28.4490509 C2.17909796 33.63256956 2.15944707 38.81597628 2.1373291 43.99945068 C2.11687665 49.28802984 2.10773663 54.57662707 2.09765625 59.86523438 C2.07620147 70.24353879 2.04206215 80.62176009 2 91 C3.2375 90.938125 4.475 90.87625 5.75 90.8125 C8.37201101 90.83993236 9.99129087 90.99667187 12.46864319 91.94337463 C14.95165463 95.27808036 14.5464991 98.91296731 14.50170898 102.90600586 C14.50711197 103.8168544 14.51251495 104.72770294 14.51808167 105.66615295 C14.53060798 108.68271189 14.51405063 111.69832358 14.49609375 114.71484375 C14.49624866 116.80847728 14.49773632 118.90211109 14.50050354 120.9957428 C14.50188933 125.38653215 14.48930029 129.77699556 14.46655273 134.16772461 C14.43818527 139.79820947 14.44089837 145.42815183 14.45364285 151.05867672 C14.46059603 155.38323098 14.45281453 159.70765972 14.44038582 164.03219795 C14.43586659 166.10824668 14.43553863 168.18430885 14.43945122 170.26035881 C14.44235941 173.16205356 14.42587433 176.06299944 14.40405273 178.96459961 C14.40855438 179.82447479 14.41305603 180.68434998 14.41769409 181.57028198 C14.37461653 185.01528256 14.28097447 187.41877992 12.76771545 190.54908752 C10.47748465 192.42887221 9.23891134 192.41964703 6.3125 192.25 C5.50425781 192.21390625 4.69601562 192.1778125 3.86328125 192.140625 C3.24839844 192.09421875 2.63351562 192.0478125 2 192 C2.01110306 192.86586227 2.02220612 193.73172455 2.03364563 194.62382507 C2.13389205 202.78964071 2.20998737 210.95524926 2.25906086 219.12153912 C2.28513862 223.31981881 2.32050223 227.51758945 2.37719727 231.71557617 C2.43158381 235.76805932 2.46143425 239.82005333 2.47438622 243.87287331 C2.48361434 245.41787223 2.50163536 246.96284483 2.52865028 248.50763512 C2.56503239 250.67453914 2.56994204 252.83943076 2.56762695 255.0065918 C2.57873001 256.23903122 2.58983307 257.47147064 2.60127258 258.74125671 C1.82967857 262.92309848 0.29452123 264.39747227 -3 267 C-6.0625 267.5625 -6.0625 267.5625 -9 267 C-12.022028 264.75729253 -12.9111951 263.58643233 -13.48101807 259.82354736 C-13.47213562 258.57112244 -13.46325317 257.31869751 -13.45410156 256.02832031 C-13.45468567 255.3352327 -13.45526978 254.64214508 -13.45587158 253.92805481 C-13.45309169 251.64422985 -13.42200707 249.36172103 -13.390625 247.078125 C-13.3831622 245.49201165 -13.37746945 243.90588906 -13.37347412 242.31976318 C-13.35822065 238.15039497 -13.31894187 233.98158644 -13.2746582 229.81243896 C-13.23369898 225.55602591 -13.21546175 221.29952219 -13.1953125 217.04296875 C-13.15244683 208.695056 -13.0841996 200.34759767 -13 192 C-13.60328125 192.04640625 -14.2065625 192.0928125 -14.828125 192.140625 C-15.62734375 192.17671875 -16.4265625 192.2128125 -17.25 192.25 C-18.03890625 192.29640625 -18.8278125 192.3428125 -19.640625 192.390625 C-22 192 -22 192 -24.26452637 190.5423584 C-26.82525515 186.79105374 -26.55999548 183.51967807 -26.51757812 179.07226562 C-26.5245874 178.17102463 -26.53159668 177.26978363 -26.53881836 176.3412323 C-26.55642144 173.36259131 -26.54476731 170.38490063 -26.53125 167.40625 C-26.53394425 165.33646462 -26.5378261 163.26668046 -26.54284668 161.19689941 C-26.54874487 156.85917103 -26.54016829 152.52177212 -26.52148438 148.18408203 C-26.49869483 142.6219078 -26.51181617 137.06050558 -26.53577423 131.49835968 C-26.55022342 127.22440771 -26.54563021 122.95063899 -26.53526306 118.67668152 C-26.53259335 116.62574675 -26.53587408 114.57479539 -26.54518127 112.52388 C-26.55533224 109.65804938 -26.539866 106.7934716 -26.51757812 103.92773438 C-26.52567505 103.07878098 -26.53377197 102.22982758 -26.54211426 101.35514832 C-26.48816376 97.61360917 -26.41293446 95.60492269 -24.26452637 92.4576416 C-21.64751808 90.77311268 -20.32702368 90.56899861 -17.25 90.75 C-16.45078125 90.78609375 -15.6515625 90.8221875 -14.828125 90.859375 C-14.22484375 90.90578125 -13.6215625 90.9521875 -13 91 C-13.03029297 89.78570312 -13.06058594 88.57140625 -13.09179688 87.3203125 C-13.44680892 72.88112945 -13.74260144 58.44124045 -14 44 C-14.01887268 42.98369507 -14.03774536 41.96739014 -14.05718994 40.92028809 C-14.16031397 35.27277825 -14.24140797 29.62581716 -14.28710938 23.97753906 C-14.30397058 22.24926559 -14.32784146 20.52104562 -14.35888672 18.79296875 C-14.40045617 16.39034804 -14.4164586 13.98887005 -14.42578125 11.5859375 C-14.44324905 10.88592621 -14.46071686 10.18591492 -14.47871399 9.46469116 C-14.46316535 5.95949136 -14.05016596 4.0794211 -12.16088867 1.08837891 C-7.99555002 -2.9371896 -5.1188667 -1.86140607 0 0 Z " fill="#EA566A" transform="translate(370,35)"/>
<path d="M0 0 C2.20214844 1.37988281 2.20214844 1.37988281 4 4 C4.55744549 7.41422975 4.46456157 10.78316025 4.390625 14.234375 C4.38496521 15.22753723 4.37930542 16.22069946 4.37347412 17.24395752 C4.35110026 20.41313059 4.30090106 23.5811692 4.25 26.75 C4.22993635 28.89972324 4.21168534 31.04946423 4.1953125 33.19921875 C4.15123239 38.46653229 4.08431033 43.73318509 4 49 C4.92232422 48.94779297 4.92232422 48.94779297 5.86328125 48.89453125 C6.67152344 48.86746094 7.47976562 48.84039062 8.3125 48.8125 C9.51326172 48.76029297 9.51326172 48.76029297 10.73828125 48.70703125 C13.56892473 49.07369491 14.24026152 49.79991841 16 52 C16.29646623 55.07177296 16.40956367 57.94073817 16.38818359 61.01367188 C16.39344055 61.93588028 16.39869751 62.85808868 16.40411377 63.8082428 C16.41733636 66.86191661 16.40856761 69.91507073 16.3984375 72.96875 C16.40045758 75.08719991 16.40336847 77.20564915 16.40713501 79.32409668 C16.41156143 83.76609918 16.405117 88.20792084 16.39111328 92.64990234 C16.37402133 98.34996689 16.3838608 104.04960769 16.40183067 109.74965668 C16.41265986 114.12476812 16.40922613 118.49977874 16.4014473 122.87489319 C16.3994429 124.97689361 16.40191293 127.07890313 16.40888596 129.18089294 C16.41648612 132.11628545 16.40491622 135.0509872 16.38818359 137.98632812 C16.39729263 139.29555992 16.39729263 139.29555992 16.40658569 140.63124084 C16.3437162 146.57027496 16.3437162 146.57027496 14.61754799 148.72838593 C12.43586572 150.44348675 11.04988214 150.30651661 8.3125 150.1875 C7.10013672 150.14689453 7.10013672 150.14689453 5.86328125 150.10546875 C5.24839844 150.07066406 4.63351563 150.03585938 4 150 C4.00444122 150.94325134 4.00888245 151.88650269 4.01345825 152.8583374 C4.05399369 161.74562732 4.08397929 170.63289849 4.10362434 179.52025986 C4.11406356 184.08939211 4.1282253 188.65844975 4.15087891 193.22753906 C4.17260233 197.63658634 4.18456759 202.04556184 4.18975449 206.45465851 C4.19345114 208.13718038 4.20066972 209.8196983 4.21146011 211.50218964 C4.22596842 213.85799158 4.22797823 216.21349653 4.22705078 218.56933594 C4.23424133 219.26561096 4.24143188 219.96188599 4.24884033 220.67926025 C4.23354143 224.26828139 4.08182503 227.00494933 2 230 C-1.09173752 231.54586876 -3.59429552 231.29359521 -7 231 C-9.19818115 229.45062256 -9.19818115 229.45062256 -11 227 C-11.37447079 224.34981499 -11.50799176 222.1217251 -11.45410156 219.47753906 C-11.45468567 218.72593002 -11.45526978 217.97432098 -11.45587158 217.19993591 C-11.45308998 214.72135865 -11.42199617 212.24399155 -11.390625 209.765625 C-11.38316284 208.04498959 -11.37746979 206.32434568 -11.37347412 204.60369873 C-11.35821575 200.07924861 -11.31893242 195.55531372 -11.2746582 191.03106689 C-11.23370975 186.41270924 -11.21546403 181.79426819 -11.1953125 177.17578125 C-11.15243818 168.11696137 -11.08418454 159.05852356 -11 150 C-11.61488281 150.03480469 -12.22976562 150.06960937 -12.86328125 150.10546875 C-13.67152344 150.13253906 -14.47976562 150.15960938 -15.3125 150.1875 C-16.11300781 150.22230469 -16.91351563 150.25710937 -17.73828125 150.29296875 C-20.56892473 149.92630509 -21.24026152 149.20008159 -23 147 C-23.29646623 143.92822704 -23.40956367 141.05926183 -23.38818359 137.98632812 C-23.39606903 136.60301552 -23.39606903 136.60301552 -23.40411377 135.1917572 C-23.41733636 132.13808339 -23.40856761 129.08492927 -23.3984375 126.03125 C-23.40045758 123.91280009 -23.40336847 121.79435085 -23.40713501 119.67590332 C-23.41156143 115.23390082 -23.405117 110.79207916 -23.39111328 106.35009766 C-23.37402133 100.65003311 -23.3838608 94.95039231 -23.40183067 89.25034332 C-23.41265986 84.87523188 -23.40922613 80.50022126 -23.4014473 76.12510681 C-23.3994429 74.02310639 -23.40191293 71.92109687 -23.40888596 69.81910706 C-23.41648612 66.88371455 -23.40491622 63.9490128 -23.38818359 61.01367188 C-23.39425629 60.14085068 -23.40032898 59.26802948 -23.40658569 58.36875916 C-23.3437162 52.42972504 -23.3437162 52.42972504 -21.61754799 50.27161407 C-19.43586572 48.55651325 -18.04988214 48.69348339 -15.3125 48.8125 C-14.10013672 48.85310547 -14.10013672 48.85310547 -12.86328125 48.89453125 C-12.24839844 48.92933594 -11.63351563 48.96414062 -11 49 C-11.04600342 47.75911621 -11.09200684 46.51823242 -11.1394043 45.23974609 C-11.30637045 40.62203788 -11.4523242 36.00386029 -11.59204102 31.38525391 C-11.65534569 29.38897106 -11.72429608 27.39285873 -11.79907227 25.39697266 C-11.9057645 22.52272673 -11.99192488 19.64847293 -12.07421875 16.7734375 C-12.11157639 15.88570648 -12.14893402 14.99797546 -12.18742371 14.08334351 C-12.31132429 8.9405293 -11.9331722 5.43798633 -9 1 C-5.90826248 -0.54586876 -3.40570448 -0.29359521 0 0 Z " fill="#EA5569" transform="translate(191,60)"/>
<path d="M0 0 C3.41760058 0.99707349 4.30486541 2.50531513 6.03515625 5.59375 C6.51309925 9.21304488 6.41236054 12.76380398 6.28515625 16.40625 C6.26710938 17.38529297 6.2490625 18.36433594 6.23046875 19.37304688 C6.18348512 21.78095771 6.11781319 24.18684335 6.03515625 26.59375 C7.08703125 26.51125 8.13890625 26.42875 9.22265625 26.34375 C13.77515768 26.64227468 15.00084039 27.23382802 18.03515625 30.59375 C18.77478998 33.59650544 18.70821428 36.53347323 18.66625977 39.61328125 C18.67341507 40.52427582 18.68057037 41.43527039 18.6879425 42.37387085 C18.70485122 45.38517402 18.68541406 48.39499302 18.6640625 51.40625 C18.664891 53.49845503 18.66734965 55.59066 18.67137146 57.68286133 C18.67423096 62.06774487 18.65951311 66.45211804 18.63208008 70.83691406 C18.59799737 76.45964537 18.60401425 82.0814639 18.62274265 87.70423889 C18.63330744 92.02453224 18.6243795 96.34461291 18.60935783 100.66488647 C18.60417175 102.73814258 18.60466298 104.81142087 18.61090279 106.88467407 C18.61634859 109.78167535 18.59599998 112.67736669 18.56860352 115.57421875 C18.57512939 116.43252289 18.58165527 117.29082703 18.58837891 118.17514038 C18.52751284 121.95712237 18.46399287 123.97559806 16.2674408 127.1418457 C12.70122425 129.46135517 10.20763187 128.87191504 6.03515625 128.59375 C6.04625931 129.20905075 6.05736237 129.8243515 6.06880188 130.45829773 C6.17947122 136.86584956 6.25485505 143.27312968 6.30981445 149.68139648 C6.3349494 152.07245919 6.36906258 154.46344514 6.41235352 156.85424805 C6.47304686 160.29234764 6.50137697 163.72943096 6.5234375 167.16796875 C6.54924393 168.23585129 6.57505035 169.30373383 6.60163879 170.40397644 C6.60443767 177.82007153 6.60443767 177.82007153 3.69604492 181.77270508 C1.03515625 183.59375 1.03515625 183.59375 -2.02734375 184.15625 C-5.65373681 183.46183431 -6.66944851 182.43791368 -8.96484375 179.59375 C-9.44586182 177.17657471 -9.44586182 177.17657471 -9.41894531 174.45800781 C-9.41864319 173.43725159 -9.41834106 172.41649536 -9.41802979 171.36480713 C-9.39738464 170.26988953 -9.3767395 169.17497192 -9.35546875 168.046875 C-9.34980896 166.9205365 -9.34414917 165.794198 -9.33831787 164.63372803 C-9.3159292 161.03663618 -9.26572588 157.44054074 -9.21484375 153.84375 C-9.19478208 151.4049623 -9.17653073 148.96615899 -9.16015625 146.52734375 C-9.11605619 140.54913926 -9.04911838 134.57151581 -8.96484375 128.59375 C-9.568125 128.64015625 -10.17140625 128.6865625 -10.79296875 128.734375 C-11.5921875 128.77046875 -12.39140625 128.8065625 -13.21484375 128.84375 C-14.00375 128.89015625 -14.79265625 128.9365625 -15.60546875 128.984375 C-17.96484375 128.59375 -17.96484375 128.59375 -20.23036194 127.1361084 C-22.79071412 123.38321066 -22.51720577 120.11390579 -22.46655273 115.66601562 C-22.47195572 114.76477463 -22.4773587 113.86353363 -22.48292542 112.9349823 C-22.49543129 109.95632066 -22.47890921 106.97862207 -22.4609375 104 C-22.46109244 101.93021596 -22.46258067 99.86043162 -22.46534729 97.79064941 C-22.46673212 93.45291314 -22.45415901 89.11550718 -22.43139648 84.77783203 C-22.40301179 79.21575514 -22.40574815 73.65422719 -22.4184866 68.09210968 C-22.42543932 63.81816921 -22.4176591 59.54435577 -22.40522957 55.27043152 C-22.40071113 53.21950263 -22.40038169 51.16856013 -22.40429497 49.11763 C-22.40720316 46.25196345 -22.39071876 43.38705516 -22.36889648 40.52148438 C-22.37339813 39.67253098 -22.37789978 38.82357758 -22.38253784 37.94889832 C-22.33814349 34.44278241 -22.2833572 32.18268721 -20.59461975 29.06018066 C-18.30658501 27.00146566 -16.80206323 27.18662172 -13.77734375 27.34375 C-12.87628906 27.37984375 -11.97523437 27.4159375 -11.046875 27.453125 C-10.01626953 27.52273437 -10.01626953 27.52273437 -8.96484375 27.59375 C-8.9805542 26.8824292 -8.99626465 26.1711084 -9.01245117 25.43823242 C-9.0747629 22.21931896 -9.11382242 19.00053232 -9.15234375 15.78125 C-9.17748047 14.66169922 -9.20261719 13.54214844 -9.22851562 12.38867188 C-9.24301758 10.77895508 -9.24301758 10.77895508 -9.2578125 9.13671875 C-9.27352295 8.14696045 -9.2892334 7.15720215 -9.30541992 6.13745117 C-8.96484375 3.59375 -8.96484375 3.59375 -7.69262695 1.77856445 C-5.27213281 0.11872864 -2.87118896 0.13277174 0 0 Z " fill="#6CF4C2" transform="translate(100.96484375,122.40625)"/>
<path d="M0 0 C2 1.625 2 1.625 3 4 C3 7.5 3 7.5 2 11 C-1.62846109 14.38684285 -5.77364557 16.64288204 -10.15234375 18.90625 C-11.18390846 19.44804146 -11.18390846 19.44804146 -12.23631287 20.0007782 C-13.7057997 20.77196656 -15.17652418 21.54080046 -16.64837646 22.3074646 C-20.52253031 24.32573296 -24.38752533 26.3614244 -28.25390625 28.39453125 C-29.01799805 28.79569656 -29.78208984 29.19686188 -30.56933594 29.61018372 C-36.53605892 32.74577318 -42.46753616 35.94153505 -48.375 39.1875 C-56.51481843 43.65482343 -64.6866188 48.05997824 -72.875 52.4375 C-82.61983226 57.64801697 -92.34909506 62.88616321 -102.06201172 68.15600586 C-110.44635399 72.70395217 -118.83893585 77.23654364 -127.24780273 81.73901367 C-132.77128633 84.70071281 -138.26825877 87.70000228 -143.73046875 90.7734375 C-144.81521484 91.37800781 -145.89996094 91.98257813 -147.01757812 92.60546875 C-149.07647843 93.75479942 -151.12900872 94.91564399 -153.17382812 96.08984375 C-162.39520607 101.21069246 -162.39520607 101.21069246 -168 100 C-172.64855993 96.09554408 -174.23398817 89.74646596 -176.25 84.1875 C-176.61351562 83.20845703 -176.97703125 82.22941406 -177.3515625 81.22070312 C-178.24278079 78.81675904 -179.12526419 76.40997992 -180 74 C-183.63654353 74.61793775 -186.76918682 75.61870108 -190.15283203 77.07861328 C-191.16181549 77.51110382 -192.17079895 77.94359436 -193.21035767 78.38919067 C-194.29851776 78.86146088 -195.38667786 79.33373108 -196.5078125 79.8203125 C-197.65019379 80.31167694 -198.79257507 80.80304138 -199.96957397 81.30929565 C-202.41953225 82.3637744 -204.86867293 83.41995398 -207.31665039 84.47900391 C-211.1321264 86.12926426 -214.95153579 87.77028129 -218.77148438 89.41015625 C-229.07718548 93.83708735 -239.37889304 98.2724173 -249.64205933 102.79733276 C-252.86457768 104.21781037 -256.09104209 105.62918603 -259.31781006 107.03997803 C-261.44751308 107.97690916 -263.569618 108.92969564 -265.69189453 109.88330078 C-277.25140063 114.99099578 -277.25140063 114.99099578 -284 114 C-286.90460477 111.73077752 -286.97856495 110.15004537 -287.5 106.5 C-287 103 -287 103 -284.80004883 100.93066406 C-282.1244787 99.08582941 -279.70383788 97.82591413 -276.69921875 96.609375 C-275.60424072 96.15900879 -274.5092627 95.70864258 -273.38110352 95.24462891 C-272.16221436 94.75140137 -270.9433252 94.25817383 -269.6875 93.75 C-266.91706544 92.61209208 -264.14987196 91.46639965 -261.3828125 90.3203125 C-260.22172722 89.84040359 -260.22172722 89.84040359 -259.03718567 89.35079956 C-247.29100176 84.48215417 -235.6166705 79.44245307 -223.93246841 74.42738342 C-222.08046002 73.63270645 -220.22819432 72.83863266 -218.37582397 72.0447998 C-215.98267401 71.0191785 -213.58970058 69.99314516 -211.19691467 68.9666748 C-208.90631031 67.9842327 -206.61525373 67.00284421 -204.32371521 66.02258301 C-199.51750385 63.96238482 -194.72140309 61.8893983 -189.96435547 59.71777344 C-189.22736923 59.38393646 -188.490383 59.05009949 -187.73106384 58.70614624 C-185.86123444 57.85436031 -183.99753375 56.98915342 -182.13452148 56.12255859 C-178.83197708 54.93982636 -176.47830898 54.66803222 -173 55 C-168.21104381 58.11282152 -166.71265305 63.94869844 -164.75 69.0625 C-164.38648438 69.97322266 -164.02296875 70.88394531 -163.6484375 71.82226562 C-161 78.57777256 -161 78.57777256 -161 82 C-138.02043468 69.83930938 -138.02043468 69.83930938 -115.16064453 57.45556641 C-107.8802473 53.46858564 -100.56943156 49.53978122 -93.25 45.625 C-92.36341705 45.15077103 -92.36341705 45.15077103 -91.45892334 44.66696167 C-90.86774719 44.3507486 -90.27657104 44.03453552 -89.66748047 43.70874023 C-88.47362838 43.07015802 -87.27978073 42.43156753 -86.0859375 41.79296875 C-85.49457001 41.47666 -84.90320251 41.16035126 -84.29391479 40.8344574 C-74.93294664 35.82587244 -65.58988157 30.78398669 -56.24414062 25.74707031 C-52.92953248 23.96205106 -49.61340074 22.17989111 -46.296875 20.3984375 C-45.19077881 19.80369629 -44.08468262 19.20895508 -42.94506836 18.59619141 C-40.754332 17.41922841 -38.56245947 16.24437747 -36.36938477 15.07177734 C-31.25882085 12.33150555 -26.18396474 9.55087732 -21.16796875 6.640625 C-19.80647705 5.85981567 -19.80647705 5.85981567 -18.41748047 5.06323242 C-16.73667227 4.09491677 -15.06432121 3.11169764 -13.40283203 2.1105957 C-8.55870918 -0.66547946 -5.62597297 -1.62273935 0 0 Z " fill="#E33B52" transform="translate(332,242)"/>
<path d="M0 0 C1.5996039 -0.00935994 1.5996039 -0.00935994 3.23152304 -0.01890898 C6.81688419 -0.03490657 10.40157187 -0.02220776 13.98693848 -0.00964355 C16.55243833 -0.01506164 19.11793508 -0.02218252 21.6834259 -0.03088379 C27.9354566 -0.04725802 34.18723651 -0.04482247 40.43927062 -0.03323323 C45.51972571 -0.02420504 50.60012696 -0.02297222 55.68058777 -0.02732849 C56.76459642 -0.02824789 56.76459642 -0.02824789 57.87050423 -0.02918586 C59.33853219 -0.03046474 60.80656012 -0.0317616 62.27458805 -0.03307623 C76.04505372 -0.04448642 89.81541293 -0.03136147 103.58586115 -0.00987476 C115.40531655 0.00799665 127.22461482 0.00489267 139.04406738 -0.0135498 C152.76475631 -0.0349488 166.48535189 -0.04338775 180.20605516 -0.03110075 C181.66872691 -0.02982653 183.13139866 -0.02856905 184.59407043 -0.02732849 C185.31376042 -0.02671139 186.0334504 -0.02609429 186.77494916 -0.02545848 C191.85016689 -0.02200266 196.92532549 -0.02783891 202.00053406 -0.0372467 C208.8295734 -0.04962708 215.65826958 -0.04083139 222.48729515 -0.01766968 C224.99797763 -0.01236736 227.50868502 -0.01392218 230.01935768 -0.02272034 C233.43813267 -0.03359882 236.85594508 -0.0200043 240.2746582 0 C241.27581586 -0.00892289 242.27697352 -0.01784577 243.3084693 -0.02703905 C249.97500138 0.04898728 249.97500138 0.04898728 253.25374603 2.32093048 C255.29885028 5.55358882 255.1715718 7.76823568 254.6373291 11.50793457 C253.25374603 13.69493866 253.25374603 13.69493866 250.6373291 15.50793457 C247.18794908 16.1129678 243.76893108 16.04701209 240.2746582 16.01586914 C238.6750543 16.02522908 238.6750543 16.02522908 237.04313517 16.03477812 C233.45777401 16.05077571 229.87308633 16.0380769 226.28771973 16.0255127 C223.72221987 16.03093078 221.15672312 16.03805166 218.5912323 16.04675293 C212.33920161 16.06312716 206.0874217 16.06069161 199.83538759 16.04910237 C194.75493249 16.04007419 189.67453124 16.03884136 184.59407043 16.04319763 C183.51006179 16.04411703 183.51006179 16.04411703 182.40415397 16.045055 C180.93612602 16.04633388 179.46809808 16.04763074 178.00007015 16.04894537 C164.22960448 16.06035556 150.45924527 16.04723061 136.68879706 16.0257439 C124.86934166 16.00787249 113.05004339 16.01097647 101.23059082 16.02941895 C87.5099019 16.05081794 73.78930632 16.05925689 60.06860304 16.04696989 C58.6059313 16.04569567 57.14325954 16.04443819 55.68058777 16.04319763 C54.96089779 16.04258053 54.24120781 16.04196343 53.49970904 16.04132763 C48.42449131 16.0378718 43.34933272 16.04370806 38.27412415 16.05311584 C31.4450848 16.06549622 24.61638862 16.05670054 17.78736305 16.03353882 C15.27668058 16.0282365 12.76597318 16.02979133 10.25530052 16.03858948 C6.83652553 16.04946796 3.41871312 16.03587344 0 16.01586914 C-1.00115766 16.02479203 -2.00231532 16.03371491 -3.03381109 16.04290819 C-9.70034318 15.96688186 -9.70034318 15.96688186 -12.97908783 13.69493866 C-15.02419207 10.46228032 -14.8969136 8.24763346 -14.3626709 4.50793457 C-10.92183432 -0.93093197 -5.78487089 -0.05155806 0 0 Z " fill="#C9BEC8" transform="translate(135.3626708984375,496.4920654296875)"/>
<path d="M0 0 C0.7811618 -0.00029205 1.56232361 -0.00058411 2.36715698 -0.00088501 C4.93189869 0.00050086 7.49634462 0.0160268 10.06103516 0.03173828 C11.84607789 0.03547106 13.63112269 0.03831678 15.41616821 0.04031372 C20.10151889 0.04792935 24.78674446 0.06755999 29.4720459 0.08972168 C34.25820219 0.11022479 39.0443788 0.11932497 43.83056641 0.12939453 C53.21214047 0.15080791 62.59358906 0.18597311 71.97509766 0.22705078 C71.97509766 8.14705078 71.97509766 16.06705078 71.97509766 24.22705078 C40.29509766 24.22705078 8.61509766 24.22705078 -24.02490234 24.22705078 C-24.02490234 11.65401707 -24.02490234 11.65401707 -18.63427734 5.68798828 C-13.05622105 0.66773762 -7.2331559 -0.07159158 0 0 Z " fill="#C9BFC8" transform="translate(270.02490234375,447.77294921875)"/>
<path d="M0 0 C1.69534254 0.01306557 3.39071161 0.02302522 5.08609009 0.03001404 C9.53539779 0.05666494 13.9830905 0.12535922 18.4317627 0.20294189 C22.97642165 0.27471677 27.52134315 0.30655578 32.06640625 0.34179688 C40.97466559 0.41673508 49.88172944 0.53611122 58.7890625 0.68359375 C56.66915918 4.31078331 54.47256851 7.29683067 51.6015625 10.37109375 C48.18251235 14.00883796 48.18251235 14.00883796 45.4004364 18.12858582 C42.55452151 22.6830503 40.44321753 25.28853035 35.09529114 26.56578064 C30.45070173 26.97168685 25.81759854 26.80930534 21.1640625 26.66015625 C19.44917948 26.64148222 17.73424276 26.62725835 16.01928711 26.61727905 C11.526491 26.57927182 7.03697834 26.48120979 2.54547119 26.37023926 C-2.04605695 26.26755235 -6.63812095 26.22218822 -11.23046875 26.171875 C-20.22539345 26.0649391 -29.21789146 25.8944938 -38.2109375 25.68359375 C-37.26098876 24.40607201 -36.30952207 23.1296789 -35.35742188 21.85375977 C-34.82773804 21.14284683 -34.2980542 20.4319339 -33.75231934 19.69947815 C-31.85773597 17.22166184 -29.82421427 14.91430532 -27.7109375 12.62109375 C-24.69222599 9.49260904 -24.69222599 9.49260904 -22.27462769 5.92346191 C-17.45294848 -1.97747716 -8.12710302 -0.18360422 0 0 Z " fill="#E5E1E5" transform="translate(186.2109375,471.31640625)"/>
<path d="M0 0 C4.15498647 1.16151009 8.15764501 2.6528962 12.1875 4.1875 C13.80688477 4.76854492 13.80688477 4.76854492 15.45898438 5.36132812 C25.78153691 9.23789192 25.78153691 9.23789192 28 14 C27.3206524 20.27961055 24.96492683 25.84635567 22.6875 31.6875 C22.29626953 32.73228516 21.90503906 33.77707031 21.50195312 34.85351562 C21.11330078 35.85447266 20.72464844 36.85542969 20.32421875 37.88671875 C19.97447998 38.79639404 19.62474121 39.70606934 19.2644043 40.64331055 C17.83664754 43.3044683 16.60283057 44.4955546 14 46 C10.11795363 46 8.49889836 45.43493704 5.5625 42.875 C3.51820683 39.11350057 4.01412912 37.09515596 5 33 C5.33 32.01 5.66 31.02 6 30 C2.10305103 32.07967138 -1.79299447 34.16102285 -5.68823242 36.24389648 C-7.01188196 36.95138385 -8.33577194 37.65842157 -9.65991211 38.36499023 C-11.56949115 39.38405479 -13.47818312 40.40476419 -15.38671875 41.42578125 C-17.10701294 42.34484253 -17.10701294 42.34484253 -18.86206055 43.2824707 C-20.85973948 44.37588635 -22.83600216 45.51010301 -24.7800293 46.69628906 C-28.41704735 48.83218221 -30.83938959 48.46974634 -35 48 C-37.90460477 45.73077752 -37.97856495 44.15004537 -38.5 40.5 C-38 37 -38 37 -35.90722656 35.0222168 C-32.71729097 32.80335246 -29.42517819 30.93384724 -25.984375 29.14453125 C-25.32794006 28.79742599 -24.67150513 28.45032074 -23.99517822 28.09269714 C-21.91604032 26.99430131 -19.83326001 25.90305432 -17.75 24.8125 C-15.653121 23.7100296 -13.55704765 22.60606726 -11.4619751 21.50016785 C-10.16218463 20.81455956 -8.86123048 20.13115205 -7.559021 19.45014954 C-4.58889779 18.00051103 -4.58889779 18.00051103 -2 16 C-2.928125 15.5875 -3.85625 15.175 -4.8125 14.75 C-7.9384333 13.03380133 -9.35432921 12.10848926 -11 9 C-11.57662998 5.70497154 -11.31878245 4.47179802 -9.4375 1.6875 C-6.20556259 -0.54999513 -3.77029178 -0.53720174 0 0 Z " fill="#E33B52" transform="translate(445,161)"/>
<path d="M0 0 C2.56225681 3.84338521 2.26647551 6.96619106 2.22705078 11.41870117 C2.22734283 12.27745346 2.22763489 13.13620575 2.22793579 14.02098083 C2.22654155 16.86174597 2.2109759 19.70224939 2.1953125 22.54296875 C2.19158271 24.51166134 2.18873558 26.48035579 2.18673706 28.4490509 C2.17909796 33.63256956 2.15944707 38.81597628 2.1373291 43.99945068 C2.11687665 49.28802984 2.10773663 54.57662707 2.09765625 59.86523438 C2.07620147 70.24353879 2.04206215 80.62176009 2 91 C-2.95 91 -7.9 91 -13 91 C-13.39081017 75.33433265 -13.72073494 59.66805138 -14 44 C-14.01887268 42.98369507 -14.03774536 41.96739014 -14.05718994 40.92028809 C-14.16031397 35.27277825 -14.24140797 29.62581716 -14.28710938 23.97753906 C-14.30397058 22.24926559 -14.32784146 20.52104562 -14.35888672 18.79296875 C-14.40045617 16.39034804 -14.4164586 13.98887005 -14.42578125 11.5859375 C-14.44324905 10.88592621 -14.46071686 10.18591492 -14.47871399 9.46469116 C-14.46316535 5.95949136 -14.05016596 4.0794211 -12.16088867 1.08837891 C-7.99555002 -2.9371896 -5.1188667 -1.86140607 0 0 Z " fill="#EF7282" transform="translate(370,35)"/>
<path d="M0 0 C4.95 0 9.9 0 15 0 C15.04517625 9.84008282 15.08187317 19.68009682 15.10362434 29.52025986 C15.11406356 34.08939211 15.1282253 38.65844975 15.15087891 43.22753906 C15.17260233 47.63658634 15.18456759 52.04556184 15.18975449 56.45465851 C15.19345114 58.13718038 15.20066972 59.8196983 15.21146011 61.50218964 C15.22596842 63.85799158 15.22797823 66.21349653 15.22705078 68.56933594 C15.23424133 69.26561096 15.24143188 69.96188599 15.24884033 70.67926025 C15.23354143 74.26828139 15.08182503 77.00494933 13 80 C9.90826248 81.54586876 7.40570448 81.29359521 4 81 C1.80181885 79.45062256 1.80181885 79.45062256 0 77 C-0.37447079 74.34981499 -0.50799176 72.1217251 -0.45410156 69.47753906 C-0.45468567 68.72593002 -0.45526978 67.97432098 -0.45587158 67.19993591 C-0.45308998 64.72135865 -0.42199617 62.24399155 -0.390625 59.765625 C-0.38316284 58.04498959 -0.37746979 56.32434568 -0.37347412 54.60369873 C-0.35821575 50.07924861 -0.31893242 45.55531372 -0.2746582 41.03106689 C-0.23370975 36.41270924 -0.21546403 31.79426819 -0.1953125 27.17578125 C-0.15243801 18.11692494 -0.08208673 9.05858596 0 0 Z " fill="#EF7281" transform="translate(180,210)"/>
<path d="M0 0 C4.95 0 9.9 0 15 0 C15.11302783 9.04048746 15.20473079 18.08050458 15.25906086 27.12153912 C15.28513862 31.31981881 15.32050223 35.51758945 15.37719727 39.71557617 C15.43158381 43.76805932 15.46143425 47.82005333 15.47438622 51.87287331 C15.48361434 53.41787223 15.50163536 54.96284483 15.52865028 56.50763512 C15.56503239 58.67453914 15.56994204 60.83943076 15.56762695 63.0065918 C15.57873001 64.23903122 15.58983307 65.47147064 15.60127258 66.74125671 C14.82967857 70.92309848 13.29452123 72.39747227 10 75 C6.9375 75.5625 6.9375 75.5625 4 75 C0.977972 72.75729253 0.0888049 71.58643233 -0.48101807 67.82354736 C-0.47213562 66.57112244 -0.46325317 65.31869751 -0.45410156 64.02832031 C-0.45468567 63.3352327 -0.45526978 62.64214508 -0.45587158 61.92805481 C-0.45309169 59.64422985 -0.42200707 57.36172103 -0.390625 55.078125 C-0.3831622 53.49201165 -0.37746945 51.90588906 -0.37347412 50.31976318 C-0.35822065 46.15039497 -0.31894187 41.98158644 -0.2746582 37.81243896 C-0.23369898 33.55602591 -0.21546175 29.29952219 -0.1953125 25.04296875 C-0.15244668 16.69502735 -0.08209973 8.34764784 0 0 Z " fill="#EE7383" transform="translate(357,227)"/>
<path d="M0 0 C9.9 0 19.8 0 30 0 C30 0.33 30 0.66 30 1 C27.36 1 24.72 1 22 1 C22.00888245 1.61752136 22.01776489 2.23504272 22.0269165 2.87127686 C22.11536919 9.29494984 22.17572569 15.71845002 22.21972656 22.14257812 C22.23984936 24.54043606 22.26715059 26.93824488 22.30175781 29.3359375 C22.3502449 32.78137323 22.37296241 36.22616052 22.390625 39.671875 C22.41127014 40.74491882 22.43191528 41.81796265 22.45318604 42.92352295 C22.45348816 43.92425842 22.45379028 44.9249939 22.45410156 45.95605469 C22.46298401 46.83541687 22.47186646 47.71477905 22.48101807 48.62078857 C21.83382698 51.82192492 20.53811919 53.0070315 18 55 C14.5 55.5625 14.5 55.5625 11 55 C8.39294167 52.82019989 7.15360381 51.04830373 6.65612793 47.65316772 C6.53605097 44.69143549 6.55088205 41.75657836 6.609375 38.79296875 C6.61503479 37.71243729 6.62069458 36.63190582 6.62652588 35.51863098 C6.64887957 32.07446611 6.69907609 28.63134935 6.75 25.1875 C6.77006621 22.84962442 6.78831677 20.5117325 6.8046875 18.17382812 C6.84874105 12.44886239 6.91564379 6.72450608 7 1 C4.69 1 2.38 1 0 1 C0 0.67 0 0.34 0 0 Z " fill="#9BF7D3" transform="translate(261,195)"/>
<path d="M0 0 C4.95 0 9.9 0 15 0 C15.12365217 7.02915026 15.21436678 14.05766666 15.2746582 21.08764648 C15.29979315 23.47870919 15.33390633 25.86969514 15.37719727 28.26049805 C15.43789061 31.69859764 15.46622072 35.13568096 15.48828125 38.57421875 C15.51408768 39.64210129 15.5398941 40.70998383 15.56648254 41.81022644 C15.56928142 49.22632153 15.56928142 49.22632153 12.66088867 53.17895508 C10 55 10 55 6.9375 55.5625 C3.31110694 54.86808431 2.29539524 53.84416368 0 51 C-0.48101807 48.58282471 -0.48101807 48.58282471 -0.45410156 45.86425781 C-0.45379944 44.84350159 -0.45349731 43.82274536 -0.45318604 42.77105713 C-0.43254089 41.67613953 -0.41189575 40.58122192 -0.390625 39.453125 C-0.38496521 38.3267865 -0.37930542 37.200448 -0.37347412 36.03997803 C-0.35108545 32.44288618 -0.30088213 28.84679074 -0.25 25.25 C-0.22993833 22.8112123 -0.21168698 20.37240899 -0.1953125 17.93359375 C-0.15121211 11.9553453 -0.0821653 5.97784158 0 0 Z " fill="#99F7D3" transform="translate(92,251)"/>
<path d="M0 0 C2.20214844 1.37988281 2.20214844 1.37988281 4 4 C4.55744549 7.41422975 4.46456157 10.78316025 4.390625 14.234375 C4.38496521 15.22753723 4.37930542 16.22069946 4.37347412 17.24395752 C4.35110026 20.41313059 4.30090106 23.5811692 4.25 26.75 C4.22993635 28.89972324 4.21168534 31.04946423 4.1953125 33.19921875 C4.15123197 38.46658232 4.08219654 43.73309888 4 49 C-0.95 49 -5.9 49 -11 49 C-11.21765873 43.12893225 -11.41439541 37.25766884 -11.59204102 31.38525391 C-11.65534569 29.38897106 -11.72429608 27.39285873 -11.79907227 25.39697266 C-11.9057645 22.52272673 -11.99192488 19.64847293 -12.07421875 16.7734375 C-12.11157639 15.88570648 -12.14893402 14.99797546 -12.18742371 14.08334351 C-12.31132429 8.9405293 -11.9331722 5.43798633 -9 1 C-5.90826248 -0.54586876 -3.40570448 -0.29359521 0 0 Z " fill="#F07281" transform="translate(191,60)"/>
<path d="M0 0 C0.66 -0.02191406 1.32 -0.04382812 2 -0.06640625 C5.24719897 0.95468561 6.21239175 2.70324588 8 5.5625 C8.54064615 8.64996223 8.46663488 11.67445767 8.390625 14.80078125 C8.38496521 15.68154831 8.37930542 16.56231537 8.37347412 17.46977234 C8.3511533 20.27207693 8.30096577 23.07308446 8.25 25.875 C8.22992941 27.77927836 8.21167961 29.68357684 8.1953125 31.58789062 C8.15130267 36.24659053 8.08230549 40.90432565 8 45.5625 C2.72 45.5625 -2.56 45.5625 -8 45.5625 C-8.09891077 39.79676315 -8.17148845 34.0315206 -8.21972656 28.26513672 C-8.23983632 26.30378619 -8.26712818 24.34249556 -8.30175781 22.38134766 C-8.35030421 19.56137305 -8.37297486 16.74219135 -8.390625 13.921875 C-8.41127014 13.04569519 -8.43191528 12.16951538 -8.45318604 11.26678467 C-8.45542945 5.17381745 -8.45542945 5.17381745 -6.10058594 2.01293945 C-3.84679147 0.45671061 -2.7140233 -0.00530083 0 0 Z " fill="#9BF7D1" transform="translate(276,-0.5625)"/>
<path d="M0 0 C3.41760058 0.99707349 4.30486541 2.50531513 6.03515625 5.59375 C6.51309925 9.21304488 6.41236054 12.76380398 6.28515625 16.40625 C6.26710938 17.38529297 6.2490625 18.36433594 6.23046875 19.37304688 C6.18349659 21.78037003 6.11175771 24.18718743 6.03515625 26.59375 C1.08515625 26.59375 -3.86484375 26.59375 -8.96484375 26.59375 C-9.04559237 22.82249047 -9.10522555 19.05295007 -9.15234375 15.28125 C-9.17748047 14.20939453 -9.20261719 13.13753906 -9.22851562 12.03320312 C-9.23818359 11.00517578 -9.24785156 9.97714844 -9.2578125 8.91796875 C-9.27352295 7.97010498 -9.2892334 7.02224121 -9.30541992 6.0456543 C-8.96484375 3.59375 -8.96484375 3.59375 -7.69262695 1.79223633 C-5.27415158 0.11464758 -2.87837076 0.13310385 0 0 Z " fill="#9AF7D3" transform="translate(100.96484375,122.40625)"/>
<path d="M0 0 C5.28 0 10.56 0 16 0 C16 0.33 16 0.66 16 1 C15.34773437 1.12117188 14.69546875 1.24234375 14.0234375 1.3671875 C9.21353658 2.28943989 4.60974535 3.30167277 0 5 C0 3.35 0 1.7 0 0 Z " fill="#66DCFB" transform="translate(195,79)"/>
<path d="M0 0 C0.33 0 0.66 0 1 0 C1 2.97 1 5.94 1 9 C-1.31 9 -3.62 9 -6 9 C-4.68 8.67 -3.36 8.34 -2 8 C-1.855625 7.236875 -1.71125 6.47375 -1.5625 5.6875 C-1 3 -1 3 0 0 Z " fill="#9AD2E9" transform="translate(179,100)"/>
</svg>
