<?xml version="1.0" encoding="UTF-8"?>
<svg version="1.1" xmlns="http://www.w3.org/2000/svg" width="512" height="512">
<path d="M0 0 C5.24341284 3.96453166 9.19226229 8.36035899 10.5625 14.9375 C11.18457058 21.78027641 9.34044497 26.88961936 5.125 32.25 C2.5625 34.9375 2.5625 34.9375 -1.4375 36.9375 C-1.7675 59.7075 -2.0975 82.4775 -2.4375 105.9375 C3.1725 105.9375 8.7825 105.9375 14.5625 105.9375 C27.47845985 108.0704108 37.54211866 112.66966632 47.40625 121.30078125 C49.57800073 122.94926596 50.87315072 123.64541903 53.5625 123.9375 C55.0475 123.4425 55.0475 123.4425 56.5625 122.9375 C56.56614563 122.26986633 56.56979126 121.60223267 56.57354736 120.91436768 C56.6153283 113.97120236 56.68464326 107.0287008 56.77001953 100.0859375 C56.79826107 97.49420812 56.81945965 94.90239211 56.83349609 92.31054688 C56.85488062 88.58678729 56.90151086 84.86407299 56.953125 81.140625 C56.95435364 79.98008606 56.95558228 78.81954712 56.95684814 77.62384033 C56.97656677 76.54302185 56.9962854 75.46220337 57.01660156 74.34863281 C57.02548401 73.39821106 57.03436646 72.44778931 57.04351807 71.46856689 C57.73321979 68.1049022 58.79269841 66.93941433 61.5625 64.9375 C64.3213501 64.45648193 64.3213501 64.45648193 67.52441406 64.48339844 C68.72535706 64.48370056 69.92630005 64.48400269 71.16363525 64.48431396 C72.45541687 64.50495911 73.74719849 64.52560425 75.078125 64.546875 C76.41761429 64.55433929 77.75711452 64.56003134 79.09661865 64.56402588 C82.61501436 64.57926787 86.13274515 64.61853582 89.65087891 64.6628418 C93.24372361 64.70382636 96.8366762 64.7220436 100.4296875 64.7421875 C107.47422966 64.78503255 114.51832132 64.85326554 121.5625 64.9375 C121.59793182 61.37323859 121.55593074 57.8139066 121.5 54.25 C121.51095703 53.24259766 121.52191406 52.23519531 121.53320312 51.19726562 C121.54921428 45.74925965 121.54921428 45.74925965 118.99668884 41.17984009 C117.23614853 39.94106261 115.46024343 38.94571622 113.5625 37.9375 C109.56285684 33.18604421 108.92399045 27.66343218 109.18359375 21.6171875 C109.89022974 16.61974124 111.52014643 12.79882677 115.28125 9.37109375 C121.41572146 4.80923044 127.0282919 4.21603 134.5625 4.9375 C140.19394205 6.50862501 143.48165132 9.42800489 146.65234375 14.25390625 C149.56613003 19.64378559 149.53703034 26.44445449 147.9140625 32.26171875 C145.59483382 37.46511644 145.59483382 37.46511644 142.87011719 38.71191406 C140.48468329 39.89432283 139.18932165 40.80218173 137.5625 42.9375 C136.63087339 48.254932 136.80303875 53.56140886 136.9375 58.9375 C136.98186591 61.13554141 137.01557015 63.3315247 137.01895142 65.5300293 C137.02322156 67.52415645 137.06600827 69.51809103 137.11083984 71.51171875 C136.5625 74.9375 136.5625 74.9375 134.87084961 77.86401367 C129.57127111 81.18548959 124.2897221 80.55069211 118.16796875 80.42578125 C116.86547684 80.41870651 115.56298492 80.41163177 114.22102356 80.40434265 C110.76986116 80.38531513 107.31976261 80.33625439 103.86901855 80.28082275 C100.3431666 80.22953653 96.81713643 80.20653425 93.29101562 80.18164062 C86.38057301 80.13078367 79.47304588 80.03292024 72.5625 79.9375 C72.5625 93.1375 72.5625 106.3375 72.5625 119.9375 C78.1725 119.9375 83.7825 119.9375 89.5625 119.9375 C110.14226291 123.7662931 127.61284863 133.08425336 140.5625 149.9375 C148.27343349 161.42038832 152.83769267 173.13904138 154.5625 186.9375 C170.7325 186.9375 186.9025 186.9375 203.5625 186.9375 C203.5625 180.811875 203.5625 174.68625 203.5625 168.375 C203.583125 166.45486084 203.60375 164.53472168 203.625 162.55639648 C203.82498888 153.99933679 203.82498888 153.99933679 200.78515625 146.27929688 C198.70895475 144.4076919 198.70895475 144.4076919 196.47265625 143.11499023 C193.22017448 141.11004141 192.54489601 138.49868552 191.5625 134.9375 C190.81297188 128.91985997 191.56581182 124.31087192 194.5625 118.9375 C198.46737672 114.29386282 202.20608933 111.3682946 208.33203125 110.58203125 C214.34877298 110.30200679 218.97209251 110.6618284 223.87109375 114.34375 C229.01031289 119.18624749 230.87413031 123.31246279 231.1875 130.4375 C230.9419403 136.32411158 229.78019109 140.71000033 225.5625 144.9375 C224.55155273 145.40599365 223.54060547 145.8744873 222.49902344 146.35717773 C219.42965755 148.55639962 219.42965755 148.55639962 219.02139282 151.1631012 C218.83620492 154.09225546 218.83729115 156.97179415 218.8984375 159.90625 C218.89421783 160.97870972 218.88999817 162.05116943 218.88565063 163.15612793 C218.87477073 166.58395321 218.90290158 170.00985348 218.9375 173.4375 C218.96152486 176.8648862 218.97674749 180.29140652 218.96792603 183.71887207 C218.9633404 185.85132865 218.97813415 187.98393324 219.01425171 190.11608887 C219.01389923 191.08389282 219.01354675 192.05169678 219.01318359 193.04882812 C219.02239838 193.8983606 219.03161316 194.74789307 219.04110718 195.62316895 C218.37317064 198.85301245 217.20220376 199.99769244 214.5625 201.9375 C211.8036499 202.41851807 211.8036499 202.41851807 208.60058594 202.39160156 C207.39964294 202.39129944 206.19869995 202.39099731 204.96136475 202.39068604 C203.66958313 202.37004089 202.37780151 202.34939575 201.046875 202.328125 C199.70738571 202.32066071 198.36788548 202.31496866 197.02838135 202.31097412 C193.50998564 202.29573213 189.99225485 202.25646418 186.47412109 202.2121582 C182.88127639 202.17117364 179.2883238 202.1529564 175.6953125 202.1328125 C168.65077034 202.08996745 161.60667868 202.02173446 154.5625 201.9375 C154.3771167 203.00766357 154.1917334 204.07782715 154.00073242 205.18041992 C153.74432595 206.61383184 153.48755169 208.047178 153.23046875 209.48046875 C153.10990112 210.182323 152.9893335 210.88417725 152.8651123 211.6072998 C150.86603804 222.62604461 146.18394455 231.87862283 139.19921875 240.6328125 C137.56841158 242.92917582 136.8051455 244.15762653 136.5625 246.9375 C137.09479893 249.77211178 137.09479893 249.77211178 138 252.75 C139.31517527 257.30888111 139.624513 261.19893612 139.5625 265.9375 C140.47847458 265.92861755 141.39444916 265.91973511 142.33818054 265.9105835 C150.9749481 265.83039931 159.61159046 265.76951608 168.24864483 265.73025131 C172.68895549 265.7093861 177.1289583 265.68108823 181.5690918 265.63574219 C185.85497369 265.59224594 190.14055968 265.56835487 194.42664528 265.55799103 C196.06092804 265.5506064 197.69519481 265.53618575 199.32935143 265.51457977 C201.62055694 265.48549441 203.91054355 265.48154597 206.2019043 265.48339844 C207.50540329 265.47451599 208.80890228 265.46563354 210.15190125 265.45648193 C214.18213075 266.0248904 215.8378788 266.93532064 218.5625 269.9375 C219.16377258 272.31671143 219.16377258 272.31671143 219.13012695 274.98144531 C219.1297493 275.98218079 219.12937164 276.98291626 219.12898254 278.01397705 C219.10317612 279.08702087 219.07736969 280.1600647 219.05078125 281.265625 C219.04370651 282.36976746 219.03663177 283.47390991 219.02934265 284.61151123 C219.00135763 288.13753045 218.93860756 291.66196087 218.875 295.1875 C218.84992262 297.57810207 218.82710848 299.96872902 218.80664062 302.359375 C218.75151746 308.21929194 218.66784896 314.07828247 218.5625 319.9375 C219.35108398 320.23333984 220.13966797 320.52917969 220.95214844 320.83398438 C223.76137663 322.0215743 224.92248855 323.08990682 226.8125 325.4375 C227.31265625 326.0459375 227.8128125 326.654375 228.328125 327.28125 C231.91931923 332.09981441 230.93463065 338.18702826 230.5625 343.9375 C228.85717119 349.45474027 225.20465862 352.70599734 220.5625 355.9375 C215.303858 358.62525036 210.20072385 358.15464039 204.5625 356.9375 C198.89244841 354.92342762 195.44216682 351.06616281 192.5625 345.9375 C190.65301724 340.20905171 190.65064285 334.16187495 193.1875 328.625 C195.366377 324.78862013 197.95426337 322.44757765 201.5625 319.9375 C202.2225 319.9375 202.8825 319.9375 203.5625 319.9375 C203.5625 307.0675 203.5625 294.1975 203.5625 280.9375 C181.4525 280.9375 159.3425 280.9375 136.5625 280.9375 C135.9025 283.2475 135.2425 285.5575 134.5625 287.9375 C127.59710732 299.94737371 118.20530208 307.07049816 106.03369141 313.17407227 C99.56896222 316.52494063 94.00419685 321.03583137 91.625 328.1875 C88.82409356 338.09968984 92.14777438 347.03149282 96.5625 355.9375 C97.10261719 356.80503906 97.64273437 357.67257812 98.19921875 358.56640625 C100.10620919 361.88314893 100.04088996 364.17872177 99.5625 367.9375 C97.50805237 370.60269724 96.3490718 371.7982705 92.99707031 372.39160156 C91.58312988 372.36018066 91.58312988 372.36018066 90.140625 372.328125 C89.21668945 372.31813477 88.29275391 372.30814453 87.34082031 372.29785156 C86.17647461 372.26143555 85.01212891 372.22501953 83.8125 372.1875 C80.1 372.105 76.3875 372.0225 72.5625 371.9375 C72.5625 380.5175 72.5625 389.0975 72.5625 397.9375 C76.76355469 397.89109375 80.96460938 397.8446875 85.29296875 397.796875 C88.64881667 397.77113982 92.00463661 397.74945274 95.36052704 397.73049927 C98.89981481 397.70940144 102.43871763 397.68122251 105.9777832 397.63574219 C110.04121567 397.58385175 114.10424228 397.56453334 118.16796875 397.546875 C119.4327153 397.52622986 120.69746185 397.50558472 122.00053406 397.48431396 C123.18138077 397.48401184 124.36222748 397.48370972 125.57885742 397.48339844 C126.61588303 397.47451599 127.65290863 397.46563354 128.72135925 397.45648193 C132.33563539 398.06839534 134.00451065 399.35099961 136.5625 401.9375 C136.99600042 404.62863818 137.12444034 406.69699339 137.0234375 409.37109375 C137.0203976 410.83919187 137.0178073 412.30729098 137.015625 413.77539062 C136.98221986 416.07764344 136.93740142 418.37908366 136.88183594 420.6809082 C136.28942719 429.2666415 136.28942719 429.2666415 139.07543945 436.95898438 C141.15415794 438.46194609 141.15415794 438.46194609 144.5625 439.9375 C148.56214316 444.68895579 149.20100955 450.21156782 148.94140625 456.2578125 C148.23477026 461.25525876 146.60485357 465.07617323 142.84375 468.50390625 C136.70927854 473.06576956 131.0967081 473.65897 123.5625 472.9375 C117.93105795 471.36637499 114.64334868 468.44699511 111.47265625 463.62109375 C108.55886997 458.23121441 108.58796966 451.43054551 110.2109375 445.61328125 C112.48574364 440.50954952 112.48574364 440.50954952 115.21299744 439.06063843 C117.38956817 437.87130107 118.90669316 436.79618219 120.5625 434.9375 C121.57810646 431.17019889 121.54224504 427.5090591 121.5 423.625 C121.51611328 422.59826172 121.53222656 421.57152344 121.54882812 420.51367188 C121.58408511 417.98692161 121.58761809 415.46425255 121.5625 412.9375 C120.81969788 412.94638245 120.07689575 412.95526489 119.31158447 412.9644165 C112.30800095 413.04459744 105.30457665 413.10548186 98.30066299 413.14474869 C94.69991714 413.16561513 91.09955084 413.19391421 87.49902344 413.23925781 C84.02362087 413.28275125 80.54858312 413.30664421 77.07292938 413.31700897 C75.10304216 413.32798615 73.13330153 413.359207 71.16363525 413.39068604 C69.36222076 413.39113922 69.36222076 413.39113922 67.52441406 413.39160156 C65.9388974 413.40492523 65.9388974 413.40492523 64.3213501 413.41851807 C60.83398381 412.81047989 59.66407734 411.74543912 57.5625 408.9375 C57.21351027 405.97821721 57.09465801 403.40296479 57.171875 400.453125 C57.17753479 399.63753113 57.18319458 398.82193726 57.18902588 397.98162842 C57.21137273 395.38298228 57.26156378 392.78572758 57.3125 390.1875 C57.33256729 388.42319703 57.35081766 386.6588724 57.3671875 384.89453125 C57.4112317 380.57498672 57.48024578 376.25647907 57.5625 371.9375 C56.8511792 371.95321045 56.1398584 371.9689209 55.40698242 371.98510742 C52.18806896 372.04741915 48.96928232 372.08647867 45.75 372.125 C44.07067383 372.16270508 44.07067383 372.16270508 42.35742188 372.20117188 C41.28427734 372.21083984 40.21113281 372.22050781 39.10546875 372.23046875 C38.11571045 372.2461792 37.12595215 372.26188965 36.10620117 372.27807617 C33.5625 371.9375 33.5625 371.9375 31.75292969 370.6550293 C29.68680243 367.67406022 29.87332335 364.08397893 29.625 360.5625 C28.25624183 345.86558753 24.263112 331.7603809 13.0625 321.4375 C6.11906264 315.70952556 6.11906264 315.70952556 -2.4375 313.9375 C-2.44705247 330.42736157 -2.42248027 346.9167635 -2.3572216 363.4064827 C-2.32771774 371.06289042 -2.30940426 378.71902031 -2.31738281 386.37548828 C-2.3243082 393.04849099 -2.31029003 399.72106378 -2.27106392 406.39396071 C-2.25102377 409.92775226 -2.24151172 413.46086857 -2.25707626 416.99469757 C-2.27405469 420.93859798 -2.24427641 424.88138693 -2.21044922 428.82519531 C-2.22878059 430.58493935 -2.22878059 430.58493935 -2.2474823 432.38023376 C-2.201307 435.35684505 -2.11980058 438.03989881 -1.4375 440.9375 C1.31907649 443.68784191 1.31907649 443.68784191 4.5625 444.9375 C6.20703125 446.71875 6.20703125 446.71875 7.375 448.4375 C7.77332031 449.0046875 8.17164063 449.571875 8.58203125 450.15625 C11.10543158 454.74059482 11.17040854 459.84932459 10.171875 464.921875 C8.36989854 470.88225866 4.60429551 474.43060595 -0.4375 477.9375 C-6.28530342 479.88676781 -12.95961492 479.71757493 -18.8125 477.875 C-24.11326899 473.96252765 -28.06542385 469.52346553 -29.4375 462.9375 C-30.05957058 456.09472359 -28.21544497 450.98538064 -24 445.625 C-21.4375 442.9375 -21.4375 442.9375 -17.4375 440.9375 C-16.9425 379.0625 -16.9425 379.0625 -16.4375 315.9375 C-20.7275 316.2675 -25.0175 316.5975 -29.4375 316.9375 C-45.32741219 316.29517439 -60.24178831 310.57576141 -73.09985352 301.3359375 C-74.03922508 300.66183838 -74.03922508 300.66183838 -74.99757385 299.97412109 C-75.47274948 299.63203613 -75.94792511 299.28995117 -76.4375 298.9375 C-76.43381283 299.50072338 -76.43012566 300.06394676 -76.42632675 300.64423752 C-76.33799122 314.34840321 -76.27205339 328.05251904 -76.23025131 341.75690842 C-76.20935774 348.38427065 -76.18100718 355.01142773 -76.13574219 361.63867188 C-76.0923485 368.03179191 -76.06837623 374.42471436 -76.05799103 380.81797028 C-76.05058808 383.25968793 -76.03613227 385.70139451 -76.01457977 388.14302826 C-75.98563282 391.55750582 -75.98154048 394.97116209 -75.98339844 398.38574219 C-75.96901733 399.39994232 -75.95463623 400.41414246 -75.93981934 401.45907593 C-75.97968922 408.21001154 -75.97968922 408.21001154 -78.09326172 411.56860352 C-81.06405616 413.30337174 -82.96270756 413.42048145 -86.39941406 413.39160156 C-87.60035706 413.39129944 -88.80130005 413.39099731 -90.03863525 413.39068604 C-91.33041687 413.37004089 -92.62219849 413.34939575 -93.953125 413.328125 C-95.29261429 413.32066071 -96.63211452 413.31496866 -97.97161865 413.31097412 C-101.49001436 413.29573213 -105.00774515 413.25646418 -108.52587891 413.2121582 C-112.11872361 413.17117364 -115.7116762 413.1529564 -119.3046875 413.1328125 C-126.34922966 413.08996745 -133.39332132 413.02173446 -140.4375 412.9375 C-140.47293182 416.50176141 -140.43093074 420.0610934 -140.375 423.625 C-140.39143555 425.13610352 -140.39143555 425.13610352 -140.40820312 426.67773438 C-140.42421428 432.12574035 -140.42421428 432.12574035 -137.87168884 436.69515991 C-136.11114853 437.93393739 -134.33524343 438.92928378 -132.4375 439.9375 C-128.43785684 444.68895579 -127.79899045 450.21156782 -128.05859375 456.2578125 C-128.76522974 461.25525876 -130.39514643 465.07617323 -134.15625 468.50390625 C-140.29984409 473.07255355 -145.89544052 473.64004801 -153.4375 472.9375 C-159.47520611 471.41261859 -163.1927437 467.83112589 -166.3671875 462.56640625 C-168.63506347 456.99603936 -168.38708029 451.30267927 -166.76953125 445.5703125 C-165.01293234 441.50482157 -164.02126708 440.210135 -159.82421875 438.25 C-157.83043083 437.02610787 -157.83043083 437.02610787 -156.4375 434.9375 C-155.50287972 429.4259488 -155.67793581 423.94938058 -155.8125 418.375 C-155.85680688 416.09536304 -155.89056212 413.81769483 -155.89395142 411.53761292 C-155.8968811 410.12274413 -155.92349547 408.70767163 -155.97689819 407.29380798 C-155.9929667 403.78552725 -155.78179674 402.28563423 -153.27720642 399.75312805 C-149.99231649 397.65286224 -148.3157707 397.45031995 -144.45385742 397.48339844 C-143.25660034 397.48388184 -142.05934326 397.48436523 -140.82580566 397.48486328 C-139.57746948 397.50532715 -138.3291333 397.52579102 -137.04296875 397.546875 C-135.88817017 397.55090332 -134.73337158 397.55493164 -133.5435791 397.55908203 C-129.23722403 397.57998187 -124.93109576 397.63582731 -120.625 397.6875 C-110.993125 397.77 -101.36125 397.8525 -91.4375 397.9375 C-91.4375 361.9675 -91.4375 325.9975 -91.4375 288.9375 C-96.8825 290.9175 -96.8825 290.9175 -102.4375 292.9375 C-118.66322429 296.6484929 -134.25718288 293.13816532 -148.4375 284.9375 C-149.00909851 284.42048019 -149.58069702 283.90346039 -150.1696167 283.37077332 C-153.29710433 281.39424103 -155.63191582 281.53826964 -159.31738281 281.50512695 C-160.00071686 281.4949353 -160.6840509 281.48474365 -161.38809204 281.47424316 C-163.63901996 281.44413163 -165.8895222 281.43485047 -168.140625 281.42578125 C-169.70433972 281.40893312 -171.26804092 281.39078269 -172.83172607 281.37138367 C-176.94160738 281.32389178 -181.05143381 281.29407735 -185.16149902 281.26794434 C-190.09593182 281.23289086 -195.03015389 281.17588047 -199.9644165 281.12255096 C-207.45541765 281.04404645 -214.94614314 280.99343444 -222.4375 280.9375 C-222.4375 293.8075 -222.4375 306.6775 -222.4375 319.9375 C-220.7875 320.5975 -219.1375 321.2575 -217.4375 321.9375 C-212.6252486 326.97357705 -210.38951431 330.84050413 -210.0625 337.75 C-210.20300696 343.65129244 -211.88067843 348.04173378 -215.79296875 352.47265625 C-219.96225619 356.30661226 -224.26727409 357.89717916 -229.89453125 357.96875 C-236.22554902 357.58907877 -240.3641857 356.12773387 -244.875 351.4453125 C-249.74844358 345.87961841 -249.78620196 341.24921888 -249.71484375 334.10546875 C-249.22006381 328.45382748 -246.35249533 325.64700566 -242.3125 322.0625 C-239.4375 319.9375 -239.4375 319.9375 -237.4375 319.9375 C-237.44860306 319.31997864 -237.45970612 318.70245728 -237.47114563 318.06622314 C-237.58171057 311.6426031 -237.65715537 305.21925301 -237.7121582 298.79492188 C-237.73731212 296.39702375 -237.77143919 293.99920236 -237.81469727 291.6015625 C-237.87530735 288.15605751 -237.90370156 284.71156554 -237.92578125 281.265625 C-237.95158768 280.19258118 -237.9773941 279.11953735 -238.00398254 278.01397705 C-238.0043602 277.01324158 -238.00473785 276.0125061 -238.00512695 274.98144531 C-238.01623001 274.10208313 -238.02733307 273.22272095 -238.03877258 272.31671143 C-237.4375 269.9375 -237.4375 269.9375 -235.31616211 267.65063477 C-231.85210715 265.58912398 -229.82388289 265.45270931 -225.8112793 265.48339844 C-225.16681351 265.48281433 -224.52234772 265.48223022 -223.85835266 265.48162842 C-221.74224728 265.48440046 -219.62757595 265.51544639 -217.51171875 265.546875 C-216.03913645 265.55434063 -214.56654417 265.56003204 -213.09394836 265.56402588 C-209.22871194 265.57925718 -205.36408215 265.61851637 -201.49908447 265.6628418 C-197.55090541 265.70384918 -193.60262778 265.7220485 -189.65429688 265.7421875 C-181.91508881 265.78501395 -174.17637959 265.85323376 -166.4375 265.9375 C-166.78321045 265.12055664 -167.1289209 264.30361328 -167.48510742 263.46191406 C-167.93732666 262.38651367 -168.3895459 261.31111328 -168.85546875 260.203125 C-169.3043042 259.13868164 -169.75313965 258.07423828 -170.21557617 256.97753906 C-175.24224658 244.47162499 -175.04769419 229.5602457 -170.4375 216.9375 C-165.74021399 206.24021399 -165.74021399 206.24021399 -162.4375 202.9375 C-163.31811096 202.93385437 -164.19872192 202.93020874 -165.10601807 202.92645264 C-173.40490336 202.88858629 -181.70339513 202.83174921 -190.00200272 202.75359726 C-194.26844064 202.71408747 -198.5346711 202.68191637 -202.80126953 202.66650391 C-206.91881052 202.65136008 -211.03578126 202.61695588 -215.15306854 202.56919098 C-216.72388503 202.55435353 -218.29478292 202.54645763 -219.86566925 202.54561615 C-222.06633804 202.54325167 -224.26542419 202.51621822 -226.46582031 202.48339844 C-227.71824524 202.47451599 -228.97067017 202.46563354 -230.26104736 202.45648193 C-233.4375 201.9375 -233.4375 201.9375 -235.84506226 200.20892334 C-237.70787809 197.55183776 -237.92306231 196.26437904 -237.88818359 193.04882812 C-237.88853607 192.08102417 -237.88888855 191.11322021 -237.88925171 190.11608887 C-237.86286118 188.55815613 -237.86286118 188.55815613 -237.8359375 186.96875 C-237.84067229 184.76692601 -237.84589555 182.56510303 -237.8515625 180.36328125 C-237.83679972 176.89353654 -237.81236565 173.42418987 -237.77734375 169.95458984 C-237.75073803 166.60464494 -237.76025674 163.25623956 -237.7734375 159.90625 C-237.75179535 158.86762817 -237.7301532 157.82900635 -237.70785522 156.75891113 C-237.72668343 154.02155741 -237.79070794 151.59778848 -238.4375 148.9375 C-241.20562299 146.25966716 -241.20562299 146.25966716 -244.4375 144.9375 C-248.65519109 140.71000033 -249.8169403 136.32411158 -250.0625 130.4375 C-249.74913031 123.31246279 -247.88531289 119.18624749 -242.74609375 114.34375 C-237.12454813 110.11878878 -231.23484721 110.06506192 -224.4375 110.9375 C-218.43519821 113.01102244 -214.69952423 116.67456 -211.625 122.1875 C-209.73212362 128.16500436 -209.42389505 133.30655605 -212 139.125 C-213.65525677 142.06568608 -215.29182098 143.68679712 -218.03344727 145.61962891 C-220.84717886 147.97418645 -221.93311438 149.43784587 -222.32397461 153.10693359 C-222.36437264 154.68275937 -222.36791992 156.25984404 -222.33984375 157.8359375 C-222.35213516 158.67089752 -222.36442657 159.50585754 -222.37709045 160.36611938 C-222.40871832 163.01581754 -222.39257534 165.66271724 -222.375 168.3125 C-222.38811513 170.11591117 -222.40435806 171.91930249 -222.42382812 173.72265625 C-222.46459385 178.12819807 -222.46254285 182.53186065 -222.4375 186.9375 C-212.1792868 186.89934069 -201.92143568 186.83983064 -191.66350746 186.75359726 C-186.89951898 186.71420818 -182.13571298 186.68197785 -177.37158203 186.66650391 C-172.76775691 186.65128064 -168.16443373 186.61673534 -163.56083298 186.56919098 C-161.81075801 186.5544354 -160.06061136 186.54646235 -158.3104744 186.54561615 C-145.98578168 186.64254502 -145.98578168 186.64254502 -134.37826538 182.86431885 C-131.43956824 181.46093443 -128.65960455 181.217683 -125.4375 180.9375 C-125.33953125 180.33164063 -125.2415625 179.72578125 -125.140625 179.1015625 C-122.39391593 163.71052031 -115.08255836 151.37857398 -102.4375 141.9375 C-94.63262195 136.9375 -94.63262195 136.9375 -91.4375 136.9375 C-91.4375 118.1275 -91.4375 99.3175 -91.4375 79.9375 C-95.63855469 79.98390625 -99.83960938 80.0303125 -104.16796875 80.078125 C-107.52381667 80.10386018 -110.87963661 80.12554726 -114.23552704 80.14450073 C-117.77481481 80.16559856 -121.31371763 80.19377749 -124.8527832 80.23925781 C-128.91621567 80.29114825 -132.97924228 80.31046666 -137.04296875 80.328125 C-138.3077153 80.34877014 -139.57246185 80.36941528 -140.87553406 80.39068604 C-142.05638077 80.39098816 -143.23722748 80.39129028 -144.45385742 80.39160156 C-145.49088303 80.40048401 -146.52790863 80.40936646 -147.59635925 80.41851807 C-151.21063539 79.80660466 -152.87951065 78.52400039 -155.4375 75.9375 C-155.87100042 73.24636182 -155.99944034 71.17800661 -155.8984375 68.50390625 C-155.8953976 67.03580813 -155.8928073 65.56770902 -155.890625 64.09960938 C-155.85721986 61.79735656 -155.81240142 59.49591634 -155.75683594 57.1940918 C-155.16499998 48.60783604 -155.16499998 48.60783604 -157.95043945 40.91381836 C-160.0284089 39.40872832 -160.0284089 39.40872832 -163.4375 37.9375 C-167.60727462 33.07798822 -168.18088896 27.12152228 -167.9453125 20.91015625 C-166.96463207 15.16940387 -164.14747959 11.11611105 -159.64453125 7.49609375 C-154.26184668 4.31087628 -148.53137757 4.07582926 -142.4375 4.9375 C-136.80435506 6.55106186 -133.53138301 9.4081662 -130.34765625 14.25390625 C-127.43386997 19.64378559 -127.46296966 26.44445449 -129.0859375 32.26171875 C-131.36074364 37.36545048 -131.36074364 37.36545048 -134.08799744 38.81436157 C-136.26456817 40.00369893 -137.78169316 41.07881781 -139.4375 42.9375 C-140.45310646 46.70480111 -140.41724504 50.3659409 -140.375 54.25 C-140.39111328 55.27673828 -140.40722656 56.30347656 -140.42382812 57.36132812 C-140.45908511 59.88807839 -140.46261809 62.41074745 -140.4375 64.9375 C-139.69469788 64.92861755 -138.95189575 64.91973511 -138.18658447 64.9105835 C-131.18300095 64.83040256 -124.17957665 64.76951814 -117.17566299 64.73025131 C-113.57491714 64.70938487 -109.97455084 64.68108579 -106.37402344 64.63574219 C-102.89862087 64.59224875 -99.42358312 64.56835579 -95.94792938 64.55799103 C-93.97804216 64.54701385 -92.00830153 64.515793 -90.03863525 64.48431396 C-88.23722076 64.48386078 -88.23722076 64.48386078 -86.39941406 64.48339844 C-84.8138974 64.47007477 -84.8138974 64.47007477 -83.1963501 64.45648193 C-80.4375 64.9375 -80.4375 64.9375 -78.09326172 66.5760498 C-75.94983747 69.63300513 -75.95365768 71.45721023 -75.98339844 75.17480469 C-75.98370056 76.43580994 -75.98400269 77.69681519 -75.98431396 78.99603271 C-76.00473895 80.36715326 -76.02560291 81.73826733 -76.046875 83.109375 C-76.05433883 84.51612544 -76.0600311 85.92288631 -76.06402588 87.32965088 C-76.0792714 91.02558282 -76.11854269 94.72088227 -76.1628418 98.41656494 C-76.20381857 102.19038335 -76.22204196 105.96430432 -76.2421875 109.73828125 C-76.28503901 117.13830864 -76.35327595 124.53781557 -76.4375 131.9375 C-75.10903801 131.92607971 -75.10903801 131.92607971 -73.7537384 131.91442871 C-72.58823959 131.90850708 -71.42274078 131.90258545 -70.22192383 131.89648438 C-69.0681575 131.88887085 -67.91439117 131.88125732 -66.72566223 131.87341309 C-62.65334108 131.95278341 -59.09715196 132.54655003 -55.125 133.4375 C-53.85011719 133.7159375 -52.57523438 133.994375 -51.26171875 134.28125 C-50.32972656 134.4978125 -49.39773437 134.714375 -48.4375 134.9375 C-47.94443359 134.22787109 -47.94443359 134.22787109 -47.44140625 133.50390625 C-39.81060549 122.89523203 -31.22353632 115.49723693 -19.4375 109.9375 C-18.4475 109.9375 -17.4575 109.9375 -16.4375 109.9375 C-16.42919919 100.488231 -16.4529903 91.03974705 -16.5177784 81.59069443 C-16.54685357 77.20305955 -16.56486357 72.81595982 -16.55761719 68.42822266 C-16.55103063 64.19382124 -16.57346893 59.96047792 -16.61605453 55.72629547 C-16.62719804 54.11080949 -16.62787458 52.49521636 -16.61792374 50.8797226 C-16.60576821 48.61623218 -16.63079067 46.35598013 -16.66455078 44.09277344 C-16.668992 42.80481873 -16.67343323 41.51686401 -16.67800903 40.18988037 C-17.14383028 36.67323894 -17.14383028 36.67323894 -20.38302612 34.60162354 C-21.3910025 34.05246277 -22.39897888 33.503302 -23.4375 32.9375 C-25.08203125 31.15625 -25.08203125 31.15625 -26.25 29.4375 C-26.64832031 28.8703125 -27.04664063 28.303125 -27.45703125 27.71875 C-29.98043158 23.13440518 -30.04540854 18.02567541 -29.046875 12.953125 C-27.22838987 6.93813571 -23.41526374 3.58363267 -18.4375 -0.0625 C-13.25781355 -2.65234323 -5.36194873 -1.65732961 0 0 Z " fill="#EB5463" transform="translate(265.4375,17.0625)"/>
<path d="M0 0 C1.52230886 1.18010389 3.02449699 2.38687225 4.5 3.625 C5.44939453 4.37330078 5.44939453 4.37330078 6.41796875 5.13671875 C14.32365079 12.06509793 19.02089652 23.05443801 19.7734375 33.375 C20.14552721 44.46980128 18.87480944 54.38059562 11.6875 63.375 C8.844474 67.59892434 8.99627258 70.68847125 9.5 75.625 C12.71326257 76.5741946 12.71326257 76.5741946 16.5 76.625 C21.31458824 73.3423262 23.83334016 69.93484416 26.25 64.625 C26.54003906 64.02171875 26.83007812 63.4184375 27.12890625 62.796875 C33.40546527 49.61323505 34.91636321 33.77864594 30.5 19.625 C29.96029101 18.32364562 29.39912604 17.03088989 28.8125 15.75 C27.5 12.625 27.5 12.625 27.8125 10.1875 C28.1528125 9.4140625 28.1528125 9.4140625 28.5 8.625 C42.02075455 3.92212885 59.12451019 4.76749505 72.08203125 10.7890625 C87.67336582 19.1638365 98.99542686 31.28559128 104.7734375 48.1171875 C109.38578923 64.03724026 107.28107302 80.71197959 100.1484375 95.41015625 C92.42629267 109.36609957 79.7279246 119.88859749 64.5703125 124.93359375 C59.88352997 125.98901424 55.12890621 126.46088737 50.33666992 126.76733398 C46.8886793 127.04487752 44.79421777 127.40628135 41.98828125 129.4921875 C40.18438926 131.61935439 40.18438926 131.61935439 40.625 134.75 C41.28308824 137.72181373 41.28308824 137.72181373 43.5 139.625 C59.04616461 141.91820819 73.29338473 135.92584013 86.5 128.625 C87.82907374 127.94988133 89.15996753 127.27809663 90.5 126.625 C93.52111632 132.66723263 92.33778708 142.84577274 90.44140625 149.13671875 C84.82990547 161.01363503 76.43285311 166.50266342 65.2890625 172.53125 C54.27007217 178.52886001 47.42718562 185.60177019 43.5 197.625 C40.61239418 207.44285979 43.29854207 216.2520569 46.5 225.625 C46.83 226.945 47.16 228.265 47.5 229.625 C35.62 229.625 23.74 229.625 11.5 229.625 C10.51 224.345 9.52 219.065 8.5 213.625 C5.68108831 204.3096309 1.58483409 196.24178055 -4.5 188.625 C-4.95503906 188.04234375 -5.41007813 187.4596875 -5.87890625 186.859375 C-8.54075543 183.5550105 -11.46172599 180.57646618 -14.5 177.625 C-13.90832031 177.17769531 -13.31664062 176.73039063 -12.70703125 176.26953125 C-8.36163155 172.9449106 -4.1815413 169.69407197 -0.5 165.625 C0.04269531 165.04878906 0.58539063 164.47257813 1.14453125 163.87890625 C5.25532341 159.1411959 7.7626521 154.23736866 10 148.4375 C10.40109985 147.42175903 10.40109985 147.42175903 10.81030273 146.38549805 C12.35760436 142.11247238 12.89662239 138.98944497 11.5 134.625 C8.26746204 132.46997469 7.24849077 132.15643865 3.5 132.625 C0.1143258 135.09444793 -0.54793286 138.36444495 -1.75 142.25 C-5.49890439 153.43480729 -12.41759374 160.98730932 -22.6171875 166.83984375 C-39.70874861 175.1351985 -62.37562018 176.37252663 -80.5 170.625 C-91.94717207 166.24488299 -101.26666335 158.48315885 -110.5 150.625 C-108.43261652 146.05952816 -105.36079519 142.2769465 -102.375 138.28125 C-99.13662895 133.80971392 -99.13662895 133.80971392 -98.75 128.5 C-99.26883165 125.51902202 -99.26883165 125.51902202 -101.5 123.625 C-104.45788569 123.2082448 -104.45788569 123.2082448 -107.5 123.625 C-110.03374094 125.71353582 -111.63303733 128.24110778 -113.375 131 C-119.41298884 140.1605762 -128.54669315 148.23739493 -139.5 150.625 C-142.68969698 150.93747484 -145.85860136 151.03333133 -149.0625 151.0625 C-149.85374268 151.07265137 -150.64498535 151.08280273 -151.46020508 151.09326172 C-162.1269613 150.93631639 -171.80382213 146.73363505 -179.734375 139.62109375 C-189.82703064 129.01621686 -192.0867652 117.54174189 -191.83984375 103.4765625 C-191.37113456 93.42946014 -186.51555801 84.69483699 -179.5 77.625 C-172.97815145 72.23738598 -166.20315631 67.37380534 -157.5 67.625 C-157.35304687 68.35203125 -157.20609375 69.0790625 -157.0546875 69.828125 C-154.64729268 80.61989486 -150.49979306 92.51029873 -141.5 99.625 C-138.04667905 100.3555102 -136.61929621 100.2388076 -133.5625 98.5625 C-132.24162737 96.15384991 -132.22353902 94.37596459 -132.72265625 91.6953125 C-133.70416389 89.08124692 -135.14144332 87.17276292 -136.8125 84.9375 C-144.03904421 75.0641968 -145.78005376 64.7071401 -144.5 52.625 C-142.15821911 42.24485888 -135.98945929 32.13980484 -127.5 25.625 C-115.55327403 18.75175376 -103.9923586 16.47205621 -90.33984375 19.2734375 C-78.4917441 23.66718602 -69.80103323 33.0035703 -64.53125 44.21875 C-62.07972238 49.93898111 -61.23782739 55.23271495 -60.94140625 61.390625 C-60.40761854 64.09263006 -59.73653764 65.04078584 -57.5 66.625 C-53.92243314 66.62582535 -53.92243314 66.62582535 -50.5 65.625 C-47.06682364 60.47523546 -48.00006991 55.19050952 -49.15234375 49.27734375 C-52.34107783 36.9192885 -58.56452344 23.91531771 -69.5 16.625 C-65.45377931 5.29954895 -55.81549777 -0.38702945 -45.5 -5.375 C-30.6321258 -12.03759626 -13.23069705 -8.86716913 0 0 Z " fill="#F66B81" transform="translate(298.5,145.375)"/>
<path d="M0 0 C6.75254985 1.12542497 10.56967464 2.77486544 15 8 C16.24816675 11.69141338 16.18452542 15.14287083 16.08520508 19.01245117 C16.09681419 20.64294655 16.09681419 20.64294655 16.10865784 22.30638123 C16.12274116 25.88676537 16.07231006 29.46299537 16.01953125 33.04296875 C16.0128946 35.53444258 16.00966282 38.02592761 16.00968933 40.51741028 C15.99921688 46.39920488 15.94589069 52.2794768 15.87433881 58.16081649 C15.80467333 64.18243412 15.79680646 70.20322477 15.79483509 76.2251997 C15.78986689 81.36649506 15.76361068 86.50749488 15.72995567 91.64867592 C15.71470002 94.11545751 15.70403412 96.58227185 15.69800758 99.04909325 C15.68465052 102.49186703 15.64478831 105.93328775 15.59692383 109.37573242 C15.59728638 110.90858887 15.59728638 110.90858887 15.59765625 112.47241211 C15.46359739 119.26600444 15.46359739 119.26600444 13.33531189 122.63563538 C10.36995947 124.36809003 8.46897843 124.48293259 5.03808594 124.45410156 C3.83714294 124.45379944 2.63619995 124.45349731 1.39886475 124.45318604 C0.10708313 124.43254089 -1.18469849 124.41189575 -2.515625 124.390625 C-3.85511429 124.38316071 -5.19461452 124.37746866 -6.53411865 124.37347412 C-10.05251436 124.35823213 -13.57024515 124.31896418 -17.08837891 124.2746582 C-20.68122361 124.23367364 -24.2741762 124.2154564 -27.8671875 124.1953125 C-34.91172966 124.15246745 -41.95582132 124.08423446 -49 124 C-49.03543182 127.56426141 -48.99343074 131.1235934 -48.9375 134.6875 C-48.94845703 135.69490234 -48.95941406 136.70230469 -48.97070312 137.74023438 C-48.98671428 143.18824035 -48.98671428 143.18824035 -46.43418884 147.75765991 C-44.67364853 148.99643739 -42.89774343 149.99178378 -41 151 C-37.00035684 155.75145579 -36.36149045 161.27406782 -36.62109375 167.3203125 C-37.32772974 172.31775876 -38.95764643 176.13867323 -42.71875 179.56640625 C-48.86234409 184.13505355 -54.45794052 184.70254801 -62 184 C-68.03770611 182.47511859 -71.7552437 178.89362589 -74.9296875 173.62890625 C-77.19756347 168.05853936 -76.94958029 162.36517927 -75.33203125 156.6328125 C-73.57543234 152.56732157 -72.58376708 151.272635 -68.38671875 149.3125 C-66.39293083 148.08860787 -66.39293083 148.08860787 -65 146 C-64.06537972 140.4884488 -64.24043581 135.01188058 -64.375 129.4375 C-64.41930688 127.15786304 -64.45306212 124.88019483 -64.45645142 122.60011292 C-64.4593811 121.18524413 -64.48599547 119.77017163 -64.53939819 118.35630798 C-64.5554667 114.84802725 -64.34429674 113.34813423 -61.83970642 110.81562805 C-58.55481649 108.71536224 -56.8782707 108.51281995 -53.01635742 108.54589844 C-51.81910034 108.54638184 -50.62184326 108.54686523 -49.38830566 108.54736328 C-47.51580139 108.57805908 -47.51580139 108.57805908 -45.60546875 108.609375 C-44.45067017 108.61340332 -43.29587158 108.61743164 -42.1060791 108.62158203 C-37.79972403 108.64248187 -33.49359576 108.69832731 -29.1875 108.75 C-19.555625 108.8325 -9.92375 108.915 0 109 C0 73.03 0 37.06 0 0 Z " fill="#FCCC55" transform="translate(174,306)"/>
<path d="M0 0 C3.85535589 3.00735244 6.19175675 6.75105149 7.72265625 11.34375 C8.33696791 17.57750273 8.07884561 22.84726124 5.28125 28.4921875 C3.72265625 30.34375 3.72265625 30.34375 2.07215881 31.22061157 C-0.10441192 32.40994893 -1.62153691 33.48506781 -3.27734375 35.34375 C-4.29295021 39.11105111 -4.25708879 42.7721909 -4.21484375 46.65625 C-4.23095703 47.68298828 -4.24707031 48.70972656 -4.26367188 49.76757812 C-4.29892886 52.29432839 -4.30246184 54.81699745 -4.27734375 57.34375 C-3.53454163 57.33486755 -2.7917395 57.32598511 -2.02642822 57.3168335 C4.9771553 57.23665256 11.9805796 57.17576814 18.98449326 57.13650131 C22.58523911 57.11563487 26.18560541 57.08733579 29.78613281 57.04199219 C33.26153538 56.99849875 36.73657313 56.97460579 40.21222687 56.96424103 C42.18211409 56.95326385 44.15185472 56.922043 46.121521 56.89056396 C47.92293549 56.89011078 47.92293549 56.89011078 49.76074219 56.88964844 C50.8177533 56.88076599 51.8747644 56.87188354 52.96380615 56.86273193 C55.72265625 57.34375 55.72265625 57.34375 58.06689453 58.9765625 C60.2233588 62.0595878 60.20626067 63.92598871 60.17675781 67.67285156 C60.17645569 68.95387756 60.17615356 70.23490356 60.17584229 71.55474854 C60.1554172 72.94796371 60.13455324 74.3411725 60.11328125 75.734375 C60.10581756 77.16354582 60.10012523 78.5927269 60.09613037 80.02191162 C60.08088375 83.77702262 60.04161141 87.53151125 59.99731445 91.28637695 C59.95634012 95.12051983 59.93811481 98.95476362 59.91796875 102.7890625 C59.87511528 110.3075749 59.80687692 117.82557512 59.72265625 125.34375 C57.97448767 125.85011607 56.22403362 126.34859619 54.47265625 126.84375 C53.01085937 127.26140625 53.01085937 127.26140625 51.51953125 127.6875 C48.72265625 128.34375 48.72265625 128.34375 44.72265625 128.34375 C44.72265625 109.86375 44.72265625 91.38375 44.72265625 72.34375 C40.52160156 72.39015625 36.32054687 72.4365625 31.9921875 72.484375 C28.63633958 72.51011018 25.28051964 72.53179726 21.92462921 72.55075073 C18.38534144 72.57184856 14.84643862 72.60002749 11.30737305 72.64550781 C7.24394058 72.69739825 3.18091397 72.71671666 -0.8828125 72.734375 C-2.14755905 72.75502014 -3.4123056 72.77566528 -4.71537781 72.79693604 C-5.89622452 72.79723816 -7.07707123 72.79754028 -8.29370117 72.79785156 C-9.84923958 72.81117523 -9.84923958 72.81117523 -11.436203 72.82476807 C-15.05047914 72.21285466 -16.7193544 70.93025039 -19.27734375 68.34375 C-19.71084417 65.65261182 -19.83928409 63.58425661 -19.73828125 60.91015625 C-19.73524135 59.44205813 -19.73265105 57.97395902 -19.73046875 56.50585938 C-19.69706361 54.20360656 -19.65224517 51.90216634 -19.59667969 49.6003418 C-19.00484373 41.01408604 -19.00484373 41.01408604 -21.7902832 33.32006836 C-23.86825265 31.81497832 -23.86825265 31.81497832 -27.27734375 30.34375 C-31.44711837 25.48423822 -32.02073271 19.52777228 -31.78515625 13.31640625 C-30.80447582 7.57565387 -27.98732334 3.52236105 -23.484375 -0.09765625 C-16.2746416 -4.36403457 -7.20065775 -4.14000856 0 0 Z " fill="#FCCC56" transform="translate(129.27734375,24.65625)"/>
<path d="M0 0 C4.94754234 2.84458286 7.84443678 7.09581034 9.625 12.4375 C10.23931166 18.67125273 9.98118936 23.94101124 7.18359375 29.5859375 C5.625 31.4375 5.625 31.4375 3.93261719 32.21191406 C1.54718329 33.39432283 0.25182165 34.30218173 -1.375 36.4375 C-2.30662661 41.754932 -2.13446125 47.06140886 -2 52.4375 C-1.95563409 54.63554141 -1.92192985 56.8315247 -1.91854858 59.0300293 C-1.91427844 61.02415645 -1.87149173 63.01809103 -1.82666016 65.01171875 C-2.375 68.4375 -2.375 68.4375 -4.06665039 71.36401367 C-9.36622889 74.68548959 -14.6477779 74.05069211 -20.76953125 73.92578125 C-22.72326912 73.91516914 -22.72326912 73.91516914 -24.71647644 73.90434265 C-28.16763884 73.88531513 -31.61773739 73.83625439 -35.06848145 73.78082275 C-38.5943334 73.72953653 -42.12036357 73.70653425 -45.64648438 73.68164062 C-52.55692699 73.63078367 -59.46445412 73.53292024 -66.375 73.4375 C-66.375 86.9675 -66.375 100.4975 -66.375 114.4375 C-71.82 115.4275 -71.82 115.4275 -77.375 116.4375 C-79.355 116.9325 -79.355 116.9325 -81.375 117.4375 C-81.47633362 109.67801046 -81.54643783 101.91869124 -81.59472656 94.15869141 C-81.61485475 91.51832706 -81.64215987 88.87800735 -81.67675781 86.23779297 C-81.7252205 82.44487499 -81.7479572 78.65254584 -81.765625 74.859375 C-81.78627014 73.67696228 -81.80691528 72.49454956 -81.82818604 71.27630615 C-81.82863922 69.6250473 -81.82863922 69.6250473 -81.82910156 67.94042969 C-81.84242523 66.48814972 -81.84242523 66.48814972 -81.85601807 65.00653076 C-81.21731255 61.59531974 -80.17867679 60.45207697 -77.375 58.4375 C-74.6161499 57.95648193 -74.6161499 57.95648193 -71.41308594 57.98339844 C-70.21214294 57.98370056 -69.01119995 57.98400269 -67.77386475 57.98431396 C-66.48208313 58.00495911 -65.19030151 58.02560425 -63.859375 58.046875 C-62.51988571 58.05433929 -61.18038548 58.06003134 -59.84088135 58.06402588 C-56.32248564 58.07926787 -52.80475485 58.11853582 -49.28662109 58.1628418 C-45.69377639 58.20382636 -42.1008238 58.2220436 -38.5078125 58.2421875 C-31.46327034 58.28503255 -24.41917868 58.35326554 -17.375 58.4375 C-17.33956818 54.87323859 -17.38156926 51.3139066 -17.4375 47.75 C-17.42106445 46.23889648 -17.42106445 46.23889648 -17.40429688 44.69726562 C-17.38828572 39.24925965 -17.38828572 39.24925965 -19.94081116 34.67984009 C-21.70135147 33.44106261 -23.47725657 32.44571622 -25.375 31.4375 C-29.37464316 26.68604421 -30.01350955 21.16343218 -29.75390625 15.1171875 C-29.04727026 10.11974124 -27.41735357 6.29882677 -23.65625 2.87109375 C-16.72696125 -2.28183073 -8.06719239 -3.5956629 0 0 Z " fill="#FCCC56" transform="translate(404.375,23.5625)"/>
<path d="M0 0 C4.95 0 9.9 0 15 0 C15 8.58 15 17.16 15 26 C19.20105469 25.95359375 23.40210938 25.9071875 27.73046875 25.859375 C31.08631667 25.83363982 34.44213661 25.81195274 37.79802704 25.79299927 C41.33731481 25.77190144 44.87621763 25.74372251 48.4152832 25.69824219 C52.47871567 25.64635175 56.54174228 25.62703334 60.60546875 25.609375 C61.8702153 25.58872986 63.13496185 25.56808472 64.43803406 25.54681396 C65.61888077 25.54651184 66.79972748 25.54620972 68.01635742 25.54589844 C69.05338303 25.53701599 70.09040863 25.52813354 71.15885925 25.51898193 C74.77313539 26.13089534 76.44201065 27.41349961 79 30 C79.43350042 32.69113818 79.56194034 34.75949339 79.4609375 37.43359375 C79.4578976 38.90169187 79.4553073 40.36979098 79.453125 41.83789062 C79.41971986 44.14014344 79.37490142 46.44158366 79.31933594 48.7434082 C78.72692719 57.3291415 78.72692719 57.3291415 81.51293945 65.02148438 C83.59165794 66.52444609 83.59165794 66.52444609 87 68 C90.99964316 72.75145579 91.63850955 78.27406782 91.37890625 84.3203125 C90.67227026 89.31775876 89.04235357 93.13867323 85.28125 96.56640625 C79.14677854 101.12826956 73.5342081 101.72147 66 101 C60.36855795 99.42887499 57.08084868 96.50949511 53.91015625 91.68359375 C50.99636997 86.29371441 51.02546966 79.49304551 52.6484375 73.67578125 C54.92324364 68.57204952 54.92324364 68.57204952 57.65049744 67.12313843 C59.82706817 65.93380107 61.34419316 64.85868219 63 63 C64.01560646 59.23269889 63.97974504 55.5715591 63.9375 51.6875 C63.96166992 50.14739258 63.96166992 50.14739258 63.98632812 48.57617188 C64.02158511 46.04942161 64.02511809 43.52675255 64 41 C62.88579681 41.01332367 62.88579681 41.01332367 61.74908447 41.0269165 C54.74550095 41.10709744 47.74207665 41.16798186 40.73816299 41.20724869 C37.13741714 41.22811513 33.53705084 41.25641421 29.93652344 41.30175781 C26.46112087 41.34525125 22.98608312 41.36914421 19.51042938 41.37950897 C17.54054216 41.39048615 15.57080153 41.421707 13.60113525 41.45318604 C11.79972076 41.45363922 11.79972076 41.45363922 9.96191406 41.45410156 C8.3763974 41.46742523 8.3763974 41.46742523 6.7588501 41.48101807 C3.27148381 40.87297989 2.10157734 39.80793912 0 37 C-0.34898973 34.04071721 -0.46784199 31.46546479 -0.390625 28.515625 C-0.38496521 27.70003113 -0.37930542 26.88443726 -0.37347412 26.04412842 C-0.35112727 23.44548228 -0.30093622 20.84822758 -0.25 18.25 C-0.22993271 16.48569703 -0.21168234 14.7213724 -0.1953125 12.95703125 C-0.1512683 8.63748672 -0.08225422 4.31897907 0 0 Z " fill="#FCCD56" transform="translate(323,389)"/>
<path d="M0 0 C5.41531837 3.83034714 8.53845934 7.42079265 10.5625 13.8125 C11.55961629 20.56127489 10.21038143 25.1068393 6.5625 30.8125 C4.2525 32.7925 1.9425 34.7725 -0.4375 36.8125 C-0.7675 49.3525 -1.0975 61.8925 -1.4375 74.8125 C24.6325 74.8125 50.7025 74.8125 77.5625 74.8125 C75.9125 76.1325 74.2625 77.4525 72.5625 78.8125 C70.82213626 80.34151522 69.09292223 81.88331317 67.375 83.4375 C66.08529297 84.60152344 66.08529297 84.60152344 64.76953125 85.7890625 C63.33924573 87.10036852 61.93458603 88.44041397 60.5625 89.8125 C57.57754517 90.07992554 57.57754517 90.07992554 53.69775391 90.10302734 C52.63893761 90.11310318 52.63893761 90.11310318 51.55873108 90.12338257 C49.21877048 90.14242328 46.87909581 90.1462899 44.5390625 90.1484375 C42.91482423 90.15486175 41.29058713 90.16158982 39.66635132 90.16860962 C36.25833453 90.18059794 32.85041921 90.18428891 29.44238281 90.18310547 C25.07513861 90.18290231 20.70854539 90.21019393 16.34145546 90.24464989 C12.98541272 90.26688886 9.62952731 90.27094393 6.27341843 90.26988602 C4.6634535 90.27224692 3.05348456 90.28109797 1.44359207 90.29655075 C-0.80938995 90.31614909 -3.06096006 90.31039817 -5.31396484 90.29833984 C-6.59588715 90.30118988 -7.87780945 90.30403992 -9.19857788 90.30697632 C-12.4375 89.8125 -12.4375 89.8125 -14.85455322 88.087677 C-16.70437562 85.42891839 -16.92300367 84.13397266 -16.88818359 80.92382812 C-16.88853607 79.95602417 -16.88888855 78.98822021 -16.88925171 77.99108887 C-16.86286118 76.43315613 -16.86286118 76.43315613 -16.8359375 74.84375 C-16.84067229 72.64192601 -16.84589555 70.44010303 -16.8515625 68.23828125 C-16.83679972 64.76853654 -16.81236565 61.29918987 -16.77734375 57.82958984 C-16.75073803 54.47964494 -16.76025674 51.13123956 -16.7734375 47.78125 C-16.75179535 46.74262817 -16.7301532 45.70400635 -16.70785522 44.63391113 C-16.72668343 41.89655741 -16.79070794 39.47278848 -17.4375 36.8125 C-20.20562299 34.13466716 -20.20562299 34.13466716 -23.4375 32.8125 C-27.65519109 28.58500033 -28.8169403 24.19911158 -29.0625 18.3125 C-28.74913031 11.18746279 -26.88531289 7.06124749 -21.74609375 2.21875 C-15.30289451 -2.62373794 -7.42335042 -2.56443015 0 0 Z " fill="#FCCC56" transform="translate(44.4375,129.1875)"/>
<path d="M0 0 C9.69241679 -0.09040461 19.3845531 -0.16377548 29.07729626 -0.20724869 C33.57813888 -0.22811471 38.07867784 -0.25641412 42.5793457 -0.30175781 C46.92358188 -0.34525108 51.26752616 -0.36914452 55.61196327 -0.37950897 C57.26857409 -0.38689413 58.92516911 -0.4013158 60.5816555 -0.42292023 C62.90398935 -0.45200152 65.22512049 -0.45595419 67.54760742 -0.45410156 C68.23093643 -0.46848267 68.91426544 -0.48286377 69.61830139 -0.49768066 C73.01327662 -0.46841779 74.97928684 -0.0121095 77.93029785 1.71313477 C80.37283308 4.41195251 80.61289619 5.45862197 80.56762695 9.04394531 C80.5672493 10.04468079 80.56687164 11.04541626 80.56648254 12.07647705 C80.54067612 13.14952087 80.51486969 14.2225647 80.48828125 15.328125 C80.48120651 16.43226746 80.47413177 17.53640991 80.46684265 18.67401123 C80.43885763 22.20003045 80.37610756 25.72446087 80.3125 29.25 C80.28742262 31.64060207 80.26460848 34.03122902 80.24414062 36.421875 C80.18901746 42.28179194 80.10534896 48.14078247 80 54 C80.78858398 54.29583984 81.57716797 54.59167969 82.38964844 54.89648438 C85.19887663 56.0840743 86.35998855 57.15240682 88.25 59.5 C88.75015625 60.1084375 89.2503125 60.716875 89.765625 61.34375 C93.35681923 66.16231441 92.37213065 72.24952826 92 78 C90.29467119 83.51724027 86.64215862 86.76849734 82 90 C76.741358 92.68775036 71.63822385 92.21714039 66 91 C60.32994841 88.98592762 56.87966682 85.12866281 54 80 C52.09051724 74.27155171 52.08814285 68.22437495 54.625 62.6875 C56.803877 58.85112013 59.39176337 56.51007765 63 54 C63.66 54 64.32 54 65 54 C65 41.13 65 28.26 65 15 C42.89 15 20.78 15 -2 15 C-1.34 10.05 -0.68 5.1 0 0 Z " fill="#FCCC56" transform="translate(404,283)"/>
<path d="M0 0 C-0.00037703 0.65083683 -0.00075405 1.30167366 -0.0011425 1.97223282 C-0.00825795 17.8046786 0.01762146 33.63667399 0.0802784 49.4689827 C0.10978226 57.12539042 0.12809574 64.78152031 0.12011719 72.43798828 C0.1131918 79.11099099 0.12720997 85.78356378 0.16643608 92.45646071 C0.18647623 95.99025226 0.19598828 99.52336857 0.18042374 103.05719757 C0.16344531 107.00109798 0.19322359 110.94388693 0.22705078 114.88769531 C0.21482986 116.060858 0.20260895 117.23402069 0.1900177 118.44273376 C0.236193 121.41934505 0.31769942 124.10239881 1 127 C3.75657649 129.75034191 3.75657649 129.75034191 7 131 C8.64453125 132.78125 8.64453125 132.78125 9.8125 134.5 C10.21082031 135.0671875 10.60914063 135.634375 11.01953125 136.21875 C13.54293158 140.80309482 13.60790854 145.91182459 12.609375 150.984375 C10.80739854 156.94475866 7.04179551 160.49310595 2 164 C-3.84780342 165.94926781 -10.52211492 165.78007493 -16.375 163.9375 C-21.67576899 160.02502765 -25.62792385 155.58596553 -27 149 C-27.62207058 142.15722359 -25.77794497 137.04788064 -21.5625 131.6875 C-19 129 -19 129 -15 127 C-14.67 85.42 -14.34 43.84 -14 1 C-4 0 -4 0 0 0 Z " fill="#FCCC56" transform="translate(263,331)"/>
<path d="M0 0 C1.30873581 -0.03843018 2.61747162 -0.07686035 3.96586609 -0.11645508 C5.38842962 -0.13585353 6.81102588 -0.15296727 8.23364258 -0.16796875 C8.95575739 -0.17927826 9.6778722 -0.19058777 10.42186928 -0.20223999 C14.24598602 -0.26208796 18.06950452 -0.2990751 21.89404297 -0.31640625 C25.82223052 -0.33829708 29.74483409 -0.4342821 33.67127514 -0.54829407 C36.71113864 -0.62326655 39.74969021 -0.64364486 42.79039955 -0.64974976 C44.23660027 -0.66176316 45.6827907 -0.69356917 47.12807274 -0.74649048 C58.09771805 -1.11938233 58.09771805 -1.11938233 62.02521133 1.83746338 C65.33631252 5.08318697 67.85200184 8.80664002 70.44067383 12.64453125 C71.43067383 13.63453125 72.42067383 14.62453125 73.44067383 15.64453125 C50.34067383 15.64453125 27.24067383 15.64453125 3.44067383 15.64453125 C3.44067383 28.51453125 3.44067383 41.38453125 3.44067383 54.64453125 C5.09067383 55.30453125 6.74067383 55.96453125 8.44067383 56.64453125 C13.25292523 61.6806083 15.48865952 65.54753538 15.81567383 72.45703125 C15.67516687 78.35832369 13.9974954 82.74876503 10.08520508 87.1796875 C5.91591763 91.01364351 1.61089974 92.60421041 -4.01635742 92.67578125 C-10.3473752 92.29611002 -14.48601187 90.83476512 -18.99682617 86.15234375 C-23.87026975 80.58664966 -23.90802814 75.95625013 -23.83666992 68.8125 C-23.34188998 63.16085873 -20.4743215 60.35403691 -16.43432617 56.76953125 C-13.55932617 54.64453125 -13.55932617 54.64453125 -11.55932617 54.64453125 C-11.57042923 54.02700989 -11.58153229 53.40948853 -11.5929718 52.77325439 C-11.70353674 46.34963435 -11.77898154 39.92628426 -11.83398438 33.50195312 C-11.85913829 31.104055 -11.89326537 28.70623361 -11.93652344 26.30859375 C-11.99713352 22.86308876 -12.02552773 19.41859679 -12.04760742 15.97265625 C-12.07341385 14.89961243 -12.09922028 13.8265686 -12.12580872 12.7210083 C-12.12618637 11.72027283 -12.12656403 10.71953735 -12.12695312 9.68847656 C-12.13805618 8.80911438 -12.14915924 7.9297522 -12.16059875 7.02374268 C-10.63607822 0.99127624 -5.50118617 0.13076651 0 0 Z " fill="#FCCC56" transform="translate(39.559326171875,282.35546875)"/>
<path d="M0 0 C5.02418295 2.82193198 8.7093106 6.68398996 10.62109375 12.15625 C11.71313587 19.31718196 11.4376861 25.40249194 7.30078125 31.47265625 C5.62109375 33.15625 5.62109375 33.15625 2.55761719 34.57592773 C-0.5117487 36.77514962 -0.5117487 36.77514962 -0.92001343 39.3818512 C-1.10520133 42.31100546 -1.1041151 45.19054415 -1.04296875 48.125 C-1.04929825 49.73368958 -1.04929825 49.73368958 -1.05575562 51.37487793 C-1.06663552 54.80270321 -1.03850467 58.22860348 -1.00390625 61.65625 C-0.97988139 65.0836362 -0.96465876 68.51015652 -0.97348022 71.93762207 C-0.97806585 74.07007865 -0.9632721 76.20268324 -0.92715454 78.33483887 C-0.92750702 79.30264282 -0.9278595 80.27044678 -0.92822266 81.26757812 C-0.91900787 82.1171106 -0.90979309 82.96664307 -0.90029907 83.84191895 C-1.56888304 87.0748931 -2.73375351 88.21718347 -5.37890625 90.15625 C-8.17572021 90.63726807 -8.17572021 90.63726807 -11.43261719 90.61035156 C-12.65358093 90.61004944 -13.87454468 90.60974731 -15.13250732 90.60943604 C-16.44616272 90.58879089 -17.75981812 90.56814575 -19.11328125 90.546875 C-20.47519093 90.53941087 -21.83711137 90.53371874 -23.19903564 90.52972412 C-26.77660993 90.51448092 -30.35353047 90.47521181 -33.93084717 90.4309082 C-37.58401649 90.38992632 -41.23729187 90.37170697 -44.890625 90.3515625 C-52.05371739 90.3087149 -59.21613679 90.23837736 -66.37890625 90.15625 C-66.37890625 85.20625 -66.37890625 80.25625 -66.37890625 75.15625 C-49.87890625 75.15625 -33.37890625 75.15625 -16.37890625 75.15625 C-16.37890625 69.030625 -16.37890625 62.905 -16.37890625 56.59375 C-16.35828125 54.67361084 -16.33765625 52.75347168 -16.31640625 50.77514648 C-16.11641737 42.21808679 -16.11641737 42.21808679 -19.15625 34.49804688 C-21.2324515 32.6264419 -21.2324515 32.6264419 -23.46875 31.33374023 C-26.72123177 29.32879141 -27.39651024 26.71743552 -28.37890625 23.15625 C-29.12843437 17.13860997 -28.37559443 12.52962192 -25.37890625 7.15625 C-18.81390514 -0.65077835 -9.82847834 -3.48596276 0 0 Z " fill="#FCCC56" transform="translate(485.37890625,128.84375)"/>
<path d="M0 0 C4.51878845 3.79989028 7.56744401 7.56065235 8.3203125 13.546875 C8.58012969 19.8171299 7.93220285 24.95900739 4 30 C-1.61033706 35.11305718 -6.6331805 36.38460004 -14.1484375 36.265625 C-19.53942009 35.76345128 -23.03393946 33.99132042 -26.82421875 30.15234375 C-30.87690838 24.94714098 -31.82344581 20.4036869 -31.44921875 13.8671875 C-30.50195054 7.82114519 -28.40324267 3.77420198 -23.5 0.0625 C-16.3081397 -4.75931543 -7.34304534 -4.0951599 0 0 Z " fill="#66D4F0" transform="translate(129,454)"/>
<path d="M0 0 C3.85535589 3.00735244 6.19175675 6.75105149 7.72265625 11.34375 C8.41805786 18.40036637 8.19722145 24.59073759 3.72265625 30.34375 C-1.69115536 35.38073018 -6.69065859 36.66615175 -13.96875 36.55859375 C-20.17793775 35.98075056 -24.36968721 33.01122865 -28.27734375 28.34375 C-32.1525255 22.86504477 -32.28118187 16.80647643 -31.27734375 10.34375 C-29.25032349 5.33188671 -26.26224907 1.54615789 -21.58984375 -1.21875 C-14.52006864 -4.15209837 -6.63620787 -3.81547886 0 0 Z " fill="#66D4F0" transform="translate(129.27734375,24.65625)"/>
<path d="M0 0 C4.94754234 2.84458286 7.84443678 7.09581034 9.625 12.4375 C10.32040161 19.49411637 10.0995652 25.68448759 5.625 31.4375 C0.21118839 36.47448018 -4.78831484 37.75990175 -12.06640625 37.65234375 C-18.275594 37.07450056 -22.46734346 34.10497865 -26.375 29.4375 C-30.05943055 24.10142817 -30.15827596 18.70370768 -29.375 12.4375 C-27.77656659 6.80492513 -24.89726686 3.52673992 -20.05859375 0.34765625 C-14.09847781 -2.87440179 -6.12502021 -2.73000901 0 0 Z " fill="#66D3F0" transform="translate(404.375,23.5625)"/>
<path d="M0 0 C4.5837028 4.70758666 6.5474226 9.28462729 6.8125 15.875 C6.58812912 21.10067007 5.55786787 25.21451386 2.3125 29.375 C-3.29978833 34.4898355 -8.31742135 35.74770579 -15.83203125 35.6484375 C-20.9376313 35.15952915 -24.78073208 33.46721418 -28.25390625 29.65625 C-32.81576956 23.52177854 -33.40897 17.9092081 -32.6875 10.375 C-31.12937543 4.79015592 -28.22561998 1.47442135 -23.46875 -1.71484375 C-16.09385545 -5.4831561 -6.87511159 -4.15704422 0 0 Z " fill="#66D4F0" transform="translate(407.6875,454.625)"/>
<path d="M0 0 C5.41531837 3.83034714 8.53845934 7.42079265 10.5625 13.8125 C11.51802135 20.27974815 10.39569034 25.49297055 6.5625 30.8125 C2.58090314 35.06200012 -0.65777709 37.4430534 -6.515625 38.015625 C-12.54813743 38.14582311 -18.32612806 37.63168727 -22.9765625 33.41796875 C-28.14729248 27.44592682 -28.95646573 22.8370549 -28.80859375 15.078125 C-28.1567282 9.34170819 -25.86489299 6.09974328 -21.74609375 2.21875 C-15.30289451 -2.62373794 -7.42335042 -2.56443015 0 0 Z " fill="#66D4F0" transform="translate(44.4375,129.1875)"/>
<path d="M0 0 C5.02418295 2.82193198 8.7093106 6.68398996 10.62109375 12.15625 C11.56421852 18.34067474 11.68357284 24.18205743 8.49609375 29.71875 C5.14850033 34.21381879 1.13398638 37.05160672 -4.37890625 38.15625 C-10.36289484 38.73142081 -15.08440266 38.25303512 -20.37890625 35.15625 C-25.47839721 30.39750844 -28.39368222 25.83135512 -28.69140625 18.78125 C-28.53753878 12.99198651 -26.80619861 8.85357065 -23.06640625 4.40625 C-16.33690368 -1.22775215 -8.48351953 -3.00893304 0 0 Z " fill="#66D4F0" transform="translate(485.37890625,128.84375)"/>
<path d="M0 0 C5.24341284 3.96453166 9.19226229 8.36035899 10.5625 14.9375 C11.18099403 21.74093433 9.32244085 26.83759474 5.25 32.25 C0.69092397 36.80907603 -4.16292829 37.24369987 -10.4375 37.3125 C-15.96047814 37.21377168 -19.38196362 36.99303638 -23.4375 32.9375 C-28.35153794 27.11895508 -29.95310143 22.67152146 -29.4375 14.9375 C-28.0502458 7.89024868 -24.10737715 4.09059473 -18.4375 -0.0625 C-13.25781355 -2.65234323 -5.36194873 -1.65732961 0 0 Z " fill="#65D4F0" transform="translate(265.4375,17.0625)"/>
<path d="M0 0 C0.69480469 -0.02449219 1.38960938 -0.04898437 2.10546875 -0.07421875 C7.29090531 -0.103515 10.15384257 1.10737119 14.125 4.375 C15.76953125 6.15625 15.76953125 6.15625 16.9375 7.875 C17.33582031 8.4421875 17.73414063 9.009375 18.14453125 9.59375 C20.66793158 14.17809482 20.73290854 19.28682459 19.734375 24.359375 C17.93239854 30.31975866 14.16679551 33.86810595 9.125 37.375 C3.27719658 39.32426781 -3.39711492 39.15507493 -9.25 37.3125 C-14.55076899 33.40002765 -18.50292385 28.96096553 -19.875 22.375 C-20.49707058 15.53222359 -18.65294497 10.42288064 -14.4375 5.0625 C-9.97590434 0.38326553 -6.3203652 0.011597 0 0 Z " fill="#65D4F0" transform="translate(255.875,457.625)"/>
<path d="M0 0 C4.41717375 3.96727642 7.58467798 8.26210184 8.25 14.25 C8.58561278 21.13006207 7.25062263 26.31845909 2.64453125 31.53515625 C-1.52475619 35.36911226 -5.82977409 36.95967916 -11.45703125 37.03125 C-17.78804902 36.65157877 -21.9266857 35.19023387 -26.4375 30.5078125 C-31.31094358 24.94211841 -31.34870196 20.31171888 -31.27734375 13.16796875 C-30.78549765 7.54983932 -27.95927687 4.74792591 -23.9375 1.1875 C-17.39030218 -3.68807284 -7.28727493 -3.28641811 0 0 Z " fill="#65D4F0" transform="translate(47,338)"/>
<path d="M0 0 C5.00326899 4.89007286 7.15309839 8.17618274 7.25 15.25 C7.17702651 21.28026409 6.7492307 25.13274677 2.453125 29.61328125 C-1.73406225 33.49476678 -5.46145921 35.95885418 -11.3515625 36.02734375 C-17.26616689 35.67890029 -21.23936631 34.54713883 -26 31 C-30.78774437 25.54072785 -32.37243505 20.88088262 -32.27734375 13.6328125 C-31.6895405 8.05282112 -29.19290138 3.79800512 -25.0625 0.0625 C-17.82713676 -4.81029565 -7.40002355 -4.4115525 0 0 Z " fill="#65D4F1" transform="translate(489,339)"/>
<path d="M0 0 C0 23.43 0 46.86 0 71 C-4.62 71.99 -9.24 72.98 -14 74 C-14 49.91 -14 25.82 -14 1 C-1 0 -1 0 0 0 Z " fill="#FCCC56" transform="translate(263,53)"/>
</svg>
