<?xml version="1.0" encoding="UTF-8"?>
<svg version="1.1" xmlns="http://www.w3.org/2000/svg" width="512" height="512">
<path d="M0 0 C4.67938462 2.02649181 8.16332637 6.57803232 11.70845032 10.13357544 C13.05326477 11.43585083 13.05326477 11.43585083 14.42524719 12.76443481 C15.68885071 14.02417114 15.68885071 14.02417114 16.97798157 15.30935669 C17.75375549 16.07804077 18.52952942 16.84672485 19.32881165 17.63870239 C20.89595032 19.82107544 20.89595032 19.82107544 20.7247467 21.70533752 C19.67202535 24.39270745 18.25296698 25.82441585 16.2023468 27.85525513 C15.42161301 28.63576233 14.64087921 29.41626953 13.83648682 30.22042847 C12.98857071 31.05286072 12.1406546 31.88529297 11.26704407 32.74295044 C9.97069786 34.03292938 9.97069786 34.03292938 8.64816284 35.34896851 C5.8835442 38.09678119 3.1086817 40.8339858 0.33345032 43.57107544 C-1.5415822 45.43106369 -3.41593987 47.29173251 -5.28959656 49.15310669 C-9.88660985 53.71702517 -14.49207923 58.27227482 -19.10404968 62.82107544 C-17.82382094 65.63077011 -16.49690839 67.67499924 -14.3066864 69.8454895 C-13.74625641 70.40576843 -13.18582642 70.96604736 -12.6084137 71.54330444 C-12.00627045 72.13512512 -11.4041272 72.7269458 -10.78373718 73.33670044 C-10.16507782 73.95252991 -9.54641846 74.56835938 -8.90901184 75.20285034 C-6.93701155 77.1636788 -4.95816232 79.11742845 -2.97904968 81.07107544 C-1.63874805 82.40134342 -0.29889886 83.73206744 1.04048157 85.06326294 C4.3204162 88.32117694 7.60650974 91.57276077 10.89595032 94.82107544 C9.51004198 97.90047725 7.88991272 100.13603134 5.59483337 102.60494995 C4.9120784 103.34248001 4.22932343 104.08001007 3.52587891 104.83988953 C2.77611282 105.63902267 2.02634674 106.43815582 1.25386047 107.26150513 C0.46283432 108.11064987 -0.32819183 108.95979462 -1.14318848 109.83467102 C-8.49214287 117.69379886 -15.94443725 125.45405648 -23.43324852 133.17977524 C-28.45238271 138.36149936 -33.43217201 143.57148297 -38.3276825 148.87039185 C-74.85894932 188.34952559 -74.85894932 188.34952559 -93.6698761 189.08334351 C-104.56876215 188.92477664 -114.8985364 187.50408568 -122.85404968 179.32107544 C-124.5173485 177.20684278 -125.79281318 175.18389765 -127.10404968 172.82107544 C-130.40501013 174.26506004 -132.60145651 176.06092969 -135.15068054 178.5930481 C-135.93507004 179.36790558 -136.71945953 180.14276306 -137.52761841 180.94110107 C-138.36623917 181.78063324 -139.20485992 182.62016541 -140.06889343 183.48513794 C-140.93921707 184.35117645 -141.80954071 185.21721497 -142.70623779 186.10949707 C-144.5470412 187.94455695 -146.38522847 189.78224433 -148.22099304 191.62234497 C-151.01863203 194.42313199 -153.82928173 197.21037379 -156.64115906 199.99685669 C-158.43038181 201.78380515 -160.21881892 203.57154066 -162.00639343 205.36013794 C-162.84298996 206.18752472 -163.67958649 207.0149115 -164.54153442 207.86737061 C-173.89928085 217.29912891 -179.09570305 226.20178406 -179.54154968 239.69607544 C-179.21948481 251.58671068 -175.10968973 261.03196528 -167.10404968 269.82107544 C-164.29012247 272.30001132 -161.43632865 274.11376282 -158.10404968 275.82107544 C-157.35252625 276.23228638 -156.60100281 276.64349731 -155.82670593 277.06716919 C-139.66777689 284.44462652 -119.25771834 279.5666085 -103.30058289 273.85232544 C-84.59729674 266.71710782 -70.39052066 252.91048421 -55.98686218 239.48904419 C-53.72169376 237.39268913 -51.43890401 235.33842866 -49.10404968 233.32107544 C-45.53053182 230.23210237 -42.06693855 227.0326533 -38.60404968 223.82107544 C-34.52106095 220.03473638 -30.40635154 216.30340411 -26.19389343 212.66091919 C-23.4603437 210.25437353 -20.78292614 207.78802595 -18.10404968 205.32107544 C-14.16569646 201.69505754 -10.19362095 198.11839012 -6.14311218 194.61795044 C-3.69264622 192.45853599 -1.31069793 190.23023462 1.08345032 188.00857544 C35.29312542 156.95164894 76.11788622 144.02716001 121.89595032 145.82107544 C161.23153006 148.58216903 198.71835303 168.54843282 224.56513977 197.98904419 C230.12511109 204.46897217 235.3529685 211.19190206 240.50630188 217.99734497 C243.19218946 221.52221851 245.92210408 225.0130102 248.64595032 228.50857544 C249.84910088 230.05412846 251.05222564 231.59970156 252.25532532 233.14529419 C252.85796204 233.91921509 253.46059875 234.69313599 254.08149719 235.49050903 C257.60157484 240.01185743 261.11861256 244.53557068 264.63618469 249.05886841 C267.60194244 252.87234135 270.56850282 256.68518498 273.53657532 260.49685669 C280.35121511 269.25015981 287.14581279 278.01790069 293.89595032 286.82107544 C286.38723229 294.50824563 278.21945273 301.44213174 268.89595032 306.82107544 C262.81815338 299.72134805 257.06487998 292.46078075 251.49824524 284.95559692 C248.07517073 280.35504137 244.5613937 275.84441896 240.95845032 271.38357544 C236.66752104 266.06932177 232.46987461 260.69400673 228.33345032 255.25857544 C223.90615201 249.44122748 219.45151513 243.64929575 214.91255188 237.91848755 C212.6636098 235.07881141 210.43825173 232.22659105 208.25923157 229.33279419 C186.55220268 200.69002717 159.09652027 184.43473412 123.66938782 178.25857544 C92.52940644 174.64814282 59.95809519 182.73401146 34.89595032 201.82107544 C26.21778534 208.75483377 18.10617644 216.33629912 10.00532532 223.92654419 C7.04611422 226.69395456 4.01837016 229.36997506 0.95063782 232.01638794 C-1.77329672 234.40889318 -4.43748237 236.86513486 -7.10404968 239.32107544 C-11.01381736 242.92125434 -14.96271572 246.46525267 -18.97904968 249.94607544 C-21.72228387 252.36657619 -24.41289537 254.84308186 -27.10404968 257.32107544 C-31.02149192 260.92822523 -34.97366416 264.48378197 -39.00639343 267.96170044 C-41.10309777 269.82023166 -43.13492408 271.7393326 -45.16947937 273.66531372 C-73.08421859 299.87749056 -106.25502716 313.2058051 -144.63529968 312.19607544 C-165.48202089 311.2376055 -181.1722381 301.49284433 -195.11967468 286.68045044 C-208.29605507 271.12994746 -212.32845713 252.28879664 -211.31547546 232.37771606 C-208.9359519 203.60361593 -187.26513046 184.81076984 -168.04154968 165.69607544 C-166.4924877 164.15203919 -164.94365768 162.60777018 -163.39506531 161.06326294 C-159.63406325 157.31317976 -155.8702093 153.56597856 -152.10404968 149.82107544 C-153.66151454 145.81626838 -156.30111331 143.82178683 -159.51225281 141.056427 C-166.07641804 134.80366501 -168.23382859 127.99525415 -168.57279968 119.05545044 C-168.60224167 118.29185966 -168.63168365 117.52826889 -168.66201782 116.741539 C-168.73542377 99.67651103 -158.54416984 88.87757773 -147.10758972 77.31178856 C-140.04716074 70.23794126 -132.80551844 63.37091626 -125.46505165 56.58909845 C-120.01162316 51.54367794 -114.66484813 46.3906141 -109.32262135 41.2279973 C-98.36076305 30.63921848 -87.2777701 20.18640417 -76.10404968 9.82107544 C-73.31714924 11.16589086 -71.26262326 12.41560574 -69.07963562 14.61843872 C-68.51935669 15.17886871 -67.95907776 15.73929871 -67.38182068 16.31671143 C-66.79 16.91885468 -66.19817932 17.52099792 -65.58842468 18.14138794 C-64.97259521 18.7600473 -64.35676575 19.37870667 -63.72227478 20.01611328 C-61.76144632 21.98811357 -59.80769668 23.96696281 -57.85404968 25.94607544 C-56.5237817 27.28637708 -55.19305769 28.62622627 -53.86186218 29.96560669 C-50.60394818 33.24554133 -47.35236435 36.53163486 -44.10404968 39.82107544 C-40.82658159 38.39116674 -38.70884636 36.64770359 -36.22514343 34.08987427 C-35.47756775 33.32600906 -34.72999207 32.56214386 -33.95976257 31.77513123 C-32.76274719 30.53910408 -32.76274719 30.53910408 -31.54154968 29.27810669 C-29.84145792 27.54786728 -28.14092369 25.81806254 -26.43998718 24.08865356 C-23.76182984 21.35455753 -21.0877399 18.61678028 -18.4214325 15.87112427 C-15.84746266 13.22491843 -13.25832402 10.59436001 -10.66654968 7.96560669 C-9.4695343 6.7204705 -9.4695343 6.7204705 -8.24833679 5.45018005 C-7.50076111 4.69577133 -6.75318542 3.94136261 -5.98295593 3.16409302 C-5.00177795 2.15721184 -5.00177795 2.15721184 -4.0007782 1.12998962 C-2.10404968 -0.17892456 -2.10404968 -0.17892456 0 0 Z " fill="#454E74" transform="translate(212.1040496826172,200.17892456054688)"/>
<path d="M0 0 C14.03344631 11.9714425 24.38493538 27.93783688 26.70703125 46.45703125 C28.37878115 68.37099944 24.23383005 87.39732698 9.70703125 104.45703125 C1.52292739 113.98396604 -7.45577189 122.73274413 -16.35546875 131.58203125 C-17.90453074 133.1260675 -19.45336075 134.67033651 -21.00195312 136.21484375 C-24.76295518 139.96492693 -28.52680914 143.71212813 -32.29296875 147.45703125 C-30.49620395 151.42113101 -28.17204443 153.35134666 -24.84765625 156.17578125 C-18.61967507 162.0546228 -16.7841188 168.27083164 -16.46142578 176.67617798 C-16.43991455 177.80520035 -16.43991455 177.80520035 -16.41796875 178.95703125 C-16.3917041 179.72784027 -16.36543945 180.49864929 -16.33837891 181.29281616 C-16.20122914 193.90493379 -20.60109788 201.67800303 -29.10574341 210.76400757 C-36.42713097 218.20288579 -44.24827504 225.08495189 -52.26245117 231.76271057 C-59.67499818 237.94794719 -66.55088013 244.58096194 -73.35546875 251.421875 C-74.39756615 252.46584191 -75.43988784 253.50958497 -76.48242188 254.55311584 C-79.20041321 257.27489047 -81.91538565 259.99965648 -84.62969971 262.72509766 C-87.41013893 265.51584198 -90.19347904 268.30368996 -92.9765625 271.09179688 C-98.41817717 276.54407483 -103.85659978 281.99952234 -109.29296875 287.45703125 C-114.57176362 283.04639398 -119.48925766 278.39870684 -124.33959961 273.52392578 C-125.11115387 272.75251755 -125.88270813 271.98110931 -126.67764282 271.18632507 C-129.20674593 268.65652981 -131.7322965 266.12321963 -134.2578125 263.58984375 C-136.01878855 261.82700104 -137.7799867 260.06438016 -139.54139709 258.30197144 C-144.16148942 253.67807344 -148.77856987 249.05117944 -153.39501953 244.42364502 C-158.11216143 239.69570136 -162.83270626 234.97115566 -167.55273438 230.24609375 C-176.8022691 220.98585611 -186.0487204 211.722546 -195.29296875 202.45703125 C-193.90706041 199.37762944 -192.28693115 197.14207535 -189.99185181 194.67315674 C-189.30909683 193.93562668 -188.62634186 193.19809662 -187.92289734 192.43821716 C-187.17313126 191.63908401 -186.42336517 190.83995087 -185.65087891 190.01660156 C-184.85985275 189.16745682 -184.0688266 188.31831207 -183.25382996 187.44343567 C-175.90487556 179.58430783 -168.45258118 171.82405021 -160.96376991 164.09833145 C-155.94463573 158.91660733 -150.96484643 153.70662372 -146.06933594 148.40771484 C-109.53806911 108.9285811 -109.53806911 108.9285811 -90.72714233 108.19476318 C-79.82825628 108.35333005 -69.49848203 109.77402101 -61.54296875 117.95703125 C-59.87966994 120.07126391 -58.60420525 122.09420903 -57.29296875 124.45703125 C-53.9920083 123.01304665 -51.79556193 121.217177 -49.24633789 118.68505859 C-48.46194839 117.91020111 -47.6775589 117.13534363 -46.86940002 116.33700562 C-46.03077927 115.49747345 -45.19215851 114.65794128 -44.328125 113.79296875 C-43.45780136 112.92693024 -42.58747772 112.06089172 -41.69078064 111.16860962 C-39.84997724 109.33354974 -38.01178996 107.49586236 -36.17602539 105.65576172 C-33.37838641 102.8549747 -30.5677367 100.0677329 -27.75585938 97.28125 C-25.96663663 95.49430154 -24.17819951 93.70656603 -22.390625 91.91796875 C-21.55402847 91.09058197 -20.71743195 90.26319519 -19.85548401 89.41073608 C-10.49773758 79.97897778 -5.30131538 71.07632263 -4.85546875 57.58203125 C-5.17753363 45.69139601 -9.2873287 36.24614141 -17.29296875 27.45703125 C-20.10689597 24.97809537 -22.96068978 23.16434387 -26.29296875 21.45703125 C-27.42025391 20.84021484 -27.42025391 20.84021484 -28.5703125 20.2109375 C-44.72924154 12.83348017 -65.13930009 17.71149819 -81.09643555 23.42578125 C-100.14119548 30.69126955 -114.56171473 44.86044448 -129.18359375 58.5625 C-132.14280484 61.32991038 -135.17054891 64.00593087 -138.23828125 66.65234375 C-140.96221578 69.04484899 -143.62640144 71.50109067 -146.29296875 73.95703125 C-150.20273643 77.55721015 -154.15163478 81.10120848 -158.16796875 84.58203125 C-160.91120331 87.00253233 -163.60179781 89.47905535 -166.29296875 91.95703125 C-170.23134644 95.58302329 -174.2033967 99.1597159 -178.25390625 102.66015625 C-180.70437222 104.8195707 -183.0863205 107.04787207 -185.48046875 109.26953125 C-219.57333793 140.22041661 -260.62314658 153.24670498 -306.29296875 151.45703125 C-345.62854849 148.69593766 -383.11537147 128.72967387 -408.9621582 99.2890625 C-414.52212952 92.80913452 -419.74998693 86.08620463 -424.90332031 79.28076172 C-427.58920789 75.75588818 -430.31912252 72.26509649 -433.04296875 68.76953125 C-434.24611931 67.22397823 -435.44924408 65.67840513 -436.65234375 64.1328125 C-437.25498047 63.3588916 -437.85761719 62.5849707 -438.47851562 61.78759766 C-441.99859328 57.26624926 -445.51563099 52.74253601 -449.03320312 48.21923828 C-451.99896087 44.40576534 -454.96552126 40.59292171 -457.93359375 36.78125 C-464.74823354 28.02794688 -471.54283122 19.260206 -478.29296875 10.45703125 C-470.78425073 2.76986106 -462.61647116 -4.16402505 -453.29296875 -9.54296875 C-447.21757669 -2.44605059 -441.46612188 4.81136922 -435.90185547 12.3137207 C-432.41473933 17.00047153 -428.83437993 21.59686186 -425.16796875 26.14453125 C-421.12224581 31.16268374 -417.13757421 36.21580999 -413.2199707 41.33496094 C-408.42797202 47.59552116 -403.58710244 53.81768045 -398.734375 60.03125 C-396.61545378 62.74672094 -394.51697274 65.47489726 -392.4453125 68.2265625 C-370.84967643 96.72381543 -343.27496388 112.94157341 -308.03125 119.01953125 C-276.9634033 122.65547569 -244.27852726 114.48576786 -219.29296875 95.45703125 C-210.61480378 88.52327291 -202.50319488 80.94180757 -194.40234375 73.3515625 C-191.44313266 70.58415212 -188.41538859 67.90813163 -185.34765625 65.26171875 C-182.62372172 62.86921351 -179.95953606 60.41297183 -177.29296875 57.95703125 C-173.38320107 54.35685235 -169.43430272 50.81285402 -165.41796875 47.33203125 C-162.67473457 44.9115305 -159.98412307 42.43502483 -157.29296875 39.95703125 C-153.37552651 36.34988146 -149.42335427 32.79432472 -145.390625 29.31640625 C-143.29392066 27.45787503 -141.26209435 25.53877409 -139.22753906 23.61279297 C-104.53970685 -8.95937563 -42.08021978 -33.73793384 0 0 Z " fill="#4C5D7F" transform="translate(484.29296875,14.54296875)"/>
<path d="M0 0 C4.67938462 2.02649181 8.16332637 6.57803232 11.70845032 10.13357544 C13.05326477 11.43585083 13.05326477 11.43585083 14.42524719 12.76443481 C15.68885071 14.02417114 15.68885071 14.02417114 16.97798157 15.30935669 C17.75375549 16.07804077 18.52952942 16.84672485 19.32881165 17.63870239 C20.89595032 19.82107544 20.89595032 19.82107544 20.7247467 21.70533752 C19.67202535 24.39270745 18.25296698 25.82441585 16.2023468 27.85525513 C15.42161301 28.63576233 14.64087921 29.41626953 13.83648682 30.22042847 C12.98857071 31.05286072 12.1406546 31.88529297 11.26704407 32.74295044 C9.97069786 34.03292938 9.97069786 34.03292938 8.64816284 35.34896851 C5.8835442 38.09678119 3.1086817 40.8339858 0.33345032 43.57107544 C-1.5415822 45.43106369 -3.41593987 47.29173251 -5.28959656 49.15310669 C-9.88660985 53.71702517 -14.49207923 58.27227482 -19.10404968 62.82107544 C-17.82382094 65.63077011 -16.49690839 67.67499924 -14.3066864 69.8454895 C-13.74625641 70.40576843 -13.18582642 70.96604736 -12.6084137 71.54330444 C-12.00627045 72.13512512 -11.4041272 72.7269458 -10.78373718 73.33670044 C-10.16507782 73.95252991 -9.54641846 74.56835938 -8.90901184 75.20285034 C-6.93701155 77.1636788 -4.95816232 79.11742845 -2.97904968 81.07107544 C-1.63874805 82.40134342 -0.29889886 83.73206744 1.04048157 85.06326294 C4.3204162 88.32117694 7.60650974 91.57276077 10.89595032 94.82107544 C9.51004198 97.90047725 7.88991272 100.13603134 5.59483337 102.60494995 C4.9120784 103.34248001 4.22932343 104.08001007 3.52587891 104.83988953 C2.77611282 105.63902267 2.02634674 106.43815582 1.25386047 107.26150513 C0.46283432 108.11064987 -0.32819183 108.95979462 -1.14318848 109.83467102 C-8.49214287 117.69379886 -15.94443725 125.45405648 -23.43324852 133.17977524 C-28.45238271 138.36149936 -33.4321719 143.57148307 -38.3276825 148.87039185 C-74.85896156 188.34952421 -74.85896156 188.34952421 -93.66682434 189.08334351 C-104.58826343 188.92442329 -114.91616208 187.47795882 -122.91654968 179.32107544 C-124.82261845 176.91065839 -126.46968143 174.41926343 -128.10404968 171.82107544 C-129.24061044 170.46198805 -130.40222839 169.12281062 -131.60404968 167.82107544 C-132.36395203 166.92582153 -132.36395203 166.92582153 -133.13920593 166.01248169 C-139.46968224 158.95204986 -146.29388453 152.1352771 -153.47904968 145.94607544 C-154.0349176 145.4618512 -154.59078552 144.97762695 -155.16349792 144.47872925 C-156.44228195 143.3863692 -157.75243701 142.32956115 -159.09269714 141.31356812 C-164.87147872 136.44065991 -167.11713219 131.11931466 -168.07780457 123.69662476 C-169.1709953 110.71601476 -167.4105792 100.8243355 -159.17529297 90.40576935 C-148.83648842 78.28488707 -137.15275983 67.38727487 -125.46504879 56.58910131 C-120.01162955 51.54367079 -114.66484821 46.39061418 -109.32262135 41.2279973 C-98.36076305 30.63921848 -87.2777701 20.18640417 -76.10404968 9.82107544 C-73.31714924 11.16589086 -71.26262326 12.41560574 -69.07963562 14.61843872 C-68.51935669 15.17886871 -67.95907776 15.73929871 -67.38182068 16.31671143 C-66.79 16.91885468 -66.19817932 17.52099792 -65.58842468 18.14138794 C-64.97259521 18.7600473 -64.35676575 19.37870667 -63.72227478 20.01611328 C-61.76144632 21.98811357 -59.80769668 23.96696281 -57.85404968 25.94607544 C-56.5237817 27.28637708 -55.19305769 28.62622627 -53.86186218 29.96560669 C-50.60394818 33.24554133 -47.35236435 36.53163486 -44.10404968 39.82107544 C-40.82658159 38.39116674 -38.70884636 36.64770359 -36.22514343 34.08987427 C-35.47756775 33.32600906 -34.72999207 32.56214386 -33.95976257 31.77513123 C-32.76274719 30.53910408 -32.76274719 30.53910408 -31.54154968 29.27810669 C-29.84145792 27.54786728 -28.14092369 25.81806254 -26.43998718 24.08865356 C-23.76182984 21.35455753 -21.0877399 18.61678028 -18.4214325 15.87112427 C-15.84746266 13.22491843 -13.25832402 10.59436001 -10.66654968 7.96560669 C-9.4695343 6.7204705 -9.4695343 6.7204705 -8.24833679 5.45018005 C-7.50076111 4.69577133 -6.75318542 3.94136261 -5.98295593 3.16409302 C-5.00177795 2.15721184 -5.00177795 2.15721184 -4.0007782 1.12998962 C-2.10404968 -0.17892456 -2.10404968 -0.17892456 0 0 Z " fill="#FEBD40" transform="translate(212.1040496826172,200.17892456054688)"/>
<path d="M0 0 C8.22164124 2.98429056 12.81777103 8.0041302 17.35560608 15.21801758 C18.49216684 16.57710497 19.65378479 17.9162824 20.85560608 19.21801758 C21.36220764 19.81485352 21.8688092 20.41168945 22.39076233 21.02661133 C28.72123864 28.08704315 35.54544093 34.90381591 42.73060608 41.09301758 C43.28570862 41.57818848 43.84081116 42.06335938 44.41273499 42.56323242 C45.6931471 43.65378699 47.01142806 44.70157773 48.36512756 45.69970703 C53.79806192 50.19144199 55.75771462 54.91822795 56.63996887 61.75727844 C56.84428476 64.01695238 56.96268492 66.26312405 57.04310608 68.53051758 C57.09374207 69.69797012 57.09374207 69.69797012 57.145401 70.88900757 C57.37960183 83.59876964 53.14521676 91.37180469 44.55230713 100.5344696 C37.22272893 107.96347368 29.3994806 114.8466208 21.38612366 121.5236969 C13.97357665 127.70893352 7.0976947 134.34194827 0.29310608 141.18286133 C-0.74899132 142.22682823 -1.79131301 143.2705713 -2.83384705 144.31410217 C-5.55183838 147.0358768 -8.26681082 149.76064281 -10.98112488 152.48608398 C-13.7615641 155.27682831 -16.54490421 158.06467629 -19.32798767 160.8527832 C-24.76960234 166.30506116 -30.20802495 171.76050867 -35.64439392 177.21801758 C-40.92318879 172.8073803 -45.84068283 168.15969317 -50.69102478 163.28491211 C-51.46257904 162.51350388 -52.2341333 161.74209564 -53.02906799 160.9473114 C-55.5581711 158.41751613 -58.08372167 155.88420596 -60.60923767 153.35083008 C-62.37021373 151.58798737 -64.13141187 149.82536649 -65.89282227 148.06295776 C-70.51291459 143.43905976 -75.12999504 138.81216576 -79.7464447 134.18463135 C-84.46358661 129.45668768 -89.18413143 124.73214199 -93.90415955 120.00708008 C-103.15369427 110.74684243 -112.40014557 101.48353233 -121.64439392 92.21801758 C-120.25848559 89.13861576 -118.63835632 86.90306168 -116.34327698 84.43414307 C-115.660522 83.69661301 -114.97776703 82.95908295 -114.27432251 82.19920349 C-113.14967339 81.00050377 -113.14967339 81.00050377 -112.00230408 79.77758789 C-110.81576485 78.50387077 -110.81576485 78.50387077 -109.60525513 77.204422 C-102.25630073 69.34529416 -94.80400635 61.58503653 -87.31519508 53.85931778 C-82.2960609 48.67759366 -77.31627171 43.46760994 -72.42076111 38.16870117 C-30.17210532 -7.48916564 -30.17210532 -7.48916564 0 0 Z " fill="#4792FE" transform="translate(410.64439392089844,124.781982421875)"/>
<path d="M0 0 C2.97816718 1.42432416 4.97931682 2.77903265 7.25 5.1875 C9.52738646 7.59453965 11.90221689 9.78381393 14.421875 11.9296875 C20.58573749 17.28067816 26.25343634 23.14758766 32 28.9375 C33.16773374 30.11026009 34.33570074 31.28278798 35.50390625 32.45507812 C38.33863234 35.30071689 41.17018824 38.14947453 44 41 C42.61409166 44.07940181 40.9939624 46.3149559 38.69888306 48.78387451 C38.01612808 49.52140457 37.33337311 50.25893463 36.62992859 51.01881409 C35.88016251 51.81794724 35.13039642 52.61708038 34.35791016 53.44042969 C33.566884 54.28957443 32.77585785 55.13871918 31.96086121 56.01359558 C24.61190681 63.87272342 17.15961243 71.63298104 9.67080116 79.3586998 C4.65166697 84.54042392 -0.32812221 89.75040763 -5.22363281 95.04931641 C-41.75491187 134.52844877 -41.75491187 134.52844877 -60.56277466 135.26226807 C-71.48385405 135.10335308 -81.81231652 133.65710761 -89.8125 125.5 C-91.28733616 123.62921377 -92.61625211 121.76020659 -93.88330078 119.74414062 C-95.42176373 117.34125927 -97.30525669 115.3295275 -99.25 113.25 C-99.75015625 112.65703125 -100.2503125 112.0640625 -100.765625 111.453125 C-102.08049325 109.86542205 -102.08049325 109.86542205 -104 108 C-103.80210663 103.91157647 -101.19338127 101.83750363 -98.40771484 99.08300781 C-97.93113434 98.60759552 -97.45455383 98.13218323 -96.96353149 97.6423645 C-95.38618876 96.07220791 -93.79859411 94.51284609 -92.2109375 92.953125 C-91.10739626 91.85772707 -90.00459337 90.76158484 -88.90249634 89.66473389 C-85.99513837 86.77450276 -83.07934671 83.89293856 -80.16125488 81.0135498 C-75.51037957 76.42179175 -70.87188624 71.81753938 -66.23430252 67.2123642 C-64.62255174 65.61442547 -63.00695663 64.02045924 -61.39071655 62.42706299 C-56.68521107 57.774952 -52.11770218 53.07751376 -47.81530762 48.04486084 C-43.83141568 43.55718914 -39.50721052 39.3864601 -35.25390625 35.15625 C-34.23235953 34.13657291 -33.21103674 33.11667144 -32.18992615 32.09655762 C-29.52733563 29.43774939 -26.86175401 26.78196042 -24.19549561 24.12683105 C-21.46507329 21.40671607 -18.73754926 18.68369815 -16.00976562 15.9609375 C-10.675978 10.63781137 -5.33902084 5.31787782 0 0 Z " fill="#FE9E3F" transform="translate(179,254)"/>
<path d="M0 0 C5.55439924 4.62491379 10.68525669 9.55360964 15.77734375 14.6796875 C16.58869278 15.49245148 17.40004181 16.30521545 18.23597717 17.14260864 C20.8055259 19.71771738 23.37155968 22.2962962 25.9375 24.875 C27.68791929 26.63043946 29.438568 28.38565017 31.18945312 30.140625 C35.46229302 34.42444082 39.73225899 38.71110472 44 43 C42.42122567 46.8239492 40.00498287 49.23642099 37.09130859 52.13574219 C36.59358444 52.63375839 36.09586029 53.1317746 35.58305359 53.6448822 C33.9428793 55.28366733 32.29574339 56.91526134 30.6484375 58.546875 C29.50742744 59.68415347 28.36685923 60.8218754 27.22671509 61.96002197 C24.22921238 64.94989979 21.22575149 67.93372191 18.2210083 70.9163208 C15.15413288 73.96271321 12.09293306 77.01479703 9.03125 80.06640625 C3.02637217 86.04985434 -2.98481232 92.02691663 -9 98 C-14.55439924 93.37508621 -19.68525669 88.44639036 -24.77734375 83.3203125 C-25.58869278 82.50754852 -26.40004181 81.69478455 -27.23597717 80.85739136 C-29.8055259 78.28228262 -32.37155968 75.7037038 -34.9375 73.125 C-36.68791929 71.36956054 -38.438568 69.61434983 -40.18945312 67.859375 C-44.46229302 63.57555918 -48.73225899 59.28889528 -53 55 C-51.42122567 51.1760508 -49.00498287 48.76357901 -46.09130859 45.86425781 C-45.59358444 45.36624161 -45.09586029 44.8682254 -44.58305359 44.3551178 C-42.9428793 42.71633267 -41.29574339 41.08473866 -39.6484375 39.453125 C-38.50742744 38.31584653 -37.36685923 37.1781246 -36.22671509 36.03997803 C-33.22921238 33.05010021 -30.22575149 30.06627809 -27.2210083 27.0836792 C-24.15413288 24.03728679 -21.09293306 20.98520297 -18.03125 17.93359375 C-12.02637217 11.95014566 -6.01518768 5.97308337 0 0 Z " fill="#515CDD" transform="translate(384,204)"/>
<path d="M0 0 C5.39190397 4.4978935 10.39391684 9.26126542 15.33984375 14.2421875 C16.10680069 15.01055939 16.87375763 15.77893127 17.66395569 16.57058716 C20.0908474 19.00303509 22.51422127 21.43895322 24.9375 23.875 C26.59156486 25.53408552 28.24585945 27.19294202 29.90039062 28.8515625 C33.93625433 32.89839709 37.96924277 36.94807953 42 41 C40.42122567 44.8239492 38.00498287 47.23642099 35.09130859 50.13574219 C34.59358444 50.63375839 34.09586029 51.1317746 33.58305359 51.6448822 C31.9428793 53.28366733 30.29574339 54.91526134 28.6484375 56.546875 C27.50742744 57.68415347 26.36685923 58.8218754 25.22671509 59.96002197 C22.22921238 62.94989979 19.22575149 65.93372191 16.2210083 68.9163208 C13.15413288 71.96271321 10.09293306 75.01479703 7.03125 78.06640625 C1.02637217 84.04985434 -4.98481232 90.02691663 -11 96 C-16.39190397 91.5021065 -21.39391684 86.73873458 -26.33984375 81.7578125 C-27.10680069 80.98944061 -27.87375763 80.22106873 -28.66395569 79.42941284 C-31.0908474 76.99696491 -33.51422127 74.56104678 -35.9375 72.125 C-37.59156486 70.46591448 -39.24585945 68.80705798 -40.90039062 67.1484375 C-44.93625433 63.10160291 -48.96924277 59.05192047 -53 55 C-51.42122567 51.1760508 -49.00498287 48.76357901 -46.09130859 45.86425781 C-45.59358444 45.36624161 -45.09586029 44.8682254 -44.58305359 44.3551178 C-42.9428793 42.71633267 -41.29574339 41.08473866 -39.6484375 39.453125 C-38.50742744 38.31584653 -37.36685923 37.1781246 -36.22671509 36.03997803 C-33.22921238 33.05010021 -30.22575149 30.06627809 -27.2210083 27.0836792 C-24.15413288 24.03728679 -21.09293306 20.98520297 -18.03125 17.93359375 C-12.02637217 11.95014566 -6.01518768 5.97308337 0 0 Z " fill="#4792FE" transform="translate(342,162)"/>
<path d="M0 0 C0.99 0.495 0.99 0.495 2 1 C-15.49 18.49 -32.98 35.98 -51 54 C-46.17806259 59.65921856 -46.17806259 59.65921856 -41.10595703 65.00756836 C-40.4056839 65.70776596 -39.70541077 66.40796356 -38.98391724 67.12937927 C-37.88199539 68.22355919 -37.88199539 68.22355919 -36.7578125 69.33984375 C-35.60525467 70.49027916 -35.60525467 70.49027916 -34.42941284 71.66395569 C-31.99696491 74.0908474 -29.56104678 76.51422127 -27.125 78.9375 C-25.46591448 80.59156486 -23.80705798 82.24585945 -22.1484375 83.90039062 C-18.10160291 87.93625433 -14.05192047 91.96924277 -10 96 C-11.55910778 99.71708993 -13.84373999 102.11502803 -16.66162109 104.96801758 C-17.13341293 105.44813293 -17.60520477 105.92824829 -18.09129333 106.4229126 C-19.64659629 108.00223921 -21.20938889 109.57386812 -22.7734375 111.14453125 C-23.85966502 112.23972628 -24.94581504 113.33499817 -26.03189087 114.43034363 C-28.30628499 116.72120621 -30.58501746 119.00765725 -32.86621094 121.29174805 C-35.79260298 124.22354178 -38.70247249 127.17117437 -41.60867882 130.12296009 C-43.84443762 132.38840178 -46.0913071 134.64256575 -48.34144974 136.893713 C-49.41966481 137.97614275 -50.49374523 139.0627071 -51.56361008 140.15339088 C-53.05741896 141.67395035 -54.56609994 143.17802 -56.07958984 144.67895508 C-56.93515472 145.53959061 -57.7907196 146.40022614 -58.67221069 147.28694153 C-61 149 -61 149 -63.1913147 148.87016296 C-65.55175994 147.73454693 -66.96243655 146.28813609 -68.75 144.375 C-71.40662571 141.61014139 -74.08454776 138.99076038 -77 136.5 C-77.61750122 135.95446472 -78.23500244 135.40892944 -78.87121582 134.84686279 C-80.22137468 133.67550959 -81.6038307 132.53962049 -83.02526855 131.45587158 C-88.78933338 126.60127132 -91.01662467 121.2730396 -91.97375488 113.87554932 C-93.06694562 100.89493932 -91.30652952 91.00326006 -83.07124329 80.58469391 C-72.73243874 68.46381163 -61.04871015 57.56619943 -49.36099911 46.76802588 C-43.90757987 41.72259535 -38.56079853 36.56953874 -33.21857166 31.40692186 C-22.25671336 20.81814304 -11.17372041 10.36532873 0 0 Z " fill="#FEDF3E" transform="translate(136,210)"/>
<path d="M0 0 C3.31613882 1.44580966 5.49185728 3.24829792 8.03417969 5.80712891 C8.81468689 6.58778717 9.59519409 7.36844543 10.39935303 8.17276001 C11.23178528 9.01551483 12.06421753 9.85826965 12.921875 10.7265625 C13.78186096 11.58937836 14.64184692 12.45219421 15.52789307 13.34115601 C18.2733231 16.09778029 21.0117169 18.86127799 23.75 21.625 C25.61021783 23.49524857 27.47088946 25.36504589 29.33203125 27.234375 C33.89329945 31.8176936 38.44881011 36.40667478 43 41 C36.57481762 54.76080903 19.55586195 73.09630873 5.56878662 79.03167725 C-5.8246395 82.49722657 -20.07362013 81.90557347 -30.82128906 76.60986328 C-35.14450949 73.66470361 -38.1148563 70.1491543 -40.88330078 65.74414062 C-42.42176373 63.34125927 -44.30525669 61.3295275 -46.25 59.25 C-46.75015625 58.65703125 -47.2503125 58.0640625 -47.765625 57.453125 C-49.08049325 55.86542205 -49.08049325 55.86542205 -51 54 C-50.81495061 49.86752054 -48.10077358 47.73911362 -45.29663086 44.95605469 C-44.8088063 44.46779205 -44.32098175 43.97952942 -43.81837463 43.47647095 C-42.20754109 41.86772394 -40.58635007 40.26985803 -38.96484375 38.671875 C-37.84460772 37.55723539 -36.72503311 36.44193066 -35.60609436 35.32598877 C-32.66171882 32.39305828 -29.70844506 29.46924904 -26.75323486 26.54724121 C-23.73827257 23.56298696 -20.73180278 20.57020411 -17.72460938 17.578125 C-11.8246901 11.7103639 -5.91534427 5.85221049 0 0 Z " fill="#FEBE3F" transform="translate(126,308)"/>
<path d="M0 0 C7.68455718 2.4524084 12.28672527 6.68970079 16.51708984 13.42431641 C18.04549201 15.79945472 19.93231926 17.75204794 21.88378906 19.78466797 C24.06004787 22.26380816 25.09412225 24.08033434 26.63378906 27.15966797 C9.47378906 44.31966797 -7.68621094 61.47966797 -25.36621094 79.15966797 C-33.24121094 72.40966797 -33.24121094 72.40966797 -36.3737793 69.265625 C-37.0739769 68.56535187 -37.7741745 67.86507874 -38.49559021 67.14358521 C-39.58977013 66.04166336 -39.58977013 66.04166336 -40.70605469 64.91748047 C-41.47301163 64.14910858 -42.23996857 63.38073669 -43.03016663 62.58908081 C-45.45705834 60.15663288 -47.88043221 57.72071474 -50.30371094 55.28466797 C-51.95777579 53.62558245 -53.61207039 51.96672595 -55.26660156 50.30810547 C-59.30246527 46.26127088 -63.33545371 42.21158844 -67.36621094 38.15966797 C-55.19411527 12.0906984 -28.70168033 -6.92102194 0 0 Z " fill="#5ECBF1" transform="translate(410.3662109375,124.84033203125)"/>
<path d="M0 0 C4.67307005 2.04132201 8.15477077 6.58094888 11.70072937 10.1373291 C12.59727234 11.0055127 13.49381531 11.87369629 14.41752625 12.76818848 C15.25992859 13.6080127 16.10233093 14.44783691 16.97026062 15.31311035 C17.74603455 16.08179443 18.52180847 16.85047852 19.3210907 17.64245605 C20.88822937 19.8248291 20.88822937 19.8248291 20.72276306 21.70335388 C19.65097394 24.42795816 18.1828756 25.89032061 16.10282898 27.95080566 C15.30207443 28.75133362 14.50131989 29.55186157 13.67630005 30.37664795 C12.80651016 31.23095398 11.93672028 32.08526001 11.04057312 32.9654541 C10.15414627 33.84763611 9.26771942 34.72981812 8.35443115 35.63873291 C6.00059881 37.97861487 3.64049183 40.31178309 1.27708435 42.64196777 C-1.1346548 45.02297573 -3.53788542 47.41253763 -5.94184875 49.8013916 C-10.65735122 54.4837969 -15.38131219 59.15753638 -20.11177063 63.8248291 C-23.63521707 62.1662103 -25.91078941 60.25825602 -28.65864563 57.4732666 C-29.50298157 56.62248535 -30.3473175 55.7717041 -31.21723938 54.8951416 C-32.08993469 54.00568848 -32.96263 53.11623535 -33.86177063 52.1998291 C-35.19401672 50.85404785 -35.19401672 50.85404785 -36.55317688 49.4810791 C-38.74394032 47.26675906 -40.92989826 45.04790475 -43.11177063 42.8248291 C-41.66979595 39.53648227 -39.88052956 37.32671628 -37.36811829 34.77478027 C-36.60037079 33.99104538 -35.83262329 33.20731049 -35.04161072 32.39982605 C-34.21140411 31.56425674 -33.38119751 30.72868744 -32.52583313 29.86779785 C-31.67250397 29.00544022 -30.8191748 28.14308258 -29.93998718 27.2545929 C-28.13540967 25.43551569 -26.32801364 23.61923083 -24.51802063 21.80554199 C-21.74215334 19.01773496 -18.98547891 16.21182819 -16.22895813 13.40490723 C-14.47490119 11.64139146 -12.71973024 9.8789829 -10.96333313 8.11779785 C-9.72409592 6.84926216 -9.72409592 6.84926216 -8.45982361 5.55509949 C-7.68577179 4.7871254 -6.91171997 4.01915131 -6.11421204 3.22790527 C-5.43629608 2.54491867 -4.75838013 1.86193207 -4.05992126 1.1582489 C-2.11177063 -0.1751709 -2.11177063 -0.1751709 0 0 Z " fill="#5DCAF1" transform="translate(212.1117706298828,200.1751708984375)"/>
<path d="M0 0 C1.24500723 4.14661779 0.49805195 7.3911492 -0.5625 11.5 C-0.74449951 12.20906494 -0.92649902 12.91812988 -1.11401367 13.64868164 C-7.33995609 36.55798241 -26.30378242 52.45553276 -42.5625 68.625 C-44.15973887 70.21721355 -45.756746 71.80965961 -47.35351562 73.40234375 C-51.23300916 77.27091406 -55.11535466 81.13660329 -59 85 C-62.63303084 83.30413874 -64.94549046 81.26199512 -67.75 78.375 C-68.54921875 77.55773437 -69.3484375 76.74046875 -70.171875 75.8984375 C-70.77515625 75.27195312 -71.3784375 74.64546875 -72 74 C-70.70005304 71.13643903 -69.32621927 69.07773819 -67.10202026 66.86151123 C-66.51028015 66.26702179 -65.91854004 65.67253235 -65.30886841 65.06002808 C-64.66150726 64.41985748 -64.01414612 63.77968689 -63.34716797 63.12011719 C-62.66412598 62.43678314 -61.98108398 61.7534491 -61.27734375 61.04940796 C-59.02033362 58.79379024 -56.7563237 56.54533778 -54.4921875 54.296875 C-52.92519314 52.73361108 -51.35864001 51.16990477 -49.79251099 49.60577393 C-45.67051858 45.49141555 -41.54255516 41.3830988 -37.41333008 37.27600098 C-33.20032416 33.08345834 -28.99297842 28.88524412 -24.78515625 24.6875 C-16.5289751 16.45276472 -8.26647643 8.22439935 0 0 Z " fill="#464E75" transform="translate(510,78)"/>
<path d="M0 0 C3.63303084 1.69586126 5.94549046 3.73800488 8.75 6.625 C9.54921875 7.44226563 10.3484375 8.25953125 11.171875 9.1015625 C11.77515625 9.72804688 12.3784375 10.35453125 13 11 C-10.66666667 34.66666667 -34.33333333 58.33333333 -58 82 C-58.66 81.67 -59.32 81.34 -60 81 C-53.91937433 52.81451158 -36.27644141 36.10503785 -16.4375 16.375 C-14.84026113 14.78278645 -13.243254 13.19034039 -11.64648438 11.59765625 C-7.76699084 7.72908594 -3.88464534 3.86339671 0 0 Z " fill="#4D5D7F" transform="translate(61,349)"/>
<path d="M0 0 C3.07456913 1.47512158 5.34751581 2.99823629 7.8125 5.375 C8.43769531 5.96023437 9.06289062 6.54546875 9.70703125 7.1484375 C11 9 11 9 10.81739807 10.85784912 C9.76725113 13.60996376 8.30691776 15.05333538 6.21459961 17.12597656 C5.41384506 17.92650452 4.61309052 18.72703247 3.78807068 19.55181885 C2.91828079 20.40612488 2.04849091 21.26043091 1.15234375 22.140625 C0.2659169 23.02280701 -0.62050995 23.90498901 -1.53379822 24.81390381 C-3.88763056 27.15378577 -6.24773754 29.48695398 -8.61114502 31.81713867 C-11.02288417 34.19814663 -13.42611479 36.58770853 -15.83007812 38.9765625 C-20.54558059 43.6589678 -25.26954156 48.33270728 -30 53 C-33.41059403 51.39464713 -35.61792484 49.59481099 -38.25 46.875 C-38.95640625 46.15054688 -39.6628125 45.42609375 -40.390625 44.6796875 C-40.92171875 44.12539062 -41.4528125 43.57109375 -42 43 C-37.43852453 37.52686034 -32.59258679 32.46045191 -27.5390625 27.44140625 C-26.74849457 26.65225327 -25.95792664 25.86310028 -25.1434021 25.05003357 C-22.63962374 22.55181339 -20.13237525 20.05710956 -17.625 17.5625 C-15.91773752 15.86025792 -14.21070391 14.15778627 -12.50390625 12.45507812 C-8.33858102 8.30072637 -4.17040781 4.14924919 0 0 Z " fill="#4693FE" transform="translate(222,211)"/>
</svg>
