<?xml version="1.0" encoding="UTF-8"?>
<svg version="1.1" xmlns="http://www.w3.org/2000/svg" width="512" height="512">
<path d="M0 0 C2.51242462 1.5588036 4.27260312 2.88367555 6.375 4.875 C6.95660889 5.4002124 7.53821777 5.9254248 8.13745117 6.46655273 C10.12053015 8.28258098 12.06311413 10.13479959 14 12 C15.1135083 13.06806885 15.1135083 13.06806885 16.24951172 14.15771484 C25.05562651 22.66251462 33.61231158 31.2174016 41 41 C41.96060052 42.24374992 42.92156546 43.48721843 43.8828125 44.73046875 C44.92325192 46.09009327 45.9623196 47.45076861 47 48.8125 C47.4626123 49.41594238 47.92522461 50.01938477 48.40185547 50.64111328 C49.10012451 51.57093018 49.10012451 51.57093018 49.8125 52.51953125 C50.29261032 53.14944473 50.77272064 53.77935822 51.26737976 54.42835999 C53 57 53 57 54.68003845 60.44429016 C57.42981821 65.91207201 59.67997159 70.19424701 65.6645813 72.27272034 C70.12839383 72.89073083 74.57482589 72.73404427 79.06640625 72.5859375 C80.71263905 72.58225772 82.35889622 72.58476849 84.00511169 72.59317017 C88.31283914 72.59869646 92.61506785 72.52084154 96.92156982 72.42486572 C101.32574436 72.34170663 105.72992476 72.33839527 110.13476562 72.328125 C118.75848341 72.29636775 127.37803345 72.17641856 136 72 C136.30325195 71.06883362 136.60650391 70.13766724 136.91894531 69.17828369 C137.98627442 66.040353 139.27148055 63.19836931 140.75 60.234375 C141.2759375 59.17992187 141.801875 58.12546875 142.34375 57.0390625 C142.8903125 55.95367187 143.436875 54.86828125 144 53.75 C144.5465625 52.64914063 145.093125 51.54828125 145.65625 50.4140625 C146.1821875 49.36476562 146.708125 48.31546875 147.25 47.234375 C147.72953125 46.27756836 148.2090625 45.32076172 148.703125 44.33496094 C150 42 150 42 152 40 C153.94888306 39.75949097 153.94888306 39.75949097 156.35791016 39.77294922 C157.25869293 39.77310028 158.15947571 39.77325134 159.08755493 39.77340698 C160.06155243 39.78372955 161.03554993 39.79405212 162.0390625 39.8046875 C163.03505463 39.8075174 164.03104675 39.81034729 165.05722046 39.81326294 C168.24660118 39.8244816 171.43570378 39.84958919 174.625 39.875 C176.78385012 39.88502762 178.94270463 39.89415385 181.1015625 39.90234375 C186.40113699 39.92442639 191.70054863 39.95792042 197 40 C197.2784375 39.22140625 197.556875 38.4428125 197.84375 37.640625 C199.52383305 33.80367858 202.30486051 31.84756975 206 30 C211.53042052 29.49497657 216.41030524 29.26192743 221.5 31.625 C226.3143755 36.19865673 228.25156236 39.3087462 228.5 46 C228.25156236 52.6912538 226.3143755 55.80134327 221.5 60.375 C216.34184625 62.7698571 211.59308489 62.76722701 206 62 C201.98763627 60.02901431 199.30749747 57.84582912 197 54 C197 53.34 197 52.68 197 52 C184.79 52 172.58 52 160 52 C159.34 53.98 158.68 55.96 158 58 C157.11874302 59.93836721 156.20045908 61.86023559 155.25 63.765625 C154.7240625 64.82007812 154.198125 65.87453125 153.65625 66.9609375 C153.1096875 68.04632813 152.563125 69.13171875 152 70.25 C151.4534375 71.35085937 150.906875 72.45171875 150.34375 73.5859375 C149.55484375 75.15988281 149.55484375 75.15988281 148.75 76.765625 C148.27046875 77.72243164 147.7909375 78.67923828 147.296875 79.66503906 C146 82 146 82 144 84 C140.95016479 84.2784729 140.95016479 84.2784729 136.97998047 84.31884766 C136.25792419 84.32889328 135.53586792 84.3389389 134.79193115 84.34928894 C132.40035819 84.38023072 130.00889771 84.39718626 127.6171875 84.4140625 C125.96093775 84.43276534 124.30469761 84.45233808 122.64846802 84.4727478 C118.28539691 84.52416855 113.92229488 84.56374086 109.55908203 84.60089111 C105.10831998 84.64086862 100.65768768 84.6919894 96.20703125 84.7421875 C87.47144266 84.83906443 78.73579008 84.92343132 70 85 C70.34780518 85.70495605 70.69561035 86.40991211 71.05395508 87.13623047 C72.64807853 90.37865049 74.23033626 93.62672843 75.8125 96.875 C76.35970703 97.98359375 76.90691406 99.0921875 77.47070312 100.234375 C78.00244141 101.33007812 78.53417969 102.42578125 79.08203125 103.5546875 C79.56905518 104.54968262 80.0560791 105.54467773 80.55786133 106.56982422 C82.38533697 110.91653706 83.64508297 115.4836099 85 120 C114.04 120 143.08 120 173 120 C173.66 118.35 174.32 116.7 175 115 C180.41761515 110.12414637 183.85731629 109.64559312 191.015625 109.72265625 C196.37049732 110.22029491 198.81340277 112.75095028 202.375 116.5 C204.77303575 121.66500009 204.75381535 126.4002288 204 132 C201.73212562 136.8846525 198.8846525 139.73212562 194 142 C188.32307279 142.76420174 183.62399778 142.79775329 178.4375 140.25 C176.28065948 138.25907029 174.50851388 136.5141898 173 134 C173 133.34 173 132.68 173 132 C145.61 132 118.22 132 90 132 C91.98 137.94 93.96 143.88 96 150 C96.87180321 153.39863392 97.69491271 156.69960619 98.375 160.125 C98.53871094 160.90230469 98.70242188 161.67960938 98.87109375 162.48046875 C99.2568238 164.31835901 99.63003335 166.15887182 100 168 C101.96005981 167.9371582 101.96005981 167.9371582 103.9597168 167.87304688 C108.81408749 167.72809894 113.6682678 167.6363552 118.52416992 167.56054688 C120.62443212 167.52034737 122.72447087 167.46577601 124.82397461 167.39648438 C127.84544931 167.29927109 130.86396423 167.25404088 133.88671875 167.21875 C135.29167854 167.15681458 135.29167854 167.15681458 136.72502136 167.09362793 C139.3737027 167.09181033 141.47822593 167.1841504 144 168 C146.36081154 170.36744148 147.64444005 172.97024891 149 176 C149.52053955 176.95567871 150.0410791 177.91135742 150.57739258 178.89599609 C151.01204834 179.76305176 151.4467041 180.63010742 151.89453125 181.5234375 C152.61479492 182.96009766 152.61479492 182.96009766 153.34960938 184.42578125 C153.83236328 185.39902344 154.31511719 186.37226563 154.8125 187.375 C155.31458984 188.37144531 155.81667969 189.36789063 156.33398438 190.39453125 C156.80771484 191.34457031 157.28144531 192.29460937 157.76953125 193.2734375 C158.19854736 194.13372559 158.62756348 194.99401367 159.06958008 195.88037109 C160 198 160 198 160 200 C172.21 200 184.42 200 197 200 C197.66 198.35 198.32 196.7 199 195 C204.41761515 190.12414637 207.85731629 189.64559312 215.015625 189.72265625 C220.37049732 190.22029491 222.81340277 192.75095028 226.375 196.5 C228.77303575 201.66500009 228.75381535 206.4002288 228 212 C225.73212562 216.8846525 222.8846525 219.73212562 218 222 C212.32307279 222.76420174 207.62399778 222.79775329 202.4375 220.25 C200.28065948 218.25907029 198.50851388 216.5141898 197 214 C197 213.34 197 212.68 197 212 C196.44733963 212.01776489 195.89467926 212.03552979 195.32527161 212.05383301 C189.56679728 212.2309884 183.80909752 212.35153991 178.04858398 212.43945312 C175.89982664 212.4796562 173.75128776 212.53423005 171.60327148 212.60351562 C168.51231054 212.70071116 165.42424262 212.7459562 162.33203125 212.78125 C161.37351761 212.82254028 160.41500397 212.86383057 159.42744446 212.90637207 C152.91564742 212.9107413 152.91564742 212.9107413 150.35112 210.35995483 C149.03325131 208.29339958 147.99340591 206.23866028 147 204 C146.47946045 203.04432129 145.9589209 202.08864258 145.42260742 201.10400391 C144.98795166 200.23694824 144.5532959 199.36989258 144.10546875 198.4765625 C143.38520508 197.03990234 143.38520508 197.03990234 142.65039062 195.57421875 C142.16763672 194.60097656 141.68488281 193.62773437 141.1875 192.625 C140.68541016 191.62855469 140.18332031 190.63210937 139.66601562 189.60546875 C139.19228516 188.65542969 138.71855469 187.70539063 138.23046875 186.7265625 C137.80145264 185.86627441 137.37243652 185.00598633 136.93041992 184.11962891 C136 182 136 182 136 180 C124.78 180 113.56 180 102 180 C102.66 182.97 103.32 185.94 104 189 C104.42837103 191.73681493 104.81534426 194.43874893 105.125 197.1875 C105.20991699 197.93563965 105.29483398 198.6837793 105.38232422 199.45458984 C106.37840043 209.27706372 106.18046939 219.14081836 106 229 C106.96655518 228.97643433 106.96655518 228.97643433 107.95263672 228.95239258 C110.92666529 228.88929099 113.90055229 228.85077414 116.875 228.8125 C117.88820313 228.78736328 118.90140625 228.76222656 119.9453125 228.73632812 C126.82913002 228.67013757 132.55024488 229.60136167 139 232 C139.90492188 232.33 140.80984375 232.66 141.7421875 233 C154.45487461 238.96052729 164.40798657 249.72802071 169.3125 262.8125 C171.58879987 269.46851606 172.21079732 275.10772104 172.25 282.125 C172.2809375 283.47464844 172.2809375 283.47464844 172.3125 284.8515625 C172.37675814 296.03247853 168.37868098 304.86008638 163.5 314.75 C162.97462646 315.82604492 162.44925293 316.90208984 161.90795898 318.01074219 C160.81828858 320.23804873 159.72508887 322.46363198 158.62841797 324.6875 C157.04982678 327.89864321 155.49347421 331.11972048 153.94140625 334.34375 C152.98263794 336.31292242 152.02304002 338.28169119 151.0625 340.25 C150.62679688 341.15975586 150.19109375 342.06951172 149.7421875 343.00683594 C147.36385879 347.82386631 145.20190655 351.59453325 141 355 C137.40132734 355.81479381 135.26925559 355.79166248 132.08984375 353.80859375 C127.2017375 349.77566315 123.34887155 344.90353661 119.421875 339.9609375 C116.86795727 336.83856711 114.18870612 333.88454344 111.4375 330.9375 C106.68291378 325.8330919 102.26287382 320.52097126 98 315 C96.2418097 320.23486982 94.5221242 325.47975199 92.8359375 330.73828125 C86.90805047 349.07545349 80.03796556 366.44690356 71.125 383.5625 C70.75560303 384.27188721 70.38620605 384.98127441 70.00561523 385.7121582 C66.49304139 392.26901663 66.49304139 392.26901663 64 394 C61.20010871 394.26159322 58.62772071 394.34904338 55.83203125 394.29296875 C55.03721848 394.28872391 54.2424057 394.28447906 53.42350769 394.28010559 C50.88615979 394.2633193 48.34960762 394.22566824 45.8125 394.1875 C44.09180835 394.17245305 42.37110424 394.15876466 40.65039062 394.14648438 C36.43328738 394.11341607 32.21677858 394.06163495 28 394 C29.18992019 413.91809019 29.18992019 413.91809019 40 430 C51.34369471 438.3305258 65.37579102 437.33650293 78.81835938 437.390625 C93.83135498 437.66595248 104.7599725 442.1160631 115.75 452.3125 C125.2541386 462.35460871 128.27134511 473.38355275 128.49609375 486.8984375 C128 490 128 490 126.60479736 492.16210175 C122.55777598 495.01760738 118.66648764 494.55192026 113.82714844 494.50793457 C112.7811636 494.51417453 111.73517876 494.5204145 110.65749741 494.52684355 C107.1412295 494.54283952 103.62564845 494.530143 100.109375 494.51757812 C97.59313552 494.52299628 95.07689921 494.53011721 92.56066895 494.53881836 C86.42895397 494.55519187 80.29749471 494.55275743 74.16577625 494.5411678 C69.1830516 494.53213927 64.20038185 494.53090694 59.21765137 494.53526306 C58.50885574 494.53587599 57.80006011 494.53648893 57.06978583 494.53712043 C55.62994288 494.53839932 54.19009994 494.53969617 52.75025702 494.5410108 C39.24446615 494.55242074 25.73878383 494.53929643 12.23301077 494.51780933 C0.64096323 494.49993794 -10.9509241 494.50304193 -22.54296875 494.52148438 C-35.99996962 494.54288382 -49.45687533 494.55132207 -62.91389084 494.53903532 C-64.34847767 494.53776111 -65.78306451 494.53650362 -67.21765137 494.53526306 C-67.9235208 494.53464596 -68.62939023 494.53402886 -69.35664964 494.53339306 C-74.33418449 494.52993736 -79.31165905 494.5357732 -84.28918457 494.54518127 C-90.98690211 494.55756226 -97.68426977 494.54876498 -104.38197327 494.52560425 C-106.84427892 494.52030223 -109.30660999 494.52185626 -111.76890564 494.53065491 C-115.12200132 494.54153457 -118.47411581 494.52793754 -121.82714844 494.50793457 C-123.29970282 494.5213189 -123.29970282 494.5213189 -124.80200577 494.53497362 C-131.35181475 494.45882847 -131.35181475 494.45882847 -134.6026001 492.15770721 C-138.11250516 486.73810795 -136.57011355 478.79321905 -135.33984375 472.765625 C-131.36624283 459.48588514 -122.5725159 449.5005433 -110.91796875 442.359375 C-101.71921875 438.07401356 -93.13255831 437.54255277 -83.0625 437.4375 C-62.35594056 437.45094781 -62.35594056 437.45094781 -45.1484375 427.109375 C-39.3125028 419.80726952 -37.57484956 412.1062305 -36.8125 403 C-36.6897168 401.69482422 -36.6897168 401.69482422 -36.56445312 400.36328125 C-36.36641309 398.24308794 -36.18179444 396.12164801 -36 394 C-37.59654419 394.04713135 -37.59654419 394.04713135 -39.2253418 394.09521484 C-43.18531868 394.20405471 -47.1451643 394.27278178 -51.10620117 394.32958984 C-52.81834159 394.35970978 -54.53032837 394.40061592 -56.24194336 394.45263672 C-58.70725411 394.52567236 -61.1705213 394.55950102 -63.63671875 394.5859375 C-64.39836838 394.61690521 -65.16001801 394.64787292 -65.94474792 394.67977905 C-70.20888793 394.68246163 -71.74921998 394.2413731 -74.86376953 391.24365234 C-77.63932102 387.02925497 -79.95458941 382.77135009 -82.1875 378.25 C-82.6616333 377.29262939 -83.1357666 376.33525879 -83.62426758 375.34887695 C-93.01021412 355.97973888 -99.71627652 335.54601698 -106 315 C-106.78310547 315.98226562 -106.78310547 315.98226562 -107.58203125 316.984375 C-112.17817475 322.68327096 -116.91072261 328.15269448 -121.90258789 333.50341797 C-125.00403623 336.84978895 -127.90500717 340.30424369 -130.75 343.875 C-139.44605821 354.56712851 -139.44605821 354.56712851 -145.6875 355.625 C-149.60312253 354.8862033 -150.44075608 353.957513 -153 351 C-154.41665649 348.67462158 -154.41665649 348.67462158 -155.71728516 346.08300781 C-156.21104645 345.10809387 -156.70480774 344.13317993 -157.21353149 343.12872314 C-157.73345673 342.08077576 -158.25338196 341.03282837 -158.7890625 339.953125 C-159.33356049 338.86795593 -159.87805847 337.78278687 -160.4390564 336.66473389 C-161.58765664 334.37025262 -162.73222707 332.07375025 -163.87304688 329.77539062 C-165.61443155 326.2712665 -167.37264728 322.77597088 -169.1328125 319.28125 C-170.24842183 317.0473871 -171.36303797 314.81302786 -172.4765625 312.578125 C-173.26252304 311.0183493 -173.26252304 311.0183493 -174.06436157 309.42706299 C-178.5355061 300.36912256 -180.34908829 292.72336889 -180.3125 282.625 C-180.33666992 281.30242187 -180.33666992 281.30242187 -180.36132812 279.953125 C-180.37217685 265.15545975 -174.00956551 253.10545791 -163.828125 242.703125 C-155.14687248 234.40557425 -143.75056989 228.83471906 -131.578125 228.90234375 C-130.55332031 228.90556641 -129.52851563 228.90878906 -128.47265625 228.91210938 C-127.40917969 228.92048828 -126.34570312 228.92886719 -125.25 228.9375 C-124.17105469 228.94201172 -123.09210938 228.94652344 -121.98046875 228.95117188 C-119.32025617 228.96294273 -116.66015635 228.97938601 -114 229 C-114.05220703 227.39511719 -114.05220703 227.39511719 -114.10546875 225.7578125 C-114.43057827 210.6124256 -113.68549133 194.74196533 -110 180 C-121.22 180 -132.44 180 -144 180 C-144.99 182.97 -144.99 182.97 -146 186 C-146.88125698 187.93836721 -147.79954092 189.86023559 -148.75 191.765625 C-149.2759375 192.82007813 -149.801875 193.87453125 -150.34375 194.9609375 C-150.8903125 196.04632813 -151.436875 197.13171875 -152 198.25 C-152.5465625 199.35085937 -153.093125 200.45171875 -153.65625 201.5859375 C-154.1821875 202.63523438 -154.708125 203.68453125 -155.25 204.765625 C-155.72953125 205.72243164 -156.2090625 206.67923828 -156.703125 207.66503906 C-158 210 -158 210 -160 212 C-161.94888306 212.24050903 -161.94888306 212.24050903 -164.35791016 212.22705078 C-165.25869293 212.22689972 -166.15947571 212.22674866 -167.08755493 212.22659302 C-168.06155243 212.21627045 -169.03554993 212.20594788 -170.0390625 212.1953125 C-171.03505463 212.1924826 -172.03104675 212.18965271 -173.05722046 212.18673706 C-176.24660118 212.1755184 -179.43570378 212.15041081 -182.625 212.125 C-184.78385012 212.11497238 -186.94270463 212.10584615 -189.1015625 212.09765625 C-194.40113699 212.07557361 -199.70054863 212.04207958 -205 212 C-205.2784375 212.77859375 -205.556875 213.5571875 -205.84375 214.359375 C-207.52383305 218.19632142 -210.30486051 220.15243025 -214 222 C-219.53042052 222.50502343 -224.41030524 222.73807257 -229.5 220.375 C-234.3143755 215.80134327 -236.25156236 212.6912538 -236.5 206 C-236.25156236 199.3087462 -234.3143755 196.19865673 -229.5 191.625 C-224.34184625 189.2301429 -219.59308489 189.23277299 -214 190 C-209.98763627 191.97098569 -207.30749747 194.15417088 -205 198 C-205 198.66 -205 199.32 -205 200 C-192.79 200 -180.58 200 -168 200 C-167.01 197.03 -167.01 197.03 -166 194 C-165.11874302 192.06163279 -164.20045908 190.13976441 -163.25 188.234375 C-162.7240625 187.17992187 -162.198125 186.12546875 -161.65625 185.0390625 C-161.1096875 183.95367187 -160.563125 182.86828125 -160 181.75 C-159.4534375 180.64914063 -158.906875 179.54828125 -158.34375 178.4140625 C-157.8178125 177.36476562 -157.291875 176.31546875 -156.75 175.234375 C-156.27046875 174.27756836 -155.7909375 173.32076172 -155.296875 172.33496094 C-154 170 -154 170 -152 168 C-150.05111694 167.75949097 -150.05111694 167.75949097 -147.64208984 167.77294922 C-146.74130707 167.77310028 -145.84052429 167.77325134 -144.91244507 167.77340698 C-143.93844757 167.78372955 -142.96445007 167.79405212 -141.9609375 167.8046875 C-140.96494537 167.8075174 -139.96895325 167.81034729 -138.94277954 167.81326294 C-135.75339882 167.8244816 -132.56429622 167.84958919 -129.375 167.875 C-127.21614988 167.88502762 -125.05729537 167.89415385 -122.8984375 167.90234375 C-117.59886301 167.92442639 -112.29945137 167.95792042 -107 168 C-106.94630249 167.4231395 -106.89260498 166.84627899 -106.83728027 166.25193787 C-106.36892944 161.60213664 -105.69200846 157.23053423 -104.40625 152.72265625 C-104.09816406 151.63275391 -103.79007813 150.54285156 -103.47265625 149.41992188 C-103.15167969 148.31197266 -102.83070313 147.20402344 -102.5 146.0625 C-102.17902344 144.92748047 -101.85804688 143.79246094 -101.52734375 142.62304688 C-99.16163532 134.32327063 -99.16163532 134.32327063 -98 132 C-125.39 132 -152.78 132 -181 132 C-181.66 133.65 -182.32 135.3 -183 137 C-188.41761515 141.87585363 -191.85731629 142.35440688 -199.015625 142.27734375 C-204.37049732 141.77970509 -206.81340277 139.24904972 -210.375 135.5 C-212.77303575 130.33499991 -212.75381535 125.5997712 -212 120 C-209.73212562 115.1153475 -206.8846525 112.26787438 -202 110 C-196.32307279 109.23579826 -191.62399778 109.20224671 -186.4375 111.75 C-184.28065948 113.74092971 -182.50851388 115.4858102 -181 118 C-181 118.66 -181 119.32 -181 120 C-151.96 120 -122.92 120 -93 120 C-92.01 116.7 -91.02 113.4 -90 110 C-89.08597874 107.82596941 -88.11884483 105.6729088 -87.08203125 103.5546875 C-86.55029297 102.45898438 -86.01855469 101.36328125 -85.47070312 100.234375 C-84.92349609 99.12578125 -84.37628906 98.0171875 -83.8125 96.875 C-83.25369141 95.72773437 -82.69488281 94.58046875 -82.11914062 93.3984375 C-80.75276238 90.59561032 -79.37962607 87.7963234 -78 85 C-78.91597458 85.00523682 -79.83194916 85.01047363 -80.77568054 85.01586914 C-89.41282805 85.05817184 -98.04896597 85.06219717 -106.68614483 85.02334595 C-111.12664451 85.00471892 -115.56613282 85.00083522 -120.0065918 85.03076172 C-124.29303475 85.05910586 -128.57778911 85.04856978 -132.86414528 85.01119995 C-134.4983771 85.0037598 -136.13273457 85.0102731 -137.76685143 85.03103638 C-150.54532652 85.18004302 -150.54532652 85.18004302 -154.0382843 82.3465271 C-155.37318879 80.26421343 -156.20842663 78.33726503 -157 76 C-157.52053955 75.04432129 -158.0410791 74.08864258 -158.57739258 73.10400391 C-159.01204834 72.23694824 -159.4467041 71.36989258 -159.89453125 70.4765625 C-160.37470703 69.51878906 -160.85488281 68.56101562 -161.34960938 67.57421875 C-161.83236328 66.60097656 -162.31511719 65.62773438 -162.8125 64.625 C-163.56563477 63.13033203 -163.56563477 63.13033203 -164.33398438 61.60546875 C-164.80771484 60.65542969 -165.28144531 59.70539063 -165.76953125 58.7265625 C-166.19854736 57.86627441 -166.62756348 57.00598633 -167.06958008 56.11962891 C-168 54 -168 54 -168 52 C-180.21 52 -192.42 52 -205 52 C-205.99 54.475 -205.99 54.475 -207 57 C-212.41761515 61.87585363 -215.85731629 62.35440688 -223.015625 62.27734375 C-228.37049732 61.77970509 -230.81340277 59.24904972 -234.375 55.5 C-236.77303575 50.33499991 -236.75381535 45.5997712 -236 40 C-233.73212562 35.1153475 -230.8846525 32.26787438 -226 30 C-220.32307279 29.23579826 -215.62399778 29.20224671 -210.4375 31.75 C-208.28065948 33.74092971 -206.50851388 35.4858102 -205 38 C-205 38.66 -205 39.32 -205 40 C-204.44733963 39.98223511 -203.89467926 39.96447021 -203.32527161 39.94616699 C-197.56679728 39.7690116 -191.80909752 39.64846009 -186.04858398 39.56054688 C-183.89982664 39.5203438 -181.75128776 39.46576995 -179.60327148 39.39648438 C-176.51231054 39.29928884 -173.42424262 39.2540438 -170.33203125 39.21875 C-168.89426079 39.15681458 -168.89426079 39.15681458 -167.42744446 39.09362793 C-160.91564742 39.0892587 -160.91564742 39.0892587 -158.35112 41.64004517 C-157.03325131 43.70660042 -155.99340591 45.76133972 -155 48 C-154.47946045 48.95567871 -153.9589209 49.91135742 -153.42260742 50.89599609 C-152.98795166 51.76305176 -152.5532959 52.63010742 -152.10546875 53.5234375 C-151.62529297 54.48121094 -151.14511719 55.43898437 -150.65039062 56.42578125 C-149.92625977 57.88564453 -149.92625977 57.88564453 -149.1875 59.375 C-148.43436523 60.86966797 -148.43436523 60.86966797 -147.66601562 62.39453125 C-147.19228516 63.34457031 -146.71855469 64.29460937 -146.23046875 65.2734375 C-145.80145264 66.13372559 -145.37243652 66.99401367 -144.93041992 67.88037109 C-144 70 -144 70 -144 72 C-134.55872728 72.2877471 -125.12198644 72.47608496 -115.67654037 72.54146767 C-111.28886199 72.57488171 -106.90703383 72.64105288 -102.52148438 72.78515625 C-84.24439861 74.20628181 -84.24439861 74.20628181 -67.27416992 69.26245117 C-63.19330851 65.16666035 -60.9141555 60.57742886 -58.91967773 55.20610046 C-57.47682422 51.74501874 -55.34741326 49.16379218 -53 46.25 C-52.1853125 45.21746094 -51.370625 44.18492188 -50.53125 43.12109375 C-49.68920037 42.07935244 -48.84542366 41.03900499 -48 40 C-47.56816406 39.4652002 -47.13632813 38.93040039 -46.69140625 38.37939453 C-13.34055033 -2.62040769 -13.34055033 -2.62040769 0 0 Z " fill="#DEF4F4" transform="translate(260,10)"/>
<path d="M0 0 C2.78503695 1.56506813 4.99696725 3.56409642 7.3125 5.75 C8.22225586 6.55824219 8.22225586 6.55824219 9.15039062 7.3828125 C12.10660802 10.04958727 14.76616902 12.67747883 17 16 C15.96875 15.9175 14.9375 15.835 13.875 15.75 C5.98672059 16.25892125 0.97436522 22.70752323 -4.3125 28.0625 C-5.07014648 28.82691406 -5.82779297 29.59132813 -6.60839844 30.37890625 C-12.11722375 35.98961522 -17.22135669 41.75165093 -22 48 C-23.00014564 49.26133451 -24.00154612 50.52167459 -25.00390625 51.78125 C-33.11242357 62.06270931 -40.28838844 72.76146053 -47 84 C-47.4340918 84.7223584 -47.86818359 85.4447168 -48.31542969 86.18896484 C-83.49464677 145.31222246 -94.26254211 215.34580234 -87 283 C-86.87882813 284.29035156 -86.75765625 285.58070313 -86.6328125 286.91015625 C-84.88836391 302.69919605 -80.95861593 318.52911246 -76.54858398 333.76660156 C-76 336 -76 336 -76 339 C-21.22 339 33.56 339 90 339 C81.86109177 362.2540235 81.86109177 362.2540235 76.76513672 372.56933594 C75.85307378 374.41947788 74.96298012 376.27919316 74.07421875 378.140625 C73.48561101 379.35216378 72.89581432 380.56312582 72.3046875 381.7734375 C71.78890137 382.82966309 71.27311523 383.88588867 70.74169922 384.97412109 C68.65863827 388.5930526 67.06463343 391.11895233 64 394 C60.93209179 394.53965474 58.68081757 394.70970672 55.63671875 394.5859375 C54.84473587 394.57744781 54.05275299 394.56895813 53.23677063 394.56021118 C50.71893504 394.5267492 48.20435924 394.45149443 45.6875 394.375 C43.97595788 394.34489059 42.2643653 394.31751647 40.55273438 394.29296875 C36.36724267 394.22698296 32.18417302 394.12352036 28 394 C29.17562981 413.92551416 29.17562981 413.92551416 40 430 C51.34369471 438.3305258 65.37579102 437.33650293 78.81835938 437.390625 C93.83135498 437.66595248 104.7599725 442.1160631 115.75 452.3125 C125.2541386 462.35460871 128.27134511 473.38355275 128.49609375 486.8984375 C128 490 128 490 126.60479736 492.16210175 C122.55777598 495.01760738 118.66648764 494.55192026 113.82714844 494.50793457 C112.7811636 494.51417453 111.73517876 494.5204145 110.65749741 494.52684355 C107.1412295 494.54283952 103.62564845 494.530143 100.109375 494.51757812 C97.59313552 494.52299628 95.07689921 494.53011721 92.56066895 494.53881836 C86.42895397 494.55519187 80.29749471 494.55275743 74.16577625 494.5411678 C69.1830516 494.53213927 64.20038185 494.53090694 59.21765137 494.53526306 C58.50885574 494.53587599 57.80006011 494.53648893 57.06978583 494.53712043 C55.62994288 494.53839932 54.19009994 494.53969617 52.75025702 494.5410108 C39.24446615 494.55242074 25.73878383 494.53929643 12.23301077 494.51780933 C0.64096323 494.49993794 -10.9509241 494.50304193 -22.54296875 494.52148438 C-35.99996962 494.54288382 -49.45687533 494.55132207 -62.91389084 494.53903532 C-64.34847767 494.53776111 -65.78306451 494.53650362 -67.21765137 494.53526306 C-67.9235208 494.53464596 -68.62939023 494.53402886 -69.35664964 494.53339306 C-74.33418449 494.52993736 -79.31165905 494.5357732 -84.28918457 494.54518127 C-90.98690211 494.55756226 -97.68426977 494.54876498 -104.38197327 494.52560425 C-106.84427892 494.52030223 -109.30660999 494.52185626 -111.76890564 494.53065491 C-115.12200132 494.54153457 -118.47411581 494.52793754 -121.82714844 494.50793457 C-123.29970282 494.5213189 -123.29970282 494.5213189 -124.80200577 494.53497362 C-131.35181475 494.45882847 -131.35181475 494.45882847 -134.6026001 492.15770721 C-138.11250516 486.73810795 -136.57011355 478.79321905 -135.33984375 472.765625 C-131.36624283 459.48588514 -122.5725159 449.5005433 -110.91796875 442.359375 C-101.71921875 438.07401356 -93.13255831 437.54255277 -83.0625 437.4375 C-62.35594056 437.45094781 -62.35594056 437.45094781 -45.1484375 427.109375 C-39.3125028 419.80726952 -37.57484956 412.1062305 -36.8125 403 C-36.6897168 401.69482422 -36.6897168 401.69482422 -36.56445312 400.36328125 C-36.36641309 398.24308794 -36.18179444 396.12164801 -36 394 C-37.59654419 394.04713135 -37.59654419 394.04713135 -39.2253418 394.09521484 C-43.18531868 394.20405471 -47.1451643 394.27278178 -51.10620117 394.32958984 C-52.81834159 394.35970978 -54.53032837 394.40061592 -56.24194336 394.45263672 C-58.70725411 394.52567236 -61.1705213 394.55950102 -63.63671875 394.5859375 C-64.39836838 394.61690521 -65.16001801 394.64787292 -65.94474792 394.67977905 C-70.20888793 394.68246163 -71.74921998 394.2413731 -74.86376953 391.24365234 C-77.63932102 387.02925497 -79.95458941 382.77135009 -82.1875 378.25 C-82.6616333 377.29262939 -83.1357666 376.33525879 -83.62426758 375.34887695 C-93.01021412 355.97973888 -99.71627652 335.54601698 -106 315 C-106.78310547 315.98226562 -106.78310547 315.98226562 -107.58203125 316.984375 C-112.17817475 322.68327096 -116.91072261 328.15269448 -121.90258789 333.50341797 C-125.00403623 336.84978895 -127.90500717 340.30424369 -130.75 343.875 C-139.44605821 354.56712851 -139.44605821 354.56712851 -145.6875 355.625 C-149.60312253 354.8862033 -150.44075608 353.957513 -153 351 C-154.41665649 348.67462158 -154.41665649 348.67462158 -155.71728516 346.08300781 C-156.21104645 345.10809387 -156.70480774 344.13317993 -157.21353149 343.12872314 C-157.73345673 342.08077576 -158.25338196 341.03282837 -158.7890625 339.953125 C-159.33356049 338.86795593 -159.87805847 337.78278687 -160.4390564 336.66473389 C-161.58765664 334.37025262 -162.73222707 332.07375025 -163.87304688 329.77539062 C-165.61443155 326.2712665 -167.37264728 322.77597088 -169.1328125 319.28125 C-170.24842183 317.0473871 -171.36303797 314.81302786 -172.4765625 312.578125 C-173.26252304 311.0183493 -173.26252304 311.0183493 -174.06436157 309.42706299 C-178.5355061 300.36912256 -180.34908829 292.72336889 -180.3125 282.625 C-180.33666992 281.30242187 -180.33666992 281.30242187 -180.36132812 279.953125 C-180.37217685 265.15545975 -174.00956551 253.10545791 -163.828125 242.703125 C-155.14687248 234.40557425 -143.75056989 228.83471906 -131.578125 228.90234375 C-130.55332031 228.90556641 -129.52851563 228.90878906 -128.47265625 228.91210938 C-127.40917969 228.92048828 -126.34570312 228.92886719 -125.25 228.9375 C-124.17105469 228.94201172 -123.09210938 228.94652344 -121.98046875 228.95117188 C-119.32025617 228.96294273 -116.66015635 228.97938601 -114 229 C-114.05220703 227.39511719 -114.05220703 227.39511719 -114.10546875 225.7578125 C-114.43057827 210.6124256 -113.68549133 194.74196533 -110 180 C-121.22 180 -132.44 180 -144 180 C-144.99 182.97 -144.99 182.97 -146 186 C-146.88125698 187.93836721 -147.79954092 189.86023559 -148.75 191.765625 C-149.2759375 192.82007813 -149.801875 193.87453125 -150.34375 194.9609375 C-150.8903125 196.04632813 -151.436875 197.13171875 -152 198.25 C-152.5465625 199.35085937 -153.093125 200.45171875 -153.65625 201.5859375 C-154.1821875 202.63523438 -154.708125 203.68453125 -155.25 204.765625 C-155.72953125 205.72243164 -156.2090625 206.67923828 -156.703125 207.66503906 C-158 210 -158 210 -160 212 C-161.94888306 212.24050903 -161.94888306 212.24050903 -164.35791016 212.22705078 C-165.25869293 212.22689972 -166.15947571 212.22674866 -167.08755493 212.22659302 C-168.06155243 212.21627045 -169.03554993 212.20594788 -170.0390625 212.1953125 C-171.03505463 212.1924826 -172.03104675 212.18965271 -173.05722046 212.18673706 C-176.24660118 212.1755184 -179.43570378 212.15041081 -182.625 212.125 C-184.78385012 212.11497238 -186.94270463 212.10584615 -189.1015625 212.09765625 C-194.40113699 212.07557361 -199.70054863 212.04207958 -205 212 C-205.2784375 212.77859375 -205.556875 213.5571875 -205.84375 214.359375 C-207.52383305 218.19632142 -210.30486051 220.15243025 -214 222 C-219.53042052 222.50502343 -224.41030524 222.73807257 -229.5 220.375 C-234.3143755 215.80134327 -236.25156236 212.6912538 -236.5 206 C-236.25156236 199.3087462 -234.3143755 196.19865673 -229.5 191.625 C-224.34184625 189.2301429 -219.59308489 189.23277299 -214 190 C-209.98763627 191.97098569 -207.30749747 194.15417088 -205 198 C-205 198.66 -205 199.32 -205 200 C-192.79 200 -180.58 200 -168 200 C-167.01 197.03 -167.01 197.03 -166 194 C-165.11874302 192.06163279 -164.20045908 190.13976441 -163.25 188.234375 C-162.7240625 187.17992187 -162.198125 186.12546875 -161.65625 185.0390625 C-161.1096875 183.95367187 -160.563125 182.86828125 -160 181.75 C-159.4534375 180.64914063 -158.906875 179.54828125 -158.34375 178.4140625 C-157.8178125 177.36476562 -157.291875 176.31546875 -156.75 175.234375 C-156.27046875 174.27756836 -155.7909375 173.32076172 -155.296875 172.33496094 C-154 170 -154 170 -152 168 C-150.05111694 167.75949097 -150.05111694 167.75949097 -147.64208984 167.77294922 C-146.74130707 167.77310028 -145.84052429 167.77325134 -144.91244507 167.77340698 C-143.93844757 167.78372955 -142.96445007 167.79405212 -141.9609375 167.8046875 C-140.96494537 167.8075174 -139.96895325 167.81034729 -138.94277954 167.81326294 C-135.75339882 167.8244816 -132.56429622 167.84958919 -129.375 167.875 C-127.21614988 167.88502762 -125.05729537 167.89415385 -122.8984375 167.90234375 C-117.59886301 167.92442639 -112.29945137 167.95792042 -107 168 C-106.94630249 167.4231395 -106.89260498 166.84627899 -106.83728027 166.25193787 C-106.36892944 161.60213664 -105.69200846 157.23053423 -104.40625 152.72265625 C-104.09816406 151.63275391 -103.79007813 150.54285156 -103.47265625 149.41992188 C-103.15167969 148.31197266 -102.83070313 147.20402344 -102.5 146.0625 C-102.17902344 144.92748047 -101.85804688 143.79246094 -101.52734375 142.62304688 C-99.16163532 134.32327063 -99.16163532 134.32327063 -98 132 C-125.39 132 -152.78 132 -181 132 C-181.66 133.65 -182.32 135.3 -183 137 C-188.41761515 141.87585363 -191.85731629 142.35440688 -199.015625 142.27734375 C-204.37049732 141.77970509 -206.81340277 139.24904972 -210.375 135.5 C-212.77303575 130.33499991 -212.75381535 125.5997712 -212 120 C-209.73212562 115.1153475 -206.8846525 112.26787438 -202 110 C-196.32307279 109.23579826 -191.62399778 109.20224671 -186.4375 111.75 C-184.28065948 113.74092971 -182.50851388 115.4858102 -181 118 C-181 118.66 -181 119.32 -181 120 C-151.96 120 -122.92 120 -93 120 C-92.01 116.7 -91.02 113.4 -90 110 C-89.08597874 107.82596941 -88.11884483 105.6729088 -87.08203125 103.5546875 C-86.55029297 102.45898438 -86.01855469 101.36328125 -85.47070312 100.234375 C-84.92349609 99.12578125 -84.37628906 98.0171875 -83.8125 96.875 C-83.25369141 95.72773437 -82.69488281 94.58046875 -82.11914062 93.3984375 C-80.75276238 90.59561032 -79.37962607 87.7963234 -78 85 C-78.91597458 85.00523682 -79.83194916 85.01047363 -80.77568054 85.01586914 C-89.41282805 85.05817184 -98.04896597 85.06219717 -106.68614483 85.02334595 C-111.12664451 85.00471892 -115.56613282 85.00083522 -120.0065918 85.03076172 C-124.29303475 85.05910586 -128.57778911 85.04856978 -132.86414528 85.01119995 C-134.4983771 85.0037598 -136.13273457 85.0102731 -137.76685143 85.03103638 C-150.54532652 85.18004302 -150.54532652 85.18004302 -154.0382843 82.3465271 C-155.37318879 80.26421343 -156.20842663 78.33726503 -157 76 C-157.52053955 75.04432129 -158.0410791 74.08864258 -158.57739258 73.10400391 C-159.01204834 72.23694824 -159.4467041 71.36989258 -159.89453125 70.4765625 C-160.37470703 69.51878906 -160.85488281 68.56101562 -161.34960938 67.57421875 C-161.83236328 66.60097656 -162.31511719 65.62773438 -162.8125 64.625 C-163.56563477 63.13033203 -163.56563477 63.13033203 -164.33398438 61.60546875 C-164.80771484 60.65542969 -165.28144531 59.70539063 -165.76953125 58.7265625 C-166.19854736 57.86627441 -166.62756348 57.00598633 -167.06958008 56.11962891 C-168 54 -168 54 -168 52 C-180.21 52 -192.42 52 -205 52 C-205.99 54.475 -205.99 54.475 -207 57 C-212.41761515 61.87585363 -215.85731629 62.35440688 -223.015625 62.27734375 C-228.37049732 61.77970509 -230.81340277 59.24904972 -234.375 55.5 C-236.77303575 50.33499991 -236.75381535 45.5997712 -236 40 C-233.73212562 35.1153475 -230.8846525 32.26787438 -226 30 C-220.32307279 29.23579826 -215.62399778 29.20224671 -210.4375 31.75 C-208.28065948 33.74092971 -206.50851388 35.4858102 -205 38 C-205 38.66 -205 39.32 -205 40 C-204.44733963 39.98223511 -203.89467926 39.96447021 -203.32527161 39.94616699 C-197.56679728 39.7690116 -191.80909752 39.64846009 -186.04858398 39.56054688 C-183.89982664 39.5203438 -181.75128776 39.46576995 -179.60327148 39.39648438 C-176.51231054 39.29928884 -173.42424262 39.2540438 -170.33203125 39.21875 C-168.89426079 39.15681458 -168.89426079 39.15681458 -167.42744446 39.09362793 C-160.91564742 39.0892587 -160.91564742 39.0892587 -158.35112 41.64004517 C-157.03325131 43.70660042 -155.99340591 45.76133972 -155 48 C-154.47946045 48.95567871 -153.9589209 49.91135742 -153.42260742 50.89599609 C-152.98795166 51.76305176 -152.5532959 52.63010742 -152.10546875 53.5234375 C-151.62529297 54.48121094 -151.14511719 55.43898437 -150.65039062 56.42578125 C-149.92625977 57.88564453 -149.92625977 57.88564453 -149.1875 59.375 C-148.43436523 60.86966797 -148.43436523 60.86966797 -147.66601562 62.39453125 C-147.19228516 63.34457031 -146.71855469 64.29460937 -146.23046875 65.2734375 C-145.80145264 66.13372559 -145.37243652 66.99401367 -144.93041992 67.88037109 C-144 70 -144 70 -144 72 C-134.55872728 72.2877471 -125.12198644 72.47608496 -115.67654037 72.54146767 C-111.28886199 72.57488171 -106.90703383 72.64105288 -102.52148438 72.78515625 C-84.24439861 74.20628181 -84.24439861 74.20628181 -67.27416992 69.26245117 C-63.19330851 65.16666035 -60.9141555 60.57742886 -58.91967773 55.20610046 C-57.47682422 51.74501874 -55.34741326 49.16379218 -53 46.25 C-52.1853125 45.21746094 -51.370625 44.18492188 -50.53125 43.12109375 C-49.68920037 42.07935244 -48.84542366 41.03900499 -48 40 C-47.56816406 39.4652002 -47.13632813 38.93040039 -46.69140625 38.37939453 C-13.12625929 -2.88384592 -13.12625929 -2.88384592 0 0 Z " fill="#EFFEFE" transform="translate(260,10)"/>
<path d="M0 0 C21.12 0 42.24 0 64 0 C64.99 9.405 64.99 9.405 66 19 C68.66211708 27.74695613 72.29322364 33.96315881 80.1875 38.8125 C90.91117046 44.12054146 103.14243317 43.34361573 114.81835938 43.390625 C129.83135498 43.66595248 140.7599725 48.1160631 151.75 58.3125 C161.2541386 68.35460871 164.27134511 79.38355275 164.49609375 92.8984375 C164 96 164 96 162.60479736 98.16210175 C158.55777598 101.01760738 154.66648764 100.55192026 149.82714844 100.50793457 C148.7811636 100.51417453 147.73517876 100.5204145 146.65749741 100.52684355 C143.1412295 100.54283952 139.62564845 100.530143 136.109375 100.51757812 C133.59313552 100.52299628 131.07689921 100.53011721 128.56066895 100.53881836 C122.42895397 100.55519187 116.29749471 100.55275743 110.16577625 100.5411678 C105.1830516 100.53213927 100.20038185 100.53090694 95.21765137 100.53526306 C94.50885574 100.53587599 93.80006011 100.53648893 93.06978583 100.53712043 C91.62994288 100.53839932 90.19009994 100.53969617 88.75025702 100.5410108 C75.24446615 100.55242074 61.73878383 100.53929643 48.23301077 100.51780933 C36.64096323 100.49993794 25.0490759 100.50304193 13.45703125 100.52148438 C0.00003038 100.54288382 -13.45687533 100.55132207 -26.91389084 100.53903532 C-28.34847767 100.53776111 -29.78306451 100.53650362 -31.21765137 100.53526306 C-31.9235208 100.53464596 -32.62939023 100.53402886 -33.35664964 100.53339306 C-38.33418449 100.52993736 -43.31165905 100.5357732 -48.28918457 100.54518127 C-54.98690211 100.55756226 -61.68426977 100.54876498 -68.38197327 100.52560425 C-70.84427892 100.52030223 -73.30660999 100.52185626 -75.76890564 100.53065491 C-79.12200132 100.54153457 -82.47411581 100.52793754 -85.82714844 100.50793457 C-86.80885136 100.51685746 -87.79055428 100.52578034 -88.80200577 100.53497362 C-95.35181475 100.45882847 -95.35181475 100.45882847 -98.6026001 98.15770721 C-102.11250516 92.73810795 -100.57011355 84.79321905 -99.33984375 78.765625 C-95.36624283 65.48588514 -86.5725159 55.5005433 -74.91796875 48.359375 C-65.71921875 44.07401356 -57.13255831 43.54255277 -47.0625 43.4375 C-26.35594056 43.45094781 -26.35594056 43.45094781 -9.1484375 33.109375 C-1.22343484 23.19336181 -1.34284225 12.75700134 0 0 Z " fill="#DEF5F5" transform="translate(224,404)"/>
<path d="M0 0 C12.69992013 9.29039202 21.18355489 21.97206828 24.16796875 37.5859375 C25.84219413 55.35034998 21.23184325 70.83028231 9.91796875 84.7734375 C0.43131401 95.06967547 -13.80369406 102.12144202 -27.875 102.921875 C-44.71937922 103.29002517 -59.51813774 98.19434431 -72.02734375 86.515625 C-83.67951337 74.0563787 -88.5392904 58.63852799 -88.14453125 41.91015625 C-87.43856304 28.55264937 -80.7438843 14.59024206 -70.83203125 5.5859375 C-49.42778245 -11.08334811 -23.60764805 -15.58025684 0 0 Z " fill="#DB296F" transform="translate(287.83203125,137.4140625)"/>
<path d="M0 0 C62.04 0 124.08 0 188 0 C179.86109177 23.2540235 179.86109177 23.2540235 174.76513672 33.56933594 C173.85307378 35.41947788 172.96298012 37.27919316 172.07421875 39.140625 C171.48561101 40.35216378 170.89581432 41.56312582 170.3046875 42.7734375 C169.78890137 43.82966309 169.27311523 44.88588867 168.74169922 45.97412109 C167.87955811 47.47193115 167.87955811 47.47193115 167 49 C166.40663849 50.03639618 165.81327698 51.07279236 165.20193481 52.14059448 C163.31396518 54.33950782 162.25402179 54.9456774 159.38714409 55.55875969 C155.92139058 55.78456885 152.50044448 55.8102248 149.02734375 55.77636719 C147.04856735 55.79213806 147.04856735 55.79213806 145.02981567 55.80822754 C141.41798353 55.83554581 137.80718137 55.8249915 134.19533157 55.80595303 C130.41266387 55.79074412 126.63008334 55.80485533 122.84741211 55.81427002 C116.49544467 55.82518079 110.14389602 55.81081424 103.79199219 55.78222656 C96.45203687 55.74957314 89.11308153 55.76015056 81.77315044 55.793185 C75.46720423 55.82042804 69.16155876 55.82424794 62.8555727 55.80855298 C59.09103826 55.79920677 55.32697359 55.79792878 51.56246948 55.81777191 C47.36526437 55.83835115 43.16977828 55.80981831 38.97265625 55.77636719 C37.72678741 55.78851257 36.48091858 55.80065796 35.19729614 55.81317139 C26.98337115 55.69169036 26.98337115 55.69169036 24.14188671 53.6930275 C22.77787781 52.09448242 22.77787781 52.09448242 21 49 C20.29774292 47.86739746 20.29774292 47.86739746 19.58129883 46.71191406 C18.31125431 44.23084556 17.04742448 41.74880829 15.8125 39.25 C15.34416748 38.31003174 14.87583496 37.37006348 14.39331055 36.40161133 C0 6.82568744 0 6.82568744 0 0 Z " fill="#1B2E69" transform="translate(162,349)"/>
<path d="M0 0 C3.62484173 -0.08837761 7.24940017 -0.14084706 10.875 -0.1875 C12.39480469 -0.22520508 12.39480469 -0.22520508 13.9453125 -0.26367188 C20.82913002 -0.32986243 26.55024488 0.60136167 33 3 C34.35738281 3.495 34.35738281 3.495 35.7421875 4 C48.45487461 9.96052729 58.40798657 20.72802071 63.3125 33.8125 C65.58879987 40.46851606 66.21079732 46.10772104 66.25 53.125 C66.270625 54.02476562 66.29125 54.92453125 66.3125 55.8515625 C66.37675814 67.03247853 62.37868098 75.86008638 57.5 85.75 C56.97462646 86.82604492 56.44925293 87.90208984 55.90795898 89.01074219 C54.81828858 91.23804873 53.72508887 93.46363198 52.62841797 95.6875 C51.04982678 98.89864321 49.49347421 102.11972048 47.94140625 105.34375 C46.98263794 107.31292242 46.02304002 109.28169119 45.0625 111.25 C44.62679687 112.15975586 44.19109375 113.06951172 43.7421875 114.00683594 C41.36385879 118.82386631 39.20190655 122.59453325 35 126 C31.40132734 126.81479381 29.26925559 126.79166248 26.08984375 124.80859375 C21.20029477 120.77447282 17.34695183 115.90038174 13.41796875 110.95703125 C10.88396586 107.85809718 8.22567606 104.92849062 5.5 102 C4.57897581 100.98869205 3.65840059 99.97697503 2.73828125 98.96484375 C0.94611076 97.00004178 -0.87750465 95.12992134 -2.76953125 93.25390625 C-8.87370254 86.79342388 -8.87370254 86.79342388 -9.21484375 81.94921875 C-8.71834253 78.53212211 -7.92870221 75.32498321 -7 72 C-1.6075588 48.29632797 -0.46015145 24.21515235 0 0 Z " fill="#DC276D" transform="translate(366,239)"/>
<path d="M0 0 C1.02480469 0.00322266 2.04960937 0.00644531 3.10546875 0.00976562 C4.16894531 0.01814453 5.23242188 0.02652344 6.328125 0.03515625 C7.40707031 0.03966797 8.48601562 0.04417969 9.59765625 0.04882812 C12.25786883 0.06059898 14.91796865 0.07704226 17.578125 0.09765625 C17.5874707 0.76780762 17.59681641 1.43795898 17.60644531 2.12841797 C18.03293961 26.952895 19.81288107 52.11851023 25.4465332 76.36523438 C26.27896055 80.00212463 26.76707554 82.54746166 25.578125 86.09765625 C20.89003653 92.72639529 15.20579516 98.67115024 9.67529297 104.60205078 C6.57323451 107.94749316 3.67293521 111.40212915 0.828125 114.97265625 C-7.86793321 125.66478476 -7.86793321 125.66478476 -14.109375 126.72265625 C-18.02499753 125.98385955 -18.86263108 125.05516925 -21.421875 122.09765625 C-22.83853149 119.77227783 -22.83853149 119.77227783 -24.13916016 117.18066406 C-24.63292145 116.20575012 -25.12668274 115.23083618 -25.63540649 114.22637939 C-26.41529434 112.65445831 -26.41529434 112.65445831 -27.2109375 111.05078125 C-27.75543549 109.96561218 -28.29993347 108.88044312 -28.8609314 107.76239014 C-30.00953164 105.46790887 -31.15410207 103.1714065 -32.29492188 100.87304688 C-34.03630655 97.36892275 -35.79452228 93.87362713 -37.5546875 90.37890625 C-38.67029683 88.14504335 -39.78491297 85.91068411 -40.8984375 83.67578125 C-41.42241119 82.63593079 -41.94638489 81.59608032 -42.48623657 80.52471924 C-46.9573811 71.46677881 -48.77096329 63.82102514 -48.734375 53.72265625 C-48.75048828 52.8409375 -48.76660156 51.95921875 -48.78320312 51.05078125 C-48.79405185 36.253116 -42.43144051 24.20311416 -32.25 13.80078125 C-23.56874748 5.5032305 -12.17244489 -0.06762469 0 0 Z " fill="#DC286E" transform="translate(128.421875,238.90234375)"/>
<path d="M0 0 C7.87779545 5.48790245 11.99485878 11.98457634 15 21 C16.09038401 31.8259555 13.95568026 41.05514778 7.4375 49.875 C2.39325043 55.26257545 -6.47221888 59.61745894 -13.8203125 60.23828125 C-21.23022445 60.40469771 -26.58628122 59.76740799 -33 56 C-34.051875 55.401875 -35.10375 54.80375 -36.1875 54.1875 C-43.87209298 48.21059435 -48.21205092 41.1813247 -49.453125 31.4453125 C-49.91517851 21.17512305 -47.74577071 13.41231154 -40.9140625 5.62109375 C-29.72247241 -5.04036839 -13.79122116 -8.37408626 0 0 Z " fill="#326DE0" transform="translate(273,156)"/>
<path d="M0 0 C5.28 0 10.56 0 16 0 C16.10882885 4.27153231 16.18772862 8.54023877 16.25 12.8125 C16.28351563 14.00810547 16.31703125 15.20371094 16.3515625 16.43554688 C16.48917448 29.06144632 12.93357276 39.73557211 4.1171875 48.97265625 C-7.22069441 59.44352366 -18.82359985 60.3242966 -33.68945312 60.390625 C-47.71031157 60.67403371 -60.01387005 65.12986287 -70.3125 74.8125 C-75.01024871 79.81517357 -79.15632133 85.2502322 -79.5625 92.3125 C-78.92654722 96.48152379 -78.02198927 97.27840728 -75 100 C-78.41637953 100.11632513 -81.83224897 100.18728897 -85.25 100.25 C-86.21808594 100.28351563 -87.18617188 100.31703125 -88.18359375 100.3515625 C-95.26294871 100.44920878 -95.26294871 100.44920878 -98.640625 98.390625 C-101.92114488 92.62143487 -100.61881698 85.03183703 -99.33984375 78.765625 C-95.36624283 65.48588514 -86.5725159 55.5005433 -74.91796875 48.359375 C-65.71921875 44.07401356 -57.13255831 43.54255277 -47.0625 43.4375 C-26.35594056 43.45094781 -26.35594056 43.45094781 -9.1484375 33.109375 C-3.3125028 25.80726952 -1.57484956 18.1062305 -0.8125 9 C-0.73064453 8.12988281 -0.64878906 7.25976562 -0.56445312 6.36328125 C-0.36641309 4.24308794 -0.18179444 2.12164801 0 0 Z " fill="#EFFEFE" transform="translate(224,404)"/>
<path d="M0 0 C1.02480469 0.00322266 2.04960937 0.00644531 3.10546875 0.00976562 C4.16894531 0.01814453 5.23242188 0.02652344 6.328125 0.03515625 C7.40707031 0.03966797 8.48601562 0.04417969 9.59765625 0.04882812 C12.25783625 0.06059883 14.91798769 0.07853386 17.578125 0.09765625 C17.578125 3.39765625 17.578125 6.69765625 17.578125 10.09765625 C16.47017578 10.31808594 16.47017578 10.31808594 15.33984375 10.54296875 C0.824419 13.75222403 -10.97911646 21.00542636 -19.296875 33.53515625 C-26.7060231 46.01188206 -29.53586932 59.26588842 -26.734375 73.72265625 C-24.20502623 83.1689996 -19.60360792 91.93043984 -15.296875 100.66015625 C-14.86503906 101.5416333 -14.43320313 102.42311035 -13.98828125 103.33129883 C-13.57191406 104.16298584 -13.15554687 104.99467285 -12.7265625 105.8515625 C-12.35515137 106.59736572 -11.98374023 107.34316895 -11.60107422 108.11157227 C-10.3946203 110.14356039 -9.23210155 111.58288653 -7.421875 113.09765625 C-5.13857399 113.45912082 -5.13857399 113.45912082 -2.734375 113.28515625 C-1.92613281 113.25808594 -1.11789063 113.23101562 -0.28515625 113.203125 C0.63716797 113.15091797 0.63716797 113.15091797 1.578125 113.09765625 C-1.94190778 118.1280577 -5.24073753 122.71405627 -10.421875 126.09765625 C-14.046875 126.66015625 -14.046875 126.66015625 -17.421875 126.09765625 C-20.5178387 123.47685167 -22.33094951 120.78367832 -24.13916016 117.18066406 C-24.63292145 116.20575012 -25.12668274 115.23083618 -25.63540649 114.22637939 C-26.41529434 112.65445831 -26.41529434 112.65445831 -27.2109375 111.05078125 C-27.75543549 109.96561218 -28.29993347 108.88044312 -28.8609314 107.76239014 C-30.00953164 105.46790887 -31.15410207 103.1714065 -32.29492188 100.87304688 C-34.03630655 97.36892275 -35.79452228 93.87362713 -37.5546875 90.37890625 C-38.67029683 88.14504335 -39.78491297 85.91068411 -40.8984375 83.67578125 C-41.42241119 82.63593079 -41.94638489 81.59608032 -42.48623657 80.52471924 C-46.9573811 71.46677881 -48.77096329 63.82102514 -48.734375 53.72265625 C-48.75048828 52.8409375 -48.76660156 51.95921875 -48.78320312 51.05078125 C-48.79405185 36.253116 -42.43144051 24.20311416 -32.25 13.80078125 C-23.56874748 5.5032305 -12.17244489 -0.06762469 0 0 Z " fill="#E44D90" transform="translate(128.421875,238.90234375)"/>
<path d="M0 0 C4.8846525 2.26787438 7.73212562 5.1153475 10 10 C10.75381535 15.5997712 10.77303575 20.33499991 8.375 25.5 C3.80134327 30.3143755 0.6912538 32.25156236 -6 32.5 C-11.09962611 32.3230613 -14.149744 31.55408246 -18 28 C-21 24.6 -21 24.6 -21 22 C-33.21 22 -45.42 22 -58 22 C-58.66 23.98 -59.32 25.96 -60 28 C-60.88125698 29.93836721 -61.79954092 31.86023559 -62.75 33.765625 C-63.2759375 34.82007813 -63.801875 35.87453125 -64.34375 36.9609375 C-64.8903125 38.04632813 -65.436875 39.13171875 -66 40.25 C-66.5465625 41.35085937 -67.093125 42.45171875 -67.65625 43.5859375 C-68.1821875 44.63523438 -68.708125 45.68453125 -69.25 46.765625 C-69.72953125 47.72243164 -70.2090625 48.67923828 -70.703125 49.66503906 C-72 52 -72 52 -74 54 C-76.40481516 54.23990589 -78.69878674 54.35616224 -81.10839844 54.38574219 C-81.8403241 54.40209717 -82.57224976 54.41845215 -83.32635498 54.43530273 C-85.75399496 54.48501615 -88.18140087 54.51804419 -90.609375 54.546875 C-91.43852669 54.55752235 -92.26767838 54.56816971 -93.12195587 54.57913971 C-97.51193037 54.63260913 -101.90179109 54.67135342 -106.29199219 54.70019531 C-110.82377626 54.73347249 -115.35264499 54.82299398 -119.88332748 54.9249382 C-123.36984515 54.9923155 -126.85567274 55.0153522 -130.34278107 55.02664948 C-132.01270039 55.04007039 -133.68257455 55.07050802 -135.35186005 55.11843109 C-148.4189434 55.47211838 -148.4189434 55.47211838 -152.39172363 51.77307129 C-154.34058766 48.62449229 -156 45.76655361 -156 42 C-131.58 42 -107.16 42 -82 42 C-81.01 39.03 -81.01 39.03 -80 36 C-79.11874302 34.06163279 -78.20045908 32.13976441 -77.25 30.234375 C-76.46109375 28.65269531 -76.46109375 28.65269531 -75.65625 27.0390625 C-75.1096875 25.95367187 -74.563125 24.86828125 -74 23.75 C-73.4534375 22.64914063 -72.906875 21.54828125 -72.34375 20.4140625 C-71.8178125 19.36476563 -71.291875 18.31546875 -70.75 17.234375 C-70.27046875 16.27756836 -69.7909375 15.32076172 -69.296875 14.33496094 C-68 12 -68 12 -66 10 C-64.05111694 9.75949097 -64.05111694 9.75949097 -61.64208984 9.77294922 C-60.74130707 9.77310028 -59.84052429 9.77325134 -58.91244507 9.77340698 C-57.93844757 9.78372955 -56.96445007 9.79405212 -55.9609375 9.8046875 C-54.96494537 9.8075174 -53.96895325 9.81034729 -52.94277954 9.81326294 C-49.75339882 9.8244816 -46.56429622 9.84958919 -43.375 9.875 C-41.21614988 9.88502762 -39.05729537 9.89415385 -36.8984375 9.90234375 C-31.59886301 9.92442639 -26.29945137 9.95792042 -21 10 C-20.7215625 9.22140625 -20.443125 8.4428125 -20.15625 7.640625 C-16.41548615 -0.90247083 -8.06059132 -0.74908637 0 0 Z " fill="#1B2E69" transform="translate(478,40)"/>
<path d="M0 0 C4.01236373 1.97098569 6.69250253 4.15417088 9 8 C9 8.66 9 9.32 9 10 C9.55266037 9.98223511 10.10532074 9.96447021 10.67472839 9.94616699 C16.43320272 9.7690116 22.19090248 9.64846009 27.95141602 9.56054688 C30.10017336 9.5203438 32.24871224 9.46576995 34.39672852 9.39648438 C37.48768946 9.29928884 40.57575738 9.2540438 43.66796875 9.21875 C45.10573921 9.15681458 45.10573921 9.15681458 46.57255554 9.09362793 C53.08435258 9.0892587 53.08435258 9.0892587 55.64888 11.64004517 C56.96674869 13.70660042 58.00659409 15.76133972 59 18 C59.78080933 19.43351807 59.78080933 19.43351807 60.57739258 20.89599609 C61.01204834 21.76305176 61.4467041 22.63010742 61.89453125 23.5234375 C62.61479492 24.96009766 62.61479492 24.96009766 63.34960938 26.42578125 C64.07374023 27.88564453 64.07374023 27.88564453 64.8125 29.375 C65.56563477 30.86966797 65.56563477 30.86966797 66.33398438 32.39453125 C66.80771484 33.34457031 67.28144531 34.29460937 67.76953125 35.2734375 C68.19854736 36.13372559 68.62756348 36.99401367 69.06958008 37.88037109 C70 40 70 40 70 42 C94.42 42 118.84 42 144 42 C142.24858504 46.3785374 140.37016034 49.97072742 138 54 C128.17750995 54.18543016 118.35543666 54.32754052 108.53155231 54.41449738 C103.96970582 54.45623532 99.40905731 54.51283372 94.84790039 54.60351562 C90.44522038 54.69049812 86.04369169 54.73828463 81.64021873 54.75901794 C79.96114152 54.77379051 78.28212681 54.80264051 76.60354042 54.84584045 C63.47361822 55.1702842 63.47361822 55.1702842 59.93486023 52.35995483 C58.59479869 50.27061507 57.776137 48.35120889 57 46 C56.47946045 45.04432129 55.9589209 44.08864258 55.42260742 43.10400391 C54.98795166 42.23694824 54.5532959 41.36989258 54.10546875 40.4765625 C53.62529297 39.51878906 53.14511719 38.56101563 52.65039062 37.57421875 C51.92625977 36.11435547 51.92625977 36.11435547 51.1875 34.625 C50.43436523 33.13033203 50.43436523 33.13033203 49.66601562 31.60546875 C49.19228516 30.65542969 48.71855469 29.70539063 48.23046875 28.7265625 C47.80145264 27.86627441 47.37243652 27.00598633 46.93041992 26.11962891 C46 24 46 24 46 22 C33.79 22 21.58 22 9 22 C8.01 24.475 8.01 24.475 7 27 C1.58238485 31.87585363 -1.85731629 32.35440688 -9.015625 32.27734375 C-14.37049732 31.77970509 -16.81340277 29.24904972 -20.375 25.5 C-22.77303575 20.33499991 -22.75381535 15.5997712 -22 10 C-17.52985943 0.37200493 -9.8460955 -1.35063038 0 0 Z " fill="#1B2E69" transform="translate(46,40)"/>
<path d="M0 0 C0.79497894 0.00444122 1.58995789 0.00888245 2.4090271 0.01345825 C3.30980988 0.01360931 4.21059265 0.01376038 5.13867188 0.01391602 C6.11266937 0.02423859 7.08666687 0.03456116 8.09017944 0.04519653 C9.08617157 0.04802643 10.0821637 0.05085632 11.1083374 0.05377197 C14.29771813 0.06499063 17.48682072 0.09009822 20.67611694 0.11550903 C22.83496706 0.12553666 24.99382157 0.13466288 27.15267944 0.14285278 C32.45226621 0.16493548 37.75164438 0.19947679 43.05111694 0.24050903 C42.39111694 4.20050903 41.73111694 8.16050903 41.05111694 12.24050903 C29.50111694 12.24050903 17.95111694 12.24050903 6.05111694 12.24050903 C5.39111694 14.22050903 4.73111694 16.20050903 4.05111694 18.24050903 C3.16985996 20.17887624 2.25157603 22.10074462 1.30111694 24.00613403 C0.51221069 25.58781372 0.51221069 25.58781372 -0.29263306 27.20144653 C-0.83919556 28.28683716 -1.38575806 29.37222778 -1.94888306 30.49050903 C-2.49544556 31.59136841 -3.04200806 32.69222778 -3.60513306 33.82644653 C-4.13107056 34.87574341 -4.65700806 35.92504028 -5.19888306 37.00613403 C-5.67841431 37.96294067 -6.15794556 38.91974731 -6.65200806 39.9055481 C-7.94888306 42.24050903 -7.94888306 42.24050903 -9.94888306 44.24050903 C-11.89776611 44.48101807 -11.89776611 44.48101807 -14.30679321 44.46755981 C-15.20757599 44.46740875 -16.10835876 44.46725769 -17.03643799 44.46710205 C-18.01043549 44.45677948 -18.98443298 44.44645691 -19.98794556 44.43582153 C-20.98393768 44.43299164 -21.97992981 44.43016174 -23.00610352 44.42724609 C-26.19548424 44.41602743 -29.38458683 44.39091984 -32.57388306 44.36550903 C-34.73273318 44.35548141 -36.89158768 44.34635518 -39.05044556 44.33816528 C-44.35002004 44.31608264 -49.64943168 44.28258862 -54.94888306 44.24050903 C-55.22732056 45.01910278 -55.50575806 45.79769653 -55.79263306 46.59988403 C-57.4727161 50.43683045 -60.25374357 52.39293929 -63.94888306 54.24050903 C-69.47930358 54.74553246 -74.35918829 54.9785816 -79.44888306 52.61550903 C-84.26325856 48.04185231 -86.20044542 44.93176284 -86.44888306 38.24050903 C-86.20044542 31.54925523 -84.26325856 28.43916576 -79.44888306 23.86550903 C-74.2907293 21.47065193 -69.54196794 21.47328203 -63.94888306 22.24050903 C-59.93651932 24.21149473 -57.25638053 26.39467991 -54.94888306 30.24050903 C-54.94888306 30.90050903 -54.94888306 31.56050903 -54.94888306 32.24050903 C-42.73888306 32.24050903 -30.52888306 32.24050903 -17.94888306 32.24050903 C-17.28888306 30.26050903 -16.62888306 28.28050903 -15.94888306 26.24050903 C-15.06762607 24.30214183 -14.14934214 22.38027345 -13.19888306 20.47488403 C-12.40997681 18.89320435 -12.40997681 18.89320435 -11.60513306 17.27957153 C-11.05857056 16.19418091 -10.51200806 15.10879028 -9.94888306 13.99050903 C-9.40232056 12.88964966 -8.85575806 11.78879028 -8.29263306 10.65457153 C-7.76669556 9.60527466 -7.24075806 8.55597778 -6.69888306 7.47488403 C-6.21935181 6.51807739 -5.73982056 5.56127075 -5.24575806 4.57546997 C-2.903482 0.3583148 -2.903482 0.3583148 0 0 Z " fill="#1B2E69" transform="translate(109.94888305664063,177.75949096679688)"/>
<path d="M0 0 C6.17453291 -0.19796271 12.34721535 -0.34302108 18.52416992 -0.43945312 C20.62443212 -0.47965263 22.72447087 -0.53422399 24.82397461 -0.60351562 C27.84544931 -0.70072891 30.86396423 -0.74595912 33.88671875 -0.78125 C35.29167854 -0.84318542 35.29167854 -0.84318542 36.72502136 -0.90637207 C39.3737027 -0.90818967 41.47822593 -0.8158496 44 0 C46.36081154 2.36744148 47.64444005 4.97024891 49 8 C49.52053955 8.95567871 50.0410791 9.91135742 50.57739258 10.89599609 C51.01204834 11.76305176 51.4467041 12.63010742 51.89453125 13.5234375 C52.37470703 14.48121094 52.85488281 15.43898437 53.34960938 16.42578125 C53.83236328 17.39902344 54.31511719 18.37226563 54.8125 19.375 C55.56563477 20.86966797 55.56563477 20.86966797 56.33398438 22.39453125 C57.04458008 23.81958984 57.04458008 23.81958984 57.76953125 25.2734375 C58.19854736 26.13372559 58.62756348 26.99401367 59.06958008 27.88037109 C60 30 60 30 60 32 C72.21 32 84.42 32 97 32 C97.99 29.525 97.99 29.525 99 27 C104.41761515 22.12414637 107.85731629 21.64559312 115.015625 21.72265625 C120.37049732 22.22029491 122.81340277 24.75095028 126.375 28.5 C128.77303575 33.66500009 128.75381535 38.4002288 128 44 C125.73212562 48.8846525 122.8846525 51.73212562 118 54 C112.32307279 54.76420174 107.62399778 54.79775329 102.4375 52.25 C100.28065948 50.25907029 98.50851388 48.5141898 97 46 C97 45.34 97 44.68 97 44 C96.44733963 44.01776489 95.89467926 44.03552979 95.32527161 44.05383301 C89.56679728 44.2309884 83.80909752 44.35153991 78.04858398 44.43945312 C75.89982664 44.4796562 73.75128776 44.53423005 71.60327148 44.60351562 C68.51231054 44.70071116 65.42424262 44.7459562 62.33203125 44.78125 C61.37351761 44.82254028 60.41500397 44.86383057 59.42744446 44.90637207 C52.91564742 44.9107413 52.91564742 44.9107413 50.35112 42.35995483 C49.03325131 40.29339958 47.99340591 38.23866028 47 36 C46.47946045 35.04432129 45.9589209 34.08864258 45.42260742 33.10400391 C44.98795166 32.23694824 44.5532959 31.36989258 44.10546875 30.4765625 C43.62529297 29.51878906 43.14511719 28.56101563 42.65039062 27.57421875 C42.16763672 26.60097656 41.68488281 25.62773437 41.1875 24.625 C40.43436523 23.13033203 40.43436523 23.13033203 39.66601562 21.60546875 C38.95541992 20.18041016 38.95541992 20.18041016 38.23046875 18.7265625 C37.80145264 17.86627441 37.37243652 17.00598633 36.93041992 16.11962891 C36 14 36 14 36 12 C24.45 12 12.9 12 1 12 C0.67 8.04 0.34 4.08 0 0 Z " fill="#1B2E69" transform="translate(360,178)"/>
<path d="M0 0 C4.01236373 1.97098569 6.69250253 4.15417088 9 8 C9 8.66 9 9.32 9 10 C38.04 10 67.08 10 97 10 C94 20 94 20 93 22 C65.28 22 37.56 22 9 22 C8.01 24.475 8.01 24.475 7 27 C1.58238485 31.87585363 -1.85731629 32.35440688 -9.015625 32.27734375 C-14.37049732 31.77970509 -16.81340277 29.24904972 -20.375 25.5 C-22.77303575 20.33499991 -22.75381535 15.5997712 -22 10 C-17.52985943 0.37200493 -9.8460955 -1.35063038 0 0 Z " fill="#1B2E69" transform="translate(70,120)"/>
<path d="M0 0 C4.8846525 2.26787438 7.73212562 5.1153475 10 10 C10.75381535 15.5997712 10.77303575 20.33499991 8.375 25.5 C3.80134327 30.3143755 0.6912538 32.25156236 -6 32.5 C-11.09962611 32.3230613 -14.149744 31.55408246 -18 28 C-21 24.6 -21 24.6 -21 22 C-48.72 22 -76.44 22 -105 22 C-106.32 18.04 -107.64 14.08 -109 10 C-79.96 10 -50.92 10 -21 10 C-20.34 8.35 -19.68 6.7 -19 5 C-12.90366991 -0.48669708 -8.04029724 -0.7472004 0 0 Z " fill="#1B2E69" transform="translate(454,120)"/>
<path d="M0 0 C5.28 0 10.56 0 16 0 C17.090185 32.41483399 14.32289139 67.03132584 4 98 C-1.97326091 95.53637395 -5.95908466 90.5568296 -9 85 C-9.36132208 80.39022961 -8.23526232 76.42254409 -7 72 C-1.60549216 48.28724359 -0.48879361 24.22056597 0 0 Z " fill="#C81A5A" transform="translate(366,239)"/>
<path d="M0 0 C7.59 0 15.18 0 23 0 C24.093125 3.279375 25.18625 6.55875 26.3125 9.9375 C30.46566772 22.11296519 35.54994351 33.80743981 40.89013672 45.50244141 C42 48 42 48 42.89501953 50.69677734 C44.19824044 53.41321263 45.22306443 53.98179029 48 55 C44.43812343 55.17479953 40.87735227 55.28101143 37.3125 55.375 C36.30509766 55.42527344 35.29769531 55.47554688 34.25976562 55.52734375 C26.80599998 55.67494307 26.80599998 55.67494307 23.1171875 52.5859375 C22.03735352 50.92236328 22.03735352 50.92236328 21 49 C20.38692993 47.94208252 20.38692993 47.94208252 19.76147461 46.86279297 C18.36944818 44.35803121 17.0820855 41.81894314 15.8125 39.25 C15.34416748 38.31003174 14.87583496 37.37006348 14.39331055 36.40161133 C0 6.82568744 0 6.82568744 0 0 Z " fill="#283C85" transform="translate(162,349)"/>
<path d="M0 0 C4.8846525 2.26787438 7.73212562 5.1153475 10 10 C10.75381535 15.5997712 10.77303575 20.33499991 8.375 25.5 C3.80134327 30.3143755 0.6912538 32.25156236 -6 32.5 C-11.09962611 32.3230613 -14.149744 31.55408246 -18 28 C-21.9819649 23.46879857 -22.29123201 19.33487672 -22.21484375 13.50390625 C-21.79834579 8.64981188 -19.99101249 5.89432834 -16.4375 2.6875 C-11.2447332 -0.9074924 -6.18024505 -0.57434215 0 0 Z " fill="#F9DF57" transform="translate(478,200)"/>
<path d="M0 0 C4.03654111 1.9828623 6.6500056 4.16579861 9 8 C10.81205684 13.43617053 10.7099836 18.98215186 8.8125 24.375 C6.42182199 27.83736126 3.7594239 30.12028805 0 32 C-5.53042052 32.50502343 -10.41030524 32.73807257 -15.5 30.375 C-20.3143755 25.80134327 -22.25156236 22.6912538 -22.5 16 C-22.25156236 9.3087462 -20.3143755 6.19865673 -15.5 1.625 C-10.34184625 -0.7698571 -5.59308489 -0.76722701 0 0 Z " fill="#F9DF57" transform="translate(46,200)"/>
<path d="M0 0 C4.8846525 2.26787438 7.73212562 5.1153475 10 10 C10.75381535 15.5997712 10.77303575 20.33499991 8.375 25.5 C3.80134327 30.3143755 0.6912538 32.25156236 -6 32.5 C-11.09962611 32.3230613 -14.149744 31.55408246 -18 28 C-21.9819649 23.46879857 -22.29123201 19.33487672 -22.21484375 13.50390625 C-21.79834579 8.64981188 -19.99101249 5.89432834 -16.4375 2.6875 C-11.2447332 -0.9074924 -6.18024505 -0.57434215 0 0 Z " fill="#F9DF57" transform="translate(454,120)"/>
<path d="M0 0 C4.03654111 1.9828623 6.6500056 4.16579861 9 8 C10.81205684 13.43617053 10.7099836 18.98215186 8.8125 24.375 C6.42182199 27.83736126 3.7594239 30.12028805 0 32 C-5.53042052 32.50502343 -10.41030524 32.73807257 -15.5 30.375 C-20.3143755 25.80134327 -22.25156236 22.6912538 -22.5 16 C-22.25156236 9.3087462 -20.3143755 6.19865673 -15.5 1.625 C-10.34184625 -0.7698571 -5.59308489 -0.76722701 0 0 Z " fill="#F9DF57" transform="translate(70,120)"/>
<path d="M0 0 C4.8846525 2.26787438 7.73212562 5.1153475 10 10 C10.75381535 15.5997712 10.77303575 20.33499991 8.375 25.5 C3.80134327 30.3143755 0.6912538 32.25156236 -6 32.5 C-11.09962611 32.3230613 -14.149744 31.55408246 -18 28 C-21.9819649 23.46879857 -22.29123201 19.33487672 -22.21484375 13.50390625 C-21.79834579 8.64981188 -19.99101249 5.89432834 -16.4375 2.6875 C-11.2447332 -0.9074924 -6.18024505 -0.57434215 0 0 Z " fill="#F9DF57" transform="translate(478,40)"/>
<path d="M0 0 C4.03654111 1.9828623 6.6500056 4.16579861 9 8 C10.81205684 13.43617053 10.7099836 18.98215186 8.8125 24.375 C6.42182199 27.83736126 3.7594239 30.12028805 0 32 C-5.53042052 32.50502343 -10.41030524 32.73807257 -15.5 30.375 C-20.3143755 25.80134327 -22.25156236 22.6912538 -22.5 16 C-22.25156236 9.3087462 -20.3143755 6.19865673 -15.5 1.625 C-10.34184625 -0.7698571 -5.59308489 -0.76722701 0 0 Z " fill="#F9DF57" transform="translate(46,40)"/>
<path d="M0 0 C4.22611197 2.61616455 7.78465764 5.92662487 11.296875 9.421875 C10.636875 9.751875 9.976875 10.081875 9.296875 10.421875 C8.02105445 9.82867806 6.77538061 9.17021366 5.546875 8.484375 C-1.3235101 5.30405158 -9.03424706 5.18148653 -16.3203125 7.1171875 C-18.59886449 8.05541479 -20.60954454 9.12450178 -22.703125 10.421875 C-23.41210938 10.84597656 -24.12109375 11.27007812 -24.8515625 11.70703125 C-30.25912063 15.31542041 -33.06610715 19.54480033 -35.703125 25.421875 C-36.06921875 26.21078125 -36.4353125 26.9996875 -36.8125 27.8125 C-39.54305824 35.8125566 -38.08873482 44.07302787 -34.48046875 51.49609375 C-34.22394531 52.13160156 -33.96742188 52.76710937 -33.703125 53.421875 C-34.033125 54.081875 -34.363125 54.741875 -34.703125 55.421875 C-42.76079002 47.3250951 -46.78560554 40.60489837 -47.328125 29.046875 C-47.0184904 19.14855612 -43.54928479 11.74144038 -36.390625 4.921875 C-25.79340975 -3.51371923 -12.70108014 -5.88170825 0 0 Z " fill="#325AC7" transform="translate(270.703125,154.578125)"/>
<path d="M0 0 C4.49407656 2.24703828 6.83790609 4.43557953 9 9 C9.7600378 14.596642 9.77157311 19.33815022 7.375 24.5 C2.80134327 29.3143755 -0.3087462 31.25156236 -7 31.5 C-12.09638332 31.31685859 -15.19231086 30.61242303 -19 27 C-20.875 24.25 -20.875 24.25 -22 22 C-21.35933594 22.03480469 -20.71867187 22.06960937 -20.05859375 22.10546875 C-12.92818575 22.32862608 -8.1853789 21.76625009 -2.625 16.9375 C0.28698161 11.67353325 0 5.90317456 0 0 Z " fill="#F5C116" transform="translate(479,201)"/>
<path d="M0 0 C4.49407656 2.24703828 6.83790609 4.43557953 9 9 C9.7600378 14.596642 9.77157311 19.33815022 7.375 24.5 C2.80134327 29.3143755 -0.3087462 31.25156236 -7 31.5 C-12.09638332 31.31685859 -15.19231086 30.61242303 -19 27 C-20.875 24.25 -20.875 24.25 -22 22 C-21.35933594 22.03480469 -20.71867187 22.06960937 -20.05859375 22.10546875 C-12.92818575 22.32862608 -8.1853789 21.76625009 -2.625 16.9375 C0.28698161 11.67353325 0 5.90317456 0 0 Z " fill="#F5C116" transform="translate(455,121)"/>
<path d="M0 0 C4.49407656 2.24703828 6.83790609 4.43557953 9 9 C9.7600378 14.596642 9.77157311 19.33815022 7.375 24.5 C2.80134327 29.3143755 -0.3087462 31.25156236 -7 31.5 C-12.09638332 31.31685859 -15.19231086 30.61242303 -19 27 C-20.875 24.25 -20.875 24.25 -22 22 C-21.35933594 22.03480469 -20.71867187 22.06960937 -20.05859375 22.10546875 C-12.92818575 22.32862608 -8.1853789 21.76625009 -2.625 16.9375 C0.28698161 11.67353325 0 5.90317456 0 0 Z " fill="#F5C116" transform="translate(479,41)"/>
<path d="M0 0 C4.75880624 2.5723277 7.27599472 4.82798417 9 10 C9.53476918 15.97501722 9.51280722 20.9124861 6 26 C0.59135094 30.88097598 -2.85589232 31.34980882 -10.01171875 31.28125 C-14.00438764 30.9054694 -16.10308459 29.74835565 -19 27 C-20.875 24.25 -20.875 24.25 -22 22 C-21.35933594 22.03480469 -20.71867187 22.06960937 -20.05859375 22.10546875 C-12.92818575 22.32862608 -8.1853789 21.76625009 -2.625 16.9375 C0.28698161 11.67353325 0 5.90317456 0 0 Z " fill="#F3C016" transform="translate(47,201)"/>
<path d="M0 0 C4.75880624 2.5723277 7.27599472 4.82798417 9 10 C9.53476918 15.97501722 9.51280722 20.9124861 6 26 C0.59135094 30.88097598 -2.85589232 31.34980882 -10.01171875 31.28125 C-14.00438764 30.9054694 -16.10308459 29.74835565 -19 27 C-20.875 24.25 -20.875 24.25 -22 22 C-21.35933594 22.03480469 -20.71867187 22.06960937 -20.05859375 22.10546875 C-12.92818575 22.32862608 -8.1853789 21.76625009 -2.625 16.9375 C0.28698161 11.67353325 0 5.90317456 0 0 Z " fill="#F3C016" transform="translate(71,121)"/>
<path d="M0 0 C4.75880624 2.5723277 7.27599472 4.82798417 9 10 C9.53476918 15.97501722 9.51280722 20.9124861 6 26 C0.59135094 30.88097598 -2.85589232 31.34980882 -10.01171875 31.28125 C-14.00438764 30.9054694 -16.10308459 29.74835565 -19 27 C-20.875 24.25 -20.875 24.25 -22 22 C-21.35933594 22.03480469 -20.71867187 22.06960937 -20.05859375 22.10546875 C-12.92818575 22.32862608 -8.1853789 21.76625009 -2.625 16.9375 C0.28698161 11.67353325 0 5.90317456 0 0 Z " fill="#F3C016" transform="translate(47,41)"/>
</svg>
