<?xml version="1.0" encoding="UTF-8"?>
<svg version="1.1" xmlns="http://www.w3.org/2000/svg" width="512" height="512">
<path d="M0 0 C7.78862762 7.18624734 13.66260771 15.47176838 19.0703125 24.53515625 C19.42577148 25.12635254 19.78123047 25.71754883 20.14746094 26.32666016 C35.84399225 52.87811665 48.62802056 91.0310194 41.9453125 122.09765625 C40.78891057 126.1734062 39.08472953 129.17828053 36.6953125 132.66015625 C34.46737959 136.05835189 34.46737959 136.05835189 34.28125 139.9921875 C34.81522634 141.67077648 35.41014738 143.33097438 36.05859375 144.96875 C41.25981058 158.16257031 39.99409081 173.62624755 34.453125 186.47265625 C30.0454165 195.9250736 30.0454165 195.9250736 26.84765625 197.92578125 C26.26113281 198.126875 25.67460937 198.32796875 25.0703125 198.53515625 C24.93496094 197.68695313 24.79960937 196.83875 24.66015625 195.96484375 C22.10365656 182.0342167 16.98984648 170.8947568 6.0703125 161.53515625 C2.55922769 162.85681935 -0.75746266 164.42918987 -4.09033203 166.14868164 C-27.88994823 178.403443 -52.63179369 186.58736981 -78.9296875 191.53515625 C-79.62078613 191.66792969 -80.31188477 191.80070313 -81.02392578 191.9375 C-98.94457359 195.25424064 -122.82635267 196.96927499 -138.57421875 186.359375 C-165.93859571 165.16673148 -176.56404293 125.34841039 -181.515625 92.66796875 C-183.48557375 75.85468524 -183.72034804 57.44128474 -172.9296875 43.53515625 C-165.36625124 34.75947154 -156.82819763 27.57311385 -146.9296875 21.53515625 C-146.29530762 21.14263672 -145.66092773 20.75011719 -145.00732422 20.34570312 C-111.37337095 -0.18442941 -35.80790706 -30.1263858 0 0 Z " fill="#FA4968" transform="translate(191.9296875,36.46484375)"/>
<path d="M0 0 C0.61456055 0.32468262 1.22912109 0.64936523 1.86230469 0.98388672 C18.77528227 9.95857556 36.89844557 23.1561677 42.875 42.1875 C50.36522026 77.30631714 36.66836095 120.49246886 18.10253906 150.30908203 C15.3792613 154.48565904 12.31930327 158.28816501 9 162 C8.46117187 162.64324219 7.92234375 163.28648437 7.3671875 163.94921875 C-0.93289032 173.19157594 -12.24178182 176.42549019 -24.25585938 177.1328125 C-61.73622057 178.9049336 -109.08879108 167.87984899 -140.125 145.80078125 C-142.0079514 144.75115229 -142.0079514 144.75115229 -144.04296875 145.68359375 C-154.41850786 152.6627488 -159.37721785 164.01115738 -161.9375 175.875 C-162.31152889 177.91312149 -162.67346784 179.9537318 -163 182 C-168.04801409 180.31732864 -169.69221452 175.57932302 -172 171 C-177.88302676 156.38493353 -179.22290296 140.80684424 -173.14453125 125.90234375 C-172.91121094 125.35707031 -172.67789062 124.81179687 -172.4375 124.25 C-171.81417463 119.61958294 -173.90636817 117.50654134 -176.39453125 113.703125 C-185.9811615 97.56213197 -181.06977392 74.05846736 -176.74609375 56.90625 C-169.45326014 29.39191282 -157.0371042 -3.70532704 -132.57421875 -20.68359375 C-94.47403546 -41.69793379 -34.86947519 -18.79927549 0 0 Z " fill="#6CD8D5" transform="translate(458,53)"/>
<path d="M0 0 C9.18763742 3.74503133 14.15974882 9.34564904 18.2421875 18.3359375 C21.70370535 27.81333465 20.48873637 36.96963041 17.375 46.4375 C15.333645 50.65302105 12.97475153 54.546259 10.375 58.4375 C9.04156003 60.43742891 7.70821388 62.43742037 6.375 64.4375 C7.35361496 64.44336624 8.33222992 64.44923248 9.34049988 64.45527649 C18.56612585 64.51250654 27.79151617 64.58526965 37.01690197 64.67321491 C41.75970445 64.71792934 46.50242082 64.75718312 51.24536133 64.78393555 C55.8231647 64.80995781 60.40063688 64.8503526 64.97823524 64.90068626 C66.72407217 64.91736227 68.4699664 64.92887198 70.21587181 64.93511391 C72.66274045 64.94474711 75.10876041 64.97279619 77.55541992 65.00512695 C78.27615189 65.00369186 78.99688385 65.00225677 79.73945618 65.0007782 C84.11194908 65.08240961 86.90343739 65.74340186 90.375 68.4375 C94.4837476 74.81314282 94.12150273 82.07426854 93.375 89.4375 C92.36202586 93.41704127 91.10170502 96.35414974 87.55078125 98.58203125 C85.625 99.4375 85.625 99.4375 82.375 100.4375 C83.3340625 101.5821875 83.3340625 101.5821875 84.3125 102.75 C88.71611345 108.48804177 87.94882755 115.50566315 87.375 122.4375 C86.38916504 125.62394286 85.24951164 127.62573254 83.375 130.4375 C82.715 130.7675 82.055 131.0975 81.375 131.4375 C80.00817366 134.20300792 80.00817366 134.20300792 79.375 137.4375 C80.04022674 139.10474192 80.70706802 140.77134001 81.375 142.4375 C82.14222938 149.66141297 81.68140803 155.94276994 78.375 162.4375 C75.91361488 164.89888512 73.78189897 165.82912518 70.375 166.4375 C71.3340625 167.7678125 71.3340625 167.7678125 72.3125 169.125 C76.15273391 175.29264839 76.34006957 182.65304492 74.9140625 189.72265625 C73.61414303 193.81357928 72.19938198 196.17302455 68.46299744 198.57643318 C63.74381382 200.52257179 58.4168977 199.9786268 53.39648438 199.93920898 C52.08851395 199.94461197 50.78054352 199.95001495 49.43293762 199.95558167 C45.85638803 199.96950956 42.28032095 199.95838572 38.70379829 199.94187045 C34.95499446 199.9279881 31.20621774 199.93448365 27.45739746 199.93800354 C21.162763 199.94070316 14.86831949 199.92725158 8.57373047 199.90405273 C1.30388844 199.87744445 -5.9656344 199.87569677 -13.23550844 199.8874411 C-20.23864595 199.8982331 -27.24166837 199.89202068 -34.24479675 199.87788582 C-37.22074617 199.87213832 -40.19661103 199.87219893 -43.17256165 199.87695122 C-47.33071161 199.88262461 -51.48838784 199.86337132 -55.64648438 199.84155273 C-56.87783615 199.84605438 -58.10918793 199.85055603 -59.37785339 199.85519409 C-66.87030309 199.78983896 -71.59714374 199.18369521 -77.3125 194 C-79.22602969 191.87960224 -80.98287454 189.7710467 -82.625 187.4375 C-83.140625 188.324375 -83.65625 189.21125 -84.1875 190.125 C-87.42916261 194.993262 -91.88774213 198.2663366 -97.625 199.4375 C-101.6626533 199.73813583 -105.70244202 199.76096859 -109.75 199.8125 C-110.84054688 199.84988281 -111.93109375 199.88726562 -113.0546875 199.92578125 C-120.5963139 200.00697101 -126.38247487 198.84046215 -132.625 194.4375 C-136.62452887 190.23332789 -138.73923201 185.99225718 -138.77217102 180.18232727 C-138.77932632 179.31469254 -138.78648163 178.4470578 -138.79385376 177.5531311 C-138.79654266 176.60400848 -138.79923157 175.65488586 -138.80200195 174.67700195 C-138.80857315 173.67504288 -138.81514435 172.6730838 -138.82191467 171.64076233 C-138.84165284 168.31910122 -138.85331214 164.99748537 -138.86328125 161.67578125 C-138.86735678 160.54113119 -138.8714323 159.40648113 -138.87563133 158.23744774 C-138.89649536 152.23064735 -138.91079505 146.22386981 -138.92016602 140.21704102 C-138.93122451 134.01748621 -138.96561742 127.81829092 -139.00533772 121.61886311 C-139.03150515 116.84811239 -139.03985805 112.07744726 -139.04344749 107.30663109 C-139.04831394 105.02173627 -139.0599295 102.73684529 -139.07848549 100.45202065 C-139.10287634 97.24938254 -139.10191149 94.04767358 -139.0949707 90.8449707 C-139.10778076 89.90596924 -139.12059082 88.96696777 -139.13378906 87.99951172 C-139.08159437 81.3717701 -137.7848349 75.93862179 -133.24841785 70.91223621 C-126.42726796 64.76792006 -118.91833125 65.09974262 -110.25 65.125 C-108.60257813 65.10083008 -108.60257813 65.10083008 -106.921875 65.07617188 C-99.74533841 65.0718694 -93.27758159 65.2714592 -87.6015625 70.19140625 C-86.93253906 71.08666016 -86.93253906 71.08666016 -86.25 72 C-85.78851563 72.59941406 -85.32703125 73.19882812 -84.8515625 73.81640625 C-84.44679687 74.35136719 -84.04203125 74.88632812 -83.625 75.4375 C-82.635 76.4275 -82.635 76.4275 -81.625 77.4375 C-81.068125 76.365 -80.51125 75.2925 -79.9375 74.1875 C-77.40458186 69.75040226 -74.52972423 67.07240808 -69.625 65.4375 C-65.94271504 65.24082009 -62.26640412 65.09332793 -58.58007812 65.0078125 C-50.05037349 64.66633975 -43.80754323 62.56808908 -37.625 56.4375 C-35.89180851 54.12022434 -34.42945781 51.70118807 -33 49.1875 C-32.61320068 48.52218262 -32.22640137 47.85686523 -31.82788086 47.17138672 C-24.98692771 35.25226895 -22.32031529 24.92036821 -22.234375 11.19140625 C-22.08467946 6.02691025 -21.5501619 3.17154915 -17.625 -0.5625 C-12.26341903 -3.24329048 -5.45147468 -1.77914236 0 0 Z " fill="#D8B9A8" transform="translate(278.625,286.5625)"/>
<path d="M0 0 C8.02913968 4.63426854 11.8842227 9.81122999 14.7421875 18.61328125 C17.11820658 28.2641902 14.72089591 36.7718789 9.80078125 45.26171875 C9.35089844 45.97972656 8.90101563 46.69773437 8.4375 47.4375 C9.448125 47.664375 10.45875 47.89125 11.5 48.125 C19.78412118 50.56347115 24.38376933 56.01645313 28.4375 63.4375 C32.66958845 73.2482505 31.23038319 85.67736524 27.4375 95.4375 C23.48583468 102.91743792 17.38184898 107.69308853 9.4375 110.4375 C4.82493698 111.38760702 0.3112181 111.61200245 -4.3828125 111.640625 C-5.1227243 111.64632507 -5.86263611 111.65202515 -6.62496948 111.65789795 C-8.18648876 111.66730407 -9.7480275 111.67386438 -11.30957031 111.67773438 C-13.65987271 111.68738654 -16.00927923 111.7184286 -18.359375 111.75 C-29.48964576 111.82916476 -40.93785174 111.69629947 -49.87890625 104.16796875 C-57.70512716 96.12384841 -58.97263446 86.57428584 -58.92822266 75.81494141 C-58.72833438 67.41413215 -56.30318788 60.31270621 -50.5546875 54.04296875 C-46.38477431 50.68250929 -41.43419794 48.58956074 -36.5625 46.4375 C-37.19478516 45.32955078 -37.19478516 45.32955078 -37.83984375 44.19921875 C-42.74238828 35.12085982 -44.83925031 27.86370218 -42.4375 17.6875 C-39.57511019 8.70419626 -34.76755315 3.97556878 -26.5625 -0.5625 C-18.31648767 -4.56849264 -8.14303105 -3.81704581 0 0 Z " fill="#9B9B1B" transform="translate(458.5625,264.5625)"/>
<path d="M0 0 C5.88709365 4.45646659 8.71415694 10.88075206 11.00390625 17.75 C11.96258479 28.07543937 9.74361043 36.14044373 4.00390625 44.75 C4.73738281 44.8634375 5.47085938 44.976875 6.2265625 45.09375 C13.77326006 46.87693592 18.77350746 52.0543301 22.8125 58.40625 C25.60615933 63.90197327 26.36423517 68.88404808 26.31640625 75 C26.3107666 75.75144287 26.30512695 76.50288574 26.29931641 77.27709961 C26.09214964 86.79548952 23.99350038 94.91268461 17.00390625 101.75 C7.01230257 109.14491572 -4.22801276 109.07519417 -16.13427734 109.01074219 C-18.49082166 109.00002398 -20.84660386 109.01068098 -23.203125 109.0234375 C-35.08577997 109.03560873 -45.66785014 108.69690967 -54.72265625 100.11328125 C-62.35586196 91.74683657 -63.3621549 82.30090727 -63.28125 71.3671875 C-62.71282531 64.15675921 -60.34605816 56.81077715 -54.99609375 51.75 C-50.54349131 48.41891772 -46.2223285 45.69485985 -40.99609375 43.75 C-41.41761719 42.98816406 -41.83914062 42.22632813 -42.2734375 41.44140625 C-47.16207158 32.22776884 -49.19162073 25.42473965 -46.77734375 15.1640625 C-44.15069319 7.04771226 -38.4082378 0.99728643 -31.16015625 -3.3515625 C-20.89057822 -7.98803866 -9.22870314 -5.77922701 0 0 Z " fill="#9B9B1B" transform="translate(85.99609375,267.25)"/>
<path d="M0 0 C1.64742187 -0.02416992 1.64742187 -0.02416992 3.328125 -0.04882812 C10.52089961 -0.05314034 16.88190824 0.19807423 22.6484375 4.99609375 C23.09445313 5.57488281 23.54046875 6.15367187 24 6.75 C24.46148437 7.32621094 24.92296875 7.90242188 25.3984375 8.49609375 C27.73348399 11.95404476 28.87366841 14.55714887 28.89915466 18.76385498 C28.91411736 20.09261154 28.91411736 20.09261154 28.92938232 21.44821167 C28.930047 22.41244049 28.93071167 23.37666931 28.93139648 24.37011719 C28.93972 25.39172943 28.94804352 26.41334167 28.95661926 27.46591187 C28.98073646 30.84710491 28.98949417 34.22810503 28.99609375 37.609375 C29.00505973 39.96103982 29.01418156 42.31270404 29.02345276 44.66436768 C29.03995067 49.59722276 29.04764418 54.53000992 29.05053711 59.46289062 C29.05591744 65.77574975 29.09358055 72.08796794 29.13928127 78.40064621 C29.16906484 83.25976882 29.17626098 88.11873747 29.17726326 92.97794342 C29.18146399 95.30470969 29.19389226 97.63147648 29.21478081 99.95815277 C29.24171674 103.21834513 29.2368618 106.47705687 29.22436523 109.73730469 C29.23919952 110.69343658 29.25403381 111.64956848 29.26931763 112.63467407 C29.19965703 119.03532928 27.81739896 123.39852889 23.625 128.3125 C16.3840076 134.66389295 9.87765718 134.56810853 0.5 134.6875 C-0.59054688 134.72488281 -1.68109375 134.76226562 -2.8046875 134.80078125 C-10.3463139 134.88197101 -16.13247487 133.71546215 -22.375 129.3125 C-26.37452887 125.10832789 -28.48923201 120.86725718 -28.52217102 115.05732727 C-28.52932632 114.18969254 -28.53648163 113.3220578 -28.54385376 112.4281311 C-28.54654266 111.47900848 -28.54923157 110.52988586 -28.55200195 109.55200195 C-28.55857315 108.55004288 -28.56514435 107.5480838 -28.57191467 106.51576233 C-28.59165284 103.19410122 -28.60331214 99.87248537 -28.61328125 96.55078125 C-28.61735678 95.41613119 -28.6214323 94.28148113 -28.62563133 93.11244774 C-28.64649536 87.10564735 -28.66079505 81.09886981 -28.67016602 75.09204102 C-28.68122451 68.89248621 -28.71561742 62.69329092 -28.75533772 56.49386311 C-28.78150515 51.72311239 -28.78985805 46.95244726 -28.79344749 42.18163109 C-28.79831394 39.89673627 -28.8099295 37.61184529 -28.82848549 35.32702065 C-28.85287634 32.12438254 -28.85191149 28.92267358 -28.8449707 25.7199707 C-28.85778076 24.78096924 -28.87059082 23.84196777 -28.88378906 22.87451172 C-28.83159437 16.2467701 -27.5348349 10.81362179 -22.99841785 5.78723621 C-16.17726796 -0.35707994 -8.66833125 -0.02525738 0 0 Z " fill="#5599FE" transform="translate(168.375,351.6875)"/>
<path d="M0 0 C5.97414356 4.29000404 9.43202059 9.84142735 11 17 C11.88228924 26.69515563 11.08131652 35.72103549 8 45 C7.5978125 46.22074219 7.195625 47.44148438 6.78125 48.69921875 C-1.4249518 72.4249518 -1.4249518 72.4249518 -9 80 C-26.96644978 79.75132941 -49.35375621 68.16426354 -62 56 C-68.98361089 48.3405558 -72.66839286 41.46954302 -72.33984375 30.9296875 C-71.47082929 23.43818357 -67.68913426 19.22530364 -62.09765625 14.4453125 C-55.85963785 10.14723651 -49.3353902 10.36573694 -42 11 C-39.58776835 11.74787827 -38.09531607 12.56321184 -36 14 C-35.7215625 12.7625 -35.7215625 12.7625 -35.4375 11.5 C-32.84943716 5.19862962 -28.72403022 0.5061445 -22.5625 -2.5 C-14.33523179 -5.6130204 -7.54819336 -4.14965932 0 0 Z " fill="#F4F2F2" transform="translate(148,90)"/>
<path d="M0 0 C7.21710829 5.0196271 10.43673593 11.26618634 12.52734375 19.7578125 C13.66486124 27.31417868 11.88116036 33.96192095 8.52734375 40.7578125 C3.1073039 47.72643516 -4.82257447 52.36263802 -13.47265625 53.7578125 C-21.5653378 54.50713487 -28.75274856 52.33103558 -35.28515625 47.5703125 C-41.48524049 42.35610738 -45.65852885 35.92816253 -46.47265625 27.7578125 C-46.5756107 19.08390008 -44.78281805 11.57722996 -39.03515625 4.9453125 C-38.18953125 4.2234375 -37.34390625 3.5015625 -36.47265625 2.7578125 C-35.68890625 2.0565625 -34.90515625 1.3553125 -34.09765625 0.6328125 C-23.65523739 -6.82605811 -11.00047957 -6.34927009 0 0 Z " fill="#ABB633" transform="translate(461.47265625,266.2421875)"/>
<path d="M0 0 C5.88709365 4.45646659 8.71415694 10.88075206 11.00390625 17.75 C11.87072632 27.08607841 10.75425984 35.03526977 4.81640625 42.5 C-3.60403922 49.23635638 -10.77858665 53.71702647 -21.99609375 52.75 C-30.1648268 51.35398978 -36.2776659 47.73204332 -41.99609375 41.75 C-47.25416386 34.24880823 -48.78002949 26.64723699 -47.37109375 17.6875 C-45.31848037 8.96389312 -40.23906546 2.87704739 -32.99609375 -2.25 C-22.71331607 -8.41966661 -9.68868099 -6.06727577 0 0 Z " fill="#ABB733" transform="translate(85.99609375,267.25)"/>
<path d="M0 0 C0.33 0 0.66 0 1 0 C1.6719902 3.91577268 2.33666742 7.8327522 3 11.75 C3.19078125 12.86117187 3.3815625 13.97234375 3.578125 15.1171875 C3.75859375 16.18710938 3.9390625 17.25703125 4.125 18.359375 C4.37636719 19.83615723 4.37636719 19.83615723 4.6328125 21.34277344 C5 24 5 24 5 28 C6.155 28.33 7.31 28.66 8.5 29 C16.0232441 31.47554581 22.98211598 35.37481083 30 39 C27.20068317 41.29761279 24.83871985 42.51864786 21.375 43.53125 C15.62486513 45.53347208 10.25394081 47.49336954 6 52 C2.42196077 60.41658416 2.19414155 69.95719116 2 79 C-1.53914247 76.10770668 -4.92175581 73.21243525 -7.921875 69.75390625 C-12.95677054 63.68869801 -12.95677054 63.68869801 -19.83203125 60.37890625 C-22.69644275 60.63707209 -25.23489345 61.21504108 -28 62 C-29.95551634 62.36940401 -31.91392549 62.72384055 -33.875 63.0625 C-34.73867188 63.23910156 -35.60234375 63.41570312 -36.4921875 63.59765625 C-39.03903752 64.00626303 -41.42531411 64.06921199 -44 64 C-42.29070612 58.21191492 -39.57387701 53.17107468 -36.65820312 47.921875 C-35.02058969 44.80714019 -34.0118657 42.6339674 -33.9453125 39.078125 C-35.46155393 34.65294632 -37.70224986 30.77573613 -40.0625 26.75 C-40.99455418 25.14274695 -41.92312523 23.53346731 -42.84765625 21.921875 C-43.26023682 21.21643555 -43.67281738 20.51099609 -44.09790039 19.78417969 C-45 18 -45 18 -45 16 C-44.39526855 16.09087891 -43.79053711 16.18175781 -43.16748047 16.27539062 C-40.4039706 16.6880917 -37.63951646 17.09409877 -34.875 17.5 C-33.44800781 17.71462891 -33.44800781 17.71462891 -31.9921875 17.93359375 C-25.00591717 19.13263444 -25.00591717 19.13263444 -18 19 C-15.36067303 17.12490395 -15.36067303 17.12490395 -13.0625 14.5 C-12.20914063 13.59378906 -11.35578125 12.68757813 -10.4765625 11.75390625 C-7.27999564 8.19936423 -4.10402559 4.63560184 -1 1 C-0.67 0.67 -0.34 0.34 0 0 Z " fill="#FDFEFE" transform="translate(401,91)"/>
<path d="M0 0 C0.76772232 0.00091141 1.53544464 0.00182281 2.32643127 0.00276184 C3.11554398 -0.00152328 3.90465668 -0.00580841 4.71768188 -0.01022339 C6.38795512 -0.01597053 8.05825338 -0.01646412 9.72853088 -0.01213074 C12.28568724 -0.00897345 14.84168392 -0.03241442 17.3986969 -0.05778503 C19.02044023 -0.06005825 20.64218667 -0.06076142 22.26393127 -0.05973816 C23.02962936 -0.06894791 23.79532745 -0.07815765 24.58422852 -0.08764648 C29.85931806 -0.04163187 29.85931806 -0.04163187 32.34425354 1.66609192 C33.80448327 4.01640649 33.77777489 5.59832521 33.36158752 8.30354309 C29.59925689 10.81176351 26.62020386 10.59220093 22.26393127 10.56916809 C21.47386185 10.57108154 20.68379242 10.572995 19.86978149 10.57496643 C18.20127544 10.57632642 16.53275875 10.57264298 14.86427307 10.56428528 C12.30519472 10.55356867 9.7468161 10.56419391 7.1877594 10.57698059 C5.56731514 10.57565924 3.94687131 10.57309736 2.32643127 10.56916809 C1.17484779 10.57524078 1.17484779 10.57524078 0 10.58143616 C-5.40848141 10.53347416 -5.40848141 10.53347416 -7.63841248 8.30354309 C-7.88841248 5.30354309 -7.88841248 5.30354309 -7.63841248 2.30354309 C-5.10146844 -0.23340094 -3.46209806 0.04642026 0 0 Z " fill="#C9A28F" transform="translate(325.63841247558594,413.6964569091797)"/>
<path d="M0 0 C1.04450317 0.00326294 1.04450317 0.00326294 2.11010742 0.0065918 C4.23278268 0.00974873 6.35405999 -0.01369198 8.4765625 -0.0390625 C9.82486803 -0.04133583 11.17317731 -0.04203883 12.52148438 -0.04101562 C14.36407837 -0.04548706 14.36407837 -0.04548706 16.24389648 -0.05004883 C19.30664062 0.32226562 19.30664062 0.32226562 21.16821289 1.6574707 C22.30664062 3.32226562 22.30664062 3.32226562 23.30664062 6.32226562 C19.43455478 9.96854753 17.09016583 10.82175981 11.79882812 10.78320312 C9.94837891 10.77740234 9.94837891 10.77740234 8.06054688 10.77148438 C6.78050781 10.74699219 5.50046875 10.7225 4.18164062 10.69726562 C2.24998047 10.69533203 2.24998047 10.69533203 0.27929688 10.69335938 C-9.27173331 10.60334967 -9.27173331 10.60334967 -12.69335938 8.32226562 C-13.00585938 5.32226562 -13.00585938 5.32226562 -12.69335938 2.32226562 C-9.30670722 -1.06438653 -4.57181389 0.01892366 0 0 Z " fill="#C9A28F" transform="translate(336.693359375,380.677734375)"/>
<path d="M0 0 C1.28841797 -0.00257813 2.57683594 -0.00515625 3.90429688 -0.0078125 C4.5769458 -0.00362305 5.24959473 0.00056641 5.94262695 0.00488281 C7.99265274 0.01556635 10.04179872 0.00499537 12.09179688 -0.0078125 C14.02635742 -0.00394531 14.02635742 -0.00394531 16 0 C17.7797522 0.00338379 17.7797522 0.00338379 19.59545898 0.00683594 C22.56640625 0.265625 22.56640625 0.265625 25.56640625 2.265625 C26.44140625 4.703125 26.44140625 4.703125 26.56640625 7.265625 C25.49829102 8.90307617 25.49829102 8.90307617 23.56640625 10.265625 C20.50366211 10.63793945 20.50366211 10.63793945 16.78125 10.62890625 C15.79591026 10.62965401 15.79591026 10.62965401 14.79066467 10.63041687 C13.40460173 10.62807988 12.01853426 10.61837325 10.63256836 10.60180664 C8.50791641 10.57816961 6.38451603 10.58125308 4.25976562 10.58789062 C-6.1544346 10.54478415 -6.1544346 10.54478415 -8.43359375 8.265625 C-8.68359375 5.265625 -8.68359375 5.265625 -8.43359375 2.265625 C-5.64313082 -0.52483793 -3.90204369 0.0074259 0 0 Z " fill="#C9A28F" transform="translate(321.43359375,446.734375)"/>
<path d="M0 0 C3.28870485 2.72721866 3.89723897 4.28067282 4.5 8.5 C3.9231981 12.53761333 2.85349783 14.14650217 0 17 C-3.10048928 18.55024464 -5.57894218 18.28992015 -9 18 C-11.875 16.5625 -11.875 16.5625 -14 14 C-14.97499943 10.94386143 -15.30759211 8.19554026 -15 5 C-11.07376486 -1.49859609 -6.96424883 -1.78126436 0 0 Z " fill="#F64A6B" transform="translate(174,372)"/>
</svg>
