<?xml version="1.0" encoding="UTF-8"?>
<svg version="1.1" xmlns="http://www.w3.org/2000/svg" width="512" height="512">
<path d="M0 0 C5.7449641 2.93776573 10.65306026 8.14149222 12.76953125 14.21484375 C14.37317718 21.86905563 13.80293034 28.50090351 9.63671875 35.2265625 C7.16256914 38.42332088 4.42083298 40.65489326 0.78125 42.37890625 C-0.20875 42.37890625 -1.19875 42.37890625 -2.21875 42.37890625 C-2.21875 56.56890625 -2.21875 70.75890625 -2.21875 85.37890625 C0.75125 85.37890625 3.72125 85.37890625 6.78125 85.37890625 C8.41982049 85.51719537 10.05658689 85.69118001 11.68359375 85.9296875 C12.50698242 86.04981201 13.33037109 86.16993652 14.17871094 86.29370117 C15.01692383 86.42494385 15.85513672 86.55618652 16.71875 86.69140625 C17.59176758 86.82458252 18.46478516 86.95775879 19.36425781 87.0949707 C25.36442546 88.05076449 31.03585557 89.3680182 36.78125 91.37890625 C36.73484375 90.11175781 36.6884375 88.84460938 36.640625 87.5390625 C36.13554867 68.33663229 36.13554867 68.33663229 42.875 61.14453125 C48.21159972 56.12812752 52.56985786 53.09573207 60.08203125 53.18359375 C61.05849609 53.19003906 62.03496094 53.19648437 63.04101562 53.203125 C64.04841797 53.21988281 65.05582031 53.23664062 66.09375 53.25390625 C67.12048828 53.26292969 68.14722656 53.27195313 69.20507812 53.28125 C71.73070899 53.30474424 74.2558581 53.33759494 76.78125 53.37890625 C77.06742187 52.45335937 77.35359375 51.5278125 77.6484375 50.57421875 C79.51577389 45.30704231 82.54651641 41.84075085 87.28125 39.00390625 C93.45285025 36.22201068 100.71654571 36.26193873 107.18359375 38.0390625 C112.96640453 40.60303427 117.184509 45.07605842 119.921875 50.73828125 C121.87497352 56.73962034 121.84869554 63.87489246 119.28125 69.69140625 C116.01214791 75.2051383 111.12824572 79.98963629 104.90625 81.87890625 C97.36148714 83.19554134 90.76834409 82.18061321 84.46875 77.7734375 C80.88634607 74.8129787 78.7838526 71.49730203 76.78125 67.37890625 C73.71851169 67.32480489 70.65673548 67.285184 67.59375 67.25390625 C66.29727539 67.22876953 66.29727539 67.22876953 64.97460938 67.203125 C58.56332759 67.01258898 58.56332759 67.01258898 52.78125 69.37890625 C50.07897864 74.56793039 50.34264961 80.52211822 50.15625 86.25390625 C50.11757813 87.2284375 50.07890625 88.20296875 50.0390625 89.20703125 C49.94531967 91.59747345 49.8596117 93.98791869 49.78125 96.37890625 C50.45027344 96.46914062 51.11929687 96.559375 51.80859375 96.65234375 C55.60051269 97.57914654 58.89218859 99.23216244 62.34375 101.00390625 C63.05120361 101.36436035 63.75865723 101.72481445 64.48754883 102.09619141 C80.84069203 110.50278971 94.56312334 120.68588326 107.78125 133.37890625 C108.3366748 133.9095166 108.89209961 134.44012695 109.46435547 134.98681641 C113.76235924 139.1733685 117.53355913 143.60006105 121.15625 148.37890625 C121.71715332 149.11802246 122.27805664 149.85713867 122.85595703 150.61865234 C131.85626001 162.66283462 140.00169383 176.04023774 144.78125 190.37890625 C147.82346065 190.46023267 150.8634738 190.51955999 153.90625 190.56640625 C154.7621875 190.59154297 155.618125 190.61667969 156.5 190.64257812 C161.77509611 190.70344462 165.13239468 190.13780637 169.78125 187.37890625 C170.44125 187.37890625 171.10125 187.37890625 171.78125 187.37890625 C173.83847588 182.21075344 174.19638319 177.48667665 174.40625 172.00390625 C174.44492187 171.17246094 174.48359375 170.34101563 174.5234375 169.484375 C174.61699246 167.44955469 174.70017713 165.41426209 174.78125 163.37890625 C173.65396484 163.20875 173.65396484 163.20875 172.50390625 163.03515625 C167.5308192 161.83647817 164.23815221 158.57277946 161.4453125 154.3671875 C158.18346027 147.924451 157.44848559 141.13520923 159.40625 134.1484375 C162.30414988 127.45998108 167.6474449 122.6434241 174.34375 119.94140625 C182.06881955 118.67730396 187.96485346 119.46821721 194.78125 123.37890625 C199.95852169 127.85191671 203.29403172 132.55183629 203.9921875 139.46875 C204.30099523 146.41692387 202.70839143 152.18140807 198.40625 157.69140625 C195.95223983 160.20384524 193.94274374 161.88135658 190.78125 163.37890625 C189.79125 163.37890625 188.80125 163.37890625 187.78125 163.37890625 C187.80219727 163.93239746 187.82314453 164.48588867 187.84472656 165.05615234 C188.60488018 188.17348232 188.60488018 188.17348232 180.71875 197.25390625 C171.75787027 205.25064069 161.05485211 204.88812793 149.78125 204.37890625 C149.92747803 205.02738525 150.07370605 205.67586426 150.22436523 206.34399414 C150.90065625 209.37402471 151.55969653 212.4075816 152.21875 215.44140625 C152.56389648 216.96991211 152.56389648 216.96991211 152.91601562 218.52929688 C154.73939459 227.01197293 155.18880593 234.49224521 155.78125 243.37890625 C169.64125 243.37890625 183.50125 243.37890625 197.78125 243.37890625 C198.44125 241.39890625 199.10125 239.41890625 199.78125 237.37890625 C202.96602294 231.93825248 207.96297555 229.37001279 213.78125 227.37890625 C220.92524287 226.22952598 226.83880794 227.20972139 232.78125 231.37890625 C237.97890773 235.88354295 241.30922261 240.54970296 241.984375 247.45703125 C242.13434949 254.40584909 241.00459841 259.73492436 236.46875 265.12890625 C229.97592835 270.56475694 225.18455421 272.83343515 216.765625 272.7109375 C210.71406772 272.03766215 205.82466445 269.74453576 201.82421875 265.11328125 C197.78125 259.2429285 197.78125 259.2429285 197.78125 256.37890625 C183.92125 256.37890625 170.06125 256.37890625 155.78125 256.37890625 C152.8776323 269.81926601 152.8776323 269.81926601 154.72216797 283.43310547 C157.61418398 286.97428332 161.48255979 289.0487633 165.48583984 291.14355469 C167.93364788 292.46092425 170.22810643 293.92260878 172.55078125 295.44921875 C189.65765033 306.60992105 207.74167844 316.67807473 226.62719727 324.48925781 C227.78046509 324.97797363 227.78046509 324.97797363 228.95703125 325.4765625 C229.62645752 325.74992432 230.29588379 326.02328613 230.9855957 326.30493164 C233.3900314 327.74301629 234.35528037 328.93921442 235.78125 331.37890625 C236.07138835 334.03419632 236.19159179 336.45286332 236.16943359 339.10644531 C236.17731903 340.26845963 236.17731903 340.26845963 236.18536377 341.45394897 C236.19857284 344.01768136 236.18981234 346.58079237 236.1796875 349.14453125 C236.18171044 350.9389457 236.18462371 352.73335935 236.18838501 354.527771 C236.19281163 358.2972391 236.18637557 362.06649417 236.17236328 365.8359375 C236.15541884 370.62334674 236.16501572 375.41024587 236.18308067 380.19763565 C236.19403648 383.91102786 236.1904163 387.62430375 236.1826973 391.33769989 C236.18071992 393.09960747 236.18306612 394.86152621 236.19013596 396.62342072 C236.2931403 429.55862688 224.78370313 456.49095004 202.0078125 480.2109375 C188.8043929 493.47492325 165.88777003 510.73007094 146.53125 511.81640625 C126.11294093 511.54969394 103.7069981 493.53352172 89.78125 480.37890625 C89.03101563 479.693125 88.28078125 479.00734375 87.5078125 478.30078125 C78.80861139 470.05943283 70.67013207 459.39175638 65.78125 448.37890625 C65.78125 447.71890625 65.78125 447.05890625 65.78125 446.37890625 C65.08 446.4253125 64.37875 446.47171875 63.65625 446.51953125 C57.06436778 446.77030938 52.12161631 446.45759742 46.78125 442.37890625 C41.43848812 437.37777746 37.13871992 432.72938643 36.63037109 425.12060547 C36.58489194 422.57827074 36.60647803 420.04610543 36.65625 417.50390625 C36.66527344 416.62476563 36.67429687 415.745625 36.68359375 414.83984375 C36.70700423 412.68607915 36.7428699 410.53245611 36.78125 408.37890625 C35.87246094 408.64445312 34.96367187 408.91 34.02734375 409.18359375 C21.8871079 412.59531131 10.48434348 414.37890625 -2.21875 414.37890625 C-2.21875 428.56890625 -2.21875 442.75890625 -2.21875 457.37890625 C-0.56875 457.70890625 1.08125 458.03890625 2.78125 458.37890625 C8.50124887 462.23115039 11.51117972 466.68798973 13.31640625 473.35546875 C14.44213527 479.85105461 13.05698313 485.66797334 10.28125 491.56640625 C5.7821735 496.62786731 1.12536674 499.80497317 -5.6328125 500.96484375 C-13.92768568 501.34434775 -19.86769753 499.80843346 -26.21875 494.37890625 C-30.34750315 489.63084013 -32.15535953 484.40067951 -32.25390625 478.1484375 C-31.79926364 471.70581901 -30.05561565 466.06134574 -25.28125 461.546875 C-19.97123829 457.37890625 -19.97123829 457.37890625 -16.21875 457.37890625 C-16.21875 443.18890625 -16.21875 428.99890625 -16.21875 414.37890625 C-19.18875 414.37890625 -22.15875 414.37890625 -25.21875 414.37890625 C-27.19822062 414.16673739 -29.17351519 413.90459939 -31.13671875 413.57421875 C-32.16345703 413.40277344 -33.19019531 413.23132813 -34.24804688 413.0546875 C-35.29025391 412.87292969 -36.33246094 412.69117188 -37.40625 412.50390625 C-38.98696289 412.24287109 -38.98696289 412.24287109 -40.59960938 411.9765625 C-45.63077308 411.12059892 -50.43251056 410.21404469 -55.21875 408.37890625 C-55.17234375 409.64605469 -55.1259375 410.91320312 -55.078125 412.21875 C-54.7863786 423.396076 -54.66926536 431.64822036 -62.53125 440.25390625 C-67.23661924 444.97066863 -72.21600612 446.54142287 -78.71484375 446.671875 C-80.69552614 446.65213398 -82.67610659 446.61665062 -84.65625 446.56640625 C-85.67396484 446.55287109 -86.69167969 446.53933594 -87.74023438 446.52539062 C-90.23363214 446.49027235 -92.72590512 446.44109184 -95.21875 446.37890625 C-95.50492188 447.30445313 -95.79109375 448.23 -96.0859375 449.18359375 C-97.94013701 454.41371512 -100.96981217 457.9039098 -105.65625 460.75390625 C-112.03569732 463.62284176 -120.16884939 463.86365921 -126.72265625 461.4609375 C-132.69975751 457.95633733 -137.02028928 452.98393077 -139.21875 446.37890625 C-140.09060202 439.02899099 -139.82906278 432.3839355 -135.21875 426.37890625 C-130.87039963 421.61552894 -126.76468638 418.26649084 -120.21875 417.37890625 C-112.69656228 417.20948761 -107.02772255 418.47629821 -101.21875 423.37890625 C-98.59469548 426.21012297 -96.89318221 428.9354 -95.21875 432.37890625 C-92.15601169 432.43300761 -89.09423548 432.4726285 -86.03125 432.50390625 C-85.16693359 432.52066406 -84.30261719 432.53742188 -83.41210938 432.5546875 C-77.02388872 432.71244843 -77.02388872 432.71244843 -71.21875 430.37890625 C-69.51344828 426.88994598 -68.94012062 423.93796885 -68.8046875 420.078125 C-68.74667969 418.61342773 -68.74667969 418.61342773 -68.6875 417.11914062 C-68.6565625 416.11173828 -68.625625 415.10433594 -68.59375 414.06640625 C-68.53574219 412.52629883 -68.53574219 412.52629883 -68.4765625 410.95507812 C-68.38260103 408.4298636 -68.2969346 405.90465033 -68.21875 403.37890625 C-69.05732544 403.11823364 -69.05732544 403.11823364 -69.9128418 402.85229492 C-75.17561445 401.1653027 -80.10614367 399.19296893 -85.03125 396.69140625 C-85.71848145 396.34400391 -86.40571289 395.99660156 -87.11376953 395.63867188 C-101.34622044 388.29587824 -113.55527106 378.25608323 -125.21875 367.37890625 C-125.97027344 366.68152344 -126.72179687 365.98414063 -127.49609375 365.265625 C-143.26158023 350.10970039 -154.87066724 330.4717129 -163.21875 310.37890625 C-163.21875 309.71890625 -163.21875 309.05890625 -163.21875 308.37890625 C-166.2617359 308.46627911 -169.30193366 308.57321251 -172.34375 308.69140625 C-173.1996875 308.71396484 -174.055625 308.73652344 -174.9375 308.75976562 C-180.89466664 309.0117996 -185.30272319 309.96564269 -190.03125 313.87890625 C-192.16266445 316.57121924 -192.37119376 319.30670205 -192.53515625 322.609375 C-192.57705078 323.41181641 -192.61894531 324.21425781 -192.66210938 325.04101562 C-192.70142578 325.87439453 -192.74074219 326.70777344 -192.78125 327.56640625 C-192.84602539 328.83387695 -192.84602539 328.83387695 -192.91210938 330.12695312 C-193.01806518 332.21075058 -193.1189002 334.29480728 -193.21875 336.37890625 C-192.46722656 336.49234375 -191.71570313 336.60578125 -190.94140625 336.72265625 C-185.9683192 337.92133433 -182.67565221 341.18503304 -179.8828125 345.390625 C-176.62096027 351.8333615 -175.88598559 358.62260327 -177.84375 365.609375 C-180.74164988 372.29783142 -186.0849449 377.1143884 -192.78125 379.81640625 C-200.5493229 381.08754545 -206.49164142 380.37658486 -213.140625 376.16015625 C-218.5463345 372.00191817 -221.5501676 366.84625228 -222.5625 360.08203125 C-222.84334126 353.29503417 -221.02754352 347.4248295 -216.84375 342.06640625 C-214.38973983 339.55396726 -212.38024374 337.87645592 -209.21875 336.37890625 C-208.22875 336.37890625 -207.23875 336.37890625 -206.21875 336.37890625 C-206.23969727 335.82541504 -206.26064453 335.27192383 -206.28222656 334.70166016 C-207.04990763 311.35540988 -207.04990763 311.35540988 -198.90625 302.44140625 C-192.09003448 296.23821226 -184.35758591 295.20504992 -175.40625 295.31640625 C-174.71337891 295.32091797 -174.02050781 295.32542969 -173.30664062 295.33007812 C-171.61063932 295.34177469 -169.91468297 295.35970701 -168.21875 295.37890625 C-168.48429687 294.32316406 -168.74984375 293.26742188 -169.0234375 292.1796875 C-171.90662994 280.25177322 -173.23967996 268.61728169 -174.21875 256.37890625 C-188.07875 256.37890625 -201.93875 256.37890625 -216.21875 256.37890625 C-216.87875 258.35890625 -217.53875 260.33890625 -218.21875 262.37890625 C-221.40352294 267.81956002 -226.40047555 270.38779971 -232.21875 272.37890625 C-239.36274287 273.52828652 -245.27630794 272.54809111 -251.21875 268.37890625 C-256.41640773 263.87426955 -259.74672261 259.20810954 -260.421875 252.30078125 C-260.57184949 245.35196341 -259.44209841 240.02288814 -254.90625 234.62890625 C-248.41342835 229.19305556 -243.62205421 226.92437735 -235.203125 227.046875 C-229.15156772 227.72015035 -224.26216445 230.01327674 -220.26171875 234.64453125 C-216.21875 240.514884 -216.21875 240.514884 -216.21875 243.37890625 C-202.35875 243.37890625 -188.49875 243.37890625 -174.21875 243.37890625 C-173.8475 238.73828125 -173.8475 238.73828125 -173.46875 234.00390625 C-172.58020798 223.88936289 -170.6924731 214.21375684 -168.21875 204.37890625 C-169.24613281 204.4253125 -170.27351563 204.47171875 -171.33203125 204.51953125 C-181.66141847 204.84822197 -191.03322804 204.50293218 -199.15625 197.25390625 C-207.81217896 187.28710343 -206.69021157 175.83637152 -206.21875 163.37890625 C-206.981875 163.25386719 -207.745 163.12882813 -208.53125 163 C-213.31764003 161.893843 -216.04321178 159.11451766 -218.7109375 155.17578125 C-222.48234749 148.40002771 -223.62410944 142.49606798 -221.5546875 134.9609375 C-219.09983298 128.58898902 -215.27742043 124.48813655 -209.234375 121.34765625 C-203.50270175 118.94835117 -198.25844456 118.56552258 -192.28125 120.44140625 C-186.20713862 122.9584991 -181.64483837 127.06151265 -178.21875 132.62890625 C-176.19115106 140.23240226 -176.28890472 147.26858242 -179.8828125 154.3671875 C-182.67565221 158.57277946 -185.9683192 161.83647817 -190.94140625 163.03515625 C-191.69292969 163.14859375 -192.44445312 163.26203125 -193.21875 163.37890625 C-193.10420196 166.25466493 -192.9774653 169.12902737 -192.84375 172.00390625 C-192.8128125 172.81214844 -192.781875 173.62039062 -192.75 174.453125 C-192.52528592 179.05976361 -192.12541146 183.10397055 -190.21875 187.37890625 C-187.83755754 188.78148501 -187.83755754 188.78148501 -185.21875 189.37890625 C-184.22875 189.70890625 -183.23875 190.03890625 -182.21875 190.37890625 C-180.73909074 190.52463683 -179.25471157 190.62553893 -177.76953125 190.6953125 C-176.92197266 190.73720703 -176.07441406 190.77910156 -175.20117188 190.82226562 C-174.32009766 190.86158203 -173.43902344 190.90089844 -172.53125 190.94140625 C-171.63857422 190.98458984 -170.74589844 191.02777344 -169.82617188 191.07226562 C-167.62384892 191.17825978 -165.42141527 191.28032676 -163.21875 191.37890625 C-163.05511963 190.83580811 -162.89148926 190.29270996 -162.72290039 189.7331543 C-160.88354277 183.90029832 -158.52720964 178.58502499 -155.65625 173.19140625 C-155.21933838 172.36769531 -154.78242676 171.54398438 -154.33227539 170.6953125 C-150.21866908 163.10594823 -145.49612988 156.19694058 -140.21875 149.37890625 C-139.50203125 148.43917969 -138.7853125 147.49945313 -138.046875 146.53125 C-120.54479357 124.33426716 -96.93589718 106.03003431 -70.21875 96.37890625 C-69.55875 96.37890625 -68.89875 96.37890625 -68.21875 96.37890625 C-68.32904647 92.81579221 -68.45957717 89.2536948 -68.59375 85.69140625 C-68.64015625 84.18030273 -68.64015625 84.18030273 -68.6875 82.63867188 C-68.72617188 81.66220703 -68.76484375 80.68574219 -68.8046875 79.6796875 C-68.8361084 78.78419189 -68.8675293 77.88869629 -68.89990234 76.96606445 C-69.24978327 74.12709956 -69.96232253 71.94441413 -71.21875 69.37890625 C-75.55514059 66.66032292 -80.74193168 66.86822826 -85.71875 66.75390625 C-86.56050781 66.69589844 -87.40226563 66.63789062 -88.26953125 66.578125 C-90.82196916 66.52587037 -92.78666298 66.58918333 -95.21875 67.37890625 C-96.99205835 69.27853756 -98.08664723 71.10163687 -99.23925781 73.42504883 C-101.39398624 77.72322719 -105.11463679 79.50191353 -109.40625 81.19140625 C-115.717852 83.10273997 -122.0468419 82.7670357 -127.96875 79.75390625 C-133.33646589 76.26425644 -137.24643648 71.46696076 -139.21875 65.37890625 C-140.08984977 58.03533264 -139.81034328 51.39362493 -135.21875 45.37890625 C-130.86572647 40.75768696 -126.61275314 37.75263771 -120.16796875 37.04296875 C-113.39758341 36.96188629 -107.63333253 36.94879327 -102.21875 41.37890625 C-98.74960373 45.09150138 -96.35673684 48.41032244 -95.21875 53.37890625 C-94.61925537 53.3631958 -94.01976074 53.34748535 -93.40209961 53.33129883 C-90.65358123 53.26846495 -87.90521458 53.2297639 -85.15625 53.19140625 C-84.21330078 53.16626953 -83.27035156 53.14113281 -82.29882812 53.11523438 C-73.36511487 53.02185061 -67.59588447 55.19630945 -61.01953125 61.40234375 C-53.27667848 69.90100644 -54.82392046 80.59786642 -55.21875 91.37890625 C-54.22617188 91.11335938 -53.23359375 90.8478125 -52.2109375 90.57421875 C-40.16632894 87.41644503 -28.7454335 85.37890625 -16.21875 85.37890625 C-16.21875 71.18890625 -16.21875 56.99890625 -16.21875 42.37890625 C-17.86875 42.04890625 -19.51875 41.71890625 -21.21875 41.37890625 C-26.93874887 37.52666211 -29.94867972 33.06982277 -31.75390625 26.40234375 C-32.84433548 20.11044176 -32.18924317 14.22417213 -28.51171875 8.9140625 C-20.83872743 -0.1380133 -11.78627027 -3.29932566 0 0 Z M49.78125 403.37890625 C49.69357445 406.75374038 49.64063372 410.1282784 49.59375 413.50390625 C49.56861328 414.45523437 49.54347656 415.4065625 49.51757812 416.38671875 C49.46110349 421.80828414 49.63924452 425.73290762 52.78125 430.37890625 C55.97637368 432.77270716 55.97637368 432.77270716 59.78125 433.37890625 C59.47380859 431.92484375 59.47380859 431.92484375 59.16015625 430.44140625 C57.18571021 420.74357124 56.16244417 411.26366548 55.78125 401.37890625 C53.69696791 401.37890625 51.68307036 402.59867226 49.78125 403.37890625 Z " fill="#2882AF" transform="translate(265.21875,0.62109375)"/>
<path d="M0 0 C1.11294937 -0.00852997 2.22589874 -0.01705994 3.37257385 -0.02584839 C5.18987251 -0.02448883 5.18987251 -0.02448883 7.04388428 -0.02310181 C8.32738266 -0.02981903 9.61088104 -0.03653625 10.93327332 -0.04345703 C14.4479514 -0.061096 17.96253203 -0.0658116 21.4772501 -0.0670886 C23.67625752 -0.06851231 25.87524034 -0.07278613 28.07424164 -0.07808304 C35.75505642 -0.09657855 43.43580187 -0.10475453 51.11663818 -0.10317993 C58.2608941 -0.10197966 65.40484735 -0.12306058 72.54902673 -0.15466726 C78.69445465 -0.18088023 84.83978405 -0.19154508 90.9852674 -0.19026911 C94.65038432 -0.18976081 98.31523235 -0.19536977 101.98029327 -0.21662521 C106.0733127 -0.23971482 110.16566112 -0.23045617 114.25872803 -0.21841431 C115.46216354 -0.22965332 116.66559906 -0.24089233 117.90550232 -0.25247192 C125.98622304 -0.19217371 132.51987164 0.93386225 138.78509521 6.30258179 C139.58947021 7.30611694 139.58947021 7.30611694 140.41009521 8.32992554 C140.96697021 9.0015271 141.52384521 9.67312866 142.09759521 10.36508179 C144.72513443 14.17344964 144.54675162 17.62358705 144.57122803 22.1187439 C144.57619293 22.81191711 144.58115784 23.50509033 144.58627319 24.2192688 C144.60088767 26.5152791 144.6076992 28.81122008 144.61322021 31.10726929 C144.61897672 32.71091207 144.62473439 34.31455485 144.63049316 35.91819763 C144.6410042 39.28664469 144.64684472 42.6550679 144.65032959 46.02352905 C144.65578367 50.31023743 144.67974436 54.59662324 144.70830154 58.88323116 C144.72706964 62.20097217 144.73214122 65.51863812 144.73366547 68.83642769 C144.73666584 70.41465562 144.74460436 71.99288308 144.75785065 73.57105827 C144.83023474 82.86628918 144.22116644 91.32022982 141.41009521 100.26742554 C140.98993134 101.70015053 140.98993134 101.70015053 140.5612793 103.16181946 C139.42289533 106.89164496 138.60756502 109.51259189 135.22259521 111.64633179 C133.60709536 112.38935816 131.99121406 113.13155579 130.37493896 113.87289429 C128.21641421 115.11405402 128.21641421 115.11405402 127.66400146 117.50570679 C127.5595874 118.35519897 127.45517334 119.20469116 127.34759521 120.07992554 C126.68546229 125.40063655 124.89465438 127.78964304 120.92962646 131.32601929 C109.78616783 139.91252927 96.14559481 147.34286986 81.71844482 147.41268921 C80.81657944 147.41906906 79.91471405 147.42544891 78.98551941 147.43202209 C78.02090286 147.43313492 77.05628632 147.43424774 76.06243896 147.43539429 C75.05475967 147.43872269 74.04708038 147.44205109 73.00886536 147.44548035 C70.87641861 147.45053727 68.74396397 147.45288905 66.61151123 147.45272827 C63.38342846 147.45490141 60.15569509 147.47303348 56.92767334 147.49203491 C32.82256969 147.56075804 15.33237779 143.58713383 -2.77740479 126.57992554 C-14.7241158 114.15913868 -21.63248091 98.23466435 -21.76690674 80.9961853 C-21.77347794 80.29454254 -21.78004913 79.59289978 -21.78681946 78.86999512 C-21.8064043 76.56627266 -21.81817861 74.26261477 -21.82818604 71.95883179 C-21.83226156 71.16769423 -21.83633709 70.37655666 -21.84053612 69.56144524 C-21.86132873 65.37774803 -21.87566249 61.19408301 -21.8850708 57.01034546 C-21.89615109 52.70184041 -21.93058876 48.39384952 -21.9702425 44.08552647 C-21.99643341 40.75941535 -22.00476456 37.43342676 -22.00835228 34.1072216 C-22.01320792 32.51926112 -22.0247927 30.93130573 -22.04339027 29.34344673 C-22.06784742 27.11790533 -22.0668062 24.89369609 -22.05987549 22.6680603 C-22.06574173 21.40486465 -22.07160797 20.14166901 -22.07765198 18.8401947 C-21.30274602 13.16397527 -18.62887648 8.62501203 -14.15240479 4.95492554 C-13.59681885 4.48441772 -13.04123291 4.01390991 -12.46881104 3.52914429 C-8.4333386 0.81925323 -4.81736987 0.0167408 0 0 Z " fill="#FDB700" transform="translate(194.58990478515625,214.73257446289063)"/>
<path d="M0 0 C4.30181667 1.06869031 6.99360574 2.9988089 10.3515625 5.73828125 C24.77807093 16.8831047 41.38288308 25.26609967 57.88037109 32.92578125 C58.59660645 33.26609375 59.3128418 33.60640625 60.05078125 33.95703125 C60.70522217 34.26189453 61.35966309 34.56675781 62.03393555 34.88085938 C63.7265625 35.92578125 63.7265625 35.92578125 65.7265625 38.92578125 C65.98725891 41.59751892 65.98725891 41.59751892 66.0012207 44.85913086 C66.01075272 46.08147934 66.02028473 47.30382782 66.03010559 48.56321716 C66.02984393 49.90152007 66.02890573 51.23982298 66.02734375 52.578125 C66.0312343 53.95756661 66.03556971 55.33700703 66.04032898 56.71644592 C66.04779672 59.61414457 66.04749905 62.51172146 66.04223633 65.40942383 C66.03648599 69.09084779 66.05326088 72.77176133 66.076581 76.45310116 C66.09145863 79.30763073 66.09217045 82.16204197 66.08907127 85.01660347 C66.08982336 87.02370045 66.10360623 89.03077926 66.11775208 91.03782654 C66.00299343 114.08093625 56.40507691 132.49930102 40.7265625 148.92578125 C40.19933594 149.52777344 39.67210937 150.12976563 39.12890625 150.75 C30.03971238 160.72254263 12.97861586 172.33067471 -0.7109375 173.86328125 C-18.1522371 172.25078374 -37.01411086 155.48348889 -48.00390625 142.859375 C-54.22585288 135.36844821 -59.0936063 127.15681895 -62.2734375 117.92578125 C-62.6243042 116.97106934 -62.9751709 116.01635742 -63.33666992 115.03271484 C-67.50344197 101.58367674 -66.91752652 87.53295708 -66.84985352 73.59472656 C-66.8324661 69.88225629 -66.85646739 66.17130524 -66.89134312 62.45900345 C-66.91327902 59.57987275 -66.91188883 56.70111039 -66.9035778 53.8219223 C-66.90276032 52.4519964 -66.90958494 51.08204294 -66.92434883 49.71219635 C-66.94176847 47.80852467 -66.92394806 45.90462902 -66.90454102 44.00097656 C-66.90309837 42.38125946 -66.90309837 42.38125946 -66.90162659 40.7288208 C-66.06038169 36.97510593 -64.43321512 35.9851973 -61.2734375 33.92578125 C-58.91186523 32.65234375 -58.91186523 32.65234375 -56.45703125 31.55078125 C-55.53768799 31.12909668 -54.61834473 30.70741211 -53.67114258 30.27294922 C-52.6942749 29.82838379 -51.71740723 29.38381836 -50.7109375 28.92578125 C-34.81161767 21.49675874 -20.0664524 12.77531325 -6.2734375 1.92578125 C-3.2734375 -0.07421875 -3.2734375 -0.07421875 0 0 Z " fill="#5684B8" transform="translate(411.2734375,310.07421875)"/>
<path d="M0 0 C4.40991408 1.36577492 6.92570537 3.40129518 10.33203125 6.421875 C29.14897624 22.25253337 51.93362081 34.11158244 74.26171875 44.24609375 C75.03523682 44.59986084 75.80875488 44.95362793 76.60571289 45.31811523 C78.09513406 45.99570257 79.58895732 46.6637227 81.08764648 47.32055664 C84.96022005 49.08048114 87.51075873 50.36347408 89.58203125 54.109375 C89.8721696 56.76466507 89.99237304 59.18333207 89.97021484 61.83691406 C89.97810028 62.99892838 89.97810028 62.99892838 89.98614502 64.18441772 C89.99935409 66.74815011 89.99059359 69.31126112 89.98046875 71.875 C89.98249169 73.66941445 89.98540496 75.4638281 89.98916626 77.25823975 C89.99359288 81.02770785 89.98715682 84.79696292 89.97314453 88.56640625 C89.95620009 93.35381549 89.96579697 98.14071462 89.98386192 102.9281044 C89.99481773 106.64149661 89.99119755 110.3547725 89.98347855 114.06816864 C89.98150117 115.83007622 89.98384737 117.59199496 89.99091721 119.35388947 C90.09392155 152.28909563 78.58448438 179.22141879 55.80859375 202.94140625 C42.60517415 216.205392 19.68855128 233.46053969 0.33203125 234.546875 C-20.08627782 234.28016269 -42.49222065 216.26399047 -56.41796875 203.109375 C-57.16820312 202.42359375 -57.9184375 201.7378125 -58.69140625 201.03125 C-71.39500501 188.9962617 -79.48875569 174.07017097 -85.73046875 157.859375 C-86.09446777 156.92182373 -86.09446777 156.92182373 -86.46582031 155.96533203 C-90.52210652 144.96975564 -90.77869739 134.00397313 -90.90234375 122.421875 C-90.92618992 120.71133726 -90.95055223 119.00080665 -90.97540283 117.2902832 C-91.02507465 113.71993665 -91.06791712 110.14959036 -91.10595703 106.57910156 C-91.15509357 102.02659616 -91.22226603 97.47456551 -91.29470444 92.92237854 C-91.34866171 89.39465384 -91.39249652 85.86685658 -91.43341827 82.33895874 C-91.45415685 80.66136424 -91.47807178 78.98380562 -91.50536346 77.30630493 C-91.80892907 57.92560461 -91.80892907 57.92560461 -89.41796875 52.109375 C-86.82036833 50.08182155 -85.24347798 49.13478539 -82.29296875 47.984375 C-80.83032695 47.33554135 -79.36809826 46.6857758 -77.90625 46.03515625 C-77.15811035 45.71756348 -76.4099707 45.3999707 -75.63916016 45.07275391 C-72.18433227 43.57432009 -68.83742653 41.87586777 -65.48046875 40.171875 C-64.13809313 39.49595016 -62.79564468 38.82016993 -61.453125 38.14453125 C-60.78555176 37.80695801 -60.11797852 37.46938477 -59.43017578 37.12158203 C-58.10587268 36.45541355 -56.77877354 35.79476987 -55.44873047 35.14013672 C-37.73780779 26.40964723 -20.26821709 15.70061061 -6.1015625 1.85546875 C-3.41796875 0.109375 -3.41796875 0.109375 0 0 Z M-9.85546875 36.796875 C-24.10488441 47.69853638 -39.79788958 56.17203338 -56.09375 63.59570312 C-57.46660156 64.22508789 -57.46660156 64.22508789 -58.8671875 64.8671875 C-60.07894653 65.41076904 -60.07894653 65.41076904 -61.31518555 65.96533203 C-63.57799603 67.19643965 -64.84018382 68.07056652 -66.41796875 70.109375 C-66.88155215 72.88125997 -66.88155215 72.88125997 -66.82202148 76.07104492 C-66.83470566 77.30050339 -66.84738983 78.52996185 -66.86045837 79.79667664 C-66.85840411 81.1444007 -66.85541375 82.49212362 -66.8515625 83.83984375 C-66.85612909 85.23212436 -66.86143608 86.62440273 -66.8674469 88.01667786 C-66.87639455 90.9447235 -66.87394506 93.87249686 -66.86401367 96.80053711 C-66.85489639 99.77510933 -66.8615578 102.74889191 -66.88452148 105.72338867 C-67.3133415 132.98573673 -67.3133415 132.98573673 -58.60546875 158.546875 C-58.2592749 159.21025879 -57.91308105 159.87364258 -57.55639648 160.55712891 C-54.70414468 165.88089765 -51.41876975 170.57855335 -47.41796875 175.109375 C-46.7528125 175.91632813 -46.08765625 176.72328125 -45.40234375 177.5546875 C-35.96281512 188.65801794 -18.33981268 203.28807726 -3.26318359 205.41308594 C2.44792483 205.65130461 6.71659551 204.28176724 11.76953125 201.734375 C12.50075195 201.37496826 13.23197266 201.01556152 13.98535156 200.64526367 C36.34385883 189.29853967 53.3352043 171.22693852 62.42578125 147.83984375 C65.36371254 138.36104518 65.90119804 129.39259962 65.91796875 119.4921875 C65.9244101 118.10358549 65.93113941 116.71498479 65.93814087 115.3263855 C65.95003005 112.4369593 65.95382958 109.54765201 65.95263672 106.65820312 C65.9524321 102.95926297 65.97991623 99.26107885 66.01418114 95.5623188 C66.03640811 92.70383188 66.04047585 89.84552968 66.03941727 86.98696518 C66.04177255 85.62261178 66.05059218 84.25825324 66.066082 82.89398575 C66.08568573 80.99208753 66.07739586 79.08996368 66.06787109 77.18798828 C66.07072113 76.10784454 66.07357117 75.02770081 66.07650757 73.91482544 C65.45840421 70.4079672 64.33135257 69.30257912 61.58203125 67.109375 C59.2396118 65.80897729 56.93622562 64.62461076 54.51953125 63.484375 C53.08126357 62.78282165 51.6437969 62.07962436 50.20703125 61.375 C49.07587891 60.82295898 49.07587891 60.82295898 47.921875 60.25976562 C34.09769034 53.46306716 21.03271675 46.05146856 8.609375 36.92578125 C7.73410156 36.28511719 6.85882813 35.64445312 5.95703125 34.984375 C5.22226562 34.42492187 4.4875 33.86546875 3.73046875 33.2890625 C-1.96797165 30.16010068 -5.32394545 33.14785843 -9.85546875 36.796875 Z " fill="#335F8C" transform="translate(411.41796875,277.890625)"/>
<path d="M0 0 C1.16789062 -0.01546875 2.33578125 -0.0309375 3.5390625 -0.046875 C18.91450416 0.02130878 31.53122668 5.01734345 42.3828125 15.88671875 C55.07194119 30.86761022 57 44.9858252 57 64.5 C19.38 64.5 -18.24 64.5 -57 64.5 C-57 43.07405024 -53.94553933 29.1682236 -40 13.5 C-37.125 11.0859375 -37.125 11.0859375 -34 8.875 C-32.989375 8.14023438 -31.97875 7.40546875 -30.9375 6.6484375 C-21.37875686 0.88908514 -10.91770591 -0.14460538 0 0 Z " fill="#2881AF" transform="translate(256,150.5)"/>
<path d="M0 0 C0.68139542 -0.00191345 1.36279083 -0.0038269 2.06483459 -0.00579834 C3.49594495 -0.00715008 4.927068 -0.00352488 6.3581543 0.00488281 C8.52616463 0.01558063 10.6933434 0.00496203 12.86132812 -0.0078125 C31.02597408 -0.02820532 46.01932982 5.82463727 59.22265625 18.453125 C70.68366855 30.07411352 78.55186549 45.99106897 78.79296875 62.51953125 C78.77990869 64.28916952 78.75640789 66.05876043 78.72265625 67.828125 C78.71363281 68.74142578 78.70460938 69.65472656 78.6953125 70.59570312 C78.67203058 72.81912681 78.63617195 75.04241302 78.59765625 77.265625 C74.63765625 76.935625 70.67765625 76.605625 66.59765625 76.265625 C66.58347656 75.151875 66.56929688 74.038125 66.5546875 72.890625 C66.1491631 57.18435318 63.11993029 44.13296018 53.59765625 31.265625 C52.51484375 29.6878125 52.51484375 29.6878125 51.41015625 28.078125 C40.76639412 17.43436287 28.10814264 12.78514212 13.13671875 12.71875 C11.96882813 12.73421875 10.8009375 12.7496875 9.59765625 12.765625 C7.84582031 12.74242187 7.84582031 12.74242187 6.05859375 12.71875 C-6.95222553 12.77644765 -17.26365568 16.12611486 -27.40234375 24.265625 C-28.22734375 24.86890625 -29.05234375 25.4721875 -29.90234375 26.09375 C-40.27542892 35.10536774 -45.74613654 49.88961454 -46.921875 63.28125 C-47.21411145 67.60937255 -47.34712466 71.92841621 -47.40234375 76.265625 C-53.34234375 76.760625 -53.34234375 76.760625 -59.40234375 77.265625 C-60.22388733 54.78727979 -55.99182426 36.15238155 -40.79833984 18.74804688 C-30.53596732 7.85033335 -15.03744082 0.02707184 0 0 Z " fill="#495255" transform="translate(246.40234375,138.734375)"/>
<path d="M0 0 C5.63356807 3.35870232 9.53919469 8.22043459 11.5625 14.4375 C12.43519042 21.79448318 12.16672017 28.42356073 7.5625 34.4375 C3.00108062 39.53377608 -1.49755087 42.94178935 -8.4375 43.4375 C-15.61988172 43.6096018 -20.87689231 42.03272441 -26.4375 37.4375 C-29.06155452 34.60628328 -30.76306779 31.88100625 -32.4375 28.4375 C-35.50023831 28.38339864 -38.56201452 28.34377775 -41.625 28.3125 C-42.48931641 28.29574219 -43.35363281 28.27898437 -44.24414062 28.26171875 C-50.65542241 28.07118273 -50.65542241 28.07118273 -56.4375 30.4375 C-59.13977136 35.62652414 -58.87610039 41.58071197 -59.0625 47.3125 C-59.12050781 48.77429688 -59.12050781 48.77429688 -59.1796875 50.265625 C-59.27343033 52.6560672 -59.3591383 55.04651244 -59.4375 57.4375 C-61.22986067 56.96093588 -63.02136897 56.48116502 -64.8125 56 C-65.81023437 55.73316406 -66.80796875 55.46632812 -67.8359375 55.19140625 C-70.4375 54.4375 -70.4375 54.4375 -72.4375 53.4375 C-72.55542821 50.29199187 -72.62531383 47.14706459 -72.6875 44 C-72.72101563 43.12150391 -72.75453125 42.24300781 -72.7890625 41.33789062 C-72.90194146 33.6903408 -71.27412971 27.761279 -66.25390625 21.87890625 C-65.51011719 21.25886719 -64.76632812 20.63882813 -64 20 C-63.25878906 19.36191406 -62.51757812 18.72382812 -61.75390625 18.06640625 C-57.64864528 15.17957012 -54.13225424 14.18376018 -49.13671875 14.2421875 C-47.67202148 14.25185547 -47.67202148 14.25185547 -46.17773438 14.26171875 C-45.17033203 14.27847656 -44.16292969 14.29523437 -43.125 14.3125 C-42.09826172 14.32152344 -41.07152344 14.33054687 -40.01367188 14.33984375 C-37.48804101 14.36333799 -34.9628919 14.39618869 -32.4375 14.4375 C-32.00824219 13.04917969 -32.00824219 13.04917969 -31.5703125 11.6328125 C-29.70297611 6.36563606 -26.67223359 2.8993446 -21.9375 0.0625 C-15.24651105 -2.95351396 -6.71301144 -2.97640239 0 0 Z " fill="#A3D14A" transform="translate(374.4375,39.5625)"/>
<path d="M0 0 C5.17727169 4.47301046 8.51278172 9.17293004 9.2109375 16.08984375 C9.51974523 23.03801762 7.92714143 28.80250182 3.625 34.3125 C1.17098983 36.82493899 -0.83850626 38.50245033 -4 40 C-4.99 40 -5.98 40 -7 40 C-6.97905273 40.55349121 -6.95810547 41.10698242 -6.93652344 41.67724609 C-6.17636982 64.79457607 -6.17636982 64.79457607 -14.0625 73.875 C-23.29465149 82.09647385 -34.40846387 81.48920903 -46 81 C-47.69939315 76.64068715 -49.16775145 72.61372741 -50 68 C-48.69804687 67.96261719 -47.39609375 67.92523438 -46.0546875 67.88671875 C-44.32809743 67.82103326 -42.60153619 67.75458682 -40.875 67.6875 C-40.0190625 67.66494141 -39.163125 67.64238281 -38.28125 67.61914062 C-33.09577448 67.39975512 -29.5793749 66.66060255 -25 64 C-24.34 64 -23.68 64 -23 64 C-20.94277412 58.83184719 -20.58486681 54.1077704 -20.375 48.625 C-20.33632813 47.79355469 -20.29765625 46.96210938 -20.2578125 46.10546875 C-20.16425754 44.07064844 -20.08107287 42.03535584 -20 40 C-20.75152344 39.8865625 -21.50304687 39.773125 -22.27734375 39.65625 C-27.2504308 38.45757192 -30.54309779 35.19387321 -33.3359375 30.98828125 C-36.59778973 24.54554475 -37.33276441 17.75630298 -35.375 10.76953125 C-32.47710012 4.08107483 -27.1338051 -0.73548215 -20.4375 -3.4375 C-12.71243045 -4.70160229 -6.81639654 -3.91068904 0 0 Z " fill="#80B4FB" transform="translate(460,124)"/>
<path d="M0 0 C5.42422565 3.76196295 9.25773051 7.46648943 11 14 C11.88496708 21.37099159 11.16040663 27.7350602 7 34 C3.37531077 38.07992271 0.45375189 40.17679217 -5 41 C-4.88545196 43.87575868 -4.7587153 46.75012112 -4.625 49.625 C-4.5940625 50.43324219 -4.563125 51.24148437 -4.53125 52.07421875 C-4.30653592 56.68085736 -3.90666146 60.7250643 -2 65 C0.38119246 66.40257876 0.38119246 66.40257876 3 67 C3.99 67.33 4.98 67.66 6 68 C7.47965926 68.14573058 8.96403843 68.24663268 10.44921875 68.31640625 C11.29677734 68.35830078 12.14433594 68.40019531 13.01757812 68.44335938 C13.89865234 68.48267578 14.77972656 68.52199219 15.6875 68.5625 C16.58017578 68.60568359 17.47285156 68.64886719 18.39257812 68.69335938 C20.59490108 68.79935353 22.79733473 68.90142051 25 69 C24.52511102 70.98019743 24.04497141 72.95913635 23.5625 74.9375 C23.29566406 76.03964844 23.02882812 77.14179688 22.75390625 78.27734375 C22 81 22 81 21 82 C10.34192778 82.7404811 -0.00803144 82.94553874 -9.08203125 76.52734375 C-14.50418539 71.6987728 -17.67760993 65.88743339 -18.15869141 58.59423828 C-18.332718 52.7253782 -18.22200714 46.86611175 -18 41 C-19.1446875 40.81244141 -19.1446875 40.81244141 -20.3125 40.62109375 C-25.09889003 39.51493675 -27.82446178 36.73561141 -30.4921875 32.796875 C-34.26359749 26.02112146 -35.40535944 20.11716173 -33.3359375 12.58203125 C-30.88108298 6.21008277 -27.05867043 2.1092303 -21.015625 -1.03125 C-13.7221012 -4.08435299 -6.9411584 -3.73450157 0 0 Z " fill="#80B4FB" transform="translate(77,123)"/>
<path d="M0 0 C5.58278401 3.24235309 10.30500617 7.88502071 12.1875 14.19921875 C13.57234697 20.88852421 12.922746 27.2974113 9.625 33.3125 C5.3759676 38.3654034 0.01268862 42.80145474 -6.72265625 43.5859375 C-13.95225242 43.85639721 -19.53307812 42.7576622 -25.375 38.3125 C-31.375 31.36639222 -31.375 31.36639222 -31.375 27.3125 C-45.565 27.3125 -59.755 27.3125 -74.375 27.3125 C-74.375 23.0225 -74.375 18.7325 -74.375 14.3125 C-60.185 14.3125 -45.995 14.3125 -31.375 14.3125 C-30.715 12.3325 -30.055 10.3525 -29.375 8.3125 C-23.53305956 -1.66748158 -10.18952062 -4.67338916 0 0 Z " fill="#A3D149" transform="translate(494.375,229.6875)"/>
<path d="M0 0 C5.13156772 2.84814285 8.15340372 6.81918696 10.6875 12.0625 C10.6875 12.7225 10.6875 13.3825 10.6875 14.0625 C24.8775 14.0625 39.0675 14.0625 53.6875 14.0625 C53.6875 18.3525 53.6875 22.6425 53.6875 27.0625 C39.4975 27.0625 25.3075 27.0625 10.6875 27.0625 C10.0275 29.0425 9.3675 31.0225 8.6875 33.0625 C5.50272706 38.50315377 0.50577445 41.07139346 -5.3125 43.0625 C-12.45649287 44.21188027 -18.37005794 43.23168486 -24.3125 39.0625 C-29.51015773 34.5578633 -32.84047261 29.89170329 -33.515625 22.984375 C-33.66559949 16.03555716 -32.53584841 10.70648189 -28 5.3125 C-19.41655399 -1.87364084 -10.67892321 -4.70843433 0 0 Z " fill="#A3D149" transform="translate(38.3125,229.9375)"/>
<path d="M0 0 C6.98242443 3.89130404 11.40269347 9.24355081 13.75 16.9375 C14.91628552 24.60906697 13.15911483 30.59939743 8.75 36.9375 C4.74363834 41.38003813 1.67303491 43.88791772 -4.25 44.9375 C-4.23428955 45.55794189 -4.2185791 46.17838379 -4.20239258 46.81762695 C-4.14003786 49.62832528 -4.10100852 52.43887812 -4.0625 55.25 C-4.03736328 56.22646484 -4.01222656 57.20292969 -3.98632812 58.20898438 C-3.97666016 59.14677734 -3.96699219 60.08457031 -3.95703125 61.05078125 C-3.9413208 61.91485596 -3.92561035 62.77893066 -3.90942383 63.66918945 C-4.25 65.9375 -4.25 65.9375 -5.58081055 67.71948242 C-8.16552668 69.60556532 -10.14940064 69.32507492 -13.25 68.9375 C-14.91918945 67.71948242 -14.91918945 67.71948242 -16.25 65.9375 C-16.59057617 63.66918945 -16.59057617 63.66918945 -16.54296875 61.05078125 C-16.53330078 60.11298828 -16.52363281 59.17519531 -16.51367188 58.20898438 C-16.48853516 57.23251953 -16.46339844 56.25605469 -16.4375 55.25 C-16.41719727 53.76790039 -16.41719727 53.76790039 -16.39648438 52.25585938 C-16.36112203 49.81585769 -16.31177033 47.37695281 -16.25 44.9375 C-17.02722412 44.80408203 -17.80444824 44.67066406 -18.60522461 44.53320312 C-24.2044812 43.27203945 -28.58980542 38.4012994 -31.71875 33.7578125 C-34.88027223 27.41218573 -35.62587003 21.05902218 -33.3671875 14.29296875 C-30.08105298 7.03518158 -25.78410064 2.93793432 -18.9375 -0.9375 C-12.12524814 -3.01581413 -6.53697684 -2.97850223 0 0 Z " fill="#4C5353" transform="translate(266.25,255.0625)"/>
<path d="M0 0 C5.36264464 5.00030379 7.50082931 10.7410891 7.8125 18 C7.47745601 25.50707948 4.92157617 30.19621647 -0.5 35.3125 C-6.04687271 39.82190207 -11.59446902 41.0596957 -18.6875 40.4375 C-25.52824058 38.82552351 -31.19317407 35.3445415 -35.01171875 29.36328125 C-38.35041411 22.65074636 -38.85643815 16.37348543 -36.5 9.25 C-34.06361739 3.50791517 -30.40763118 -0.84543769 -24.6875 -3.5625 C-16.4903354 -6.06718918 -6.85950815 -5.25749987 0 0 Z " fill="#FECC00" transform="translate(80.6875,340.5625)"/>
<path d="M0 0 C5.11944615 3.15296362 8.48533431 7.45600293 10.3828125 13.1484375 C12.06986624 20.77221198 11.29933442 26.67641435 8 33.6875 C3.5009235 38.74896106 -1.15588326 41.92606692 -7.9140625 43.0859375 C-16.20893568 43.4654415 -22.14894753 41.92952721 -28.5 36.5 C-32.62875315 31.75193388 -34.43660953 26.52177326 -34.53515625 20.26953125 C-34.08266471 13.85739502 -32.36689905 8.15881766 -27.5625 3.703125 C-19.80627574 -2.28513638 -9.27989211 -4.09036021 0 0 Z " fill="#FECC00" transform="translate(267.5,458.5)"/>
<path d="M0 0 C4.60631594 3.88759998 7.37958513 7.99477993 8.05859375 13.96875 C8.34421626 21.55709508 8.35471546 27.52268071 3.375 33.69140625 C-1.84747004 38.85466461 -6.69352415 40.56317186 -14.03515625 40.76953125 C-21.5670913 40.7074122 -25.57561716 39.09869303 -30.8671875 33.90234375 C-36.01913637 28.17135739 -36.81698053 22.85806512 -36.65234375 15.39453125 C-35.99264993 8.89908439 -33.20896009 4.93922537 -28.53515625 0.51953125 C-19.99205707 -6.35891993 -8.90025701 -6.3157243 0 0 Z " fill="#2782B0" transform="translate(162.34765625,422.60546875)"/>
<path d="M0 0 C5.7449641 2.93776573 10.65306026 8.14149222 12.76953125 14.21484375 C14.38631418 21.9317586 13.67927975 28.32369645 9.7421875 35.19140625 C6.65082586 39.39734046 2.74582418 42.00028815 -2.21875 43.37890625 C-9.17236424 44.17406867 -16.39460474 44.54206009 -22.5390625 40.7578125 C-28.42525714 35.92565736 -31.10922381 30.64253913 -32.0859375 23.109375 C-32.42491507 16.14039489 -30.9904522 11.8745104 -26.46875 6.50390625 C-19.44557567 -1.2105254 -9.96065513 -2.78828198 0 0 Z " fill="#FECC00" transform="translate(265.21875,0.62109375)"/>
<path d="M0 0 C4.83415824 2.84723727 8.0861835 7.547367 10.5625 12.5 C11.86966062 28.82083403 11.86966062 28.82083403 6.97265625 35.02734375 C1.92050611 40.30341191 -3.58971194 43.30756872 -10.99609375 43.6015625 C-18.63325058 43.11334243 -23.63977929 40.71452725 -28.75 35.0625 C-33.33426922 29.64929443 -33.89013047 24.40919622 -33.74609375 17.50390625 C-33.02056769 10.44150705 -29.65816441 6.16356812 -24.31640625 1.7265625 C-17.37551821 -2.80449539 -7.60296855 -3.31712527 0 0 Z " fill="#2782B0" transform="translate(159.4375,39.5)"/>
<path d="M0 0 C1.8125 1.0625 1.8125 1.0625 3 3 C3.75 6.1875 3.75 6.1875 3 10 C0.39278903 13.14956313 -2.76460307 15.52163188 -6 18 C-6.96679688 18.75023437 -7.93359375 19.50046875 -8.9296875 20.2734375 C-10.52229872 21.5006616 -12.11522441 22.72753164 -13.71655273 23.94335938 C-18.14093042 27.30540612 -22.4526555 30.7901296 -26.75 34.3125 C-29.49559217 36.54713667 -32.24697084 38.77453508 -35 41 C-35.74459473 41.60440918 -36.48918945 42.20881836 -37.25634766 42.83154297 C-39.51316215 44.65322788 -41.78537082 46.4538033 -44.0625 48.25 C-44.7524707 48.81114502 -45.44244141 49.37229004 -46.15332031 49.95043945 C-50.32691292 53.20553704 -53.49268229 55.08089084 -59 55 C-62.15638366 52.70600821 -62.92060781 49.8681637 -64.04296875 46.23046875 C-64.56987305 44.52600586 -64.56987305 44.52600586 -65.10742188 42.78710938 C-65.46384766 41.59923828 -65.82027344 40.41136719 -66.1875 39.1875 C-66.55552734 38.01123047 -66.92355469 36.83496094 -67.30273438 35.62304688 C-70.35516309 25.6049645 -70.35516309 25.6049645 -70 20 C-68.875 18.125 -68.875 18.125 -67 17 C-64 16.625 -64 16.625 -61 17 C-58.46432229 19.03330071 -57.42529597 20.96523637 -56.39453125 24.01171875 C-56.13349609 24.76904297 -55.87246094 25.52636719 -55.60351562 26.30664062 C-55.34248047 27.09232422 -55.08144531 27.87800781 -54.8125 28.6875 C-54.53986328 29.48478516 -54.26722656 30.28207031 -53.98632812 31.10351562 C-53.31637808 33.06635172 -52.65713854 35.03283769 -52 37 C-44.58508943 31.21868692 -37.21817628 25.38727148 -29.9375 19.4375 C-23.05953435 13.82104984 -16.07902407 8.3610153 -9 3 C-8.27425781 2.4225 -7.54851562 1.845 -6.80078125 1.25 C-4.36932592 -0.4377781 -2.89689428 -0.44567604 0 0 Z " fill="#FBFCFD" transform="translate(445,372)"/>
<path d="M0 0 C1.46469727 0.00966797 1.46469727 0.00966797 2.95898438 0.01953125 C3.96638672 0.03628906 4.97378906 0.05304687 6.01171875 0.0703125 C7.03845703 0.07933594 8.06519531 0.08835938 9.12304688 0.09765625 C11.64853802 0.12114919 14.17390867 0.15701799 16.69921875 0.1953125 C16.69921875 4.4853125 16.69921875 8.7753125 16.69921875 13.1953125 C15.38566406 13.24429688 14.07210937 13.29328125 12.71875 13.34375 C10.9830528 13.41880718 9.24737672 13.49435373 7.51171875 13.5703125 C6.64740234 13.60125 5.78308594 13.6321875 4.89257812 13.6640625 C-1.51367048 13.81019317 -1.51367048 13.81019317 -7.30078125 16.1953125 C-10.00305261 21.38433664 -9.73938164 27.33852447 -9.92578125 33.0703125 C-9.98378906 34.53210938 -9.98378906 34.53210938 -10.04296875 36.0234375 C-10.13671158 38.4138797 -10.22241955 40.80432494 -10.30078125 43.1953125 C-12.09314192 42.71874838 -13.88465022 42.23897752 -15.67578125 41.7578125 C-16.67351562 41.49097656 -17.67125 41.22414062 -18.69921875 40.94921875 C-21.30078125 40.1953125 -21.30078125 40.1953125 -23.30078125 39.1953125 C-23.41870946 36.04980437 -23.48859508 32.90487709 -23.55078125 29.7578125 C-23.58429688 28.87931641 -23.6178125 28.00082031 -23.65234375 27.09570312 C-23.76522271 19.4481533 -22.13741096 13.5190915 -17.1171875 7.63671875 C-16.00150391 6.70666016 -16.00150391 6.70666016 -14.86328125 5.7578125 C-13.75146484 4.80068359 -13.75146484 4.80068359 -12.6171875 3.82421875 C-8.51192653 0.93738262 -4.99553549 -0.05842732 0 0 Z " fill="#C1E5F6" transform="translate(325.30078125,53.8046875)"/>
<path d="M0 0 C1.60433809 0.47859241 3.20846416 0.95789558 4.8125 1.4375 C5.70582031 1.70433594 6.59914062 1.97117187 7.51953125 2.24609375 C9.35473055 2.80387873 11.18033726 3.39344575 13 4 C13.11792821 7.14550813 13.18781383 10.29043541 13.25 13.4375 C13.30027344 14.75524414 13.30027344 14.75524414 13.3515625 16.09960938 C13.46183652 23.57067456 11.73255303 29.24194338 7.32421875 35.3046875 C6.51404297 36.08199219 6.51404297 36.08199219 5.6875 36.875 C4.88892578 37.67550781 4.88892578 37.67550781 4.07421875 38.4921875 C-2.58328722 43.33173044 -8.44762596 43.39023591 -16.4375 43.1875 C-17.45521484 43.17396484 -18.47292969 43.16042969 -19.52148438 43.14648438 C-22.01455381 43.11137072 -24.50734807 43.05757194 -27 43 C-27 38.71 -27 34.42 -27 30 C-25.68644531 29.95101563 -24.37289062 29.90203125 -23.01953125 29.8515625 C-21.28383405 29.77650532 -19.54815797 29.70095877 -17.8125 29.625 C-16.94818359 29.5940625 -16.08386719 29.563125 -15.19335938 29.53125 C-8.81059583 29.35159786 -8.81059583 29.35159786 -3 27 C-1.29358392 23.51179009 -0.72135666 20.55866478 -0.5859375 16.69921875 C-0.54726562 15.72275391 -0.50859375 14.74628906 -0.46875 13.74023438 C-0.4378125 12.73283203 -0.406875 11.72542969 -0.375 10.6875 C-0.33632812 9.66076172 -0.29765625 8.63402344 -0.2578125 7.57617188 C-0.16385103 5.05095735 -0.0781846 2.52574408 0 0 Z " fill="#C1E5F6" transform="translate(197,404)"/>
<path d="M0 0 C0.74056641 0.00451172 1.48113281 0.00902344 2.24414062 0.01367188 C4.05862899 0.02537825 5.87307534 0.04331102 7.6875 0.0625 C8.36055018 1.66399886 9.02572227 3.26881029 9.6875 4.875 C10.05875 5.76832031 10.43 6.66164063 10.8125 7.58203125 C11.6875 10.0625 11.6875 10.0625 11.6875 13.0625 C10.38554688 13.09988281 9.08359375 13.13726562 7.7421875 13.17578125 C6.01559743 13.24146674 4.28903619 13.30791318 2.5625 13.375 C1.27859375 13.40883789 1.27859375 13.40883789 -0.03125 13.44335938 C-5.98841664 13.69539335 -10.39647319 14.64923644 -15.125 18.5625 C-17.25641445 21.25481299 -17.46494376 23.9902958 -17.62890625 27.29296875 C-17.67080078 28.09541016 -17.71269531 28.89785156 -17.75585938 29.72460938 C-17.79517578 30.55798828 -17.83449219 31.39136719 -17.875 32.25 C-17.91818359 33.09498047 -17.96136719 33.93996094 -18.00585938 34.81054688 C-18.11181518 36.89434433 -18.2126502 38.97840103 -18.3125 41.0625 C-22.6025 41.0625 -26.8925 41.0625 -31.3125 41.0625 C-32.1855066 16.08481127 -32.1855066 16.08481127 -24 7.125 C-17.0263123 0.7784962 -9.13670663 -0.10614583 0 0 Z " fill="#C1E5F6" transform="translate(90.3125,295.9375)"/>
<path d="M0 0 C4.29 0 8.58 0 13 0 C13.04898438 1.22976562 13.09796875 2.45953125 13.1484375 3.7265625 C13.22351029 5.35939566 13.29905615 6.99220712 13.375 8.625 C13.4059375 9.43324219 13.436875 10.24148437 13.46875 11.07421875 C13.69346408 15.68085736 14.09333854 19.7250643 16 24 C18.38119246 25.40257876 18.38119246 25.40257876 21 26 C21.99 26.33 22.98 26.66 24 27 C25.47965926 27.14573058 26.96403843 27.24663268 28.44921875 27.31640625 C29.72055664 27.37924805 29.72055664 27.37924805 31.01757812 27.44335938 C31.89865234 27.48267578 32.77972656 27.52199219 33.6875 27.5625 C35.02651367 27.62727539 35.02651367 27.62727539 36.39257812 27.69335938 C38.59490108 27.79935353 40.79733473 27.90142051 43 28 C42.52511102 29.98019743 42.04497141 31.95913635 41.5625 33.9375 C41.29566406 35.03964844 41.02882812 36.14179688 40.75390625 37.27734375 C40 40 40 40 39 41 C28.34192778 41.7404811 17.99196856 41.94553874 8.91796875 35.52734375 C3.49581461 30.6987728 0.32239007 24.88743339 -0.15869141 17.59423828 C-0.33278806 11.72301561 -0.20512433 5.86883508 0 0 Z " fill="#C1E5F7" transform="translate(59,164)"/>
<path d="M0 0 C3.35466148 -0.08137993 6.70732391 -0.14068359 10.0625 -0.1875 C11.00544922 -0.21263672 11.94839844 -0.23777344 12.91992188 -0.26367188 C20.68834023 -0.34487485 26.12829249 0.95281049 32.1875 6.125 C32.82042969 6.64320312 33.45335937 7.16140625 34.10546875 7.6953125 C39.61026466 14.39186835 40.5719849 21.12278036 40.25 29.5625 C40.23195312 30.47580078 40.21390625 31.38910156 40.1953125 32.33007812 C40.14874134 34.55385082 40.07702151 36.77707365 40 39 C33.565 40.98 33.565 40.98 27 43 C26.92652344 40.70482422 26.92652344 40.70482422 26.8515625 38.36328125 C26.7765134 36.34633656 26.70096649 34.32941035 26.625 32.3125 C26.5940625 31.30509766 26.563125 30.29769531 26.53125 29.25976562 C26.49257812 28.28330078 26.45390625 27.30683594 26.4140625 26.30078125 C26.36693115 24.95753784 26.36693115 24.95753784 26.31884766 23.5871582 C25.96901946 20.74862116 25.25507941 18.56559963 24 16 C19.61380766 13.22349766 14.22979417 13.5554848 9.1875 13.375 C8.30384766 13.33632812 7.42019531 13.29765625 6.50976562 13.2578125 C4.34017028 13.16399216 2.17011453 13.08092674 0 13 C0 8.71 0 4.42 0 0 Z " fill="#C1E5F6" transform="translate(170,54)"/>
<path d="M0 0 C4.29 0 8.58 0 13 0 C13.86494389 24.74700571 13.86494389 24.74700571 5.9375 33.875 C-3.29465149 42.09647385 -14.40846387 41.48920903 -26 41 C-27.69939315 36.64068715 -29.16775145 32.61372741 -30 28 C-28.69804687 27.96261719 -27.39609375 27.92523438 -26.0546875 27.88671875 C-24.32809743 27.82103326 -22.60153619 27.75458682 -20.875 27.6875 C-19.59109375 27.65366211 -19.59109375 27.65366211 -18.28125 27.61914062 C-13.09577448 27.39975512 -9.5793749 26.66060255 -5 24 C-4.34 24 -3.68 24 -3 24 C-0.94277412 18.83184719 -0.58486681 14.1077704 -0.375 8.625 C-0.33632813 7.79355469 -0.29765625 6.96210938 -0.2578125 6.10546875 C-0.16425754 4.07064844 -0.08107287 2.03535584 0 0 Z " fill="#C1E6F7" transform="translate(440,164)"/>
<path d="M0 0 C0.01981934 0.60473145 0.03963867 1.20946289 0.06005859 1.83251953 C0.15586299 4.59708509 0.26531555 7.36095174 0.375 10.125 C0.4059375 11.07632812 0.436875 12.02765625 0.46875 13.0078125 C0.67506543 17.95938276 0.88146101 22.42841587 3 27 C5.38119246 28.40257876 5.38119246 28.40257876 8 29 C8.99 29.33 9.98 29.66 11 30 C12.38671875 32.94140625 12.38671875 32.94140625 13.6875 36.5625 C14.12449219 37.76003906 14.56148438 38.95757812 15.01171875 40.19140625 C15.50091797 41.58166016 15.50091797 41.58166016 16 43 C8.78576803 43.47741241 2.90898717 43.51297391 -3 39 C-8.38527878 33.95907297 -12.65917902 29.3130572 -13.15087891 21.64794922 C-13.19648221 18.97038408 -13.17465301 16.3024433 -13.125 13.625 C-13.11597656 12.69816406 -13.10695313 11.77132813 -13.09765625 10.81640625 C-13.07422937 8.54399923 -13.04142748 6.2721382 -13 4 C-11.2097939 3.32942113 -9.41778511 2.6636531 -7.625 2 C-6.62726563 1.62875 -5.62953125 1.2575 -4.6015625 0.875 C-2 0 -2 0 0 0 Z " fill="#C1E5F6" transform="translate(315,404)"/>
<path d="M0 0 C4.62 0 9.24 0 14 0 C14 13.86 14 27.72 14 42 C9.38 42 4.76 42 0 42 C0 28.14 0 14.28 0 0 Z " fill="#BEE9F8" transform="translate(249,415)"/>
<path d="M0 0 C4.62 0 9.24 0 14 0 C14 13.86 14 27.72 14 42 C9.38 42 4.76 42 0 42 C0 28.14 0 14.28 0 0 Z " fill="#BEE9F7" transform="translate(249,44)"/>
<path d="M0 0 C14.19 0 28.38 0 43 0 C43 4.29 43 8.58 43 13 C28.81 13 14.62 13 0 13 C0 8.71 0 4.42 0 0 Z " fill="#C0E5F5" transform="translate(420,244)"/>
<path d="M0 0 C14.19 0 28.38 0 43 0 C43 4.29 43 8.58 43 13 C28.81 13 14.62 13 0 13 C0 8.71 0 4.42 0 0 Z " fill="#C1E5F5" transform="translate(49,244)"/>
</svg>
