<?xml version="1.0" encoding="UTF-8"?>
<svg version="1.1" xmlns="http://www.w3.org/2000/svg" width="512" height="512">
<path d="M0 0 C10.72966082 10.07618443 16.35993637 21.34043732 17.10275173 36.14928317 C17.29498015 42.84089058 17.26061236 49.53458618 17.24707031 56.22827148 C17.24978388 58.48478305 17.25334686 60.74129372 17.25769043 62.99780273 C17.26677367 69.09903236 17.26328683 75.200194 17.25693226 81.30142474 C17.25185056 87.70282845 17.25656979 94.10422654 17.25970459 100.50563049 C17.26357059 111.94201176 17.25737464 123.37835555 17.24718592 134.81473047 C17.23825381 145.16043777 17.23980229 155.50610016 17.24902344 165.85180664 C17.25975392 177.89636969 17.26369576 189.94089888 17.25779891 201.98546845 C17.25469018 208.35006383 17.25423957 214.71462836 17.26087189 221.07922173 C17.26667463 227.06537052 17.26259505 233.05143502 17.25108337 239.03757477 C17.24845229 241.22681349 17.24917516 243.41605937 17.2536087 245.60529518 C17.29363239 267.38674548 16.17557095 283.61174079 -0.01171875 299.8671875 C-0.34171875 300.1971875 -0.67171875 300.5271875 -1.01171875 300.8671875 C10.53828125 301.1971875 22.08828125 301.5271875 33.98828125 301.8671875 C33.98161942 298.17220062 33.97495758 294.47721375 33.96809387 290.67025757 C33.9084122 256.79605903 33.86361778 222.92186705 33.83508526 189.04762747 C33.83133309 184.60906274 33.82745013 180.17049814 33.82348633 175.73193359 C33.8226994 174.84828548 33.82191247 173.96463737 33.82110169 173.05421205 C33.80804342 158.74135669 33.78438725 144.42853744 33.75682286 130.11570351 C33.72878039 115.43229566 33.71210744 100.74890673 33.70601577 86.0654732 C33.70189692 77.00308292 33.68888214 67.94079468 33.66453185 58.87843581 C33.64868895 52.66625836 33.64387761 46.45413375 33.64777712 40.24193756 C33.64970093 36.65640244 33.64672648 33.07104579 33.63066483 29.4855423 C33.61338153 25.59896833 33.61931044 21.71262753 33.6275177 17.82601929 C33.61877918 16.69177564 33.61004065 15.55753199 33.60103732 14.38891733 C33.63283087 8.83712355 33.71006033 4.59220797 36.98828125 -0.1328125 C41.6312084 -3.42801044 45.49683983 -3.3852763 50.92578125 -2.5703125 C52.04339844 -2.41695435 52.04339844 -2.41695435 53.18359375 -2.26049805 C78.68735448 1.49307964 101.10329893 12.50597725 119.98828125 29.8671875 C120.93445313 30.71925781 121.880625 31.57132813 122.85546875 32.44921875 C139.24947419 47.93760633 149.94962905 68.3376538 155.98828125 89.8671875 C156.50068359 91.65382812 156.50068359 91.65382812 157.0234375 93.4765625 C164.00031314 123.20129777 158.46421909 154.74200248 144.73828125 181.5546875 C144.41641846 182.19494873 144.09455566 182.83520996 143.76293945 183.49487305 C136.77964909 196.56170573 126.40050034 206.80328776 115.79907227 216.91943359 C105.94410936 226.36037231 97.70080703 236.32738699 91.73828125 248.7421875 C91.41384033 249.40943848 91.08939941 250.07668945 90.75512695 250.76416016 C83.06445277 266.99471503 80.0028134 284.02541527 78.98828125 301.8671875 C80.07367188 301.83238281 81.1590625 301.79757812 82.27734375 301.76171875 C83.72264067 301.73356362 85.16795446 301.70626531 86.61328125 301.6796875 C87.68255859 301.64198242 87.68255859 301.64198242 88.7734375 301.60351562 C94.62928953 301.52293051 98.65969719 302.70024999 103.0703125 306.8046875 C103.64136719 307.4853125 104.21242188 308.1659375 104.80078125 308.8671875 C105.38472656 309.5478125 105.96867187 310.2284375 106.5703125 310.9296875 C110.32294196 316.05724732 109.37685524 322.82187299 108.98828125 328.8671875 C107.28868866 334.60331248 102.86335674 338.54505945 97.98828125 341.8671875 C96.99828125 341.8671875 96.00828125 341.8671875 94.98828125 341.8671875 C94.98828125 342.5271875 94.98828125 343.1871875 94.98828125 343.8671875 C95.83390625 344.0321875 96.67953125 344.1971875 97.55078125 344.3671875 C102.27915637 346.43047846 105.00543311 349.71749519 107.98828125 353.8671875 C110.02893567 359.98915076 109.86380319 367.28670178 107.80078125 373.3671875 C103.79112521 378.89774756 99.57840533 382.61533548 92.8828125 384.44140625 C88.80538733 385.04118944 84.79037219 384.97190509 80.67578125 384.9296875 C79.83982422 384.92517578 79.00386719 384.92066406 78.14257812 384.91601562 C76.09111476 384.90429298 74.03968852 384.88635953 71.98828125 384.8671875 C72.07529297 386.42566406 72.07529297 386.42566406 72.1640625 388.015625 C72.54304758 397.66989326 72.11036559 405.16111255 65.34375 412.69921875 C59.45476826 418.16281129 53.43666419 420.2349638 45.4675293 420.28710938 C44.75105225 420.29557892 44.0345752 420.30404846 43.29638672 420.31277466 C40.94740634 420.33601336 38.59908624 420.33716986 36.25 420.3359375 C34.60243982 420.3430481 32.95488209 420.3507484 31.30732727 420.35900879 C27.86016961 420.37242426 24.41324084 420.37403613 20.96606445 420.36816406 C16.57135789 420.36227712 12.17775956 420.39283065 7.78326702 420.43328094 C4.38149711 420.45926716 0.97999 420.46202542 -2.42186546 420.45838928 C-4.04083218 420.460071 -5.6598123 420.46962123 -7.2786808 420.48753357 C-17.27423515 420.58595306 -26.19639707 420.31894894 -33.9030304 413.09411621 C-41.67457794 404.72826167 -42.20951094 395.78971172 -42.01171875 384.8671875 C-43.12289062 384.90199219 -44.2340625 384.93679688 -45.37890625 384.97265625 C-64.751983 385.40186184 -64.751983 385.40186184 -71.94921875 379.4296875 C-72.62984375 378.5840625 -73.31046875 377.7384375 -74.01171875 376.8671875 C-74.58921875 376.1659375 -75.16671875 375.4646875 -75.76171875 374.7421875 C-79.24605273 369.51568654 -78.52712398 362.87782881 -78.01171875 356.8671875 C-76.11636222 350.67207931 -71.14641175 346.59951784 -65.63671875 343.5546875 C-65.10046875 343.3278125 -64.56421875 343.1009375 -64.01171875 342.8671875 C-64.85734375 342.5371875 -65.70296875 342.2071875 -66.57421875 341.8671875 C-72.07807567 338.66494348 -76.66286916 334.17580099 -78.51171875 327.9296875 C-79.77355832 320.68474344 -78.66399539 314.6475461 -74.4609375 308.58984375 C-70.49631716 303.87718183 -65.77520127 302.2504233 -60.01171875 300.8671875 C-60.59179688 300.34511719 -61.171875 299.82304687 -61.76953125 299.28515625 C-66.26319598 295.05102661 -69.19019405 291.80060317 -71.38671875 285.9921875 C-72.80310927 283.1476032 -73.7780262 281.29826414 -76.86328125 280.22021484 C-80.03160309 279.58782803 -83.20053877 279.24884924 -86.41308594 278.92504883 C-100.2057379 277.42992113 -112.10023756 270.172226 -120.9296875 259.5625 C-130.50563887 246.78095297 -134.02701954 232.56897243 -132.4375 216.76953125 C-131.92936278 213.30580692 -131.1635662 210.16915019 -130.01171875 206.8671875 C-130.7490625 206.59003906 -131.48640625 206.31289063 -132.24609375 206.02734375 C-145.69992619 200.38357506 -155.96726986 188.52776231 -161.51953125 175.265625 C-167.85936485 158.05750524 -168.37015035 139.45257732 -160.75439453 122.49145508 C-154.78154564 110.01972981 -144.43946293 99.08105959 -132.01171875 92.8671875 C-131.35171875 92.8671875 -130.69171875 92.8671875 -130.01171875 92.8671875 C-130.32109375 91.9803125 -130.63046875 91.0934375 -130.94921875 90.1796875 C-134.98944788 75.73368837 -132.82409759 61.05711248 -126.01171875 47.8671875 C-118.66320594 35.11976731 -107.93389437 26.40164788 -93.93359375 21.87109375 C-89.03603796 20.55879996 -84.70139316 19.84444196 -79.63671875 19.8671875 C-77.17728085 19.7899174 -77.17728085 19.7899174 -75.01171875 18.8671875 C-73.13866991 16.34999259 -71.93207794 13.75912344 -70.60546875 10.91796875 C-65.25165128 0.66960737 -55.48327699 -5.12589811 -45.01171875 -9.1328125 C-29.378865 -13.69485284 -12.47078346 -10.62410437 0 0 Z " fill="#D5DCEA" transform="translate(215.01171875,91.1328125)"/>
<path d="M0 0 C0.74507813 0.10223877 1.49015625 0.20447754 2.2578125 0.30981445 C27.76157323 4.06339214 50.17751768 15.07628975 69.0625 32.4375 C70.00867188 33.28957031 70.95484375 34.14164063 71.9296875 35.01953125 C88.32369294 50.50791883 99.0238478 70.9079663 105.0625 92.4375 C105.40410156 93.62859375 105.74570312 94.8196875 106.09765625 96.046875 C113.07453189 125.77161027 107.53843784 157.31231498 93.8125 184.125 C93.49063721 184.76526123 93.16877441 185.40552246 92.8371582 186.06518555 C85.85386784 199.13201823 75.47471909 209.37360026 64.87329102 219.48974609 C55.01832811 228.93068481 46.77502578 238.89769949 40.8125 251.3125 C40.48805908 251.97975098 40.16361816 252.64700195 39.8293457 253.33447266 C31.99954702 269.8586387 29.57190923 286.32458924 28.0625 304.4375 C13.2125 304.4375 -1.6375 304.4375 -16.9375 304.4375 C-17.00530223 266.83099091 -17.05901971 229.22449787 -17.09069599 191.61793997 C-17.09444816 187.17937524 -17.09833112 182.74081064 -17.10229492 178.30224609 C-17.10308185 177.41859798 -17.10386878 176.53494987 -17.10467956 175.62452455 C-17.11773783 161.31166919 -17.141394 146.99884994 -17.16895839 132.68601601 C-17.19700086 118.00260816 -17.21367381 103.31921923 -17.21976548 88.6357857 C-17.22388433 79.57339542 -17.23689911 70.51110718 -17.2612494 61.44874831 C-17.2770923 55.23657086 -17.28190364 49.02444625 -17.27800413 42.81225006 C-17.27608032 39.22671494 -17.27905477 35.64135829 -17.29511642 32.0558548 C-17.31239972 28.16928083 -17.30647081 24.28294003 -17.29826355 20.39633179 C-17.30700207 19.26208814 -17.3157406 18.12784449 -17.32474393 16.95922983 C-17.29295038 11.40743605 -17.21572092 7.16252047 -13.9375 2.4375 C-9.29457285 -0.85769794 -5.42894142 -0.8149638 0 0 Z " fill="#FEA81D" transform="translate(265.9375,88.5625)"/>
<path d="M0 0 C0.6476147 -0.00297112 1.29522941 -0.00594224 1.9624688 -0.0090034 C4.13646583 -0.01768755 6.31040777 -0.0191984 8.48442078 -0.02069092 C10.04161192 -0.0253193 11.59880192 -0.03034399 13.1559906 -0.03573608 C17.38955144 -0.04886027 21.62309642 -0.05530509 25.85667443 -0.05974674 C28.50155046 -0.06267747 31.14642216 -0.06678228 33.79129601 -0.07125092 C42.06623766 -0.08492596 50.34116941 -0.09459255 58.61612159 -0.09845281 C68.16880944 -0.10293357 77.72135421 -0.12048229 87.27399856 -0.1494534 C94.65753419 -0.17106888 102.04102955 -0.18115702 109.42459649 -0.18249393 C113.83462694 -0.18354206 118.24452289 -0.18945163 122.65452003 -0.20731354 C126.80367184 -0.22379191 130.952588 -0.22595092 135.10176086 -0.21717453 C136.62311624 -0.21640402 138.14448426 -0.22074869 139.66580772 -0.23063278 C141.74607232 -0.24335377 143.82550249 -0.23747557 145.90576172 -0.22705078 C147.06885518 -0.22851734 148.23194864 -0.2299839 149.43028736 -0.2314949 C155.07955833 0.42245052 158.85312166 2.8464376 162.45585632 7.14044189 C163.03980164 7.82106689 163.62374695 8.50169189 164.22538757 9.20294189 C167.97801704 14.33050171 167.03193031 21.09512738 166.64335632 27.14044189 C164.94376374 32.87656688 160.51843181 36.81831384 155.64335632 40.14044189 C154.65335632 40.14044189 153.66335632 40.14044189 152.64335632 40.14044189 C152.64335632 40.80044189 152.64335632 41.46044189 152.64335632 42.14044189 C153.48898132 42.30544189 154.33460632 42.47044189 155.20585632 42.64044189 C159.93423144 44.70373286 162.66050819 47.99074958 165.64335632 52.14044189 C167.68401074 58.26240515 167.51887826 65.55995617 165.45585632 71.64044189 C161.44620028 77.17100195 157.2334804 80.88858987 150.53788757 82.71466064 C146.4604624 83.31444383 142.44544726 83.24515948 138.33085632 83.20294189 C137.49489929 83.19843018 136.65894226 83.19391846 135.7976532 83.18927002 C133.74618983 83.17754737 131.69476359 83.15961393 129.64335632 83.14044189 C129.73036804 84.69891846 129.73036804 84.69891846 129.81913757 86.28887939 C130.19812265 95.94314766 129.76544066 103.43436694 122.99882507 110.97247314 C117.10984334 116.43606568 111.09173926 118.5082182 103.12260437 118.56036377 C102.04788879 118.57306808 102.04788879 118.57306808 100.95146179 118.58602905 C98.60248142 118.60926776 96.25416131 118.61042425 93.90507507 118.60919189 C92.25751489 118.6163025 90.60995716 118.6240028 88.96240234 118.63226318 C85.51524468 118.64567866 82.06831592 118.64729052 78.62113953 118.64141846 C74.22643296 118.63553151 69.83283463 118.66608505 65.43834209 118.70653534 C62.03657219 118.73252155 58.63506507 118.73527982 55.23320961 118.73164368 C53.61424289 118.73332539 51.99526277 118.74287563 50.37639427 118.76078796 C40.38083992 118.85920745 31.458678 118.59220334 23.75204468 111.36737061 C15.98049713 103.00151607 15.44556413 94.06296611 15.64335632 83.14044189 C14.53218445 83.17524658 13.42101257 83.21005127 12.27616882 83.24591064 C-7.09690793 83.67511624 -7.09690793 83.67511624 -14.29414368 77.70294189 C-14.97476868 76.85731689 -15.65539368 76.01169189 -16.35664368 75.14044189 C-16.93414368 74.43919189 -17.51164368 73.73794189 -18.10664368 73.01544189 C-21.59097765 67.78894093 -20.87204891 61.1510832 -20.35664368 55.14044189 C-18.46128715 48.9453337 -13.49133668 44.87277224 -7.98164368 41.82794189 C-7.44539368 41.60106689 -6.90914368 41.37419189 -6.35664368 41.14044189 C-7.20226868 40.81044189 -8.04789368 40.48044189 -8.91914368 40.14044189 C-14.42300059 36.93819787 -19.00779408 32.44905538 -20.85664368 26.20294189 C-22.11925273 18.95357983 -20.99649557 12.94194377 -16.82148743 6.86700439 C-12.09808625 1.29968887 -6.96869712 0.0178401 0 0 Z " fill="#47BAEC" transform="translate(157.3566436767578,392.85955810546875)"/>
<path d="M0 0 C4.21228561 1.56010578 6.34546845 4.4845393 9 8 C11.04065442 14.12196326 10.87552194 21.41951428 8.8125 27.5 C4.80284396 33.03056006 0.59012408 36.74814798 -6.10546875 38.57421875 C-10.18289392 39.17400194 -14.19790906 39.10471759 -18.3125 39.0625 C-19.56643555 39.05573242 -19.56643555 39.05573242 -20.84570312 39.04882812 C-22.89716649 39.03710548 -24.94859273 39.01917203 -27 39 C-26.91298828 40.55847656 -26.91298828 40.55847656 -26.82421875 42.1484375 C-26.44523367 51.80270576 -26.87791566 59.29392505 -33.64453125 66.83203125 C-39.53351299 72.29562379 -45.55161706 74.3677763 -53.52075195 74.41992188 C-54.59546753 74.43262619 -54.59546753 74.43262619 -55.69189453 74.44558716 C-58.04087491 74.46882586 -60.38919501 74.46998236 -62.73828125 74.46875 C-64.38584143 74.4758606 -66.03339916 74.4835609 -67.68095398 74.49182129 C-71.12811164 74.50523676 -74.57504041 74.50684863 -78.0222168 74.50097656 C-82.41692336 74.49508962 -86.81052169 74.52564315 -91.20501423 74.56609344 C-94.60678414 74.59207966 -98.00829125 74.59483792 -101.41014671 74.59120178 C-103.02911343 74.5928835 -104.64809355 74.60243373 -106.26696205 74.62034607 C-116.2625164 74.71876556 -125.18467832 74.45176144 -132.89131165 67.22692871 C-140.66285919 58.86107417 -141.19779219 49.92252422 -141 39 C-142.11117187 39.03480469 -143.22234375 39.06960938 -144.3671875 39.10546875 C-163.77472078 39.53543772 -163.77472078 39.53543772 -171.0625 33.4375 C-173 31 -173 31 -174 29 C-173.30857847 29.16210339 -172.61715694 29.32420677 -171.90478325 29.49122238 C-168.7212582 30.04882209 -165.75581589 30.13198305 -162.52346802 30.14044189 C-160.55942017 30.14900711 -160.55942017 30.14900711 -158.55569458 30.15774536 C-157.11151133 30.15899056 -155.66732796 30.16011569 -154.22314453 30.16113281 C-152.69683717 30.16576392 -151.17053095 30.17078898 -149.64422607 30.17617798 C-145.50368876 30.18927378 -141.36316764 30.19574115 -137.22261286 30.20018864 C-134.63433649 30.20312327 -132.04606452 30.20722877 -129.45779037 30.21169281 C-121.35531483 30.22535889 -113.25284936 30.2350305 -105.15036309 30.2388947 C-95.80485582 30.24337662 -86.45949473 30.26093445 -77.11403191 30.2898953 C-69.8841545 30.31152087 -62.6543182 30.32159941 -55.42440879 30.32293582 C-51.10883132 30.32398301 -46.79339141 30.32987271 -42.47784805 30.34775543 C-38.41812966 30.36425182 -34.35865205 30.36638409 -30.29891205 30.35761642 C-28.81183858 30.35684695 -27.32475207 30.36117699 -25.83771133 30.37107468 C-13.6308951 30.4991115 -13.6308951 30.4991115 -3.25 24.75 C1.01415097 19.53825992 2.45338946 14.76799699 2.23828125 8.15625 C1.91793155 5.25734783 1.10389309 2.6907394 0 0 Z " fill="#47BAEC" transform="translate(314,437)"/>
<path d="M0 0 C4.21228561 1.56010578 6.34546845 4.4845393 9 8 C11.04065442 14.12196326 10.87552194 21.41951428 8.8125 27.5 C4.80284396 33.03056006 0.59012408 36.74814798 -6.10546875 38.57421875 C-10.18289392 39.17400194 -14.19790906 39.10471759 -18.3125 39.0625 C-19.56643555 39.05573242 -19.56643555 39.05573242 -20.84570312 39.04882812 C-22.89716649 39.03710548 -24.94859273 39.01917203 -27 39 C-26.91298828 40.55847656 -26.91298828 40.55847656 -26.82421875 42.1484375 C-26.44523367 51.80270576 -26.87791566 59.29392505 -33.64453125 66.83203125 C-39.53351299 72.29562379 -45.55161706 74.3677763 -53.52075195 74.41992188 C-54.59546753 74.43262619 -54.59546753 74.43262619 -55.69189453 74.44558716 C-58.04087491 74.46882586 -60.38919501 74.46998236 -62.73828125 74.46875 C-64.38584143 74.4758606 -66.03339916 74.4835609 -67.68095398 74.49182129 C-71.12811164 74.50523676 -74.57504041 74.50684863 -78.0222168 74.50097656 C-82.41692336 74.49508962 -86.81052169 74.52564315 -91.20501423 74.56609344 C-94.60678414 74.59207966 -98.00829125 74.59483792 -101.41014671 74.59120178 C-103.02911343 74.5928835 -104.64809355 74.60243373 -106.26696205 74.62034607 C-116.05933428 74.71676496 -125.23303078 74.60467585 -132.70307922 67.34484863 C-134.125 65.6875 -134.125 65.6875 -136 63 C-135.46007919 63.21153214 -134.92015839 63.42306427 -134.36387634 63.64100647 C-126.40923721 66.41717374 -118.63380375 66.45590101 -110.31640625 66.43359375 C-108.81005114 66.43816656 -107.30369811 66.44347536 -105.79734802 66.44947815 C-102.65476963 66.45836394 -99.51244599 66.45603824 -96.36987305 66.44604492 C-92.37117285 66.43455908 -88.37335634 66.45478325 -84.37477207 66.48396206 C-81.26806691 66.50243356 -78.1615693 66.50201005 -75.05482292 66.49632454 C-73.5818349 66.49617267 -72.10883158 66.50210422 -70.63589668 66.51461601 C-60.18505416 66.59090884 -50.34458286 65.98791443 -42.0625 58.9375 C-36.80878586 53.09164062 -35.21456216 45.55676835 -34 38 C-34.62984488 38.00791911 -35.25968975 38.01583822 -35.90862083 38.02399731 C-51.26713485 38.21602847 -66.62573513 38.39079581 -81.98465538 38.54658794 C-89.41225678 38.62234127 -96.83971059 38.70383649 -104.26708984 38.79907227 C-110.74430953 38.88211004 -117.22154455 38.95414706 -123.69902861 39.01323253 C-127.12564402 39.04486636 -130.55200657 39.08183244 -133.978405 39.13199425 C-137.81292343 39.18535913 -141.64716736 39.2192784 -145.48193359 39.2487793 C-146.60547241 39.26891586 -147.72901123 39.28905243 -148.88659668 39.30979919 C-156.99215157 39.34269493 -164.66182867 38.79316376 -171.0625 33.4375 C-173 31 -173 31 -174 29 C-173.30857847 29.16210339 -172.61715694 29.32420677 -171.90478325 29.49122238 C-168.7212582 30.04882209 -165.75581589 30.13198305 -162.52346802 30.14044189 C-160.55942017 30.14900711 -160.55942017 30.14900711 -158.55569458 30.15774536 C-157.11151133 30.15899056 -155.66732796 30.16011569 -154.22314453 30.16113281 C-152.69683717 30.16576392 -151.17053095 30.17078898 -149.64422607 30.17617798 C-145.50368876 30.18927378 -141.36316764 30.19574115 -137.22261286 30.20018864 C-134.63433649 30.20312327 -132.04606452 30.20722877 -129.45779037 30.21169281 C-121.35531483 30.22535889 -113.25284936 30.2350305 -105.15036309 30.2388947 C-95.80485582 30.24337662 -86.45949473 30.26093445 -77.11403191 30.2898953 C-69.8841545 30.31152087 -62.6543182 30.32159941 -55.42440879 30.32293582 C-51.10883132 30.32398301 -46.79339141 30.32987271 -42.47784805 30.34775543 C-38.41812966 30.36425182 -34.35865205 30.36638409 -30.29891205 30.35761642 C-28.81183858 30.35684695 -27.32475207 30.36117699 -25.83771133 30.37107468 C-13.6308951 30.4991115 -13.6308951 30.4991115 -3.25 24.75 C1.01415097 19.53825992 2.45338946 14.76799699 2.23828125 8.15625 C1.91793155 5.25734783 1.10389309 2.6907394 0 0 Z " fill="#0082BD" transform="translate(314,437)"/>
<path d="M0 0 C1.39816903 0.64001978 2.78871055 1.29691813 4.171875 1.96875 C4.91058838 2.32332275 5.64930176 2.67789551 6.41040039 3.04321289 C13.24502932 6.43642259 19.07284294 10.54947737 24.921875 15.46875 C25.79328125 16.17773438 26.6646875 16.88671875 27.5625 17.6171875 C47.67580632 34.70732814 58.76021679 60.50280899 61.30859375 86.3984375 C61.57297486 94.43926975 61.57297486 94.43926975 59.140625 98.28515625 C56.921875 100.46875 56.921875 100.46875 54.921875 101.09765625 C54.261875 101.07574219 53.601875 101.05382812 52.921875 101.03125 C52.261875 101.03253906 51.601875 101.03382813 50.921875 101.03515625 C47.86557943 100.1696038 46.78341218 99.05644715 44.921875 96.46875 C44.23977402 93.53213781 44.09400892 90.59781223 43.921875 87.59375 C42.1185203 66.12243092 33.14273597 45.54225155 17.36328125 30.50390625 C8.6500493 23.2405561 -0.59378159 17.77415737 -11.25 13.91796875 C-14.57988644 12.21163192 -15.60679719 10.87412002 -17.078125 7.46875 C-17.01383137 3.7397195 -16.83525345 1.43787441 -14.515625 -1.53125 C-9.75571992 -3.48403157 -4.59044023 -1.90185648 0 0 Z " fill="#F79303" transform="translate(290.078125,119.53125)"/>
<path d="M0 0 C4.21228561 1.56010578 6.34546845 4.4845393 9 8 C11.02272279 14.06816836 10.80750239 21.27467943 9 27.375 C5.55268488 31.89960109 1.46589939 36.17803354 -4 38 C-6.11712539 38.09812893 -8.23725231 38.13501618 -10.35664368 38.14044189 C-11.00425838 38.14341302 -11.65187309 38.14638414 -12.31911248 38.1494453 C-14.49310951 38.15812945 -16.66705145 38.1596403 -18.84106445 38.16113281 C-20.39825559 38.16576119 -21.9554456 38.17078588 -23.51263428 38.17617798 C-27.74619512 38.18930216 -31.9797401 38.19574698 -36.21331811 38.20018864 C-38.85819414 38.20311936 -41.50306583 38.20722417 -44.14793968 38.21169281 C-52.42288134 38.22536786 -60.69781309 38.23503445 -68.97276527 38.2388947 C-78.52545312 38.24337547 -88.07799789 38.26092418 -97.63064224 38.2898953 C-105.01417786 38.31151078 -112.39767323 38.32159891 -119.78124017 38.32293582 C-124.19127062 38.32398395 -128.60116657 38.32989352 -133.01116371 38.34775543 C-137.16031552 38.3642338 -141.30923168 38.36639281 -145.45840454 38.35761642 C-146.97975991 38.35684592 -148.50112794 38.36119059 -150.0224514 38.37107468 C-152.10271599 38.38379566 -154.18214617 38.37791747 -156.2624054 38.36749268 C-158.00704559 38.36969252 -158.00704559 38.36969252 -159.78693104 38.3719368 C-164.11933611 37.87042846 -167.51173866 36.42250096 -170.6796875 33.39453125 C-171.78645833 31.9296875 -172.89322917 30.46484375 -174 29 C-173.30843968 29.1619646 -172.61687937 29.3239292 -171.90436268 29.49080181 C-168.72412175 30.04836748 -165.75927882 30.1350172 -162.53019714 30.14717102 C-161.22227707 30.15432632 -159.91435699 30.16148163 -158.56680298 30.16885376 C-157.12420678 30.17169366 -155.68161033 30.17440544 -154.23901367 30.17700195 C-152.71432848 30.18327089 -151.1896448 30.18991808 -149.66496277 30.19691467 C-144.66597548 30.2179021 -139.66698806 30.22831046 -134.66796875 30.23828125 C-132.94422197 30.24233046 -131.22047535 30.24644743 -129.4967289 30.25063133 C-121.3990595 30.26966945 -113.30139915 30.2839047 -105.20371169 30.2922433 C-95.86666127 30.30201802 -86.52984776 30.3283494 -77.19288081 30.36874419 C-69.96808428 30.39892536 -62.74335562 30.41371398 -55.51849729 30.41702431 C-51.20675046 30.41937202 -46.89525714 30.42829643 -42.58357811 30.45348549 C-38.52626864 30.47680717 -34.46937892 30.48098317 -30.41201973 30.47072411 C-28.9269712 30.47022967 -27.4419017 30.47652297 -25.95691681 30.49028015 C-13.73715083 30.66029668 -13.73715083 30.66029668 -3.49325848 24.58801746 C1.40602863 19.12563724 2.33046085 14.49239745 2.203125 7.3828125 C1.96843216 4.62968498 1.30064222 2.43870416 0 0 Z " fill="#0082BD" transform="translate(314,396)"/>
<path d="M0 0 C3.80531096 0.77396155 4.67145025 1.31054261 7.42016602 3.80737305 C8.12037872 4.44274994 8.82059143 5.07812683 9.54202271 5.73275757 C12.97200138 8.95772692 16.32836652 12.2481213 19.65234375 15.58203125 C20.37112198 16.29985275 21.08990021 17.01767426 21.83045959 17.75724792 C23.3332693 19.25938252 24.83483866 20.76275897 26.33520508 22.26733398 C28.6396476 24.57718196 30.94944389 26.88158091 33.25976562 29.18554688 C34.7242795 30.65072072 36.18848358 32.11620429 37.65234375 33.58203125 C38.34392075 34.27158401 39.03549774 34.96113678 39.74803162 35.67158508 C40.38281937 36.30952499 41.01760712 36.9474649 41.67163086 37.60473633 C42.23152206 38.16542313 42.79141327 38.72610992 43.36827087 39.30378723 C45.4766142 41.61507113 45.70145539 42.87327258 46.0625 46.0625 C45.6875 49.75 45.6875 49.75 43.75 52.75 C40.04151096 55.17187039 38.42606095 55.17012219 34.16479492 54.56881714 C29.1467741 52.9102171 25.88389539 48.93238741 22.3125 45.19140625 C21.03669067 43.90217506 21.03669067 43.90217506 19.73510742 42.5868988 C17.03323593 39.84700233 14.36076026 37.0802889 11.6875 34.3125 C9.85987326 32.45330663 8.03046412 30.59586362 6.19921875 28.74023438 C2.86825159 25.35083155 -0.4584433 21.95767594 -3.76171875 18.54125977 C-4.42518311 17.85588638 -5.08864746 17.170513 -5.7722168 16.46437073 C-8.00068947 13.98402925 -8.30305489 12.83343178 -8.6875 9.4375 C-8.3125 5.75 -8.3125 5.75 -6.25 2.8125 C-3.3125 0.75 -3.3125 0.75 0 0 Z " fill="#F79302" transform="translate(357.3125,312.25)"/>
<path d="M0 0 C1.12166565 -0.01606293 2.2433313 -0.03212585 3.39898682 -0.04867554 C8.53599238 -0.09307361 13.6729087 -0.13463804 18.81005859 -0.15722656 C21.52036415 -0.17054941 24.22991381 -0.19836902 26.93994141 -0.23925781 C30.84372875 -0.29815456 34.74715077 -0.31589976 38.65136719 -0.33056641 C39.86093079 -0.35323578 41.07049438 -0.37590515 42.31671143 -0.39926147 C51.69903484 -0.37568696 51.69903484 -0.37568696 55.40429688 2.50683594 C57.63574219 5.19287109 57.63574219 5.19287109 58.32324219 8.69287109 C57.66508295 12.04349995 57.05287335 13.82862305 54.55471802 16.16061401 C49.97411032 18.62461833 44.2201045 17.87440153 39.16308594 17.82177734 C37.84788467 17.8241893 36.53268341 17.82660126 35.17762756 17.8290863 C32.39927121 17.83193909 29.62172336 17.81729448 26.84350586 17.78979492 C23.28664399 17.75567756 19.73122391 17.7617451 16.17429256 17.7804575 C12.77458068 17.79357898 9.37528776 17.77531189 5.97558594 17.75927734 C4.69948959 17.76423721 3.42339325 17.76919708 2.10862732 17.77430725 C0.92382278 17.75847092 -0.26098175 17.74263458 -1.48168945 17.72631836 C-2.52361954 17.72011978 -3.56554962 17.7139212 -4.63905334 17.70753479 C-8.04495812 17.06431863 -9.23272872 15.86973637 -11.36425781 13.19287109 C-12.09197014 10.45324822 -11.94397358 7.9607297 -11.36425781 5.19287109 C-7.9752946 0.78721891 -5.37633124 0.06983598 0 0 Z " fill="#F69203" transform="translate(405.3642578125,204.80712890625)"/>
<path d="M0 0 C2.5625 1.5625 2.5625 1.5625 4 4 C4.6875 7.25 4.6875 7.25 4 11 C2.67970276 12.82850647 2.67970276 12.82850647 0.95141602 14.72290039 C0.31535431 15.4226297 -0.3207074 16.12235901 -0.9760437 16.84329224 C-6.45923145 22.68612273 -12.08127028 28.38735643 -17.72485352 34.07495117 C-19.29044511 35.65722061 -20.85063518 37.24485198 -22.40551758 38.83764648 C-24.66589413 41.15266167 -26.94216989 43.45090666 -29.22265625 45.74609375 C-30.25882835 46.81626991 -30.25882835 46.81626991 -31.31593323 47.9080658 C-34.29618503 50.87540234 -36.24737952 52.765759 -40.31420898 54.03149414 C-43.73206753 53.99141562 -45.32195605 53.08292307 -48 51 C-50.40832094 47.38751859 -50.72360855 46.26125032 -50 42 C-48.6882019 40.2154541 -48.6882019 40.2154541 -46.95263672 38.30664062 C-46.31541687 37.60297363 -45.67819702 36.89930664 -45.02166748 36.17431641 C-39.57963729 30.32137786 -34.03917795 24.57284503 -28.43994141 18.87011719 C-26.89121096 17.28447332 -25.35151179 15.68996 -23.82080078 14.08691406 C-21.59198989 11.75478082 -19.33510031 9.45339506 -17.0703125 7.15625 C-16.39501495 6.43763794 -15.71971741 5.71902588 -15.0239563 4.9786377 C-10.32649827 0.29938491 -6.65819884 -1.39054144 0 0 Z " fill="#F79302" transform="translate(399,61)"/>
<path d="M0 0 C2.68465485 2.12480698 3.8712952 3.31849301 4.5146637 6.72520447 C4.52086227 7.76713455 4.52706085 8.80906464 4.53344727 9.88256836 C4.5492836 11.06737289 4.56511993 12.25217743 4.58143616 13.47288513 C4.57399635 15.38702965 4.57399635 15.38702965 4.56640625 17.33984375 C4.57260483 18.65408829 4.57880341 19.96833282 4.58518982 21.32240295 C4.59558902 24.10240204 4.59104098 26.88188913 4.57641602 29.66186523 C4.55923719 33.21767812 4.582711 36.77187369 4.61790562 40.32750607 C4.64520013 43.72754668 4.6351418 47.12719865 4.62890625 50.52734375 C4.64216446 51.80141586 4.65542267 53.07548798 4.66908264 54.38816833 C4.56549392 64.20687256 4.56549392 64.20687256 1.64819336 67.30688477 C-1.6280554 69.40154551 -3.18094367 69.71607306 -7 69 C-10.33761045 66.84909549 -11.73470933 65.79587201 -13 62 C-13.10278031 60.23744719 -13.14847428 58.47131216 -13.16113281 56.70581055 C-13.17554413 55.08348763 -13.17554413 55.08348763 -13.19024658 53.4283905 C-13.19449646 52.25963882 -13.19874634 51.09088715 -13.203125 49.88671875 C-13.20882507 48.68441116 -13.21452515 47.48210358 -13.22039795 46.24336243 C-13.22985075 43.69716269 -13.23638304 41.1509507 -13.24023438 38.60473633 C-13.24993522 34.71348667 -13.280955 30.82276618 -13.3125 26.93164062 C-13.31903055 24.45833647 -13.32428081 21.98502854 -13.328125 19.51171875 C-13.3404718 18.34903976 -13.3528186 17.18636078 -13.36553955 15.9884491 C-13.3373581 5.74349695 -13.3373581 5.74349695 -10 1 C-6.87057535 -0.56471233 -3.38917777 -0.69701958 0 0 Z " fill="#F69302" transform="translate(254,1)"/>
</svg>
