<?xml version="1.0" encoding="UTF-8"?>
<svg version="1.1" xmlns="http://www.w3.org/2000/svg" width="256" height="256">
<path d="M0 0 C5.45367439 4.07850218 7.32382101 9.56405306 9 15.98046875 C9.5412142 20.35643075 9.60465251 24.67998947 9.609375 29.0859375 C9.62591125 30.29115555 9.64244751 31.4963736 9.65948486 32.7381134 C9.70766443 36.54811858 9.72926989 40.35772548 9.75 44.16796875 C9.77818465 46.76759784 9.80811553 49.36720862 9.83984375 51.96679688 C9.91341544 58.30461591 9.96523334 64.64232431 10 70.98046875 C10.5463208 70.69656784 11.0926416 70.41266693 11.65551758 70.12016296 C12.37376709 69.75268448 13.0920166 69.38520599 13.83203125 69.0065918 C14.54335205 68.64019089 15.25467285 68.27378998 15.98754883 67.89628601 C20.10504026 66.02251646 23.79595059 66.63327739 28 67.98046875 C31.13189452 69.87460855 33.47871215 72.34537277 36 74.98046875 C38.09670551 77.1128811 40.20523443 79.23349919 42.3125 81.35546875 C43.14672485 82.20322876 43.14672485 82.20322876 43.99780273 83.06811523 C47.45791597 86.5522814 51.0228264 89.73560401 54.875 92.79296875 C62.63202605 99.00085111 67.548044 104.23593087 70 113.98046875 C70.36234264 117.27482583 70.35325567 120.51716739 70.29296875 123.828125 C70.28872391 124.72542831 70.28447906 125.62273163 70.28010559 126.54722595 C70.26347363 129.37946118 70.22585197 132.21095299 70.1875 135.04296875 C70.17243309 136.97720318 70.15874822 138.91144889 70.14648438 140.84570312 C70.11362112 145.55757286 70.06194841 150.2688953 70 154.98046875 C70.61488281 155.02582764 71.22976562 155.07118652 71.86328125 155.11791992 C72.67152344 155.18986572 73.47976562 155.26181152 74.3125 155.3359375 C75.51326172 155.43491333 75.51326172 155.43491333 76.73828125 155.53588867 C80.31680393 156.23930942 81.87926859 158.13073592 84 160.98046875 C85.24775841 164.53977959 85.20168689 168.11120273 85.25 171.85546875 C85.27578125 173.04914063 85.3015625 174.2428125 85.328125 175.47265625 C84.95460295 179.46578484 84.3044703 181.69238308 82 184.98046875 C75.20870305 189.15910798 67.54778943 188.434892 59.8359375 188.4140625 C58.35576133 188.41862897 56.87558727 188.42393593 55.39541626 188.4299469 C52.30388738 188.438851 49.21261723 188.43648402 46.12109375 188.42651367 C42.165433 188.41499718 38.21066142 188.43528904 34.25511742 188.46443081 C31.2026913 188.48279555 28.15047852 188.48250041 25.09801102 188.47679329 C23.63960137 188.47664027 22.18117709 188.48266894 20.72282028 188.49508476 C18.68424144 188.51000402 16.64551543 188.49668286 14.60693359 188.48217773 C12.86988663 188.48192848 12.86988663 188.48192848 11.0977478 188.48167419 C7.34989649 187.87528413 5.69313628 186.60353998 3 183.98046875 C1.19023479 180.36093834 1.72963337 176.15378577 1.6875 172.16796875 C1.65849609 171.26498047 1.62949219 170.36199219 1.59960938 169.43164062 C1.55822531 165.09904693 1.57759452 162.66589785 3.89453125 158.90625 C6.95703977 156.10510584 8.5748788 155.86010988 12.625 155.91796875 C13.85089844 155.93150391 13.85089844 155.93150391 15.1015625 155.9453125 C16.04128906 155.96271484 16.04128906 155.96271484 17 155.98046875 C15.80588253 148.94467107 12.16927531 145.54702056 7.10546875 140.73828125 C6.3210994 139.97047333 5.53673004 139.20266541 4.72859192 138.41159058 C2.22656862 135.96387161 -0.29107509 133.53318636 -2.8125 131.10546875 C-5.32239807 128.68413261 -7.82805714 126.25909864 -10.32145691 123.82077026 C-11.86983 122.30685257 -13.42755123 120.80241528 -14.99604797 119.30935669 C-21.03843696 113.40611666 -26.60793979 106.62469684 -27.12542725 97.8548584 C-27.12496399 97.08355591 -27.12450073 96.31225342 -27.12402344 95.51757812 C-27.12476868 94.62099487 -27.12551392 93.72441162 -27.12628174 92.80065918 C-27.12070251 91.81843384 -27.11512329 90.8362085 -27.109375 89.82421875 C-27.1058905 88.77850708 -27.10240601 87.73279541 -27.09881592 86.65539551 C-27.02500516 73.37955661 -26.73140186 60.10887259 -26.36523438 46.83837891 C-26.28523217 43.90460717 -26.21627546 40.97086846 -26.15625 38.03662109 C-26.08223504 34.42277408 -25.98963857 30.80984541 -25.88387299 27.1967926 C-25.8296209 25.19199706 -25.79361013 23.18673394 -25.75811768 21.18151855 C-25.52633878 14.04676978 -24.939882 9.00829005 -21 2.98046875 C-14.71921548 -2.12266867 -7.48170828 -3.8139177 0 0 Z M-15 10.98046875 C-16.33073499 13.64193873 -16.20428292 15.76937218 -16.29711914 18.74926758 C-16.33708511 19.96266312 -16.37705109 21.17605865 -16.41822815 22.42622375 C-16.45739532 23.76331025 -16.49636585 25.10040252 -16.53515625 26.4375 C-16.57825274 27.81923898 -16.6216694 29.20096801 -16.66539001 30.58268738 C-16.75653041 33.49555422 -16.84441744 36.40849588 -16.92993164 39.3215332 C-17.03779185 42.99047966 -17.15254644 46.65916852 -17.26943398 50.32783699 C-17.51233514 57.97283845 -17.7244975 65.61803758 -17.90753174 73.26470947 C-17.96616831 75.62097082 -18.03097271 77.97709334 -18.10418701 80.33294678 C-18.19248946 83.21933659 -18.25494114 86.10497841 -18.30859375 88.9921875 C-18.33856949 89.79082718 -18.36854523 90.58946686 -18.39942932 91.41230774 C-18.48740444 99.65179204 -15.68354604 105.52704266 -9.98168945 111.42358398 C-8.37027069 112.97399635 -6.7468187 114.51197235 -5.11328125 116.0390625 C-3.35300393 117.74100739 -1.59325402 119.4434979 0.16601562 121.14648438 C2.92987295 123.7922807 5.70051784 126.43026773 8.48168945 129.05786133 C11.17816536 131.61516429 13.84586265 134.19990903 16.51171875 136.7890625 C17.34708664 137.56229355 18.18245453 138.3355246 19.0431366 139.13218689 C20.19487114 140.25869408 20.19487114 140.25869408 21.36987305 141.40795898 C22.04841843 142.05143784 22.72696381 142.69491669 23.42607117 143.3578949 C25 145.98046875 25 145.98046875 26 155.98046875 C37.55 155.98046875 49.1 155.98046875 61 155.98046875 C61.09215882 150.28710135 61.17169619 144.59635284 61.21972656 138.90283203 C61.23976141 136.96882323 61.26699729 135.0348744 61.30175781 133.10107422 C61.35063571 130.31072132 61.37305019 127.52117374 61.390625 124.73046875 C61.41127014 123.87493408 61.43191528 123.01939941 61.45318604 122.13793945 C61.45557719 115.6461242 59.97569783 110.44896898 55.68713379 105.45018005 C54.26878936 104.04220373 52.75839167 102.72901902 51.25 101.41796875 C50.71995361 100.95108643 50.18990723 100.4842041 49.64379883 100.00317383 C48.10505032 98.65125167 46.5534641 97.31542019 45 95.98046875 C43.56220361 94.70997076 42.1246561 93.43919098 40.6875 92.16796875 C38.85200223 90.56857235 37.00760963 88.98677297 35.1328125 87.43359375 C32.21801002 85.00667667 29.68305209 82.68784999 27.375 79.66796875 C25.23447974 76.89128758 25.23447974 76.89128758 22.5 75.79296875 C19.69719725 75.75320642 19.69719725 75.75320642 17.1875 78.41796875 C16.465625 79.26359375 15.74375 80.10921875 15 80.98046875 C16.24392817 85.55614266 17.6672083 88.10845479 21.1328125 91.328125 C21.93847656 92.09833984 22.74414062 92.86855469 23.57421875 93.66210938 C25.28086415 95.25506553 26.98921146 96.84620019 28.69921875 98.43554688 C29.50230469 99.20447266 30.30539063 99.97339844 31.1328125 100.765625 C32.24487061 101.80021851 32.24487061 101.80021851 33.37939453 102.85571289 C35.35264493 105.44281717 35.42090157 106.7993852 35 109.98046875 C34 110.98046875 34 110.98046875 31.72827148 111.29663086 C28.07366272 110.87312139 26.91837712 109.51615836 24.34765625 106.921875 C23.48849609 106.06013672 22.62933594 105.19839844 21.74414062 104.31054688 C20.41672852 102.9405957 20.41672852 102.9405957 19.0625 101.54296875 C18.18142578 100.66447266 17.30035156 99.78597656 16.39257812 98.88085938 C4.63516746 86.94730772 0.71282098 78.53265265 0.7265625 61.890625 C0.7062776 59.30663626 0.68542689 56.72265191 0.6640625 54.13867188 C0.6393494 50.08569529 0.62414032 46.03278397 0.61914062 41.97973633 C0.61313366 38.05396713 0.57582005 34.12872799 0.5390625 30.203125 C0.54410797 28.99769547 0.54915344 27.79226593 0.55435181 26.55030823 C0.47310761 19.57943887 -0.15528933 14.86868977 -4 8.98046875 C-9.0380862 5.62174462 -10.82292424 7.24308517 -15 10.98046875 Z M33.4375 164.48046875 C31.25065481 164.52881654 29.06380586 164.57699472 26.87695312 164.625 C21.58459018 164.74153905 16.29228301 164.86035657 11 164.98046875 C11 169.60046875 11 174.22046875 11 178.98046875 C19.179639 179.00303758 27.35925389 179.02139419 35.53891563 179.03228092 C39.33682789 179.03750531 43.1347178 179.04459492 46.93261719 179.0559082 C50.59600673 179.06675283 54.25937473 179.07274894 57.92277908 179.07534599 C59.32225509 179.07719739 60.72172988 179.08081257 62.12119675 179.08619881 C64.07736822 179.09343001 66.03356126 179.09387698 67.98974609 179.09399414 C69.1044931 179.09621475 70.21924011 179.09843536 71.36776733 179.10072327 C73.97949033 179.15986024 73.97949033 179.15986024 76 177.98046875 C76.02694851 176.02221002 76.04637218 174.06384649 76.0625 172.10546875 C76.07410156 171.01492187 76.08570312 169.924375 76.09765625 168.80078125 C76.19744303 166.02869329 76.19744303 166.02869329 75 163.98046875 C61.13955351 163.89513723 47.29391558 164.165382 33.4375 164.48046875 Z " fill="#10C3F5" transform="translate(30,60.01953125)"/>
<path d="M0 0 C5.3054638 4.9265021 6.82570936 9.88671498 7.26269531 16.93164062 C7.3456474 19.48511873 7.4079115 22.03932497 7.453125 24.59375 C7.49069752 25.98217988 7.52985436 27.37056769 7.57049561 28.75891113 C7.67280176 32.41214478 7.75203521 36.0655346 7.82678223 39.71942139 C7.90573005 43.3511213 8.00910154 46.98211957 8.109375 50.61328125 C8.27977221 56.93006436 8.41469336 63.24682538 8.52033234 69.5650177 C8.59302714 73.88794201 8.69650417 78.20924557 8.81054688 82.53125 C8.84916195 84.65622317 8.88636964 86.78122259 8.921875 88.90625 C8.96794891 90.30417786 8.96794891 90.30417786 9.01495361 91.73034668 C9.10094407 100.1845871 6.81348464 107.905475 0.84375 114.109375 C0.05742187 114.93373047 -0.72890625 115.75808594 -1.5390625 116.60742188 C-2.4814322 117.55372097 -3.42701856 118.49682268 -4.375 119.4375 C-4.93477539 119.99477783 -5.49455078 120.55205566 -6.07128906 121.1262207 C-11.34074352 126.35554169 -16.63610505 131.55997969 -21.9765625 136.71679688 C-24.00629413 138.68001109 -26.01979357 140.65871361 -28.03125 142.640625 C-28.6540686 143.23450012 -29.27688721 143.82837524 -29.9185791 144.44024658 C-33.4486579 147.94805555 -35.16578802 150.23285846 -35.375 155.4375 C-34.78332031 155.39109375 -34.19164062 155.3446875 -33.58203125 155.296875 C-29.35514382 155.10380347 -27.0501608 155.0155245 -23.375 157.3125 C-19.41391686 161.52115084 -20.12085807 165.7293268 -20.0625 171.25 C-20.01899414 172.60448242 -20.01899414 172.60448242 -19.97460938 173.98632812 C-19.93322531 178.31892182 -19.95259452 180.7520709 -22.26953125 184.51171875 C-25.77371566 187.71684475 -27.96226105 187.57120165 -32.64135742 187.59863281 C-33.9600029 187.60824036 -35.27864838 187.6178479 -36.63725281 187.62774658 C-38.0849897 187.63259579 -39.5327286 187.63687432 -40.98046875 187.640625 C-42.46299745 187.64637796 -43.94552614 187.65213568 -45.42805481 187.65789795 C-48.54098863 187.6684121 -51.65389662 187.6742513 -54.7668457 187.67773438 C-58.74356771 187.68320442 -62.71994477 187.70719835 -66.69655895 187.73570633 C-69.76189648 187.75439506 -72.82715221 187.75954172 -75.89254189 187.76107025 C-77.3576781 187.76408586 -78.82281324 187.77207736 -80.2878933 187.78525543 C-82.34607935 187.80243897 -84.40343993 187.80040592 -86.46166992 187.79394531 C-87.63034103 187.79759094 -88.79901215 187.80123657 -90.00309753 187.80499268 C-94.86553429 187.27505152 -99.0061942 186.0297843 -102.2890625 182.2109375 C-104.74397414 175.94119914 -104.55403395 166.5784513 -102.25 160.1875 C-99.94100947 156.80098055 -98.25074654 155.72941551 -94.375 154.4375 C-92.37543071 154.3959949 -90.37443808 154.39009352 -88.375 154.4375 C-88.39594727 153.25309326 -88.41689453 152.06868652 -88.43847656 150.84838867 C-88.5114867 146.40727069 -88.55701923 141.96620451 -88.59472656 137.5246582 C-88.61470419 135.61115566 -88.64189599 133.69771308 -88.67675781 131.78442383 C-89.08217985 108.94366146 -89.08217985 108.94366146 -82.40234375 99.7109375 C-81.71269531 99.08445312 -81.02304688 98.45796875 -80.3125 97.8125 C-79.5184375 97.07902344 -78.724375 96.34554687 -77.90625 95.58984375 C-74.51547317 92.70663691 -71.0327099 89.94669204 -67.546875 87.1796875 C-62.6859152 83.12888767 -58.36641622 78.44581506 -54.03295898 73.84545898 C-49.74088115 69.3993093 -46.44700274 66.57791389 -39.99609375 66.35546875 C-38.91521484 66.48888672 -38.91521484 66.48888672 -37.8125 66.625 C-37.08933594 66.70105469 -36.36617188 66.77710937 -35.62109375 66.85546875 C-32.85149605 67.57315581 -30.79558946 68.93605833 -28.375 70.4375 C-28.37135437 69.77288254 -28.36770874 69.10826508 -28.36395264 68.42350769 C-28.32191912 61.46306243 -28.25242856 54.50326381 -28.16748047 47.54321289 C-28.13937439 44.95083098 -28.11810871 42.35836503 -28.10400391 39.76586914 C-28.08243134 36.02446788 -28.03570492 32.28406622 -27.984375 28.54296875 C-27.98314636 27.39668503 -27.98191772 26.25040131 -27.98065186 25.06938171 C-27.83840848 17.13212148 -27.06183818 8.58632856 -21.5668335 2.40275574 C-15.02476993 -3.52744747 -7.92144961 -3.66733778 0 0 Z M-14.0625 8.5625 C-17.62985269 12.99758712 -18.62190138 16.53819016 -18.64624023 22.18652344 C-18.65642685 23.31830017 -18.66661346 24.4500769 -18.67710876 25.6161499 C-18.67924881 26.83078918 -18.68138885 28.04542847 -18.68359375 29.296875 C-18.7087581 31.88281471 -18.73415606 34.46875216 -18.75976562 37.0546875 C-18.79047801 41.12073735 -18.81270302 45.18680838 -18.83129883 49.25292969 C-18.85035536 53.18442139 -18.8924746 57.11555218 -18.93359375 61.046875 C-18.93370956 62.25341736 -18.93382538 63.45995972 -18.9339447 64.70306396 C-19.13686979 82.11279569 -27.44754356 90.61399344 -39.0625 102.5625 C-39.79936035 103.33400391 -40.5362207 104.10550781 -41.29541016 104.90039062 C-42.00616699 105.61646484 -42.71692383 106.33253906 -43.44921875 107.0703125 C-44.08432373 107.71887207 -44.71942871 108.36743164 -45.3737793 109.03564453 C-47.88263129 110.79309581 -49.37353878 110.79105955 -52.375 110.4375 C-53.375 109.4375 -53.375 109.4375 -53.67919922 107.13842773 C-53.28001092 103.59410978 -52.09482444 102.62946012 -49.5078125 100.22265625 C-48.70472656 99.45373047 -47.90164062 98.68480469 -47.07421875 97.89257812 C-46.22472656 97.10302734 -45.37523437 96.31347656 -44.5 95.5 C-42.8267281 93.93819414 -41.16230065 92.36684692 -39.5078125 90.78515625 C-38.76418457 90.09429932 -38.02055664 89.40344238 -37.25439453 88.69165039 C-35.06817514 86.06949351 -34.26434439 83.7088705 -33.375 80.4375 C-35.54088845 77.770992 -35.54088845 77.770992 -38.375 75.4375 C-41.56954129 75.55524752 -42.98124548 76.07125328 -45.33203125 78.2578125 C-45.94433594 79.01835937 -46.55664062 79.77890625 -47.1875 80.5625 C-50.95029096 85.00816784 -54.92258372 88.700275 -59.375 92.4375 C-61.96711667 94.61482019 -64.54773263 96.80513394 -67.125 99 C-67.7754126 99.54237305 -68.4258252 100.08474609 -69.09594727 100.64355469 C-73.82374909 104.6751747 -77.36902459 108.41957376 -79.375 114.4375 C-79.46067246 115.80342183 -79.49273647 117.17314858 -79.48852539 118.54174805 C-79.48844986 119.36237228 -79.48837433 120.18299652 -79.48829651 121.02848816 C-79.48313522 121.90982925 -79.47797394 122.79117035 -79.47265625 123.69921875 C-79.4712413 124.60501175 -79.46982635 125.51080475 -79.46836853 126.44404602 C-79.46277001 129.33773091 -79.45021781 132.23133849 -79.4375 135.125 C-79.43248481 137.08658742 -79.42792193 139.04817606 -79.42382812 141.00976562 C-79.41365187 145.81906418 -79.39407613 150.62819553 -79.375 155.4375 C-67.825 155.4375 -56.275 155.4375 -44.375 155.4375 C-44.045 152.1375 -43.715 148.8375 -43.375 145.4375 C-41.80107117 142.81492615 -41.80107117 142.81492615 -39.74487305 140.86499023 C-38.5931385 139.73848305 -38.5931385 139.73848305 -37.4181366 138.58921814 C-36.58276871 137.81598709 -35.74740082 137.04275604 -34.88671875 136.24609375 C-34.03197464 135.41594254 -33.17723053 134.58579132 -32.29658508 133.73048401 C-29.5724896 131.08953857 -26.82039077 128.48059833 -24.0625 125.875 C-21.31892062 123.26258392 -18.58254133 120.64371283 -15.86054993 118.00880432 C-14.1699499 116.37422774 -12.4665558 114.75274654 -10.748703 113.14683533 C-4.80892346 107.43192879 -0.41516817 101.85133501 0.04199219 93.35913086 C0.02331566 91.89394039 -0.01817358 90.42892631 -0.078125 88.96484375 C-0.09514465 88.12936508 -0.11216431 87.29388641 -0.12969971 86.43309021 C-0.17104948 84.52197238 -0.22195365 82.61104622 -0.28051758 80.70037842 C-0.38563739 77.0701459 -0.45146446 73.4402993 -0.51367188 69.80908203 C-0.62643748 63.41545002 -0.77622877 57.02341101 -0.95012665 50.63115883 C-1.05087856 46.91661038 -1.14388463 43.20222939 -1.21875 39.48706055 C-1.2925171 35.83244639 -1.38508222 32.17876173 -1.49112701 28.52494621 C-1.52797839 27.147653 -1.55828045 25.77016731 -1.58168793 24.39258003 C-1.6154996 22.47949587 -1.67583887 20.56693643 -1.73730469 18.65454102 C-1.76395203 17.57125015 -1.79059937 16.48795929 -1.8180542 15.37184143 C-2.50354031 11.76026866 -3.83949478 10.05613384 -6.375 7.4375 C-10.04785399 5.74233662 -10.85929014 6.02972941 -14.0625 8.5625 Z M-93.375 163.4375 C-94.74752731 166.18255463 -94.50729255 168.44077412 -94.5 171.5 C-94.50257813 172.58410156 -94.50515625 173.66820312 -94.5078125 174.78515625 C-94.67618564 177.35993398 -94.67618564 177.35993398 -93.375 178.4375 C-91.3806827 178.53155142 -89.38300457 178.55493249 -87.38647461 178.55102539 C-85.46459572 178.55091209 -85.46459572 178.55091209 -83.50389099 178.55079651 C-82.09504152 178.54568909 -80.68619244 178.54047309 -79.27734375 178.53515625 C-77.84387766 178.53329202 -76.41041093 178.53186814 -74.97694397 178.53086853 C-71.19740043 178.52704372 -67.4178951 178.51721377 -63.6383667 178.50616455 C-59.78430702 178.49594963 -55.93024118 178.49137074 -52.07617188 178.48632812 C-44.50909512 178.47559145 -36.94205777 178.45799497 -29.375 178.4375 C-29.375 173.8175 -29.375 169.1975 -29.375 164.4375 C-35.75719071 164.29265158 -42.13943186 164.15035659 -48.52172852 164.01025391 C-50.68515495 163.96242387 -52.84856705 163.91394044 -55.01196289 163.86474609 C-67.80190109 163.57440235 -80.58157667 163.35873758 -93.375 163.4375 Z " fill="#1D9EED" transform="translate(244.375,60.5625)"/>
<path d="M0 0 C1.07596436 0.46688232 2.15192871 0.93376465 3.26049805 1.41479492 C4.41590088 1.92373291 5.57130371 2.4326709 6.76171875 2.95703125 C8.60820221 3.76045733 10.45470046 4.56385032 12.30177307 5.36592102 C13.60649439 5.93261858 14.91088047 6.50008852 16.21495056 7.06828308 C21.32861688 9.29364243 26.45927986 11.47689988 31.59765625 13.64453125 C32.35332382 13.96351883 33.10899139 14.28250641 33.88755798 14.61116028 C36.88001446 15.87384315 39.87275065 17.13584412 42.86685181 18.3946228 C44.95121128 19.27134916 47.03430529 20.15102105 49.1171875 21.03125 C50.31625732 21.53615967 51.51532715 22.04106934 52.75073242 22.5612793 C55.44921875 23.76953125 55.44921875 23.76953125 56.44921875 24.76953125 C56.5642539 26.67851843 56.60889328 28.59177885 56.6262207 30.50415039 C56.64547356 32.34856468 56.64547356 32.34856468 56.66511536 34.23023987 C56.67329357 35.58838495 56.68073521 36.94653464 56.6875 38.3046875 C56.69157553 38.98988401 56.69565105 39.67508053 56.69985008 40.38104057 C56.72076697 44.02396215 56.73503113 47.66684571 56.74438477 51.30981445 C56.75316662 54.29798268 56.77384291 57.28567396 56.8059082 60.27368164 C57.07299684 85.71161243 55.89797026 107.47671011 38.44921875 127.76953125 C37.67578125 128.74019531 36.90234375 129.71085938 36.10546875 130.7109375 C25.97069221 142.84143855 9.03335333 151.69740255 -6.55078125 153.76953125 C-23.55883959 154.55831077 -40.20387055 144.76563131 -52.47265625 133.75 C-65.96384284 121.05314653 -74.26246223 103.27781718 -75.89587402 84.88330078 C-76.00756309 80.98456454 -76.00252286 77.10680764 -75.94140625 73.20703125 C-75.93391476 71.79501155 -75.92823567 70.38298122 -75.92425537 68.97094727 C-75.90922683 65.31463181 -75.87015324 61.65898642 -75.82543945 58.00292969 C-75.78398407 54.24813901 -75.76613888 50.49323645 -75.74609375 46.73828125 C-75.70362727 39.41506424 -75.6356667 32.09239279 -75.55078125 24.76953125 C-63.41120588 19.00636347 -51.1450893 13.55420095 -38.8137207 8.21435547 C-36.5779632 7.2429721 -34.34491854 6.26532311 -32.11450195 5.28173828 C-28.85848744 3.84648234 -25.5945141 2.43098785 -22.328125 1.01953125 C-21.33433334 0.57697998 -20.34054169 0.13442871 -19.31663513 -0.3215332 C-11.70900584 -3.56909449 -7.591102 -3.32779521 0 0 Z M-16.83837891 8.86499023 C-17.89272125 9.32223984 -18.9470636 9.77948944 -20.03335571 10.25059509 C-21.16574677 10.75055496 -22.29813782 11.25051483 -23.46484375 11.765625 C-24.63083099 12.27376236 -25.79681824 12.78189972 -26.99813843 13.30543518 C-30.09365646 14.65611837 -33.18624716 16.01311581 -36.27764893 17.37316895 C-39.42614685 18.75632527 -42.57852559 20.13057722 -45.73046875 21.50585938 C-56.22301086 25.95951117 -56.22301086 25.95951117 -66.55078125 30.76953125 C-66.62740283 38.50668937 -66.67961924 46.24374814 -66.71557617 53.98120117 C-66.73058019 56.60851701 -66.75098989 59.23580816 -66.77709961 61.86303711 C-66.81385327 65.65875375 -66.83059219 69.45413669 -66.84375 73.25 C-66.85923386 74.40783493 -66.87471771 75.56566986 -66.89067078 76.7585907 C-66.89286803 87.62088118 -65.07250077 98.11864618 -60.05078125 107.83203125 C-59.71183838 108.49831543 -59.37289551 109.16459961 -59.02368164 109.85107422 C-55.26566201 116.85721034 -50.23987792 122.28793963 -44.55078125 127.76953125 C-43.99132812 128.35992187 -43.431875 128.9503125 -42.85546875 129.55859375 C-35.14147956 137.11103342 -21.19380033 143.60726708 -10.55078125 144.76953125 C5.28389087 144.11913397 20.38979324 133.67381743 30.94140625 122.65625 C43.4575161 108.24907682 47.80899164 92.23641887 47.64453125 73.54296875 C47.64170135 72.31413971 47.63887146 71.08531067 47.63595581 69.81924438 C47.62483772 65.92757067 47.59974851 62.0361344 47.57421875 58.14453125 C47.56417814 55.49219084 47.55505419 52.8398468 47.546875 50.1875 C47.52492582 43.71476391 47.49153232 37.24216455 47.44921875 30.76953125 C38.45814952 26.74914071 29.46107285 22.74312243 20.44921875 18.76953125 C19.79471741 18.48094238 19.14021606 18.19235352 18.46588135 17.89501953 C14.60143813 16.19311516 10.73277936 14.50134252 6.85852051 12.82189941 C5.03346597 12.02897962 3.21153348 11.22888639 1.38964844 10.42871094 C0.2762207 9.94821289 -0.83720703 9.46771484 -1.984375 8.97265625 C-2.96462646 8.54629883 -3.94487793 8.11994141 -4.95483398 7.68066406 C-9.5716431 6.06024352 -12.54858288 6.98737984 -16.83837891 8.86499023 Z " fill="#1E9CED" transform="translate(137.55078125,13.23046875)"/>
<path d="M0 0 C1.14984375 -0.00386719 2.2996875 -0.00773437 3.484375 -0.01171875 C4.68578125 -0.00011719 5.8871875 0.01148438 7.125 0.0234375 C8.32640625 0.01183594 9.5278125 0.00023437 10.765625 -0.01171875 C12.49039063 -0.00591797 12.49039063 -0.00591797 14.25 0 C15.30445313 0.00338379 16.35890625 0.00676758 17.4453125 0.01025391 C20.125 0.3984375 20.125 0.3984375 21.97387695 1.60424805 C23.52299336 4.01876691 23.46751523 5.64672611 23.41796875 8.50390625 C23.4034668 9.97827148 23.4034668 9.97827148 23.38867188 11.48242188 C23.36353516 12.50658203 23.33839844 13.53074219 23.3125 14.5859375 C23.29219727 16.13958008 23.29219727 16.13958008 23.27148438 17.72460938 C23.23611389 20.28307449 23.18675544 22.8404953 23.125 25.3984375 C24.1622522 25.39058228 24.1622522 25.39058228 25.22045898 25.38256836 C28.33446352 25.3618625 31.44845361 25.34879787 34.5625 25.3359375 C35.65111328 25.32755859 36.73972656 25.31917969 37.86132812 25.31054688 C38.89580078 25.30732422 39.93027344 25.30410156 40.99609375 25.30078125 C41.95443115 25.29554443 42.91276855 25.29030762 43.90014648 25.28491211 C46.125 25.3984375 46.125 25.3984375 47.125 26.3984375 C47.22503289 28.53196924 47.25581048 30.66881292 47.2578125 32.8046875 C47.25910156 34.10535156 47.26039063 35.40601563 47.26171875 36.74609375 C47.25962402 37.42687988 47.2575293 38.10766602 47.25537109 38.80908203 C47.2500224 40.88972265 47.2553168 42.97014739 47.26171875 45.05078125 C47.26042969 46.35144531 47.25914062 47.65210938 47.2578125 48.9921875 C47.25668457 50.19552734 47.25555664 51.39886719 47.25439453 52.63867188 C47.125 55.3984375 47.125 55.3984375 46.125 56.3984375 C44.41727642 56.48557581 42.70601351 56.50543757 40.99609375 56.49609375 C39.96162109 56.49287109 38.92714844 56.48964844 37.86132812 56.48632812 C36.77271484 56.47794922 35.68410156 56.46957031 34.5625 56.4609375 C32.9237793 56.45416992 32.9237793 56.45416992 31.25195312 56.44726562 C28.54291505 56.43543576 25.83398401 56.41895293 23.125 56.3984375 C23.14071045 57.42783447 23.14071045 57.42783447 23.15673828 58.47802734 C23.19821874 61.57646039 23.22430069 64.67483511 23.25 67.7734375 C23.26675781 68.85367188 23.28351563 69.93390625 23.30078125 71.046875 C23.31044922 72.59375 23.31044922 72.59375 23.3203125 74.171875 C23.33602295 75.60152588 23.33602295 75.60152588 23.35205078 77.06005859 C23.125 79.3984375 23.125 79.3984375 21.125 81.3984375 C18.359375 81.65722656 18.359375 81.65722656 14.875 81.6640625 C13.00328125 81.66792969 13.00328125 81.66792969 11.09375 81.671875 C9.12921875 81.66027344 9.12921875 81.66027344 7.125 81.6484375 C5.8153125 81.65617187 4.505625 81.66390625 3.15625 81.671875 C1.9084375 81.66929687 0.660625 81.66671875 -0.625 81.6640625 C-1.77484375 81.66180664 -2.9246875 81.65955078 -4.109375 81.65722656 C-6.875 81.3984375 -6.875 81.3984375 -8.875 79.3984375 C-9.10205078 77.06005859 -9.10205078 77.06005859 -9.0703125 74.171875 C-9.06386719 73.140625 -9.05742188 72.109375 -9.05078125 71.046875 C-9.03402344 69.96664062 -9.01726562 68.88640625 -9 67.7734375 C-8.99097656 66.68546875 -8.98195313 65.5975 -8.97265625 64.4765625 C-8.94903409 61.78363598 -8.91609556 59.09114495 -8.875 56.3984375 C-9.56650146 56.40367432 -10.25800293 56.40891113 -10.97045898 56.41430664 C-14.08446352 56.4350125 -17.19845361 56.44807713 -20.3125 56.4609375 C-21.40111328 56.46931641 -22.48972656 56.47769531 -23.61132812 56.48632812 C-24.64580078 56.48955078 -25.68027344 56.49277344 -26.74609375 56.49609375 C-27.70443115 56.50133057 -28.66276855 56.50656738 -29.65014648 56.51196289 C-31.875 56.3984375 -31.875 56.3984375 -32.875 55.3984375 C-32.97503289 53.26490576 -33.00581048 51.12806208 -33.0078125 48.9921875 C-33.00910156 47.69152344 -33.01039062 46.39085937 -33.01171875 45.05078125 C-33.00962402 44.36999512 -33.0075293 43.68920898 -33.00537109 42.98779297 C-33.0000224 40.90715235 -33.0053168 38.82672761 -33.01171875 36.74609375 C-33.01042969 35.44542969 -33.00914063 34.14476562 -33.0078125 32.8046875 C-33.00668457 31.60134766 -33.00555664 30.39800781 -33.00439453 29.15820312 C-32.875 26.3984375 -32.875 26.3984375 -31.875 25.3984375 C-30.16727642 25.31129919 -28.45601351 25.29143743 -26.74609375 25.30078125 C-25.19438477 25.30561523 -25.19438477 25.30561523 -23.61132812 25.31054688 C-22.52271484 25.31892578 -21.43410156 25.32730469 -20.3125 25.3359375 C-18.6737793 25.34270508 -18.6737793 25.34270508 -17.00195312 25.34960938 C-14.29291505 25.36143924 -11.58398401 25.37792207 -8.875 25.3984375 C-8.89071045 24.74770264 -8.9064209 24.09696777 -8.92260742 23.42651367 C-8.98494649 20.47974326 -9.02398684 17.53311152 -9.0625 14.5859375 C-9.08763672 13.56177734 -9.11277344 12.53761719 -9.13867188 11.48242188 C-9.14833984 10.49951172 -9.15800781 9.51660156 -9.16796875 8.50390625 C-9.1836792 7.59793701 -9.19938965 6.69196777 -9.21557617 5.75854492 C-8.875 3.3984375 -8.875 3.3984375 -7.72387695 1.60424805 C-5.10192107 -0.10575329 -3.11510782 0.00999653 0 0 Z M0.125 9.3984375 C-0.205 16.9884375 -0.535 24.5784375 -0.875 32.3984375 C-3.28041929 33.60114714 -4.97866591 33.60160413 -7.6640625 33.71484375 C-8.60507813 33.75673828 -9.54609375 33.79863281 -10.515625 33.84179688 C-11.50046875 33.88111328 -12.4853125 33.92042969 -13.5 33.9609375 C-14.49257812 34.00412109 -15.48515625 34.04730469 -16.5078125 34.09179688 C-18.96337033 34.19804697 -21.41916651 34.29876205 -23.875 34.3984375 C-23.875 38.6884375 -23.875 42.9784375 -23.875 47.3984375 C-21.63589844 47.48931641 -21.63589844 47.48931641 -19.3515625 47.58203125 C-17.40103138 47.66642923 -15.45051108 47.7510776 -13.5 47.8359375 C-12.02273437 47.89491211 -12.02273437 47.89491211 -10.515625 47.95507812 C-9.57460937 47.99697266 -8.63359375 48.03886719 -7.6640625 48.08203125 C-6.79475098 48.11868896 -5.92543945 48.15534668 -5.02978516 48.19311523 C-2.875 48.3984375 -2.875 48.3984375 -0.875 49.3984375 C-0.545 56.9884375 -0.215 64.5784375 0.125 72.3984375 C4.745 72.3984375 9.365 72.3984375 14.125 72.3984375 C14.455 64.8084375 14.785 57.2184375 15.125 49.3984375 C17.53041929 48.19572786 19.22866591 48.19527087 21.9140625 48.08203125 C22.85507813 48.04013672 23.79609375 47.99824219 24.765625 47.95507812 C25.75046875 47.91576172 26.7353125 47.87644531 27.75 47.8359375 C28.74257812 47.79275391 29.73515625 47.74957031 30.7578125 47.70507812 C33.21337033 47.59882803 35.66916651 47.49811295 38.125 47.3984375 C38.125 43.1084375 38.125 38.8184375 38.125 34.3984375 C35.88589844 34.30755859 35.88589844 34.30755859 33.6015625 34.21484375 C31.65103138 34.13044577 29.70051108 34.0457974 27.75 33.9609375 C26.76515625 33.92162109 25.7803125 33.88230469 24.765625 33.84179688 C23.35410156 33.77895508 23.35410156 33.77895508 21.9140625 33.71484375 C21.04475098 33.67818604 20.17543945 33.64152832 19.27978516 33.60375977 C17.125 33.3984375 17.125 33.3984375 15.125 32.3984375 C14.795 24.8084375 14.465 17.2184375 14.125 9.3984375 C9.505 9.3984375 4.885 9.3984375 0.125 9.3984375 Z " fill="#1F9AEC" transform="translate(120.875,47.6015625)"/>
<path d="M0 0 C2.375 0.75 2.375 0.75 3.375 1.75 C3.44819621 4.44654854 3.46742537 7.11691458 3.4375 9.8125 C3.43298828 10.57111328 3.42847656 11.32972656 3.42382812 12.11132812 C3.4120068 13.99091871 3.39407078 15.87046899 3.375 17.75 C1.125 18.9375 1.125 18.9375 -1.625 19.75 C-3.91015625 18.8125 -3.91015625 18.8125 -5.625 16.75 C-6.12109375 13.5 -6.12109375 13.5 -6.0625 9.75 C-6.06121094 8.5125 -6.05992188 7.275 -6.05859375 6 C-5.625 2.75 -5.625 2.75 -4.26171875 0.796875 C-2.625 -0.25 -2.625 -0.25 0 0 Z " fill="#18ACEF" transform="translate(41.625,35.25)"/>
<path d="M0 0 C1.9375 0.75 1.9375 0.75 3.9375 2.75 C4.2734375 5.90234375 4.2734375 5.90234375 4.3125 9.6875 C4.34085938 10.93402344 4.36921875 12.18054688 4.3984375 13.46484375 C3.9375 16.75 3.9375 16.75 2.2265625 18.81640625 C-0.0625 19.75 -0.0625 19.75 -2.8125 18.9375 C-3.555 18.545625 -4.2975 18.15375 -5.0625 17.75 C-5.14324203 15.12438891 -5.2028623 12.50124324 -5.25 9.875 C-5.27513672 9.12863281 -5.30027344 8.38226563 -5.32617188 7.61328125 C-5.35546875 5.4453125 -5.35546875 5.4453125 -5.0625 1.75 C-2.0625 -0.25 -2.0625 -0.25 0 0 Z " fill="#2881E9" transform="translate(217.0625,35.25)"/>
<path d="M0 0 C1.48831242 0.00667405 2.97660807 0.01863442 4.46484375 0.03515625 C5.22345703 0.03966797 5.98207031 0.04417969 6.76367188 0.04882812 C8.64326246 0.06064945 10.52281274 0.07858547 12.40234375 0.09765625 C13.58984375 2.34765625 13.58984375 2.34765625 14.40234375 5.09765625 C13.46484375 7.3828125 13.46484375 7.3828125 11.40234375 9.09765625 C8.15234375 9.59375 8.15234375 9.59375 4.40234375 9.53515625 C3.16484375 9.53386719 1.92734375 9.53257813 0.65234375 9.53125 C-2.59765625 9.09765625 -2.59765625 9.09765625 -4.55078125 7.734375 C-5.59765625 6.09765625 -5.59765625 6.09765625 -5.34765625 3.47265625 C-4.16933235 -0.25870278 -4.19216364 0.1137938 0 0 Z " fill="#17ADEF" transform="translate(22.59765625,26.90234375)"/>
<path d="M0 0 C2.5 0.25 2.5 0.25 4.5 2.25 C4.69849071 4.79535141 4.77851775 7.20716759 4.75 9.75 C4.75773437 10.43964844 4.76546875 11.12929688 4.7734375 11.83984375 C4.75333293 16.99666707 4.75333293 16.99666707 2.5 19.25 C0 19.5 0 19.5 -2.5 19.25 C-4.99210439 16.75789561 -4.76015661 15.24639212 -4.7734375 11.83984375 C-4.76570313 11.15019531 -4.75796875 10.46054687 -4.75 9.75 C-4.75773437 9.06035156 -4.76546875 8.37070312 -4.7734375 7.66015625 C-4.74542341 0.47454234 -4.74542341 0.47454234 0 0 Z " fill="#1CA1ED" transform="translate(40.5,7.75)"/>
<path d="M0 0 C5.28 0 10.56 0 16 0 C18 5 18 5 17.0625 7.28125 C14.073643 9.77196417 11.84153319 9.53201278 8 9.5 C6.7625 9.5103125 5.525 9.520625 4.25 9.53125 C1 9 1 9 -1.0625 7.28125 C-2 5 -2 5 0 0 Z " fill="#2880E8" transform="translate(222,27)"/>
<path d="M0 0 C1.03447266 0.01160156 1.03447266 0.01160156 2.08984375 0.0234375 C2.77949219 0.01570313 3.46914062 0.00796875 4.1796875 0 C9.33651082 0.02010457 9.33651082 0.02010457 11.58984375 2.2734375 C11.90234375 4.7734375 11.90234375 4.7734375 11.58984375 7.2734375 C8.01862657 9.65424895 6.32309742 9.54250621 2.08984375 9.5234375 C0.94515625 9.52859375 -0.19953125 9.53375 -1.37890625 9.5390625 C-4.41015625 9.2734375 -4.41015625 9.2734375 -7.41015625 7.2734375 C-7.72265625 4.7734375 -7.72265625 4.7734375 -7.41015625 2.2734375 C-4.91805186 -0.21866689 -3.40654837 0.01328089 0 0 Z " fill="#2880E8" transform="translate(200.41015625,26.7265625)"/>
<path d="M0 0 C1.03447266 0.01160156 1.03447266 0.01160156 2.08984375 0.0234375 C2.77949219 0.01570313 3.46914063 0.00796875 4.1796875 0 C9.33651082 0.02010457 9.33651082 0.02010457 11.58984375 2.2734375 C11.90234375 4.7734375 11.90234375 4.7734375 11.58984375 7.2734375 C8.01862657 9.65424895 6.32309742 9.54250621 2.08984375 9.5234375 C0.94515625 9.52859375 -0.19953125 9.53375 -1.37890625 9.5390625 C-4.41015625 9.2734375 -4.41015625 9.2734375 -7.41015625 7.2734375 C-7.72265625 4.7734375 -7.72265625 4.7734375 -7.41015625 2.2734375 C-4.91805186 -0.21866689 -3.40654837 0.01328089 0 0 Z " fill="#1CA2ED" transform="translate(52.41015625,26.7265625)"/>
<path d="M0 0 C1.2375 0.1546875 1.2375 0.1546875 2.5 0.3125 C4.88081145 3.88371718 4.76906871 5.57924633 4.75 9.8125 C4.75515625 10.9571875 4.7603125 12.101875 4.765625 13.28125 C4.5 16.3125 4.5 16.3125 2.5 19.3125 C0 19.625 0 19.625 -2.5 19.3125 C-4.99210439 16.82039561 -4.76015661 15.30889212 -4.7734375 11.90234375 C-4.76570312 11.21269531 -4.75796875 10.52304687 -4.75 9.8125 C-4.75773438 9.12285156 -4.76546875 8.43320312 -4.7734375 7.72265625 C-4.74564237 0.5932053 -4.74564237 0.5932053 0 0 Z " fill="#2980E9" transform="translate(216.5,7.6875)"/>
<path d="M0 0 C0.99 0.103125 1.98 0.20625 3 0.3125 C5 3.3125 5 3.3125 4.75 5.875 C4 8.3125 4 8.3125 2 10.3125 C-3.56818182 9.74431818 -3.56818182 9.74431818 -5 8.3125 C-5.1875 5.375 -5.1875 5.375 -5 2.3125 C-3 0.3125 -3 0.3125 0 0 Z " fill="#10C2F3" transform="translate(158,226.6875)"/>
<path d="M0 0 C3.0625 0.1875 3.0625 0.1875 5.0625 2.1875 C5.375 5.1875 5.375 5.1875 5.0625 8.1875 C2.0625 10.1875 2.0625 10.1875 -0.5 9.9375 C-2.9375 9.1875 -2.9375 9.1875 -4.9375 7.1875 C-4.23164336 0.2701049 -4.23164336 0.2701049 0 0 Z " fill="#0FC4F6" transform="translate(97.9375,226.8125)"/>
</svg>
