<?xml version="1.0" encoding="UTF-8"?>
<svg version="1.1" xmlns="http://www.w3.org/2000/svg" width="512" height="512">
<path d="M0 0 C1.06276563 -0.00935994 2.12553125 -0.01871989 3.2205019 -0.02836347 C6.77601079 -0.05226563 10.32997815 -0.03335058 13.88549805 -0.01446533 C16.43672586 -0.02259674 18.98794663 -0.03328049 21.53915405 -0.04632568 C27.74576343 -0.07084484 33.95180347 -0.06725644 40.15842032 -0.04984984 C45.20351974 -0.0362877 50.24849719 -0.03446688 55.29360962 -0.04099274 C56.01223405 -0.04191214 56.73085848 -0.04283153 57.47125942 -0.04377879 C58.93122859 -0.04569719 60.39119774 -0.04764247 61.85116684 -0.04961434 C75.5345176 -0.06671495 89.21762699 -0.04706541 102.90093815 -0.01481214 C114.63647219 0.01199379 126.37165012 0.00733739 138.10717773 -0.02032471 C151.74225189 -0.05244932 165.37711462 -0.06506707 179.01222134 -0.04665112 C180.46675552 -0.04473987 181.92128973 -0.04285365 183.37582397 -0.04099274 C184.09144275 -0.04006708 184.80706152 -0.03914143 185.5443657 -0.03818773 C190.58216995 -0.03301178 195.61983985 -0.04174147 200.65762329 -0.05587006 C207.44089821 -0.07447612 214.22339732 -0.06118957 221.00664139 -0.02650452 C223.49670926 -0.01856805 225.98683372 -0.02085456 228.47687912 -0.03408051 C231.87516265 -0.05046699 235.27128778 -0.029928 238.66943359 0 C239.65591542 -0.01338433 240.64239725 -0.02676866 241.65877247 -0.04055858 C247.48342578 0.05900989 250.73395118 1.04674716 255.02201557 5.05428195 C257.50885492 8.28927274 258.17852873 11.95353767 258.9597168 15.88690186 C259.35460542 17.58886205 259.7556534 19.28940487 260.1628418 20.98846436 C260.3568457 21.80863037 260.55084961 22.62879639 260.75073242 23.47381592 C265.81443144 43.31369352 280.57287594 60.03932371 297.5222168 70.88690186 C310.95783841 78.83605153 324.75022316 83.129582 340.0222168 85.76190186 C344.02663849 86.52913559 346.47628512 87.7248182 349.3347168 90.76190186 C351.04554695 93.6373432 351.58617561 95.74058404 351.59541321 99.07194519 C351.60249802 99.92743454 351.60958282 100.78292389 351.61688232 101.66433716 C351.61440491 102.59557404 351.61192749 103.52681091 351.609375 104.48626709 C351.6170414 105.96808723 351.6170414 105.96808723 351.62486267 107.47984314 C351.63880171 110.76012183 351.63779498 114.0401907 351.63549805 117.32049561 C351.63938999 119.62185238 351.64372569 121.92320845 351.64848328 124.2245636 C351.65596005 129.06930859 351.65564902 133.91398079 351.65039062 138.75872803 C351.64579952 143.6745122 351.65251517 148.59004673 351.67089844 153.50579834 C351.91777791 220.04030692 342.8132397 281.21676005 311.3347168 340.76190186 C310.97474609 341.44993896 310.61477539 342.13797607 310.24389648 342.84686279 C295.56806158 370.72211585 276.49585429 395.5494296 255.3347168 418.76190186 C254.07401367 420.17922607 254.07401367 420.17922607 252.7878418 421.62518311 C246.50846363 428.64918331 239.85419397 435.10664788 232.84545898 441.39959717 C231.4797372 442.63113039 230.12894793 443.87917393 228.7800293 445.12908936 C205.99039492 466.12544103 179.54401884 483.19349644 152.45825195 498.04754639 C150.31072867 499.22621674 148.16738572 500.41252563 146.02758789 501.60516357 C142.70456122 503.45139654 139.36621091 505.26647413 136.0222168 507.07440186 C135.00321289 507.64400635 133.98420898 508.21361084 132.93432617 508.80047607 C126.67153986 512.12900044 121.42932875 514.45205367 114.3347168 512.76190186 C109.10139687 510.67419104 104.21160454 508.08495593 99.2722168 505.38690186 C97.87436075 504.6408669 96.47583627 503.89608311 95.07666016 503.15252686 C91.1454455 501.05323843 87.23734959 498.91374273 83.3347168 496.76190186 C82.44171875 496.2730249 81.5487207 495.78414795 80.62866211 495.28045654 C63.07815043 485.5892905 46.06055383 474.18632118 30.3347168 461.76190186 C29.1281543 460.82410889 29.1281543 460.82410889 27.8972168 459.86737061 C9.78104654 445.61249946 -7.41711922 430.0662338 -22.6652832 412.76190186 C-23.15303223 412.21356689 -23.64078125 411.66523193 -24.14331055 411.10028076 C-46.5293626 385.86231698 -65.23817183 357.24510624 -79.6652832 326.76190186 C-80.01800293 326.02455811 -80.37072266 325.28721436 -80.73413086 324.52752686 C-102.89659863 277.91497886 -113.00190741 227.98628742 -112.96606445 176.57830811 C-112.96996208 174.21990383 -112.9742989 171.86150024 -112.97904968 169.50309753 C-112.98644386 164.60618794 -112.98626647 159.70935058 -112.98095703 154.81243896 C-112.97511034 148.53801926 -112.99225042 142.26388978 -113.0153017 135.98951817 C-113.03000751 131.13999202 -113.03091609 126.29053684 -113.02779198 121.44099236 C-113.02830478 119.12572584 -113.03353478 116.81045532 -113.0436039 114.49521065 C-113.05591642 111.27474762 -113.04921233 108.05486507 -113.03759766 104.83441162 C-113.04524139 103.88327988 -113.05288513 102.93214813 -113.0607605 101.95219421 C-113.02170036 97.06134888 -112.85992665 93.72764294 -109.6652832 89.76190186 C-106.84576277 87.15603135 -104.51689117 86.27407066 -100.77075195 85.58612061 C-99.82240479 85.40130127 -98.87405762 85.21648193 -97.89697266 85.02606201 C-96.89239014 84.83576416 -95.88780762 84.64546631 -94.8527832 84.44940186 C-76.17341747 80.63276411 -60.12854692 73.45902446 -45.6652832 60.76190186 C-44.90473633 60.09674561 -44.14418945 59.43158936 -43.3605957 58.74627686 C-32.60344509 48.69634376 -24.88869619 35.30566623 -21.5012207 21.00018311 C-21.29851562 20.15737793 -21.09581055 19.31457275 -20.88696289 18.44622803 C-20.49892387 16.78182008 -20.13612703 15.11125535 -19.80297852 13.43499756 C-18.62339326 8.2584661 -16.95584399 5.33606012 -12.82157326 1.99649191 C-8.75421802 -0.33228399 -4.58192655 -0.06216639 0 0 Z " fill="#35B69D" transform="translate(136.665283203125,-0.76190185546875)"/>
<path d="M0 0 C1.06276563 -0.00935994 2.12553125 -0.01871989 3.2205019 -0.02836347 C6.77601079 -0.05226563 10.32997815 -0.03335058 13.88549805 -0.01446533 C16.43672586 -0.02259674 18.98794663 -0.03328049 21.53915405 -0.04632568 C27.74576343 -0.07084484 33.95180347 -0.06725644 40.15842032 -0.04984984 C45.20351974 -0.0362877 50.24849719 -0.03446688 55.29360962 -0.04099274 C56.01223405 -0.04191214 56.73085848 -0.04283153 57.47125942 -0.04377879 C58.93122859 -0.04569719 60.39119774 -0.04764247 61.85116684 -0.04961434 C75.5345176 -0.06671495 89.21762699 -0.04706541 102.90093815 -0.01481214 C114.63647219 0.01199379 126.37165012 0.00733739 138.10717773 -0.02032471 C151.74225189 -0.05244932 165.37711462 -0.06506707 179.01222134 -0.04665112 C180.46675552 -0.04473987 181.92128973 -0.04285365 183.37582397 -0.04099274 C184.09144275 -0.04006708 184.80706152 -0.03914143 185.5443657 -0.03818773 C190.58216995 -0.03301178 195.61983985 -0.04174147 200.65762329 -0.05587006 C207.44089821 -0.07447612 214.22339732 -0.06118957 221.00664139 -0.02650452 C223.49670926 -0.01856805 225.98683372 -0.02085456 228.47687912 -0.03408051 C231.87516265 -0.05046699 235.27128778 -0.029928 238.66943359 0 C239.65591542 -0.01338433 240.64239725 -0.02676866 241.65877247 -0.04055858 C247.48342578 0.05900989 250.73395118 1.04674716 255.02201557 5.05428195 C257.50885492 8.28927274 258.17852873 11.95353767 258.9597168 15.88690186 C259.35460542 17.58886205 259.7556534 19.28940487 260.1628418 20.98846436 C260.3568457 21.80863037 260.55084961 22.62879639 260.75073242 23.47381592 C265.81443144 43.31369352 280.57287594 60.03932371 297.5222168 70.88690186 C310.95783841 78.83605153 324.75022316 83.129582 340.0222168 85.76190186 C344.02663849 86.52913559 346.47628512 87.7248182 349.3347168 90.76190186 C351.04554695 93.6373432 351.58617561 95.74058404 351.59541321 99.07194519 C351.60249802 99.92743454 351.60958282 100.78292389 351.61688232 101.66433716 C351.61440491 102.59557404 351.61192749 103.52681091 351.609375 104.48626709 C351.6170414 105.96808723 351.6170414 105.96808723 351.62486267 107.47984314 C351.63880171 110.76012183 351.63779498 114.0401907 351.63549805 117.32049561 C351.63938999 119.62185238 351.64372569 121.92320845 351.64848328 124.2245636 C351.65596005 129.06930859 351.65564902 133.91398079 351.65039062 138.75872803 C351.64579952 143.6745122 351.65251517 148.59004673 351.67089844 153.50579834 C351.91777791 220.04030692 342.8132397 281.21676005 311.3347168 340.76190186 C310.97474609 341.44993896 310.61477539 342.13797607 310.24389648 342.84686279 C295.56806158 370.72211585 276.49585429 395.5494296 255.3347168 418.76190186 C254.07401367 420.17922607 254.07401367 420.17922607 252.7878418 421.62518311 C246.50846363 428.64918331 239.85419397 435.10664788 232.84545898 441.39959717 C231.4797372 442.63113039 230.12894793 443.87917393 228.7800293 445.12908936 C205.99039492 466.12544103 179.54401884 483.19349644 152.45825195 498.04754639 C150.31072867 499.22621674 148.16738572 500.41252563 146.02758789 501.60516357 C142.70456122 503.45139654 139.36621091 505.26647413 136.0222168 507.07440186 C135.00321289 507.64400635 133.98420898 508.21361084 132.93432617 508.80047607 C126.67153986 512.12900044 121.42932875 514.45205367 114.3347168 512.76190186 C109.10139687 510.67419104 104.21160454 508.08495593 99.2722168 505.38690186 C97.87436075 504.6408669 96.47583627 503.89608311 95.07666016 503.15252686 C91.1454455 501.05323843 87.23734959 498.91374273 83.3347168 496.76190186 C82.44171875 496.2730249 81.5487207 495.78414795 80.62866211 495.28045654 C63.07815043 485.5892905 46.06055383 474.18632118 30.3347168 461.76190186 C29.1281543 460.82410889 29.1281543 460.82410889 27.8972168 459.86737061 C9.78104654 445.61249946 -7.41711922 430.0662338 -22.6652832 412.76190186 C-23.15303223 412.21356689 -23.64078125 411.66523193 -24.14331055 411.10028076 C-46.5293626 385.86231698 -65.23817183 357.24510624 -79.6652832 326.76190186 C-80.01800293 326.02455811 -80.37072266 325.28721436 -80.73413086 324.52752686 C-102.89659863 277.91497886 -113.00190741 227.98628742 -112.96606445 176.57830811 C-112.96996208 174.21990383 -112.9742989 171.86150024 -112.97904968 169.50309753 C-112.98644386 164.60618794 -112.98626647 159.70935058 -112.98095703 154.81243896 C-112.97511034 148.53801926 -112.99225042 142.26388978 -113.0153017 135.98951817 C-113.03000751 131.13999202 -113.03091609 126.29053684 -113.02779198 121.44099236 C-113.02830478 119.12572584 -113.03353478 116.81045532 -113.0436039 114.49521065 C-113.05591642 111.27474762 -113.04921233 108.05486507 -113.03759766 104.83441162 C-113.04524139 103.88327988 -113.05288513 102.93214813 -113.0607605 101.95219421 C-113.02170036 97.06134888 -112.85992665 93.72764294 -109.6652832 89.76190186 C-106.84576277 87.15603135 -104.51689117 86.27407066 -100.77075195 85.58612061 C-99.82240479 85.40130127 -98.87405762 85.21648193 -97.89697266 85.02606201 C-96.89239014 84.83576416 -95.88780762 84.64546631 -94.8527832 84.44940186 C-76.17341747 80.63276411 -60.12854692 73.45902446 -45.6652832 60.76190186 C-44.90473633 60.09674561 -44.14418945 59.43158936 -43.3605957 58.74627686 C-32.60344509 48.69634376 -24.88869619 35.30566623 -21.5012207 21.00018311 C-21.29851562 20.15737793 -21.09581055 19.31457275 -20.88696289 18.44622803 C-20.49892387 16.78182008 -20.13612703 15.11125535 -19.80297852 13.43499756 C-18.62339326 8.2584661 -16.95584399 5.33606012 -12.82157326 1.99649191 C-8.75421802 -0.33228399 -4.58192655 -0.06216639 0 0 Z M12.2175293 42.04315186 C9.94287572 45.32771387 8.08582534 48.73986137 6.2097168 52.26190186 C1.93126125 60.04901171 -2.94859718 66.97320212 -8.6652832 73.76190186 C-9.50704102 74.76865967 -10.34879883 75.77541748 -11.21606445 76.81268311 C-25.08098269 92.88114226 -42.70805288 104.21626598 -62.14477539 112.4052124 C-67.56657725 114.80552515 -71.49890603 117.65365871 -74.6652832 122.76190186 C-75.6971886 126.00892018 -75.8032097 129.02003731 -75.82641602 132.41546631 C-75.8358725 133.55748505 -75.84532898 134.69950378 -75.85507202 135.87612915 C-75.85947296 137.11331696 -75.8638739 138.35050476 -75.8684082 139.62518311 C-75.87546783 140.91232208 -75.88252747 142.19946106 -75.88980103 143.52560425 C-75.90956903 147.70854159 -75.9144957 151.89142232 -75.9152832 156.07440186 C-75.91557777 156.7832616 -75.91587234 157.49212135 -75.91617584 158.2224617 C-75.9233875 189.09125861 -75.9233875 189.09125861 -72.6652832 219.76190186 C-72.46660645 221.0276001 -72.26792969 222.29329834 -72.06323242 223.59735107 C-69.18606834 241.49121556 -64.8013141 258.70350375 -58.6652832 275.76190186 C-58.33238281 276.69212158 -57.99948242 277.62234131 -57.65649414 278.58074951 C-55.44725384 284.69125335 -53.10882767 290.74148651 -50.6652832 296.76190186 C-50.36187012 297.51455322 -50.05845703 298.26720459 -49.74584961 299.04266357 C-39.03644622 325.26423033 -23.40334924 349.74850708 -5.6652832 371.76190186 C-4.58053711 373.13475342 -4.58053711 373.13475342 -3.47387695 374.53533936 C10.58060531 392.08458554 26.60372013 408.92573241 44.3347168 422.76190186 C46.19162426 424.34201993 48.04563156 425.92555052 49.8972168 427.51190186 C64.10754291 439.32948668 79.47379501 449.31980475 95.3347168 458.76190186 C96.16664551 459.26479736 96.99857422 459.76769287 97.85571289 460.28582764 C100.23258115 461.71610115 102.62363639 463.1184142 105.0222168 464.51190186 C105.71573242 464.93044434 106.40924805 465.34898682 107.1237793 465.7802124 C112.33271669 468.7327351 117.29973796 470.24841578 123.3347168 469.76190186 C126.85722076 468.67931873 129.89856713 467.03287971 133.0847168 465.19940186 C133.98085693 464.70561035 134.87699707 464.21181885 135.80029297 463.70306396 C152.11722102 454.56915452 167.63224592 444.30691348 182.3347168 432.76190186 C183.22932617 432.06838623 184.12393555 431.37487061 185.0456543 430.66033936 C194.36861494 423.32869069 203.72012949 415.72708684 211.9362793 407.15643311 C213.3347168 405.76190186 213.3347168 405.76190186 216.2722168 403.44940186 C216.9528418 402.89252686 217.6334668 402.33565186 218.3347168 401.76190186 C218.3347168 401.10190186 218.3347168 400.44190186 218.3347168 399.76190186 C218.9947168 399.76190186 219.6547168 399.76190186 220.3347168 399.76190186 C221.73534407 398.41594615 221.73534407 398.41594615 223.2097168 396.57440186 C225.87142888 393.42874212 228.61279157 390.39712611 231.45483398 387.41326904 C239.08565145 379.35659155 245.74522338 370.67772828 252.3347168 361.76190186 C252.78057129 361.16796631 253.22642578 360.57403076 253.68579102 359.96209717 C271.94541218 335.62997608 285.84493631 308.23750962 296.3347168 279.76190186 C296.66842285 278.85730225 297.00212891 277.95270264 297.34594727 277.02069092 C308.86513642 245.30015879 314.41655809 212.08466813 314.57299805 178.39080811 C314.57707357 177.63793959 314.5811491 176.88507107 314.58534813 176.10938835 C314.60599224 172.14077933 314.62039781 168.17220287 314.62988281 164.20355225 C314.64103742 160.12270499 314.6756009 156.04238944 314.71505451 151.96173191 C314.74120254 148.80037944 314.74957188 145.63915609 314.75316429 142.477705 C314.75801732 140.97264864 314.76959461 139.46759755 314.78820229 137.96264839 C314.81260783 135.86217262 314.81162999 133.76311136 314.8046875 131.66253662 C314.81055374 130.47152847 314.81641998 129.28052032 314.82246399 128.05342102 C314.08641683 123.0862713 311.65446616 120.01554978 308.07299805 116.61346436 C304.70629915 114.33698036 301.23516651 112.76306375 297.5222168 111.13690186 C267.31115817 97.36855109 242.47381914 74.09853996 228.34643555 43.93377686 C225.68633691 39.73960191 222.37071591 36.47918444 217.39020431 35.30249298 C215.23817229 35.12350325 213.13770917 35.09963 210.97850037 35.13371277 C210.16412587 35.12661838 209.34975137 35.11952399 208.51069885 35.11221462 C205.79587027 35.09468455 203.08248291 35.11271322 200.36767578 35.13079834 C198.41580556 35.12565765 196.46393999 35.11837524 194.51208496 35.1091156 C189.2207679 35.09061385 183.92995525 35.10353215 178.63865924 35.1232059 C173.09878635 35.13960137 167.55894517 35.13077835 162.01905823 35.12568665 C152.7173762 35.12116709 143.41589536 35.13702805 134.11425781 35.16497803 C123.36174208 35.19703862 112.60958901 35.19701003 101.8570475 35.17976326 C91.50986208 35.16389836 81.16280956 35.17063092 70.81562996 35.18770027 C66.41342695 35.19457111 62.01133046 35.19353797 57.60912895 35.18615532 C52.42565712 35.17849284 47.24259794 35.19061764 42.05919647 35.21800423 C40.15729306 35.22488913 38.25535112 35.2249849 36.35344887 35.2177887 C33.75648902 35.20909501 31.16080298 35.22504796 28.56394958 35.24723816 C27.43587935 35.23487701 27.43587935 35.23487701 26.28501981 35.22226614 C20.02648628 35.3209246 16.40316268 37.5331705 12.2175293 42.04315186 Z " fill="#E0E5E8" transform="translate(136.665283203125,-0.76190185546875)"/>
<path d="M0 0 C0.83575058 -0.00137466 1.67150116 -0.00274933 2.53257751 -0.00416565 C3.91037636 0.00122726 3.91037636 0.00122726 5.31600952 0.00672913 C6.28190506 0.0065831 7.2478006 0.00643707 8.2429657 0.00628662 C11.44620992 0.00698514 14.64939651 0.01477474 17.85263062 0.02259827 C20.0693763 0.02446266 22.2861224 0.02588646 24.50286865 0.02688599 C30.34560274 0.03070948 36.18831208 0.04053834 42.03103638 0.05158997 C49.03692107 0.06360325 56.04281402 0.06820713 63.04870605 0.07404327 C73.69951063 0.08375017 84.35026089 0.10290793 95.00106812 0.12025452 C95.00106812 14.64025452 95.00106812 29.16025452 95.00106812 44.12025452 C87.08106812 45.11025452 87.08106812 45.11025452 79.00106812 46.12025452 C60.01686639 51.83592816 45.03039045 62.88885169 35.21591187 80.28431702 C27.42973491 96.00971617 27.48938537 111.84105544 27.31356812 128.99525452 C27.28033185 131.24397155 27.24583657 133.49267034 27.21005249 135.74134827 C27.12587864 141.20085833 27.05723363 146.66038818 27.00106812 152.12025452 C26.09397095 152.1421283 26.09397095 152.1421283 25.16854858 152.16444397 C22.40377547 152.2393464 19.64015454 152.33586524 16.87606812 152.43275452 C15.92473999 152.45531311 14.97341187 152.4778717 13.99325562 152.50111389 C7.88557099 152.73439351 3.06523036 153.32538919 -1.64346313 157.62025452 C-4.88467802 161.78288501 -6.1179908 164.57279334 -6.15283203 169.79302979 C-6.1614325 170.75322021 -6.17003296 171.71341064 -6.17889404 172.70269775 C-6.18315399 173.7546785 -6.18741394 174.80665924 -6.19180298 175.89051819 C-6.19998047 176.99976654 -6.20815796 178.10901489 -6.21658325 179.25187683 C-6.24143889 182.93065347 -6.2579543 186.6093915 -6.27236938 190.28822327 C-6.2803549 192.17223563 -6.2803549 192.17223563 -6.28850174 194.09430885 C-6.30973181 199.37438597 -6.32886103 204.65445728 -6.34012413 209.93456554 C-6.35634645 217.4886814 -6.38948544 225.04228155 -6.44652498 232.59620303 C-6.48998789 238.55649359 -6.50587869 244.51666993 -6.51225662 250.47712135 C-6.51897137 253.00764447 -6.53419904 255.53816002 -6.55814743 258.06857872 C-6.58978412 261.61378935 -6.589837 265.1577033 -6.58242798 268.70301819 C-6.59883331 269.74487778 -6.61523865 270.78673737 -6.63214111 271.86016846 C-6.57533023 278.51405701 -5.45992847 283.05767018 -0.99893188 288.12025452 C3.22684618 291.81764948 7.56739685 291.56177734 12.92221069 291.55262756 C13.82482226 291.56290135 14.72743383 291.57317514 15.65739727 291.58376026 C18.5702 291.61357633 21.4826653 291.62317892 24.39559937 291.63197327 C26.19749121 291.64744254 27.99937216 291.66423998 29.80123901 291.68238831 C36.47189515 291.74027095 43.14275422 291.77246041 49.81356812 291.80775452 C72.18138062 291.96244202 72.18138062 291.96244202 95.00106812 292.12025452 C95.00106812 338.65025452 95.00106812 385.18025452 95.00106812 433.12025452 C88.24510799 433.12025452 88.24510799 433.12025452 84.81356812 431.20619202 C84.0437561 430.78225159 83.27394409 430.35831116 82.48080444 429.92152405 C81.66249146 429.4508551 80.84417847 428.98018616 80.00106812 428.49525452 C79.13312622 428.00524963 78.26518433 427.51524475 77.37094116 427.01039124 C60.73305176 417.50175199 44.9809898 407.06605345 30.00106812 395.12025452 C29.08454468 394.40482483 28.16802124 393.68939514 27.22372437 392.95228577 C24.78951829 391.03884987 22.39198547 389.087465 20.00106812 387.12025452 C19.04200562 386.34681702 18.08294312 385.57337952 17.09481812 384.77650452 C9.02859321 378.15023737 1.58184993 370.9152034 -5.81143188 363.55775452 C-6.54310074 362.83385025 -6.54310074 362.83385025 -7.28955078 362.09532166 C-13.99022804 355.45075948 -20.12571189 348.50744055 -25.99893188 341.12025452 C-26.97548441 339.9464125 -27.95538463 338.7753376 -28.94033813 337.60853577 C-42.59462028 321.18400493 -54.12529703 303.03409472 -63.99893188 284.12025452 C-64.67597809 282.85851584 -65.35306055 281.59679662 -66.03018188 280.33509827 C-80.03156554 253.76837031 -89.72141679 224.6202107 -94.99893188 195.12025452 C-95.22854614 193.87018616 -95.22854614 193.87018616 -95.46279907 192.59486389 C-99.50788754 170.28779177 -100.35587431 147.90415974 -100.31460571 125.28041077 C-100.30871515 121.77170261 -100.32604243 118.26350609 -100.34895039 114.75488281 C-100.36722677 111.35581827 -100.36350495 107.95686784 -100.36221313 104.55775452 C-100.37142288 103.30986145 -100.38063263 102.06196838 -100.39012146 100.77626038 C-100.34822654 92.93022578 -100.10846666 87.32444788 -94.43252563 81.47572327 C-90.36130151 78.40194278 -85.69839956 76.49242015 -81.06143188 74.43275452 C-51.19544837 60.63334138 -29.1472537 38.17468566 -13.94815063 9.10853577 C-10.57937527 3.94398036 -6.38083812 -0.00807701 0 0 Z " fill="#4AD094" transform="translate(160.99893188476563,34.87974548339844)"/>
<path d="M0 0 C14.62824588 11.9324192 25.29739753 27.67149408 27.33789062 46.75146484 C27.79796434 55.20092092 27.62241179 63.66914789 27.52539062 72.12646484 C27.51031379 74.42333105 27.49663071 76.72020685 27.484375 79.01708984 C27.45161385 84.59542718 27.40165343 90.17340017 27.33789062 95.75146484 C27.97291504 95.73575439 28.60793945 95.72004395 29.26220703 95.70385742 C32.16234293 95.64117894 35.06233586 95.60237068 37.96289062 95.56396484 C38.96191406 95.53882813 39.9609375 95.51369141 40.99023438 95.48779297 C47.32653418 95.42484959 52.12496793 95.75222822 56.98242188 100.28662109 C60.07964594 104.33683717 61.45992167 106.36989808 61.48506165 111.42460632 C61.4957946 112.9028614 61.4957946 112.9028614 61.50674438 114.41098022 C61.50943329 115.4961795 61.51212219 116.58137878 61.51489258 117.69946289 C61.52146378 118.83943222 61.52803497 119.97940155 61.5348053 121.15391541 C61.55457492 124.94033875 61.56620965 128.72672234 61.57617188 132.51318359 C61.5802474 133.80445475 61.58432293 135.0957259 61.58852196 136.42612648 C61.60724464 142.5562521 61.62180594 148.68635774 61.63013393 154.81650609 C61.63989739 161.88629089 61.6661915 168.95576184 61.70663482 176.0254361 C61.74048104 182.15287993 61.75228298 188.28019227 61.75633812 194.40772438 C61.76121218 197.01162658 61.77284933 199.61552523 61.79137611 202.21936607 C61.8157032 205.86532967 61.81481356 209.51047436 61.80786133 213.15649414 C61.82707642 214.76911133 61.82707642 214.76911133 61.84667969 216.41430664 C61.80278743 222.73285042 61.32784749 226.73890756 57.33789062 231.75146484 C52.37158824 235.13056874 48.68560198 236.33982567 42.64051819 236.27285767 C41.52520372 236.28433431 41.52520372 236.28433431 40.38735765 236.2960428 C37.91232349 236.31657172 35.4382287 236.30874486 32.96313477 236.30078125 C31.18199307 236.30948155 29.40085886 236.31984987 27.61973572 236.33175659 C22.79323606 236.3584933 17.96705003 236.35969899 13.14049077 236.35462999 C9.1071803 236.35248779 5.07393293 236.3622643 1.040636 236.37184083 C-8.47613135 236.39401581 -17.99274081 236.39491439 -27.50952148 236.3828125 C-37.3191671 236.37072983 -47.12823922 236.39536565 -56.937787 236.43795264 C-65.36859378 236.47320473 -73.79921817 236.48518434 -82.23009592 236.47867715 C-87.26174525 236.47505456 -92.29298537 236.48029224 -97.32456779 236.50810623 C-102.05676034 236.5332876 -106.78805979 236.52935351 -111.52023888 236.50328445 C-113.2536118 236.4985591 -114.98704782 236.50400059 -116.72034836 236.5205307 C-132.84296143 236.66316404 -132.84296143 236.66316404 -138.29853725 231.41613579 C-143.19852228 225.43415465 -143.09357033 220.05140834 -143.05029297 212.60888672 C-143.05554993 211.4959877 -143.06080688 210.38308868 -143.06622314 209.23646545 C-143.07940774 205.56423841 -143.07069012 201.89244617 -143.06054688 198.22021484 C-143.06256804 195.66483477 -143.06547984 193.10945525 -143.06924438 190.55407715 C-143.07366567 185.20102916 -143.06752987 179.84813646 -143.05322266 174.49511719 C-143.03689743 168.31590097 -143.04218647 162.13698176 -143.05870187 155.95777273 C-143.07398203 150.00116611 -143.07233189 144.04465137 -143.06355667 138.08802795 C-143.06155609 135.55867979 -143.06400892 133.02932405 -143.07099533 130.49998474 C-143.07861791 126.96446686 -143.06699336 123.42951846 -143.05029297 119.89404297 C-143.05636566 118.84970596 -143.06243835 117.80536896 -143.06869507 116.72938538 C-143.01324044 110.38903968 -142.42032034 105.74161628 -137.94335938 100.88818359 C-137.35554687 100.40994141 -136.76773438 99.93169922 -136.16210938 99.43896484 C-135.28039062 98.70226562 -135.28039062 98.70226562 -134.38085938 97.95068359 C-131.23449913 95.75538224 -128.48507285 95.63132567 -124.77539062 95.65380859 C-123.83759766 95.65703125 -122.89980469 95.66025391 -121.93359375 95.66357422 C-120.46889648 95.67614258 -120.46889648 95.67614258 -118.97460938 95.68896484 C-117.98654297 95.69347656 -116.99847656 95.69798828 -115.98046875 95.70263672 C-113.54095464 95.71442181 -111.10156248 95.73087473 -108.66210938 95.75146484 C-108.66877121 95.18120575 -108.67543304 94.61094666 -108.68229675 94.02340698 C-108.74932239 88.01989453 -108.79418488 82.01649051 -108.8269043 76.01269531 C-108.84187325 73.78022943 -108.86225566 71.54779234 -108.88842773 69.31542969 C-109.23413163 39.04261443 -109.23413163 39.04261443 -102.03710938 25.56396484 C-101.69083496 24.89816406 -101.34456055 24.23236328 -100.98779297 23.54638672 C-91.93166221 6.73885634 -76.57080758 -5.09441101 -58.59960938 -11.24853516 C-39.13408325 -15.70029225 -16.07255664 -12.07330415 0 0 Z " fill="#626A75" transform="translate(296.662109375,91.24853515625)"/>
<path d="M0 0 C3.52019346 -0.1756269 7.03924935 -0.28128466 10.5625 -0.375 C11.55314453 -0.42527344 12.54378906 -0.47554688 13.56445312 -0.52734375 C18.41836502 -0.62409947 22.0849796 -0.54664804 26.05078125 2.453125 C29.6814547 6.14860273 30.6387994 10.15937613 31.625 15.125 C32.01988862 16.82696019 32.42093661 18.52750301 32.828125 20.2265625 C33.02212891 21.04672852 33.21613281 21.86689453 33.41601562 22.71191406 C38.47971465 42.55179166 53.23815914 59.27742185 70.1875 70.125 C83.62312161 78.07414968 97.41550636 82.36768015 112.6875 85 C116.69192169 85.76723374 119.14156832 86.96291634 122 90 C123.71083016 92.87544135 124.25145881 94.97868218 124.26069641 98.31004333 C124.26778122 99.16553268 124.27486603 100.02102203 124.28216553 100.9024353 C124.27968811 101.83367218 124.27721069 102.76490906 124.2746582 103.72436523 C124.27976913 104.71224533 124.28488007 105.70012543 124.29014587 106.71794128 C124.30408492 109.99821998 124.30307818 113.27828884 124.30078125 116.55859375 C124.3046732 118.85995053 124.30900889 121.16130659 124.31376648 123.46266174 C124.32124326 128.30740673 124.32093222 133.15207894 124.31567383 137.99682617 C124.31108272 142.91261034 124.31779837 147.82814488 124.33618164 152.74389648 C124.58306111 219.27840506 115.4785229 280.45485819 84 340 C83.6400293 340.68803711 83.28005859 341.37607422 82.90917969 342.08496094 C68.23334478 369.96021399 49.16113749 394.78752775 28 418 C27.15953125 418.94488281 26.3190625 419.88976562 25.453125 420.86328125 C19.17374684 427.88728146 12.51947718 434.34474602 5.51074219 440.63769531 C4.1450204 441.86922853 2.79423113 443.11727207 1.4453125 444.3671875 C-22.26357858 466.21046092 -49.8269357 483.58057229 -78 499 C-79.1019873 499.60827637 -80.20397461 500.21655273 -81.33935547 500.84326172 C-84.69482806 502.68667959 -88.06342447 504.50339364 -91.4375 506.3125 C-92.47326172 506.88210449 -93.50902344 507.45170898 -94.57617188 508.03857422 C-100.38466472 511.10543562 -104.41390042 512.71434453 -111 512 C-108.83860687 509.64797047 -106.75169881 508.17015455 -103.9296875 506.6875 C-103.12442627 506.25767822 -102.31916504 505.82785645 -101.48950195 505.38500977 C-100.62671631 504.92795654 -99.76393066 504.47090332 -98.875 504 C-61.01764695 483.53499904 -25.33497646 455.4192974 3 423 C3.70817871 422.20094238 3.70817871 422.20094238 4.43066406 421.38574219 C47.77729207 372.44600089 77.19337781 311.84084473 88.75 247.5625 C88.94883789 246.48186279 89.14767578 245.40122559 89.35253906 244.2878418 C92.75874575 224.26688339 93.31601093 203.93951271 93.30078125 183.67578125 C93.30468398 181.46144025 93.30902178 179.24709998 93.31376648 177.03276062 C93.32113203 172.45239803 93.32100345 167.87211272 93.31567383 163.29174805 C93.30981002 157.42897142 93.32702106 151.56650368 93.3500185 145.70377827 C93.36472959 141.15789452 93.36563251 136.61208641 93.36250877 132.06618309 C93.36302063 129.90246137 93.36823285 127.73873527 93.37832069 125.575037 C93.39065277 122.56845081 93.38391909 119.56248438 93.37231445 116.5559082 C93.37995819 115.67233139 93.38760193 114.78875458 93.39547729 113.87840271 C93.35250067 108.84233177 92.8078997 105.35777092 90 101 C86.46416619 98.22141896 83.47840447 97.58162568 79.0625 97.125 C59.6990804 94.4054186 43.59347171 84.61441697 30 71 C29.35933594 70.43023437 28.71867188 69.86046875 28.05859375 69.2734375 C12.6124373 55.296637 4.84779393 33.89113809 1 14 C0.80277344 13.20207031 0.60554688 12.40414063 0.40234375 11.58203125 C-0.19841482 7.72667773 -0.076346 3.89364614 0 0 Z " fill="#CBCBCB" transform="translate(364,0)"/>
<path d="M0 0 C4.28660466 -0.12437698 8.57223082 -0.21469796 12.86010742 -0.2746582 C14.3160229 -0.29967393 15.77181441 -0.33369864 17.22729492 -0.37719727 C32.138702 -0.8114109 32.138702 -0.8114109 36.71118164 3.38354492 C39.17475504 6.47339518 40.94359664 9.77866209 42.6875 13.3125 C58.00707731 42.33069126 81.97849236 62.77552891 111.42578125 76.609375 C118.08461254 79.76398616 122.61422053 82.22844107 126 89 C126.10209208 91.10990293 126.13843296 93.22308881 126.14526367 95.33544922 C126.14862228 95.98636536 126.1519809 96.63728149 126.15544128 97.30792236 C126.16498127 99.47352998 126.16689777 101.63906013 126.16796875 103.8046875 C126.17118585 105.32333405 126.17455026 106.8419803 126.17805481 108.36062622 C126.18405824 111.56024896 126.18589413 114.75984468 126.18530273 117.95947266 C126.18522227 121.20432202 126.19202914 124.44902784 126.20581055 127.69384766 C126.34939339 161.99598517 126.34939339 161.99598517 124 179 C123.79685181 180.62156006 123.79685181 180.62156006 123.58959961 182.27587891 C116.72025918 234.38720029 95.10182773 283.90575215 64 326 C63.57509277 326.5779834 63.15018555 327.1559668 62.71240234 327.75146484 C54.14346636 339.3431329 44.8430358 350.63467391 34.390625 360.58203125 C32.88708773 361.97001032 32.88708773 361.97001032 32 364 C31.34 364 30.68 364 30 364 C29.76152344 364.57492187 29.52304687 365.14984375 29.27734375 365.7421875 C27.7311058 368.47529311 25.93432893 370.06814995 23.5625 372.125 C19.90708594 375.32544836 16.30706951 378.56560792 12.75 381.875 C6.43236943 387.60946467 -0.19370212 392.86301121 -7 398 C-7.67417969 398.50934082 -8.34835937 399.01868164 -9.04296875 399.54345703 C-23.7987404 410.61369515 -39.28339005 420.51524246 -55.5 429.3125 C-56.18779541 429.69180664 -56.87559082 430.07111328 -57.58422852 430.46191406 C-61.18920765 432.36226921 -63.9012691 433.46504831 -68 433 C-63.60760126 429.3863333 -59.003317 426.11203745 -54.375 422.8125 C-47.35791844 417.77347741 -40.58968433 412.59007094 -34 407 C-32.89778648 406.08255059 -31.79488439 405.16592797 -30.69140625 404.25 C-25.45611485 399.88676196 -20.32110932 395.50619551 -15.58984375 390.58984375 C-13.88744947 388.88744947 -12.09409008 387.35975466 -10.25 385.8125 C-5.18072656 381.43939371 -0.7839521 376.4567307 3.67138672 371.47705078 C4.87462363 370.13938388 6.09458854 368.81681071 7.31640625 367.49609375 C13.62711122 360.64350356 19.33440465 353.38486296 25 346 C25.48903809 345.36787598 25.97807617 344.73575195 26.48193359 344.08447266 C34.22080347 334.06605297 41.33801046 323.76434647 48 313 C48.41991211 312.32388672 48.83982422 311.64777344 49.27246094 310.95117188 C61.39542597 291.28565951 70.86500623 270.59764174 79 249 C79.26506348 248.3095459 79.53012695 247.6190918 79.80322266 246.90771484 C93.65415381 210.46880757 96.3798473 171.20872608 96.42553711 132.63696289 C96.43101912 129.09227113 96.46924827 125.54866632 96.51428127 122.00428677 C96.54408224 119.22715745 96.5512606 116.45029659 96.55226326 113.67302132 C96.55841832 111.73872342 96.58776112 109.80454284 96.61778259 107.87046814 C96.58087942 100.70559636 95.97825356 95.42474753 91 90 C88.45184414 88.06949836 88.45184414 88.06949836 85.5625 86.9375 C84.510625 86.45796875 83.45875 85.9784375 82.375 85.484375 C81.26125 84.99453125 80.1475 84.5046875 79 84 C63.98346859 76.96953302 51.28311675 68.00857158 39 57 C38.20980469 56.29488281 37.41960937 55.58976562 36.60546875 54.86328125 C25.73197655 44.57754538 17.78551505 32.17951812 10.81762695 19.04223633 C7.92618513 13.59861376 4.87848364 8.59416348 1.14453125 3.6796875 C0 2 0 2 0 0 Z " fill="#1F9690" transform="translate(325,35)"/>
<path d="M0 0 C5.82237593 4.74540466 9.43195966 10.45134059 13 17 C13.5775 18.051875 14.155 19.10375 14.75 20.1875 C23.26497599 39.34619598 18 59.71268758 18 81 C-16.98 81 -51.96 81 -88 81 C-88 19.22374101 -88 19.22374101 -72.875 3.25 C-51.63864746 -16.89288182 -23.09899181 -17.16666646 0 0 Z " fill="#35B69D" transform="translate(291,106)"/>
<path d="M0 0 C14.91288796 11.20218992 25.94815354 26.99785909 28.74822998 45.64578247 C29.72936751 54.82007243 29.29315919 64.16470823 29.1875 73.375 C29.17242317 75.67186621 29.15874008 77.96874201 29.14648438 80.265625 C29.11372323 85.84396234 29.06376281 91.42193532 29 97 C29.63502441 96.98428955 30.27004883 96.9685791 30.92431641 96.95239258 C33.8244523 96.8897141 36.72444524 96.85090583 39.625 96.8125 C40.62402344 96.78736328 41.62304688 96.76222656 42.65234375 96.73632812 C48.98864355 96.67338475 53.7870773 97.00076337 58.64453125 101.53515625 C61.74175531 105.58537233 63.12203105 107.61843324 63.14717102 112.67314148 C63.15790398 114.15139656 63.15790398 114.15139656 63.16885376 115.65951538 C63.17154266 116.74471466 63.17423157 117.82991394 63.17700195 118.94799805 C63.18357315 120.08796738 63.19014435 121.22793671 63.19691467 122.40245056 C63.2166843 126.1888739 63.22831902 129.9752575 63.23828125 133.76171875 C63.24235678 135.0529899 63.2464323 136.34426105 63.25063133 137.67466164 C63.26935401 143.80478726 63.28391532 149.9348929 63.2922433 156.06504124 C63.30200677 163.13482604 63.32830088 170.204297 63.36874419 177.27397126 C63.40259042 183.40141509 63.41439235 189.52872742 63.41844749 195.65625954 C63.42332156 198.26016173 63.4349587 200.86406038 63.45348549 203.46790123 C63.47781257 207.11386482 63.47692293 210.75900951 63.4699707 214.4050293 C63.48918579 216.01764648 63.48918579 216.01764648 63.50878906 217.6628418 C63.46473363 224.00487538 62.77868443 227.84356295 59 233 C52.55856627 238.60124672 44.63058849 237.44960728 36.5625 237.25 C35.14911379 237.2299083 33.73570007 237.21166223 32.32226562 237.1953125 C28.88093317 237.15151817 25.44064425 237.08263903 22 237 C22.90878906 236.32517578 22.90878906 236.32517578 23.8359375 235.63671875 C29.44301915 231.39598371 31.87861898 227.94393067 33 221 C33.26630368 217.39610984 33.27372079 213.80955259 33.25878906 210.19702148 C33.2622937 209.14395813 33.26579834 208.09089478 33.26940918 207.00592041 C33.27817192 203.54424337 33.27239699 200.08277267 33.265625 196.62109375 C33.26697311 194.20548972 33.26891487 191.78988595 33.27142334 189.37428284 C33.27436713 184.31988941 33.2701005 179.26556682 33.26074219 174.21118164 C33.24934207 167.73937314 33.25591551 161.26773044 33.26788712 154.795928 C33.27512057 149.81076309 33.27281104 144.82563737 33.26763153 139.84047127 C33.26629947 137.45429528 33.26792719 135.0681157 33.27259064 132.68194389 C33.27768087 129.34572826 33.26991057 126.00977977 33.25878906 122.67358398 C33.26486176 121.20134117 33.26486176 121.20134117 33.27105713 119.69935608 C33.23489713 113.83129856 33.19133663 107.99260099 29.58984375 103.07421875 C29.04457031 102.61660156 28.49929688 102.15898437 27.9375 101.6875 C27.41027344 101.21699219 26.88304687 100.74648437 26.33984375 100.26171875 C23.94721861 98.97153858 22.00058102 98.48114127 19.35375977 97.92114258 C18.5395607 97.74690262 17.72536163 97.57266266 16.88648987 97.3931427 C16.26394821 97.26340561 15.64140656 97.13366852 15 97 C14.97494385 95.77482666 14.9498877 94.54965332 14.92407227 93.28735352 C14.82934874 88.70815965 14.72929104 84.12909473 14.62768555 79.55004883 C14.58458077 77.57449375 14.54289038 75.59890724 14.50268555 73.62329102 C14.44438535 70.77090009 14.38086855 67.91866379 14.31640625 65.06640625 C14.29969376 64.19415909 14.28298126 63.32191193 14.26576233 62.42323303 C13.86260568 45.44027194 9.54344559 31.09904769 -2.27734375 18.4296875 C-12.17728999 9.59501525 -24.48955756 4.39853581 -37.75 4.5625 C-38.62325928 4.57079834 -39.49651855 4.57909668 -40.39624023 4.58764648 C-55.60165441 4.98177261 -68.36046103 11.22106712 -78.859375 22.2109375 C-87.61658969 33.62088511 -91.25126249 46.06555914 -91.4140625 60.28125 C-91.43342865 61.33534058 -91.4527948 62.38943115 -91.4727478 63.47546387 C-91.53216164 66.81689557 -91.57877562 70.15836244 -91.625 73.5 C-91.66321494 75.77605605 -91.70226869 78.05209819 -91.7421875 80.328125 C-91.83783164 85.8853026 -91.9220029 91.44254784 -92 97 C-96.62 97 -101.24 97 -106 97 C-106.12454944 89.42356203 -106.21478758 81.84773347 -106.2746582 74.27050781 C-106.29964361 71.69846196 -106.33364367 69.12648594 -106.37719727 66.5546875 C-106.82952011 39.1386018 -106.82952011 39.1386018 -101 28 C-100.44594482 26.91356201 -99.89188965 25.82712402 -99.32104492 24.70776367 C-90.59693386 8.28311635 -76.23741287 -2.51737247 -59 -9 C-39.28861377 -15.01259265 -17.21386786 -10.82872385 0 0 Z " fill="#505A66" transform="translate(295,90)"/>
<path d="M0 0 C0 30.69 0 61.38 0 93 C-17.49 93 -34.98 93 -53 93 C-53.0825 85.348125 -53.165 77.69625 -53.25 69.8125 C-53.28641602 67.42491455 -53.32283203 65.0373291 -53.36035156 62.57739258 C-53.45690329 51.74248415 -53.45875765 42.0670616 -49 32 C-48.56510254 31.01781494 -48.13020508 30.03562988 -47.68212891 29.02368164 C-41.68137101 16.2535321 -30.1764173 6.84197622 -17.11328125 1.91015625 C-10.96430261 0.04916829 -6.79176919 0 0 0 Z " fill="#4AD093" transform="translate(256,94)"/>
<path d="M0 0 C4.90713015 2.31973425 7.8111048 5.71776931 11 10 C12.67515312 15.02545937 13.15065227 19.65135851 10.765625 24.51953125 C8.42563731 28.10480942 6.59374237 30.60417175 3 33 C2.54004638 35.33581607 2.54004638 35.33581607 2.59375 38.05078125 C2.57183594 39.05947266 2.54992187 40.06816406 2.52734375 41.10742188 C2.51832031 42.16509766 2.50929688 43.22277344 2.5 44.3125 C2.4820615 46.39208452 2.45124806 48.47160624 2.40625 50.55078125 C2.39916016 51.47544189 2.39207031 52.40010254 2.38476562 53.3527832 C1.91944812 56.55420309 0.9447849 58.42732901 -1 61 C-4.375 62.125 -4.375 62.125 -8 62 C-10.703125 60.23828125 -10.703125 60.23828125 -13 57 C-13.74419367 51.96783329 -13.43198174 46.88481992 -13.2734375 41.81445312 C-13.1063838 36.04984796 -13.1063838 36.04984796 -15.52832031 31.05029297 C-17.36028019 29.47979478 -17.36028019 29.47979478 -19.29541016 28.27905273 C-22.16281272 26.1274741 -22.89129043 23.73169901 -23.40625 20.265625 C-23.61020525 13.70506448 -23.04431267 9.71991058 -18.80078125 4.62109375 C-12.96991158 -0.62795378 -7.58332963 -0.91700589 0 0 Z " fill="#EEEEEE" transform="translate(262,232)"/>
</svg>
