<?xml version="1.0" encoding="UTF-8"?>
<svg version="1.1" xmlns="http://www.w3.org/2000/svg" width="512" height="512">
<path d="M0 0 C11.78602784 8.89618447 19.49254585 19.24547454 22.1484375 33.95703125 C22.73016653 38.31999897 22.78457255 42.64098518 22.76953125 47.0390625 C22.76530151 48.6470874 22.76530151 48.6470874 22.76098633 50.28759766 C22.75736084 51.10019043 22.75373535 51.9127832 22.75 52.75 C23.44561035 52.73428955 24.1412207 52.7185791 24.85791016 52.70239258 C28.03018971 52.63977137 31.20233885 52.60092323 34.375 52.5625 C36.01662109 52.52479492 36.01662109 52.52479492 37.69140625 52.48632812 C44.33918563 52.42589377 49.21337062 52.59979568 54.39453125 57.21484375 C58.0455592 61.81831377 58.80457544 65.02974145 59.13600159 70.77081299 C59.19627533 71.78286301 59.25654907 72.79491302 59.31864929 73.83763123 C59.38050919 74.94212112 59.44236908 76.04661102 59.50610352 77.18457031 C59.57452454 78.35248611 59.64294556 79.52040192 59.71343994 80.72370911 C59.93903103 84.59163947 60.15907772 88.45986318 60.37890625 92.328125 C60.53377318 95.01613038 60.68965113 97.70407694 60.84544373 100.39202881 C61.17165857 106.03089709 61.49485386 111.66993216 61.81616211 117.30908203 C62.18684957 123.81438376 62.56182655 130.31942694 62.93923432 136.82434201 C63.3029109 143.09367327 63.66395247 149.36315342 64.02366447 155.63271332 C64.17639842 158.29442645 64.33007576 160.95607999 64.4841938 163.61771393 C64.69951633 167.34429971 64.91182109 171.07104543 65.12329102 174.79785156 C65.2191172 176.44244102 65.2191172 176.44244102 65.31687927 178.12025452 C65.62872373 183.67461152 65.81698513 189.18692018 65.75 194.75 C66.72839844 194.78867187 66.72839844 194.78867187 67.7265625 194.828125 C74.5378155 195.27015322 78.89369116 196.49971753 83.5625 201.8125 C86.68763402 206.91140288 86.32514666 212.15810937 85.07720947 217.78192139 C84.08780516 221.4627595 83.02933361 225.11972053 81.9453125 228.7734375 C81.54546755 230.14999386 81.14657218 231.52682636 80.74856567 232.90391541 C79.68848981 236.56162964 78.61537785 240.21538801 77.53895569 243.86832047 C76.43085137 247.63459039 75.33264253 251.40374398 74.23339844 255.17260742 C72.93134839 259.63411126 71.62780614 264.09516056 70.31811523 268.5544281 C68.00568244 276.42957086 65.72563319 284.31244415 63.5078125 292.21484375 C62.86357391 294.48878626 62.21802712 296.76235127 61.57171631 299.03570557 C61.02419461 300.97672758 60.49053142 302.92164272 59.95751953 304.86669922 C54.77298582 322.91553048 44.43178587 337.94560102 27.9765625 347.33203125 C15.99352175 353.66240368 4.17377344 355.91907264 -9.26037598 355.87025452 C-10.56919873 355.87153615 -10.56919873 355.87153615 -11.90446234 355.87284368 C-14.80937642 355.87448234 -17.71423192 355.86900368 -20.61914062 355.86352539 C-22.70896402 355.86324314 -24.79878751 355.86340199 -26.88861084 355.8639679 C-32.54912232 355.86425441 -38.20961255 355.85838125 -43.87011909 355.85139394 C-49.79048682 355.84513611 -55.71085506 355.84455468 -61.63122559 355.84336853 C-72.83657591 355.84026238 -84.04191646 355.83205864 -95.24726248 355.82201904 C-108.00657515 355.81083567 -120.7658883 355.80534185 -133.52520466 355.80032361 C-159.76680852 355.78987543 -186.00840371 355.77228985 -212.25 355.75 C-211.67500253 357.9800986 -211.08315381 360.20585617 -210.484375 362.4296875 C-210.15663086 363.66960449 -209.82888672 364.90952148 -209.49121094 366.18701172 C-207.09622565 373.06199506 -202.441108 377.84968345 -196.0625 381.25 C-190.25565281 383.89058735 -184.48185379 383.89420497 -178.22315979 383.88130188 C-177.31248888 383.88341759 -176.40181798 383.88553331 -175.46355098 383.88771313 C-172.41131683 383.89370579 -169.3591241 383.89271351 -166.30688477 383.8918457 C-164.11886525 383.89487762 -161.93084637 383.89839917 -159.74282837 383.90237427 C-155.03056836 383.91026011 -150.31831592 383.91540695 -145.60605049 383.91866493 C-138.15628364 383.92457503 -130.70656456 383.94111461 -123.25682068 383.96000671 C-120.70661643 383.96634392 -118.15641215 383.97266955 -115.60620785 383.97898388 C-113.69062393 383.9837326 -113.69062393 383.9837326 -111.73634136 383.98857725 C-105.13306806 384.00460104 -98.52979222 384.01928035 -91.92651367 384.03295898 C-90.93275509 384.03502279 -90.93275509 384.03502279 -89.91892057 384.03712829 C-79.17916035 384.0590659 -68.43941192 384.06981703 -57.69963325 384.07732973 C-46.66821115 384.08540207 -35.63689322 384.10895875 -24.6055283 384.1452834 C-18.41371928 384.16506769 -12.22208748 384.17744062 -6.03024483 384.17244911 C-0.20826221 384.16781272 5.61338412 384.1815531 11.43529892 384.20946121 C13.57263523 384.21638934 15.7100062 384.21648221 17.84734154 384.20926094 C20.76402195 384.2004012 23.67958647 384.21601999 26.59617615 384.23774719 C27.44296997 384.22930466 28.28976379 384.22086212 29.16221803 384.21216375 C34.49558565 384.28568807 37.49902351 385.24222932 41.75 388.75 C45.29553678 392.78457634 46.05939271 396.31965804 45.9609375 401.6953125 C45.48224017 406.3581791 43.26043727 409.50862618 39.875 412.5625 C35.44807889 415.66134477 31.53473168 415.85897697 26.23046875 416.06640625 C25.20888672 416.10830078 24.18730469 416.15019531 23.13476562 416.19335938 C22.07966797 416.23267578 21.02457031 416.27199219 19.9375 416.3125 C18.86306641 416.35568359 17.78863281 416.39886719 16.68164062 416.44335938 C14.03787918 416.54910983 11.3940289 416.65120233 8.75 416.75 C9.4917749 417.10739258 10.2335498 417.46478516 10.99780273 417.83300781 C23.90602662 424.18096068 31.88928269 433.52393365 36.5546875 447.08984375 C39.45323251 458.0685793 38.41619513 470.38680138 33.35546875 480.55078125 C31.90799845 483.02430645 30.37836007 485.39258863 28.75 487.75 C28.1725 488.636875 27.595 489.52375 27 490.4375 C18.4591805 499.21556449 7.42176266 504.76523956 -4.79931641 505.04248047 C-18.98690006 505.155496 -29.15650719 501.90238899 -39.9375 492.375 C-49.41143276 481.62080606 -53.63974983 471.41678634 -53.4609375 456.96875 C-52.59910058 443.81775695 -47.09305674 434.26629533 -38.08203125 424.953125 C-33.85100899 421.66168148 -28.95597474 419.31689531 -24.25 416.75 C-66.16 416.75 -108.07 416.75 -151.25 416.75 C-147.95 418.4 -144.65 420.05 -141.25 421.75 C-132.37891407 427.83523116 -125.36472616 437.27033875 -122.6875 447.76171875 C-120.67504296 461.5075191 -121.74223772 474.22170493 -129.5 486.0625 C-136.41821044 495.20389858 -145.82286181 502.33029186 -157.25 504.75 C-171.25744253 506.04652954 -183.54614771 504.91327659 -195.1875 496.375 C-203.69472256 489.12523187 -211.37651905 479.18691127 -212.44287109 467.66625977 C-212.96969928 453.1178197 -211.88658296 441.23687824 -202.05859375 429.67578125 C-196.45928241 423.71366356 -190.70243242 420.13883245 -183.25 416.75 C-184.88195312 416.51216797 -184.88195312 416.51216797 -186.546875 416.26953125 C-199.57028914 414.25209141 -210.57966161 410.77855248 -221.25 402.75 C-221.86488281 402.30011719 -222.47976562 401.85023438 -223.11328125 401.38671875 C-237.92387414 389.72871326 -241.84707297 370.87491239 -246.30834961 353.58276367 C-246.88028744 351.39399746 -247.45275353 349.20536921 -248.02571774 347.01687145 C-253.4342834 326.29022401 -258.62486709 305.50873377 -263.76202583 284.71343422 C-265.36717903 278.2164574 -266.98044507 271.72150937 -268.59495544 265.22685242 C-273.17298195 246.80702632 -277.74465716 228.3856431 -282.30004883 209.96020508 C-284.84155601 199.68072042 -287.39142831 189.40334912 -289.95071262 179.12827557 C-291.55712927 172.67688101 -293.15331934 166.22307284 -294.74184334 159.76725066 C-295.72547852 155.78046523 -296.71896408 151.79618473 -297.71531105 147.81255913 C-298.17414466 145.96968778 -298.62893898 144.12580526 -299.07936478 142.2808609 C-299.69479919 139.76257875 -300.32469386 137.2483433 -300.95826721 134.73457336 C-301.1322957 134.00728462 -301.3063242 133.27999588 -301.48562628 132.53066808 C-302.92081624 126.93877426 -305.02277845 122.46778406 -309.65116882 118.89805603 C-312.59095984 117.59937806 -314.62581352 117.37789081 -317.83129883 117.38110352 C-318.92626175 117.37422012 -320.02122467 117.36733673 -321.14936829 117.36024475 C-322.91041145 117.36948219 -322.91041145 117.36948219 -324.70703125 117.37890625 C-327.20638156 117.36152171 -329.70573049 117.34393735 -332.20507812 117.32617188 C-336.13519873 117.3161066 -340.06522837 117.31250119 -343.99536133 117.31420898 C-347.79535882 117.31063106 -351.59465832 117.28325489 -355.39453125 117.25390625 C-357.14646538 117.26618004 -357.14646538 117.26618004 -358.93379211 117.27870178 C-365.84174648 117.21593112 -370.37304003 116.46261088 -376.25 112.75 C-379.25553411 109.37586265 -380.47222028 105.15801739 -380.75 100.6875 C-380.19216869 96.29457843 -379.3322669 92.99449147 -376.25 89.75 C-369.78218309 84.9058526 -363.782344 85.16708301 -355.8984375 85.21875 C-354.60741119 85.2149231 -353.31638489 85.21109619 -351.98623657 85.20715332 C-349.25771847 85.20127573 -346.52972615 85.20975531 -343.80126953 85.22851562 C-340.34178316 85.25116895 -336.88354782 85.23826006 -333.42410851 85.21422577 C-330.08212482 85.19608644 -326.74045645 85.20888733 -323.3984375 85.21875 C-322.17506683 85.21065308 -320.95169617 85.20255615 -319.69125366 85.19421387 C-305.13637782 85.35004472 -293.72237757 89.60225446 -283.0625 99.4375 C-272.97536032 110.1837993 -270.52801765 123.8140332 -267.25 137.75 C-265.89255052 135.03510104 -265.98163443 132.70920193 -265.8203125 129.67578125 C-265.74683594 128.45052734 -265.67335938 127.22527344 -265.59765625 125.96289062 C-265.45035497 123.38253391 -265.30962525 120.80179286 -265.17578125 118.22070312 C-264.26982787 103.54886485 -264.26982787 103.54886485 -258.6875 98.375 C-255.01367821 95.92578547 -253.13446623 95.62577976 -248.73251343 95.62974548 C-247.56019669 95.62837082 -246.38787994 95.62699615 -245.18003845 95.62557983 C-243.2411953 95.63097275 -243.2411953 95.63097275 -241.26318359 95.63647461 C-239.8934479 95.63675657 -238.52371205 95.63659858 -237.15397644 95.6360321 C-233.4289939 95.63574447 -229.70404337 95.64163572 -225.97906828 95.64860606 C-222.08863708 95.65484524 -218.1982052 95.65544385 -214.30776978 95.65663147 C-206.93776648 95.65974312 -199.56777798 95.66795427 -192.19778121 95.67798096 C-183.80853735 95.68914726 -175.4192928 95.69465385 -167.03004336 95.69967639 C-149.77002035 95.71013701 -132.51001174 95.72773324 -115.25 95.75 C-115.23018066 95.00951416 -115.21036133 94.26902832 -115.18994141 93.50610352 C-115.09390394 90.10791589 -114.98454684 86.7102779 -114.875 83.3125 C-114.8440625 82.14783203 -114.813125 80.98316406 -114.78125 79.78320312 C-114.15769637 61.33640816 -114.15769637 61.33640816 -107.25 54.75 C-103.49073361 52.87016691 -100.47018753 52.51184423 -96.29296875 52.5546875 C-95.18115234 52.56113281 -94.06933594 52.56757812 -92.92382812 52.57421875 C-91.77333984 52.59097656 -90.62285156 52.60773437 -89.4375 52.625 C-88.26767578 52.63402344 -87.09785156 52.64304688 -85.89257812 52.65234375 C-83.01150947 52.67586268 -80.13086011 52.70873148 -77.25 52.75 C-77.29640625 51.52925781 -77.3428125 50.30851562 -77.390625 49.05078125 C-77.84192874 32.2066841 -74.74672982 18.66584441 -62.9375 5.9375 C-58.82072576 2.10495739 -54.23349979 -0.68049862 -49.25 -3.25 C-48.08791016 -3.87455078 -48.08791016 -3.87455078 -46.90234375 -4.51171875 C-32.31764341 -11.09910321 -13.06060257 -8.60857213 0 0 Z M-40.625 28.0625 C-48.30523642 35.92559919 -46.25 40.95766214 -46.25 52.75 C-33.71 52.75 -21.17 52.75 -8.25 52.75 C-7.75481846 40.25081449 -7.75481846 40.25081449 -12.9140625 29.7109375 C-21.37568733 21.51900589 -31.20304434 20.89716088 -40.625 28.0625 Z " fill="#FE3053" transform="translate(403.25,7.25)"/>
<path d="M0 0 C1.26025497 -0.00990463 2.52050995 -0.01980927 3.81895447 -0.03001404 C5.20283607 -0.02577654 6.58671671 -0.02121873 7.97059631 -0.01637268 C9.4379427 -0.02207919 10.90528465 -0.02904454 12.37261963 -0.03717041 C16.3478784 -0.05508609 20.32291624 -0.05393647 24.29820323 -0.04822803 C27.62074446 -0.04513385 30.9432434 -0.05123117 34.2657786 -0.05726677 C42.10589698 -0.07130517 49.94590637 -0.06975644 57.786026 -0.05836487 C65.86589873 -0.04688414 73.94543951 -0.06095998 82.0252685 -0.08776134 C88.97068806 -0.10993455 95.91600354 -0.11655208 102.86145598 -0.11068493 C107.00601468 -0.10731803 111.15036061 -0.10971255 115.29488945 -0.12693596 C119.19302523 -0.14242901 123.09067014 -0.13842384 126.9887867 -0.11963081 C128.41618889 -0.11595141 129.84362765 -0.11903453 131.27099609 -0.1295166 C144.73180762 -0.22079173 144.73180762 -0.22079173 150.6309967 4.38768005 C156.03553432 10.77648776 155.52556657 18.76735321 155.8809967 26.76268005 C155.95758722 28.12865237 156.03570298 29.49454006 156.1153717 30.8603363 C156.51086193 38.04891903 156.67373663 45.21561012 156.64955139 52.41355896 C156.64821198 53.18641739 156.64687256 53.95927582 156.64549255 54.7555542 C156.64204333 56.63293253 156.63672106 58.51030728 156.6309967 60.38768005 C157.47766907 60.36849014 158.32434143 60.34930023 159.19667053 60.32952881 C167.19949917 60.15095413 175.20246556 59.98760562 183.20594788 59.84109211 C187.32002606 59.76524879 191.43381758 59.68364844 195.54750061 59.58860779 C199.52196044 59.49700025 203.49645006 59.42088583 207.47142029 59.35523033 C208.98327083 59.32758909 210.49503235 59.29448975 212.00663757 59.25568581 C229.74456865 58.80833683 229.74456865 58.80833683 235.17030334 63.80535889 C238.79581241 67.90831052 239.98070923 71.40834458 239.89900208 76.84843445 C239.30016085 82.52221979 237.44382623 87.95924091 235.8263092 93.41111755 C235.42646425 94.78767392 235.02756889 96.16450642 234.62956238 97.54159546 C233.56948651 101.19930969 232.49637455 104.85306807 231.41995239 108.50600052 C230.31184807 112.27227044 229.21363923 116.04142403 228.11439514 119.81028748 C226.81234509 124.27179131 225.50880285 128.73284061 224.19911194 133.19210815 C221.88667915 141.06725091 219.60662989 148.9501242 217.3888092 156.8525238 C216.74457061 159.12646631 216.09902383 161.40003132 215.45271301 163.67338562 C214.90519131 165.61440763 214.37152812 167.55932277 213.83851624 169.50437927 C208.65398253 187.55321053 198.31278258 202.58328107 181.8575592 211.9697113 C169.86015996 218.307669 158.03171973 220.5565708 144.58265686 220.50793457 C143.26770878 220.50921621 143.26770878 220.50921621 141.9261961 220.51052374 C139.00746259 220.51216249 136.08878736 220.50668357 133.1700592 220.50120544 C131.07038372 220.5009232 128.97070814 220.50108203 126.87103271 220.50164795 C121.18366263 220.50193447 115.4963137 220.49606117 109.80894852 220.48907399 C103.86055357 220.48281631 97.91215811 220.48223474 91.96376038 220.48104858 C80.70528612 220.47794239 69.4468216 220.46973859 58.18835163 220.45969909 C45.36858061 220.44851586 32.54880911 220.44302193 19.72903442 220.43800366 C-6.63698354 220.42755539 -33.00299287 220.40996973 -59.3690033 220.38768005 C-60.94914564 215.72913246 -62.26764494 211.0554867 -63.44444275 206.28123474 C-63.64152832 205.48997192 -63.83861389 204.69870911 -64.04167175 203.88346863 C-64.46774801 202.17157897 -64.89273713 200.45941844 -65.31675148 198.74701691 C-65.99232163 196.01902472 -66.67090416 193.29179721 -67.35025024 190.56474304 C-69.03934994 183.78170364 -70.72341607 176.99741668 -72.40745544 170.21311951 C-73.8282923 164.48989738 -75.2511866 158.76719402 -76.67667198 153.04512787 C-77.33710706 150.39065403 -77.99464522 147.73547444 -78.65203857 145.08024597 C-80.85054801 136.23370863 -83.15656779 127.42954908 -85.62346649 118.65396404 C-87.3593734 112.46903424 -88.95875622 106.25737038 -90.48228455 100.0165863 C-90.74156235 98.96156418 -91.00084015 97.90654205 -91.26797485 96.81954956 C-91.80441869 94.63320762 -92.33948348 92.44652684 -92.87315369 90.25950623 C-93.69327681 86.90198011 -94.52018865 83.54617105 -95.34751892 80.19041443 C-95.87201099 78.04923719 -96.39611452 75.90796474 -96.91978455 73.7665863 C-97.16658463 72.76672195 -97.4133847 71.7668576 -97.66766357 70.73669434 C-97.89177414 69.81400253 -98.1158847 68.89131073 -98.3467865 67.94065857 C-98.54488419 67.13113235 -98.74298187 66.32160614 -98.94708252 65.48754883 C-99.3690033 63.38768005 -99.3690033 63.38768005 -99.3690033 60.38768005 C-72.9690033 60.38768005 -46.5690033 60.38768005 -19.3690033 60.38768005 C-19.3690033 55.76768005 -19.3690033 51.14768005 -19.3690033 46.38768005 C-19.25226828 41.03181185 -19.04470619 35.68601068 -18.78916931 30.33518982 C-18.7168443 28.73305138 -18.65415973 27.13045122 -18.60069275 25.52757263 C-18.52114696 23.16819187 -18.41117785 20.81190275 -18.29478455 18.4540863 C-18.27684341 17.74667801 -18.25890228 17.03926971 -18.24041748 16.3104248 C-17.92612976 10.96162847 -16.26024834 7.02731189 -12.3690033 3.38768005 C-8.07138493 0.88993398 -4.9542407 0.01102883 0 0 Z " fill="#B6C0D1" transform="translate(249.36900329589844,142.61231994628906)"/>
<path d="M0 0 C1.29102631 -0.0038269 2.58205261 -0.00765381 3.91220093 -0.01159668 C6.64071903 -0.01747427 9.36871135 -0.00899469 12.09716797 0.00976562 C15.55665434 0.03241895 19.01488968 0.01951006 22.47432899 -0.00452423 C25.81631268 -0.02266356 29.15798105 -0.00986267 32.5 0 C33.72337067 -0.00809692 34.94674133 -0.01619385 36.20718384 -0.02453613 C50.76205968 0.13129472 62.17605993 4.38350446 72.8359375 14.21875 C80.51798114 22.3961474 83.76804327 32.05615477 86.3359375 42.78125 C86.61759766 43.89371094 86.89925781 45.00617188 87.18945312 46.15234375 C88.6461935 51.99949101 89.92509862 57.85611568 91.0625 63.7734375 C92.59510743 71.57907768 94.59364323 79.22189977 96.66204834 86.90039062 C100.52370751 101.25998477 104.20572287 115.66171812 107.75390625 130.1015625 C107.93004896 130.81837063 108.10619167 131.53517876 108.28767204 132.27370834 C110.05622684 139.47567427 111.81688927 146.67955028 113.57053471 153.88516045 C114.23629177 156.61881347 114.90412426 159.3519575 115.57218361 162.08504868 C116.02486519 163.94101132 116.47427044 165.79777218 116.92350769 167.65457153 C118.53595328 174.2546949 120.26407149 180.8097661 122.10351562 187.34936523 C124.37199346 195.42170475 126.43974517 203.53097328 128.41891861 211.67860603 C128.98856918 214.02297097 129.5620719 216.36636711 130.13644409 218.70957947 C131.55828627 224.51287348 132.97488227 230.31744347 134.38977051 236.12243652 C135.596199 241.07211336 136.80557436 246.02104986 138.01922226 250.96896172 C138.57987133 253.25969982 139.1362052 255.55145728 139.69241333 257.84327698 C141.40361929 264.84684962 143.22536674 271.7326341 145.6484375 278.53125 C145.92945313 279.37816406 146.21046875 280.22507812 146.5 281.09765625 C148.94189073 287.39970757 152.8815751 291.98117593 158.6484375 295.53125 C165.22036522 298.04431967 171.28070553 298.9665761 178.27655029 298.90306091 C179.19149332 298.90688548 180.10643635 298.91071004 181.04910493 298.9146505 C184.08595624 298.92386624 187.12234329 298.91198815 190.15917969 298.90014648 C192.34793791 298.90261669 194.53669494 298.90645733 196.72544861 298.91156006 C201.42401838 298.91987519 206.12246685 298.91911007 210.82103729 298.91137505 C218.25023482 298.89976717 225.67927708 298.91197425 233.10845947 298.92799377 C251.55396388 298.96413956 269.99947305 298.97051462 288.44500732 298.96789551 C302.79547244 298.96610851 317.14582923 298.97326716 331.49626088 299.00787407 C338.88247859 299.02468122 346.268386 299.02286277 353.65460253 299.00705135 C358.24486091 299.00126238 362.83497145 299.01197953 367.42520332 299.02729797 C369.55449159 299.03102976 371.68380452 299.02790018 373.8130703 299.01742744 C376.71850822 299.00408803 379.62286512 299.01523942 382.52825928 299.03245544 C383.3716425 299.02264867 384.21502573 299.01284189 385.08396602 299.00273794 C390.41036072 299.06806067 393.40263606 300.02924219 397.6484375 303.53125 C401.19397428 307.56582634 401.95783021 311.10090804 401.859375 316.4765625 C401.38067767 321.1394291 399.15887477 324.28987618 395.7734375 327.34375 C391.34651639 330.44259477 387.43316918 330.64022697 382.12890625 330.84765625 C381.10732422 330.88955078 380.08574219 330.93144531 379.03320312 330.97460938 C377.97810547 331.01392578 376.92300781 331.05324219 375.8359375 331.09375 C374.76150391 331.13693359 373.68707031 331.18011719 372.58007812 331.22460938 C369.93631668 331.33035983 367.2924664 331.43245233 364.6484375 331.53125 C365.3902124 331.88864258 366.1319873 332.24603516 366.89624023 332.61425781 C379.80446412 338.96221068 387.78772019 348.30518365 392.453125 361.87109375 C395.35167001 372.8498293 394.31463263 385.16805138 389.25390625 395.33203125 C387.80643595 397.80555645 386.27679757 400.17383863 384.6484375 402.53125 C384.0709375 403.418125 383.4934375 404.305 382.8984375 405.21875 C374.357618 413.99681449 363.32020016 419.54648956 351.09912109 419.82373047 C336.91153744 419.936746 326.74193031 416.68363899 315.9609375 407.15625 C306.48700474 396.40205606 302.25868767 386.19803634 302.4375 371.75 C303.29933692 358.59900695 308.80538076 349.04754533 317.81640625 339.734375 C322.04742851 336.44293148 326.94246276 334.09814531 331.6484375 331.53125 C289.7384375 331.53125 247.8284375 331.53125 204.6484375 331.53125 C207.9484375 333.18125 211.2484375 334.83125 214.6484375 336.53125 C223.51952343 342.61648116 230.53371134 352.05158875 233.2109375 362.54296875 C235.22339454 376.2887691 234.15619978 389.00295493 226.3984375 400.84375 C219.48022706 409.98514858 210.07557569 417.11154186 198.6484375 419.53125 C184.64099497 420.82777954 172.35228979 419.69452659 160.7109375 411.15625 C152.20371494 403.90648187 144.52191845 393.96816127 143.45556641 382.44750977 C142.92873822 367.8990697 144.01185454 356.01812824 153.83984375 344.45703125 C159.43915509 338.49491356 165.19600508 334.92008245 172.6484375 331.53125 C171.01648438 331.29341797 171.01648438 331.29341797 169.3515625 331.05078125 C156.32814836 329.03334141 145.31877589 325.55980248 134.6484375 317.53125 C134.03355469 317.08136719 133.41867188 316.63148438 132.78515625 316.16796875 C117.97456336 304.50996326 114.05136453 285.65616239 109.59008789 268.36401367 C109.01815006 266.17524746 108.44568397 263.98661921 107.87271976 261.79812145 C102.4641541 241.07147401 97.27357041 220.28998377 92.13641167 199.49468422 C90.53125847 192.9977074 88.91799243 186.50275937 87.30348206 180.00810242 C82.72545555 161.58827632 78.15378034 143.1668931 73.59838867 124.74145508 C71.05688149 114.46197042 68.50700919 104.18459912 65.94772488 93.90952557 C64.34130823 87.45813101 62.74511816 81.00432284 61.15659416 74.54850066 C60.17295898 70.56171523 59.17947342 66.57743473 58.18312645 62.59380913 C57.72429284 60.75093778 57.26949852 58.90705526 56.81907272 57.0621109 C56.20363831 54.54382875 55.57374364 52.0295933 54.94017029 49.51582336 C54.7661418 48.78853462 54.5921133 48.06124588 54.41281122 47.31191808 C52.97762126 41.72002426 50.87565905 37.24903406 46.24726868 33.67930603 C43.30747766 32.38062806 41.27262398 32.15914081 38.06713867 32.16235352 C36.97217575 32.15547012 35.87721283 32.14858673 34.74906921 32.14149475 C32.98802605 32.15073219 32.98802605 32.15073219 31.19140625 32.16015625 C28.69205594 32.14277171 26.19270701 32.12518735 23.69335938 32.10742188 C19.76323877 32.0973566 15.83320913 32.09375119 11.90307617 32.09545898 C8.10307868 32.09188106 4.30377918 32.06450489 0.50390625 32.03515625 C-1.24802788 32.04743004 -1.24802788 32.04743004 -3.03535461 32.05995178 C-9.94330898 31.99718112 -14.47460253 31.24386088 -20.3515625 27.53125 C-23.35709661 24.15711265 -24.57378278 19.93926739 -24.8515625 15.46875 C-24.29373119 11.07582843 -23.4338294 7.77574147 -20.3515625 4.53125 C-13.88374559 -0.3128974 -7.8839065 -0.05166699 0 0 Z " fill="#47568C" transform="translate(47.3515625,92.46875)"/>
<path d="M0 0 C55.44 0 110.88 0 168 0 C168 52.47 168 104.94 168 159 C196.05 159 224.1 159 253 159 C253 159.33 253 159.66 253 160 C182.71 160 112.42 160 40 160 C38.43743404 155.31230213 37.10426762 150.67960946 35.92456055 145.89355469 C35.72747498 145.10229187 35.5303894 144.31102905 35.32733154 143.49578857 C34.90125529 141.78389892 34.47626617 140.07173838 34.05225182 138.35933685 C33.37668167 135.63134466 32.69809913 132.90411715 32.01875305 130.17706299 C30.32965336 123.39402359 28.64558722 116.60973663 26.96154785 109.82543945 C25.540711 104.10221733 24.11781669 98.37951396 22.69233131 92.65744781 C22.03189624 90.00297398 21.37435807 87.34779439 20.71696472 84.69256592 C18.51845529 75.84602857 16.21243551 67.04186903 13.7455368 58.26628399 C12.00962989 52.08135419 10.41024708 45.86969033 8.88671875 39.62890625 C8.49780205 38.04637306 8.49780205 38.04637306 8.10102844 36.43186951 C7.56458461 34.24552757 7.02951982 32.05884679 6.49584961 29.87182617 C5.67572648 26.51430006 4.84881465 23.15849099 4.02148438 19.80273438 C3.49699231 17.66155714 2.97288877 15.52028468 2.44921875 13.37890625 C2.20241867 12.3790419 1.95561859 11.37917755 1.70133972 10.34901428 C1.47722916 9.42632248 1.25311859 8.50363068 1.0222168 7.55297852 C0.82411911 6.7434523 0.62602142 5.93392609 0.42192078 5.09986877 C0 3 0 3 0 0 Z " fill="#DEE6F3" transform="translate(150,203)"/>
<path d="M0 0 C1.31510056 -0.00571014 2.63020111 -0.01142029 3.9851532 -0.01730347 C5.45126333 -0.0185489 6.91737358 -0.01967398 8.38348389 -0.02069092 C9.92082336 -0.02531806 11.45816168 -0.03034258 12.99549866 -0.03573608 C17.17953351 -0.04887385 21.3635523 -0.05530795 25.54760456 -0.05974674 C28.16115091 -0.06267581 30.77469286 -0.06678034 33.388237 -0.07125092 C41.56386999 -0.0849307 49.73949293 -0.09459448 57.91513658 -0.09845281 C67.35520423 -0.10293214 76.79512698 -0.12047217 86.23515058 -0.1494534 C93.52949484 -0.17107031 100.82379835 -0.18115712 108.11817431 -0.18249393 C112.47568244 -0.18354213 116.83305445 -0.18945296 121.19052887 -0.20731354 C125.29124249 -0.22379397 129.39171769 -0.22594992 133.49245262 -0.21717453 C134.99606909 -0.21640408 136.49969837 -0.22074791 138.00328255 -0.23063278 C140.05951899 -0.24335594 142.11491152 -0.23747439 144.17114258 -0.22705078 C145.32078617 -0.22851734 146.47042976 -0.2299839 147.65491104 -0.2314949 C151.9367348 0.26858487 155.31832006 1.72039706 158.48406982 4.67559814 C162.18689556 9.51775488 162.96365735 11.59312401 162.93719482 17.67950439 C162.93397217 18.98145752 162.93074951 20.28341064 162.9274292 21.62481689 C162.91907323 23.00502588 162.91060828 24.38523422 162.90203857 25.76544189 C162.89702359 27.15346115 162.89246068 28.54148212 162.8883667 29.92950439 C162.87654834 33.33319322 162.86007291 36.73679628 162.83953857 40.14044189 C161.45344643 40.14591034 161.45344643 40.14591034 160.03935242 40.15148926 C151.31464555 40.18941592 142.59031072 40.24632183 133.86586666 40.32434464 C129.38092053 40.36378956 124.89616986 40.39599259 120.41107178 40.41143799 C116.07956539 40.42662437 111.74859646 40.46110467 107.41732979 40.50875092 C105.76804854 40.52354437 104.11869056 40.53148174 102.46934319 40.53232574 C100.15197886 40.53470341 97.83609031 40.56184419 95.51898193 40.59454346 C93.54374794 40.60786713 93.54374794 40.60786713 91.52861023 40.62145996 C86.35399431 41.3494296 82.56494122 43.27015297 78.96136475 47.17633057 C77.18426462 51.87181971 77.12403077 56.58248482 76.89031982 61.56622314 C76.83436646 62.5440979 76.77841309 63.52197266 76.72076416 64.52947998 C76.51643043 68.16983556 76.33562722 71.81148117 76.15203857 75.45294189 C75.71891357 83.59981689 75.28578857 91.74669189 74.83953857 100.14044189 C48.43953857 100.14044189 22.03953857 100.14044189 -5.16046143 100.14044189 C-7.9449283 91.78704126 -10.38037101 83.43428985 -12.65924072 74.94024658 C-13.11695394 73.24568549 -13.58143708 71.55293796 -14.05279541 69.86212158 C-16.86554291 59.76568342 -18.90069862 50.70722447 -18.16046143 40.14044189 C-18.08227173 38.40310791 -18.08227173 38.40310791 -18.00250244 36.63067627 C-17.82903874 33.0047253 -17.5960395 29.38699113 -17.34796143 25.76544189 C-17.27770752 24.54727783 -17.20745361 23.32911377 -17.1350708 22.07403564 C-16.17110973 7.93079886 -16.17110973 7.93079886 -10.59796143 2.76544189 C-6.73220206 0.18826898 -4.65480219 0.01205996 0 0 Z " fill="#F9BD2C" transform="translate(155.16046142578125,102.85955810546875)"/>
<path d="M0 0 C15.67282393 -0.09034129 31.34544113 -0.16400564 47.01844978 -0.20724869 C54.29592342 -0.22786208 61.57322363 -0.25595901 68.85058594 -0.30175781 C75.19455231 -0.34166337 81.53839306 -0.36744172 87.88248146 -0.37635398 C91.24078352 -0.38156254 94.59872625 -0.39377825 97.95691299 -0.42292023 C101.70863469 -0.45192419 105.45961015 -0.45595707 109.21142578 -0.45410156 C110.32129349 -0.46848267 111.43116119 -0.48286377 112.57466125 -0.49768066 C118.70943391 -0.46481404 122.33927413 -0.1194992 127 4 C130.54553678 8.03457634 131.30939271 11.56965804 131.2109375 16.9453125 C130.73224017 21.6081791 128.51043727 24.75862618 125.125 27.8125 C120.69807889 30.91134477 116.78473168 31.10897697 111.48046875 31.31640625 C110.45888672 31.35830078 109.43730469 31.40019531 108.38476562 31.44335938 C106.80211914 31.50233398 106.80211914 31.50233398 105.1875 31.5625 C104.11306641 31.60568359 103.03863281 31.64886719 101.93164062 31.69335938 C99.28787918 31.79910983 96.6440289 31.90120233 94 32 C95.11266235 32.53608887 95.11266235 32.53608887 96.24780273 33.08300781 C109.15602662 39.43096068 117.13928269 48.77393365 121.8046875 62.33984375 C124.70323251 73.3185793 123.66619513 85.63680138 118.60546875 95.80078125 C117.15799845 98.27430645 115.62836007 100.64258863 114 103 C113.4225 103.886875 112.845 104.77375 112.25 105.6875 C103.7091805 114.46556449 92.67176266 120.01523956 80.45068359 120.29248047 C66.26309994 120.405496 56.09349281 117.15238899 45.3125 107.625 C35.83856724 96.87080606 31.61025017 86.66678634 31.7890625 72.21875 C32.65089942 59.06775695 38.15694326 49.51629533 47.16796875 40.203125 C51.39899101 36.91168148 56.29402526 34.56689531 61 32 C30.805 31.505 30.805 31.505 0 31 C0 20.77 0 10.54 0 0 Z " fill="#29376D" transform="translate(318,392)"/>
<path d="M0 0 C1.26025497 -0.00990463 2.52050995 -0.01980927 3.81895447 -0.03001404 C5.20283607 -0.02577654 6.58671671 -0.02121873 7.97059631 -0.01637268 C9.4379427 -0.02207919 10.90528465 -0.02904454 12.37261963 -0.03717041 C16.3478784 -0.05508609 20.32291624 -0.05393647 24.29820323 -0.04822803 C27.62074446 -0.04513385 30.9432434 -0.05123117 34.2657786 -0.05726677 C42.10589698 -0.07130517 49.94590637 -0.06975644 57.786026 -0.05836487 C65.86589873 -0.04688414 73.94543951 -0.06095998 82.0252685 -0.08776134 C88.97068806 -0.10993455 95.91600354 -0.11655208 102.86145598 -0.11068493 C107.00601468 -0.10731803 111.15036061 -0.10971255 115.29488945 -0.12693596 C119.19302523 -0.14242901 123.09067014 -0.13842384 126.9887867 -0.11963081 C128.41618889 -0.11595141 129.84362765 -0.11903453 131.27099609 -0.1295166 C144.73180762 -0.22079173 144.73180762 -0.22079173 150.6309967 4.38768005 C156.03553432 10.77648776 155.52556657 18.76735321 155.8809967 26.76268005 C155.95758722 28.12865237 156.03570298 29.49454006 156.1153717 30.8603363 C156.64051009 40.73481347 156.6309967 50.47581106 156.6309967 60.38768005 C98.5509967 60.38768005 40.4709967 60.38768005 -19.3690033 60.38768005 C-19.3690033 50.32762702 -19.26833417 40.36867422 -18.78916931 30.33518982 C-18.7168443 28.73305138 -18.65415973 27.13045122 -18.60069275 25.52757263 C-18.52114696 23.16819187 -18.41117785 20.81190275 -18.29478455 18.4540863 C-18.27684341 17.74667801 -18.25890228 17.03926971 -18.24041748 16.3104248 C-17.92612976 10.96162847 -16.26024834 7.02731189 -12.3690033 3.38768005 C-8.07138493 0.88993398 -4.9542407 0.01102883 0 0 Z " fill="#4792FE" transform="translate(249.36900329589844,142.61231994628906)"/>
<path d="M0 0 C18.43668269 -0.16043524 18.43668269 -0.16043524 26.31835938 -0.1953125 C31.68855675 -0.21918912 37.05848034 -0.24738192 42.4284668 -0.30175781 C46.75974458 -0.34533951 51.0907286 -0.36916309 55.42220879 -0.37950897 C57.07158467 -0.3868783 58.72094516 -0.40126898 60.37019539 -0.42292023 C62.68733105 -0.45211925 65.0032655 -0.4559493 67.32055664 -0.45410156 C68.6373793 -0.46298401 69.95420197 -0.47186646 71.31092834 -0.48101807 C76.94784935 0.25398008 80.63626288 2.38790016 84.359375 6.7890625 C87.32507851 12.73627817 86.96025593 19.85726754 87.25 26.375 C87.32659051 27.74097232 87.40470627 29.10686001 87.484375 30.47265625 C88.00951339 40.34713342 88 50.08813101 88 60 C58.96 60 29.92 60 0 60 C0 40.2 0 20.4 0 0 Z " fill="#4756FE" transform="translate(318,143)"/>
<path d="M0 0 C11.78602784 8.89618447 19.49254585 19.24547454 22.1484375 33.95703125 C22.9888412 40.26005899 22.75 46.33042906 22.75 52.75 C12.52 52.75 2.29 52.75 -8.25 52.75 C-9 44.625 -9 44.625 -9.20605469 42.10107422 C-9.86210568 35.88046401 -12.03751492 32.02569894 -16.4375 27.5 C-20.92747179 24.70623978 -25.35068834 23.25579915 -30.65625 24.16015625 C-36.33167829 25.89116188 -40.67837545 28.16666629 -43.83984375 33.36328125 C-45.5248316 37.41005261 -45.79943222 40.79530174 -45.9375 45.125 C-46.040625 47.64125 -46.14375 50.1575 -46.25 52.75 C-56.48 52.75 -66.71 52.75 -77.25 52.75 C-77.77844288 34.38660983 -75.97001437 19.98433742 -62.9375 5.9375 C-58.82072576 2.10495739 -54.23349979 -0.68049862 -49.25 -3.25 C-48.47527344 -3.66636719 -47.70054687 -4.08273438 -46.90234375 -4.51171875 C-32.31764341 -11.09910321 -13.06060257 -8.60857213 0 0 Z " fill="#28366C" transform="translate(403.25,7.25)"/>
<path d="M0 0 C0 17.82 0 35.64 0 54 C-1.32 52.35 -2.64 50.7 -4 49 C-8.0101045 45.47893263 -10.91564047 43.94745047 -16.23046875 43.68359375 C-17.03291016 43.64169922 -17.83535156 43.59980469 -18.66210938 43.55664062 C-19.49548828 43.51732422 -20.32886719 43.47800781 -21.1875 43.4375 C-22.4549707 43.37272461 -22.4549707 43.37272461 -23.74804688 43.30664062 C-25.83184433 43.20068482 -27.91590103 43.0998498 -30 43 C-29.88902214 38.85366875 -29.75865902 34.7081572 -29.625 30.5625 C-29.5940625 29.39783203 -29.563125 28.23316406 -29.53125 27.03320312 C-28.90769637 8.58640816 -28.90769637 8.58640816 -22 2 C-17 0 -17 0 0 0 Z " fill="#FE6359" transform="translate(318,60)"/>
<path d="M0 0 C4.36492736 2.40706674 5.93942071 4.83284673 7.8125 9.4375 C8.54463478 14.47092659 7.63175508 18.25403108 5.1953125 22.6328125 C2.67240841 25.92541615 -0.18936386 27.46017783 -4.1875 28.4375 C-9.03203817 28.72507532 -12.86471667 28.16925248 -17.125 25.8125 C-20.55633463 21.86126618 -21.97883763 18.10679892 -22.625 12.9375 C-22.00499429 7.97745433 -20.48818407 4.37371926 -16.609375 1.109375 C-11.09185981 -2.41984643 -6.0193314 -2.57493621 0 0 Z " fill="#EDF4FD" transform="translate(243.1875,453.5625)"/>
<path d="M0 0 C3.35257301 2.23504867 6.07433994 4.20637281 7.8125 7.875 C8.73153513 13.24536179 8.50811394 17.48377211 6.0625 22.375 C2.02243842 26.86395732 -0.87703181 28.68561736 -7 29.1875 C-11.40347578 29.11478205 -13.81841573 27.78466369 -17.1875 24.875 C-21.31202838 20.42485096 -21.91898092 16.4435384 -21.7109375 10.5703125 C-20.86905342 6.23523774 -18.60833864 3.56616435 -15.1875 0.875 C-10.20484604 -2.08283044 -5.31730259 -1.87669503 0 0 Z " fill="#DCE4F1" transform="translate(402.1875,453.125)"/>
</svg>
