<?xml version="1.0" encoding="UTF-8"?>
<svg version="1.1" xmlns="http://www.w3.org/2000/svg" width="512" height="512">
<path d="M0 0 C0.91953964 -0.00960754 1.83907928 -0.01921509 2.78648376 -0.02911377 C3.78837234 -0.03336365 4.79026093 -0.03761353 5.82250977 -0.04199219 C6.86222427 -0.04769226 7.90193878 -0.05339233 8.97315979 -0.05926514 C11.1883136 -0.06873554 13.40348163 -0.07525717 15.61865234 -0.07910156 C18.94143159 -0.0886587 22.26355172 -0.11959781 25.58618164 -0.15136719 C61.04448722 -0.32746478 96.33518388 8.9864106 125.27954102 30.14160156 C127.53433522 31.41822683 127.53433522 31.41822683 129.91625977 30.61816406 C132.61241606 29.14141473 135.23535016 27.57215991 137.83862305 25.9375 C155.85057529 14.72453426 175.81529754 7.35065288 196.57641602 3.16113281 C198.43568726 2.76051636 198.43568726 2.76051636 200.33251953 2.35180664 C214.9104912 -0.52102068 229.65772621 -0.3332723 244.45117188 -0.28491211 C248.18220251 -0.27327709 251.91230685 -0.29391943 255.64321613 -0.32282925 C258.54725569 -0.3411868 261.45107102 -0.34090252 264.35515404 -0.33519173 C265.73179641 -0.33503931 267.10845473 -0.34101709 268.48504066 -0.3534832 C281.66873838 -0.45637227 281.66873838 -0.45637227 286.57641602 4.16113281 C290.04842296 8.11203726 290.70134207 11.39789917 290.73754883 16.56860352 C290.74715637 17.67859207 290.75676392 18.78858063 290.7666626 19.9322052 C290.77303741 21.74128609 290.77303741 21.74128609 290.77954102 23.58691406 C290.78524109 24.84005905 290.79094116 26.09320404 290.79681396 27.38432312 C290.80627917 30.05174373 290.81316532 32.71905158 290.81665039 35.38647461 C290.8230945 39.39160657 290.85717155 43.39635634 290.88891602 47.40136719 C291.06839799 90.61648843 281.03633613 132.16721116 254.57641602 167.16113281 C254.17519531 167.70753418 253.77397461 168.25393555 253.3605957 168.81689453 C242.69168169 183.33273301 230.17587608 195.62761184 215.57641602 206.16113281 C214.24165989 207.15923294 212.90806403 208.15888966 211.57641602 209.16113281 C212.85150024 209.17515137 212.85150024 209.17515137 214.15234375 209.18945312 C246.6656447 209.63830698 272.42235677 214.30527883 296.27758789 238.37597656 C314.27370544 257.39433065 320.50474929 281.19047224 319.91625977 306.80175781 C318.91110104 330.99710889 307.21061217 351.86515068 289.79907227 368.34082031 C269.76838327 386.4057951 245.89330516 390.62807109 219.82055664 390.54931641 C217.545667 390.55338825 215.27077934 390.55873354 212.99589539 390.56524658 C206.85336844 390.57885307 200.71099368 390.57364914 194.56846428 390.56410933 C188.11949143 390.55647807 181.67053102 390.56356793 175.22155762 390.56826782 C163.70251886 390.57406355 152.18355745 390.56478029 140.66453081 390.54948981 C130.24694157 390.53608888 119.82945267 390.53841768 109.41186523 390.55224609 C97.27753778 390.56834607 85.14328895 390.57425259 73.0089488 390.5654093 C66.59906578 390.56074858 60.18925168 390.56006374 53.77937317 390.57001877 C47.75129683 390.57872802 41.72340871 390.57259444 35.69535255 390.555336 C33.49202091 390.55139224 31.28867325 390.55246868 29.08534813 390.55912399 C17.51453566 390.59083408 6.78091053 390.3664754 -4.42358398 387.16113281 C-5.18609215 386.94389242 -5.94860031 386.72665203 -6.73421478 386.5028286 C-19.03774743 382.67841226 -30.52410054 376.4013808 -40.42358398 368.16113281 C-44.03782478 369.46327581 -46.80568359 371.0345774 -49.86108398 373.34863281 C-69.13081499 387.05155264 -93.03743422 392.64138442 -116.42358398 389.16113281 C-139.92776954 384.96057441 -161.56105396 373.0489273 -175.92358398 353.66113281 C-190.69264378 331.62583078 -196.45310643 305.40868624 -191.39819336 279.12792969 C-187.30286965 261.6174715 -178.09144704 247.25234712 -165.9956665 234.17880249 C-165.47684568 233.61785428 -164.95802485 233.05690608 -164.42348218 232.47895944 C-158.27684864 225.87531755 -151.90418223 219.50136784 -145.52026367 213.12841797 C-144.17167959 211.7784748 -142.82330743 210.42831988 -141.47512817 209.07797241 C-137.85376701 205.45209942 -134.22930693 201.82933977 -130.60409451 198.20731783 C-126.79202976 194.3978067 -122.98243019 190.58583153 -119.17242432 186.77426147 C-112.78267872 180.38270398 -106.39084415 173.99324126 -99.99780273 167.60498047 C-92.6215553 160.23418543 -85.2489327 152.85977935 -77.87815928 145.48351061 C-71.52554989 139.126356 -65.17098491 132.77116111 -58.81479573 126.41758573 C-55.02872271 122.63306623 -51.24331558 118.84788732 -47.45967865 115.06093216 C-43.90615604 111.50450992 -40.35017502 107.95056382 -36.79232407 104.39847183 C-35.49185967 103.09932334 -34.19223367 101.79933493 -32.89353561 100.49842072 C-21.0166681 88.60316345 -21.0166681 88.60316345 -14.89830399 83.42165184 C-13.6909408 82.38965643 -12.54669137 81.28424019 -11.42358398 80.16113281 C-11.32836571 78.09372013 -11.32836571 78.09372013 -11.67358398 75.66113281 C-11.78226807 74.70440674 -11.89095215 73.74768066 -12.00292969 72.76196289 C-12.2937811 70.27225455 -12.60169932 67.78450224 -12.92333984 65.29858398 C-14.25767539 54.68775051 -14.76708652 44.21652414 -14.73925781 33.52514648 C-14.73603793 30.93660509 -14.75989983 28.34914842 -14.78491211 25.76074219 C-14.78718058 24.08821756 -14.78789071 22.41568992 -14.78686523 20.74316406 C-14.79607498 19.98268265 -14.80528473 19.22220123 -14.81477356 18.43867493 C-14.77044291 13.29886355 -13.82642732 9.72786071 -11.42358398 5.16113281 C-7.61074042 1.62727781 -5.14545183 0.04344235 0 0 Z " fill="#63E0DB" transform="translate(192.423583984375,60.8388671875)"/>
<path d="M0 0 C0.91953964 -0.00960754 1.83907928 -0.01921509 2.78648376 -0.02911377 C3.78837234 -0.03336365 4.79026093 -0.03761353 5.82250977 -0.04199219 C6.86222427 -0.04769226 7.90193878 -0.05339233 8.97315979 -0.05926514 C11.1883136 -0.06873554 13.40348163 -0.07525717 15.61865234 -0.07910156 C18.94143159 -0.0886587 22.26355172 -0.11959781 25.58618164 -0.15136719 C61.04448722 -0.32746478 96.33518388 8.9864106 125.27954102 30.14160156 C127.53433522 31.41822683 127.53433522 31.41822683 129.91625977 30.61816406 C132.61241606 29.14141473 135.23535016 27.57215991 137.83862305 25.9375 C155.85057529 14.72453426 175.81529754 7.35065288 196.57641602 3.16113281 C197.81593018 2.89405518 199.05544434 2.62697754 200.33251953 2.35180664 C214.9104912 -0.52102068 229.65772621 -0.3332723 244.45117188 -0.28491211 C248.18220251 -0.27327709 251.91230685 -0.29391943 255.64321613 -0.32282925 C258.54725569 -0.3411868 261.45107102 -0.34090252 264.35515404 -0.33519173 C265.73179641 -0.33503931 267.10845473 -0.34101709 268.48504066 -0.3534832 C281.66873838 -0.45637227 281.66873838 -0.45637227 286.57641602 4.16113281 C290.04842296 8.11203726 290.70134207 11.39789917 290.73754883 16.56860352 C290.74715637 17.67859207 290.75676392 18.78858063 290.7666626 19.9322052 C290.77303741 21.74128609 290.77303741 21.74128609 290.77954102 23.58691406 C290.78524109 24.84005905 290.79094116 26.09320404 290.79681396 27.38432312 C290.80627917 30.05174373 290.81316532 32.71905158 290.81665039 35.38647461 C290.8230945 39.39160657 290.85717155 43.39635634 290.88891602 47.40136719 C291.06839799 90.61648843 281.03633613 132.16721116 254.57641602 167.16113281 C254.17519531 167.70753418 253.77397461 168.25393555 253.3605957 168.81689453 C242.73455509 183.2744006 230.23848561 195.80098942 215.57641602 206.16113281 C214.66828344 206.85350918 213.76015087 207.54588554 212.82449913 208.25924301 C209.08464979 210.4490827 207.00433251 210.65548294 202.70474243 210.64215088 C202.0380804 210.64556858 201.37141837 210.64898628 200.68455446 210.65250754 C198.46398045 210.65906503 196.24463141 210.63714807 194.02416992 210.61523438 C192.42724638 210.61410542 190.83032077 210.61474069 189.23339844 210.61700439 C184.90726271 210.61815062 180.58157188 210.59465626 176.25553942 210.56670856 C171.73120417 210.54167963 167.20685839 210.53935173 162.6824646 210.53460693 C154.11898531 210.52218154 145.55571062 210.48936584 136.99232137 210.44920897 C127.24148978 210.40447769 117.49064834 210.38250081 107.73973966 210.36242723 C87.68518431 210.32063282 67.63081306 210.25028924 47.57641602 210.16113281 C45.96339829 206.93509736 46.45588003 203.41403244 46.47875977 199.87207031 C46.48017471 199.05364655 46.48158966 198.23522278 46.48304749 197.39199829 C46.48865312 194.77333957 46.50120653 192.15476578 46.51391602 189.53613281 C46.51893029 187.76269655 46.52349332 185.98925894 46.52758789 184.21582031 C46.53862438 179.864225 46.55589277 175.51269331 46.57641602 171.16113281 C45.67451538 170.74492676 45.67451538 170.74492676 44.75439453 170.3203125 C41.49478206 168.58545766 39.08800606 166.01154357 36.51391602 163.41113281 C35.94318359 162.83548584 35.37245117 162.25983887 34.78442383 161.66674805 C10.74172168 136.97325093 -4.70645843 105.5411679 -11.61108398 71.97363281 C-11.77825928 71.16627686 -11.94543457 70.3589209 -12.11767578 69.52709961 C-14.43447966 57.74971482 -14.63706111 46.01594273 -14.66381836 34.05322266 C-14.6736152 31.40268615 -14.70477091 28.75289759 -14.73608398 26.10253906 C-14.7426079 24.39811651 -14.74786076 22.69368851 -14.75170898 20.98925781 C-14.76405579 20.20681702 -14.77640259 19.42437622 -14.78912354 18.6182251 C-14.76808947 13.3982468 -13.87651093 9.79378996 -11.42358398 5.16113281 C-7.61074042 1.62727781 -5.14545183 0.04344235 0 0 Z " fill="#9CDC05" transform="translate(192.423583984375,60.8388671875)"/>
<path d="M0 0 C19.119375 -0.0825 38.23875 -0.165 57.9375 -0.25 C66.94599243 -0.30462402 66.94599243 -0.30462402 76.13647461 -0.36035156 C83.54992676 -0.37841797 83.54992676 -0.37841797 87.03590393 -0.3817749 C89.43685382 -0.38786083 91.83779257 -0.40181008 94.23866272 -0.42230225 C111.52033666 -0.5622525 128.02493871 -0.27687959 143.8125 7.6875 C144.86183716 8.20231934 144.86183716 8.20231934 145.93237305 8.72753906 C169.69566276 20.78757881 184.64681311 41.48996575 193.09765625 66.2109375 C199.43565199 90.08896795 195.12949098 115.82616301 183 137 C169.98612662 157.55077211 150.04855827 172.49447397 126.42529297 178.57592773 C114.72088356 181.01669791 102.71778975 180.36864577 90.8203125 180.29296875 C88.49145727 180.28854977 86.16259905 180.28549425 83.83374023 180.28381348 C75.26411428 180.26817907 66.6945524 180.22629541 58.125 180.1875 C38.94375 180.125625 19.7625 180.06375 0 180 C0 120.6 0 61.2 0 0 Z " fill="#E0F4FF" transform="translate(317,271)"/>
<path d="M0 0 C7.02305029 5.74088886 13.3234361 12.19693456 19.71484375 18.6171875 C20.93773316 19.84194489 22.1608457 21.06647953 23.38417053 22.290802 C26.58385956 25.49428634 29.78053248 28.70076366 32.9765625 31.90789795 C36.246212 35.18782616 39.5187384 38.46488126 42.79101562 41.7421875 C49.19681119 48.15866765 55.59942049 54.578317 62 61 C60.27950596 64.64839274 58.13121776 67.23168714 55.4375 70.25 C46.23848463 80.97966432 39.93602363 93.45544808 36 107 C35.63261719 108.25876953 35.63261719 108.25876953 35.2578125 109.54296875 C29.88405971 132.69427357 35.26585282 156.69959991 47.25 176.75 C51.46859886 183.0923786 56.72587179 188.53512574 62 194 C59.57820507 201.2653848 47.7026887 206.33466361 41.0625 209.8125 C17.58971635 221.00482068 -8.00229366 221.36154881 -32.3203125 212.8359375 C-56.05567501 203.42677845 -72.72095139 186.0233104 -83.14257812 163.04589844 C-92.14681409 141.56084794 -91.97926289 115.11698332 -83.26953125 93.609375 C-78.22766856 81.88072256 -71.18024581 72.32178524 -62.54199219 62.9855957 C-62.02326916 62.42469144 -61.50454613 61.86378717 -60.97010422 61.28588581 C-54.99320329 54.86392109 -48.79479959 48.66897936 -42.578125 42.48046875 C-41.33952085 41.24373648 -40.10114233 40.00677821 -38.86297607 38.76960754 C-35.64973113 35.5601273 -32.43349221 32.35366472 -29.21655273 29.14788818 C-25.91594048 25.85762235 -22.61826188 22.56441891 -19.3203125 19.27148438 C-12.88302612 12.84482822 -6.44256312 6.42136605 0 0 Z " fill="#00C8C8" transform="translate(89,232)"/>
<path d="M0 0 C0.91953964 -0.00960754 1.83907928 -0.01921509 2.78648376 -0.02911377 C3.78837234 -0.03336365 4.79026093 -0.03761353 5.82250977 -0.04199219 C6.86222427 -0.04769226 7.90193878 -0.05339233 8.97315979 -0.05926514 C11.1883136 -0.06873554 13.40348163 -0.07525717 15.61865234 -0.07910156 C18.94143159 -0.0886587 22.26355172 -0.11959781 25.58618164 -0.15136719 C63.0272994 -0.33731207 97.92375122 10.48574171 128.57641602 32.16113281 C125.49487274 35.32448697 122.38075378 38.21000872 118.88891602 40.91113281 C106.91226121 50.3859975 95.5992754 60.79204743 86.57641602 73.16113281 C81.54694539 72.51106518 79.16823606 68.83887871 75.89282227 65.29003906 C71.88386779 61.6055868 68.00616619 60.68447998 62.56860352 60.84863281 C59.13360428 61.38745622 57.14372914 62.89234447 54.57641602 65.16113281 C51.57095185 69.56914692 50.59652594 73.9350524 51.57641602 79.16113281 C53.76282153 84.83783658 57.46758278 88.40786076 61.76391602 92.53613281 C62.41811523 93.17679687 63.07231445 93.81746094 63.74633789 94.47753906 C65.34972523 96.04581573 66.95970473 97.606615 68.57641602 99.16113281 C67.19136634 103.64217588 65.39993894 107.7080458 63.32641602 111.91113281 C57.48965365 124.18940844 53.69429868 136.83999299 50.76391602 150.09863281 C50.55686035 151.03320312 50.34980469 151.96777344 50.13647461 152.93066406 C48.79386314 159.31909675 48.03415223 165.65119418 47.57641602 172.16113281 C43.23800176 169.8318366 39.88919986 166.82211911 36.45141602 163.34863281 C35.88519531 162.77749756 35.31897461 162.2063623 34.7355957 161.61791992 C10.71562925 136.94268018 -4.71293053 105.50970312 -11.61108398 71.97363281 C-11.77825928 71.16627686 -11.94543457 70.3589209 -12.11767578 69.52709961 C-14.43447966 57.74971482 -14.63706111 46.01594273 -14.66381836 34.05322266 C-14.6736152 31.40268615 -14.70477091 28.75289759 -14.73608398 26.10253906 C-14.7426079 24.39811651 -14.74786076 22.69368851 -14.75170898 20.98925781 C-14.76405579 20.20681702 -14.77640259 19.42437622 -14.78912354 18.6182251 C-14.76808947 13.3982468 -13.87651093 9.79378996 -11.42358398 5.16113281 C-7.61074042 1.62727781 -5.14545183 0.04344235 0 0 Z " fill="#66BB00" transform="translate(192.423583984375,60.8388671875)"/>
<path d="M0 0 C1.97597307 2.9639596 2.85976701 5.61090491 3.85058594 9.00244141 C11.53928569 35.30116958 24.68588611 58.66727215 43.125 78.875 C43.59147949 79.38643555 44.05795898 79.89787109 44.53857422 80.42480469 C45.00279785 80.92141602 45.46702148 81.41802734 45.9453125 81.9296875 C46.4187207 82.44490967 46.89212891 82.96013184 47.37988281 83.4909668 C48.98018261 85.09156268 48.98018261 85.09156268 51.11230469 86.23754883 C54.32809625 88.28985411 56.56039868 90.09615107 57.45123291 93.95422363 C58.19194317 99.92742236 58.06727674 105.93011411 58 111.9375 C58.00809743 113.78452463 58.01977976 115.63153725 58.03515625 117.47851562 C58.0649083 121.98659645 58.04568518 126.49207808 58 131 C56.88778076 131.00410889 55.77556152 131.00821777 54.62963867 131.01245117 C50.40394056 131.0346355 46.17912293 131.08931187 41.95385742 131.15258789 C40.14372355 131.17543222 38.3334631 131.19008254 36.52319336 131.19555664 C13.68143154 131.27810957 -6.54738525 136.69471269 -24.984375 150.5546875 C-27 152 -27 152 -31 154 C-51.13 133.87 -71.26 113.74 -92 93 C-90.32734009 89.65468018 -89.33551522 88.08586878 -86.81417847 85.56694031 C-86.15827225 84.9068396 -85.50236603 84.24673889 -84.82658386 83.56663513 C-84.10763443 82.85330521 -83.388685 82.13997528 -82.64794922 81.4050293 C-81.88997543 80.64515717 -81.13200165 79.88528503 -80.35105896 79.10238647 C-77.84046381 76.58808289 -75.32273117 74.08106101 -72.8046875 71.57421875 C-71.05514676 69.82587047 -69.3059759 68.07715197 -67.55715942 66.32807922 C-63.88656935 62.65905444 -60.21264141 58.99341626 -56.53613281 55.33032227 C-51.8370879 50.64821067 -47.14459603 45.95960135 -42.45438957 41.26863384 C-38.83946075 37.65397788 -35.22192375 34.04194174 -31.60351944 30.43076515 C-29.87347306 28.70388926 -28.14402138 26.97641736 -26.41518784 25.24832726 C-23.98876079 22.82408422 -21.55905845 20.40317186 -19.12841797 17.9831543 C-18.42161392 17.27589706 -17.71480988 16.56863983 -16.98658752 15.83995056 C-13.03623706 11.91464105 -8.98877413 8.16474793 -4.75720406 4.54356098 C-3.10060169 3.08837041 -1.53997014 1.57717408 0 0 Z " fill="#BADBFE" transform="translate(182,140)"/>
<path d="M0 0 C3.38524227 2.25682818 6.08238513 4.1603416 7.8125 7.875 C8.65062478 12.07152618 8.92686582 15.73158526 7.8125 19.875 C6.63856506 21.44046021 6.63856506 21.44046021 5.04321289 23.19189453 C4.40616425 23.89879425 3.7691156 24.60569397 3.11276245 25.33401489 C2.35367584 26.17253998 1.59458923 27.01106506 0.8125 27.875 C-0.08965809 28.89715728 -0.99018017 29.92076001 -1.88937378 30.94552612 C-8.28078279 38.21609146 -14.80176248 45.35241702 -21.4465456 52.39228821 C-24.80846068 55.96072033 -28.12024007 59.55619955 -31.34155273 63.25244141 C-54.23821729 89.43120173 -54.23821729 89.43120173 -71.59912109 90.74609375 C-81.85162333 91.20869032 -92.04354069 90.32230141 -102.1875 88.875 C-97.73659875 83.54891787 -93.04237092 78.58155843 -88.13427734 73.67651367 C-87.34978714 72.88866486 -86.56529694 72.10081604 -85.7570343 71.28909302 C-83.18179881 68.7044133 -80.60286003 66.1234695 -78.0234375 63.54296875 C-76.22548189 61.74179805 -74.42760093 59.94055283 -72.62979126 58.13923645 C-68.87085651 54.37432827 -65.10989662 50.61145728 -61.34765625 46.84985352 C-57.00206532 42.50486518 -52.66210466 38.15430828 -48.32469785 33.80115145 C-44.14088733 29.60269303 -39.9515607 25.40976964 -35.76012039 21.21892738 C-33.98108038 19.43870604 -32.20366466 17.65685996 -30.42789841 15.87337303 C-27.95061851 13.38632536 -25.46711898 10.9056583 -22.98193359 8.42651367 C-21.88152992 7.31768074 -21.88152992 7.31768074 -20.75889587 6.18644714 C-20.0805217 5.51226746 -19.40214752 4.83808777 -18.70321655 4.14347839 C-18.11737478 3.55709186 -17.53153301 2.97070532 -16.92793846 2.36654949 C-11.80917206 -2.02021487 -6.17166379 -2.17823428 0 0 Z " fill="#C2E920" transform="translate(354.1875,182.125)"/>
<path d="M0 0 C4.64555725 1.91652495 7.87603779 4.41837315 11.4375 7.9375 C12.32308594 8.79214844 13.20867187 9.64679688 14.12109375 10.52734375 C16 13 16 13 15.98046875 15.03515625 C14.80781256 17.38514056 13.44301097 19.3905682 11.875 21.5 C7.83463842 27.10464236 4.39748135 32.98986582 1 39 C-3.39944875 36.99575371 -6.25210248 34.07921949 -9.625 30.6875 C-10.21023437 30.11837891 -10.79546875 29.54925781 -11.3984375 28.96289062 C-15.80012509 24.56625085 -17.80828335 21.4156298 -18.3125 15.0625 C-18.19249212 11.07973842 -17.21924002 8.36712279 -15 5 C-10.22082308 0.68708425 -6.4873968 -0.93955402 0 0 Z " fill="#C2E920" transform="translate(261,121)"/>
</svg>
