<?xml version="1.0" encoding="UTF-8"?>
<svg version="1.1" xmlns="http://www.w3.org/2000/svg" width="512" height="512">
<path d="M0 0 C4.02949164 3.165483 6.77750405 6.40208133 9 11 C9.85555481 11.00364563 10.71110962 11.00729126 11.59259033 11.01104736 C19.65602373 11.04891642 27.71905221 11.1057565 35.78219986 11.18390274 C39.92756991 11.22340968 44.07272652 11.25558215 48.21826172 11.27099609 C52.21910123 11.28614185 56.21935409 11.32054933 60.21993256 11.36830902 C61.7460902 11.3831445 63.27233158 11.39104226 64.7985611 11.39188385 C66.93698136 11.39424895 69.07377426 11.42128678 71.21191406 11.45410156 C73.03725677 11.46742523 73.03725677 11.46742523 74.8994751 11.48101807 C78 12 78 12 80.39212036 13.51197815 C82.66901188 17.03522436 82.55610993 20.29333972 82.51416016 24.35424805 C82.52128525 25.19559296 82.52841034 26.03693787 82.53575134 26.90377808 C82.55506871 29.68999573 82.54673849 32.47545597 82.5390625 35.26171875 C82.54897622 37.21068929 82.56092002 39.15965046 82.57479858 41.1085968 C82.60721973 46.25269518 82.61755373 51.39658102 82.62164307 56.54077148 C82.63037597 64.72683459 82.66645443 72.91272182 82.7138176 81.09864235 C82.72622626 83.93486471 82.72565842 86.77085794 82.72354126 89.60710144 C82.75553599 104.10410951 83.41743168 118.52684026 87.625 132.5 C87.88369873 133.37527344 88.14239746 134.25054687 88.40893555 135.15234375 C92.71074796 149.11265581 99.08194175 161.42827564 108 173 C108.41620605 173.54108398 108.83241211 174.08216797 109.26123047 174.63964844 C129.06148587 200.05134243 158.47271608 216.30804326 190.4375 220.375 C221.90317903 223.48664132 254.97180191 215.5979331 279.875 195.5 C281.59096907 194.00874116 283.29965844 192.50905313 285 191 C285.804375 190.3503125 286.60875 189.700625 287.4375 189.03125 C309.98713631 170.2398864 323.44689794 140.39399631 326.52294922 111.55615234 C327.23052791 103.54264773 327.1529245 95.51502736 327.16866493 87.47679329 C327.17590667 84.5469131 327.19162336 81.61719311 327.21000671 78.68736267 C327.26216025 70.36573274 327.31053661 62.04420256 327.32592773 53.72241211 C327.33599177 48.61320626 327.36525418 43.50442291 327.40724754 38.39538383 C327.41956254 36.45333482 327.42467789 34.51122626 327.42244911 32.56913948 C327.42010355 29.86211716 327.44219739 27.15631987 327.4699707 24.44946289 C327.46336929 23.64890976 327.45676788 22.84835663 327.44996643 22.02354431 C327.50737947 18.62295796 327.75110875 16.38578508 329.61283875 13.50007629 C332.80836879 11.49202641 334.95846042 11.52051215 338.72460938 11.54931641 C339.39176468 11.54861649 340.05891998 11.54791656 340.74629211 11.54719543 C342.19061751 11.54791123 343.63496043 11.55760101 345.07917786 11.57527542 C347.36615045 11.60182252 349.65174294 11.60185286 351.93884277 11.59457397 C358.43877941 11.57892073 364.93823358 11.61332828 371.43798828 11.66015625 C375.41748719 11.6869994 379.39615776 11.68487607 383.37568665 11.66569138 C384.8907681 11.66460924 386.40590362 11.67507033 387.92082214 11.69731522 C390.03994778 11.72833715 392.15614655 11.7228286 394.27539062 11.70947266 C396.08263611 11.72090805 396.08263611 11.72090805 397.9263916 11.73257446 C401.27895412 11.26886307 401.27895412 11.26886307 403.31555176 8.06991577 C404.14935364 6.55030746 404.14935364 6.55030746 405 5 C410.02388805 -0.48060514 414.92720993 -2.62288981 422.375 -3.3125 C430.00740096 -2.6545344 435.14861171 -0.54890235 440.4921875 4.98828125 C445.73337163 11.98105283 445.8521095 18.53700334 445 27 C443.33735666 33.27449925 439.30910907 37.44500186 434 41 C427.59461894 44.20269053 419.89675617 43.90226832 413.1875 41.8125 C408.82301715 39.33073524 405.00636335 36.9856607 402.67070007 32.37715149 C401.22294309 29.77045094 401.22294309 29.77045094 398.51325989 29.36076355 C397.52508774 29.35410172 396.53691559 29.34743988 395.51879883 29.34057617 C394.38220825 29.32087769 393.24561768 29.3011792 392.07458496 29.28088379 C390.88079224 29.28487183 389.68699951 29.28885986 388.45703125 29.29296875 C386.81027405 29.27103455 386.81027405 29.27103455 385.13024902 29.24865723 C381.02455583 29.20124411 376.918456 29.19697994 372.8125 29.1875 C359.0453125 29.0946875 359.0453125 29.0946875 345 29 C345 52.1 345 75.2 345 99 C378 99 411 99 445 99 C445 109.89 445 120.78 445 132 C432.6311671 137.62219677 432.6311671 137.62219677 427.30859375 139.640625 C426.18001953 140.07117188 425.05144531 140.50171875 423.88867188 140.9453125 C422.74978516 141.37585938 421.61089844 141.80640625 420.4375 142.25 C418.12338626 143.12938864 415.80956813 144.00955571 413.49609375 144.890625 C412.48732178 145.27250977 411.4785498 145.65439453 410.43920898 146.04785156 C408.04317096 146.94034824 408.04317096 146.94034824 406 148 C405.25574868 149.77398306 405.25574868 149.77398306 404.703125 151.9453125 C404.46996582 152.76741211 404.23680664 153.58951172 403.99658203 154.43652344 C403.75020996 155.3237207 403.50383789 156.21091797 403.25 157.125 C399.37307406 170.50075062 394.25528618 182.94956021 387.9296875 195.34375 C387.6212793 195.95605469 387.31287109 196.56835938 386.99511719 197.19921875 C386 199 386 199 384.76269531 200.70703125 C383.13657079 203.02435857 381.90853462 205.02598045 382.18017578 207.91870117 C382.94397832 210.38595029 383.92231211 212.651204 385 215 C385.49435547 216.11197754 385.98871094 217.22395508 386.49804688 218.36962891 C388.51685441 222.86749063 390.58759595 227.34125447 392.68603516 231.80249023 C393.5875244 233.72438555 394.47437094 235.6525012 395.359375 237.58203125 C395.89014648 238.71874268 396.42091797 239.8554541 396.96777344 241.02661133 C398.08119792 244.23389533 398.19363574 244.9456 397 248 C395.24298096 250.15815735 395.24298096 250.15815735 392.92675781 252.5090332 C392.06205872 253.39287186 391.19735962 254.27671051 390.30645752 255.18733215 C389.35595445 256.14242042 388.40482827 257.09688893 387.453125 258.05078125 C386.47981803 259.03372958 385.50673772 260.01690238 384.53387451 261.00028992 C382.49470445 263.05740809 380.44944217 265.10824435 378.40039062 267.15551758 C375.77430756 269.78129521 373.1694941 272.42713071 370.5695076 275.07871723 C368.56715015 277.11440261 366.55133312 279.13633386 364.53145599 281.15462303 C363.56495639 282.12466536 362.60332396 283.09958227 361.64670563 284.0793705 C360.30904759 285.44637153 358.95036219 286.79270091 357.59082031 288.13793945 C356.8232843 288.90975052 356.05574829 289.68156158 355.26495361 290.47676086 C353 292 353 292 350.43865967 291.83651733 C346.93463845 290.63455606 343.59954371 289.12114407 340.25 287.55078125 C338.73991892 286.86059342 337.22949152 286.17116289 335.71875 285.48242188 C333.35166331 284.39709687 330.98746241 283.30663269 328.62890625 282.20288086 C326.34290509 281.13619126 324.0476969 280.09198806 321.75 279.05078125 C320.6966748 278.54784294 320.6966748 278.54784294 319.62207031 278.03474426 C316.47859606 276.62799283 314.60567445 275.84703265 311.20727539 276.70532227 C310.11467407 277.34618774 310.11467407 277.34618774 309 278 C307.98808594 278.54914063 306.97617187 279.09828125 305.93359375 279.6640625 C305.0979187 280.13416748 305.0979187 280.13416748 304.24536133 280.61376953 C297.77741252 284.23162827 291.1802385 287.34241068 284.3125 290.125 C283.47662354 290.47199951 282.64074707 290.81899902 281.77954102 291.17651367 C277.40574585 292.92061914 273.28518748 294.21693205 268.62890625 294.95703125 C259.20504395 296.46895724 259.20504395 296.46895724 252.23974609 302.49316406 C249.0163938 308.73553571 246.8792509 315.30952034 244.89160156 322.03173828 C243.76518824 325.78171998 242.38851646 329.3643526 240.9375 333 C240.57527344 333.969375 240.21304687 334.93875 239.83984375 335.9375 C239 338 239 338 238 339 C235.94443339 339.09413687 233.88559819 339.11742998 231.82788086 339.11352539 C230.86205833 339.11374443 230.86205833 339.11374443 229.87672424 339.1139679 C227.73939697 339.11326885 225.60215587 339.10547691 223.46484375 339.09765625 C221.98653715 339.09579204 220.50822993 339.09436815 219.02992249 339.09336853 C215.13201198 339.08954359 211.23413851 339.07971352 207.33624268 339.06866455 C203.36153667 339.05844992 199.38682471 339.0538708 195.41210938 339.04882812 C187.608056 339.03809122 179.80403318 339.02101509 172 339 C169.30543073 333.15542684 166.64247962 327.32911588 164.359375 321.30859375 C163.92882812 320.18001953 163.49828125 319.05144531 163.0546875 317.88867188 C162.62414062 316.74978516 162.19359375 315.61089844 161.75 314.4375 C160.87061136 312.12338626 159.99044429 309.80956813 159.109375 307.49609375 C158.72749023 306.48732178 158.34560547 305.4785498 157.95214844 304.43920898 C157.05965176 302.04317096 157.05965176 302.04317096 156 300 C154.22601694 299.25574868 154.22601694 299.25574868 152.0546875 298.703125 C151.23258789 298.46996582 150.41048828 298.23680664 149.56347656 297.99658203 C148.6762793 297.75020996 147.78908203 297.50383789 146.875 297.25 C133.49924938 293.37307406 121.05043979 288.25528618 108.65625 281.9296875 C108.04394531 281.6212793 107.43164062 281.31287109 106.80078125 280.99511719 C105 280 105 280 103.29296875 278.76269531 C100.97564143 277.13657079 98.97401955 275.90853462 96.08129883 276.18017578 C93.61404971 276.94397832 91.348796 277.92231211 89 279 C87.88802246 279.49435547 86.77604492 279.98871094 85.63037109 280.49804688 C81.13250937 282.51685441 76.65874553 284.58759595 72.19750977 286.68603516 C70.27561445 287.5875244 68.3474988 288.47437094 66.41796875 289.359375 C65.28125732 289.89014648 64.1445459 290.42091797 62.97338867 290.96777344 C59.76610467 292.08119792 59.0544 292.19363574 56 291 C53.84184265 289.24298096 53.84184265 289.24298096 51.4909668 286.92675781 C50.60712814 286.06205872 49.72328949 285.19735962 48.81266785 284.30645752 C47.85757958 283.35595445 46.90311107 282.40482827 45.94921875 281.453125 C44.96627042 280.47981803 43.98309762 279.50673772 42.99971008 278.53387451 C40.94259191 276.49470445 38.89175565 274.44944217 36.84448242 272.40039062 C34.21870479 269.77430756 31.57286929 267.1694941 28.92128277 264.5695076 C26.88559739 262.56715015 24.86366614 260.55133312 22.84537697 258.53145599 C21.87533464 257.56495639 20.90041773 256.60332396 19.9206295 255.64670563 C18.55362847 254.30904759 17.20729909 252.95036219 15.86206055 251.59082031 C14.70434395 250.4395163 14.70434395 250.4395163 13.52323914 249.26495361 C12 247 12 247 12.16348267 244.43865967 C13.36544394 240.93463845 14.87885593 237.59954371 16.44921875 234.25 C17.13940658 232.73991892 17.82883711 231.22949152 18.51757812 229.71875 C19.60290313 227.35166331 20.69336731 224.98746241 21.79711914 222.62890625 C22.86380874 220.34290509 23.90801194 218.0476969 24.94921875 215.75 C25.28451096 215.0477832 25.61980316 214.34556641 25.96525574 213.62207031 C27.37200717 210.47859606 28.15296735 208.60567445 27.29467773 205.20727539 C26.86743408 204.47887451 26.44019043 203.75047363 26 203 C25.45085937 201.98808594 24.90171875 200.97617187 24.3359375 199.93359375 C24.02253418 199.37647705 23.70913086 198.81936035 23.38623047 198.24536133 C19.76837173 191.77741252 16.65758932 185.1802385 13.875 178.3125 C13.35450073 177.0586853 13.35450073 177.0586853 12.82348633 175.77954102 C11.07938086 171.40574585 9.78306795 167.28518748 9.04296875 162.62890625 C7.53104276 153.20504395 7.53104276 153.20504395 1.50683594 146.23974609 C-4.73553571 143.0163938 -11.30952034 140.8792509 -18.03173828 138.89160156 C-21.78171998 137.76518824 -25.3643526 136.38851646 -29 134.9375 C-29.969375 134.57527344 -30.93875 134.21304688 -31.9375 133.83984375 C-34 133 -34 133 -35 132 C-35 121.11 -35 110.22 -35 99 C-2 99 31 99 65 99 C65 75.9 65 52.8 65 29 C55.88375 29 46.7675 29 37.375 29 C33.07154541 28.9690625 33.07154541 28.9690625 28.68115234 28.9375 C26.3993875 28.95518688 24.11764278 28.97582121 21.8359375 29 C20.65749268 28.98066406 19.47904785 28.96132812 18.26489258 28.94140625 C12.13576777 28.90006788 12.13576777 28.90006788 6.98223877 31.76196289 C5.37054324 33.85406033 5.37054324 33.85406033 4.16641235 36.04711914 C2.12591178 39.46345343 -1.10139437 41.40191916 -4.84765625 42.58203125 C-11.93313288 43.9579768 -18.66909293 43.59992755 -25 40 C-30.09146802 36.50585528 -33.34005008 32.94428994 -35 27 C-35.91949137 19.63547568 -36.20067535 12.78349215 -31.55078125 6.6796875 C-22.79015318 -2.80915398 -12.07624418 -6.09136832 0 0 Z " fill="#FEE076" transform="translate(51,157)"/>
<path d="M0 0 C5.73224406 3.45656777 9.40390771 9.25914604 11.5 15.5 C12.65555651 23.41860302 11.23860031 30.01976617 6.5 36.5 C0.23652695 42.5 0.23652695 42.5 -3.5 42.5 C-3.5 107.18 -3.5 171.86 -3.5 238.5 C3.43 238.5 10.36 238.5 17.5 238.5 C17.49000725 235.67904533 17.49000725 235.67904533 17.47981262 232.80110168 C17.41906241 215.09915281 17.37387646 197.39722497 17.34456348 179.6951952 C17.32909206 170.59387336 17.30799727 161.49262932 17.27368164 152.39135742 C17.24378772 144.45904399 17.224427 136.5267869 17.21773452 128.5944187 C17.21382224 124.39395307 17.20462215 120.19364863 17.18280983 115.99323463 C17.16244477 112.03948184 17.15616621 108.08595663 17.16067696 104.13215637 C17.15985176 102.68132986 17.15388609 101.23049573 17.14238358 99.77971458 C17.12744103 97.79780462 17.1328379 95.8157725 17.13923645 93.83381653 C17.13647107 92.72489957 17.13370569 91.61598261 17.13085651 90.4734621 C17.55301473 87.07296472 18.45959633 85.23181297 20.5 82.5 C24.43080371 79.87946419 27.75597181 80.23751835 32.31420898 80.27636719 C33.66585144 80.27575539 33.66585144 80.27575539 35.0447998 80.27513123 C37.002587 80.27493358 38.96037812 80.27897745 40.91814995 80.28673553 C44.01547997 80.29693886 47.11240622 80.29159305 50.20973206 80.28131104 C59.01627696 80.25329483 67.82259476 80.24089285 76.62915039 80.27001953 C82.01449157 80.28671695 87.39911087 80.27448337 92.78437996 80.24356842 C94.83810176 80.23745165 96.89188676 80.24236705 98.94555473 80.25844574 C101.8166459 80.27998603 104.68537208 80.26479721 107.55639648 80.24121094 C108.40692093 80.25657394 109.25744537 80.27193695 110.13374329 80.2877655 C112.41251064 80.24772008 114.31818679 80.16090786 116.5 79.5 C119.04145126 76.68889006 119.04145126 76.68889006 120.5 73.5 C124.48928716 69.29645445 128.76576588 66.80108084 134.55078125 66.1640625 C142.53016343 66.06850104 148.30779376 66.5422572 154.24609375 72.1484375 C159.94969465 78.4128241 160.9694597 83.88948279 160.80859375 92.2734375 C160.19556226 98.6831085 157.73741237 102.62661084 153 106.875 C147.26476382 111.54139671 141.50543139 112.95124089 134.16015625 112.2890625 C127.30148786 111.04629524 122.08658541 108.06722354 118.0625 102.3125 C116.5 99.5 116.5 99.5 116.5 97.5 C89.44 97.5 62.38 97.5 34.5 97.5 C34.5 144.03 34.5 190.56 34.5 238.5 C43.74 238.5 52.98 238.5 62.5 238.5 C60.67855138 262.17883202 53.51997451 280.56762178 35.328125 296.33203125 C19.26107541 308.64862313 -0.18677121 314.32734742 -20.3359375 312.0703125 C-36.2283344 309.8778134 -49.29365989 303.92233655 -61.5 293.5 C-62.15226562 292.95988281 -62.80453125 292.41976563 -63.4765625 291.86328125 C-77.20885043 279.4164358 -83.23755982 261.3236141 -85.5 243.5 C-85.5 241.85 -85.5 240.2 -85.5 238.5 C-76.26 238.5 -67.02 238.5 -57.5 238.5 C-57.5 191.97 -57.5 145.44 -57.5 97.5 C-84.56 97.5 -111.62 97.5 -139.5 97.5 C-140.16 99.15 -140.82 100.8 -141.5 102.5 C-145.65085555 107.66530231 -150.01625509 110.85557608 -156.5625 112.125 C-164.42549016 112.96425181 -170.20576703 111.53538638 -176.5 106.5 C-181.68916458 101.28208658 -183.78701245 96.5344607 -183.875 89.1875 C-183.74357189 82.33777621 -182.58283116 77.76546334 -177.8515625 72.75390625 C-171.5871759 67.05030535 -166.11051721 66.0305403 -157.7265625 66.19140625 C-151.23958016 66.81183192 -147.32760929 69.30663361 -143.0625 74.125 C-141.63989467 75.90034943 -140.51813759 77.46372482 -139.5 79.5 C-138.34599197 79.50364563 -137.19198395 79.50729126 -136.00300598 79.51104736 C-125.12916352 79.54798374 -114.25560462 79.60574167 -103.38197803 79.68390274 C-97.79166805 79.72341696 -92.20151651 79.75558618 -86.61108398 79.77099609 C-81.21628386 79.78613655 -75.82191925 79.82053598 -70.42731285 79.86830902 C-68.36887077 79.88314972 -66.31036652 79.89104255 -64.25187111 79.89188385 C-61.36902015 79.89424714 -58.487379 79.92127558 -55.60473633 79.95410156 C-54.32727287 79.94655602 -54.32727287 79.94655602 -53.02400208 79.93885803 C-49.03259594 80.00920565 -46.96870238 80.2121233 -43.49345398 82.34661865 C-40.20949182 85.89404083 -40.37589429 88.95261677 -40.37974548 93.5933075 C-40.37768349 95.50529938 -40.37768349 95.50529938 -40.37557983 97.45591736 C-40.37911899 98.87124657 -40.3827538 100.28657555 -40.38647461 101.7019043 C-40.38675664 103.19001259 -40.38659844 104.67812103 -40.3860321 106.16622925 C-40.38574473 110.20932323 -40.39163176 114.25238766 -40.39860606 118.29547477 C-40.4048496 122.51955755 -40.40544419 126.74364098 -40.40663147 130.96772766 C-40.40974183 138.96810131 -40.41795125 146.96846133 -40.42798096 154.96882898 C-40.43915125 164.07634129 -40.44465486 173.18385425 -40.44967639 182.2913717 C-40.4601341 201.02758909 -40.47792885 219.76379295 -40.5 238.5 C-33.57 238.5 -26.64 238.5 -19.5 238.5 C-19.5 173.82 -19.5 109.14 -19.5 42.5 C-21.15 41.84 -22.8 41.18 -24.5 40.5 C-29.93617523 37.23829486 -32.48342053 32.35219594 -34.5 26.5 C-35.73548643 19.5516243 -34.55149931 13.86847591 -31.1328125 7.734375 C-24.09940117 -1.89029313 -10.95010825 -4.82655257 0 0 Z " fill="#FFE076" transform="translate(267.5,17.5)"/>
<path d="M0 0 C5.62190491 3.35174881 9.56334243 8.22193737 11.5625 14.4375 C12.39888411 22.03303474 12.41486292 29.22704133 7.5625 35.4375 C2.35895525 40.83421578 -2.50651842 43.73364449 -10.00390625 44.3984375 C-17.22291441 44.51431243 -23.1872924 42.42927769 -28.4375 37.4375 C-32.4375 32.62093195 -32.4375 32.62093195 -32.4375 29.4375 C-59.4975 29.4375 -86.5575 29.4375 -114.4375 29.4375 C-114.4375 75.9675 -114.4375 122.4975 -114.4375 170.4375 C-120.0475 170.4375 -125.6575 170.4375 -131.4375 170.4375 C-131.50693527 150.83591936 -131.56047789 131.23437343 -131.59293652 111.6326952 C-131.60840794 102.53137336 -131.62950273 93.43012932 -131.66381836 84.32885742 C-131.69371228 76.39654399 -131.713073 68.4642869 -131.71976548 60.5319187 C-131.72367776 56.33145307 -131.73287785 52.13114863 -131.75469017 47.93073463 C-131.77505523 43.97698184 -131.78133379 40.02345663 -131.77682304 36.06965637 C-131.77764824 34.61882986 -131.78361391 33.16799573 -131.79511642 31.71721458 C-131.81005897 29.73530462 -131.8046621 27.7532725 -131.79826355 25.77131653 C-131.80102893 24.66239957 -131.80379431 23.55348261 -131.80664349 22.4109621 C-131.38448527 19.01046472 -130.47790367 17.16931297 -128.4375 14.4375 C-124.50669629 11.81696419 -121.18152819 12.17501835 -116.62329102 12.21386719 C-115.27164856 12.21325539 -115.27164856 12.21325539 -113.8927002 12.21263123 C-111.934913 12.21243358 -109.97712188 12.21647745 -108.01935005 12.22423553 C-104.92202003 12.23443886 -101.82509378 12.22909305 -98.72776794 12.21881104 C-89.92122304 12.19079483 -81.11490524 12.17839285 -72.30834961 12.20751953 C-66.92300843 12.22421695 -61.53838913 12.21198337 -56.15312004 12.18106842 C-54.09939824 12.17495165 -52.04561324 12.17986705 -49.99194527 12.19594574 C-47.1208541 12.21748603 -44.25212792 12.20229721 -41.38110352 12.17871094 C-40.10531685 12.20175545 -40.10531685 12.20175545 -38.80375671 12.2252655 C-36.52498936 12.18522008 -34.61931321 12.09840786 -32.4375 11.4375 C-29.89604874 8.62639006 -29.89604874 8.62639006 -28.4375 5.4375 C-21.15357718 -2.23763095 -9.75813891 -4.3892787 0 0 Z " fill="#EBEFF0" transform="translate(416.4375,85.5625)"/>
<path d="M0 0 C4.53512325 2.68071904 8.20833648 6.72917296 10.5625 11.4375 C11.71650803 11.44114563 12.87051605 11.44479126 14.05949402 11.44854736 C24.93333648 11.48548374 35.80689538 11.54324167 46.68052197 11.62140274 C52.27083195 11.66091696 57.86098349 11.69308618 63.45141602 11.70849609 C68.84621614 11.72363655 74.24058075 11.75803598 79.63518715 11.80580902 C81.69362923 11.82064972 83.75213348 11.82854255 85.81062889 11.82938385 C88.69347985 11.83174714 91.575121 11.85877558 94.45776367 11.89160156 C95.73522713 11.88405602 95.73522713 11.88405602 97.03849792 11.87635803 C101.02990406 11.94670565 103.09379762 12.1496233 106.56904602 14.28411865 C109.85300818 17.83154083 109.68660571 20.89011677 109.68275452 25.5308075 C109.68481651 27.44279938 109.68481651 27.44279938 109.68692017 29.39341736 C109.68338101 30.80874657 109.6797462 32.22407555 109.67602539 33.6394043 C109.67574336 35.12751259 109.67590156 36.61562103 109.6764679 38.10372925 C109.67675527 42.14682323 109.67086824 46.18988766 109.66389394 50.23297477 C109.6576504 54.45705755 109.65705581 58.68114098 109.65586853 62.90522766 C109.65275817 70.90560131 109.64454875 78.90596133 109.63451904 86.90632898 C109.62334875 96.01384129 109.61784514 105.12135425 109.61282361 114.2288717 C109.6023659 132.96508909 109.58457115 151.70129295 109.5625 170.4375 C103.9525 170.4375 98.3425 170.4375 92.5625 170.4375 C92.5625 123.9075 92.5625 77.3775 92.5625 29.4375 C65.5025 29.4375 38.4425 29.4375 10.5625 29.4375 C9.9025 31.0875 9.2425 32.7375 8.5625 34.4375 C4.41164445 39.60280231 0.04624491 42.79307608 -6.5 44.0625 C-14.36299016 44.90175181 -20.14326703 43.47288638 -26.4375 38.4375 C-31.62666458 33.21958658 -33.72451245 28.4719607 -33.8125 21.125 C-33.68107189 14.27527621 -32.52033116 9.70296334 -27.7890625 4.69140625 C-20.22452675 -2.1959549 -9.60592784 -4.3208131 0 0 Z " fill="#EBEFF1" transform="translate(117.4375,85.5625)"/>
<path d="M0 0 C5.73224406 3.45656777 9.40390771 9.25914604 11.5 15.5 C12.65555651 23.41860302 11.23860031 30.01976617 6.5 36.5 C0.23652695 42.5 0.23652695 42.5 -3.5 42.5 C-3.5 107.18 -3.5 171.86 -3.5 238.5 C-8.78 238.5 -14.06 238.5 -19.5 238.5 C-19.5 173.82 -19.5 109.14 -19.5 42.5 C-21.15 41.84 -22.8 41.18 -24.5 40.5 C-29.93617523 37.23829486 -32.48342053 32.35219594 -34.5 26.5 C-35.73548643 19.5516243 -34.55149931 13.86847591 -31.1328125 7.734375 C-24.09940117 -1.89029313 -10.95010825 -4.82655257 0 0 Z " fill="#EBEEF1" transform="translate(267.5,17.5)"/>
<path d="M0 0 C4.70241301 3.59489489 7.71766086 7.51837022 10 13 C10.89342797 19.93815234 11.05415528 27.19130261 7.33203125 33.3203125 C3.48175869 38.1754949 -0.80879079 41.80938284 -7 43 C-15.26686833 43.68995107 -21.53747348 42.82761836 -28.25 37.625 C-31 35 -31 35 -32.32929993 32.37715149 C-33.77705691 29.77045094 -33.77705691 29.77045094 -36.48674011 29.36076355 C-37.47491226 29.35410172 -38.46308441 29.34743988 -39.48120117 29.34057617 C-40.61779175 29.32087769 -41.75438232 29.3011792 -42.92541504 29.28088379 C-44.11920776 29.28487183 -45.31300049 29.28885986 -46.54296875 29.29296875 C-48.18972595 29.27103455 -48.18972595 29.27103455 -49.86975098 29.24865723 C-53.97544417 29.20124411 -58.081544 29.19697994 -62.1875 29.1875 C-75.9546875 29.0946875 -75.9546875 29.0946875 -90 29 C-90 52.1 -90 75.2 -90 99 C-95.61 99 -101.22 99 -107 99 C-107.09033596 88.24724065 -107.16373602 77.49473294 -107.20724869 66.74168015 C-107.22813162 61.74870466 -107.25646222 56.75600203 -107.30175781 51.76318359 C-107.34519028 46.94563359 -107.36913178 42.1283462 -107.37950897 37.31061554 C-107.38690502 35.47176224 -107.40134769 33.63292346 -107.42292023 31.79418182 C-107.45192002 29.2202183 -107.4559575 26.64734255 -107.45410156 24.07324219 C-107.46848267 23.31151199 -107.48286377 22.5497818 -107.49768066 21.76496887 C-107.4717058 18.43997281 -107.21940487 16.33787617 -105.39190674 13.52359009 C-102.19363469 11.48636367 -100.05865362 11.52038126 -96.27539062 11.54931641 C-95.60823532 11.54861649 -94.94108002 11.54791656 -94.25370789 11.54719543 C-92.80938249 11.54791123 -91.36503957 11.55760101 -89.92082214 11.57527542 C-87.63384955 11.60182252 -85.34825706 11.60185286 -83.06115723 11.59457397 C-76.56122059 11.57892073 -70.06176642 11.61332828 -63.56201172 11.66015625 C-59.58251281 11.6869994 -55.60384224 11.68487607 -51.62431335 11.66569138 C-50.1092319 11.66460924 -48.59409638 11.67507033 -47.07917786 11.69731522 C-44.96005222 11.72833715 -42.84385345 11.7228286 -40.72460938 11.70947266 C-38.91736389 11.72090805 -38.91736389 11.72090805 -37.0736084 11.73257446 C-33.72104588 11.26886307 -33.72104588 11.26886307 -31.68444824 8.06991577 C-31.12858032 7.05684357 -30.5727124 6.04377136 -30 5 C-21.88610602 -3.85152071 -10.67175961 -5.3547345 0 0 Z " fill="#EBEFF0" transform="translate(486,157)"/>
<path d="M0 0 C4.02949164 3.165483 6.77750405 6.40208133 9 11 C9.85555481 11.00364563 10.71110962 11.00729126 11.59259033 11.01104736 C19.65602373 11.04891642 27.71905221 11.1057565 35.78219986 11.18390274 C39.92756991 11.22340968 44.07272652 11.25558215 48.21826172 11.27099609 C52.21910123 11.28614185 56.21935409 11.32054933 60.21993256 11.36830902 C61.7460902 11.3831445 63.27233158 11.39104226 64.7985611 11.39188385 C66.93698136 11.39424895 69.07377426 11.42128678 71.21191406 11.45410156 C73.03725677 11.46742523 73.03725677 11.46742523 74.8994751 11.48101807 C78 12 78 12 80.39587402 13.52954102 C82.63561395 16.97888708 82.52919254 20.09586556 82.45410156 24.07324219 C82.45468567 24.88337265 82.45526978 25.69350311 82.45587158 26.52818298 C82.45308852 29.20151871 82.4219869 31.87373447 82.390625 34.546875 C82.38316338 36.40203238 82.37747007 38.25719764 82.37347412 40.11236572 C82.35821155 44.99190077 82.31892436 49.87095853 82.2746582 54.75030518 C82.23371894 59.73060652 82.21546598 64.71098509 82.1953125 69.69140625 C82.15243058 79.4611808 82.08207562 89.23047601 82 99 C76.39 99 70.78 99 65 99 C65 75.9 65 52.8 65 29 C55.88375 29 46.7675 29 37.375 29 C33.07154541 28.9690625 33.07154541 28.9690625 28.68115234 28.9375 C26.3993875 28.95518688 24.11764278 28.97582121 21.8359375 29 C20.65749268 28.98066406 19.47904785 28.96132812 18.26489258 28.94140625 C12.13576777 28.90006788 12.13576777 28.90006788 6.98223877 31.76196289 C5.37054324 33.85406033 5.37054324 33.85406033 4.16641235 36.04711914 C2.12591178 39.46345343 -1.10139437 41.40191916 -4.84765625 42.58203125 C-11.93313288 43.9579768 -18.66909293 43.59992755 -25 40 C-30.09146802 36.50585528 -33.34005008 32.94428994 -35 27 C-35.91949137 19.63547568 -36.20067535 12.78349215 -31.55078125 6.6796875 C-22.79015318 -2.80915398 -12.07624418 -6.09136832 0 0 Z " fill="#EBEFF0" transform="translate(51,157)"/>
<path d="M0 0 C5.28 0 10.56 0 16 0 C16 10.89 16 21.78 16 33 C3.6311671 38.62219677 3.6311671 38.62219677 -1.69140625 40.640625 C-2.81998047 41.07117188 -3.94855469 41.50171875 -5.11132812 41.9453125 C-6.25021484 42.37585938 -7.38910156 42.80640625 -8.5625 43.25 C-10.87661374 44.12938864 -13.19043187 45.00955571 -15.50390625 45.890625 C-16.51267822 46.27250977 -17.5214502 46.65439453 -18.56079102 47.04785156 C-20.95682904 47.94034824 -20.95682904 47.94034824 -23 49 C-23.74425132 50.77398306 -23.74425132 50.77398306 -24.296875 52.9453125 C-24.53003418 53.76741211 -24.76319336 54.58951172 -25.00341797 55.43652344 C-25.24979004 56.3237207 -25.49616211 57.21091797 -25.75 58.125 C-29.62692594 71.50075062 -34.74471382 83.94956021 -41.0703125 96.34375 C-41.3787207 96.95605469 -41.68712891 97.56835938 -42.00488281 98.19921875 C-43 100 -43 100 -44.23730469 101.70703125 C-45.86342921 104.02435857 -47.09146538 106.02598045 -46.81982422 108.91870117 C-46.05602168 111.38595029 -45.07768789 113.651204 -44 116 C-43.50564453 117.11197754 -43.01128906 118.22395508 -42.50195312 119.36962891 C-40.48314559 123.86749063 -38.41240405 128.34125447 -36.31396484 132.80249023 C-35.4124756 134.72438555 -34.52562906 136.6525012 -33.640625 138.58203125 C-33.10985352 139.71874268 -32.57908203 140.8554541 -32.03222656 142.02661133 C-30.91880208 145.23389533 -30.80636426 145.9456 -32 149 C-33.75701904 151.15815735 -33.75701904 151.15815735 -36.07324219 153.5090332 C-36.93794128 154.39287186 -37.80264038 155.27671051 -38.69354248 156.18733215 C-39.64404555 157.14242042 -40.59517173 158.09688893 -41.546875 159.05078125 C-42.52018197 160.03372958 -43.49326228 161.01690238 -44.46612549 162.00028992 C-46.50529555 164.05740809 -48.55055783 166.10824435 -50.59960938 168.15551758 C-53.22569244 170.78129521 -55.8305059 173.42713071 -58.4304924 176.07871723 C-60.43284985 178.11440261 -62.44866688 180.13633386 -64.46854401 182.15462303 C-65.43504361 183.12466536 -66.39667604 184.09958227 -67.35329437 185.0793705 C-68.69095241 186.44637153 -70.04963781 187.79270091 -71.40917969 189.13793945 C-72.1767157 189.90975052 -72.94425171 190.68156158 -73.73504639 191.47676086 C-76 193 -76 193 -78.66070557 192.78849792 C-81.88438683 191.70190278 -84.89800643 190.39893828 -88 189 C-86.58542624 185.76762255 -84.89732249 183.68251813 -82.3605957 181.24462891 C-81.61675125 180.52352936 -80.8729068 179.80242981 -80.10652161 179.05947876 C-79.30437729 178.28961639 -78.50223297 177.51975403 -77.67578125 176.7265625 C-75.99080572 175.08147729 -74.3065835 173.43562022 -72.62304688 171.7890625 C-69.96397923 169.1981887 -67.30008416 166.61307214 -64.62280273 164.04101562 C-62.04128513 161.55607653 -59.4822406 159.04973898 -56.92578125 156.5390625 C-56.11756424 155.7732486 -55.30934723 155.00743469 -54.47663879 154.21841431 C-50.24020131 150.27154001 -50.24020131 150.27154001 -48.7890625 144.94311523 C-50.25900785 141.37049603 -51.75637439 137.84287335 -53.44921875 134.37109375 C-54.1392606 132.90978306 -54.82869584 131.4481858 -55.51757812 129.98632812 C-56.60352728 127.70285463 -57.69483179 125.42236377 -58.79711914 123.14672852 C-59.8636117 120.93697114 -60.90770907 118.71771156 -61.94921875 116.49609375 C-62.45215706 115.48028481 -62.45215706 115.48028481 -62.96525574 114.44395447 C-64.38953214 111.37272048 -65.1472647 109.58496523 -64.30615234 106.24389648 C-63.87512207 105.50341064 -63.4440918 104.7629248 -63 104 C-62.39027344 102.87851562 -61.78054688 101.75703125 -61.15234375 100.6015625 C-60.79881836 99.96919678 -60.44529297 99.33683105 -60.08105469 98.68530273 C-55.89724048 91.1474701 -52.38736551 83.46669192 -49.25 75.4375 C-48.86900146 74.46272705 -48.48800293 73.4879541 -48.09545898 72.48364258 C-46.41187121 68.0691726 -44.85302383 63.68540054 -43.640625 59.1171875 C-43.44178711 58.38314697 -43.24294922 57.64910645 -43.03808594 56.89282227 C-42.53952533 54.96531095 -42.09546381 53.02392563 -41.65625 51.08203125 C-39.15626369 46.42993407 -35.81929599 45.73860678 -31 44 C-29.16937904 43.26243195 -27.33894524 42.52436997 -25.51145935 41.77906799 C-22.16153327 40.4158596 -18.79832226 39.08608328 -15.4375 37.75 C-10.673125 35.8525 -5.90875 33.955 -1 32 C-0.67 21.44 -0.34 10.88 0 0 Z " fill="#FFD064" transform="translate(480,256)"/>
<path d="M0 0 C5.28 0 10.56 0 16 0 C16.14695313 1.41667969 16.29390625 2.83335937 16.4453125 4.29296875 C19.31950553 29.98927853 26.0543932 53.30960288 42 74 C42.41620605 74.54108398 42.83241211 75.08216797 43.26123047 75.63964844 C63.24955109 101.29270576 92.27161235 116.7375031 124.3125 121.375 C126.20650158 121.59937649 128.10175153 121.81496065 130 122 C130 122.33 130 122.66 130 123 C94.91775373 124.05013376 63.21686363 113.44798376 37.33374023 89.30834961 C17.95326573 70.62849143 6.01848133 47.39664475 1 21 C0.8040625 20.01386719 0.608125 19.02773438 0.40625 18.01171875 C-0.08490748 14.37054167 -0.10829349 10.78928932 -0.0625 7.125 C-0.041875 4.77375 -0.02125 2.4225 0 0 Z " fill="#FED064" transform="translate(117,256)"/>
<path d="M0 0 C5.73224406 3.45656777 9.40390771 9.25914604 11.5 15.5 C12.6574712 23.43172372 11.22601474 30.00172973 6.5 36.5 C0.9059539 42.04893283 -4.07669966 43.6159318 -11.875 43.75 C-18.13935055 43.68264139 -21.75507495 42.13388396 -27.125 38.9375 C-32.027818 33.90566047 -34.77519816 28.04600858 -35.125 21 C-34.75876921 14.1861797 -32.46347645 8.33663504 -27.4921875 3.578125 C-19.81554126 -2.37056765 -9.14111482 -4.02919041 0 0 Z " fill="#8AC9FE" transform="translate(267.5,17.5)"/>
<path d="M0 0 C5.30762272 3.8731301 8.74418168 8.51726221 10 15 C10.84337901 23.23185431 9.79110622 29.58458219 4.625 36.25 C0.38846382 40.688276 -3.48148431 42.71981192 -9.55078125 43.203125 C-17.07834576 43.3308913 -21.88285652 42.13921611 -28.1875 37.8125 C-33.67388265 32.32611735 -35.25410367 27.79325865 -35.5625 20 C-35.29355494 11.6089142 -32.58931569 7.25272902 -26.625 1.625 C-18.76361735 -4.63688055 -8.70945881 -4.33934167 0 0 Z " fill="#8AC9FE" transform="translate(51,157)"/>
<path d="M0 0 C4.70241301 3.59489489 7.71766086 7.51837022 10 13 C10.89342797 19.93815234 11.05415528 27.19130261 7.33203125 33.3203125 C3.48175869 38.1754949 -0.80879079 41.80938284 -7 43 C-15.26686833 43.68995107 -21.53747348 42.82761836 -28.25 37.625 C-33.79592684 32.33116074 -34.98832253 27.62824186 -35.25 20.1875 C-35.13737959 13.28694052 -33.52968572 8.34977326 -28.875 3.1875 C-20.78886788 -4.28449551 -9.64411817 -4.83909816 0 0 Z " fill="#8AC9FE" transform="translate(486,157)"/>
<path d="M0 0 C5.62190491 3.35174881 9.56334243 8.22193737 11.5625 14.4375 C12.39888411 22.03303474 12.41486292 29.22704133 7.5625 35.4375 C2.35895525 40.83421578 -2.50651842 43.73364449 -10.00390625 44.3984375 C-17.23005508 44.51442705 -23.17738952 42.42435798 -28.4375 37.4375 C-33.67993527 30.67751767 -34.02619918 24.78117881 -33.4375 16.4375 C-32.38644934 9.78434932 -29.70834713 6.10920262 -24.5703125 1.84765625 C-17.5327375 -2.80539242 -7.74253753 -3.48264719 0 0 Z " fill="#8AC9FE" transform="translate(416.4375,85.5625)"/>
<path d="M0 0 C5.15944588 3.09784911 8.6038843 7.17168107 10.9375 12.6875 C12.20790093 20.3099056 12.77838696 27.66653003 8.5625 34.4375 C3.37788018 40.64540005 -1.50691734 43.52956615 -9.57421875 44.390625 C-16.22218301 44.49945934 -21.19785385 42.62921692 -26.4375 38.4375 C-31.62666458 33.21958658 -33.72451245 28.4719607 -33.8125 21.125 C-33.68107189 14.27527621 -32.52033116 9.70296334 -27.7890625 4.69140625 C-20.22452675 -2.1959549 -9.60592784 -4.3208131 0 0 Z " fill="#8AC9FE" transform="translate(117.4375,85.5625)"/>
<path d="M0 0 C5.61 0 11.22 0 17 0 C15.78992793 22.26532606 8.56776581 40.04078584 -7.625 55.625 C-20.18109928 66.50566885 -35.62241093 73.25639737 -52.3125 73.0625 C-53.05306641 73.05798828 -53.79363281 73.05347656 -54.55664062 73.04882812 C-56.37112899 73.03712175 -58.18557534 73.01918898 -60 73 C-57.05618778 71.03745852 -54.7914341 70.21510693 -51.4375 69.1875 C-32.49070045 62.9400541 -17.90526381 51.1104692 -8.6875 33.3125 C-3.53084995 22.84016771 -0.83103624 11.63450733 0 0 Z " fill="#FFD064" transform="translate(313,256)"/>
<path d="M0 0 C2.26171875 0.6796875 2.26171875 0.6796875 4.6875 1.875 C5.49574219 2.26429688 6.30398438 2.65359375 7.13671875 3.0546875 C8.05904297 3.52261719 8.05904297 3.52261719 9 4 C9 4.66 9 5.32 9 6 C-0.04972648 11.33365522 -9.11868839 16.32104438 -18.875 20.25 C-19.69887207 20.589104 -20.52274414 20.92820801 -21.37158203 21.27758789 C-25.68959511 22.97792586 -29.77150803 24.21872504 -34.359375 24.94921875 C-43.78911353 26.46709557 -43.78911353 26.46709557 -50.76025391 32.49316406 C-53.9836062 38.73553571 -56.1207491 45.30952034 -58.10839844 52.03173828 C-59.23481176 55.78171998 -60.61148354 59.3643526 -62.0625 63 C-62.42472656 63.969375 -62.78695313 64.93875 -63.16015625 65.9375 C-64 68 -64 68 -65 69 C-67.86267567 69.07325168 -70.700719 69.09238205 -73.5625 69.0625 C-74.36880859 69.05798828 -75.17511719 69.05347656 -76.00585938 69.04882812 C-78.00393756 69.03700518 -80.00197783 69.01906914 -82 69 C-80.44172896 64.7484378 -78.8775911 60.49905583 -77.3125 56.25 C-76.87744141 55.06277344 -76.44238281 53.87554687 -75.99414062 52.65234375 C-75.11447555 50.267474 -74.22397625 47.88657287 -73.32275391 45.50976562 C-72.45102027 43.19672708 -71.60869637 40.87235864 -70.79833984 38.53710938 C-67.85522909 30.54264234 -67.85522909 30.54264234 -63.76171875 27.9453125 C-62.52035156 27.63335937 -61.27898437 27.32140625 -60 27 C-58.54420789 26.50901113 -57.09255758 26.00562734 -55.64453125 25.4921875 C-54.86762939 25.23260254 -54.09072754 24.97301758 -53.2902832 24.70556641 C-34.96943149 18.56431727 -16.14192671 10.76128448 0 0 Z " fill="#FFD064" transform="translate(354,427)"/>
<path d="M0 0 C2.02679937 1.25995951 3.54726182 2.50527931 5.10424805 4.30810547 C-3.46163864 8.79146384 -12.1868818 12.88117033 -21.02075195 16.80810547 C-22.02823486 17.26556152 -23.03571777 17.72301758 -24.07373047 18.19433594 C-25.02820068 18.61344238 -25.9826709 19.03254883 -26.96606445 19.46435547 C-27.81958496 19.84398437 -28.67310547 20.22361328 -29.55249023 20.61474609 C-32.18137909 21.3926211 -33.37809 21.33384466 -35.89575195 20.30810547 C-36.55575195 19.64810547 -37.21575195 18.98810547 -37.89575195 18.30810547 C-37.89575195 17.31810547 -37.89575195 16.32810547 -37.89575195 15.30810547 C-33.01321106 12.97011588 -28.12045909 10.65566525 -23.21679688 8.36230469 C-21.55037454 7.57896455 -19.88691695 6.78928483 -18.2265625 5.99316406 C-15.83866316 4.84954232 -13.44101224 3.72918104 -11.0402832 2.61279297 C-10.30050735 2.25248993 -9.56073151 1.89218689 -8.79853821 1.52096558 C-5.53377432 0.02699309 -3.55719707 -0.84993647 0 0 Z " fill="#FFD165" transform="translate(142.895751953125,427.69189453125)"/>
</svg>
