<?xml version="1.0" encoding="UTF-8"?>
<svg version="1.1" xmlns="http://www.w3.org/2000/svg" width="256" height="256">
<path d="M0 0 C4.17161123 0.56286991 6.78392195 1.92523288 10.23046875 4.30859375 C11.19791016 4.97310547 12.16535156 5.63761719 13.16210938 6.32226562 C14.16048828 7.02029297 15.15886719 7.71832031 16.1875 8.4375 C17.19748047 9.13166016 18.20746094 9.82582031 19.24804688 10.54101562 C26.66793493 15.66793493 26.66793493 15.66793493 29 18 C28.67582137 21.80909895 28.14418558 23.78372163 26 27 C28.57966727 27.68465103 31.16216388 28.34753025 33.75 29 C34.46027344 29.19078125 35.17054687 29.3815625 35.90234375 29.578125 C47.07786021 32.34727952 56.75351633 30.99890873 67.625 27.625 C92.335849 20.19361998 92.335849 20.19361998 104.1875 25.0625 C110.74015596 27.64074674 117.05615045 27.36493224 124 27 C123.2575 26.1646875 123.2575 26.1646875 122.5 25.3125 C121 23 121 23 120.34765625 20.58984375 C121.42430386 16.31548826 124.84809633 14.82530714 128.4375 12.5625 C129.1694458 12.08458008 129.9013916 11.60666016 130.65551758 11.11425781 C132.10824947 10.1660473 133.56480998 9.22367313 135.02539062 8.28759766 C138.13866179 6.25750467 141.12033805 4.04113432 144.10546875 1.828125 C146 1 146 1 148.40625 0.93359375 C152.25467036 2.51585092 154.03877421 5.48745984 156.3125 8.8125 C156.79396484 9.49320557 157.27542969 10.17391113 157.77148438 10.87524414 C161.24116529 15.80891326 164.60513363 20.81537133 167.91796875 25.85546875 C170.34167585 29.51603951 172.82121969 33.13522674 175.3125 36.75 C175.77277588 37.41813721 176.23305176 38.08627441 176.70727539 38.7746582 C177.65322756 40.1471488 178.5994385 41.51946107 179.54589844 42.89160156 C182.01223297 46.46770382 184.47509135 50.04619387 186.9375 53.625 C187.38585205 54.2756543 187.8342041 54.92630859 188.29614258 55.59667969 C189.13939915 56.82201948 189.97825097 58.05040585 190.81201172 59.28222656 C191.95597495 60.93634192 193.16648655 62.54382292 194.37890625 64.1484375 C196 67 196 67 195.86987305 69.46289062 C194.76558757 72.68369743 193.50415998 73.55221864 190.703125 75.4453125 C189.38828125 76.34830078 189.38828125 76.34830078 188.046875 77.26953125 C187.12390625 77.88183594 186.2009375 78.49414062 185.25 79.125 C183.88875 80.05505859 183.88875 80.05505859 182.5 81.00390625 C170.70823844 89.02023538 170.70823844 89.02023538 167.8125 88.9375 C165.46100254 87.72120821 165.07653318 86.35699115 164 84 C162.22891052 85.12459671 160.45813764 86.24969203 158.6875 87.375 C157.70136719 88.00148438 156.71523437 88.62796875 155.69921875 89.2734375 C153.78712071 90.49651613 151.8885966 91.7409356 150 93 C149.8642494 95.43827044 149.8642494 95.43827044 150.1875 98.1875 C150.297593 102.3765387 150.06481033 104.79937824 147.4375 108.125 C144.28867911 111.27382089 141.47003815 111.91059924 137 112 C136.98582031 112.59167969 136.97164062 113.18335938 136.95703125 113.79296875 C136.69387428 118.15283955 136.45754867 120.41878953 133.6875 123.9375 C128.83562557 127.66103154 126.22343546 128.2393629 120 128 C119.938125 129.051875 119.87625 130.10375 119.8125 131.1875 C118.85556063 135.67775398 117.52079664 137.14983129 114 140 C110.98509443 141.00496852 108.95818308 141.10335303 105.8125 141.0625 C104.91144531 141.05347656 104.01039063 141.04445312 103.08203125 141.03515625 C102.05142578 141.01775391 102.05142578 141.01775391 101 141 C100.938125 141.886875 100.87625 142.77375 100.8125 143.6875 C99.77389024 147.92183209 98.44952121 149.35781354 95 152 C89.46356835 154.44902952 85.72573052 154.07610083 80 152 C77.23865015 150.44973845 74.65458936 148.69124318 72.0625 146.875 C71.37865234 146.40707031 70.69480469 145.93914062 69.99023438 145.45703125 C68.32102713 144.31309901 66.65967718 143.15771562 65 142 C64.54488037 142.45068848 64.08976074 142.90137695 63.62084961 143.36572266 C60.63025154 146.26577845 58.11959265 148.36951355 53.9375 149.0625 C48.87034477 148.98206896 45.97712053 147.64760044 42.125 144.4375 C41 143 41 143 41 141 C39.824375 141.226875 38.64875 141.45375 37.4375 141.6875 C32.72356029 142.28092149 30.14045893 141.27319314 26 139 C24.0625 137.3125 24.0625 137.3125 23 136 C22.505 136.33 22.01 136.66 21.5 137 C17.98039888 138.40784045 14.70400461 138.58409303 11 138 C6.98301924 135.91712109 4.58666666 134.24865716 3 130 C2.98046875 127.30859375 2.98046875 127.30859375 3.1875 124.4375 C3.30275867 121.56087314 3.30275867 121.56087314 3 119 C0.82137181 116.99280504 0.82137181 116.99280504 -2 116 C-4.41618145 113.77972516 -5.82288068 112.18298211 -6.31640625 108.88671875 C-6.43390692 104.22585869 -5.78556075 100.35230434 -4 96 C-4.47050781 95.54109375 -4.94101562 95.0821875 -5.42578125 94.609375 C-11.60984183 88.51493849 -11.60984183 88.51493849 -14 85 C-14.391875 85.515625 -14.78375 86.03125 -15.1875 86.5625 C-17 88 -17 88 -19.28637695 87.79663086 C-22.41582959 86.87792605 -24.54938357 85.54543403 -27.23046875 83.69140625 C-28.19791016 83.02689453 -29.16535156 82.36238281 -30.16210938 81.67773438 C-31.16048828 80.97970703 -32.15886719 80.28167969 -33.1875 79.5625 C-34.19748047 78.86833984 -35.20746094 78.17417969 -36.24804688 77.45898438 C-43.66793493 72.33206507 -43.66793493 72.33206507 -46 70 C-45.6988741 65.79140709 -43.99277614 63.10386272 -41.625 59.6875 C-40.89539063 58.6253125 -40.16578125 57.563125 -39.4140625 56.46875 C-39.01993164 55.90285156 -38.62580078 55.33695313 -38.21972656 54.75390625 C-36.99896525 52.99851209 -35.79085023 51.2350535 -34.5859375 49.46875 C-23.23771336 32.8559984 -11.76611664 16.31983005 0 0 Z M2 9 C1.60321045 9.58265625 1.2064209 10.1653125 0.79760742 10.765625 C-12.45929252 30.22922532 -12.45929252 30.22922532 -18.75 39.375 C-19.39630371 40.31629761 -19.39630371 40.31629761 -20.05566406 41.27661133 C-22.37321575 44.64890151 -24.70459194 48.01084235 -27.05078125 51.36328125 C-27.55448242 52.08660645 -28.05818359 52.80993164 -28.57714844 53.55517578 C-29.5385411 54.935321 -30.50379155 56.31279027 -31.47363281 57.68701172 C-33.79269213 61.02400511 -35.68496952 64.11434496 -37 68 C-34.4075352 69.87097485 -31.799351 71.71870837 -29.1875 73.5625 C-28.44951172 74.09552734 -27.71152344 74.62855469 -26.95117188 75.17773438 C-26.23896484 75.67724609 -25.52675781 76.17675781 -24.79296875 76.69140625 C-24.1383667 77.15748291 -23.48376465 77.62355957 -22.80932617 78.10375977 C-20.84697267 79.34035953 -20.84697267 79.34035953 -18 78 C-16.45024458 76.19118706 -16.45024458 76.19118706 -14.98828125 73.8984375 C-14.40304688 73.02670898 -13.8178125 72.15498047 -13.21484375 71.25683594 C-12.58707031 70.30583008 -11.95929687 69.35482422 -11.3125 68.375 C-9.96595231 66.36644387 -8.61825743 64.35865644 -7.26953125 62.3515625 C-6.57037598 61.30774414 -5.8712207 60.26392578 -5.15087891 59.18847656 C-1.65419974 54.00497714 1.92144416 48.87716818 5.5 43.75 C6.46812622 42.36047119 6.46812622 42.36047119 7.45581055 40.94287109 C8.07883057 40.04906738 8.70185059 39.15526367 9.34375 38.234375 C9.94316406 37.36876953 10.54257812 36.50316406 11.16015625 35.61132812 C12.43311662 33.80458926 13.73471945 32.01781812 15.05859375 30.24804688 C15.70957031 29.36697266 16.36054687 28.48589844 17.03125 27.578125 C17.92166992 26.4010498 17.92166992 26.4010498 18.83007812 25.20019531 C20.19902117 23.09604568 20.19902117 23.09604568 19.84472656 20.84326172 C18.46075613 17.82332624 15.99922541 16.63852752 13.25 14.875 C12.20328125 14.19179687 11.1565625 13.50859375 10.078125 12.8046875 C7.40784222 11.23911562 4.87653098 10.10593669 2 9 Z M138.4375 14.8125 C137.73947266 15.26431641 137.04144531 15.71613281 136.32226562 16.18164062 C135.65775391 16.62314453 134.99324219 17.06464844 134.30859375 17.51953125 C133.69814209 17.92276611 133.08769043 18.32600098 132.45874023 18.74145508 C130.70248831 20.0396628 130.70248831 20.0396628 130 23 C131.23683796 25.49970391 131.23683796 25.49970391 133.12109375 28.15625 C133.81009766 29.17976563 134.49910156 30.20328125 135.20898438 31.2578125 C135.94439453 32.32773438 136.67980469 33.39765625 137.4375 34.5 C138.13810547 35.53898437 138.83871094 36.57796875 139.56054688 37.6484375 C143.59712075 43.60489057 147.76386525 49.45053763 152.01586914 55.25439453 C155.4433556 59.99729016 158.71824416 64.84315862 162 69.6875 C162.67933594 70.68716797 163.35867187 71.68683594 164.05859375 72.71679688 C165.70732686 75.14345335 167.35443962 77.57119145 169 80 C173.08151697 78.45308062 176.18885147 76.56745271 179.6875 73.9375 C184.84741144 70.07629428 184.84741144 70.07629428 187 69 C185.61352824 65.18311466 183.84323689 62.01915474 181.5859375 58.6484375 C180.90660156 57.63136719 180.22726563 56.61429688 179.52734375 55.56640625 C178.81707031 54.51324219 178.10679687 53.46007812 177.375 52.375 C176.68792969 51.34503906 176.00085938 50.31507813 175.29296875 49.25390625 C171.29439295 43.28980163 167.16770411 37.44450553 162.91943359 31.65625 C159.27205577 26.60874673 155.84398756 21.4085619 152.40625 16.21679688 C151.86226562 15.40919922 151.31828125 14.60160156 150.7578125 13.76953125 C150.03295654 12.68055542 150.03295654 12.68055542 149.29345703 11.56958008 C148.6531958 10.79263794 148.6531958 10.79263794 148 10 C144.33797414 10 141.40708402 12.83002005 138.4375 14.8125 Z M44.59375 45.01171875 C40.76002096 49.79448366 37.35384378 54.87417073 34 60 C38.49872411 62.99914941 41.65616201 63.35041561 47 63 C53.87984413 61.30823505 57.81555232 57.82351186 62.8984375 52.9609375 C65.89908456 50.16107724 67.498624 49.86233742 71.5 49.875 C72.69109375 49.87113281 72.69109375 49.87113281 73.90625 49.8671875 C74.9271875 49.91101563 75.948125 49.95484375 77 50 C78.14154541 50.03407959 78.14154541 50.03407959 79.30615234 50.06884766 C85.64449866 50.43984333 89.52299562 51.93838202 94.625 55.625 C96.09062808 56.6276653 97.55819616 57.62749874 99.02734375 58.625 C100.21046143 59.43710938 100.21046143 59.43710938 101.41748047 60.265625 C106.25760013 63.5161648 111.23084072 66.55640817 116.1875 69.625 C127.62371791 76.70635485 127.62371791 76.70635485 132.43359375 79.9921875 C133.07079346 80.42321777 133.70799316 80.85424805 134.36450195 81.29833984 C135.98422896 82.40391415 137.59046682 83.5291828 139.1953125 84.65625 C142.6777343 86.32470836 144.33656474 86.0659996 148 85 C149.96399417 84.22666123 149.96399417 84.22666123 151.625 83.1875 C152.17414063 82.87167969 152.72328125 82.55585938 153.2890625 82.23046875 C155.4263564 80.69337383 157.17970341 78.89581108 159 77 C155.25888319 71.52773137 151.51546796 66.05704146 147.77050781 60.58740234 C146.14486911 58.21171027 144.5214107 55.83454462 142.8984375 53.45703125 C141.95321151 52.07546164 141.00790352 50.69394813 140.0625 49.3125 C139.63928467 48.69117188 139.21606934 48.06984375 138.7800293 47.4296875 C137.95775267 46.22989576 137.12455248 45.03750949 136.2800293 43.85327148 C135.36388894 42.52685122 134.5036911 41.16110456 133.68286133 39.77368164 C131.11141342 35.58071919 131.11141342 35.58071919 126.89135742 33.44897461 C124.40687081 33.39079541 122.03447305 33.55964169 119.5625 33.8125 C111.06533316 34.28734168 104.84452045 33.23011876 96.96875 30.09375 C84.7932062 25.60802334 54.02744434 35.70347248 44.59375 45.01171875 Z M21 33 C14.74816784 41.65095511 8.62119974 50.37886597 2.64160156 59.22070312 C0.34466898 62.6116102 -1.94364434 65.98458268 -4.453125 69.22265625 C-8.05581595 73.65945385 -8.05581595 73.65945385 -8.9375 79.0625 C-6.05319393 83.43548016 -2.61350088 87.21842932 1 91 C1.53625 90.2575 2.0725 89.515 2.625 88.75 C5.58227942 85.32578172 8.37128899 82.46480155 12.98828125 81.6484375 C17.53252136 81.4601639 20.39036356 82.31855578 24 85 C24.99 85.66 25.98 86.32 27 87 C27.55816406 86.51273438 28.11632812 86.02546875 28.69140625 85.5234375 C32.5565059 82.97286412 36.52455196 83.47048994 41 84 C44.28715357 85.30116496 45.50853638 86.18089397 47.3125 89.1875 C48.22015862 92.90064889 48.12947964 96.18035055 48 100 C48.83144531 100.36351562 48.83144531 100.36351562 49.6796875 100.734375 C50.76636719 101.23710937 50.76636719 101.23710937 51.875 101.75 C52.59429687 102.07484375 53.31359375 102.3996875 54.0546875 102.734375 C56.38717099 104.25189438 57.02350362 105.42204954 58 108 C58.38290462 109.99110401 58.72604615 111.99100513 59 114 C60.0725 114.226875 61.145 114.45375 62.25 114.6875 C66.9846179 116.34461626 68.79875037 118.59750075 71 123 C70.9140625 125.0234375 70.9140625 125.0234375 70.625 127.375 C70.53476563 128.14585937 70.44453125 128.91671875 70.3515625 129.7109375 C70.02205749 131.85638125 69.54062765 133.89989076 69 136 C71.60092882 137.6509933 74.2062744 139.29488318 76.8125 140.9375 C77.55048828 141.40607422 78.28847656 141.87464844 79.04882812 142.35742188 C79.76103516 142.80537109 80.47324219 143.25332031 81.20703125 143.71484375 C81.8616333 144.12855225 82.51623535 144.54226074 83.19067383 144.96850586 C85.12856256 146.15126101 85.12856256 146.15126101 88 147 C91.10882246 145.63515111 92.67941646 144.50759061 94.5 141.625 C95.25791654 138.98654052 95.25791654 138.98654052 93.97265625 136.63671875 C91.4213016 133.22649224 88.53620333 131.38772452 84.9375 129.1875 C84.30005859 128.78080078 83.66261719 128.37410156 83.00585938 127.95507812 C79.75219192 125.73759983 79.75219192 125.73759983 76 125 C76.33 123.35 76.66 121.7 77 120 C80.82053555 119.75561518 82.86361782 120.16184933 86.03125 122.30078125 C86.75957031 122.78353516 87.48789063 123.26628906 88.23828125 123.76367188 C88.98464844 124.27478516 89.73101562 124.78589844 90.5 125.3125 C91.98920403 126.30916073 93.47877799 127.30526898 94.96875 128.30078125 C95.66830811 128.76935547 96.36786621 129.23792969 97.08862305 129.72070312 C101.94279692 133.17909955 101.94279692 133.17909955 107.6875 133.875 C111.26425255 133.32164605 111.26425255 133.32164605 113 130 C113.30245606 126.55274771 113.30245606 126.55274771 112 123 C109.65633332 120.69126808 106.96220011 119.13994084 104.125 117.5 C103.35937744 117.02933105 102.59375488 116.55866211 101.80493164 116.07373047 C98.93178879 114.31200292 96.03084194 112.60121293 93.11962891 110.90332031 C91.55252087 109.98808224 89.99457287 109.05720834 88.4375 108.125 C87.56996094 107.63257813 86.70242187 107.14015625 85.80859375 106.6328125 C84 105 84 105 83.72265625 102.3046875 C83.85994141 101.16386719 83.85994141 101.16386719 84 100 C89.76987678 100.43206566 93.30518073 102.82738262 97.9375 106 C99.44033503 106.99640922 100.94426443 107.9911696 102.44921875 108.984375 C103.20509277 109.48646484 103.9609668 109.98855469 104.73974609 110.50585938 C108.2139644 112.80249105 111.71354478 115.0505244 115.25 117.25 C116.16060181 117.84167969 116.16060181 117.84167969 117.08959961 118.4453125 C119.84544748 120.14193335 121.53101592 121.03265906 124.8046875 120.8046875 C127.39846721 119.85394262 128.56508463 119.39152562 130 117 C130.55564353 113.604479 130.55564353 113.604479 129 110 C127.10232216 108.28224539 127.10232216 108.28224539 124.703125 106.7421875 C123.35021362 105.83243164 123.35021362 105.83243164 121.9699707 104.90429688 C115.77981888 100.93527228 109.46837585 97.15807876 103.13085938 93.4296875 C102.09638672 92.800625 101.06191406 92.1715625 99.99609375 91.5234375 C99.05950928 90.96575684 98.1229248 90.40807617 97.15795898 89.83349609 C94.57350563 87.63763178 94.27335986 86.31942046 94 83 C101.17257808 83.21795127 105.90517679 86.72578232 111.75 90.625 C112.67554688 91.22957031 113.60109375 91.83414063 114.5546875 92.45703125 C118.38611452 94.95973218 122.21102521 97.47071209 126.01147461 100.02026367 C127.46565796 100.97896362 127.46565796 100.97896362 128.94921875 101.95703125 C129.82151123 102.5394458 130.69380371 103.12186035 131.5925293 103.72192383 C134.0805915 105.04278435 135.30117033 105.39013945 138.0625 105.0625 C141.07516017 104.20779575 141.07516017 104.20779575 143 102 C143.58369443 98.58461856 143.58369443 98.58461856 143 95 C139.05190035 91.27465306 134.27972204 88.54947952 129.6875 85.6875 C128.87152344 85.17550049 128.05554688 84.66350098 127.21484375 84.13598633 C124.4787133 82.42052879 121.73956893 80.70996041 119 79 C116.93353914 77.7084207 114.8671344 76.41675161 112.80078125 75.125 C109.71398663 73.19548613 106.62682878 71.26657852 103.5378418 69.34057617 C102.5869165 68.74736572 101.63599121 68.15415527 100.65625 67.54296875 C99.25439453 66.67260986 99.25439453 66.67260986 97.82421875 65.78466797 C95.89361594 64.56468988 93.98003532 63.31746339 92.08203125 62.04736328 C84.80504233 57.21134251 78.94175344 54.41784043 70 56 C66.8118344 57.94878709 64.30155936 60.13903571 61.58203125 62.6953125 C55.89051877 67.77548249 49.15959203 69.69448364 41.60546875 69.40625 C36.82524948 68.66090847 32.4332226 66.88791229 28 65 C27.02737127 62.06835019 26.55201298 59.95257978 27.90039062 57.08544922 C29.27885287 54.97383932 30.73367564 52.95236772 32.25 50.9375 C33.25630585 49.55157749 34.26154116 48.16487693 35.265625 46.77734375 C35.74064453 46.13007324 36.21566406 45.48280273 36.70507812 44.81591797 C38.2719387 42.61865006 39.66537724 40.34473109 41 38 C38.60468067 37.35220924 36.20878252 36.70670991 33.8125 36.0625 C33.13896484 35.88009766 32.46542969 35.69769531 31.77148438 35.50976562 C28.19851542 34.5511642 24.63843262 33.67116718 21 33 Z M10.6875 89.8125 C6.50163268 94.37771154 1.39445066 100.47017234 0.6953125 106.7265625 C0.80010522 109.13254325 0.80010522 109.13254325 2.6875 110.875 C4.91856503 112.17033789 4.91856503 112.17033789 7.31640625 111.9921875 C11.25682705 110.53532159 12.98210706 107.60430872 15.25 104.25 C15.69601563 103.62867188 16.14203125 103.00734375 16.6015625 102.3671875 C18.92774354 99.02594565 20.81327923 96.19001419 21 92 C19.41666667 89.58333333 19.41666667 89.58333333 17 88 C13.03500981 87.58874556 13.03500981 87.58874556 10.6875 89.8125 Z M30.4296875 92.6484375 C29.55669821 93.87566126 28.70645708 95.11926611 27.875 96.375 C27.41633545 97.03677246 26.9576709 97.69854492 26.48510742 98.38037109 C25.49785144 99.81296446 24.52024818 101.25224711 23.55126953 102.69726562 C21.93609543 105.09486117 20.28176017 107.46185354 18.62109375 109.828125 C17.51649086 111.42588296 16.4135901 113.02481919 15.3125 114.625 C14.78317871 115.38216309 14.25385742 116.13932617 13.70849609 116.91943359 C10.16114247 121.98534556 10.16114247 121.98534556 10 128 C11 130 11 130 13 131 C15.86893181 131.23679146 15.86893181 131.23679146 19 130 C21.46409306 127.5561491 23.32317671 124.7511748 25.25 121.875 C25.80703613 121.06909424 26.36407227 120.26318848 26.93798828 119.43286133 C28.08071609 117.77357358 29.21563606 116.10888221 30.34277344 114.43896484 C31.89795993 112.15017388 33.49084737 109.89444377 35.1015625 107.64453125 C36.02727694 106.32638749 36.95182318 105.00742226 37.875 103.6875 C38.30973633 103.08470215 38.74447266 102.4819043 39.19238281 101.86083984 C41.03115643 99.16229053 42.02178 97.51909009 41.8828125 94.20703125 C41.10506224 91.84244938 41.10506224 91.84244938 39 90 C34.72026151 89.20127443 33.50566748 89.47896269 30.4296875 92.6484375 Z M38 114 C37.61134766 114.53625 37.22269531 115.0725 36.82226562 115.625 C35.5217355 117.4413606 34.25690672 119.27822493 33 121.125 C32.57750977 121.7226416 32.15501953 122.3202832 31.71972656 122.93603516 C29.79405826 125.86353848 28.86425559 127.34028215 29.5859375 130.84765625 C31.3674301 133.55926515 32.93295889 134.11217231 36 135 C40.70757389 131.68662533 43.61249231 127.74929364 46.8125 123.0625 C47.56563477 122.00772461 47.56563477 122.00772461 48.33398438 120.93164062 C51.15327733 116.84627441 51.15327733 116.84627441 52.3984375 112.109375 C52.12904155 109.94439914 52.12904155 109.94439914 50.8125 108.1875 C49.01468262 106.87542903 49.01468262 106.87542903 46.6875 106.375 C42.33636256 107.38689243 40.4802058 110.53210163 38 114 Z M53.69921875 123.16015625 C48.52257916 130.44421644 48.52257916 130.44421644 47 139 C48.61694804 140.75651531 48.61694804 140.75651531 51 142 C54.92968987 141.24614113 56.68015363 140.35673146 59.37109375 137.35546875 C60.39396484 135.78732422 60.39396484 135.78732422 61.4375 134.1875 C62.13746094 133.14980469 62.83742188 132.11210937 63.55859375 131.04296875 C65.22825121 128.14371948 65.22825121 128.14371948 64.84765625 125.23828125 C64.11511273 122.84121641 64.11511273 122.84121641 62 121 C58.09206548 120.39590068 56.6308419 120.4077155 53.69921875 123.16015625 Z " fill="#267EE3" transform="translate(53,87)"/>
<path d="M0 0 C2.09475162 0.67426989 4.19116722 1.34338821 6.2890625 2.0078125 C8.40208488 2.71041203 10.51406248 3.4161612 12.625 4.125 C13.71167969 4.48464844 14.79835937 4.84429688 15.91796875 5.21484375 C17.46291016 5.73111328 17.46291016 5.73111328 19.0390625 6.2578125 C20.43439209 6.72405029 20.43439209 6.72405029 21.85791016 7.19970703 C24 8 24 8 25 9 C25.13861852 11.92456395 25.21324583 14.82370628 25.23828125 17.75 C25.246353 18.63727783 25.25442474 19.52455566 25.26274109 20.4387207 C25.2766066 22.32517532 25.28731766 24.21165529 25.29516602 26.09814453 C25.31226382 28.96046105 25.3561124 31.82158767 25.40039062 34.68359375 C25.41052752 36.51822068 25.41904049 38.35285744 25.42578125 40.1875 C25.44328934 41.03473633 25.46079742 41.88197266 25.47883606 42.75488281 C25.44525976 52.13082019 21.4310805 60.23483739 15 67 C11.84371068 69.64382906 8.49362629 71.82816013 5 74 C4.43087891 74.36754395 3.86175781 74.73508789 3.27539062 75.11376953 C1.44803958 76.28842525 -0.39685936 77.42904466 -2.25 78.5625 C-2.82814453 78.93375 -3.40628906 79.305 -4.00195312 79.6875 C-6.94117442 81.42201176 -8.55844883 82.07757768 -11.95703125 81.48046875 C-15.56267427 79.72624705 -19.01636331 77.83961351 -22.4375 75.75 C-23.10128662 75.34523438 -23.76507324 74.94046875 -24.44897461 74.5234375 C-34.26111053 68.4472424 -41.87628832 61.54866357 -45 50 C-45.26158798 46.81190084 -45.23342622 43.64229139 -45.1953125 40.4453125 C-45.1924826 39.54376434 -45.18965271 38.64221619 -45.18673706 37.71334839 C-45.17559439 34.85042724 -45.1505008 31.98782566 -45.125 29.125 C-45.11496255 27.17708787 -45.10583804 25.22917081 -45.09765625 23.28125 C-45.07567443 18.5207113 -45.0411855 13.76040973 -45 9 C-37.97574388 5.82150735 -30.9298898 3.03716376 -23.625 0.5625 C-22.03558594 -0.02047852 -22.03558594 -0.02047852 -20.4140625 -0.61523438 C-12.52048917 -3.26093573 -7.7065715 -2.89618146 0 0 Z M-17.82421875 6.71484375 C-19.49000977 7.24948242 -19.49000977 7.24948242 -21.18945312 7.79492188 C-22.34380859 8.17197266 -23.49816406 8.54902344 -24.6875 8.9375 C-25.85345703 9.31068359 -27.01941406 9.68386719 -28.22070312 10.06835938 C-33.4812 11.3586365 -33.4812 11.3586365 -38 14 C-38.2932953 18.84122878 -38.31426329 23.68540635 -38.35009766 28.53466797 C-38.36655602 30.16404606 -38.39371045 31.79335504 -38.43212891 33.42236328 C-38.69304653 44.5465293 -38.28616671 51.89846269 -30.74609375 60.6015625 C-24.83480313 65.7826937 -18.44975967 71.24980584 -11 74 C-8.37594061 73.43176966 -8.37594061 73.43176966 -6 72 C-5.23300781 71.60683594 -4.46601563 71.21367188 -3.67578125 70.80859375 C5.6377925 65.40518154 14.08528722 59.33673877 18 49 C18.4794651 46.16343394 18.47243699 43.43270418 18.390625 40.5625 C18.38213531 39.41418701 18.38213531 39.41418701 18.37347412 38.24267578 C18.35130835 35.82777979 18.30115539 33.41443777 18.25 31 C18.22990915 29.35028204 18.21166294 27.70054052 18.1953125 26.05078125 C18.15150943 22.03326695 18.08262602 18.01689574 18 14 C11.94056593 11.5087083 5.88342454 9.18974562 -0.375 7.25 C-1.05949219 7.02957031 -1.74398437 6.80914062 -2.44921875 6.58203125 C-8.23587931 4.77299756 -12.10928223 4.87275735 -17.82421875 6.71484375 Z " fill="#15A8E2" transform="translate(138,18)"/>
<path d="M0 0 C2.24487305 0.34960938 2.24487305 0.34960938 3.24487305 1.34960938 C3.64038086 3.54199219 3.64038086 3.54199219 3.24487305 6.34960938 C1.52995948 8.53734375 -0.10426189 10.35322104 -2.08325195 12.27148438 C-2.62866638 12.81693909 -3.17408081 13.3623938 -3.73602295 13.92437744 C-4.89025934 15.07325965 -6.05060748 16.2160297 -7.21655273 17.35302734 C-8.99882697 19.09345731 -10.7588345 20.85424105 -12.5168457 22.61914062 C-13.64189056 23.73369238 -14.76815331 24.84701638 -15.89575195 25.95898438 C-16.42195129 26.4849823 -16.94815063 27.01098022 -17.49029541 27.55291748 C-22.26157716 32.17242502 -22.26157716 32.17242502 -25.75512695 32.34960938 C-27.6496582 31.16210938 -27.6496582 31.16210938 -29.56762695 29.34960938 C-30.59823242 28.37894531 -30.59823242 28.37894531 -31.6496582 27.38867188 C-32.34446289 26.71578125 -33.03926758 26.04289062 -33.75512695 25.34960938 C-34.43961914 24.73859375 -35.12411133 24.12757812 -35.8293457 23.49804688 C-40.64943371 19.059264 -40.64943371 19.059264 -41.19262695 15.41210938 C-41.04825195 14.73148438 -40.90387695 14.05085938 -40.75512695 13.34960938 C-38.5090332 12.64257812 -38.5090332 12.64257812 -35.75512695 12.34960938 C-33.6574707 13.71289062 -33.6574707 13.71289062 -31.69262695 15.66210938 C-29.13859582 18.15545066 -26.97382832 19.82377162 -23.75512695 21.34960938 C-23.14515869 20.71345703 -22.53519043 20.07730469 -21.90673828 19.421875 C-19.6337394 17.06357117 -17.34982645 14.7170182 -15.05761719 12.37744141 C-14.06864392 11.36335084 -13.08420794 10.34481441 -12.10449219 9.32177734 C-10.69380606 7.8503166 -9.26747201 6.39571711 -7.8371582 4.94335938 C-6.55675659 3.62368164 -6.55675659 3.62368164 -5.25048828 2.27734375 C-2.75512695 0.34960938 -2.75512695 0.34960938 0 0 Z " fill="#14A9E4" transform="translate(146.755126953125,41.650390625)"/>
</svg>
