<?xml version="1.0" encoding="UTF-8"?>
<svg version="1.1" xmlns="http://www.w3.org/2000/svg" width="512" height="512">
<path d="M0 0 C0.78173284 -0.00495952 1.56346568 -0.00991903 2.36888739 -0.01502883 C4.98625018 -0.02797387 7.60310189 -0.0196038 10.2204771 -0.01129913 C12.11680341 -0.01618855 14.01312673 -0.0223786 15.90944499 -0.02975702 C21.1190921 -0.0461732 26.32858805 -0.04383517 31.538252 -0.03838205 C37.1573419 -0.03571393 42.77639132 -0.0502396 48.3954649 -0.06247711 C59.40356719 -0.08354263 70.41161683 -0.08807131 81.4197369 -0.08628923 C90.36685993 -0.08498214 99.31396652 -0.08878303 108.26108646 -0.09621429 C110.83728542 -0.09831347 113.41348437 -0.10041107 115.98968333 -0.10250711 C117.27189211 -0.10355064 118.55410088 -0.10459417 119.87516447 -0.10566932 C137.23979957 -0.1192046 154.60442357 -0.12679495 171.96906281 -0.12234497 C172.64806423 -0.12217302 173.32706565 -0.12200106 174.02664288 -0.1218239 C177.46804014 -0.12093501 180.9094374 -0.1199902 184.35083465 -0.11902589 C185.03429854 -0.11883485 185.71776243 -0.11864382 186.42193735 -0.118447 C187.80406752 -0.11805991 189.18619768 -0.11766958 190.56832784 -0.11727602 C212.07210642 -0.1113066 233.57577736 -0.12674194 255.07953167 -0.15888214 C279.24345805 -0.19496776 303.40729504 -0.21424682 327.57125586 -0.20934343 C340.36392644 -0.20709794 353.15649033 -0.21235364 365.9491396 -0.23723602 C376.84024268 -0.25823926 387.73118057 -0.26185075 398.62229041 -0.24293643 C404.17899472 -0.23377261 409.73539095 -0.2326557 415.29207134 -0.25329208 C420.38055563 -0.27198066 425.46847904 -0.26752198 430.55694183 -0.24474627 C432.3960647 -0.2405552 434.23523039 -0.24477751 436.07430802 -0.25834221 C446.28523801 -0.32851681 455.49725692 -0.35286707 463.57369643 6.79035044 C470.36849245 14.19754195 470.41855447 21.81876263 470.37701702 31.34400177 C470.38310812 32.65374739 470.38919923 33.96349302 470.39547491 35.3129279 C470.41184842 38.93777609 470.40956184 42.56240642 470.40409994 46.18727863 C470.40142652 50.10083922 470.41596744 54.01434216 470.428195 57.92787933 C470.44923841 65.59116468 470.45379046 73.25437436 470.45200711 80.91768519 C470.45069887 87.14789604 470.4545068 93.37808331 470.46193218 99.60828972 C470.46403141 101.40372807 470.46612901 103.19916642 470.468225 104.99460477 C470.46979029 106.33512326 470.46979029 106.33512326 470.47138721 107.70272293 C470.49028538 124.60081909 470.48924075 141.49887182 470.48241788 158.39697417 C470.47684342 173.84807319 470.49766445 189.29900635 470.53077835 204.75006662 C470.56453076 220.62250498 470.5796817 236.49486392 470.57506132 252.36733884 C470.57281811 261.2755789 470.578038 270.1836657 470.60295391 279.09187508 C470.62398714 286.67638976 470.62753909 294.26066714 470.60865432 301.84519164 C470.59950863 305.712872 470.59831705 309.58011014 470.61900997 313.44775581 C470.64122236 317.64593604 470.62447328 321.84307814 470.6040678 326.0412674 C470.61658565 327.25635855 470.6291035 328.4714497 470.64200068 329.72336179 C470.55701235 337.88548809 469.07231715 344.69919687 463.57536745 350.99481183 C457.91254453 356.10992773 451.96488212 357.75501519 444.53511333 357.78183746 C443.81859425 357.78848429 443.10207517 357.79513112 442.36384338 357.80197936 C439.98083939 357.82052091 437.5983414 357.81801015 435.21527386 357.81548309 C433.49997027 357.82450568 431.78467312 357.83483412 430.06938457 357.84636688 C425.42530198 357.87390467 420.78134185 357.88321703 416.1371882 357.88922095 C411.27912926 357.89861299 406.42116149 357.92481707 401.56315899 357.94922638 C392.36942511 357.9928722 383.17570893 358.02143096 373.98190302 358.04454976 C363.51272169 358.07161169 353.04363216 358.11552261 342.57451642 358.16083848 C321.04392962 358.25365732 299.51331536 358.32535073 277.98260784 358.38311005 C278.83886509 360.09169693 278.83886509 360.09169693 279.71242046 361.83480072 C281.86273163 366.12626256 284.01164639 370.41842244 286.16017437 374.71077728 C287.08413986 376.55621874 288.0084666 378.40147939 288.93318462 380.24654388 C295.48811201 393.32622126 301.95316177 406.43825177 308.17669964 419.67949677 C308.7640333 420.92106425 309.36836837 422.1546311 309.98260784 423.38311005 C311.28407757 423.39245575 312.58554729 423.40180145 313.9264555 423.41143036 C318.76859679 423.45139052 323.61010677 423.51716662 328.45184612 423.59062958 C330.5448624 423.61880417 332.63798438 423.64003614 334.731143 423.65410614 C337.74520121 423.67558399 340.75799321 423.72225992 343.77167034 423.77373505 C344.70314892 423.77496368 345.63462749 423.77619232 346.5943327 423.77745819 C352.2159553 423.90335908 355.53644099 424.61170727 359.98260784 428.38311005 C364.81367561 433.86702481 365.33285527 437.18850404 365.26385784 444.39873505 C364.7641506 449.70118413 362.23183735 452.25575659 358.42010784 455.69561005 C355.05915803 458.02242145 352.52740586 458.50831741 348.54126644 458.51733112 C347.62696055 458.52178897 346.71265465 458.52624681 345.77064252 458.53083974 C344.76472743 458.53065538 343.75881234 458.53047102 342.72241497 458.53028107 C341.65489994 458.53395775 340.58738491 458.53763444 339.48752093 458.54142255 C335.89245396 458.55247988 332.29741586 458.55630669 328.7023344 458.560112 C326.13200062 458.56637505 323.56166774 458.5730217 320.99133587 458.58002472 C313.26538654 458.59978561 305.53943591 458.60985461 297.81346762 458.61875251 C294.1752642 458.6231358 290.53706224 458.62850249 286.89885998 458.63374138 C274.80498462 458.65075287 262.71111018 458.6652473 250.61722469 458.67249012 C247.47892792 458.67440001 244.34063115 458.67632035 241.2023344 458.67827606 C240.42232601 458.6787598 239.64231762 458.67924354 238.83867261 458.67974194 C226.20148775 458.68804324 213.56439752 458.71338216 200.92725399 458.74585674 C187.95345094 458.77892472 174.97969598 458.79693862 162.00585055 458.80013436 C154.72129209 458.80229965 147.43687164 458.81105096 140.15235424 458.83659554 C133.30038305 458.86056783 126.4486641 458.86412985 119.59665966 458.85383415 C117.08077449 458.85333746 114.5648773 458.85969693 112.04902935 458.8733902 C108.61596475 458.89103131 105.18379987 458.88404035 101.75073528 458.87085724 C100.25524698 458.88731111 100.25524698 458.88731111 98.72954679 458.90409738 C92.60451413 458.84726148 88.99106868 457.97450525 83.98260784 454.38311005 C79.0949435 448.98095472 78.63286436 445.52505388 78.70135784 438.36748505 C79.2032276 433.04208929 81.7364616 430.48090554 85.60760784 427.07061005 C88.770696 424.82315267 90.4300635 424.25416093 94.24872112 424.17778778 C95.12948315 424.15784256 96.01024517 424.13789734 96.91769695 424.11734772 C98.34588253 424.09227898 98.34588253 424.09227898 99.80292034 424.0667038 C100.77671642 424.0459227 101.7505125 424.0251416 102.75381756 424.00373077 C105.87167431 423.93822407 108.98961688 423.87934508 112.10760784 423.82061005 C114.21829388 423.7774259 116.32897117 423.73381164 118.43963909 423.68975067 C123.62053735 423.58254158 128.80152141 423.48077727 133.98260784 423.38311005 C140.79401863 409.8663852 147.5620555 396.33724424 154.02679729 382.65044403 C156.6672599 377.07438044 159.38858648 371.54335332 162.15326214 366.02812958 C162.52250553 365.29062973 162.89174892 364.55312988 163.27218151 363.79328156 C164.17525558 361.98969002 165.07887587 360.18637201 165.98260784 358.38311005 C165.09507635 358.38256528 164.20754486 358.38202051 163.29311848 358.38145924 C141.67543237 358.36647752 120.05795218 358.32397437 98.44038105 358.25101948 C87.9861713 358.21639901 77.53209302 358.19101781 67.07782269 358.18755341 C57.96351587 358.18450942 48.84944335 358.16396055 39.73522699 358.12258548 C34.91138918 358.10129324 30.08788416 358.08863545 25.26399899 358.09695625 C20.71824588 358.1045203 16.17316575 358.08857837 11.62753582 358.0550499 C9.96437214 358.04684491 8.30114118 358.04703317 6.63798428 358.05651283 C-3.16292705 358.10681985 -11.87045017 357.79911785 -19.61438274 350.97601795 C-26.39471108 343.55130504 -26.45338012 335.95693522 -26.41180134 326.42221832 C-26.41789244 325.1124727 -26.42398355 323.80272708 -26.43025923 322.45329219 C-26.44663274 318.828444 -26.44434615 315.20381367 -26.43888426 311.57894146 C-26.43621084 307.66538087 -26.45075176 303.75187794 -26.46297932 299.83834076 C-26.48402272 292.17505541 -26.48857478 284.51184573 -26.48679143 276.8485349 C-26.48548319 270.61832405 -26.48929111 264.38813679 -26.4967165 258.15793037 C-26.49881573 256.36249203 -26.50091333 254.56705368 -26.50300932 252.77161533 C-26.50405285 251.87793633 -26.50509637 250.98425734 -26.50617152 250.06349716 C-26.52506969 233.16540101 -26.52402507 216.26734827 -26.5172022 199.36924592 C-26.51162774 183.9181469 -26.53244877 168.46721374 -26.56556267 153.01615348 C-26.59931508 137.14371512 -26.61446602 121.27135617 -26.60984564 105.39888126 C-26.60760243 96.49064119 -26.61282232 87.58255439 -26.63773823 78.67434502 C-26.65877146 71.08983033 -26.66232341 63.50555295 -26.64343864 55.92102846 C-26.63429295 52.0533481 -26.63310137 48.18610995 -26.65379429 44.31846428 C-26.67600667 40.12028405 -26.6592576 35.92314195 -26.63885212 31.7249527 C-26.65136997 30.50986155 -26.66388782 29.2947704 -26.67678499 28.0428583 C-26.59179667 19.880732 -25.10710147 13.06702322 -19.61015177 6.77140826 C-13.79125109 1.51531041 -7.61526428 -0.06854844 0 0 Z " fill="#C9EFFE" transform="translate(34.0173921585083,26.61688995361328)"/>
<path d="M0 0 C0.78173284 -0.00495952 1.56346568 -0.00991903 2.36888739 -0.01502883 C4.98625018 -0.02797387 7.60310189 -0.0196038 10.2204771 -0.01129913 C12.11680341 -0.01618855 14.01312673 -0.0223786 15.90944499 -0.02975702 C21.1190921 -0.0461732 26.32858805 -0.04383517 31.538252 -0.03838205 C37.1573419 -0.03571393 42.77639132 -0.0502396 48.3954649 -0.06247711 C59.40356719 -0.08354263 70.41161683 -0.08807131 81.4197369 -0.08628923 C90.36685993 -0.08498214 99.31396652 -0.08878303 108.26108646 -0.09621429 C110.83728542 -0.09831347 113.41348437 -0.10041107 115.98968333 -0.10250711 C117.27189211 -0.10355064 118.55410088 -0.10459417 119.87516447 -0.10566932 C137.23979957 -0.1192046 154.60442357 -0.12679495 171.96906281 -0.12234497 C172.64806423 -0.12217302 173.32706565 -0.12200106 174.02664288 -0.1218239 C177.46804014 -0.12093501 180.9094374 -0.1199902 184.35083465 -0.11902589 C185.03429854 -0.11883485 185.71776243 -0.11864382 186.42193735 -0.118447 C187.80406752 -0.11805991 189.18619768 -0.11766958 190.56832784 -0.11727602 C212.07210642 -0.1113066 233.57577736 -0.12674194 255.07953167 -0.15888214 C279.24345805 -0.19496776 303.40729504 -0.21424682 327.57125586 -0.20934343 C340.36392644 -0.20709794 353.15649033 -0.21235364 365.9491396 -0.23723602 C376.84024268 -0.25823926 387.73118057 -0.26185075 398.62229041 -0.24293643 C404.17899472 -0.23377261 409.73539095 -0.2326557 415.29207134 -0.25329208 C420.38055563 -0.27198066 425.46847904 -0.26752198 430.55694183 -0.24474627 C432.3960647 -0.2405552 434.23523039 -0.24477751 436.07430802 -0.25834221 C446.28523801 -0.32851681 455.49725692 -0.35286707 463.57369643 6.79035044 C470.36849245 14.19754195 470.41855447 21.81876263 470.37701702 31.34400177 C470.38310812 32.65374739 470.38919923 33.96349302 470.39547491 35.3129279 C470.41184842 38.93777609 470.40956184 42.56240642 470.40409994 46.18727863 C470.40142652 50.10083922 470.41596744 54.01434216 470.428195 57.92787933 C470.44923841 65.59116468 470.45379046 73.25437436 470.45200711 80.91768519 C470.45069887 87.14789604 470.4545068 93.37808331 470.46193218 99.60828972 C470.46403141 101.40372807 470.46612901 103.19916642 470.468225 104.99460477 C470.46979029 106.33512326 470.46979029 106.33512326 470.47138721 107.70272293 C470.49028538 124.60081909 470.48924075 141.49887182 470.48241788 158.39697417 C470.47684342 173.84807319 470.49766445 189.29900635 470.53077835 204.75006662 C470.56453076 220.62250498 470.5796817 236.49486392 470.57506132 252.36733884 C470.57281811 261.2755789 470.578038 270.1836657 470.60295391 279.09187508 C470.62398714 286.67638976 470.62753909 294.26066714 470.60865432 301.84519164 C470.59950863 305.712872 470.59831705 309.58011014 470.61900997 313.44775581 C470.64122236 317.64593604 470.62447328 321.84307814 470.6040678 326.0412674 C470.61658565 327.25635855 470.6291035 328.4714497 470.64200068 329.72336179 C470.55701235 337.88548809 469.07231715 344.69919687 463.57536745 350.99481183 C457.91254453 356.10992773 451.96488212 357.75501519 444.53511333 357.78183746 C443.81859425 357.78848429 443.10207517 357.79513112 442.36384338 357.80197936 C439.98083939 357.82052091 437.5983414 357.81801015 435.21527386 357.81548309 C433.49997027 357.82450568 431.78467312 357.83483412 430.06938457 357.84636688 C425.42530198 357.87390467 420.78134185 357.88321703 416.1371882 357.88922095 C411.27912926 357.89861299 406.42116149 357.92481707 401.56315899 357.94922638 C392.36942511 357.9928722 383.17570893 358.02143096 373.98190302 358.04454976 C363.51272169 358.07161169 353.04363216 358.11552261 342.57451642 358.16083848 C321.04392962 358.25365732 299.51331536 358.32535073 277.98260784 358.38311005 C278.83886509 360.09169693 278.83886509 360.09169693 279.71242046 361.83480072 C281.86273163 366.12626256 284.01164639 370.41842244 286.16017437 374.71077728 C287.08413986 376.55621874 288.0084666 378.40147939 288.93318462 380.24654388 C295.48811201 393.32622126 301.95316177 406.43825177 308.17669964 419.67949677 C308.7640333 420.92106425 309.36836837 422.1546311 309.98260784 423.38311005 C311.28407757 423.39245575 312.58554729 423.40180145 313.9264555 423.41143036 C318.76859679 423.45139052 323.61010677 423.51716662 328.45184612 423.59062958 C330.5448624 423.61880417 332.63798438 423.64003614 334.731143 423.65410614 C337.74520121 423.67558399 340.75799321 423.72225992 343.77167034 423.77373505 C344.70314892 423.77496368 345.63462749 423.77619232 346.5943327 423.77745819 C352.2159553 423.90335908 355.53644099 424.61170727 359.98260784 428.38311005 C364.81367561 433.86702481 365.33285527 437.18850404 365.26385784 444.39873505 C364.7641506 449.70118413 362.23183735 452.25575659 358.42010784 455.69561005 C355.05915803 458.02242145 352.52740586 458.50831741 348.54126644 458.51733112 C347.62696055 458.52178897 346.71265465 458.52624681 345.77064252 458.53083974 C344.76472743 458.53065538 343.75881234 458.53047102 342.72241497 458.53028107 C341.65489994 458.53395775 340.58738491 458.53763444 339.48752093 458.54142255 C335.89245396 458.55247988 332.29741586 458.55630669 328.7023344 458.560112 C326.13200062 458.56637505 323.56166774 458.5730217 320.99133587 458.58002472 C313.26538654 458.59978561 305.53943591 458.60985461 297.81346762 458.61875251 C294.1752642 458.6231358 290.53706224 458.62850249 286.89885998 458.63374138 C274.80498462 458.65075287 262.71111018 458.6652473 250.61722469 458.67249012 C247.47892792 458.67440001 244.34063115 458.67632035 241.2023344 458.67827606 C240.42232601 458.6787598 239.64231762 458.67924354 238.83867261 458.67974194 C226.20148775 458.68804324 213.56439752 458.71338216 200.92725399 458.74585674 C187.95345094 458.77892472 174.97969598 458.79693862 162.00585055 458.80013436 C154.72129209 458.80229965 147.43687164 458.81105096 140.15235424 458.83659554 C133.30038305 458.86056783 126.4486641 458.86412985 119.59665966 458.85383415 C117.08077449 458.85333746 114.5648773 458.85969693 112.04902935 458.8733902 C108.61596475 458.89103131 105.18379987 458.88404035 101.75073528 458.87085724 C100.25524698 458.88731111 100.25524698 458.88731111 98.72954679 458.90409738 C92.60451413 458.84726148 88.99106868 457.97450525 83.98260784 454.38311005 C79.0949435 448.98095472 78.63286436 445.52505388 78.70135784 438.36748505 C79.2032276 433.04208929 81.7364616 430.48090554 85.60760784 427.07061005 C88.770696 424.82315267 90.4300635 424.25416093 94.24872112 424.17778778 C95.12948315 424.15784256 96.01024517 424.13789734 96.91769695 424.11734772 C98.34588253 424.09227898 98.34588253 424.09227898 99.80292034 424.0667038 C100.77671642 424.0459227 101.7505125 424.0251416 102.75381756 424.00373077 C105.87167431 423.93822407 108.98961688 423.87934508 112.10760784 423.82061005 C114.21829388 423.7774259 116.32897117 423.73381164 118.43963909 423.68975067 C123.62053735 423.58254158 128.80152141 423.48077727 133.98260784 423.38311005 C140.79401863 409.8663852 147.5620555 396.33724424 154.02679729 382.65044403 C156.6672599 377.07438044 159.38858648 371.54335332 162.15326214 366.02812958 C162.52250553 365.29062973 162.89174892 364.55312988 163.27218151 363.79328156 C164.17525558 361.98969002 165.07887587 360.18637201 165.98260784 358.38311005 C165.09507635 358.38256528 164.20754486 358.38202051 163.29311848 358.38145924 C141.67543237 358.36647752 120.05795218 358.32397437 98.44038105 358.25101948 C87.9861713 358.21639901 77.53209302 358.19101781 67.07782269 358.18755341 C57.96351587 358.18450942 48.84944335 358.16396055 39.73522699 358.12258548 C34.91138918 358.10129324 30.08788416 358.08863545 25.26399899 358.09695625 C20.71824588 358.1045203 16.17316575 358.08857837 11.62753582 358.0550499 C9.96437214 358.04684491 8.30114118 358.04703317 6.63798428 358.05651283 C-3.16292705 358.10681985 -11.87045017 357.79911785 -19.61438274 350.97601795 C-26.39471108 343.55130504 -26.45338012 335.95693522 -26.41180134 326.42221832 C-26.41789244 325.1124727 -26.42398355 323.80272708 -26.43025923 322.45329219 C-26.44663274 318.828444 -26.44434615 315.20381367 -26.43888426 311.57894146 C-26.43621084 307.66538087 -26.45075176 303.75187794 -26.46297932 299.83834076 C-26.48402272 292.17505541 -26.48857478 284.51184573 -26.48679143 276.8485349 C-26.48548319 270.61832405 -26.48929111 264.38813679 -26.4967165 258.15793037 C-26.49881573 256.36249203 -26.50091333 254.56705368 -26.50300932 252.77161533 C-26.50405285 251.87793633 -26.50509637 250.98425734 -26.50617152 250.06349716 C-26.52506969 233.16540101 -26.52402507 216.26734827 -26.5172022 199.36924592 C-26.51162774 183.9181469 -26.53244877 168.46721374 -26.56556267 153.01615348 C-26.59931508 137.14371512 -26.61446602 121.27135617 -26.60984564 105.39888126 C-26.60760243 96.49064119 -26.61282232 87.58255439 -26.63773823 78.67434502 C-26.65877146 71.08983033 -26.66232341 63.50555295 -26.64343864 55.92102846 C-26.63429295 52.0533481 -26.63310137 48.18610995 -26.65379429 44.31846428 C-26.67600667 40.12028405 -26.6592576 35.92314195 -26.63885212 31.7249527 C-26.65136997 30.50986155 -26.66388782 29.2947704 -26.67678499 28.0428583 C-26.59179667 19.880732 -25.10710147 13.06702322 -19.61015177 6.77140826 C-13.79125109 1.51531041 -7.61526428 -0.06854844 0 0 Z M4.98260784 33.38311005 C4.67952358 35.58305767 4.67952358 35.58305767 4.73092556 38.16827393 C4.72571007 39.18469074 4.72049457 40.20110755 4.71512103 41.24832487 C4.71958247 42.3734009 4.72404392 43.49847693 4.72864056 44.65764618 C4.72552058 45.84625763 4.72240059 47.03486909 4.71918607 48.25949907 C4.7125666 51.56905676 4.71497927 54.87838899 4.7211585 58.18793321 C4.72566756 61.75307653 4.71870695 65.31819958 4.71319866 68.88333893 C4.70428641 75.87151338 4.70623479 82.85964496 4.71202394 89.84782112 C4.71653325 95.52520149 4.71715652 101.20256982 4.71497631 106.87995148 C4.71466984 107.68673317 4.71436338 108.49351487 4.71404763 109.32474449 C4.7134082 110.96349697 4.71275978 112.60224944 4.71210244 114.2410019 C4.70639378 129.62231064 4.71296543 145.00359556 4.72370318 160.38490039 C4.73263917 173.59443923 4.73108728 186.80394293 4.72186565 200.01348114 C4.71117247 215.33822124 4.70694316 230.66294046 4.71309018 245.98768377 C4.71372731 247.62054538 4.71435605 249.253407 4.71497631 250.88626862 C4.71528486 251.6897533 4.71559341 252.49323799 4.71591131 253.3210707 C4.71764112 258.99430785 4.71471703 264.6675318 4.7100172 270.34076691 C4.70441892 277.25070915 4.70590255 284.16060593 4.71657869 291.07054293 C4.72184966 294.59884433 4.72386807 298.12706981 4.71728039 301.65537071 C4.71025982 305.47314843 4.7186193 309.29080072 4.72864056 313.10857391 C4.72417911 314.23364995 4.71971767 315.35872598 4.71512103 316.51789522 C4.72033653 317.53431203 4.72555202 318.55072885 4.73092556 319.59794617 C4.73125026 320.48009151 4.73157497 321.36223685 4.73190951 322.27111387 C4.7875259 324.60057963 4.7875259 324.60057963 6.98260784 326.38311005 C10.14009223 326.68848493 10.14009223 326.68848493 13.93858624 326.63479233 C15.03015001 326.63915265 15.03015001 326.63915265 16.14376557 326.64360106 C18.60729953 326.65095951 21.07058895 326.64393075 23.53412151 326.63707733 C25.3080877 326.63937946 27.08205294 326.64255431 28.85601616 326.64653182 C33.75033866 326.65492256 38.6445837 326.65073525 43.53890657 326.64455938 C48.8095847 326.6400533 54.08024906 326.64700945 59.35092449 326.65251923 C69.68391654 326.66143467 80.01687962 326.65948167 90.34987283 326.65369394 C98.74416705 326.64918589 107.13845313 326.64856083 115.53274822 326.65074158 C117.32158358 326.65120128 117.32158358 326.65120128 119.14655703 326.65167026 C121.56885251 326.65230968 123.99114798 326.65295811 126.41344345 326.65361544 C149.15273135 326.65932504 171.89200315 326.65275099 194.63128841 326.64201471 C214.16279097 326.63307863 233.69426977 326.6346305 253.2257719 326.64385223 C275.88105219 326.65454377 298.53631835 326.65877566 321.1916008 326.65262771 C323.60522302 326.65199058 326.01884524 326.65136184 328.43246746 326.65074158 C329.62016348 326.65043303 330.80785949 326.65012448 332.03154629 326.64980657 C340.42037811 326.64807628 348.80920099 326.65100192 357.19803143 326.65570068 C367.41457962 326.66129714 377.63109706 326.65981921 387.84764171 326.6491392 C393.06500711 326.64386577 398.28232116 326.64185401 403.49968624 326.6484375 C408.26890383 326.65436469 413.03802211 326.65117574 417.80723059 326.6404824 C419.53936083 326.63823456 421.27149933 326.63941529 423.00362432 326.64423397 C425.34474804 326.65025096 427.68552438 326.64414402 430.02662945 326.63479233 C431.3310238 326.63446762 432.63541815 326.63414292 433.9793396 326.63380837 C437.09720894 326.69906542 437.09720894 326.69906542 438.98260784 324.38311005 C439.2856921 322.18316242 439.2856921 322.18316242 439.23429012 319.59794617 C439.23950562 318.58152936 439.24472111 317.56511254 439.25009465 316.51789522 C439.24563321 315.39281919 439.24117177 314.26774316 439.23657513 313.10857391 C439.23969511 311.91996246 439.24281509 310.731351 439.24602962 309.50672102 C439.25264908 306.19716333 439.25023642 302.8878311 439.24405718 299.57828689 C439.23954812 296.01314356 439.24650873 292.44802051 439.25201702 288.88288116 C439.26092927 281.89470672 439.25898089 274.90657513 439.25319174 267.91839898 C439.24868244 262.2410186 439.24805917 256.56365027 439.25023937 250.88626862 C439.25069907 249.67609607 439.25069907 249.67609607 439.25116806 248.4414756 C439.25180748 246.80272313 439.25245591 245.16397066 439.25311324 243.52521819 C439.2588219 228.14390946 439.25225025 212.76262453 439.24151251 197.3813197 C439.23257651 184.17178086 439.2341284 170.96227716 439.24335003 157.75273895 C439.25404322 142.42799885 439.25827253 127.10327963 439.2521255 111.77853632 C439.25148838 110.14567471 439.25085964 108.51281309 439.25023937 106.87995148 C439.24993082 106.07646679 439.24962227 105.2729821 439.24930437 104.44514939 C439.24757457 98.77191224 439.25049865 93.09868829 439.25519848 87.42545319 C439.26079676 80.51551095 439.25931314 73.60561417 439.24863699 66.69567716 C439.24336602 63.16737577 439.24134762 59.63915028 439.2479353 56.11084938 C439.25495586 52.29307167 439.24659638 48.47541937 439.23657513 44.65764618 C439.24103657 43.53257015 439.24549801 42.40749412 439.25009465 41.24832487 C439.24487916 40.23190806 439.23966366 39.21549125 439.23429012 38.16827393 C439.23396542 37.28612858 439.23364071 36.40398324 439.23330617 35.49510622 C439.17768978 33.16564046 439.17768978 33.16564046 436.98260784 31.38311005 C433.82512346 31.07773516 433.82512346 31.07773516 430.02662945 31.13142776 C428.93506568 31.12706744 428.93506568 31.12706744 427.82145011 31.12261903 C425.35791616 31.11526058 422.89462674 31.12228935 420.43109417 31.12914276 C418.65712798 31.12684063 416.88316275 31.12366579 415.10919952 31.11968827 C410.21487703 31.11129753 405.32063198 31.11548485 400.42630911 31.12166071 C395.15563098 31.12616679 389.88496662 31.11921064 384.61429119 31.11370087 C374.28129914 31.10478542 363.94833606 31.10673842 353.61534286 31.11252615 C345.22104863 31.1170342 336.82676255 31.11765927 328.43246746 31.11547852 C326.6436321 31.11501882 326.6436321 31.11501882 324.81865865 31.11454983 C322.39636318 31.11391041 319.97406771 31.11326198 317.55177224 31.11260465 C294.81248434 31.10689505 272.07321253 31.1134691 249.33392727 31.12420538 C229.80242471 31.13314146 210.27094591 31.13158959 190.73944378 31.12236786 C168.08416349 31.11167632 145.42889734 31.10744443 122.77361488 31.11359239 C120.35999267 31.11422952 117.94637044 31.11485826 115.53274822 31.11547852 C114.34505221 31.11578707 113.15735619 31.11609562 111.93366939 31.11641352 C103.54483758 31.11814382 95.15601469 31.11521817 86.76718426 31.11051941 C76.55063607 31.10492296 66.33411862 31.10640088 56.11757398 31.1170809 C50.90020857 31.12235433 45.68289452 31.12436608 40.46552944 31.11778259 C35.69631185 31.1118554 30.92719358 31.11504436 26.15798509 31.1257377 C24.42585486 31.12798553 22.69371635 31.1268048 20.96159136 31.12198612 C18.62046765 31.11596913 16.2796913 31.12207607 13.93858624 31.13142776 C12.63419188 31.13175247 11.32979753 31.13207717 9.98587608 31.13241172 C6.86800674 31.06715468 6.86800674 31.06715468 4.98260784 33.38311005 Z " fill="#EFEFF0" transform="translate(34.0173921585083,26.61688995361328)"/>
<path d="M0 0 C36.3 0 72.6 0 110 0 C121.67682927 22.18597561 121.67682927 22.18597561 125.4375 29.75 C125.8814209 30.63977539 126.3253418 31.52955078 126.78271484 32.44628906 C131.65211099 42.24652484 136.36223962 52.1232182 141.05126953 62.01074219 C141.68834273 63.34653026 142.3381553 64.6763106 143 66 C144.30146973 66.0093457 145.60293945 66.01869141 146.94384766 66.02832031 C151.78598895 66.06828047 156.62749893 66.13405657 161.46923828 66.20751953 C163.56225456 66.23569413 165.65537654 66.25692609 167.74853516 66.27099609 C170.76259337 66.29247394 173.77538537 66.33914988 176.7890625 66.390625 C177.72054108 66.39185364 178.65201965 66.39308228 179.61172485 66.39434814 C185.23334746 66.52024903 188.55383315 67.22859722 193 71 C197.83106777 76.48391476 198.35024743 79.80539399 198.28125 87.015625 C197.78154276 92.31807409 195.2492295 94.87264655 191.4375 98.3125 C188.07655019 100.6393114 185.54479802 101.12520736 181.5586586 101.13422108 C180.64435271 101.13867892 179.73004681 101.14313676 178.78803468 101.14772969 C177.78211959 101.14754533 176.7762045 101.14736097 175.73980713 101.14717102 C174.6722921 101.15084771 173.60477706 101.1545244 172.50491309 101.1583125 C168.90984611 101.16936983 165.31480802 101.17319665 161.71972656 101.17700195 C159.14939278 101.183265 156.5790599 101.18991166 154.00872803 101.19691467 C146.2827787 101.21667556 138.55682806 101.22674457 130.83085978 101.23564246 C127.19265636 101.24002576 123.5544544 101.24539244 119.91625214 101.25063133 C107.82237678 101.26764282 95.72850233 101.28213725 83.63461685 101.28938007 C80.49632008 101.29128997 77.35802331 101.2932103 74.21972656 101.29516602 C73.43971817 101.29564976 72.65970978 101.2961335 71.85606477 101.2966319 C59.21887991 101.30493319 46.58178968 101.33027211 33.94464615 101.36274669 C20.97084309 101.39581467 7.99708814 101.41382857 -4.97675729 101.41702431 C-12.26131575 101.4191896 -19.5457362 101.42794091 -26.8302536 101.45348549 C-33.68222479 101.47745778 -40.53394374 101.48101981 -47.38594818 101.47072411 C-49.90183335 101.47022741 -52.41773054 101.47658688 -54.93357849 101.49028015 C-58.3666431 101.50792126 -61.79880797 101.50093031 -65.23187256 101.48774719 C-66.22886476 101.49871644 -67.22585697 101.50968568 -68.25306106 101.52098733 C-74.37809371 101.46415144 -77.99153916 100.5913952 -83 97 C-87.88766435 91.59784467 -88.34974348 88.14194384 -88.28125 80.984375 C-87.77938024 75.65897925 -85.24614624 73.0977955 -81.375 69.6875 C-78.21191184 67.44004262 -76.55254434 66.87105089 -72.73388672 66.79467773 C-71.41274368 66.7647599 -71.41274368 66.7647599 -70.06491089 66.73423767 C-69.11278717 66.71752518 -68.16066345 66.70081268 -67.1796875 66.68359375 C-65.71899338 66.6524221 -65.71899338 66.6524221 -64.22879028 66.62062073 C-61.11093353 66.55511402 -57.99299097 66.49623503 -54.875 66.4375 C-52.76431396 66.39431585 -50.65363667 66.3507016 -48.54296875 66.30664062 C-43.3620705 66.19943153 -38.18108644 66.09766722 -33 66 C-26.20613717 52.51809775 -19.43392185 39.03451304 -13.04370117 25.35522461 C-8.97385527 16.72427405 -4.4853514 8.47233041 0 0 Z " fill="#D1D3D3" transform="translate(201,384)"/>
<path d="M0 0 C4.86907671 1.87254626 9.47377866 1.95798849 14.64453125 1.90234375 C15.57152832 1.89984619 16.49852539 1.89734863 17.45361328 1.89477539 C23.61184476 1.77312464 28.52910446 0.80202624 34.19921875 -1.6953125 C40.52614465 -4.18668442 48.44367799 -0.07267865 54.33203125 2.46484375 C70.15141467 10.32659793 80.81713005 23.26045745 87.33203125 39.46484375 C87.76008057 40.5163562 87.76008057 40.5163562 88.19677734 41.58911133 C91.25694947 50.64400339 90.71368043 60.11965777 90.61328125 69.55639648 C90.58177827 72.55139475 90.57226712 75.54586711 90.56640625 78.54101562 C90.55724831 80.44401689 90.54687643 82.34701279 90.53515625 84.25 C90.53090637 85.14574234 90.52665649 86.04148468 90.52227783 86.96437073 C90.51267029 87.78960739 90.50306274 88.61484406 90.49316406 89.46508789 C90.48292206 90.55449425 90.48292206 90.55449425 90.47247314 91.66590881 C90.33203125 93.46484375 90.33203125 93.46484375 89.33203125 95.46484375 C70.2001639 95.51151395 51.06830806 95.54680811 31.93639565 95.56846809 C23.05360641 95.57879141 14.1708525 95.59287184 5.28808594 95.61572266 C-2.45192539 95.6356243 -10.19191115 95.6485525 -17.93194735 95.65302074 C-22.03223308 95.65563361 -26.13244564 95.66179675 -30.23270798 95.67630386 C-34.08874642 95.68983689 -37.94468126 95.69407512 -41.8007412 95.69105911 C-43.21895726 95.6916112 -44.63717665 95.69561409 -46.05537224 95.7032547 C-47.98581335 95.71314849 -49.91630953 95.70963428 -51.84677124 95.70535278 C-52.9289562 95.70719637 -54.01114117 95.70903996 -55.12611961 95.71093941 C-57.66796875 95.46484375 -57.66796875 95.46484375 -59.66796875 93.46484375 C-59.88093583 90.4469582 -59.97191064 87.52348771 -59.96875 84.50390625 C-59.97303513 83.60296234 -59.97732025 82.70201843 -59.98173523 81.77377319 C-59.98748949 79.85879353 -59.98797077 77.94379201 -59.98364258 76.02880859 C-59.98051859 73.13599709 -60.00380087 70.24424471 -60.02929688 67.3515625 C-60.10551842 45.92112742 -54.88648086 29.37451989 -39.875 13.578125 C-29.66469905 3.8903128 -13.97127944 -5.84740449 0 0 Z " fill="#6CE75A" transform="translate(129.66796875,226.53515625)"/>
<path d="M0 0 C0.91989834 -0.00445784 1.83979667 -0.00891569 2.78757071 -0.01350862 C3.80486266 -0.01332426 4.82215461 -0.01313989 5.87027359 -0.01294994 C7.48357351 -0.01846498 7.48357351 -0.01846498 9.12946534 -0.02409142 C12.7576114 -0.03516356 16.38572886 -0.03897806 20.01388931 -0.04278088 C22.60540229 -0.04904283 25.19691437 -0.05568938 27.78842545 -0.0626936 C35.58301171 -0.08246818 43.37759929 -0.09252564 51.17220438 -0.10142139 C54.84142096 -0.10580281 58.51063609 -0.11117001 62.17985153 -0.11641026 C74.37491303 -0.13342381 86.56997362 -0.1479183 98.76504517 -0.155159 C101.93067552 -0.15706894 105.09630586 -0.15898927 108.26193619 -0.16094494 C109.44216234 -0.16167055 109.44216234 -0.16167055 110.64623144 -0.16241082 C123.39408599 -0.17071231 136.14184674 -0.19605063 148.88966033 -0.22852562 C161.97303809 -0.26158412 175.05636816 -0.27960667 188.13978791 -0.28280324 C195.48748606 -0.2849695 202.83504744 -0.293735 210.18270493 -0.31926441 C217.093755 -0.34322111 224.00455499 -0.34680467 230.91563797 -0.33650303 C233.45451805 -0.33600597 235.99341 -0.34237608 238.53225327 -0.35605907 C241.99418331 -0.37367541 245.45521891 -0.36672154 248.91714859 -0.35352612 C250.42970218 -0.36997998 250.42970218 -0.36997998 251.97281241 -0.38676625 C257.71585617 -0.33379529 261.12435515 0.23310581 265.64767838 4.13422108 C270.47874614 9.61813584 270.9979258 12.93961507 270.92892838 20.14984608 C270.42922113 25.45229516 267.89690788 28.00686762 264.08517838 31.44672108 C260.72422857 33.77353248 258.1924764 34.25942844 254.20633698 34.26844215 C253.29203108 34.2729 252.37772519 34.27735784 251.43571305 34.28195077 C250.42979796 34.28176641 249.42388287 34.28158205 248.3874855 34.2813921 C247.31997047 34.28506879 246.25245544 34.28874547 245.15259147 34.29253358 C241.55752449 34.30359091 237.96248639 34.30741772 234.36740494 34.31122303 C231.79707115 34.31748608 229.22673828 34.32413273 226.6564064 34.33113575 C218.93045707 34.35089664 211.20450644 34.36096564 203.47853816 34.36986354 C199.84033474 34.37424683 196.20213278 34.37961352 192.56393051 34.38485241 C180.47005516 34.4018639 168.37618071 34.41635833 156.28229523 34.42360115 C153.14399845 34.42551104 150.00570168 34.42743138 146.86740494 34.42938709 C146.08739655 34.42987083 145.30738815 34.43035457 144.50374314 34.43085297 C131.86655829 34.43915427 119.22946806 34.46449319 106.59232453 34.49696777 C93.61852147 34.53003575 80.64476651 34.54804965 67.67092109 34.55124539 C60.38636262 34.55341068 53.10194217 34.56216199 45.81742477 34.58770657 C38.96545358 34.61167886 32.11373464 34.61524088 25.26173019 34.60494518 C22.74584503 34.60444849 20.22994783 34.61080796 17.71409988 34.62450123 C14.28103528 34.64214234 10.84887041 34.63515138 7.41580582 34.62196827 C6.41881361 34.63293752 5.42182141 34.64390676 4.39461732 34.65520841 C-1.73041533 34.59837251 -5.34386079 33.72561628 -10.35232162 30.13422108 C-15.23998597 24.73206575 -15.70206511 21.27616491 -15.63357162 14.11859608 C-15.13170187 8.79320032 -12.59846786 6.23201657 -8.72732162 2.82172108 C-5.50874334 0.53483651 -3.88778755 0.00871423 0 0 Z " fill="#EFEFEF" transform="translate(128.35232162475586,450.86577892303467)"/>
<path d="M0 0 C10.492539 7.06912585 16.9674207 16.73923511 20.375 28.875 C21.62624344 42.39133904 19.70078825 54.63585701 11.28515625 65.66015625 C4.2375013 73.83197701 -5.85278382 81.02628762 -16.90869141 82.09594727 C-37.48519302 83.02585825 -37.48519302 83.02585825 -45.625 77.875 C-46.54410156 77.30394531 -47.46320313 76.73289062 -48.41015625 76.14453125 C-58.80487449 69.13544129 -66.07568951 59.77996431 -69.23828125 47.4921875 C-71.31271164 33.45311315 -68.52982772 22.20009965 -60.66796875 10.44921875 C-46.01563614 -8.01328065 -19.88889168 -11.67862713 0 0 Z " fill="#FDDFC5" transform="translate(169.625,147.125)"/>
<path d="M0 0 C0.73951904 -0.0038269 1.47903809 -0.00765381 2.2409668 -0.01159668 C3.8009579 -0.01431271 5.36099478 -0.00697292 6.92089844 0.00976562 C9.30507186 0.03118327 11.68623249 0.00995737 14.0703125 -0.015625 C15.5885483 -0.01298166 17.10678223 -0.00785656 18.625 0 C19.69077271 -0.01214539 19.69077271 -0.01214539 20.77807617 -0.02453613 C23.98885536 0.03611407 26.03533559 0.35343858 28.75756836 2.09985352 C30.83948968 5.35528678 30.9060284 8.21628687 30.87890625 11.96484375 C30.88510483 12.67979507 30.89130341 13.3947464 30.89768982 14.13136292 C30.90477779 15.6400517 30.90163163 17.14881886 30.88891602 18.6574707 C30.8750607 20.95866831 30.90911089 23.25578715 30.94726562 25.55664062 C30.94821704 27.02604266 30.94635677 28.49544975 30.94140625 29.96484375 C30.95466446 30.64832382 30.96792267 31.33180389 30.98158264 32.03599548 C30.90721055 35.87767706 30.38024097 37.4474931 27.93334961 40.47290039 C25.3125 42.53125 25.3125 42.53125 22.75 43.03125 C19.77193126 42.4203641 18.50392934 41.64266772 16.3125 39.53125 C15.484375 36.61328125 15.484375 36.61328125 15.0625 33.34375 C14.83820313 31.71373047 14.83820313 31.71373047 14.609375 30.05078125 C14.46242188 28.80361328 14.46242188 28.80361328 14.3125 27.53125 C13.79076202 28.05520859 13.26902405 28.57916718 12.73147583 29.1190033 C7.81940294 34.05109504 2.9049393 38.98079301 -2.01223564 43.90779781 C-4.54024937 46.44103501 -7.06732245 48.97519606 -9.59228516 51.51147461 C-12.49366213 54.42577313 -15.3990552 57.33603784 -18.3046875 60.24609375 C-19.66725174 61.61639992 -19.66725174 61.61639992 -21.05734253 63.01438904 C-21.89806305 63.85518509 -22.73878357 64.69598114 -23.60498047 65.56225586 C-24.34666473 66.30616074 -25.088349 67.05006561 -25.85250854 67.81651306 C-28.83776374 70.60613224 -31.2430958 70.93925485 -35.31704712 70.87747192 C-40.08620703 70.18090135 -44.14862391 67.70842441 -48.35546875 65.46484375 C-49.35330887 64.95196304 -50.35114899 64.43908234 -51.37922668 63.91065979 C-54.55263659 62.27856496 -57.71469028 60.6260531 -60.875 58.96875 C-64.04638214 57.30867145 -67.21986062 55.65373867 -70.40290833 54.01612854 C-72.37979696 52.9989956 -74.35008834 51.96891378 -76.31278992 50.92466736 C-77.20754532 50.46411453 -78.10230072 50.00356171 -79.02416992 49.52905273 C-79.80612228 49.11823959 -80.58807465 48.70742645 -81.39372253 48.28416443 C-84.34942523 47.31397824 -85.76212153 47.47209424 -88.6875 48.53125 C-91.21811236 50.51686037 -91.21811236 50.51686037 -93.65795898 53.12695312 C-94.12697632 53.60341782 -94.59599365 54.07988251 -95.07922363 54.57078552 C-96.09307279 55.60315711 -97.10230112 56.64008274 -98.10735893 57.68101501 C-99.70003528 59.32951784 -101.3054112 60.96463119 -102.91481018 62.59680176 C-106.90883153 66.65221039 -110.88273645 70.72711069 -114.85241699 74.80633545 C-118.20891305 78.25502986 -121.57509671 81.6936262 -124.95601082 85.11839294 C-126.53592591 86.72692162 -128.10046557 88.34944729 -129.66514587 89.97277832 C-130.63853217 90.96113719 -131.6126604 91.9487661 -132.58764648 92.93554688 C-133.42972153 93.80078979 -134.27179657 94.66603271 -135.13938904 95.55749512 C-138.09708129 97.84850976 -139.97350722 98.37674378 -143.6875 98.53125 C-146.5625 97.03125 -146.5625 97.03125 -148.6875 94.53125 C-149.4375 91.28125 -149.4375 91.28125 -148.6875 87.53125 C-143.61214286 80.32219199 -136.58534001 74.28253144 -130.35546875 68.06640625 C-129.2715268 66.98178933 -128.18773322 65.89702412 -127.1040802 64.81211853 C-124.8490814 62.55565563 -122.5923093 60.30098599 -120.33422852 58.04760742 C-117.43784593 55.15696268 -114.5460318 52.26179545 -111.65549755 49.36530399 C-109.4260217 47.13222263 -107.19417972 44.90151838 -104.96160316 42.6715374 C-103.89352307 41.60412448 -102.82618557 40.53596796 -101.7596035 39.46705818 C-100.27597546 37.98089937 -98.78919552 36.49796846 -97.30151367 35.01586914 C-96.45658859 34.17173965 -95.61166351 33.32761017 -94.74113464 32.457901 C-91.86745897 29.76191507 -89.82011472 29.10007135 -85.85775757 29.16937256 C-81.07835179 29.96630983 -76.87997791 32.60434435 -72.64453125 34.8515625 C-70.4980498 35.95443278 -68.35156534 37.05729719 -66.20507812 38.16015625 C-62.83870379 39.91200217 -59.47519222 41.66922693 -56.11254883 43.42822266 C-52.85895326 45.12408205 -49.59604722 46.8008716 -46.33203125 48.4765625 C-45.32469437 49.01185577 -44.31735748 49.54714905 -43.27949524 50.09866333 C-42.34139511 50.57931244 -41.40329498 51.05996155 -40.43676758 51.55517578 C-39.61404861 51.98597443 -38.79132965 52.41677307 -37.94367981 52.86062622 C-35.71262413 53.75519888 -35.71262413 53.75519888 -33.61312866 52.86203003 C-31.57144017 51.45104237 -29.8813762 49.97226553 -28.12817383 48.21484375 C-27.45099808 47.54074463 -26.77382233 46.86664551 -26.0761261 46.17211914 C-25.3561998 45.44500732 -24.6362735 44.71789551 -23.89453125 43.96875 C-22.77458015 42.84811157 -22.77458015 42.84811157 -21.63200378 41.70483398 C-20.05706469 40.126877 -18.48455358 38.54649347 -16.91430664 36.96386719 C-14.50394597 34.5352259 -12.08565497 32.11470607 -9.66601562 29.6953125 C-8.13754753 28.16192997 -6.60953687 26.62809132 -5.08203125 25.09375 C-3.99303276 24.00308228 -3.99303276 24.00308228 -2.8820343 22.89038086 C-1.8804554 21.87923218 -1.8804554 21.87923218 -0.85864258 20.84765625 C-0.26892166 20.25412354 0.32079926 19.66059082 0.9283905 19.04907227 C2.41050681 17.56209165 2.41050681 17.56209165 3.3125 15.53125 C2.31669922 15.61826172 2.31669922 15.61826172 1.30078125 15.70703125 C-5.88877796 16.07438099 -5.88877796 16.07438099 -9.8125 13.40625 C-12.0212936 10.01943314 -12.44606436 8.49264166 -11.6875 4.53125 C-8.46768162 0.07770724 -5.15439395 -0.0587387 0 0 Z " fill="#F0CB88" transform="translate(390.6875,182.46875)"/>
<path d="M0 0 C0.66 0 1.32 0 2 0 C5.63 8.58 9.26 17.16 13 26 C22.57 26.99 32.14 27.98 42 29 C38.41352302 33.30377237 35.75148934 36.22460317 31.5 39.5625 C25.90193321 43.91626566 25.90193321 43.91626566 21 49 C20.71546748 51.70970869 20.71546748 51.70970869 21.5 54.5 C21.72429687 55.54027344 21.94859375 56.58054688 22.1796875 57.65234375 C22.45039063 58.75707031 22.72109375 59.86179688 23 61 C23.27070313 62.17691406 23.54140625 63.35382813 23.8203125 64.56640625 C24.33659697 66.80948681 24.86665731 69.04946673 25.4140625 71.28515625 C26 74 26 74 26 77 C22.60760716 75.72873758 19.62516122 74.26422494 16.56640625 72.328125 C15.75236328 71.82925781 14.93832031 71.33039063 14.09960938 70.81640625 C12.40399654 69.76953828 10.71643783 68.70951481 9.03710938 67.63671875 C4.33809708 64.67434728 4.33809708 64.67434728 -1.01953125 64.3203125 C-5.16505689 66.65658514 -9.23364829 69.07267327 -13.25 71.625 C-14.85686245 72.64200155 -16.46612318 73.65522692 -18.078125 74.6640625 C-18.78356445 75.11217285 -19.48900391 75.5602832 -20.21582031 76.02197266 C-22 77 -22 77 -24 77 C-22.56327384 67.18867268 -20.34881011 57.62328026 -18 48 C-18.53882813 47.77957031 -19.07765625 47.55914062 -19.6328125 47.33203125 C-22.79178343 45.5544585 -25.26249777 43.16509972 -27.875 40.6875 C-28.89193052 39.73168934 -29.91015826 38.77725695 -30.9296875 37.82421875 C-31.67943848 37.12304932 -31.67943848 37.12304932 -32.44433594 36.40771484 C-34.05098488 34.95386397 -35.7045772 33.57731087 -37.3828125 32.20703125 C-38.24648438 31.47871094 -39.11015625 30.75039062 -40 30 C-40 29.67 -40 29.34 -40 29 C-30.43 28.01 -20.86 27.02 -11 26 C-7.37 17.42 -3.74 8.84 0 0 Z " fill="#FED551" transform="translate(411,91)"/>
<path d="M0 0 C2.8301913 3.38263104 4.5032781 7.09118459 6.1875 11.125 C6.59645508 12.07439453 6.59645508 12.07439453 7.01367188 13.04296875 C9 17.7324953 9 17.7324953 9 20 C20.385 20.99 20.385 20.99 32 22 C29.28524183 25.39344771 27.19163623 27.89465495 24 30.625 C23.34 31.19476563 22.68 31.76453125 22 32.3515625 C20.0425512 33.96492851 18.04211429 35.49576403 16 37 C16.12117188 37.65484375 16.24234375 38.3096875 16.3671875 38.984375 C17.65133457 45.97803753 18.84891337 52.9832698 20 60 C18.58847656 59.18595703 18.58847656 59.18595703 17.1484375 58.35546875 C15.89067537 57.63272484 14.63286003 56.91007352 13.375 56.1875 C12.75753906 55.83107422 12.14007813 55.47464844 11.50390625 55.10742188 C10.26741213 54.39806472 9.02380415 53.70096573 7.7734375 53.01635742 C6 52 6 52 3.0859375 49.9375 C0.16519103 48.7191634 0.16519103 48.7191634 -2.02783203 49.70629883 C-4.3610377 50.96273963 -6.54666488 52.3404605 -8.75 53.8125 C-10.26363474 54.78046306 -11.7791701 55.74546251 -13.296875 56.70703125 C-13.96041992 57.1450708 -14.62396484 57.58311035 -15.30761719 58.03442383 C-17 59 -17 59 -19 59 C-18.40541468 54.34241497 -17.54724659 49.86313423 -16.40234375 45.30859375 C-15.87373947 42.27553423 -15.54787857 40.08370002 -16 37 C-17.83431683 34.55462049 -20.0495676 32.65724917 -22.375 30.6875 C-22.97828125 30.15060547 -23.5815625 29.61371094 -24.203125 29.06054688 C-27.38624377 26.22368444 -27.38624377 26.22368444 -31 24 C-31 23.34 -31 22.68 -31 22 C-20.11 21.01 -20.11 21.01 -9 20 C-6.40953522 13.79323711 -6.40953522 13.79323711 -3.82446289 7.58422852 C-3.3409436 6.43071899 -3.3409436 6.43071899 -2.84765625 5.25390625 C-2.51773682 4.46314697 -2.18781738 3.6723877 -1.84790039 2.85766602 C-1 1 -1 1 0 0 Z " fill="#FDD552" transform="translate(235,109)"/>
<path d="M0 0 C1.94695819 1.94695819 2.64776172 3.15635959 3.7265625 5.625 C4.0359375 6.33140625 4.3453125 7.0378125 4.6640625 7.765625 C5.13972656 8.87164062 5.13972656 8.87164062 5.625 10 C5.94984375 10.73734375 6.2746875 11.4746875 6.609375 12.234375 C9 17.73883929 9 17.73883929 9 20 C20.385 20.99 20.385 20.99 32 22 C29.525 24.475 29.525 24.475 27 27 C26.37996094 27.63164062 25.75992188 28.26328125 25.12109375 28.9140625 C24.56550781 29.47867188 24.00992188 30.04328125 23.4375 30.625 C22.87933594 31.19476563 22.32117188 31.76453125 21.74609375 32.3515625 C19.92949061 34.06656591 18.02395508 35.53850071 16 37 C16.19916016 38.25103516 16.19916016 38.25103516 16.40234375 39.52734375 C17.41961897 46.00968874 18.33612945 52.47193958 19 59 C13.883654 57.15060521 9.59060413 54.29640188 5.03515625 51.36328125 C1.32635941 49.69742527 -0.14827881 49.78366699 -4 51 C-6.34955792 52.29225686 -8.52919656 53.58451702 -10.75 55.0625 C-16.76730769 59 -16.76730769 59 -19 59 C-18.86722656 58.24976563 -18.73445313 57.49953125 -18.59765625 56.7265625 C-18.2281098 54.58481157 -17.88465679 52.43845233 -17.5625 50.2890625 C-17 47 -17 47 -16.1875 44.3984375 C-15.42663423 41.4786151 -15.20439613 39.93931428 -16 37 C-19.80188415 32.00733122 -25.39360567 26.80319717 -31 24 C-31 23.34 -31 22.68 -31 22 C-23.64206267 21.08839714 -16.41017023 20.88540974 -9 21 C-8.62875 19.7625 -8.2575 18.525 -7.875 17.25 C-5.87666889 11.19708401 -2.94698158 5.63645991 0 0 Z " fill="#FDD552" transform="translate(319,109)"/>
</svg>
